<svg xmlns="http://www.w3.org/2000/svg" width="24" height="24" viewBox="0 0 24 24">
  <g fill="#000000" fill-rule="evenodd" transform="translate(4 2)">
    <path d="M8.2267.0004C7.1217.0004 6.2247.8964 6.2247 2.0024 6.2247 3.1074 7.1217 4.0034 8.2267 4.0034 9.3317 4.0034 10.2287 3.1074 10.2287 2.0024 10.2287.8964 9.3317.0004 8.2267.0004M8.2267 1.0004C8.7797 1.0004 9.2287 1.4494 9.2287 2.0024 9.2287 2.5544 8.7797 3.0034 8.2267 3.0034 7.6737 3.0034 7.2247 2.5544 7.2247 2.0024 7.2247 1.4494 7.6737 1.0004 8.2267 1.0004M12.9845 10.5014L11.0055 10.4994 11.0055 5.9954C11.0055 5.1674 10.3325 4.4954 9.5055 4.4954L6.9975 4.4954C6.1705 4.4954 5.4975 5.1674 5.4975 5.9954L5.4975 13.5014 6.4975 13.5014 6.4975 5.9954C6.4975 5.7204 6.7215 5.4954 6.9975 5.4954L9.5055 5.4954C9.7805 5.4954 10.0055 5.7204 10.0055 5.9954L9.9995 11.5044 12.9845 11.5014C13.2595 11.5014 13.4845 11.7264 13.4845 12.0014L13.4845 17.5084 14.4845 17.5084 14.4845 12.0014C14.4845 11.1744 13.8115 10.5014 12.9845 10.5014"/>
    <path d="M7.0265,9.9438 L7.0265,11.0788 C8.1985,11.7758 8.9935,13.0428 8.9935,14.5028 C8.9935,16.7058 7.2005,18.4988 4.9965,18.4988 C2.7935,18.4988 1.0005,16.7058 1.0005,14.5028 C1.0005,12.2978 2.7935,10.5058 4.9965,10.5058 C5.0065,10.5058 5.0155,10.5078 5.0265,10.5078 L5.0265,9.5078 C5.0155,9.5078 5.0065,9.5058 4.9965,9.5058 C2.2375,9.5058 0.0005,11.7428 0.0005,14.5028 C0.0005,17.2608 2.2375,19.4988 4.9965,19.4988 C7.7555,19.4988 9.9935,17.2608 9.9935,14.5028 C9.9935,12.4658 8.7715,10.7228 7.0265,9.9438"/>
  </g>
</svg>
