<svg xmlns="http://www.w3.org/2000/svg" width="24" height="24" viewBox="0 0 24 24">
  <g fill="#000000" fill-rule="evenodd" transform="translate(2 2)">
    <path d="M7.4473 1.0004C6.9063 1.0004 6.3383 1.2794 5.9263 1.7484 5.4603 2.2804 5.2553 2.9774 5.3513 3.7074 5.5863 5.5054 8.6093 7.9034 10.0533 8.8874 11.4883 7.9584 14.4853 5.6504 14.7403 3.7074 14.8363 2.9774 14.6313 2.2804 14.1633 1.7474 13.7533 1.2794 13.1843 1.0004 12.6443 1.0004 11.2463 1.0004 10.4603 2.1814 10.4263 2.2304L10.0113 2.8664 9.5893 2.2334C9.5813 2.2224 8.7563 1.0004 7.4473 1.0004L7.4473 1.0004zM10.0383 10.0734L9.7743 9.9024C9.5683 9.7694 4.7213 6.6034 4.3593 3.8374 4.2253 2.8174 4.5153 1.8414 5.1763 1.0894 5.7733.4074 6.6233.0004 7.4473.0004 8.6513.0004 9.5273.6804 10.0073 1.1774 10.4893.6794 11.3803.0004 12.6443.0004 13.4683.0004 14.3173.4064 14.9153 1.0884 15.5753 1.8404 15.8653 2.8164 15.7323 3.8374 15.3423 6.8114 10.5113 9.7844 10.3053 9.9094L10.0383 10.0734zM13.0518 18.9652L16.0318 18.9652 16.0418 16.7762 18.3808 14.5412C18.6958 14.2852 18.9038 13.9822 19.0158 13.6342 19.0548 13.5132 19.0808 13.3882 19.0948 13.2622L19.0498 6.4822C19.0498 6.2102 18.8308 5.9912 18.5618 5.9912 18.2928 5.9912 18.0738 6.2102 18.0738 6.4792L18.0518 9.7892C18.0628 9.8002 18.0728 9.8112 18.0818 9.8212 18.3218 10.0892 18.4418 10.4342 18.4208 10.7922 18.4018 11.1512 18.2418 11.4802 17.9748 11.7192L15.6518 13.7332 14.9968 12.9772 17.3148 10.9682C17.4498 10.8472 17.4618 10.6292 17.3358 10.4872 17.2748 10.4192 17.1908 10.3782 17.0988 10.3732 17.0058 10.3722 16.9178 10.3992 16.8498 10.4602L13.9258 13.0132C13.4928 13.4012 13.2808 13.7022 13.1748 14.0822 13.1238 14.2622 13.0908 14.9022 13.0668 15.3682L13.0558 15.5642C13.0308 16.0192 13.0448 18.0222 13.0518 18.9652L13.0518 18.9652zM17.0288 19.9652L12.0618 19.9652 12.0568 19.4702C12.0558 19.3342 12.0238 16.1392 12.0578 15.5112L12.0678 15.3172C12.1078 14.5582 12.1368 14.0782 12.2118 13.8122 12.3728 13.2382 12.6778 12.7902 13.2628 12.2642L16.1878 9.7102C16.4358 9.4892 16.7438 9.3782 17.0548 9.3722L17.0738 6.4762C17.0738 5.6582 17.7408 4.9912 18.5618 4.9912 19.3818 4.9912 20.0498 5.6582 20.0498 6.4792L20.0918 13.3122C20.0688 13.5622 20.0278 13.7552 19.9668 13.9422 19.7958 14.4742 19.4758 14.9422 19.0398 15.2922L17.0398 17.2052 17.0288 19.9652zM4.0576 18.9652L7.0366 18.9652C7.0446 18.0222 7.0576 16.0202 7.0336 15.5652L7.0226 15.3662C6.9976 14.9002 6.9646 14.2602 6.9146 14.0822 6.8076 13.7022 6.5956 13.4012 6.1586 13.0082L3.2436 10.4642C3.1696 10.3992 3.0656 10.3722 2.9916 10.3732 2.8996 10.3782 2.8156 10.4192 2.7536 10.4872 2.6266 10.6292 2.6396 10.8472 2.7806 10.9732L5.0916 12.9772 4.4376 13.7332 2.1206 11.7242C1.8466 11.4802 1.6876 11.1512 1.6676 10.7922 1.6486 10.4342 1.7686 10.0892 2.0076 9.8212 2.0176 9.8112 2.0276 9.8002 2.0376 9.7892L2.0146 6.4832C2.0146 6.2102 1.7956 5.9912 1.5276 5.9912 1.2586 5.9912 1.0396 6.2102 1.0396 6.4792L.9966 13.3182C1.0076 13.3842 1.0346 13.5112 1.0746 13.6362 1.1846 13.9812 1.3936 14.2852 1.6766 14.5132L4.0476 16.7762 4.0576 18.9652zM8.0276 19.9652L3.0616 19.9652 3.0496 17.2052 1.0176 15.2642C.6136 14.9412.2926 14.4742.1216 13.9412.0616 13.7512.0216 13.5602-.0004 13.3702L.0396 6.4762C.0396 5.6582.7066 4.9912 1.5276 4.9912 2.3476 4.9912 3.0146 5.6582 3.0146 6.4792L3.0356 9.3732C3.3456 9.3792 3.6566 9.4912 3.9056 9.7142L6.8216 12.2592C7.4116 12.7892 7.7156 13.2372 7.8776 13.8122 7.9526 14.0782 7.9816 14.5582 8.0216 15.3142L8.0316 15.5112C8.0666 16.1392 8.0336 19.3342 8.0326 19.4702L8.0276 19.9652z"/>
  </g>
</svg>
