<?xml version="1.0" encoding="UTF-8"?>
<svg width="24px" height="24px" viewBox="0 0 24 24" version="1.1" xmlns="http://www.w3.org/2000/svg" xmlns:xlink="http://www.w3.org/1999/xlink">
    <!-- Generator: Sketch 52.3 (67297) - http://www.bohemiancoding.com/sketch -->
    <title>Topic-Icons/Wohnungsnot_state-b</title>
    <desc>Created with Sketch.</desc>
    <g id="Topic-Icons/Wohnungsnot_state-b" stroke="none" stroke-width="1" fill="none" fill-rule="evenodd">
        <g id="Group-18" transform="translate(2.000000, 1.000000)" fill="#000000">
            <polygon id="Fill-1" points="2.01 15.0179 4.011 15.0179 4.011 14.0179 2.01 14.0179"></polygon>
            <polygon id="Fill-2" points="2.01 12.0179 4.011 12.0179 4.011 11.0169 2.01 11.0169"></polygon>
            <polygon id="Fill-3" points="8.01 12.0179 10.01 12.0179 10.01 11.0169 8.01 11.0169"></polygon>
            <polygon id="Fill-4" points="5.01 12.0179 7.01 12.0179 7.01 11.0169 5.01 11.0169"></polygon>
            <polygon id="Fill-5" points="5.01 15.0179 7.01 15.0179 7.01 14.0179 5.01 14.0179"></polygon>
            <polygon id="Fill-6" points="5.01 9.0169 7.01 9.0169 7.01 8.0169 5.01 8.0169"></polygon>
            <polygon id="Fill-7" points="5.01 6.0179 7.01 6.0179 7.01 5.0179 5.01 5.0179"></polygon>
            <polygon id="Fill-8" points="5.01 3.0179 7.01 3.0179 7.01 2.0169 5.01 2.0169"></polygon>
            <polygon id="Fill-9" points="2.01 9.0169 4.011 9.0169 4.011 8.0169 2.01 8.0169"></polygon>
            <polygon id="Fill-10" points="8.01 9.0169 10.01 9.0169 10.01 8.0169 8.01 8.0169"></polygon>
            <polygon id="Fill-11" points="2.01 6.0179 4.011 6.0179 4.011 5.0179 2.01 5.0179"></polygon>
            <polygon id="Fill-12" points="8.01 6.0179 10.01 6.0179 10.01 5.0179 8.01 5.0179"></polygon>
            <polygon id="Fill-13" points="2.01 3.0179 4.011 3.0179 4.011 2.0169 2.01 2.0169"></polygon>
            <polygon id="Fill-14" points="8.01 3.0179 10.01 3.0179 10.01 2.0169 8.01 2.0169"></polygon>
            <polygon id="Fill-15" points="15 17.0179 17 17.0179 17 15.0179 15 15.0179"></polygon>
            <polygon id="Fill-16" points="11 17.0179 13 17.0179 13 15.0179 11 15.0179"></polygon>
            <path d="M0,0.0002 L0,19.0102 L8,19.0102 L8,20.0102 L20,20.0102 L20,14.0092 L14,10.0102 L12,11.3242 L12,0.0002 L0,0.0002 Z M1,1.0002 L11,1.0002 L11,11.9902 L8,14.0092 L8,18.0102 L1,18.0102 L1,1.0002 Z M9,14.4902 L11,13.1902 L11.555,12.8362 L14,11.2902 L19,14.4902 L19,19.0102 L9,19.0102 L9,14.4902 Z" id="Fill-17"></path>
        </g>
    </g>
</svg>