<?xml version="1.0" encoding="UTF-8"?>
<svg width="24px" height="24px" viewBox="0 0 24 24" version="1.1" xmlns="http://www.w3.org/2000/svg" xmlns:xlink="http://www.w3.org/1999/xlink">
    <!-- Generator: Sketch 52.3 (67297) - http://www.bohemiancoding.com/sketch -->
    <title>Topic-Icons/Asylverfahrensberatung_state-b</title>
    <desc>Created with Sketch.</desc>
    <g id="Topic-Icons/Asylverfahrensberatung_state-b" stroke="none" stroke-width="1" fill="none" fill-rule="evenodd">
        <g id="Group-5" transform="translate(3.000000, 2.000000)">
            <path d="M9,0 C4.02944772,0 0,3.81131406 0,8.51214754 C0,10.3401312 0.615068341,12.0287285 1.65218358,13.4162085 L0.0360040004,18 L4.87154128,16.0709346 C6.10867874,16.6763611 7.51083454,17.0242951 9,17.0242951 C13.9705523,17.0242951 18,13.212981 18,8.51214754 C18,3.81131406 13.9705523,0 9,0 Z" id="Stroke-1" stroke="#000000" transform="translate(9.000000, 9.000000) scale(-1, 1) translate(-9.000000, -9.000000) "></path>
            <path d="M8.85478548,7.52908503 C8.69416942,7.48798223 8.54125413,7.44465764 8.39383938,7.39688952 C8.24642464,7.35023228 8.10781078,7.30246415 7.9779978,7.25358513 C7.77007701,7.3313472 7.61716172,7.45243385 7.51925193,7.61351242 C7.42244224,7.77570188 7.3740374,7.96455262 7.3740374,8.17784286 C7.3740374,8.34336498 7.40044004,8.48666936 7.44994499,8.60775601 C7.50055006,8.72773177 7.59185919,8.83659867 7.72387239,8.9343567 C7.85588559,9.03211472 8.03740374,9.12542921 8.26842684,9.21430014 C8.49944994,9.30206019 8.79317932,9.39870733 9.15181518,9.50313068 C9.30693069,9.54867703 9.45874587,9.5931125 9.6039604,9.63643708 C9.74807481,9.67976166 9.88558856,9.72641891 10.0176018,9.77418703 C10.2255226,9.68753787 10.3850385,9.56645122 10.4939494,9.40759443 C10.6050605,9.24984852 10.660066,9.06433044 10.660066,8.84881842 C10.660066,8.6999596 10.630363,8.56554231 10.5731573,8.44556655 C10.5148515,8.32781256 10.4169417,8.21894567 10.2772277,8.11896587 C10.1375138,8.01898606 9.95159516,7.92233892 9.72057206,7.82902444 C9.48954895,7.73459907 9.20132013,7.63461927 8.85478548,7.52908503 M12,8.7588366 C12,9.11320945 11.9163916,9.41870329 11.7491749,9.676429 C11.5819582,9.93304383 11.3465347,10.1418905 11.0451045,10.2996364 C11.290429,10.4829327 11.4785479,10.7028883 11.6061606,10.9595031 C11.7348735,11.2150071 11.79978,11.5316098 11.79978,11.9070895 C11.79978,12.2414664 11.7315732,12.539184 11.5973597,12.7980206 C11.4642464,13.0579681 11.2739274,13.2768128 11.0286029,13.4556655 C10.7821782,13.6345183 10.4862486,13.7689356 10.139714,13.8611392 C9.79427943,13.9533428 9.40814081,14 8.98349835,14 C8.73817382,14 8.49394939,13.9833367 8.25192519,13.9488992 C8.00880088,13.9155726 7.77777778,13.8600283 7.55555556,13.7833771 C7.33443344,13.7067259 7.12871287,13.6067461 6.93949395,13.4834377 C6.74917492,13.3612402 6.58415842,13.2123813 6.44444444,13.0357504 C6.30473047,12.8591194 6.19581958,12.6524944 6.11771177,12.4169865 C6.03850385,12.1825894 6,11.9126439 6,11.608261 L7.3520352,11.6027065 C7.3520352,11.8548778 7.40044004,12.0626136 7.49834983,12.2281357 C7.59405941,12.3947687 7.72167217,12.5269642 7.87678768,12.6269441 C8.03410341,12.725813 8.2090209,12.7957988 8.40264026,12.8380125 C8.59625963,12.8791153 8.78987899,12.9002222 8.98349835,12.9002222 C9.21782178,12.9002222 9.42684268,12.8746718 9.60946095,12.8269037 C9.79207921,12.7780246 9.94389439,12.7102606 10.0682068,12.6236114 C10.190319,12.5369622 10.2849285,12.4336498 10.3487349,12.313674 C10.4147415,12.1925874 10.4466447,12.0615027 10.4466447,11.9181983 C10.4466447,11.7715613 10.4180418,11.6426984 10.3608361,11.5327207 C10.3025303,11.421632 10.2057206,11.3183195 10.0682068,11.2238942 C9.92959296,11.1305797 9.74587459,11.0383761 9.51485149,10.9483943 C9.28382838,10.8573016 8.99669967,10.7617653 8.65346535,10.6595637 C8.23982398,10.5473642 7.87128713,10.4251666 7.54785479,10.2929711 C7.22442244,10.1618865 6.94829483,10.0041406 6.72167217,9.82084427 C6.49394939,9.6353262 6.32013201,9.41759241 6.20132013,9.16542113 C6.08140814,8.91324985 6.02310231,8.61553222 6.02310231,8.26893557 C6.02310231,7.92233892 6.10451045,7.61906686 6.26842684,7.35800848 C6.43234323,7.09583922 6.66556656,6.88477075 6.9669967,6.7225813 C6.72387239,6.53373056 6.54015402,6.31266411 6.41364136,6.05716017 C6.28712871,5.80054534 6.22332233,5.48505352 6.22332233,5.10957382 C6.22332233,4.78963846 6.29042904,4.49969703 6.42244224,4.24086043 C6.55445545,3.98202383 6.74367437,3.75873561 6.9889989,3.57432842 C7.23432343,3.38992123 7.53245325,3.24772773 7.88008801,3.1499697 C8.22882288,3.0499899 8.61606161,3 9.04510451,3 C9.4840484,3 9.88008801,3.05221167 10.2288229,3.15663502 C10.5786579,3.26216926 10.8778878,3.4176934 11.1232123,3.62209655 C11.3685369,3.82761058 11.5566557,4.08089275 11.6875688,4.38194304 C11.8173817,4.68188245 11.8833883,5.0284791 11.8833883,5.4206221 L10.5258526,5.4206221 C10.5258526,5.23621491 10.4939494,5.06291658 10.4312431,4.90405979 C10.3674367,4.74298122 10.2728273,4.60412038 10.1485149,4.48636639 C10.0231023,4.36750151 9.86908691,4.27307615 9.68426843,4.20420117 C9.50055006,4.13421531 9.28712871,4.09977782 9.04510451,4.09977782 C8.7909791,4.09977782 8.57315732,4.1264391 8.38833883,4.17865078 C8.20352035,4.23086245 8.05280528,4.30307009 7.93289329,4.39305191 C7.81408141,4.48303373 7.72607261,4.58967885 7.66776678,4.71187639 C7.60946095,4.83407392 7.5819582,4.96182589 7.5819582,5.09846496 C7.5819582,5.25954353 7.60616062,5.39840436 7.65676568,5.51282569 C7.70737074,5.62724702 7.79867987,5.73167037 7.93069307,5.82609574 C8.06270627,5.92052111 8.24312431,6.00828116 8.47194719,6.09048677 C8.70077008,6.17380327 8.99669967,6.26378509 9.35753575,6.36154312 C9.77887789,6.47485356 10.1529153,6.59816199 10.4807481,6.73369016 C10.8074807,6.86921834 11.0847085,7.02918602 11.310231,7.21359321 C11.5357536,7.3980004 11.7073707,7.61462331 11.8239824,7.8656837 C11.9416942,8.11452232 12,8.41335084 12,8.7588366" id="Fill-3" fill="#000000"></path>
        </g>
    </g>
</svg>