<svg xmlns="http://www.w3.org/2000/svg" width="24" height="24" viewBox="0 0 24 24">
  <g fill="#000000" fill-rule="evenodd" transform="translate(1 2.983)">
    <g transform="translate(5.992 6.012)">
      <polygon points="5.911 13.326 6.911 13.326 6.911 10.826 5.911 10.826"/>
      <polygon points="2.911 13.326 3.911 13.326 3.911 10.826 2.911 10.826"/>
      <path d="M4.8841-.28546088e-14C3.7811-.28546088e-14 2.8881.895 2.8881 1.997 2.8881 3.1 3.7811 3.994 4.8841 3.994 5.9881 3.994 6.8811 3.1 6.8811 1.997 6.8811.895 5.9881-.28546088e-14 4.8841-.28546088e-14M4.8841 1C5.4341 1 5.8811 1.447 5.8811 1.997 5.8811 2.547 5.4341 2.994 4.8841 2.994 4.3341 2.994 3.8881 2.547 3.8881 1.997 3.8881 1.447 4.3341 1 4.8841 1M2.9112 11.0441L6.9112 11.0441 6.9112 5.0671 2.9112 5.0671 2.9112 11.0441zM3.9112 10.0441L5.9112 10.0441 5.9112 6.0671 3.9112 6.0671 3.9112 10.0441z"/>
      <polygon points="6.933 5.063 6.345 5.063 5.92 5.34 8.986 10.024 9.822 9.476"/>
      <polygon points="2.889 5.063 3.477 5.063 3.902 5.34 1 10.006 0 9.476"/>
    </g>
    <path d="M3.5 1.02857301C2.123 1.02857301 1.008 2.14357301 1.008 3.52057301 1.008 4.89657301 2.123 6.01157301 3.5 6.01157301 4.876 6.01157301 5.992 4.89657301 5.992 3.52057301 5.992 2.14357301 4.876 1.02857301 3.5 1.02857301M3.5 2.02857301C4.322 2.02857301 4.992 2.69757301 4.992 3.52057301 4.992 4.34257301 4.322 5.01157301 3.5 5.01157301 2.677 5.01157301 2.008 4.34257301 2.008 3.52057301 2.008 2.69757301 2.677 2.02857301 3.5 2.02857301M18.484-.70894418e-14C17.107-.70894418e-14 15.992 1.115 15.992 2.492 15.992 3.868 17.107 4.983 18.484 4.983 19.86 4.983 20.976 3.868 20.976 2.492 20.976 1.115 19.86-.70894418e-14 18.484-.70894418e-14M18.484 1C19.306 1 19.976 1.669 19.976 2.492 19.976 3.314 19.306 3.983 18.484 3.983 17.661 3.983 16.992 3.314 16.992 2.492 16.992 1.669 17.661 1 18.484 1"/>
    <path fill-rule="nonzero" d="M3.5 6.98844566L3.6920352 6.99367037C5.5357224 7.09424755 7 8.63432364 7 10.5194274L6.992 16.0204457 5.99461721 16.0208529C5.9981871 15.9657045 6 15.9100725 6 15.8540133L6 10.5194274C6 9.18221095 4.96846406 8.08805526 3.66437569 8.00266235L3.5 7.9972976 3.33562431 8.00266235C2.03153594 8.08805526 1 9.18221095 1 10.5194274L1 15.8540133C1 15.9100725 1.0018129 15.9657045 1.00538279 16.0208529L.00384222439 16.0209427C.00129019961 15.9656226 0 15.90997 0 15.8540133L0 10.5194274C0 8.63432364 1.4642776 7.09424755 3.3079648 6.99367037L3.5 6.98844566zM19.4922 6.09272388C20.8729119 6.09272388 21.9922 7.23838796 21.9922 8.65163623L21.9922 16.0377239 20.9922 16.0377239 20.9922 8.65163623C20.9922 7.80368727 20.3206271 7.11628882 19.4922 7.11628882L17.4922 7.11628882C16.6637729 7.11628882 15.9922 7.80368727 15.9922 8.65163623L15.9922 16.0377239 14.9922 16.0377239 14.9922 8.65163623C14.9922 7.23838796 16.1114881 6.09272388 17.4922 6.09272388L19.4922 6.09272388z"/>
  </g>
</svg>
