<?xml version="1.0" encoding="UTF-8"?>
<svg width="24px" height="24px" viewBox="0 0 24 24" version="1.1" xmlns="http://www.w3.org/2000/svg" xmlns:xlink="http://www.w3.org/1999/xlink">
    <!-- Generator: Sketch 52.3 (67297) - http://www.bohemiancoding.com/sketch -->
    <title>Topic-Icons/Begleitung-Lotsen_state-b</title>
    <desc>Created with Sketch.</desc>
    <g id="Topic-Icons/Begleitung-Lotsen_state-b" stroke="none" stroke-width="1" fill="none" fill-rule="evenodd">
        <path d="M11.52,2 L11.52,3.007 L4,3.007 L4,7.985 L11.52,7.985 L11.52,9.983 L7.03,9.983 L4,12.471 L7.03,14.961 L11.52,14.961 L11.52,21.024 L12.52,21.024 L12.52,14.961 L20.039,14.961 L20.039,9.983 L12.52,9.983 L12.52,7.985 L17.01,7.985 L20.039,5.497 L17.01,3.007 L12.52,3.007 L12.52,2 L11.52,2 Z M5,4.007 L16.652,4.007 L18.464,5.496 L16.652,6.985 L5,6.985 L5,4.007 Z M5.575,12.471 L7.388,10.983 L19.04,10.983 L19.04,13.961 L7.388,13.961 L5.575,12.471 Z" id="Fill-1" fill="#000000"></path>
    </g>
</svg>