<svg xmlns="http://www.w3.org/2000/svg" width="24" height="24" viewBox="0 0 24 24">
  <g fill="#000000" fill-rule="evenodd" transform="translate(2 2)">
    <polygon points=".612 10.5 7.004 10.5 7.004 9.5 .612 9.5"/>
    <polygon points="9.464 3.007 10.464 3.007 10.464 0 9.464 0"/>
    <polygon points="12.995 10.5 19.393 10.5 19.393 9.5 12.995 9.5"/>
    <polygon points="11.004 15.489 12.006 15.489 12.006 10.498 11.004 10.498"/>
    <polygon points="8.003 15.489 9.004 15.489 9.004 10.498 8.003 10.498"/>
    <polygon points="8.004 16.5 11.995 16.5 11.995 15.498 8.004 15.498"/>
    <polygon points="8.004 10.5 11.995 10.5 11.995 9.498 8.004 9.498"/>
    <path d="M10.0042,4.5 C8.9002,4.5 8.0042,5.396 8.0042,6.5 C8.0042,7.604 8.9002,8.5 10.0042,8.5 C11.1082,8.5 12.0042,7.604 12.0042,6.5 C12.0042,5.396 11.1082,4.5 10.0042,4.5 M10.0042,5.5 C10.5562,5.5 11.0042,5.948 11.0042,6.5 C11.0042,7.052 10.5562,7.5 10.0042,7.5 C9.4532,7.5 9.0042,7.052 9.0042,6.5 C9.0042,5.948 9.4532,5.5 10.0042,5.5"/>
    <path d="M10.0003,0 C4.4773,0 0.0003,4.478 0.0003,10 C0.0003,15.522 4.4773,20 10.0003,20 C15.5223,20 20.0003,15.522 20.0003,10 C20.0003,4.478 15.5223,0 10.0003,0 M10.0003,1 C14.9623,1 19.0003,5.037 19.0003,10 C19.0003,14.963 14.9623,19 10.0003,19 C5.0373,19 1.0003,14.963 1.0003,10 C1.0003,5.037 5.0373,1 10.0003,1"/>
    <path d="M9.9818,0 C6.6568,0 3.9608,4.478 3.9608,10 C3.9608,15.522 6.6568,20 9.9818,20 C13.3068,20 16.0028,15.522 16.0028,10 C16.0028,4.478 13.3068,0 9.9818,0 M9.9818,1 C12.7038,1 15.0028,5.121 15.0028,10 C15.0028,14.879 12.7038,19 9.9818,19 C7.2598,19 4.9608,14.879 4.9608,10 C4.9608,5.121 7.2598,1 9.9818,1"/>
    <path d="M7.0042 13.4639C5.1972 14.0329 3.6082 15.0939 2.4042 16.4999L3.7852 16.4999C4.6962 15.6269 5.7932 14.9509 7.0042 14.5199L7.0042 13.4639zM12.9955 13.4639L12.9955 14.5199C14.2065 14.9509 15.3035 15.6269 16.2155 16.4999L17.5965 16.4999C16.3915 15.0939 14.8035 14.0329 12.9955 13.4639M7.0042 5.4697C5.7932 5.0377 4.6962 4.3627 3.7852 3.4897L2.4042 3.4897C3.6082 4.8967 5.1972 5.9557 7.0042 6.5267L7.0042 5.4697zM16.2152 3.4893C15.3032 4.3623 14.2062 5.0383 12.9952 5.4693L12.9952 6.5263C14.8032 5.9563 16.3922 4.8963 17.5962 3.4893L16.2152 3.4893z"/>
  </g>
</svg>
