<?xml version="1.0" encoding="UTF-8"?>
<svg width="24px" height="24px" viewBox="0 0 24 24" version="1.1" xmlns="http://www.w3.org/2000/svg" xmlns:xlink="http://www.w3.org/1999/xlink">
    <!-- Generator: Sketch 52.3 (67297) - http://www.bohemiancoding.com/sketch -->
    <title>Topic-Icons/Migrationsberatung_state-b</title>
    <desc>Created with Sketch.</desc>
    <defs>
        <polygon id="path-1" points="0 18 19 18 19 0 0 0"></polygon>
    </defs>
    <g id="Topic-Icons/Migrationsberatung_state-b" stroke="none" stroke-width="1" fill="none" fill-rule="evenodd">
        <g id="Group-14" transform="translate(2.000000, 3.000000)">
            <path d="M16,4.64668968 C15.7421969,4.41794791 15.473185,4.19956072 15.1828764,4 C13.7526298,5.26513963 11.7361614,6.05867587 9.5,6.05867587 C7.26383859,6.05867587 5.24737024,5.26513963 3.81712364,4 C3.52681497,4.19956072 3.25780307,4.41794791 3,4.64668968 C4.6331264,6.09350486 6.93878255,7 9.5,7 C12.0612175,7 14.3668736,6.09350486 16,4.64668968 Z" id="Fill-1" fill="#000000"></path>
            <path d="M16,12.3533103 C15.7421969,12.5820521 15.473185,12.8004393 15.1828764,13 C13.7526298,11.7348604 11.7361614,10.9413241 9.5,10.9413241 C7.26383859,10.9413241 5.24737024,11.7348604 3.81712364,13 C3.52681497,12.8004393 3.25780307,12.5820521 3,12.3533103 C4.6331264,10.9064951 6.93878255,10 9.5,10 C12.0612175,10 14.3668736,10.9064951 16,12.3533103 Z" id="Fill-3" fill="#000000"></path>
            <path d="M9.5,1 C5.358125,1 2,4.358125 2,8.5 C2,12.641875 5.358125,16 9.5,16 C13.641875,16 17,12.641875 17,8.5 C17,4.358125 13.641875,1 9.5,1 M9.5,1.9375 C13.11875,1.9375 16.0625,4.88125 16.0625,8.5 C16.0625,12.11875 13.11875,15.0625 9.5,15.0625 C5.88125,15.0625 2.9375,12.11875 2.9375,8.5 C2.9375,4.88125 5.88125,1.9375 9.5,1.9375" id="Fill-5" fill="#000000"></path>
            <path d="M9.5,1 C7.015,1 5,4.358125 5,8.5 C5,12.641875 7.015,16 9.5,16 C11.985,16 14,12.641875 14,8.5 C14,4.358125 11.985,1 9.5,1 M9.5,2 C11.155,2 13,4.66964286 13,8.5 C13,12.3303571 11.155,15 9.5,15 C7.845,15 6,12.3303571 6,8.5 C6,4.66964286 7.845,2 9.5,2" id="Fill-7" fill="#000000"></path>
            <mask id="mask-2" fill="white">
                <use xlink:href="#path-1"></use>
            </mask>
            <g id="Clip-10"></g>
            <polygon id="Fill-9" fill="#000000" mask="url(#mask-2)" points="2 9 17 9 17 8 2 8"></polygon>
            <polygon id="Fill-11" fill="#000000" mask="url(#mask-2)" points="9 16 10 16 10 2 9 2"></polygon>
            <path d="M0.806714628,0.000894683027 L0.806714628,0.89557771 L2.41055156,0.894683027 C0.870023981,2.59100204 0,4.76239775 0,7 L0.959232614,7 C0.959232614,4.99233129 1.69592326,3.1099182 3.04076739,1.58895706 L3.04076739,2.9783998 L4,2.9783998 L4,0 L0.806714628,0.000894683027 Z" id="Fill-12" fill="#000000" mask="url(#mask-2)"></path>
            <path d="M18.1932854,17.9991053 L18.1932854,17.1044223 L16.5894484,17.105317 C18.129976,15.408998 19,13.2376022 19,11 L18.0407674,11 C18.0407674,13.0076687 17.3040767,14.8900818 15.9592326,16.4110429 L15.9592326,15.0216002 L15,15.0216002 L15,18 L18.1932854,17.9991053 Z" id="Fill-13" fill="#000000" mask="url(#mask-2)"></path>
        </g>
    </g>
</svg>