<svg xmlns="http://www.w3.org/2000/svg" width="24" height="24" viewBox="0 0 24 24">
  <g fill="#000000" fill-rule="evenodd" transform="translate(1 2)">
    <polygon points="4.999 5 6 5 6 .001 4.999 .001"/>
    <polygon points="9.99 19 10.99 19 10.99 0 9.99 0"/>
    <polygon points="14.99 5 15.99 5 15.99 .001 14.99 .001"/>
    <polygon points="4.999 19 6 19 6 14 4.999 14"/>
    <polygon points="14.99 19 15.99 19 15.99 14 14.99 14"/>
    <path d="M6.7577 14L2.9057 14C1.8557 14 .9997 13.145.9997 12.094L1.0127 10 .9997 6.906C.9997 5.855 1.8557 5 2.9057 5L3.8147 5 6.7577 5C7.1707 5 7.5077 5.337 7.5077 5.75 7.5077 6.163 7.1707 6.5 6.7577 6.5L3.4977 6.5 3.4977 7.526 6.7457 7.525C7.1587 7.525 7.4957 7.862 7.4957 8.275 7.4957 8.649 7.2137 8.945 6.8557 9L3.4977 9 3.4977 9.008 3.4977 9.992 3.4977 10 6.8557 10C7.2137 10.055 7.4957 10.351 7.4957 10.725 7.4957 11.138 7.1587 11.475 6.7457 11.475L3.4977 11.485 3.4977 12.5 6.7577 12.5C7.1707 12.5 7.5077 12.837 7.5077 13.25 7.5077 13.663 7.1707 14 6.7577 14M8.4957 10.725C8.4957 10.245 8.2977 9.815 7.9837 9.5 8.2977 9.185 8.4957 8.755 8.4957 8.275 8.4957 7.779 8.2837 7.336 7.9497 7.018 8.2907 6.7 8.5077 6.252 8.5077 5.75 8.5077 4.809 7.7587 4.044 6.8247 4.007L6.8247 4 3.3557 4 2.9057 4C1.3037 4-.0003 5.304-.0003 6.906L.0147 9.5-.0003 12.094C-.0003 13.696 1.3037 15 2.9057 15L3.3557 15 6.8247 15 6.8247 14.993C7.7587 14.956 8.5077 14.191 8.5077 13.25 8.5077 12.748 8.2907 12.3 7.9497 11.982 8.2837 11.664 8.4957 11.221 8.4957 10.725M13.5087 13.25C13.5087 12.837 13.8457 12.5 14.2587 12.5L17.5187 12.5 17.5187 11.485 14.2707 11.475C13.8577 11.475 13.5207 11.138 13.5207 10.725 13.5207 10.351 13.8017 10.055 14.1607 10L17.5187 10 17.5187 9.992 17.5187 9.008 17.5187 9 14.1607 9C13.8017 8.945 13.5207 8.649 13.5207 8.275 13.5207 7.862 13.8577 7.525 14.2707 7.525L17.5187 7.526 17.5187 6.5 14.2587 6.5C13.8457 6.5 13.5087 6.163 13.5087 5.75 13.5087 5.337 13.8457 5 14.2587 5L17.2007 5 18.1097 5C19.1597 5 20.0157 5.855 20.0157 6.906L20.0037 10 20.0157 12.094C20.0157 13.145 19.1597 14 18.1097 14L14.2587 14C13.8457 14 13.5087 13.663 13.5087 13.25M13.0657 11.981C12.7257 12.3 12.5087 12.748 12.5087 13.25 12.5087 14.191 13.2577 14.956 14.1907 14.993L14.1907 15 17.6607 15 18.1097 15C19.7117 15 21.0157 13.696 21.0157 12.094L21.0007 9.5 21.0157 6.906C21.0157 5.304 19.7117 4 18.1097 4L17.6607 4 14.1907 4 14.1907 4.007C13.2577 4.044 12.5087 4.809 12.5087 5.75 12.5087 6.252 12.7257 6.7 13.0657 7.018 12.7327 7.335 12.5207 7.779 12.5207 8.275 12.5207 8.755 12.7187 9.185 13.0317 9.5 12.7187 9.815 12.5207 10.245 12.5207 10.725 12.5207 11.221 12.7327 11.664 13.0657 11.981"/>
  </g>
</svg>
