<?xml version="1.0" encoding="UTF-8"?>
<svg width="24px" height="24px" viewBox="0 0 24 24" version="1.1" xmlns="http://www.w3.org/2000/svg" xmlns:xlink="http://www.w3.org/1999/xlink">
    <!-- Generator: Sketch 52.3 (67297) - http://www.bohemiancoding.com/sketch -->
    <title>Topic-Icons/Arbeit und Qualifizierung_state-b</title>
    <desc>Created with Sketch.</desc>
    <defs>
        <polygon id="path-1" points="0 0.0004 18.744926 0.0004 18.744926 18.8122 0 18.8122"></polygon>
    </defs>
    <g id="Topic-Icons/Arbeit-und-Qualifizierung_state-b" stroke="none" stroke-width="1" fill="none" fill-rule="evenodd">
        <g id="Group-3" transform="translate(3.000000, 2.000000)">
            <mask id="mask-2" fill="white">
                <use xlink:href="#path-1"></use>
            </mask>
            <g id="Clip-2"></g>
            <path d="M17.4271,17.5252 C17.2051,17.7472 16.9591,17.7942 16.7911,17.7942 C16.5261,17.7942 16.2671,17.6812 16.0621,17.4762 L10.5751,11.9892 L11.9901,10.5752 L17.4761,16.0622 C17.8531,16.4382 17.8301,17.1222 17.4271,17.5252 Z M5.8741,15.2762 L4.4601,13.8622 L7.7471,10.5752 L8.4541,9.8682 L9.8681,8.4542 L10.5751,7.7462 L14.8981,3.4242 L17.0281,2.7232 L16.3151,4.8352 L11.9891,9.1602 L11.2821,9.8682 L9.8681,11.2822 L9.1611,11.9892 L5.8741,15.2762 Z M3.7531,17.3972 L2.3391,15.9832 L3.7531,14.5692 L5.1671,15.9832 L3.7531,17.3972 Z M5.3131,6.7282 L4.7571,6.8742 C4.5001,6.9422 4.2351,6.9772 3.9691,6.9772 C3.1731,6.9772 2.4271,6.6702 1.8701,6.1122 C1.2551,5.4972 0.9571,4.6632 1.0051,3.8332 L2.6271,5.4552 L5.4551,2.6272 L3.8331,1.0052 C3.8921,1.0022 3.9511,1.0002 4.0101,1.0002 C4.8051,1.0002 5.5511,1.3092 6.1121,1.8702 C6.8681,2.6252 7.1531,3.7042 6.8751,4.7572 L6.7281,5.3132 L9.1611,7.7472 L7.7471,9.1612 L5.3131,6.7282 Z M18.1831,15.3552 L12.6971,9.8682 L17.1881,5.3772 L18.6151,1.1482 L14.3591,2.5492 L9.8681,7.0392 L7.8411,5.0122 C8.1931,3.6812 7.8641,2.2072 6.8191,1.1632 C6.0421,0.3862 5.0271,0.0002 4.0101,0.0002 C3.3041,0.0002 2.5981,0.1862 1.9701,0.5552 L4.0411,2.6272 L2.6271,4.0412 L0.5551,1.9702 C-0.3469,3.5032 -0.1539,5.5032 1.1631,6.8192 C1.9391,7.5962 2.9531,7.9772 3.9691,7.9772 C4.3201,7.9772 4.6711,7.9322 5.0131,7.8412 L7.0401,9.8682 L0.9251,15.9832 L3.7531,18.8122 L9.8681,12.6972 L15.3551,18.1832 C15.7581,18.5862 16.2761,18.7942 16.7911,18.7942 C17.2751,18.7942 17.7561,18.6102 18.1341,18.2322 C18.9151,17.4512 18.9641,16.1362 18.1831,15.3552 Z" id="Fill-1" fill="#000000" mask="url(#mask-2)"></path>
        </g>
    </g>
</svg>