<svg xmlns="http://www.w3.org/2000/svg" width="24" height="24" viewBox="0 0 24 24" xmlns:xlink="http://www.w3.org/1999/xlink">
  <defs>
    <polygon id="a" points="0 18 19 18 19 0 0 0"/>
  </defs>
  <g fill="none" fill-rule="evenodd" transform="translate(2 3)">
    <path fill="#000000" d="M16 4.64668968C15.7421969 4.41794791 15.473185 4.19956072 15.1828764 4 13.7526298 5.26513963 11.7361614 6.05867587 9.5 6.05867587 7.26383859 6.05867587 5.24737024 5.26513963 3.81712364 4 3.52681497 4.19956072 3.25780307 4.41794791 3 4.64668968 4.6331264 6.09350486 6.93878255 7 9.5 7 12.0612175 7 14.3668736 6.09350486 16 4.64668968zM16 12.3533103C15.7421969 12.5820521 15.473185 12.8004393 15.1828764 13 13.7526298 11.7348604 11.7361614 10.9413241 9.5 10.9413241 7.26383859 10.9413241 5.24737024 11.7348604 3.81712364 13 3.52681497 12.8004393 3.25780307 12.5820521 3 12.3533103 4.6331264 10.9064951 6.93878255 10 9.5 10 12.0612175 10 14.3668736 10.9064951 16 12.3533103z"/>
    <path fill="#000000" d="M9.5,1 C5.358125,1 2,4.358125 2,8.5 C2,12.641875 5.358125,16 9.5,16 C13.641875,16 17,12.641875 17,8.5 C17,4.358125 13.641875,1 9.5,1 M9.5,1.9375 C13.11875,1.9375 16.0625,4.88125 16.0625,8.5 C16.0625,12.11875 13.11875,15.0625 9.5,15.0625 C5.88125,15.0625 2.9375,12.11875 2.9375,8.5 C2.9375,4.88125 5.88125,1.9375 9.5,1.9375"/>
    <path fill="#000000" d="M9.5,1 C7.015,1 5,4.358125 5,8.5 C5,12.641875 7.015,16 9.5,16 C11.985,16 14,12.641875 14,8.5 C14,4.358125 11.985,1 9.5,1 M9.5,2 C11.155,2 13,4.66964286 13,8.5 C13,12.3303571 11.155,15 9.5,15 C7.845,15 6,12.3303571 6,8.5 C6,4.66964286 7.845,2 9.5,2"/>
    <mask id="b" fill="white">
      <use xlink:href="#a"/>
    </mask>
    <polygon fill="#000000" points="2 9 17 9 17 8 2 8" mask="url(#b)"/>
    <polygon fill="#000000" points="9 16 10 16 10 2 9 2" mask="url(#b)"/>
    <path fill="#000000" d="M.806714628.000894683027L.806714628.89557771 2.41055156.894683027C.870023981 2.59100204 0 4.76239775 0 7L.959232614 7C.959232614 4.99233129 1.69592326 3.1099182 3.04076739 1.58895706L3.04076739 2.9783998 4 2.9783998 4 0 .806714628.000894683027zM18.1932854 17.9991053L18.1932854 17.1044223 16.5894484 17.105317C18.129976 15.408998 19 13.2376022 19 11L18.0407674 11C18.0407674 13.0076687 17.3040767 14.8900818 15.9592326 16.4110429L15.9592326 15.0216002 15 15.0216002 15 18 18.1932854 17.9991053z" mask="url(#b)"/>
  </g>
</svg>
