<?xml version="1.0" encoding="UTF-8"?>
<svg width="24px" height="24px" viewBox="0 0 24 24" version="1.1" xmlns="http://www.w3.org/2000/svg" xmlns:xlink="http://www.w3.org/1999/xlink">
    <!-- Generator: Sketch 52.3 (67297) - http://www.bohemiancoding.com/sketch -->
    <title>Topic-Icons/Antidiskriminierung_state-b</title>
    <desc>Created with Sketch.</desc>
    <g id="Topic-Icons/Antidiskriminierung_state-b" stroke="none" stroke-width="1" fill="none" fill-rule="evenodd">
        <g id="Group-15" transform="translate(2.000000, 6.000000)">
            <path d="M4.4944,-1.77635684e-15 C3.1184,-1.77635684e-15 2.0024,1.116 2.0024,2.492 C2.0024,3.868 3.1184,4.984 4.4944,4.984 C5.8704,4.984 6.9864,3.868 6.9864,2.492 C6.9864,1.116 5.8704,-1.77635684e-15 4.4944,-1.77635684e-15 M4.4944,1 C5.3174,1 5.9864,1.669 5.9864,2.492 C5.9864,3.315 5.3174,3.984 4.4944,3.984 C3.6714,3.984 3.0024,3.315 3.0024,2.492 C3.0024,1.669 3.6714,1 4.4944,1" id="Fill-1" fill="#000000"></path>
            <path d="M1,10.0152 L0,10.0152 C0.001,7.5372 2.018,5.5222 4.494,5.5222 C6.973,5.5222 8.988,7.5372 8.988,10.0152 L7.988,10.0152 C7.988,8.0892 6.421,6.5222 4.494,6.5222 C2.568,6.5222 1.001,8.0892 1,10.0152" id="Fill-3" fill="#000000"></path>
            <path d="M15.5256,-1.77635684e-15 C14.1496,-1.77635684e-15 13.0336,1.116 13.0336,2.492 C13.0336,3.868 14.1496,4.984 15.5256,4.984 C16.9016,4.984 18.0176,3.868 18.0176,2.492 C18.0176,1.116 16.9016,-1.77635684e-15 15.5256,-1.77635684e-15 M15.5256,1 C16.3486,1 17.0176,1.669 17.0176,2.492 C17.0176,3.315 16.3486,3.984 15.5256,3.984 C14.7026,3.984 14.0336,3.315 14.0336,2.492 C14.0336,1.669 14.7026,1 15.5256,1" id="Fill-5" fill="#000000"></path>
            <path d="M12.0312,10.0152 L11.0312,10.0152 C11.0322,7.5372 13.0492,5.5222 15.5252,5.5222 C18.0042,5.5222 20.0192,7.5372 20.0192,10.0152 L19.0192,10.0152 C19.0192,8.0892 17.4522,6.5222 15.5252,6.5222 C13.5992,6.5222 12.0322,8.0892 12.0312,10.0152" id="Fill-7" fill="#000000"></path>
            <path d="M9.9631,2.0312 C8.5871,2.0312 7.4711,3.1472 7.4711,4.5232 C7.4711,5.8992 8.5871,7.0152 9.9631,7.0152 C11.3391,7.0152 12.4551,5.8992 12.4551,4.5232 C12.4551,3.1472 11.3391,2.0312 9.9631,2.0312 M9.9631,3.0312 C10.7861,3.0312 11.4551,3.7002 11.4551,4.5232 C11.4551,5.3462 10.7861,6.0152 9.9631,6.0152 C9.1401,6.0152 8.4711,5.3462 8.4711,4.5232 C8.4711,3.7002 9.1401,3.0312 9.9631,3.0312" id="Fill-9" fill="#000000"></path>
            <path d="M13.9571,12.0467 C13.9571,9.8407 12.1691,8.0527 9.9631,8.0527 C7.7571,8.0527 5.9691,9.8407 5.9691,12.0467" id="Fill-11" fill="#FFFFFF"></path>
            <path d="M6.4687,12.0464 L5.4687,12.0464 C5.4697,9.5684 7.4867,7.5534 9.9627,7.5534 C12.4417,7.5534 14.4567,9.5684 14.4567,12.0464 L13.4567,12.0464 C13.4567,10.1204 11.8897,8.5534 9.9627,8.5534 C8.0367,8.5534 6.4697,10.1204 6.4687,12.0464" id="Fill-13" fill="#000000"></path>
        </g>
    </g>
</svg>