<svg xmlns="http://www.w3.org/2000/svg" width="24" height="24" viewBox="0 0 24 24">
  <g fill="none" fill-rule="evenodd">
    <g fill="#000000" transform="translate(1 5)">
      <path d="M3.38,6.99814222 L1.79184211,6.99814222 C0.921052632,6.99814222 0.212894737,6.34034222 0.212894737,5.53147556 L0.212894737,1.63283111 C0.212894737,0.823964444 0.921052632,0.166164444 1.79184211,0.166164444 L3.38,0.166164444 C4.25052632,0.166164444 4.95894737,0.823964444 4.95894737,1.63283111 L4.95894737,5.53147556 C4.95894737,6.34034222 4.25052632,6.99814222 3.38,6.99814222 Z M1.79184211,1.14394222 C1.50184211,1.14394222 1.26552632,1.36345333 1.26552632,1.63283111 L1.26552632,5.53147556 C1.26552632,5.80085333 1.50184211,6.02036444 1.79184211,6.02036444 L3.38,6.02036444 C3.66973684,6.02036444 3.90631579,5.80085333 3.90631579,5.53147556 L3.90631579,1.63283111 C3.90631579,1.36345333 3.66973684,1.14394222 3.38,1.14394222 L1.79184211,1.14394222 Z" transform="translate(2 3)"/>
      <polygon points="3 15 4 15 4 9 3 9"/>
      <polygon points="5 15 6 15 6 9 5 9"/>
      <path d="M3.22578947,6.99814222 L1.63763158,6.99814222 C0.766842105,6.99814222 0.0586842105,6.34034222 0.0586842105,5.53147556 L0.0586842105,1.63283111 C0.0586842105,0.823964444 0.766842105,0.166164444 1.63763158,0.166164444 L3.22578947,0.166164444 C4.09631579,0.166164444 4.80473684,0.823964444 4.80473684,1.63283111 L4.80473684,5.53147556 C4.80473684,6.34034222 4.09631579,6.99814222 3.22578947,6.99814222 Z M1.63763158,1.14394222 C1.34763158,1.14394222 1.11131579,1.36345333 1.11131579,1.63283111 L1.11131579,5.53147556 C1.11131579,5.80085333 1.34763158,6.02036444 1.63763158,6.02036444 L3.22578947,6.02036444 C3.51578947,6.02036444 3.75210526,5.80085333 3.75210526,5.53147556 L3.75210526,1.63283111 C3.75210526,1.36345333 3.51578947,1.14394222 3.22578947,1.14394222 L1.63763158,1.14394222 Z" transform="translate(14 3)"/>
      <polygon points="17.876 4.245 19.461 9.786 20.325 9.499 18.801 3.961" transform="rotate(-3 19.1 6.874)"/>
      <polygon points=".786 4.65 2.182 9.846 3.047 9.558 1.738 4.368" transform="scale(-1 1) rotate(-3 0 80.294)"/>
      <polygon points="17 15 18 15 18 9 17 9"/>
      <polygon points="15 15 16 15 16 9 15 9"/>
      <g transform="translate(3)">
        <path d="M7.55263158.977777778C7.82822213.977777778 8.05263158 1.20202318 8.05263158 1.47777778 8.05263158 1.75353237 7.82822213 1.97777778 7.55263158 1.97777778 7.27687699 1.97777778 7.05263158 1.75353237 7.05263158 1.47777778 7.05263158 1.20202318 7.27687699.977777778 7.55263158.977777778M7.5 0C6.67146708 0 6 .671679909 6 1.5 6 2.32853292 6.67146708 3 7.5 3 8.32832009 3 9 2.32853292 9 1.5 9 .671679909 8.32832009 0 7.5 0M13.5526316.977777778C13.8282221.977777778 14.0526316 1.20202318 14.0526316 1.47777778 14.0526316 1.75353237 13.8282221 1.97777778 13.5526316 1.97777778 13.276877 1.97777778 13.0526316 1.75353237 13.0526316 1.47777778 13.0526316 1.20202318 13.276877.977777778 13.5526316.977777778M13.5 0C12.6714671 0 12 .671679909 12 1.5 12 2.32853292 12.6714671 3 13.5 3 14.3283201 3 15 2.32853292 15 1.5 15 .671679909 14.3283201 0 13.5 0M1.55263158.977777778C1.82822213.977777778 2.05263158 1.20202318 2.05263158 1.47777778 2.05263158 1.75353237 1.82822213 1.97777778 1.55263158 1.97777778 1.27687699 1.97777778 1.05263158 1.75353237 1.05263158 1.47777778 1.05263158 1.20202318 1.27687699.977777778 1.55263158.977777778M1.5 0C.671467083 0 0 .671679909 0 1.5 0 2.32853292.671467083 3 1.5 3 2.32832009 3 3 2.32853292 3 1.5 3 .671679909 2.32832009 0 1.5 0M8.29768421 9.99814222L6.70952632 9.99814222C5.83873684 9.99814222 5.13057895 9.34034222 5.13057895 8.53147556L5.13057895 4.63283111C5.13057895 3.82396444 5.83873684 3.16616444 6.70952632 3.16616444L8.29768421 3.16616444C9.16847368 3.16616444 9.87663158 3.82396444 9.87663158 4.63283111L9.87663158 8.53147556C9.87663158 9.34034222 9.16847368 9.99814222 8.29768421 9.99814222zM6.70952632 4.14394222C6.41952632 4.14394222 6.18321053 4.36345333 6.18321053 4.63283111L6.18321053 8.53147556C6.18321053 8.80085333 6.41952632 9.02036444 6.70952632 9.02036444L8.29768421 9.02036444C8.58768421 9.02036444 8.824 8.80085333 8.824 8.53147556L8.824 4.63283111C8.824 4.36345333 8.58768421 4.14394222 8.29768421 4.14394222L6.70952632 4.14394222z"/>
      </g>
      <polygon points="9 15 10 15 10 9 9 9"/>
      <polygon points="11 15 12 15 12 9 11 9"/>
    </g>
    <polygon fill="#000000" points="7.791 9.093 7 8.796 8.424 2.782 9.16 2.782"/>
    <polygon fill="#000000" points="8.603 2.782 7.745 2.782 9.338 9.144 10.196 8.834"/>
    <polygon fill="#000000" points="13.791 9.093 13 8.796 14.424 2.782 15.16 2.782"/>
    <polygon fill="#000000" points="14.603 2.782 13.745 2.782 15.338 9.144 16.196 8.834"/>
  </g>
</svg>
