<svg xmlns="http://www.w3.org/2000/svg" width="24" height="24" viewBox="0 0 24 24" xmlns:xlink="http://www.w3.org/1999/xlink">
  <defs>
    <polygon id="a" points="0 22 22 22 22 0 0 0"/>
  </defs>
  <g fill="none" fill-rule="evenodd" transform="translate(1 1)">
    <path fill="#000000" d="M11,2 C6.029,2 2,6.029 2,11 C2,15.971 6.029,20 11,20 C15.971,20 20,15.971 20,11 C20,6.029 15.971,2 11,2 M11,3 C15.411,3 19,6.589 19,11 C19,15.411 15.411,19 11,19 C6.589,19 3,15.411 3,11 C3,6.589 6.589,3 11,3"/>
    <path fill="#000000" d="M11,8 C9.343,8 8,9.343 8,11 C8,12.657 9.343,14 11,14 C12.657,14 14,12.657 14,11 C14,9.343 12.657,8 11,8 M11,9 C12.103,9 13,9.897 13,11 C13,12.103 12.103,13 11,13 C9.897,13 9,12.103 9,11 C9,9.897 9.897,9 11,9"/>
    <mask id="b" fill="white">
      <use xlink:href="#a"/>
    </mask>
    <polygon fill="#000000" points="10.5 2.5 11.5 2.5 11.5 0 10.5 0" mask="url(#b)"/>
    <polygon fill="#000000" points="10.5 19.5 11.5 19.5 11.5 22 10.5 22" mask="url(#b)"/>
    <polygon fill="#000000" points="2.5 10.5 2.5 11.5 0 11.5 0 10.5" mask="url(#b)"/>
    <polygon fill="#000000" points="19.5 11.5 22 11.5 22 10.5 19.5 10.5" mask="url(#b)"/>
    <polygon fill="#000000" points="16.657 17.364 17.364 16.657 19.132 18.425 18.425 19.132" mask="url(#b)"/>
    <polygon fill="#000000" points="5.343 4.636 4.636 5.343 2.868 3.575 3.575 2.868" mask="url(#b)"/>
    <polygon fill="#000000" points="17.364 5.343 16.657 4.636 18.425 2.868 19.132 3.575" mask="url(#b)"/>
    <polygon fill="#000000" points="4.636 16.657 5.343 17.364 3.575 19.132 2.868 18.425" mask="url(#b)"/>
    <polygon fill="#000000" points="8.209 2.956 7.285 3.339 6.328 1.029 7.252 .646" mask="url(#b)"/>
    <polygon fill="#000000" points="13.791 19.044 14.715 18.661 15.672 20.971 14.748 21.354" mask="url(#b)"/>
    <polygon fill="#000000" points="2.956 13.791 3.339 14.715 1.029 15.672 .646 14.748" mask="url(#b)"/>
    <polygon fill="#000000" points="19.044 8.209 18.661 7.285 20.971 6.328 21.354 7.252" mask="url(#b)"/>
    <polygon fill="#000000" points="18.662 14.715 19.045 13.791 21.354 14.748 20.972 15.672" mask="url(#b)"/>
    <polygon fill="#000000" points="3.338 7.285 2.955 8.209 .646 7.252 1.028 6.328" mask="url(#b)"/>
    <polygon fill="#000000" points="14.715 3.338 13.791 2.955 14.748 .646 15.672 1.028" mask="url(#b)"/>
    <polygon fill="#000000" points="7.285 18.662 8.209 19.045 7.252 21.354 6.328 20.972" mask="url(#b)"/>
  </g>
</svg>
