<svg xmlns="http://www.w3.org/2000/svg" width="24" height="24" viewBox="0 0 24 24">
  <g fill="#000000" fill-rule="evenodd" transform="translate(1 6)">
    <path d="M4.4947 1.9932C3.1177 1.9932 2.0027 3.1082 2.0027 4.4852 2.0027 5.8612 3.1177 6.9762 4.4947 6.9762 5.8707 6.9762 6.9867 5.8612 6.9867 4.4852 6.9867 3.1082 5.8707 1.9932 4.4947 1.9932M4.4947 2.9932C5.3167 2.9932 5.9867 3.6622 5.9867 4.4852 5.9867 5.3072 5.3167 5.9762 4.4947 5.9762 3.6717 5.9762 3.0027 5.3072 3.0027 4.4852 3.0027 3.6622 3.6717 2.9932 4.4947 2.9932M.9996 12.0078L-.0004 12.0078C.0006 9.5298 2.0176 7.5148 4.4936 7.5148 6.9726 7.5148 8.9876 9.5298 8.9876 12.0078L7.9876 12.0078C7.9876 10.0818 6.4206 8.5148 4.4936 8.5148 2.5676 8.5148 1.0006 10.0818.9996 12.0078M17.4947 1.9932C16.1177 1.9932 15.0027 3.1082 15.0027 4.4852 15.0027 5.8612 16.1177 6.9762 17.4947 6.9762 18.8707 6.9762 19.9867 5.8612 19.9867 4.4852 19.9867 3.1082 18.8707 1.9932 17.4947 1.9932M17.4947 2.9932C18.3167 2.9932 18.9867 3.6622 18.9867 4.4852 18.9867 5.3072 18.3167 5.9762 17.4947 5.9762 16.6717 5.9762 16.0027 5.3072 16.0027 4.4852 16.0027 3.6622 16.6717 2.9932 17.4947 2.9932M13.9996 12.0078L12.9996 12.0078C13.0006 9.5298 15.0176 7.5148 17.4936 7.5148 19.9726 7.5148 21.9876 9.5298 21.9876 12.0078L20.9876 12.0078C20.9876 10.0818 19.4206 8.5148 17.4936 8.5148 15.5676 8.5148 14.0006 10.0818 13.9996 12.0078"/>
    <polygon points="8.967 3 12.967 3 12.967 2 8.967 2"/>
    <polygon points="8.967 5 12.967 5 12.967 4 8.967 4"/>
    <polygon points="11.969 0 8.967 7 9.962 7 12.967 0"/>
  </g>
</svg>
