<svg xmlns="http://www.w3.org/2000/svg" width="24" height="24" viewBox="0 0 24 24">
  <g fill="#000000" fill-rule="evenodd" transform="translate(2 2)">
    <path d="M9.1831,9.499 C9.3731,9.675 9.7421,9.851 10.2891,10.026 C10.7091,10.163 11.0961,10.31 11.4481,10.466 C11.6431,10.29 11.7941,10.104 11.9021,9.909 C12.0091,9.714 12.0631,9.523 12.0631,9.338 C12.0631,9.103 12.0191,8.91 11.9311,8.759 C11.8431,8.607 11.6891,8.471 11.4691,8.349 C11.2491,8.227 10.9191,8.087 10.4801,7.931 C10.1381,7.804 9.8101,7.672 9.4981,7.535 C9.3121,7.721 9.1661,7.916 9.0581,8.121 C8.9511,8.326 8.8971,8.521 8.8971,8.707 C8.8971,9.059 8.9931,9.323 9.1831,9.499 M13.0301,12.342 C13.0301,12.996 12.7661,13.516 12.2391,13.902 C11.7111,14.288 11.0211,14.48 10.1721,14.48 C9.2251,14.48 8.4041,14.236 7.7101,13.748 L8.2231,12.854 C8.5161,13.05 8.8211,13.193 9.1391,13.286 C9.4561,13.38 9.8151,13.426 10.2161,13.426 C10.6461,13.426 10.9971,13.343 11.2721,13.177 C11.5451,13.011 11.6821,12.776 11.6821,12.474 C11.6821,12.239 11.6331,12.049 11.5361,11.901 C11.4381,11.755 11.2641,11.618 11.0151,11.491 C10.7661,11.364 10.3821,11.218 9.8641,11.052 C9.0531,10.788 8.4721,10.5 8.1211,10.187 C7.7691,9.875 7.5931,9.44 7.5931,8.883 C7.5931,8.531 7.6931,8.202 7.8931,7.895 C8.0941,7.586 8.3701,7.325 8.7221,7.11 C8.4571,6.935 8.2621,6.727 8.1351,6.487 C8.0081,6.248 7.9451,5.962 7.9451,5.63 C7.9451,4.976 8.1991,4.46 8.7071,4.084 C9.2151,3.708 9.8741,3.52 10.6851,3.52 C11.6331,3.52 12.4681,3.784 13.1911,4.312 L12.6781,5.161 C12.3561,4.956 12.0381,4.805 11.7261,4.707 C11.4121,4.609 11.0611,4.561 10.6701,4.561 C10.2311,4.561 9.8891,4.646 9.6441,4.816 C9.4001,4.988 9.2781,5.225 9.2781,5.527 C9.2781,5.762 9.3251,5.955 9.4171,6.106 C9.5101,6.258 9.6831,6.402 9.9371,6.539 C10.1911,6.676 10.5681,6.827 11.0671,6.993 C11.8771,7.267 12.4601,7.564 12.8181,7.887 C13.1741,8.209 13.3521,8.629 13.3521,9.146 C13.3521,9.821 12.9811,10.407 12.2391,10.905 C12.7661,11.267 13.0301,11.746 13.0301,12.342"/>
    <path d="M10.4727,1 C5.5107,1 1.4727,4.589 1.4727,9 C1.4727,10.75 2.1067,12.418 3.3067,13.824 L3.5127,14.064 L1.9897,17.457 L5.7147,15.784 L5.9297,15.896 C7.3117,16.618 8.8827,17 10.4727,17 C15.4347,17 19.4727,13.411 19.4727,9 C19.4727,4.589 15.4347,1 10.4727,1 Z M-0.0003,19.445 L2.3427,14.227 C1.1187,12.69 0.4727,10.89 0.4727,9 C0.4727,4.037 4.9587,-3.19744231e-14 10.4727,-3.19744231e-14 C15.9857,-3.19744231e-14 20.4727,4.037 20.4727,9 C20.4727,13.963 15.9857,18 10.4727,18 C8.8047,18 7.1547,17.618 5.6847,16.894 L-0.0003,19.445 Z"/>
  </g>
</svg>
