<svg xmlns="http://www.w3.org/2000/svg" width="24" height="24" viewBox="0 0 24 24">
  <g fill="#000000" fill-rule="evenodd" transform="translate(2 4)">
    <path d="M0,17 L11,17 L11,0 L0,0 L0,17 Z M0.916666667,16.1057338 L10.0835625,16.1057338 L10.0835625,0.894489742 L0.916666667,0.894489742 L0.916666667,16.1057338 Z"/>
    <polygon points="2 15 5 15 5 14 2 14"/>
    <polygon points="6 15 9 15 9 14 6 14"/>
    <polygon points="2 12 5 12 5 11 2 11"/>
    <polygon points="6 12 9 12 9 11 6 11"/>
    <polygon points="2 9 5 9 5 8 2 8"/>
    <polygon points="6 9 9 9 9 8 6 8"/>
    <polygon points="2 6 5 6 5 5 2 5"/>
    <polygon points="6 6 9 6 9 5 6 5"/>
    <polygon points="2 3 5 3 5 2 2 2"/>
    <polygon points="6 3 9 3 9 2 6 2"/>
    <path d="M12,11.599865 L12,17 L21,17 L21,11.599865 L16.5,8 L12,11.599865 Z M12.9,12.0323258 L16.5,9.15247881 L20.1,12.0323258 L20.1,16.1002025 L12.9,16.1002025 L12.9,12.0323258 Z"/>
    <polygon points="14 15 16 15 16 13 14 13"/>
    <polygon points="17 15 19 15 19 13 17 13"/>
  </g>
</svg>
