<?xml version="1.0" encoding="UTF-8"?>
<svg width="24px" height="24px" viewBox="0 0 24 24" version="1.1" xmlns="http://www.w3.org/2000/svg" xmlns:xlink="http://www.w3.org/1999/xlink">
    <!-- Generator: Sketch 52.3 (67297) - http://www.bohemiancoding.com/sketch -->
    <title>Topic-Icons/Gewalt_state-b</title>
    <desc>Created with Sketch.</desc>
    <defs>
        <polygon id="path-1" points="11 0 13 0 13 4 11 4"></polygon>
        <polygon id="path-3" points="15 0 17 0 17 4 15 4"></polygon>
        <polygon id="path-5" points="15 16 17 16 17 20 15 20"></polygon>
        <polygon id="path-7" points="11 16 13 16 13 20 11 20"></polygon>
        <polygon id="path-9" points="11 0 13 0 13 4 11 4"></polygon>
        <polygon id="path-11" points="15 0 17 0 17 4 15 4"></polygon>
        <polygon id="path-13" points="15 16 17 16 17 20 15 20"></polygon>
        <polygon id="path-15" points="11 16 13 16 13 20 11 20"></polygon>
    </defs>
    <g id="Topic-Icons/Gewalt_state-b" stroke="none" stroke-width="1" fill="none" fill-rule="evenodd">
        <g id="Group-29" transform="translate(1.000000, 2.000000)">
            <polygon id="Fill-1" fill="#FFFFFF" points="17 10 21 10 21 9 17 9"></polygon>
            <polygon id="Fill-2" fill="#FFFFFF" points="17 13.926925 20.6072472 15 21 14.073075 17.3915839 13"></polygon>
            <polygon id="Fill-3" fill="#FFFFFF" points="17 5.07352941 17.3915839 6 21 4.92745098 20.6072472 4"></polygon>
            <g id="Group-28" transform="translate(0.000000, 2.000000)" fill="#FFFFFF">
                <path d="M14.1019567,11.9629874 L12.8787917,11.9629874 L12.8787917,11.9572154 L11.1309966,11.9572154 C10.7433533,11.9418234 10.4305184,11.6291734 10.4305184,11.2414874 C10.4305184,10.8441814 10.7579264,10.5199874 11.1591712,10.5199874 L14.1019567,10.5199874 C14.5032015,10.5199874 14.8306095,10.8441814 14.8306095,11.2414874 C14.8306095,11.6387934 14.5032015,11.9629874 14.1019567,11.9629874 Z M0.971634156,7.3896394 C0.971634156,5.3780974 2.32984288,3.5743474 4.27485996,3.0038814 L4.27388843,3.0019574 L8.88577457,1.6051334 L12.3755355,5.2087854 L12.0257822,5.5416374 C11.745008,5.8081114 11.3729093,5.9418294 10.9862376,5.9427914 C10.5976228,5.9341334 10.2352395,5.7763654 9.96515218,5.4983474 L7.9569852,3.4242754 L7.5159074,3.8427454 L7.23901935,4.0947894 C7.64803643,4.5373094 7.87440455,5.1096994 7.87440455,5.7090254 C7.87440455,7.0250414 6.79405541,8.0947854 5.46596433,8.0947854 L5.46596433,9.0567854 C7.32257154,9.0567854 8.83234004,7.5656854 8.84399848,5.7292274 L9.26370247,6.1630894 C9.32685237,6.2275434 9.39874611,6.2794914 9.4667537,6.3362494 C9.46481063,6.3651094 9.4589814,6.3930074 9.4589814,6.4228294 C9.4589814,6.8951714 9.65814649,7.3213374 9.97583909,7.6272534 C9.65911803,7.9322074 9.4589814,8.3554874 9.4589814,8.8278294 C9.4589814,9.3030574 9.6610611,9.7301854 9.98166831,10.0361014 C9.6610611,10.3410554 9.4589814,10.7672214 9.4589814,11.2414874 C9.4589814,11.4983414 9.52213131,11.7388414 9.62608577,11.9572154 L5.53397192,11.9572154 C3.01380493,11.9264314 0.971634156,9.8918014 0.971634156,7.3896394 Z M14.1019567,3.2963294 C14.5032015,3.2963294 14.8306095,3.6205234 14.8306095,4.0178294 C14.8306095,4.4151354 14.5032015,4.7393294 14.1019567,4.7393294 L13.2674065,4.7393294 L11.8693647,3.2963294 L14.1019567,3.2963294 Z M14.8306095,8.8278294 C14.8306095,9.2251354 14.5032015,9.5493294 14.1019567,9.5493294 L11.1591712,9.5493294 C10.7579264,9.5493294 10.4305184,9.2251354 10.4305184,8.8278294 C10.4305184,8.4305234 10.7579264,8.1063294 11.1591712,8.1063294 L14.1019567,8.1063294 C14.5032015,8.1063294 14.8306095,8.4305234 14.8306095,8.8278294 Z M14.1019567,7.1443294 L11.1591712,7.1443294 C10.9260023,7.1443294 10.7278087,7.0288894 10.5937366,6.8595774 C10.7171218,6.8807414 10.8395355,6.9009434 10.9658353,6.9038294 C10.983323,6.9047914 11.0017822,6.9047914 11.0182983,6.9047914 C11.6488258,6.9047914 12.2424349,6.6671774 12.6980858,6.2342774 L13.2596342,5.7013294 L14.1019567,5.7013294 C14.5032015,5.7013294 14.8306095,6.0255234 14.8306095,6.4228294 C14.8306095,6.8201354 14.5032015,7.1443294 14.1019567,7.1443294 Z M15.8021465,6.4228294 C15.8021465,5.9495254 15.6000668,5.5252834 15.2804311,5.2203294 C15.6000668,4.9153754 15.8021465,4.4911334 15.8021465,4.0178294 C15.8021465,3.1097014 15.0705791,2.3728094 14.1612205,2.3401014 L14.1612205,2.3343294 L10.9318315,2.3343294 L9.17626414,0.5161494 L9.1752926,0.5123014 L3.89790361,2.1101834 C3.90178975,2.1140314 3.90178975,2.1130694 3.90470436,2.1169174 C1.60216167,2.8393794 9.71537004e-05,4.9894494 9.71537004e-05,7.3896394 C9.71537004e-05,10.2804494 2.25017685,12.6796774 5.10649564,12.9240254 L14.1680213,12.9249874 L14.1680213,12.9182534 C15.0744653,12.8836214 15.8021465,12.1476914 15.8021465,11.2414874 C15.8021465,10.7652974 15.5981237,10.3400934 15.2755734,10.0341774 C15.5981237,9.7292234 15.8021465,9.3040194 15.8021465,8.8278294 C15.8021465,8.3545254 15.6000668,7.9302834 15.2804311,7.6253294 C15.6000668,7.3203754 15.8021465,6.8961334 15.8021465,6.4228294 Z" id="Fill-4"></path>
            </g>
            <mask id="mask-2" fill="white">
                <use xlink:href="#path-1"></use>
            </mask>
            <g id="Clip-7"></g>
            <polygon id="Fill-6" fill="#FFFFFF" mask="url(#mask-2)" points="13 3.74992593 12.0336803 4 11 0.250074074 11.9663197 0"></polygon>
            <mask id="mask-4" fill="white">
                <use xlink:href="#path-3"></use>
            </mask>
            <g id="Clip-10"></g>
            <polygon id="Fill-9" fill="#FFFFFF" mask="url(#mask-4)" points="15 3.74992593 15.9663197 4 17 0.250074074 16.0336803 0"></polygon>
            <mask id="mask-6" fill="white">
                <use xlink:href="#path-5"></use>
            </mask>
            <g id="Clip-13"></g>
            <polygon id="Fill-12" fill="#FFFFFF" mask="url(#mask-6)" points="15 16.2500741 15.9663197 16 17 19.7499259 16.0336803 20"></polygon>
            <mask id="mask-8" fill="white">
                <use xlink:href="#path-7"></use>
            </mask>
            <g id="Clip-16"></g>
            <polygon id="Fill-15" fill="#FFFFFF" mask="url(#mask-8)" points="13 16.2500741 12.0336803 16 11 19.7499259 11.9663197 20"></polygon>
        </g>
        <g id="Group-29" transform="translate(1.000000, 2.000000)">
            <polygon id="Fill-1" fill="#000000" points="17 10 21 10 21 9 17 9"></polygon>
            <polygon id="Fill-2" fill="#000000" points="17 13.926925 20.6072472 15 21 14.073075 17.3915839 13"></polygon>
            <polygon id="Fill-3" fill="#000000" points="17 5.07352941 17.3915839 6 21 4.92745098 20.6072472 4"></polygon>
            <g id="Group-28" transform="translate(0.000000, 2.000000)" fill="#000000">
                <path d="M14.1019567,11.9629874 L12.8787917,11.9629874 L12.8787917,11.9572154 L11.1309966,11.9572154 C10.7433533,11.9418234 10.4305184,11.6291734 10.4305184,11.2414874 C10.4305184,10.8441814 10.7579264,10.5199874 11.1591712,10.5199874 L14.1019567,10.5199874 C14.5032015,10.5199874 14.8306095,10.8441814 14.8306095,11.2414874 C14.8306095,11.6387934 14.5032015,11.9629874 14.1019567,11.9629874 Z M0.971634156,7.3896394 C0.971634156,5.3780974 2.32984288,3.5743474 4.27485996,3.0038814 L4.27388843,3.0019574 L8.88577457,1.6051334 L12.3755355,5.2087854 L12.0257822,5.5416374 C11.745008,5.8081114 11.3729093,5.9418294 10.9862376,5.9427914 C10.5976228,5.9341334 10.2352395,5.7763654 9.96515218,5.4983474 L7.9569852,3.4242754 L7.5159074,3.8427454 L7.23901935,4.0947894 C7.64803643,4.5373094 7.87440455,5.1096994 7.87440455,5.7090254 C7.87440455,7.0250414 6.79405541,8.0947854 5.46596433,8.0947854 L5.46596433,9.0567854 C7.32257154,9.0567854 8.83234004,7.5656854 8.84399848,5.7292274 L9.26370247,6.1630894 C9.32685237,6.2275434 9.39874611,6.2794914 9.4667537,6.3362494 C9.46481063,6.3651094 9.4589814,6.3930074 9.4589814,6.4228294 C9.4589814,6.8951714 9.65814649,7.3213374 9.97583909,7.6272534 C9.65911803,7.9322074 9.4589814,8.3554874 9.4589814,8.8278294 C9.4589814,9.3030574 9.6610611,9.7301854 9.98166831,10.0361014 C9.6610611,10.3410554 9.4589814,10.7672214 9.4589814,11.2414874 C9.4589814,11.4983414 9.52213131,11.7388414 9.62608577,11.9572154 L5.53397192,11.9572154 C3.01380493,11.9264314 0.971634156,9.8918014 0.971634156,7.3896394 Z M14.1019567,3.2963294 C14.5032015,3.2963294 14.8306095,3.6205234 14.8306095,4.0178294 C14.8306095,4.4151354 14.5032015,4.7393294 14.1019567,4.7393294 L13.2674065,4.7393294 L11.8693647,3.2963294 L14.1019567,3.2963294 Z M14.8306095,8.8278294 C14.8306095,9.2251354 14.5032015,9.5493294 14.1019567,9.5493294 L11.1591712,9.5493294 C10.7579264,9.5493294 10.4305184,9.2251354 10.4305184,8.8278294 C10.4305184,8.4305234 10.7579264,8.1063294 11.1591712,8.1063294 L14.1019567,8.1063294 C14.5032015,8.1063294 14.8306095,8.4305234 14.8306095,8.8278294 Z M14.1019567,7.1443294 L11.1591712,7.1443294 C10.9260023,7.1443294 10.7278087,7.0288894 10.5937366,6.8595774 C10.7171218,6.8807414 10.8395355,6.9009434 10.9658353,6.9038294 C10.983323,6.9047914 11.0017822,6.9047914 11.0182983,6.9047914 C11.6488258,6.9047914 12.2424349,6.6671774 12.6980858,6.2342774 L13.2596342,5.7013294 L14.1019567,5.7013294 C14.5032015,5.7013294 14.8306095,6.0255234 14.8306095,6.4228294 C14.8306095,6.8201354 14.5032015,7.1443294 14.1019567,7.1443294 Z M15.8021465,6.4228294 C15.8021465,5.9495254 15.6000668,5.5252834 15.2804311,5.2203294 C15.6000668,4.9153754 15.8021465,4.4911334 15.8021465,4.0178294 C15.8021465,3.1097014 15.0705791,2.3728094 14.1612205,2.3401014 L14.1612205,2.3343294 L10.9318315,2.3343294 L9.17626414,0.5161494 L9.1752926,0.5123014 L3.89790361,2.1101834 C3.90178975,2.1140314 3.90178975,2.1130694 3.90470436,2.1169174 C1.60216167,2.8393794 9.71537004e-05,4.9894494 9.71537004e-05,7.3896394 C9.71537004e-05,10.2804494 2.25017685,12.6796774 5.10649564,12.9240254 L14.1680213,12.9249874 L14.1680213,12.9182534 C15.0744653,12.8836214 15.8021465,12.1476914 15.8021465,11.2414874 C15.8021465,10.7652974 15.5981237,10.3400934 15.2755734,10.0341774 C15.5981237,9.7292234 15.8021465,9.3040194 15.8021465,8.8278294 C15.8021465,8.3545254 15.6000668,7.9302834 15.2804311,7.6253294 C15.6000668,7.3203754 15.8021465,6.8961334 15.8021465,6.4228294 Z" id="Fill-4"></path>
            </g>
            <mask id="mask-10" fill="white">
                <use xlink:href="#path-9"></use>
            </mask>
            <g id="Clip-7"></g>
            <polygon id="Fill-6" fill="#000000" mask="url(#mask-10)" points="13 3.74992593 12.0336803 4 11 0.250074074 11.9663197 0"></polygon>
            <mask id="mask-12" fill="white">
                <use xlink:href="#path-11"></use>
            </mask>
            <g id="Clip-10"></g>
            <polygon id="Fill-9" fill="#000000" mask="url(#mask-12)" points="15 3.74992593 15.9663197 4 17 0.250074074 16.0336803 0"></polygon>
            <mask id="mask-14" fill="white">
                <use xlink:href="#path-13"></use>
            </mask>
            <g id="Clip-13"></g>
            <polygon id="Fill-12" fill="#000000" mask="url(#mask-14)" points="15 16.2500741 15.9663197 16 17 19.7499259 16.0336803 20"></polygon>
            <mask id="mask-16" fill="white">
                <use xlink:href="#path-15"></use>
            </mask>
            <g id="Clip-16"></g>
            <polygon id="Fill-15" fill="#000000" mask="url(#mask-16)" points="13 16.2500741 12.0336803 16 11 19.7499259 11.9663197 20"></polygon>
        </g>
    </g>
</svg>