<svg xmlns="http://www.w3.org/2000/svg" width="96" height="96" viewBox="0 0 96 96">
  <path fill="#000000" fill-rule="evenodd" d="M59.4180812,21.1949223 C69.7402242,25.5363577 77,35.8486743 77,47.8797569 C77,55.6130631 74.0005322,62.6364764 69.1163087,67.8205263 L70.9391323,83 L58.3075824,75.0049995 C55.6882651,75.9778296 52.8888257,76.5721546 49.97379,76.7225941 L49.9741038,68.8878044 C54.6133295,68.6601484 59.0701085,67.3595129 63.0660414,65.1054541 C63.7858236,64.6994334 64.0445113,63.7790046 63.6438367,63.0496188 C63.243162,62.320233 62.3348523,62.0580937 61.6150702,62.4641144 C58.2214885,64.3783939 54.459932,65.5284258 50.5356561,65.8244123 L49.9739605,65.8608766 L49.9732035,56.9749658 L49.9663754,56.8293981 C49.8986151,56.110819 49.3343723,55.5390478 48.6252546,55.4703834 L48.4816036,55.4634642 L42.55322,55.4634642 L59.4180812,21.1949223 Z M48.5004972,19 C51.3088075,19 54.0222719,19.4116174 56.5853314,20.1785693 L38.8077447,56.3004086 L38.7541815,56.4217565 C38.3874573,57.357244 39.0216975,58.39595 40.0114978,58.4808847 L40.1425656,58.4864673 L46.9900037,58.4864673 L46.990436,65.8588586 C42.8312074,65.6267733 38.8431009,64.4377525 35.269031,62.3982235 C34.5512317,61.9886141 33.6416585,62.2462152 33.2374424,62.9735918 C32.8332263,63.7009683 33.0874356,64.6226775 33.8052349,65.0322868 C37.6556914,67.2295348 41.9401915,68.5385786 46.4065665,68.8509017 L46.9901479,68.8859781 L46.9900954,76.7206596 C31.9518931,75.9249637 20,63.3167053 20,47.8797569 C20,31.9293845 32.7601403,19 48.5004972,19 Z M34.4193864,40.1610222 C33.0457761,40.1610222 31.9327995,41.2888486 31.9327995,42.6795966 C31.9327995,44.0715343 33.0457761,45.1993608 34.4193864,45.1993608 C35.7918227,45.1993608 36.9047993,44.0715343 36.9047993,42.6795966 C36.9047993,41.2888486 35.7918227,40.1610222 34.4193864,40.1610222 Z M61.2670112,40.1610222 C59.8945749,40.1610222 58.7815984,41.2888486 58.7815984,42.6795966 C58.7815984,44.0715343 59.8945749,45.1993608 61.2670112,45.1993608 C62.6406216,45.1993608 63.7535982,44.0715343 63.7535982,42.6795966 C63.7535982,41.2888486 62.6406216,40.1610222 61.2670112,40.1610222 Z"/>
</svg>
