<svg xmlns="http://www.w3.org/2000/svg" width="48" height="48" viewBox="0 0 48 48" xmlns:xlink="http://www.w3.org/1999/xlink">
  <defs>
    <polygon id="a" points="0 .002 27.959 .002 27.959 26.353 0 26.353"/>
    <polygon id="c" points="0 26.998 27.959 26.998 27.959 .647 0 .647"/>
  </defs>
  <g fill="none" fill-rule="evenodd" transform="translate(10 11)">
    <g transform="translate(0 .645)">
      <mask id="b" fill="white">
        <use xlink:href="#a"/>
      </mask>
      <path fill="#FFFFFF" d="M1.64705882,11.3332471 L1.64705882,21.2172471 C1.64705882,23.1410118 3.16235294,24.7057176 5.02352941,24.7057176 C6.88470588,24.7057176 8.4,23.1410118 8.4,21.2172471 L8.32423529,11.2525412 L1.64705882,11.3332471 Z M8.70470588,24.7057176 L23.3552941,24.7057176 C25.3861176,24.7057176 26.3117647,22.8972471 26.3117647,21.2172471 L26.3117647,1.64854118 L9.89717647,1.64854118 L10.0470588,21.2106588 C10.0470588,22.5596 9.53647059,23.7883059 8.70470588,24.7057176 L8.70470588,24.7057176 Z M23.3552941,26.3527765 L4.83576471,26.3494824 C2.15270588,26.2490118 0,23.9859529 0,21.2172471 L0,9.70595294 L8.31105882,9.60548235 L8.23694118,0.00148235294 L27.9588235,0.00148235294 L27.9588235,21.2172471 C27.9588235,24.1934824 26.0218824,26.3527765 23.3552941,26.3527765 L23.3552941,26.3527765 Z" mask="url(#b)"/>
    </g>
    <mask id="d" fill="white">
      <use xlink:href="#c"/>
    </mask>
    <polygon fill="#FFFFFF" points="11.577 7.262 24.745 7.262 24.745 5.615 11.577 5.615" mask="url(#d)"/>
    <polygon fill="#FFFFFF" points="11.577 10.571 24.745 10.571 24.745 8.924 11.577 8.924" mask="url(#d)"/>
    <polygon fill="#FFFFFF" points="11.577 13.883 24.745 13.883 24.745 12.236 11.577 12.236" mask="url(#d)"/>
    <polygon fill="#FFFFFF" points="11.577 17.193 21.422 17.193 21.422 15.546 11.577 15.546" mask="url(#d)"/>
  </g>
</svg>
