<svg xmlns="http://www.w3.org/2000/svg" width="87" height="87" viewBox="0 0 87 87">
  <g fill="none" fill-rule="evenodd">
    <rect width="12" height="6" x="37.5" y="81" fill="#000000" fill-rule="nonzero"/>
    <rect width="12" height="6" x="37.5" fill="#000000" fill-rule="nonzero"/>
    <rect width="6" height="11" x="40.5" y="3" fill="#000000" fill-rule="nonzero"/>
    <rect width="6" height="8" x="40.5" y="74" fill="#000000" fill-rule="nonzero"/>
    <rect width="12" height="6" x="78" y="40.5" fill="#000000" fill-rule="nonzero" transform="rotate(-90 84 43.5)"/>
    <rect width="12" height="6" x="-3" y="40.5" fill="#000000" fill-rule="nonzero" transform="rotate(-90 3 43.5)"/>
    <rect width="6" height="11" x="5.5" y="38" fill="#000000" fill-rule="nonzero" transform="rotate(-90 8.5 43.5)"/>
    <rect width="6" height="8" x="75" y="39.5" fill="#000000" fill-rule="nonzero" transform="rotate(-90 78 43.5)"/>
    <rect width="12" height="6" x="66.138" y="69.138" fill="#000000" fill-rule="nonzero" transform="rotate(-45 72.138 72.138)"/>
    <rect width="12" height="6" x="8.862" y="11.862" fill="#000000" fill-rule="nonzero" transform="rotate(-45 14.862 14.862)"/>
    <rect width="6" height="11" x="15.751" y="13.251" fill="#000000" fill-rule="nonzero" transform="rotate(-45 18.751 18.751)"/>
    <rect width="6" height="8" x="64.895" y="63.895" fill="#000000" fill-rule="nonzero" transform="rotate(-45 67.895 67.895)"/>
    <rect width="12" height="6" x="66.138" y="11.862" fill="#000000" fill-rule="nonzero" transform="rotate(-135 72.138 14.862)"/>
    <rect width="12" height="6" x="8.862" y="69.138" fill="#000000" fill-rule="nonzero" transform="rotate(-135 14.862 72.138)"/>
    <rect width="6" height="11" x="15.751" y="62.749" fill="#000000" fill-rule="nonzero" transform="rotate(-135 18.751 68.249)"/>
    <rect width="6" height="8" x="64.895" y="15.105" fill="#000000" fill-rule="nonzero" transform="rotate(-135 67.895 19.105)"/>
    <ellipse cx="43.5" cy="43.5" stroke="#000000" stroke-width="6" rx="29" ry="28.5"/>
    <circle cx="28" cy="43.5" r="4.5" fill="#000000" fill-rule="nonzero"/>
    <circle cx="44" cy="43.5" r="4.5" fill="#000000" fill-rule="nonzero"/>
    <circle cx="36" cy="30.5" r="4.5" fill="#000000" fill-rule="nonzero"/>
    <circle cx="51" cy="30.5" r="4.5" fill="#000000" fill-rule="nonzero"/>
    <circle cx="36" cy="57.5" r="4.5" fill="#000000" fill-rule="nonzero"/>
    <circle cx="51" cy="57.5" r="4.5" fill="#000000" fill-rule="nonzero"/>
    <circle cx="59" cy="43.5" r="4.5" fill="#000000" fill-rule="nonzero"/>
  </g>
</svg>
