<?xml version="1.0" encoding="UTF-8"?>
<svg width="146px" height="144px" viewBox="0 0 146 144" version="1.1" xmlns="http://www.w3.org/2000/svg" xmlns:xlink="http://www.w3.org/1999/xlink">
    <!-- Generator: Sketch 52.3 (67297) - http://www.bohemiancoding.com/sketch -->
    <title>IKMO-Logo</title>
    <desc>Created with Sketch.</desc>
    <defs>
        <polygon id="path-1" points="0.1067 0.874 70.6044166 0.874 70.6044166 110.222104 0.1067 110.222104"></polygon>
        <polygon id="path-3" points="0.573715566 0.7795 104.2775 0.7795 104.2775 101 0.573715566 101"></polygon>
        <polygon id="path-5" points="0.500625097 0.3856 109.952 0.3856 109.952 89.4360482 0.500625097 89.4360482"></polygon>
    </defs>
    <g id="IKMO-Logo" stroke="none" stroke-width="1" fill="none" fill-rule="evenodd">
        <g id="Group-14">
            <path d="M0.4827,59.0961 C24.0377,12.2311 73.3367,13.4691 99.7067,42.9961 C110.7767,55.3901 110.6997,64.1351 110.3117,82.4581 C112.3037,73.0291 123.9667,57.6021 110.3227,32.8161 C103.3857,20.2151 91.4837,9.1391 72.6537,5.4891 C35.5617,-1.7019 4.2287,29.3431 0.4827,59.0961" id="Fill-1" fill="#BC287E"></path>
            <g id="Group-5" transform="translate(68.000000, 0.126000)">
                <mask id="mask-2" fill="white">
                    <use xlink:href="#path-1"></use>
                </mask>
                <g id="Clip-4"></g>
                <path d="M9.3837,109.9583 C45.0877,113.2203 73.8347,85.8053 70.3117,51.2993 C67.2327,21.1413 35.7777,-1.5247 0.1067,1.0773 L4.5277,3.0253 C17.4527,7.1683 21.3757,6.5913 33.6897,18.1003 C61.4367,44.0343 56.1487,93.2793 14.6437,107.6863 L9.3837,109.9583 Z" id="Fill-3" fill="#1B79B2" mask="url(#mask-2)"></path>
            </g>
            <path d="M36.7934,133.7474 C15.2404,114.4324 8.2014,88.4704 22.8674,62.9444 C28.8974,52.4484 36.2594,45.2524 48.8594,39.7214 C66.3694,32.0364 74.2554,34.5554 91.3934,38.9784 C78.8914,22.3884 29.1654,13.0834 6.6144,52.3654 C-12.6306,85.8894 14.0164,124.6934 36.7934,133.7474" id="Fill-6" fill="#E9B52A"></path>
            <g id="Group-10" transform="translate(17.000000, 42.126000)">
                <mask id="mask-4" fill="white">
                    <use xlink:href="#path-3"></use>
                </mask>
                <g id="Clip-9"></g>
                <path d="M104.2775,82.7005 C89.4575,87.6335 82.5695,93.8235 61.7425,89.5885 C6.9645,78.4495 8.4255,13.3915 31.4855,0.7795 C18.9285,5.1595 6.7955,19.0185 2.5115,34.0865 C-6.8235,66.9185 18.5025,102.1275 58.3955,100.9725 C76.1575,100.4585 96.3805,92.1465 104.2775,82.7005" id="Fill-8" fill="#02A86B" mask="url(#mask-4)"></path>
            </g>
            <g id="Group-13" transform="translate(36.000000, 41.126000)">
                <mask id="mask-6" fill="white">
                    <use xlink:href="#path-5"></use>
                </mask>
                <g id="Clip-12"></g>
                <path d="M0.5538,43.7876 C-1.1572,70.1916 38.7198,101.2776 77.2468,84.8666 C107.4438,72.0036 118.3988,35.7046 103.0448,0.3856 C104.5218,18.7496 107.2318,24.6826 98.4258,41.6796 C73.5208,89.7486 5.3658,70.8696 0.5538,43.7876" id="Fill-11" fill="#E5712A" mask="url(#mask-6)"></path>
            </g>
        </g>
    </g>
</svg>