<svg width="36" height="36" viewBox="0 0 36 36" xmlns="http://www.w3.org/2000/svg" xmlns:xlink="http://www.w3.org/1999/xlink">
    <defs>
        <path id="a" d="M.02.169h13.614v21.115H.021z"/>
        <path id="c" d="M.11.15h20.026v19.353H.111z"/>
        <path id="e" d="M.097.074h21.135V17.27H.097z"/>

         <filter id="shadow" x="-50%" y="-50%" width="200%" height="200%">
            <feOffset result="offOut" in="SourceAlpha" dx="0" dy="2" />
            <feGaussianBlur result="blurOut" in="offOut" stdDeviation="1" />
            <feBlend in="SourceGraphic" in2="blurOut" mode="normal" />
            <feComponentTransfer>
                <feFuncA type="linear" slope="0.2"/>
            </feComponentTransfer>
        </filter>

    </defs>

    <g>
        <path  fill="#BC287E" d="M4.093 13.412c4.549-9.05 14.069-8.811 19.16-3.11 2.138 2.394 2.123 4.083 2.049 7.62.384-1.82 2.636-4.799.002-9.585-1.34-2.433-3.638-4.572-7.274-5.277C10.867 1.671 4.817 7.666 4.093 13.412"/>
        <g transform="translate(17.131 2.024)">
            <mask id="b" fill="#fff">
                <use xlink:href="#a"/>
            </mask>
            <path fill="#1B79B2" mask="url(#b)" d="M1.812 21.233c6.895.63 12.446-4.664 11.765-11.327C12.983 4.082 6.91-.294.021.208l.853.376c2.496.8 3.254.689 5.632 2.911 5.358 5.008 4.337 14.518-3.678 17.3l-1.016.438z"/>
        </g>

        <path fill="#E9B52A" d="M11.105 27.827c-4.162-3.73-5.521-8.743-2.69-13.672 1.165-2.027 2.587-3.417 5.02-4.485 3.381-1.484 4.904-.997 8.213-.143-2.414-3.204-12.016-5-16.37 2.585-3.717 6.474 1.429 13.967 5.827 15.715" />
       
        <g transform="translate(7.283 10.135)">
            <mask id="d" fill="#fff"><use xlink:href="#c"/></mask>
            <path fill="#02A86B" mask="url(#d)" d="M20.136 15.97c-2.861.952-4.192 2.148-8.213 1.33C1.345 15.149 1.627 2.586 6.08.15 3.655.997 1.312 3.674.485 6.583c-1.803 6.34 3.088 13.14 10.791 12.916 3.43-.1 7.335-1.704 8.86-3.528" />
        </g>

        <g transform="translate(10.952 9.942)">
            <mask id="f" fill="#fff"><use xlink:href="#e"/></mask>
            <path fill="#E5712A" mask="url(#f)" d="M.107 8.456c-.33 5.098 7.37 11.101 14.81 7.932 5.83-2.484 7.946-9.493 4.981-16.314.286 3.547.809 4.692-.892 7.974-4.809 9.283-17.97 5.637-18.9.408"/>
        </g>
    </g>


</svg>