<?xml version="1.0" encoding="UTF-8" standalone="no"?>
<!-- Created with Inkscape (http://www.inkscape.org/) -->

<svg
   xmlns:dc="http://purl.org/dc/elements/1.1/"
   xmlns:cc="http://creativecommons.org/ns#"
   xmlns:rdf="http://www.w3.org/1999/02/22-rdf-syntax-ns#"
   xmlns:svg="http://www.w3.org/2000/svg"
   xmlns="http://www.w3.org/2000/svg"
   xmlns:sodipodi="http://sodipodi.sourceforge.net/DTD/sodipodi-0.dtd"
   xmlns:inkscape="http://www.inkscape.org/namespaces/inkscape"
   version="1.1"
   id="svg2"
   xml:space="preserve"
   width="133.03999"
   height="133.13333"
   viewBox="0 0 133.03999 133.13333"
   sodipodi:docname="Logo_SEN_IntMig_hoch DE.svg"
   inkscape:version="0.92.3 (2405546, 2018-03-11)"><metadata
     id="metadata8"><rdf:RDF><cc:Work
         rdf:about=""><dc:format>image/svg+xml</dc:format><dc:type
           rdf:resource="http://purl.org/dc/dcmitype/StillImage" /><dc:title></dc:title></cc:Work></rdf:RDF></metadata><defs
     id="defs6" /><sodipodi:namedview
     pagecolor="#ffffff"
     bordercolor="#666666"
     borderopacity="1"
     objecttolerance="10"
     gridtolerance="10"
     guidetolerance="10"
     inkscape:pageopacity="0"
     inkscape:pageshadow="2"
     inkscape:window-width="764"
     inkscape:window-height="480"
     id="namedview4"
     showgrid="false"
     inkscape:zoom="1.772659"
     inkscape:cx="66.519997"
     inkscape:cy="66.566666"
     inkscape:window-x="0"
     inkscape:window-y="24"
     inkscape:window-maximized="0"
     inkscape:current-layer="g12" /><g
     id="g10"
     inkscape:groupmode="layer"
     inkscape:label="ink_ext_XXXXXX"
     transform="matrix(1.3333333,0,0,-1.3333333,0,133.13333)"><g
       id="g12"
       transform="scale(0.1)"><path
         d="m 197.02,854.789 c 36.109,0 54.984,16.445 54.984,42.852 0,23.722 -16.176,37.199 -41.512,37.199 -47.699,0 -72.23,-41.504 -72.23,-80.313 0,-32.082 19.941,-53.371 48.777,-53.371 10.52,0 31.539,3.77 43.399,7.813 v 25.871 c -16.708,-3.223 -23.989,-4.309 -33.418,-4.309 -15.637,0 -21.297,12.129 -21.297,24.258 z m -17.25,21.027 c 2.96,16.973 15.093,28.563 23.98,28.563 5.133,0 9.441,-2.43 9.441,-9.434 0,-9.16 -9.16,-19.129 -22.101,-19.129 z m -125.8677,9.969 c 6.4688,7.004 18.3282,13.203 25.0665,13.203 8.625,0 11.5937,-8.086 11.5937,-14.812 0,-16.711 -12.6719,-53.645 -35.0391,-53.645 -3.5,0 -12.9414,1.348 -12.9414,1.348 z m 14.8282,80.051 v 32.07 H 8.625 v -32.07 H 30.7305 L 0,803.852 h 19.3984 c 10.5235,0 22.1016,-2.696 35.3125,-2.696 46.3591,0 73.3121,49.59 73.3121,89.473 0,30.461 -12.671,44.211 -28.3003,44.211 -16.4414,0 -32.3399,-11.32 -40.9727,-19.141 l 9.9805,50.137"
         style="fill:#ed192e;fill-opacity:1;fill-rule:nonzero;stroke:none"
         id="path14"
         inkscape:connector-curvature="0" /><path
         d="m 467.59,998.453 v -92.98 h 70.586 V 881.949 H 419.387 V 756.91 h 22.808 V 859.742 H 467.59 V 756.91 h 22.758 v 102.832 h 25.043 V 756.91 h 22.785 v 46.473 h 459.617 v 195.07 H 467.59"
         style="fill:#ed192e;fill-opacity:1;fill-rule:nonzero;stroke:none"
         id="path16"
         inkscape:connector-curvature="0" /><path
         d="M 275.668,860.219 H 298.43 V 756.918 h -22.762 v 103.301"
         style="fill:#ed192e;fill-opacity:1;fill-rule:nonzero;stroke:none"
         id="path18"
         inkscape:connector-curvature="0" /><path
         d="m 323.66,860.219 h 22.762 V 756.918 H 323.66 v 103.301"
         style="fill:#ed192e;fill-opacity:1;fill-rule:nonzero;stroke:none"
         id="path20"
         inkscape:connector-curvature="0" /><path
         d="m 371.641,860.219 h 22.757 V 756.918 h -22.757 v 103.301"
         style="fill:#ed192e;fill-opacity:1;fill-rule:nonzero;stroke:none"
         id="path22"
         inkscape:connector-curvature="0" /><path
         d="m 275.668,905.473 h 143.77 v -23.524 h -143.77 v 23.524"
         style="fill:#ed192e;fill-opacity:1;fill-rule:nonzero;stroke:none"
         id="path24"
         inkscape:connector-curvature="0" /><path
         d="m 390.508,935.641 c 0,9.218 7.48,16.699 16.695,16.699 9.227,0 16.699,-7.481 16.699,-16.699 0,-9.219 -7.472,-16.7 -16.699,-16.7 -9.215,0 -16.695,7.481 -16.695,16.7"
         style="fill:#ed192e;fill-opacity:1;fill-rule:nonzero;stroke:none"
         id="path26"
         inkscape:connector-curvature="0" /><path
         d="m 879.863,848.453 h 13.836 v 33.496 c 0,0 -0.574,6.317 1.711,12.996 2.227,6.457 7.285,13.789 17.539,14.414 12.012,0.735 11.289,-12.519 11.289,-12.519 v -48.387 h 13.946 v 49.902 c 0,0 1.132,19.922 -17.454,20.684 -22.625,0.926 -27.031,-13.332 -27.031,-13.332 v 12.57 c 0,0 -4.851,0.184 -12.683,-0.254 -7.442,-0.429 -12.825,-0.929 -12.825,-0.929 v -7.403 l 11.672,-1.375 z m -46.179,59.774 -11.954,1.613 v 7.39 c 4.657,0.422 6.969,0.618 11.954,0.801 6.023,0.246 10.574,0.43 13.562,0.246 v -60.234 l 12.52,-1.906 v -7.684 H 821.73 v 7.684 l 11.954,1.906 z m -3.039,29.824 c 0,5.176 4.179,9.355 9.335,9.355 5.157,0 9.336,-4.179 9.336,-9.355 0,-5.156 -4.179,-9.336 -9.336,-9.336 -5.156,0 -9.335,4.18 -9.335,9.336 m -44.864,3.476 c 0,0 -3.347,0.528 -5.5,0.801 -2.398,0.305 -6.16,0.617 -6.16,0.617 v 7.207 c 0,0 8.516,0.567 13.945,0.672 4.59,0.078 11.758,0 11.758,0 v -92.781 l 11.758,-1.906 v -7.684 h -37.461 v 7.684 l 11.66,1.906 z M 672.363,883.559 h 45.047 c 0,0 4.465,36.984 -27.41,36.23 -28.262,-0.652 -31.199,-25.984 -31.387,-36.609 -0.156,-8.672 1.817,-23.594 13.106,-31.172 4.648,-3.125 14.051,-5.305 23.308,-4.883 8.34,0.379 19.348,4.461 19.348,4.461 v 10.723 c 0,0 -8.965,-4.071 -20.957,-4.266 -23.516,-0.391 -21.055,25.516 -21.055,25.516 m 17.364,26.894 c 15.507,-0.496 13.933,-16.512 13.933,-16.512 h -30.347 c 0,0 1.511,16.981 16.414,16.512 m 60.214,-5.828 v 13.652 c 0,0 -8.105,0 -13.281,-0.195 -4.551,-0.156 -11.672,-0.656 -11.672,-0.656 v -7.488 l 11.672,-1.524 v -59.961 h 13.66 v 31.688 c 0,0 -0.574,15.039 6.457,22.531 4.911,5.262 15.254,3.172 15.254,3.172 v 13.195 c 0,0 -8.301,1.082 -14.511,-2.707 -5.872,-3.582 -7.579,-11.707 -7.579,-11.707 m -171.179,32.773 c -3.324,0.469 -5.41,1.082 -5.41,1.082 v 7.922 c 0,0 6.355,-0.136 13.66,-0.226 7.304,-0.098 13.652,0.469 22.566,0.469 16.516,0 34.594,-2.274 35.473,-23.153 0.762,-18.019 -17.258,-23.234 -17.258,-23.234 0,0 20.105,-2.754 19.434,-24.004 -0.926,-29.813 -37.832,-27.801 -37.832,-27.801 h -36.043 v 7.684 l 11.863,2.277 v 78.184 c 0,0 -2.188,0.183 -6.453,0.8 m 20.855,-43.507 v -34.246 c 0,0 7.238,-0.235 11.867,-0.04 13.555,0.567 21.621,7.079 21.043,17.84 -0.562,10.52 -8.007,15.325 -19.336,16.309 -5.242,0.461 -13.574,0.137 -13.574,0.137 m 0,41.652 v -31.301 c 0,0 5.363,0 9.25,0.09 11.27,0.281 21.465,3.984 21.863,16.797 0.286,9.109 -6.785,13.652 -13.796,14.129 -6.739,0.461 -17.317,0.285 -17.317,0.285"
         style="fill:#ffffff;fill-opacity:1;fill-rule:nonzero;stroke:none"
         id="path28"
         inkscape:connector-curvature="0" /><path
         d="M 0,640.258 H 997.793"
         style="fill:none;stroke:#ed192e;stroke-width:6;stroke-linecap:butt;stroke-linejoin:miter;stroke-miterlimit:4;stroke-dasharray:none;stroke-opacity:1"
         id="path30"
         inkscape:connector-curvature="0" /><path
         d="M 0,245.684 H 997.793"
         style="fill:none;stroke:#ed192e;stroke-width:6;stroke-linecap:butt;stroke-linejoin:miter;stroke-miterlimit:4;stroke-dasharray:none;stroke-opacity:1"
         id="path32"
         inkscape:connector-curvature="0" /><path
         d="m 586.289,359.297 v -29.512 c 0,-1.289 0.117,-2.578 0.391,-3.887 0.273,-1.308 0.793,-2.519 1.562,-3.593 0.774,-1.094 1.875,-1.992 3.281,-2.696 1.407,-0.683 3.262,-1.035 5.555,-1.035 1.652,0 3.313,0.235 4.965,0.723 1.648,0.488 3.152,1.016 4.48,1.601 1.543,0.684 3.04,1.485 4.473,2.403 l 0.801,-4.004 h 4.402 v 40 h -5.75 v -31.836 c -1.289,-0.801 -2.617,-1.484 -4.004,-2.09 -1.172,-0.527 -2.48,-0.996 -3.925,-1.387 -1.434,-0.41 -2.852,-0.605 -4.239,-0.605 -1.328,0 -2.402,0.195 -3.203,0.566 -0.801,0.371 -1.426,0.899 -1.875,1.602 -0.449,0.683 -0.762,1.543 -0.918,2.558 -0.156,1.016 -0.242,2.168 -0.242,3.458 v 27.734 z m 73.594,-40 v 29.512 c 0,1.289 -0.137,2.578 -0.403,3.886 -0.261,1.309 -0.789,2.52 -1.558,3.594 -0.774,1.094 -1.867,1.992 -3.274,2.695 -1.418,0.684 -3.281,1.036 -5.566,1.036 -1.648,0 -3.312,-0.254 -4.961,-0.762 -1.648,-0.508 -3.144,-1.055 -4.473,-1.641 -1.562,-0.683 -3.046,-1.465 -4.492,-2.324 l -0.801,4.004 h -4.394 v -40 h 5.762 v 31.836 c 1.281,0.742 2.605,1.406 4.004,1.992 1.171,0.547 2.48,1.016 3.918,1.445 1.433,0.43 2.847,0.645 4.238,0.645 1.336,0 2.398,-0.195 3.203,-0.567 0.801,-0.371 1.434,-0.898 1.883,-1.582 0.449,-0.703 0.754,-1.562 0.918,-2.578 0.156,-1.015 0.234,-2.168 0.234,-3.457 v -27.734 z m 41.355,0 v 60.801 h -5.75 v -20 l 0.391,-4.727 c -0.906,0.859 -1.953,1.641 -3.113,2.324 -1.008,0.586 -2.239,1.114 -3.645,1.602 -1.406,0.488 -3.027,0.723 -4.844,0.723 -1.543,0 -3.117,-0.391 -4.714,-1.153 -1.594,-0.781 -3.047,-2.012 -4.368,-3.73 -1.308,-1.699 -2.382,-3.926 -3.23,-6.641 -0.852,-2.715 -1.281,-6.055 -1.281,-10 0,-6.933 1.152,-11.992 3.437,-15.156 2.285,-3.164 5.527,-4.766 9.688,-4.766 1.328,0 2.707,0.235 4.113,0.723 1.414,0.488 2.73,1.016 3.965,1.601 1.383,0.684 2.761,1.485 4.148,2.403 l 0.801,-4.004 z m -5.75,8.242 c -1.289,-0.742 -2.566,-1.406 -3.847,-1.992 -1.075,-0.547 -2.207,-1.016 -3.438,-1.406 -1.23,-0.411 -2.324,-0.606 -3.281,-0.606 -1.543,0 -2.852,0.371 -3.926,1.113 -1.062,0.762 -1.914,1.817 -2.558,3.204 -0.633,1.386 -1.102,3.046 -1.395,4.961 -0.285,1.933 -0.441,4.082 -0.441,6.484 0,4.844 0.808,8.691 2.441,11.523 1.633,2.832 3.723,4.239 6.277,4.239 1.711,0 3.196,-0.235 4.485,-0.684 1.281,-0.449 2.343,-0.977 3.203,-1.562 0.957,-0.625 1.777,-1.387 2.48,-2.227 z m 64.871,47.363 c -1.336,0.157 -2.664,0.352 -3.992,0.547 -1.125,0.176 -2.351,0.313 -3.691,0.449 -1.328,0.137 -2.559,0.196 -3.672,0.196 -2.676,0 -5.02,-0.371 -7.039,-1.114 -2.031,-0.761 -3.742,-1.777 -5.129,-3.085 -1.387,-1.309 -2.434,-2.832 -3.152,-4.551 -0.715,-1.739 -1.086,-3.594 -1.086,-5.567 0,-3.086 0.586,-5.605 1.757,-7.558 1.172,-1.953 2.625,-3.594 4.368,-4.922 1.726,-1.328 3.613,-2.461 5.632,-3.399 2.032,-0.937 3.907,-1.914 5.645,-2.968 1.738,-1.035 3.184,-2.246 4.355,-3.633 1.172,-1.387 1.766,-3.203 1.766,-5.43 0,-3.047 -0.945,-5.469 -2.84,-7.246 -1.894,-1.797 -4.676,-2.676 -8.359,-2.676 -1.504,0 -2.988,0.098 -4.473,0.313 -1.504,0.215 -2.871,0.449 -4.082,0.722 -1.394,0.313 -2.754,0.684 -4.082,1.114 v -5.606 c 1.278,-0.429 2.61,-0.761 4.004,-1.035 1.211,-0.273 2.559,-0.488 3.992,-0.683 1.438,-0.176 2.934,-0.274 4.485,-0.274 3.039,0 5.656,0.391 7.871,1.152 2.218,0.782 4.043,1.856 5.488,3.243 1.438,1.406 2.48,3.047 3.164,4.961 0.652,1.933 0.996,4.043 0.996,6.328 0,3.047 -0.586,5.508 -1.758,7.402 -1.191,1.895 -2.644,3.457 -4.406,4.707 -1.766,1.25 -3.672,2.344 -5.723,3.242 -2.058,0.918 -3.953,1.895 -5.71,2.969 -1.766,1.074 -3.243,2.324 -4.407,3.789 -1.179,1.484 -1.765,3.379 -1.765,5.723 0,2.558 0.937,4.668 2.812,6.328 1.856,1.64 4.363,2.48 7.52,2.48 1.113,0 2.336,-0.078 3.672,-0.234 1.328,-0.176 2.578,-0.332 3.769,-0.488 1.367,-0.215 2.734,-0.43 4.07,-0.645 z m 19.961,-23.847 c 2.051,2.773 4.68,4.16 7.883,4.16 1.375,0 2.735,-0.254 4.082,-0.762 1.328,-0.508 2.5,-1.387 3.516,-2.637 1.015,-1.25 1.816,-2.89 2.441,-4.921 0.606,-2.032 0.918,-4.551 0.918,-7.598 0,-2.5 -0.273,-4.746 -0.84,-6.719 -0.554,-1.973 -1.34,-3.633 -2.324,-5 -0.976,-1.367 -2.148,-2.402 -3.476,-3.125 -1.336,-0.723 -2.774,-1.074 -4.317,-1.074 -1.504,0 -2.91,0.254 -4.238,0.762 -1.348,0.507 -2.5,1.386 -3.477,2.636 -0.996,1.25 -1.789,2.891 -2.363,4.922 -0.586,2.031 -0.879,4.551 -0.879,7.598 0,5.078 1.016,8.984 3.074,11.758 m -4.48,-27.598 c 3.008,-3.242 7.129,-4.883 12.363,-4.883 2.449,0 4.719,0.469 6.797,1.406 2.078,0.918 3.867,2.325 5.359,4.161 1.496,1.836 2.649,4.082 3.489,6.757 0.82,2.676 1.23,5.723 1.23,9.2 0,6.777 -1.492,11.797 -4.473,15.039 -2.988,3.242 -7.128,4.883 -12.402,4.883 -2.558,0 -4.875,-0.489 -6.914,-1.446 -2.07,-0.957 -3.84,-2.363 -5.332,-4.199 -1.492,-1.836 -2.637,-4.082 -3.437,-6.758 -0.801,-2.676 -1.192,-5.703 -1.192,-9.121 0,-6.777 1.492,-11.797 4.512,-15.039 m 65.398,-4.16 v 5.117 h -21.355 l 20.644,30.156 v 4.727 h -26.172 v -5.039 h 19.688 l -20.645,-30.235 v -4.726 z m 16.887,40 h -5.762 v -40 h 5.762 z m -6.082,9.355 c 0.906,-0.898 2.02,-1.347 3.355,-1.347 1.34,0 2.454,0.449 3.372,1.347 0.898,0.918 1.347,2.032 1.347,3.36 0,1.328 -0.449,2.461 -1.347,3.359 -0.918,0.918 -2.032,1.367 -3.372,1.367 -1.335,0 -2.449,-0.449 -3.355,-1.367 -0.91,-0.898 -1.359,-2.031 -1.359,-3.359 0,-1.328 0.449,-2.442 1.359,-3.36 m 20.477,-16.074 c 1.601,0.488 3.203,0.918 4.804,1.289 1.375,0.313 2.871,0.625 4.473,0.918 1.601,0.274 3.098,0.43 4.492,0.43 2.93,0 4.91,-0.508 5.957,-1.563 1.035,-1.054 1.563,-2.949 1.563,-5.683 v -4.668 h -9.454 c -2.019,0 -3.906,-0.293 -5.632,-0.879 -1.743,-0.586 -3.215,-1.426 -4.446,-2.52 -1.23,-1.093 -2.187,-2.441 -2.871,-4.043 -0.703,-1.601 -1.047,-3.418 -1.047,-5.449 0,-1.601 0.227,-3.105 0.676,-4.551 0.457,-1.445 1.153,-2.695 2.09,-3.769 0.93,-1.055 2.117,-1.914 3.555,-2.559 1.445,-0.625 3.175,-0.957 5.207,-0.957 1.375,0 2.801,0.235 4.234,0.723 1.438,0.488 2.766,1.016 3.996,1.601 1.387,0.684 2.805,1.485 4.238,2.403 l 0.801,-4.004 h 4.407 v 30.078 c 0,2.09 -0.247,3.809 -0.715,5.156 -0.489,1.367 -1.231,2.442 -2.207,3.242 -0.989,0.801 -2.239,1.368 -3.758,1.719 -1.516,0.352 -3.32,0.528 -5.403,0.528 -1.972,0 -3.859,-0.137 -5.644,-0.411 -1.777,-0.254 -3.379,-0.507 -4.758,-0.781 -1.656,-0.371 -3.172,-0.762 -4.558,-1.172 z m 6.125,-15.801 c 1.675,1.309 3.796,1.953 6.355,1.953 h 8.809 v -11.113 c -1.289,-0.801 -2.571,-1.484 -3.848,-2.07 -1.074,-0.547 -2.234,-1.016 -3.516,-1.406 -1.289,-0.411 -2.461,-0.606 -3.523,-0.606 -2.192,0 -3.867,0.664 -5.039,2.012 -1.184,1.328 -1.762,3.105 -1.762,5.351 0,2.618 0.844,4.571 2.524,5.879 m 40.261,43.321 h -5.754 v -60.801 h 5.754 z m 39.532,-53.848 c -1.329,-0.527 -2.696,-0.977 -4.083,-1.348 -1.218,-0.332 -2.539,-0.605 -3.964,-0.879 -1.407,-0.273 -2.813,-0.41 -4.2,-0.41 -1.914,0 -3.515,0.332 -4.804,0.957 -1.27,0.645 -2.317,1.504 -3.117,2.637 -0.797,1.094 -1.375,2.441 -1.754,4.004 -0.371,1.562 -0.637,3.281 -0.801,5.137 h 7.84 c 1.867,0 3.73,0.156 5.593,0.468 1.868,0.313 3.547,0.957 5,1.895 1.477,0.918 2.668,2.227 3.606,3.848 0.937,1.621 1.394,3.75 1.394,6.386 0,3.692 -1.121,6.465 -3.355,8.34 -2.238,1.875 -5.285,2.813 -9.121,2.813 -2.453,0 -4.699,-0.45 -6.762,-1.328 -2.051,-0.879 -3.816,-2.227 -5.32,-4.024 -1.485,-1.816 -2.649,-4.082 -3.477,-6.777 -0.82,-2.676 -1.242,-5.821 -1.242,-9.395 0,-6.23 1.242,-11.113 3.723,-14.629 2.48,-3.535 6.34,-5.293 11.562,-5.293 1.817,0 3.516,0.118 5.117,0.371 1.602,0.235 3.02,0.508 4.239,0.84 1.386,0.371 2.695,0.801 3.926,1.27 z m -22.801,14.883 c 0.054,1.933 0.34,3.75 0.84,5.469 0.503,1.718 1.218,3.222 2.117,4.511 0.91,1.289 2.043,2.305 3.398,3.047 1.367,0.762 2.918,1.133 4.68,1.133 2.195,0 3.855,-0.586 5,-1.758 1.148,-1.191 1.726,-2.851 1.726,-5 0,-2.246 -0.8,-4.043 -2.402,-5.39 -1.601,-1.329 -4.082,-2.012 -7.441,-2.012 z m 55.996,17.832 c -1.008,0.156 -2.055,0.332 -3.117,0.488 -0.899,0.117 -1.973,0.235 -3.203,0.371 -1.219,0.117 -2.481,0.196 -3.758,0.196 -2.336,0 -4.367,-0.274 -6.047,-0.84 -1.68,-0.567 -3.047,-1.348 -4.121,-2.325 -1.055,-0.996 -1.844,-2.128 -2.356,-3.457 -0.496,-1.308 -0.761,-2.714 -0.761,-4.199 0,-2.402 0.48,-4.316 1.437,-5.742 0.969,-1.406 2.168,-2.559 3.606,-3.398 1.433,-0.86 3.015,-1.543 4.714,-2.051 1.719,-0.508 3.282,-1.074 4.727,-1.719 1.445,-0.644 2.637,-1.445 3.594,-2.402 0.965,-0.977 1.445,-2.324 1.445,-4.102 0,-0.644 -0.098,-1.308 -0.273,-2.031 -0.184,-0.723 -0.567,-1.387 -1.133,-2.012 -0.559,-0.605 -1.309,-1.133 -2.278,-1.562 -0.957,-0.43 -2.234,-0.645 -3.836,-0.645 -1.328,0 -2.675,0.098 -4.043,0.274 -1.359,0.195 -2.597,0.41 -3.71,0.683 -1.336,0.274 -2.618,0.606 -3.848,0.957 v -5.371 c 1.113,-0.312 2.324,-0.586 3.594,-0.781 1.074,-0.215 2.304,-0.391 3.691,-0.527 1.387,-0.118 2.832,-0.196 4.316,-0.196 2.559,0 4.7,0.332 6.399,0.996 1.707,0.664 3.074,1.543 4.082,2.637 1.023,1.094 1.734,2.324 2.156,3.711 0.43,1.387 0.645,2.773 0.645,4.141 0,2.617 -0.489,4.707 -1.446,6.23 -0.957,1.543 -2.168,2.774 -3.632,3.633 -1.465,0.879 -3.055,1.601 -4.766,2.129 -1.699,0.527 -3.289,1.094 -4.766,1.679 -1.457,0.586 -2.675,1.329 -3.632,2.266 -0.958,0.938 -1.446,2.246 -1.446,3.945 0,1.329 0.547,2.539 1.602,3.633 1.074,1.094 3.105,1.641 6.086,1.641 1.179,0 2.351,-0.078 3.523,-0.235 l 3.281,-0.332 c 1.114,-0.195 2.207,-0.39 3.274,-0.546 v 4.863"
         style="fill:#ed192e;fill-opacity:1;fill-rule:nonzero;stroke:none"
         id="path34"
         inkscape:connector-curvature="0" /><path
         d="m 292.77,472.344 c -0.528,0.039 -1.09,0.117 -1.68,0.234 -0.481,0.059 -1.012,0.117 -1.598,0.156 -0.59,0.059 -1.172,0.079 -1.762,0.079 -4.371,0 -7.441,-1.094 -9.199,-3.282 -1.758,-2.187 -2.64,-5.547 -2.64,-10.078 v -8.164 h -6.645 v -4.785 h 6.645 v -35.215 h 5.757 v 35.215 h 9.922 v 4.785 h -9.922 v 7.285 c 0,1.602 0.082,2.989 0.243,4.16 0.16,1.172 0.476,2.129 0.961,2.891 0.476,0.742 1.187,1.309 2.121,1.68 0.925,0.371 2.168,0.547 3.718,0.547 0.43,0 0.879,-0.02 1.36,-0.079 0.48,-0.039 0.929,-0.097 1.359,-0.156 0.481,-0.117 0.93,-0.195 1.36,-0.234 z m 9.921,-10.449 c -0.8,-0.762 -1.203,-1.758 -1.203,-2.989 0,-1.23 0.403,-2.226 1.203,-2.968 0.801,-0.743 1.758,-1.114 2.879,-1.114 1.231,0 2.243,0.371 3.039,1.114 0.801,0.742 1.2,1.738 1.2,2.968 0,1.231 -0.411,2.227 -1.239,2.989 -0.832,0.781 -1.832,1.171 -3,1.171 -1.121,0 -2.078,-0.39 -2.879,-1.171 m 17.758,0 c -0.801,-0.762 -1.203,-1.758 -1.203,-2.989 0,-1.23 0.402,-2.226 1.203,-2.968 0.801,-0.743 1.762,-1.114 2.879,-1.114 1.235,0 2.242,0.371 3.043,1.114 0.797,0.742 1.195,1.738 1.195,2.968 0,1.231 -0.41,2.227 -1.238,2.989 -0.832,0.781 -1.824,1.171 -3,1.171 -1.117,0 -2.078,-0.39 -2.879,-1.171 M 299.41,451.289 v -29.512 c 0,-1.289 0.129,-2.578 0.399,-3.886 0.269,-1.309 0.793,-2.5 1.562,-3.594 0.77,-1.094 1.871,-1.992 3.277,-2.676 1.411,-0.683 3.274,-1.035 5.563,-1.035 1.648,0 3.309,0.234 4.961,0.703 1.648,0.488 3.148,1.016 4.476,1.602 1.551,0.703 3.043,1.504 4.485,2.402 l 0.801,-4.004 h 4.398 v 40 h -5.762 v -31.816 c -1.281,-0.801 -2.609,-1.504 -4,-2.09 -1.172,-0.528 -2.48,-0.996 -3.922,-1.406 -1.437,-0.391 -2.843,-0.606 -4.238,-0.606 -1.332,0 -2.402,0.195 -3.203,0.567 -0.797,0.371 -1.426,0.917 -1.879,1.601 -0.449,0.703 -0.758,1.563 -0.918,2.578 -0.16,1.016 -0.238,2.149 -0.238,3.438 v 27.734 z m 63.442,0.723 c -1.872,0.117 -3.653,-0.078 -5.364,-0.586 -1.707,-0.528 -3.25,-1.055 -4.636,-1.641 -1.602,-0.703 -3.122,-1.523 -4.559,-2.48 l -0.805,3.984 h -4.398 v -40 h 5.762 v 31.777 c 1.437,0.801 2.929,1.485 4.476,2.071 1.328,0.527 2.832,0.976 4.485,1.328 1.644,0.351 3.332,0.43 5.039,0.273 z m 34.961,15.293 h -6.083 v -56.016 h 6.083 z m 44.078,-56.016 v 29.531 c 0,1.27 -0.145,2.559 -0.403,3.887 -0.265,1.309 -0.789,2.5 -1.554,3.594 -0.786,1.094 -1.871,1.992 -3.286,2.676 -1.418,0.683 -3.269,1.035 -5.558,1.035 -1.66,0 -3.313,-0.235 -4.957,-0.762 -1.66,-0.508 -3.153,-1.035 -4.485,-1.641 -1.546,-0.683 -3.039,-1.464 -4.48,-2.304 l -0.797,3.984 h -4.398 v -40 h 5.757 v 31.836 c 1.278,0.762 2.614,1.426 4,2.012 1.168,0.527 2.481,1.015 3.918,1.445 1.442,0.43 2.852,0.645 4.247,0.645 1.328,0 2.394,-0.196 3.195,-0.567 0.801,-0.39 1.422,-0.918 1.883,-1.621 0.449,-0.684 0.757,-1.543 0.918,-2.559 0.16,-1.015 0.242,-2.167 0.242,-3.437 v -27.754 z m 32.879,4.727 c -0.43,-0.118 -0.879,-0.196 -1.364,-0.235 -0.793,-0.156 -1.707,-0.234 -2.718,-0.234 -1.547,0 -2.79,0.176 -3.715,0.547 -0.942,0.371 -1.641,0.937 -2.125,1.699 -0.477,0.742 -0.793,1.699 -0.957,2.871 -0.161,1.191 -0.239,2.578 -0.239,4.18 v 21.66 h 9.918 v 4.785 h -9.918 v 16.016 h -5.761 v -16.016 h -6.641 v -4.785 h 6.641 v -22.539 c 0,-4.531 0.879,-7.91 2.64,-10.098 1.758,-2.187 4.821,-3.281 9.199,-3.281 0.583,0 1.168,0 1.758,0.039 0.582,0.02 1.125,0.078 1.602,0.195 0.582,0.039 1.14,0.137 1.68,0.235 z m 34.238,2.246 c -1.336,-0.528 -2.699,-0.996 -4.074,-1.367 -1.235,-0.313 -2.551,-0.606 -3.961,-0.879 -1.422,-0.274 -2.825,-0.391 -4.2,-0.391 -1.925,0 -3.519,0.313 -4.8,0.938 -1.285,0.644 -2.325,1.523 -3.121,2.636 -0.801,1.114 -1.391,2.442 -1.762,4.004 -0.379,1.563 -0.641,3.281 -0.801,5.137 h 7.844 c 1.859,0 3.726,0.156 5.597,0.469 1.864,0.332 3.532,0.957 5,1.894 1.461,0.938 2.665,2.227 3.598,3.848 0.934,1.64 1.402,3.769 1.402,6.387 0,3.691 -1.121,6.484 -3.359,8.359 -2.238,1.855 -5.281,2.793 -9.121,2.793 -2.461,0 -4.711,-0.43 -6.762,-1.309 -2.054,-0.879 -3.828,-2.226 -5.316,-4.043 -1.5,-1.816 -2.66,-4.062 -3.484,-6.758 -0.829,-2.695 -1.239,-5.839 -1.239,-9.394 0,-6.25 1.239,-11.133 3.723,-14.648 2.476,-3.516 6.324,-5.274 11.558,-5.274 1.809,0 3.516,0.117 5.122,0.352 1.597,0.234 3.011,0.527 4.242,0.839 1.375,0.372 2.683,0.801 3.914,1.29 z m -22.797,14.883 c 0.051,1.914 0.328,3.75 0.84,5.468 0.5,1.719 1.211,3.223 2.121,4.512 0.894,1.27 2.039,2.285 3.394,3.047 1.364,0.742 2.922,1.133 4.684,1.133 2.18,0 3.848,-0.606 5,-1.778 1.141,-1.172 1.719,-2.832 1.719,-4.98 0,-2.266 -0.801,-4.063 -2.399,-5.391 -1.597,-1.347 -4.082,-2.011 -7.437,-2.011 z m 39.68,8.515 c 0.535,1.309 1.218,2.383 2.078,3.242 0.847,0.84 1.816,1.485 2.922,1.875 1.089,0.411 2.175,0.606 3.242,0.606 1.805,0 3.379,-0.254 4.715,-0.762 1.328,-0.508 2.453,-1.055 3.359,-1.641 1.016,-0.683 1.895,-1.484 2.637,-2.402 v -5.605 c 0,-3.575 -0.957,-6.231 -2.871,-7.95 -1.922,-1.738 -4.278,-2.597 -7.039,-2.597 -2.786,0 -5.11,0.859 -7.004,2.597 -1.895,1.719 -2.832,4.375 -2.832,7.95 0,1.816 0.254,3.379 0.793,4.687 m 1.433,-31.074 c 0.332,-0.059 0.684,-0.098 1.082,-0.137 0.403,-0.019 0.84,-0.039 1.321,-0.039 h 10.078 c 1.133,0 2.187,-0.058 3.203,-0.195 1.015,-0.117 1.894,-0.371 2.637,-0.742 0.742,-0.371 1.347,-0.899 1.804,-1.602 0.449,-0.683 0.676,-1.582 0.676,-2.695 0,-1.113 -0.332,-2.071 -0.996,-2.91 -0.664,-0.821 -1.582,-1.485 -2.754,-2.012 -1.191,-0.527 -2.559,-0.938 -4.121,-1.191 -1.582,-0.274 -3.274,-0.411 -5.078,-0.411 -1.824,0 -3.488,0.118 -5,0.332 -1.524,0.196 -2.832,0.547 -3.926,1.016 -1.094,0.488 -1.953,1.113 -2.559,1.875 -0.625,0.781 -0.918,1.738 -0.918,2.91 0,0.899 0.176,1.719 0.555,2.5 0.371,0.762 0.774,1.406 1.203,1.934 0.528,0.586 1.114,1.113 1.758,1.601 0.32,-0.117 0.664,-0.195 1.035,-0.234 m -5.957,-13.613 c 2.696,-1.602 7.11,-2.403 13.242,-2.403 6.184,0 10.887,1.035 14.121,3.086 3.223,2.051 4.844,4.766 4.844,8.125 0,3.301 -1.047,5.703 -3.125,7.188 -2.082,1.504 -5.144,2.246 -9.199,2.246 h -10 c -2.078,0 -3.555,0.332 -4.395,0.957 -0.859,0.644 -1.289,1.504 -1.289,2.558 0,2.208 1.946,3.282 5.84,3.282 h 3.528 c 2.078,0 4.05,0.312 5.918,0.918 1.863,0.625 3.503,1.562 4.918,2.812 1.418,1.25 2.543,2.852 3.402,4.805 0.848,1.933 1.277,4.238 1.277,6.914 v 13.828 h -4.316 l -0.801,-3.984 c -0.918,0.84 -1.98,1.621 -3.203,2.304 -1.074,0.606 -2.344,1.133 -3.836,1.641 -1.496,0.527 -3.195,0.762 -5.129,0.762 -1.594,0 -3.215,-0.313 -4.836,-0.918 -1.629,-0.606 -3.094,-1.563 -4.402,-2.832 -1.309,-1.289 -2.383,-2.891 -3.242,-4.844 -0.86,-1.953 -1.27,-4.238 -1.27,-6.836 0,-2.363 0.332,-4.277 0.996,-5.801 0.664,-1.523 1.426,-2.734 2.285,-3.652 0.957,-1.055 2.071,-1.875 3.36,-2.481 -1.121,-0.195 -2.11,-0.605 -2.969,-1.191 -0.742,-0.488 -1.426,-1.172 -2.031,-2.09 -0.625,-0.918 -0.918,-2.09 -0.918,-3.535 0,-0.898 0.117,-1.699 0.39,-2.363 0.266,-0.664 0.567,-1.231 0.879,-1.66 0.371,-0.528 0.821,-0.938 1.367,-1.192 -1.027,-0.547 -1.921,-1.23 -2.722,-2.07 -0.696,-0.742 -1.321,-1.66 -1.887,-2.715 -0.547,-1.074 -0.84,-2.285 -0.84,-3.672 0,-3.183 1.348,-5.586 4.043,-7.187 m 61.082,55.039 c -1.863,0.117 -3.66,-0.078 -5.359,-0.586 -1.707,-0.528 -3.262,-1.055 -4.641,-1.641 -1.597,-0.703 -3.113,-1.523 -4.558,-2.48 l -0.801,3.984 h -4.395 v -40 h 5.762 v 31.777 c 1.438,0.801 2.93,1.485 4.473,2.071 1.328,0.527 2.824,0.976 4.48,1.328 1.653,0.351 3.332,0.43 5.039,0.273 z m 9.914,-7.442 c 1.602,0.489 3.203,0.918 4.793,1.289 1.399,0.313 2.895,0.625 4.485,0.918 1.601,0.293 3.105,0.45 4.472,0.45 2.95,0 4.922,-0.528 5.965,-1.582 1.047,-1.055 1.567,-2.93 1.567,-5.684 v -4.668 h -9.446 c -2.011,0 -3.894,-0.293 -5.644,-0.879 -1.719,-0.586 -3.203,-1.426 -4.434,-2.519 -1.223,-1.094 -2.187,-2.442 -2.871,-4.043 -0.703,-1.602 -1.055,-3.399 -1.055,-5.43 0,-1.602 0.235,-3.125 0.684,-4.57 0.469,-1.426 1.152,-2.676 2.09,-3.75 0.937,-1.075 2.109,-1.914 3.554,-2.559 1.446,-0.645 3.184,-0.957 5.196,-0.957 1.386,0 2.812,0.234 4.238,0.703 1.453,0.488 2.781,1.016 4.004,1.602 1.387,0.703 2.793,1.504 4.238,2.402 L 615,411.289 h 4.395 v 30.098 c 0,2.07 -0.235,3.789 -0.711,5.156 -0.481,1.348 -1.211,2.441 -2.2,3.242 -0.988,0.801 -2.246,1.367 -3.769,1.719 -1.516,0.351 -3.32,0.508 -5.391,0.508 -1.972,0 -3.847,-0.117 -5.636,-0.391 -1.786,-0.254 -3.375,-0.527 -4.774,-0.801 -1.641,-0.371 -3.164,-0.761 -4.551,-1.191 z m 6.133,-15.8 c 1.68,1.328 3.789,1.972 6.348,1.972 h 8.801 v -11.133 c -1.282,-0.8 -2.571,-1.484 -3.84,-2.07 -1.067,-0.527 -2.246,-0.996 -3.516,-1.406 -1.289,-0.391 -2.461,-0.586 -3.535,-0.586 -2.168,0 -3.848,0.664 -5.039,1.992 -1.16,1.328 -1.758,3.125 -1.758,5.352 0,2.617 0.84,4.57 2.539,5.879 m 53.789,-12.754 c -0.43,-0.118 -0.879,-0.196 -1.367,-0.235 -0.801,-0.156 -1.699,-0.234 -2.715,-0.234 -1.543,0 -2.781,0.176 -3.723,0.547 -0.925,0.371 -1.636,0.937 -2.117,1.699 -0.488,0.742 -0.8,1.699 -0.957,2.871 -0.168,1.191 -0.246,2.578 -0.246,4.18 v 21.66 h 9.914 v 4.785 h -9.914 v 16.016 h -5.762 v -16.016 h -6.636 v -4.785 h 6.636 v -22.539 c 0,-4.531 0.879,-7.91 2.649,-10.098 1.758,-2.187 4.824,-3.281 9.199,-3.281 0.586,0 1.172,0 1.758,0.039 0.586,0.02 1.113,0.078 1.601,0.195 0.586,0.039 1.141,0.137 1.68,0.235 z m 14.238,35.273 h -5.761 v -40 h 5.761 z m -6.085,9.375 c 0.91,-0.918 2.035,-1.367 3.363,-1.367 1.336,0 2.461,0.449 3.355,1.367 0.91,0.899 1.36,2.031 1.36,3.359 0,1.329 -0.45,2.442 -1.36,3.36 -0.894,0.898 -2.019,1.347 -3.355,1.347 -1.328,0 -2.453,-0.449 -3.363,-1.347 -0.895,-0.918 -1.356,-2.031 -1.356,-3.36 0,-1.328 0.461,-2.46 1.356,-3.359 m 26.046,-17.598 c 2.051,2.754 4.676,4.161 7.871,4.161 1.399,0 2.754,-0.254 4.083,-0.762 1.328,-0.508 2.519,-1.406 3.515,-2.656 1.016,-1.25 1.836,-2.871 2.442,-4.903 0.617,-2.031 0.925,-4.57 0.925,-7.617 0,-2.5 -0.281,-4.746 -0.84,-6.719 -0.554,-1.953 -1.335,-3.632 -2.324,-5 -0.984,-1.347 -2.144,-2.382 -3.472,-3.105 -1.34,-0.723 -2.778,-1.094 -4.329,-1.094 -1.484,0 -2.91,0.254 -4.238,0.762 -1.328,0.508 -2.48,1.387 -3.476,2.637 -0.996,1.25 -1.778,2.89 -2.364,4.921 -0.586,2.032 -0.879,4.571 -0.879,7.598 0,5.078 1.036,9.004 3.086,11.777 m -4.48,-27.617 c 3.008,-3.242 7.129,-4.863 12.351,-4.863 2.461,0 4.727,0.469 6.805,1.387 2.082,0.937 3.867,2.324 5.363,4.16 1.485,1.836 2.649,4.101 3.477,6.758 0.828,2.675 1.238,5.742 1.238,9.199 0,6.777 -1.492,11.797 -4.48,15.039 -2.988,3.262 -7.117,4.883 -12.403,4.883 -2.558,0 -4.863,-0.469 -6.914,-1.426 -2.05,-0.977 -3.828,-2.363 -5.324,-4.199 -1.492,-1.856 -2.637,-4.102 -3.433,-6.778 -0.801,-2.656 -1.204,-5.703 -1.204,-9.121 0,-6.758 1.504,-11.777 4.524,-15.039 m 70.113,-4.16 v 29.531 c 0,1.27 -0.125,2.559 -0.398,3.887 -0.274,1.309 -0.781,2.5 -1.563,3.594 -0.761,1.094 -1.863,1.992 -3.281,2.676 -1.406,0.683 -3.262,1.035 -5.559,1.035 -1.648,0 -3.308,-0.235 -4.949,-0.762 -1.66,-0.508 -3.164,-1.035 -4.492,-1.641 -1.543,-0.683 -3.035,-1.464 -4.473,-2.304 l -0.8,3.984 h -4.395 v -40 h 5.754 v 31.836 c 1.277,0.762 2.605,1.426 3.992,2.012 1.172,0.527 2.481,1.015 3.926,1.445 1.445,0.43 2.851,0.645 4.238,0.645 1.328,0 2.403,-0.196 3.203,-0.567 0.801,-0.39 1.426,-0.918 1.875,-1.621 0.45,-0.684 0.762,-1.543 0.918,-2.559 0.164,-1.015 0.254,-2.167 0.254,-3.437 v -27.754 z m 12.922,7.246 c -0.93,-0.918 -1.394,-2.09 -1.394,-3.476 0,-1.016 0.242,-1.895 0.75,-2.637 0.515,-0.762 1.191,-1.309 2.05,-1.68 l -5.039,-11.035 h 4.16 l 7.754,11.27 v 4.16 c 0,1.386 -0.468,2.539 -1.406,3.437 -0.918,0.918 -2.09,1.367 -3.476,1.367 -1.329,0 -2.461,-0.468 -3.399,-1.406 m 67.004,-7.246 h 6.551 l -7.278,33.613 c -0.32,1.485 -0.925,3.477 -1.836,5.996 -0.906,2.5 -1.843,4.981 -2.8,7.442 -1.114,2.871 -2.344,5.859 -3.684,8.965 h -6.961 c -1.328,-3.164 -2.558,-6.133 -3.672,-8.965 -0.957,-2.461 -1.894,-4.922 -2.8,-7.402 -0.911,-2.481 -1.516,-4.493 -1.848,-6.036 l -7.277,-33.613 h 6.32 l 2.637,13.613 h 20 z m -9.926,43.926 c 0.754,-1.914 1.438,-3.848 2.082,-5.801 0.645,-1.953 1.074,-3.437 1.281,-4.512 l 2.879,-14.726 h -17.921 l 2.882,14.726 c 0.215,1.114 0.645,2.657 1.282,4.629 0.632,1.973 1.336,3.907 2.078,5.762 0.847,2.187 1.758,4.531 2.715,7.051 0.964,-2.52 1.875,-4.883 2.722,-7.129 m 46.242,-3.203 c -1.875,0.117 -3.652,-0.078 -5.363,-0.586 -1.707,-0.528 -3.25,-1.055 -4.637,-1.641 -1.601,-0.703 -3.125,-1.523 -4.558,-2.48 l -0.805,3.984 h -4.402 v -40 h 5.761 v 31.777 c 1.446,0.801 2.93,1.485 4.485,2.071 1.336,0.527 2.82,0.976 4.48,1.328 1.653,0.351 3.328,0.43 5.039,0.273 z m 9.278,20.078 v -60.801 h 4.406 l 0.801,4.004 c 0.894,-0.898 1.941,-1.699 3.113,-2.402 1.016,-0.586 2.246,-1.114 3.684,-1.602 1.433,-0.469 3.093,-0.703 4.961,-0.703 1.492,0 3.054,0.391 4.675,1.152 1.621,0.762 3.086,2.012 4.407,3.711 1.296,1.719 2.371,3.926 3.23,6.641 0.859,2.734 1.289,6.055 1.289,10 0,6.933 -1.152,11.992 -3.437,15.176 -2.305,3.164 -5.528,4.746 -9.688,4.746 -1.34,0 -2.715,-0.235 -4.121,-0.762 -1.414,-0.508 -2.703,-1.035 -3.879,-1.641 -1.394,-0.683 -2.742,-1.464 -4.082,-2.304 l 0.402,4.707 v 20.078 z m 5.761,-29.024 c 1.29,0.743 2.559,1.407 3.848,1.993 1.055,0.488 2.207,0.937 3.438,1.367 1.211,0.429 2.312,0.625 3.281,0.625 1.531,0 2.851,-0.371 3.918,-1.113 1.062,-0.743 1.922,-1.817 2.555,-3.204 0.636,-1.386 1.105,-3.027 1.398,-4.961 0.293,-1.914 0.449,-4.082 0.449,-6.484 0,-4.844 -0.82,-8.672 -2.441,-11.504 -1.641,-2.832 -3.731,-4.238 -6.289,-4.238 -1.7,0 -3.196,0.215 -4.473,0.664 -1.277,0.449 -2.352,0.977 -3.203,1.562 -0.957,0.645 -1.785,1.387 -2.481,2.247 z m 61.524,-24.804 c -1.348,-0.528 -2.695,-0.996 -4.082,-1.367 -1.231,-0.313 -2.547,-0.606 -3.965,-0.879 -1.414,-0.274 -2.812,-0.391 -4.199,-0.391 -1.914,0 -3.516,0.313 -4.793,0.938 -1.281,0.644 -2.317,1.523 -3.117,2.636 -0.801,1.114 -1.399,2.442 -1.77,4.004 -0.379,1.563 -0.633,3.281 -0.789,5.137 h 7.832 c 1.856,0 3.731,0.156 5.606,0.469 1.855,0.332 3.527,0.957 5,1.894 1.457,0.938 2.656,2.227 3.593,3.848 0.938,1.64 1.407,3.769 1.407,6.387 0,3.691 -1.125,6.484 -3.36,8.359 -2.246,1.855 -5.281,2.793 -9.121,2.793 -2.461,0 -4.707,-0.43 -6.758,-1.309 -2.07,-0.879 -3.84,-2.226 -5.332,-4.043 -1.496,-1.816 -2.656,-4.062 -3.476,-6.758 -0.821,-2.695 -1.231,-5.839 -1.231,-9.394 0,-6.25 1.231,-11.133 3.711,-14.648 2.481,-3.516 6.328,-5.274 11.563,-5.274 1.816,0 3.515,0.117 5.117,0.352 1.601,0.234 3.008,0.527 4.238,0.839 1.387,0.372 2.695,0.801 3.926,1.29 z m -22.805,14.883 c 0.051,1.914 0.332,3.75 0.844,5.468 0.496,1.719 1.211,3.223 2.117,4.512 0.899,1.27 2.039,2.285 3.399,3.047 1.367,0.742 2.929,1.133 4.687,1.133 2.18,0 3.848,-0.606 5,-1.778 1.133,-1.172 1.719,-2.832 1.719,-4.98 0,-2.266 -0.801,-4.063 -2.403,-5.391 -1.601,-1.347 -4.082,-2.011 -7.441,-2.011 z m 41.047,18.144 h -5.762 v -40 h 5.762 z m -6.086,9.375 c 0.902,-0.918 2.024,-1.367 3.36,-1.367 1.339,0 2.453,0.449 3.363,1.367 0.906,0.899 1.355,2.031 1.355,3.359 0,1.329 -0.449,2.442 -1.355,3.36 -0.91,0.898 -2.024,1.347 -3.363,1.347 -1.336,0 -2.458,-0.449 -3.36,-1.347 -0.906,-0.918 -1.355,-2.031 -1.355,-3.36 0,-1.328 0.449,-2.46 1.355,-3.359 m 39.121,-44.648 c -0.429,-0.118 -0.879,-0.196 -1.355,-0.235 -0.801,-0.156 -1.719,-0.234 -2.727,-0.234 -1.551,0 -2.781,0.176 -3.719,0.547 -0.937,0.371 -1.64,0.937 -2.121,1.699 -0.476,0.742 -0.797,1.699 -0.957,2.871 -0.164,1.191 -0.242,2.578 -0.242,4.18 v 21.66 H 995 v 4.785 h -9.922 v 16.016 h -5.762 v -16.016 h -6.64 v -4.785 h 6.64 v -22.539 c 0,-4.531 0.879,-7.91 2.637,-10.098 1.77,-2.187 4.824,-3.281 9.207,-3.281 0.578,0 1.164,0 1.762,0.039 0.574,0.02 1.121,0.078 1.598,0.195 0.578,0.039 1.144,0.137 1.679,0.235 v 4.961"
         style="fill:#ed192e;fill-opacity:1;fill-rule:nonzero;stroke:none"
         id="path36"
         inkscape:connector-curvature="0" /><path
         d="m 429.727,558.902 c -1.332,0.157 -2.672,0.34 -4.004,0.555 -1.118,0.156 -2.348,0.313 -3.676,0.441 -1.332,0.125 -2.567,0.204 -3.684,0.204 -2.672,0 -5.008,-0.372 -7.039,-1.122 -2.031,-0.753 -3.73,-1.769 -5.117,-3.085 -1.394,-1.309 -2.441,-2.825 -3.164,-4.551 -0.719,-1.739 -1.078,-3.594 -1.078,-5.567 0,-3.086 0.59,-5.605 1.762,-7.558 1.168,-1.953 2.625,-3.594 4.359,-4.922 1.727,-1.328 3.609,-2.473 5.641,-3.399 2.027,-0.929 3.91,-1.925 5.636,-2.96 1.731,-1.043 3.192,-2.247 4.364,-3.641 1.168,-1.387 1.757,-3.195 1.757,-5.442 0,-3.035 -0.949,-5.449 -2.839,-7.234 -1.891,-1.797 -4.68,-2.687 -8.364,-2.687 -1.488,0 -2.988,0.117 -4.476,0.324 -1.489,0.215 -2.852,0.449 -4.082,0.722 -1.387,0.321 -2.75,0.692 -4.078,1.122 v -5.606 c 1.281,-0.43 2.609,-0.769 4,-1.035 1.23,-0.273 2.558,-0.496 4,-0.684 1.441,-0.183 2.929,-0.281 4.48,-0.281 3.039,0 5.672,0.391 7.879,1.16 2.211,0.774 4.043,1.856 5.48,3.242 1.442,1.387 2.493,3.04 3.161,4.961 0.668,1.914 1,4.024 1,6.321 0,3.035 -0.59,5.508 -1.762,7.402 -1.168,1.883 -2.637,3.465 -4.399,4.715 -1.757,1.25 -3.668,2.336 -5.718,3.242 -2.051,0.91 -3.961,1.887 -5.723,2.961 -1.758,1.063 -3.227,2.324 -4.398,3.797 -1.168,1.476 -1.758,3.371 -1.758,5.723 0,2.558 0.926,4.668 2.797,6.32 1.871,1.648 4.371,2.48 7.519,2.48 1.121,0 2.356,-0.078 3.684,-0.246 1.328,-0.156 2.586,-0.312 3.758,-0.476 1.39,-0.207 2.75,-0.43 4.082,-0.637 z m 39.515,-48.644 c -1.328,-0.528 -2.687,-0.985 -4.074,-1.356 -1.23,-0.324 -2.555,-0.617 -3.961,-0.879 -1.41,-0.273 -2.812,-0.402 -4.203,-0.402 -1.922,0 -3.52,0.313 -4.801,0.949 -1.281,0.633 -2.32,1.504 -3.121,2.625 -0.797,1.114 -1.387,2.453 -1.758,4.016 -0.371,1.57 -0.64,3.269 -0.801,5.125 h 7.84 c 1.871,0 3.735,0.156 5.602,0.48 1.871,0.321 3.531,0.957 5,1.895 1.473,0.926 2.672,2.215 3.598,3.848 0.929,1.629 1.402,3.757 1.402,6.375 0,3.691 -1.121,6.484 -3.36,8.351 -2.242,1.875 -5.281,2.813 -9.121,2.813 -2.449,0 -4.711,-0.442 -6.761,-1.321 -2.047,-0.879 -3.828,-2.226 -5.317,-4.043 -1.488,-1.804 -2.652,-4.062 -3.48,-6.757 -0.832,-2.684 -1.242,-5.829 -1.242,-9.403 0,-6.23 1.242,-11.113 3.718,-14.64 2.485,-3.516 6.328,-5.274 11.567,-5.274 1.804,0 3.511,0.117 5.117,0.363 1.602,0.235 3.012,0.516 4.234,0.84 1.395,0.36 2.692,0.789 3.922,1.278 z m -22.797,14.883 c 0.047,1.925 0.328,3.75 0.84,5.468 0.508,1.719 1.211,3.215 2.117,4.512 0.911,1.281 2.043,2.297 3.403,3.047 1.359,0.754 2.918,1.133 4.679,1.133 2.188,0 3.848,-0.594 5,-1.778 1.149,-1.171 1.719,-2.832 1.719,-4.988 0,-2.246 -0.801,-4.043 -2.394,-5.39 -1.606,-1.34 -4.082,-2.004 -7.446,-2.004 z m 65.196,-21.844 v 29.519 c 0,1.282 -0.125,2.571 -0.391,3.879 -0.273,1.317 -0.801,2.508 -1.566,3.602 -0.766,1.094 -1.871,1.992 -3.278,2.676 -1.41,0.695 -3.269,1.047 -5.562,1.047 -1.649,0 -3.309,-0.254 -4.961,-0.762 -1.649,-0.508 -3.149,-1.047 -4.477,-1.641 -1.551,-0.683 -3.043,-1.465 -4.48,-2.316 l -0.805,3.996 h -4.398 v -40 h 5.761 v 31.836 c 1.282,0.742 2.61,1.414 4,2 1.172,0.539 2.481,1.015 3.922,1.445 1.442,0.43 2.848,0.637 4.239,0.637 1.332,0 2.402,-0.188 3.203,-0.559 0.797,-0.379 1.425,-0.906 1.879,-1.601 0.449,-0.692 0.757,-1.563 0.918,-2.567 0.16,-1.015 0.238,-2.168 0.238,-3.449 v -27.742 z m 14.238,33.281 c 1.601,0.477 3.203,0.906 4.805,1.277 1.386,0.325 2.879,0.637 4.484,0.918 1.59,0.293 3.086,0.442 4.48,0.442 2.93,0 4.922,-0.52 5.957,-1.563 1.036,-1.054 1.563,-2.941 1.563,-5.683 v -4.668 h -9.441 c -2.036,0 -3.918,-0.293 -5.637,-0.879 -1.738,-0.598 -3.223,-1.438 -4.445,-2.52 -1.227,-1.093 -2.196,-2.441 -2.879,-4.043 -0.703,-1.601 -1.036,-3.41 -1.036,-5.441 0,-1.602 0.215,-3.125 0.672,-4.559 0.453,-1.437 1.145,-2.687 2.082,-3.761 0.926,-1.075 2.121,-1.922 3.555,-2.559 1.445,-0.644 3.176,-0.965 5.203,-0.965 1.379,0 2.805,0.242 4.238,0.723 1.438,0.476 2.778,1.016 4.004,1.601 1.379,0.692 2.805,1.493 4.243,2.403 l 0.796,-4.004 h 4.407 v 30.078 c 0,2.078 -0.242,3.809 -0.723,5.164 -0.488,1.359 -1.223,2.441 -2.207,3.242 -0.984,0.793 -2.234,1.367 -3.75,1.719 -1.523,0.352 -3.32,0.52 -5.41,0.52 -1.973,0 -3.86,-0.129 -5.637,-0.403 -1.785,-0.262 -3.379,-0.515 -4.754,-0.789 -1.66,-0.371 -3.183,-0.762 -4.57,-1.183 z m 6.125,-15.801 c 1.687,1.309 3.797,1.961 6.355,1.961 h 8.809 v -11.121 c -1.289,-0.801 -2.559,-1.484 -3.848,-2.082 -1.062,-0.527 -2.234,-0.996 -3.515,-1.394 -1.282,-0.403 -2.461,-0.606 -3.516,-0.606 -2.187,0 -3.879,0.672 -5.039,2 -1.191,1.328 -1.77,3.125 -1.77,5.363 0,2.606 0.84,4.571 2.524,5.879 m 53.797,-12.754 c -0.43,-0.117 -0.879,-0.195 -1.36,-0.246 -0.796,-0.156 -1.707,-0.242 -2.722,-0.242 -1.543,0 -2.781,0.195 -3.711,0.567 -0.938,0.378 -1.641,0.937 -2.129,1.687 -0.469,0.742 -0.801,1.711 -0.957,2.883 -0.156,1.18 -0.234,2.566 -0.234,4.168 v 21.66 h 9.921 v 4.797 h -9.921 v 16.004 h -5.762 v -16.004 h -6.641 V 538.5 h 6.641 v -22.527 c 0,-4.543 0.879,-7.91 2.637,-10.11 1.757,-2.195 4.824,-3.289 9.199,-3.289 0.586,0 1.172,0.02 1.758,0.047 0.585,0.031 1.125,0.09 1.601,0.195 0.586,0.051 1.145,0.129 1.68,0.247 z M 615,542.965 c -1.016,0.164 -2.051,0.332 -3.113,0.496 -0.91,0.109 -1.985,0.227 -3.196,0.352 -1.23,0.136 -2.48,0.207 -3.769,0.207 -2.344,0 -4.356,-0.286 -6.035,-0.84 -1.68,-0.559 -3.067,-1.34 -4.121,-2.336 -1.075,-0.985 -1.856,-2.129 -2.364,-3.446 -0.507,-1.308 -0.761,-2.707 -0.761,-4.199 0,-2.414 0.488,-4.316 1.445,-5.742 0.957,-1.406 2.156,-2.551 3.594,-3.398 1.445,-0.86 3.008,-1.543 4.726,-2.051 1.699,-0.508 3.282,-1.074 4.715,-1.719 1.438,-0.644 2.649,-1.445 3.606,-2.414 0.957,-0.957 1.433,-2.312 1.433,-4.09 0,-0.637 -0.097,-1.32 -0.281,-2.043 -0.188,-0.711 -0.559,-1.387 -1.113,-2 -0.567,-0.617 -1.328,-1.133 -2.286,-1.562 -0.957,-0.43 -2.238,-0.645 -3.835,-0.645 -1.34,0 -2.676,0.098 -4.036,0.281 -1.367,0.196 -2.597,0.411 -3.73,0.684 -1.328,0.266 -2.617,0.586 -3.828,0.957 v -5.379 c 1.113,-0.324 2.312,-0.578 3.594,-0.793 1.054,-0.203 2.285,-0.379 3.679,-0.508 1.379,-0.125 2.824,-0.203 4.321,-0.203 2.566,0 4.695,0.332 6.394,1.004 1.699,0.656 3.066,1.543 4.082,2.629 1.016,1.094 1.738,2.332 2.168,3.711 0.41,1.387 0.637,2.773 0.637,4.16 0,2.598 -0.481,4.676 -1.438,6.219 -0.957,1.543 -2.187,2.754 -3.64,3.633 -1.477,0.879 -3.059,1.593 -4.758,2.121 -1.719,0.527 -3.301,1.082 -4.766,1.668 -1.465,0.586 -2.676,1.347 -3.633,2.277 -0.964,0.938 -1.445,2.254 -1.445,3.953 0,1.328 0.527,2.539 1.602,3.625 1.054,1.094 3.086,1.641 6.074,1.641 1.172,0 2.344,-0.078 3.516,-0.235 l 3.281,-0.324 c 1.133,-0.203 2.219,-0.398 3.281,-0.554 z m 22.402,-27.988 c -0.586,1.816 -1.191,3.652 -1.797,5.515 -0.625,1.875 -1.035,3.332 -1.242,4.406 l -3.679,18.399 h -6.407 l 4.161,-18.399 c 0.332,-1.496 0.91,-3.449 1.765,-5.878 0.852,-2.434 1.731,-4.817 2.649,-7.161 1.054,-2.722 2.226,-5.574 3.515,-8.562 h 6.321 c 1.277,2.93 2.449,5.762 3.523,8.484 0.898,2.344 1.797,4.727 2.676,7.16 0.879,2.43 1.504,4.403 1.875,5.957 L 655,543.297 h -6.152 l -3.68,-18.399 c -0.273,-1.171 -0.688,-2.675 -1.242,-4.523 -0.567,-1.836 -1.16,-3.672 -1.797,-5.477 -0.762,-2.128 -1.555,-4.347 -2.402,-6.64 -0.86,2.351 -1.629,4.59 -2.325,6.719 m 53.36,-4.719 c -1.336,-0.528 -2.696,-0.985 -4.082,-1.356 -1.231,-0.324 -2.539,-0.617 -3.953,-0.879 -1.418,-0.273 -2.825,-0.402 -4.204,-0.402 -1.921,0 -3.523,0.313 -4.793,0.949 -1.289,0.633 -2.324,1.504 -3.125,2.625 -0.8,1.114 -1.386,2.453 -1.757,4.016 -0.379,1.57 -0.645,3.269 -0.801,5.125 h 7.832 c 1.863,0 3.73,0.156 5.605,0.48 1.856,0.321 3.536,0.957 5,1.895 1.465,0.926 2.657,2.215 3.594,3.848 0.938,1.629 1.406,3.757 1.406,6.375 0,3.691 -1.113,6.484 -3.359,8.351 -2.246,1.875 -5.273,2.813 -9.121,2.813 -2.461,0 -4.707,-0.442 -6.758,-1.321 -2.058,-0.879 -3.828,-2.226 -5.32,-4.043 -1.496,-1.804 -2.668,-4.062 -3.488,-6.757 -0.821,-2.684 -1.231,-5.829 -1.231,-9.403 0,-6.23 1.231,-11.113 3.711,-14.64 2.48,-3.516 6.34,-5.274 11.562,-5.274 1.817,0 3.528,0.117 5.118,0.363 1.601,0.235 3.015,0.516 4.25,0.84 1.375,0.36 2.683,0.789 3.914,1.278 z m -22.793,14.883 c 0.039,1.925 0.332,3.75 0.84,5.468 0.5,1.719 1.211,3.215 2.109,4.512 0.906,1.281 2.051,2.297 3.406,3.047 1.36,0.754 2.922,1.133 4.68,1.133 2.187,0 3.848,-0.594 5,-1.778 1.141,-1.171 1.719,-2.832 1.719,-4.988 0,-2.246 -0.801,-4.043 -2.403,-5.39 -1.601,-1.34 -4.082,-2.004 -7.441,-2.004 z m 55.039,18.879 c -1.875,0.105 -3.66,-0.09 -5.363,-0.598 -1.707,-0.516 -3.258,-1.055 -4.637,-1.641 -1.602,-0.691 -3.125,-1.523 -4.57,-2.48 l -0.793,3.996 h -4.403 v -40 h 5.762 v 31.758 c 1.445,0.8 2.93,1.492 4.48,2.078 1.329,0.539 2.825,0.976 4.485,1.328 1.64,0.344 3.32,0.441 5.039,0.273 z m 46.062,-40.723 c 0.969,2.988 1.848,5.84 2.649,8.562 0.691,2.344 1.34,4.719 1.914,7.121 0.586,2.403 0.996,4.364 1.203,5.918 l 2.234,18.399 h -6.074 l -1.836,-18.399 c -0.105,-1.125 -0.351,-2.609 -0.722,-4.484 -0.372,-1.863 -0.77,-3.711 -1.204,-5.516 -0.476,-2.128 -1.004,-4.347 -1.597,-6.64 l -9.367,35.039 h -5.762 l -9.356,-35.039 c -0.578,2.351 -1.113,4.59 -1.601,6.719 -0.41,1.816 -0.821,3.652 -1.192,5.515 -0.371,1.875 -0.617,3.332 -0.722,4.406 l -1.836,18.399 h -6.406 l 2.324,-18.399 c 0.156,-1.496 0.547,-3.449 1.152,-5.878 0.625,-2.434 1.27,-4.817 1.965,-7.161 0.801,-2.722 1.656,-5.574 2.559,-8.562 h 7.117 l 8.718,32.879 8.879,-32.879 z m 19.524,33.281 c 1.601,0.477 3.203,0.906 4.804,1.277 1.387,0.325 2.872,0.637 4.473,0.918 1.602,0.293 3.106,0.442 4.484,0.442 2.938,0 4.918,-0.52 5.965,-1.563 1.035,-1.054 1.551,-2.941 1.551,-5.683 v -4.668 h -9.441 c -2.012,0 -3.899,-0.293 -5.633,-0.879 -1.731,-0.598 -3.215,-1.438 -4.445,-2.52 -1.211,-1.093 -2.176,-2.441 -2.872,-4.043 -0.703,-1.601 -1.042,-3.41 -1.042,-5.441 0,-1.602 0.222,-3.125 0.671,-4.559 0.469,-1.437 1.153,-2.687 2.09,-3.761 0.938,-1.075 2.11,-1.922 3.555,-2.559 1.445,-0.644 3.184,-0.965 5.195,-0.965 1.399,0 2.805,0.242 4.239,0.723 1.445,0.476 2.792,1.016 4.003,1.601 1.387,0.692 2.801,1.493 4.239,2.403 l 0.8,-4.004 h 4.407 v 30.078 c 0,2.078 -0.246,3.809 -0.727,5.164 -0.476,1.359 -1.199,2.441 -2.195,3.242 -0.977,0.793 -2.246,1.367 -3.762,1.719 -1.512,0.352 -3.316,0.52 -5.398,0.52 -1.973,0 -3.848,-0.129 -5.645,-0.403 -1.777,-0.262 -3.359,-0.515 -4.758,-0.789 -1.648,-0.371 -3.172,-0.762 -4.558,-1.183 z m 6.125,-15.801 c 1.676,1.309 3.797,1.961 6.355,1.961 h 8.797 v -11.121 c -1.277,-0.801 -2.558,-1.484 -3.836,-2.082 -1.055,-0.527 -2.246,-0.996 -3.515,-1.394 -1.29,-0.403 -2.461,-0.606 -3.528,-0.606 -2.176,0 -3.855,0.672 -5.039,2 -1.172,1.328 -1.765,3.125 -1.765,5.363 0,2.606 0.839,4.571 2.531,5.879 M 835,564.098 h -5.762 V 503.297 H 835 Z m 33.027,-56.075 c -0.41,-0.117 -0.879,-0.195 -1.347,-0.246 -0.801,-0.156 -1.7,-0.242 -2.727,-0.242 -1.543,0 -2.781,0.195 -3.719,0.567 -0.925,0.378 -1.64,0.937 -2.121,1.687 -0.476,0.742 -0.8,1.711 -0.965,2.883 -0.156,1.18 -0.234,2.566 -0.234,4.168 v 21.66 h 9.922 v 4.797 h -9.922 v 16.004 h -5.762 v -16.004 h -6.64 V 538.5 h 6.64 v -22.527 c 0,-4.543 0.879,-7.91 2.637,-10.11 1.77,-2.195 4.832,-3.289 9.199,-3.289 0.598,0 1.192,0.02 1.77,0.047 0.594,0.031 1.121,0.09 1.59,0.195 0.593,0.051 1.152,0.129 1.679,0.247 z m 8.243,35.274 v -29.524 c 0,-1.277 0.136,-2.566 0.41,-3.875 0.261,-1.308 0.781,-2.511 1.55,-3.605 0.774,-1.082 1.868,-1.98 3.286,-2.676 1.414,-0.691 3.269,-1.043 5.554,-1.043 1.66,0 3.321,0.242 4.961,0.723 1.66,0.476 3.157,1.016 4.485,1.601 1.55,0.692 3.035,1.493 4.48,2.403 l 0.801,-4.004 h 4.394 v 40 h -5.761 v -31.828 c -1.27,-0.801 -2.61,-1.504 -3.992,-2.09 -1.172,-0.527 -2.485,-1.004 -3.918,-1.406 -1.446,-0.399 -2.852,-0.594 -4.239,-0.594 -1.34,0 -2.402,0.184 -3.203,0.555 -0.801,0.371 -1.433,0.918 -1.887,1.601 -0.449,0.703 -0.75,1.555 -0.918,2.57 -0.164,1.024 -0.242,2.176 -0.242,3.458 v 27.734 z m 73.601,-40 v 29.519 c 0,1.282 -0.125,2.571 -0.398,3.879 -0.274,1.317 -0.782,2.508 -1.563,3.602 -0.762,1.094 -1.863,1.992 -3.281,2.676 -1.406,0.695 -3.262,1.047 -5.559,1.047 -1.648,0 -3.308,-0.254 -4.949,-0.762 -1.66,-0.508 -3.152,-1.047 -4.492,-1.641 -1.543,-0.683 -3.027,-1.465 -4.473,-2.316 l -0.801,3.996 h -4.394 v -40 h 5.754 v 31.836 c 1.277,0.742 2.605,1.414 4.004,2 1.16,0.539 2.469,1.015 3.914,1.445 1.445,0.43 2.851,0.637 4.238,0.637 1.328,0 2.402,-0.188 3.203,-0.559 0.801,-0.379 1.426,-0.906 1.875,-1.601 0.449,-0.692 0.762,-1.563 0.918,-2.567 0.164,-1.015 0.254,-2.168 0.254,-3.449 v -27.742 z m 18,30.359 c 0.527,1.309 1.231,2.395 2.09,3.242 0.84,0.852 1.816,1.477 2.91,1.875 1.094,0.403 2.168,0.606 3.242,0.606 1.817,0 3.391,-0.254 4.727,-0.762 1.328,-0.508 2.441,-1.054 3.359,-1.64 1.004,-0.692 1.887,-1.493 2.637,-2.403 v -5.594 c 0,-3.574 -0.957,-6.23 -2.883,-7.96 -1.922,-1.727 -4.265,-2.598 -7.039,-2.598 -2.773,0 -5.105,0.871 -7.004,2.598 -1.883,1.73 -2.84,4.386 -2.84,7.96 0,1.805 0.274,3.368 0.801,4.676 m 1.445,-31.082 c 0.313,-0.051 0.684,-0.09 1.075,-0.117 0.41,-0.031 0.839,-0.039 1.328,-0.039 h 10.078 c 1.113,0 2.187,-0.07 3.203,-0.195 1.008,-0.137 1.887,-0.383 2.637,-0.754 0.742,-0.371 1.347,-0.899 1.797,-1.59 0.449,-0.695 0.683,-1.594 0.683,-2.695 0,-1.125 -0.332,-2.082 -0.996,-2.903 -0.683,-0.824 -1.601,-1.508 -2.773,-2.035 -1.16,-0.527 -2.539,-0.937 -4.114,-1.191 -1.57,-0.274 -3.269,-0.391 -5.086,-0.391 -1.796,0 -3.476,0.098 -5,0.313 -1.511,0.214 -2.824,0.566 -3.918,1.035 -1.082,0.468 -1.941,1.093 -2.554,1.875 -0.617,0.758 -0.918,1.722 -0.918,2.894 0,0.899 0.183,1.731 0.555,2.5 0.371,0.762 0.773,1.418 1.203,1.946 0.535,0.586 1.121,1.113 1.765,1.589 0.313,-0.105 0.664,-0.183 1.035,-0.242 m -5.957,-13.609 c 2.688,-1.582 7.11,-2.383 13.243,-2.383 6.179,0 10.878,1.035 14.113,3.066 3.23,2.051 4.844,4.77 4.844,8.129 0,3.313 -1.047,5.715 -3.118,7.2 -2.089,1.492 -5.156,2.246 -9.211,2.246 h -10 c -2.078,0 -3.542,0.312 -4.402,0.957 -0.84,0.633 -1.269,1.492 -1.269,2.558 0,2.188 1.945,3.282 5.839,3.282 h 3.516 c 2.078,0 4.055,0.312 5.918,0.918 1.875,0.613 3.516,1.55 4.922,2.8 1.406,1.25 2.551,2.852 3.398,4.797 0.852,1.953 1.289,4.258 1.289,6.922 v 13.84 h -4.328 l -0.8,-3.996 c -0.907,0.851 -1.961,1.633 -3.192,2.316 -1.074,0.594 -2.363,1.133 -3.848,1.641 -1.484,0.508 -3.203,0.762 -5.117,0.762 -1.601,0 -3.215,-0.313 -4.843,-0.918 -1.622,-0.618 -3.086,-1.563 -4.395,-2.844 -1.309,-1.278 -2.395,-2.891 -3.242,-4.844 -0.852,-1.941 -1.281,-4.226 -1.281,-6.836 0,-2.351 0.324,-4.277 1,-5.801 0.671,-1.523 1.433,-2.734 2.273,-3.64 0.969,-1.067 2.09,-1.887 3.359,-2.481 -1.113,-0.207 -2.109,-0.617 -2.949,-1.203 -0.754,-0.488 -1.433,-1.172 -2.051,-2.09 -0.605,-0.906 -0.918,-2.09 -0.918,-3.523 0,-0.91 0.137,-1.711 0.411,-2.375 0.261,-0.664 0.554,-1.219 0.878,-1.649 0.372,-0.527 0.821,-0.937 1.36,-1.203 -1.008,-0.535 -1.926,-1.23 -2.727,-2.078 -0.683,-0.734 -1.316,-1.652 -1.875,-2.707 -0.566,-1.074 -0.84,-2.293 -0.84,-3.672 0,-3.207 1.348,-5.59 4.043,-7.191"
         style="fill:#ed192e;fill-opacity:1;fill-rule:nonzero;stroke:none"
         id="path38"
         inkscape:connector-curvature="0" /><path
         d="m 48.2148,77.7734 c -0.5312,0.0391 -1.0898,0.1172 -1.6835,0.2344 -0.4766,0.0391 -1.0079,0.0977 -1.5938,0.1563 -0.5937,0.0586 -1.1719,0.0781 -1.7656,0.0781 -4.3672,0 -7.4414,-1.0938 -9.1992,-3.2813 C 32.2188,72.7734 31.332,69.4141 31.332,64.8828 v -8.164 H 24.6914 V 51.9336 H 31.332 V 16.7188 h 5.7618 v 35.2148 h 9.9218 v 4.7852 h -9.9218 v 7.2851 c 0,1.6016 0.0781,2.9883 0.2421,4.1602 0.1602,1.1718 0.4766,2.1289 0.961,2.8906 0.4765,0.7422 1.1836,1.3086 2.1172,1.6797 0.9297,0.3515 2.1679,0.5469 3.7226,0.5469 0.4297,0 0.8789,-0.0196 1.3555,-0.0782 0.4844,-0.039 0.9336,-0.1172 1.3633,-0.1562 0.4804,-0.1172 0.9258,-0.1953 1.3593,-0.2344 z m 9.5196,-10.4492 c -0.8008,-0.7617 -1.2031,-1.7773 -1.2031,-3.0078 0,-1.2305 0.4023,-2.207 1.2031,-2.9492 0.8008,-0.7617 1.7578,-1.1133 2.8789,-1.1133 1.2305,0 2.2422,0.3516 3.039,1.1133 0.8008,0.7422 1.1993,1.7187 1.1993,2.9492 0,1.2305 -0.4063,2.2461 -1.2383,3.0078 -0.832,0.7617 -1.832,1.1524 -3,1.1524 -1.1211,0 -2.0781,-0.3907 -2.8789,-1.1524 m 17.7578,0 c -0.8008,-0.7617 -1.1992,-1.7773 -1.1992,-3.0078 0,-1.2305 0.3984,-2.207 1.1992,-2.9492 0.8008,-0.7617 1.7656,-1.1133 2.8828,-1.1133 1.2305,0 2.2383,0.3516 3.0391,1.1133 0.8047,0.7422 1.1992,1.7187 1.1992,2.9492 0,1.2305 -0.4102,2.2461 -1.2422,3.0078 -0.8281,0.7617 -1.8242,1.1524 -2.9961,1.1524 -1.1172,0 -2.082,-0.3907 -2.8828,-1.1524 M 54.4531,56.7188 V 27.207 c 0,-1.289 0.1328,-2.5781 0.3985,-3.8867 0.2695,-1.3086 0.7929,-2.5 1.5625,-3.5937 0.7695,-1.0938 1.8711,-1.9922 3.2773,-2.6758 1.4102,-0.7031 3.2734,-1.0547 5.5625,-1.0547 1.6524,0 3.3125,0.2539 4.9609,0.7227 1.6485,0.4882 3.1485,1.0156 4.4766,1.6015 1.5547,0.7031 3.043,1.5039 4.4844,2.4024 l 0.8008,-4.0039 h 4.3984 v 40 H 78.6133 V 24.9023 c -1.2774,-0.8007 -2.6055,-1.5039 -4,-2.0898 -1.1719,-0.5469 -2.4805,-1.0156 -3.918,-1.4062 -1.4414,-0.4102 -2.8476,-0.6055 -4.2383,-0.6055 -1.3359,0 -2.4062,0.1953 -3.1992,0.5664 -0.8008,0.3711 -1.4297,0.8984 -1.8867,1.6016 -0.4492,0.7031 -0.7578,1.5625 -0.918,2.5585 -0.1601,1.0157 -0.2383,2.168 -0.2383,3.4571 v 27.7344 z m 63.0429,0.7226 c -1.871,0.1172 -3.652,-0.0781 -5.363,-0.6055 -1.707,-0.5078 -3.246,-1.0351 -4.637,-1.6406 -1.601,-0.6836 -3.121,-1.5039 -4.562,-2.4609 l -0.801,3.9844 h -4.3986 v -40 h 5.7616 v 31.7578 c 1.442,0.8007 2.93,1.5039 4.477,2.0898 1.336,0.5274 2.832,0.9766 4.484,1.3281 1.648,0.3321 3.328,0.4297 5.039,0.2735 z m 34.16,15.293 h -6.082 V 16.7188 h 6.082 z M 195.332,16.7188 V 46.25 c 0,1.2695 -0.137,2.5586 -0.394,3.8672 -0.274,1.3086 -0.793,2.5195 -1.563,3.6133 -0.781,1.0937 -1.871,1.9922 -3.281,2.6758 -1.418,0.6835 -3.27,1.0351 -5.559,1.0351 -1.66,0 -3.308,-0.2539 -4.961,-0.7617 -1.66,-0.5078 -3.148,-1.0352 -4.48,-1.6406 -1.547,-0.6836 -3.039,-1.4649 -4.481,-2.3047 l -0.8,3.9844 h -4.399 v -40 h 5.762 v 31.8359 c 1.281,0.7422 2.609,1.4258 4,1.9922 1.168,0.5469 2.48,1.0351 3.922,1.4648 1.433,0.4297 2.843,0.625 4.238,0.625 1.328,0 2.394,-0.1758 3.195,-0.5469 0.805,-0.3906 1.422,-0.9179 1.883,-1.621 0.449,-0.6836 0.762,-1.543 0.922,-2.5586 0.156,-1.0157 0.238,-2.168 0.238,-3.4375 V 16.7188 Z m 32.481,4.7265 c -0.43,-0.1172 -0.879,-0.1953 -1.36,-0.2344 -0.801,-0.1562 -1.707,-0.2539 -2.719,-0.2539 -1.55,0 -2.793,0.1953 -3.718,0.5664 -0.946,0.3711 -1.641,0.9375 -2.121,1.6797 -0.485,0.7422 -0.801,1.7188 -0.961,2.8907 -0.161,1.1718 -0.239,2.5781 -0.239,4.1796 v 21.6602 h 9.922 v 4.7852 h -9.922 v 16.0156 h -5.761 V 56.7188 h -6.641 v -4.7852 h 6.641 V 29.3945 c 0,-4.5312 0.882,-7.9101 2.64,-10.0976 1.758,-2.1875 4.821,-3.3008 9.199,-3.3008 0.582,0 1.172,0.0195 1.762,0.0586 0.578,0.0195 1.117,0.0781 1.598,0.1953 0.582,0.0391 1.14,0.1172 1.68,0.2344 z m 33.843,2.2461 c -1.343,-0.5273 -2.703,-0.9961 -4.082,-1.3672 -1.23,-0.3125 -2.551,-0.6054 -3.961,-0.8789 -1.422,-0.2734 -2.816,-0.3906 -4.199,-0.3906 -1.918,0 -3.519,0.3125 -4.801,0.9375 -1.277,0.6445 -2.316,1.5039 -3.121,2.6367 -0.801,1.1133 -1.39,2.4414 -1.758,4.0039 -0.379,1.5625 -0.636,3.2813 -0.796,5.1367 h 7.835 c 1.86,0 3.731,0.1563 5.598,0.4688 1.863,0.332 3.531,0.957 5,1.8945 1.461,0.9375 2.664,2.2266 3.606,3.8477 0.925,1.6406 1.394,3.7695 1.394,6.3867 0,3.6914 -1.117,6.4844 -3.355,8.3398 -2.243,1.875 -5.282,2.8125 -9.121,2.8125 -2.457,0 -4.707,-0.4297 -6.758,-1.3086 -2.063,-0.8789 -3.828,-2.2265 -5.324,-4.0429 -1.5,-1.8164 -2.657,-4.0821 -3.477,-6.7578 -0.828,-2.6954 -1.238,-5.8399 -1.238,-9.4141 0,-6.2305 1.238,-11.1133 3.718,-14.6289 2.477,-3.5156 6.329,-5.2734 11.559,-5.2734 1.813,0 3.52,0.1171 5.121,0.3515 1.598,0.2344 3.008,0.5274 4.238,0.8399 1.383,0.3711 2.692,0.8007 3.922,1.289 z m -22.804,14.8828 c 0.054,1.9141 0.332,3.75 0.839,5.4688 0.504,1.7187 1.211,3.2031 2.125,4.5117 0.899,1.2695 2.036,2.2851 3.399,3.0469 1.355,0.7422 2.922,1.1328 4.68,1.1328 2.179,0 3.851,-0.6055 5,-1.7774 1.14,-1.1914 1.722,-2.8515 1.722,-5 0,-2.2461 -0.801,-4.0429 -2.402,-5.3906 -1.602,-1.3281 -4.078,-1.9922 -7.442,-1.9922 z m 39.285,8.5156 c 0.523,1.3086 1.218,2.3829 2.078,3.2422 0.848,0.8399 1.82,1.4649 2.922,1.875 1.086,0.3907 2.168,0.6055 3.234,0.6055 1.813,0 3.387,-0.2539 4.723,-0.7617 1.332,-0.5078 2.453,-1.0547 3.359,-1.6406 1.012,-0.7032 1.891,-1.5039 2.641,-2.4024 v -5.6055 c 0,-3.5742 -0.961,-6.2304 -2.879,-7.9492 -1.918,-1.7383 -4.27,-2.6172 -7.043,-2.6172 -2.777,0 -5.106,0.8789 -6.996,2.6172 -1.899,1.7188 -2.84,4.375 -2.84,7.9492 0,1.8165 0.258,3.379 0.801,4.6875 m 1.437,-31.0937 c 0.321,-0.0391 0.68,-0.0781 1.078,-0.1172 0.403,-0.0195 0.84,-0.0391 1.321,-0.0391 h 10.082 c 1.121,0 2.179,-0.0585 3.199,-0.1953 1.012,-0.1367 1.891,-0.3711 2.641,-0.7422 0.738,-0.371 1.339,-0.8984 1.796,-1.6015 0.454,-0.6836 0.684,-1.582 0.684,-2.6953 0,-1.11331 -0.34,-2.08987 -1,-2.91019 -0.668,-0.82031 -1.594,-1.48437 -2.758,-2.01172 -1.183,-0.54687 -2.554,-0.9375 -4.121,-1.1914 -1.582,-0.27344 -3.273,-0.41016 -5.086,-0.41016 -1.812,0 -3.472,0.11719 -5,0.33203 -1.515,0.19532 -2.824,0.54688 -3.914,1.01563 -1.101,0.48828 -1.953,1.11328 -2.562,1.875 -0.621,0.76172 -0.918,1.73828 -0.918,2.89061 0,0.918 0.179,1.7383 0.558,2.5 0.367,0.7813 0.77,1.4258 1.199,1.9531 0.532,0.586 1.122,1.1133 1.762,1.6016 0.317,-0.1172 0.66,-0.1953 1.039,-0.2539 M 273.613,2.40234 C 276.305,0.800781 280.715,0 286.855,0 c 6.176,0 10.887,1.03516 14.122,3.08594 3.218,2.05078 4.839,4.76562 4.839,8.12496 0,3.3008 -1.043,5.7032 -3.121,7.1875 -2.082,1.5039 -5.152,2.2461 -9.199,2.2461 h -10 c -2.082,0 -3.551,0.3125 -4.398,0.9571 -0.868,0.6445 -1.285,1.4843 -1.285,2.5586 0,2.1875 1.945,3.2812 5.839,3.2812 h 3.52 c 2.082,0 4.055,0.3125 5.926,0.918 1.859,0.625 3.5,1.5625 4.914,2.8125 1.414,1.25 2.547,2.8515 3.402,4.7851 0.852,1.9532 1.281,4.2578 1.281,6.9336 v 13.8282 h -4.32 l -0.801,-3.9844 c -0.91,0.8398 -1.976,1.6211 -3.199,2.3047 -1.07,0.6054 -2.348,1.1328 -3.844,1.6406 -1.5,0.5078 -3.195,0.7617 -5.117,0.7617 -1.601,0 -3.223,-0.3125 -4.84,-0.918 -1.629,-0.6054 -3.097,-1.5625 -4.398,-2.832 -1.313,-1.2891 -2.391,-2.8906 -3.242,-4.8437 -0.86,-1.9532 -1.278,-4.2383 -1.278,-6.836 0,-2.3633 0.324,-4.2773 1,-5.8008 0.66,-1.5234 1.414,-2.7343 2.282,-3.6523 0.957,-1.0547 2.078,-1.875 3.359,-2.4805 -1.125,-0.2148 -2.109,-0.6054 -2.965,-1.1914 -0.746,-0.4883 -1.426,-1.1914 -2.035,-2.0898 -0.621,-0.918 -0.926,-2.0899 -0.926,-3.5352 0,-0.9179 0.133,-1.6992 0.402,-2.3633 0.258,-0.664 0.563,-1.2304 0.879,-1.6601 0.371,-0.5274 0.821,-0.9375 1.364,-1.1914 -1.024,-0.5469 -1.918,-1.2305 -2.719,-2.0899 -0.699,-0.7226 -1.32,-1.6406 -1.883,-2.6953 -0.559,-1.0742 -0.84,-2.3047 -0.84,-3.67186 0,-3.20312 1.34,-5.58593 4.039,-7.1875 m 60.68,55.03906 c -1.867,0.1172 -3.656,-0.0781 -5.355,-0.6055 -1.711,-0.5078 -3.262,-1.0351 -4.645,-1.6406 -1.598,-0.6836 -3.117,-1.5039 -4.559,-2.4609 l -0.796,3.9844 h -4.403 v -40 h 5.758 v 31.7578 c 1.441,0.8007 2.93,1.5039 4.48,2.0898 1.332,0.5274 2.821,0.9766 4.481,1.3281 1.648,0.3321 3.328,0.4297 5.039,0.2735 z M 343.805,50 c 1.601,0.4883 3.199,0.918 4.8,1.2891 1.391,0.3125 2.879,0.625 4.481,0.9179 1.598,0.293 3.102,0.4297 4.477,0.4297 2.941,0 4.921,-0.5078 5.96,-1.5625 1.043,-1.0547 1.559,-2.9297 1.559,-5.6836 v -4.6679 h -9.437 c -2.024,0 -3.903,-0.293 -5.641,-0.8789 -1.727,-0.586 -3.211,-1.4258 -4.438,-2.5196 -1.218,-1.0937 -2.183,-2.4414 -2.878,-4.0429 -0.696,-1.6016 -1.043,-3.3985 -1.043,-5.4297 0,-1.6016 0.23,-3.125 0.679,-4.5703 0.457,-1.4454 1.153,-2.6954 2.078,-3.75 0.946,-1.0743 2.121,-1.9336 3.563,-2.5586 1.437,-0.6446 3.18,-0.9766 5.199,-0.9766 1.391,0 2.805,0.2539 4.238,0.7227 1.442,0.4882 2.786,1.0156 4.004,1.6015 1.387,0.7031 2.797,1.5039 4.239,2.4024 l 0.8,-4.0039 h 4.399 v 30.0781 c 0,2.0898 -0.239,3.8086 -0.723,5.1758 -0.476,1.3476 -1.203,2.4414 -2.195,3.2226 -0.985,0.8008 -2.242,1.3867 -3.762,1.7383 -1.519,0.332 -3.32,0.5078 -5.398,0.5078 -1.973,0 -3.856,-0.1172 -5.641,-0.3906 -1.781,-0.2735 -3.367,-0.5274 -4.762,-0.8008 -1.648,-0.3711 -3.168,-0.7617 -4.558,-1.1914 z m 6.121,-15.8008 c 1.679,1.3086 3.801,1.9727 6.359,1.9727 h 8.797 V 25.0391 c -1.277,-0.8008 -2.559,-1.4844 -3.836,-2.0703 -1.058,-0.5274 -2.242,-0.9961 -3.519,-1.4063 -1.282,-0.3906 -2.454,-0.6055 -3.524,-0.6055 -2.176,0 -3.855,0.6836 -5.039,2.0118 -1.172,1.3281 -1.762,3.125 -1.762,5.3515 0,2.6172 0.84,4.5703 2.524,5.8789 m 53.398,-12.7539 c -0.418,-0.1172 -0.879,-0.1953 -1.359,-0.2344 -0.805,-0.1562 -1.699,-0.2539 -2.723,-0.2539 -1.539,0 -2.777,0.1953 -3.719,0.5664 -0.929,0.3711 -1.636,0.9375 -2.121,1.6797 -0.476,0.7422 -0.8,1.7188 -0.957,2.8907 -0.16,1.1718 -0.242,2.5781 -0.242,4.1796 v 21.6602 h 9.922 v 4.7852 h -9.922 v 16.0156 h -5.758 V 56.7188 h -6.64 v -4.7852 h 6.64 V 29.3945 c 0,-4.5312 0.879,-7.9101 2.637,-10.0976 1.762,-2.1875 4.836,-3.3008 9.203,-3.3008 0.586,0 1.18,0.0195 1.758,0.0586 0.594,0.0195 1.117,0.0781 1.602,0.1953 0.589,0.0391 1.148,0.1172 1.679,0.2344 z m 13.84,35.2735 h -5.758 v -40 h 5.758 z m -6.078,9.375 c 0.906,-0.918 2.027,-1.3672 3.355,-1.3672 1.344,0 2.461,0.4492 3.364,1.3672 0.91,0.8984 1.359,2.0117 1.359,3.3593 0,1.3282 -0.449,2.4414 -1.359,3.3594 -0.903,0.8984 -2.02,1.3477 -3.364,1.3477 -1.328,0 -2.449,-0.4493 -3.355,-1.3477 -0.898,-0.918 -1.359,-2.0312 -1.359,-3.3594 0,-1.3476 0.461,-2.4609 1.359,-3.3593 m 25.637,-17.6172 c 2.05,2.7734 4.683,4.1601 7.882,4.1601 1.391,0 2.75,-0.2344 4.083,-0.7422 1.328,-0.5273 2.507,-1.4062 3.515,-2.6562 1.012,-1.25 1.828,-2.8906 2.442,-4.9219 0.609,-2.0117 0.921,-4.5508 0.921,-7.5976 0,-2.5 -0.285,-4.7461 -0.839,-6.7188 -0.563,-1.9727 -1.332,-3.6328 -2.325,-5 -0.984,-1.3477 -2.148,-2.4023 -3.476,-3.1055 -1.332,-0.7226 -2.774,-1.0937 -4.321,-1.0937 -1.492,0 -2.91,0.2539 -4.238,0.7617 -1.336,0.5078 -2.492,1.3867 -3.48,2.6367 -0.992,1.25 -1.774,2.8906 -2.36,4.9219 -0.589,2.0312 -0.882,4.5703 -0.882,7.5977 0,5.0781 1.027,9.0039 3.078,11.7578 m -4.477,-27.5977 c 3.008,-3.2422 7.129,-4.8828 12.359,-4.8828 2.45,0 4.719,0.4883 6.801,1.4062 2.078,0.9375 3.867,2.3243 5.356,4.1602 1.496,1.8359 2.652,4.1016 3.48,6.7578 0.832,2.6758 1.242,5.7422 1.242,9.1992 0,6.7774 -1.488,11.7969 -4.476,15.0391 -2.992,3.2617 -7.125,4.8828 -12.403,4.8828 -2.558,0 -4.871,-0.4687 -6.917,-1.4453 -2.051,-0.957 -3.836,-2.3438 -5.325,-4.1992 -1.488,-1.836 -2.636,-4.0821 -3.437,-6.7578 -0.801,-2.6563 -1.199,-5.7032 -1.199,-9.1211 0,-6.7578 1.507,-11.7774 4.519,-15.0391 m 69.719,-4.1601 V 46.25 c 0,1.2695 -0.129,2.5586 -0.402,3.8672 -0.27,1.3086 -0.786,2.5195 -1.559,3.6133 -0.77,1.0937 -1.867,1.9922 -3.281,2.6758 -1.41,0.6835 -3.27,1.0351 -5.563,1.0351 -1.644,0 -3.305,-0.2539 -4.953,-0.7617 -1.652,-0.5078 -3.148,-1.0352 -4.484,-1.6406 -1.547,-0.6836 -3.035,-1.4649 -4.477,-2.3047 l -0.801,3.9844 h -4.398 v -40 h 5.758 v 31.8359 c 1.277,0.7422 2.609,1.4258 4.004,1.9922 1.164,0.5469 2.472,1.0351 3.914,1.4648 1.441,0.4297 2.851,0.625 4.242,0.625 1.328,0 2.398,-0.1758 3.199,-0.5469 0.801,-0.3906 1.43,-0.9179 1.879,-1.621 0.449,-0.6836 0.762,-1.543 0.926,-2.5586 0.152,-1.0157 0.238,-2.168 0.238,-3.4375 V 16.7188 Z m 31.765,40 V 27.207 c 0,-1.289 0.118,-2.5781 0.391,-3.8867 0.274,-1.3086 0.789,-2.5 1.563,-3.5937 0.769,-1.0938 1.875,-1.9922 3.281,-2.6758 1.406,-0.7031 3.269,-1.0547 5.566,-1.0547 1.641,0 3.301,0.2539 4.949,0.7227 1.653,0.4882 3.157,1.0156 4.485,1.6015 1.543,0.7031 3.047,1.5039 4.473,2.4024 l 0.8,-4.0039 h 4.407 v 40 h -5.754 V 24.9023 c -1.289,-0.8007 -2.618,-1.5039 -4.004,-2.0898 -1.172,-0.5469 -2.481,-1.0156 -3.926,-1.4062 -1.438,-0.4102 -2.852,-0.6055 -4.238,-0.6055 -1.328,0 -2.403,0.1953 -3.203,0.5664 -0.801,0.3711 -1.426,0.8984 -1.875,1.6016 -0.45,0.7031 -0.762,1.5625 -0.918,2.5585 -0.157,1.0157 -0.247,2.168 -0.247,3.4571 v 27.7344 z m 73.196,-40 V 46.25 c 0,1.2695 -0.129,2.5586 -0.403,3.8672 -0.273,1.3086 -0.793,2.5195 -1.562,3.6133 -0.762,1.0937 -1.863,1.9922 -3.281,2.6758 -1.407,0.6835 -3.262,1.0351 -5.559,1.0351 -1.648,0 -3.308,-0.2539 -4.961,-0.7617 -1.648,-0.5078 -3.152,-1.0352 -4.48,-1.6406 -1.543,-0.6836 -3.035,-1.4649 -4.473,-2.3047 l -0.801,3.9844 h -4.394 v -40 h 5.754 v 31.8359 c 1.277,0.7422 2.605,1.4258 3.992,1.9922 1.172,0.5469 2.48,1.0351 3.926,1.4648 1.445,0.4297 2.851,0.625 4.238,0.625 1.328,0 2.402,-0.1758 3.203,-0.5469 0.801,-0.3906 1.426,-0.9179 1.875,-1.621 0.449,-0.6836 0.762,-1.543 0.918,-2.5586 0.168,-1.0157 0.242,-2.168 0.242,-3.4375 V 16.7188 Z m 40.965,0 v 60.8007 h -5.762 v -20 l 0.391,-4.707 c -0.899,0.8398 -1.946,1.6211 -3.118,2.3047 -1.023,0.6055 -2.234,1.1328 -3.64,1.6016 -1.414,0.4882 -3.028,0.7226 -4.844,0.7226 -1.543,0 -3.113,-0.3906 -4.707,-1.1523 -1.602,-0.7813 -3.066,-2.0118 -4.363,-3.7305 -1.321,-1.6992 -2.395,-3.9063 -3.243,-6.6406 -0.863,-2.7149 -1.281,-6.0352 -1.281,-10 0,-6.9141 1.145,-11.9922 3.438,-15.1563 2.297,-3.164 5.527,-4.7656 9.687,-4.7656 1.328,0 2.696,0.2539 4.121,0.7227 1.407,0.4882 2.727,1.0156 3.953,1.6015 1.379,0.7031 2.766,1.5039 4.165,2.4024 l 0.796,-4.0039 z m -5.762,8.2421 c -1.289,-0.7421 -2.559,-1.4062 -3.848,-1.9921 -1.062,-0.5274 -2.218,-0.9961 -3.437,-1.4063 -1.231,-0.3906 -2.324,-0.6055 -3.281,-0.6055 -1.543,0 -2.852,0.3711 -3.918,1.1328 -1.075,0.7422 -1.922,1.7969 -2.567,3.2032 -0.637,1.3867 -1.101,3.0273 -1.387,4.9609 -0.312,1.9141 -0.449,4.0625 -0.449,6.4649 0,4.8632 0.813,8.6914 2.442,11.5234 1.621,2.832 3.718,4.2383 6.281,4.2383 1.695,0 3.203,-0.2344 4.48,-0.6836 1.282,-0.4492 2.344,-0.9571 3.203,-1.543 0.957,-0.6445 1.778,-1.4062 2.481,-2.2461 z m 43.281,47.7735 c -0.801,-3.3789 -1.523,-6.5625 -2.168,-9.6094 -0.273,-1.2891 -0.547,-2.5977 -0.84,-3.9648 -0.293,-1.3477 -0.547,-2.6758 -0.761,-3.9649 -0.215,-1.2695 -0.391,-2.4609 -0.555,-3.5937 -0.168,-1.1133 -0.266,-2.0703 -0.324,-2.8711 l -2.157,-32.0117 h 6.317 l 1.445,32.0117 c 0.051,1.1718 0.215,2.832 0.52,4.9609 0.281,2.1289 0.593,4.2383 0.918,6.3086 0.371,2.4609 0.8,5.0391 1.277,7.7734 l 12.402,-51.0546 h 7.207 l 12.395,51.0546 c 0.477,-2.7734 0.894,-5.3906 1.277,-7.8515 0.325,-2.0703 0.606,-4.1797 0.879,-6.3086 0.266,-2.1289 0.449,-3.7695 0.567,-4.8828 l 1.433,-32.0117 h 6.567 l -2.161,32.0117 c -0.058,0.8008 -0.168,1.7578 -0.324,2.8711 -0.164,1.1328 -0.359,2.3242 -0.594,3.5937 -0.246,1.2891 -0.515,2.6172 -0.8,3.9649 -0.313,1.3671 -0.586,2.6757 -0.84,3.9648 -0.645,3.0469 -1.367,6.2305 -2.168,9.6094 h -7.918 L 705.242,23.8477 693.484,72.7344 Z m 64.07,-16.0156 h -5.75 v -40 h 5.75 z m -6.082,9.375 c 0.911,-0.918 2.032,-1.3672 3.36,-1.3672 1.34,0 2.461,0.4492 3.359,1.3672 0.906,0.8984 1.367,2.0117 1.367,3.3593 0,1.3282 -0.461,2.4414 -1.367,3.3594 -0.898,0.8984 -2.019,1.3477 -3.359,1.3477 -1.328,0 -2.449,-0.4493 -3.36,-1.3477 -0.898,-0.918 -1.347,-2.0312 -1.347,-3.3594 0,-1.3476 0.449,-2.4609 1.347,-3.3593 m 23.848,-19.004 c 0.527,1.3086 1.223,2.3829 2.078,3.2422 0.852,0.8399 1.821,1.4649 2.922,1.875 1.094,0.3907 2.168,0.6055 3.242,0.6055 1.809,0 3.379,-0.2539 4.715,-0.7617 1.328,-0.5078 2.453,-1.0547 3.36,-1.6406 1.007,-0.7032 1.886,-1.5039 2.648,-2.4024 v -5.6055 c 0,-3.5742 -0.969,-6.2304 -2.891,-7.9492 -1.914,-1.7383 -4.265,-2.6172 -7.031,-2.6172 -2.781,0 -5.117,0.8789 -7.012,2.6172 -1.894,1.7188 -2.832,4.375 -2.832,7.9492 0,1.8165 0.254,3.379 0.801,4.6875 m 1.445,-31.0937 c 0.313,-0.0391 0.672,-0.0781 1.075,-0.1172 0.402,-0.0195 0.839,-0.0391 1.32,-0.0391 h 10.074 c 1.125,0 2.18,-0.0585 3.203,-0.1953 1.008,-0.1367 1.887,-0.3711 2.641,-0.7422 0.738,-0.371 1.336,-0.8984 1.805,-1.6015 0.449,-0.6836 0.671,-1.582 0.671,-2.6953 0,-1.11331 -0.339,-2.08987 -0.996,-2.91019 -0.671,-0.82031 -1.589,-1.48437 -2.761,-2.01172 -1.172,-0.54687 -2.547,-0.9375 -4.121,-1.1914 -1.582,-0.27344 -3.262,-0.41016 -5.079,-0.41016 -1.816,0 -3.476,0.11719 -5,0.33203 -1.523,0.19532 -2.832,0.54688 -3.925,1.01563 -1.094,0.48828 -1.946,1.11328 -2.559,1.875 -0.613,0.76172 -0.918,1.73828 -0.918,2.89061 0,0.918 0.188,1.7383 0.567,2.5 0.371,0.7813 0.761,1.4258 1.191,1.9531 0.539,0.586 1.125,1.1133 1.766,1.6016 0.324,-0.1172 0.656,-0.1953 1.046,-0.2539 M 762.727,2.40234 C 765.41,0.800781 769.824,0 775.969,0 c 6.179,0 10.886,1.03516 14.109,3.08594 3.223,2.05078 4.844,4.76562 4.844,8.12496 0,3.3008 -1.035,5.7032 -3.113,7.1875 -2.082,1.5039 -5.149,2.2461 -9.211,2.2461 h -10 c -2.071,0 -3.543,0.3125 -4.395,0.9571 -0.859,0.6445 -1.277,1.4843 -1.277,2.5586 0,2.1875 1.941,3.2812 5.84,3.2812 h 3.523 c 2.07,0 4.043,0.3125 5.918,0.918 1.856,0.625 3.496,1.5625 4.922,2.8125 1.406,1.25 2.539,2.8515 3.398,4.7851 0.84,1.9532 1.282,4.2578 1.282,6.9336 v 13.8282 h -4.329 l -0.8,-3.9844 c -0.899,0.8398 -1.973,1.6211 -3.196,2.3047 -1.074,0.6054 -2.351,1.1328 -3.836,1.6406 -1.503,0.5078 -3.203,0.7617 -5.117,0.7617 -1.601,0 -3.222,-0.3125 -4.843,-0.918 -1.629,-0.6054 -3.106,-1.5625 -4.407,-2.832 -1.304,-1.2891 -2.39,-2.8906 -3.23,-4.8437 -0.86,-1.9532 -1.289,-4.2383 -1.289,-6.836 0,-2.3633 0.332,-4.2773 0.996,-5.8008 0.664,-1.5234 1.426,-2.7343 2.285,-3.6523 0.957,-1.0547 2.078,-1.875 3.359,-2.4805 -1.113,-0.2148 -2.109,-0.6054 -2.961,-1.1914 -0.75,-0.4883 -1.433,-1.1914 -2.039,-2.0898 -0.625,-0.918 -0.918,-2.0899 -0.918,-3.5352 0,-0.9179 0.137,-1.6992 0.403,-2.3633 0.261,-0.664 0.554,-1.2304 0.879,-1.6601 0.371,-0.5274 0.82,-0.9375 1.355,-1.1914 -1.016,-0.5469 -1.914,-1.2305 -2.715,-2.0899 -0.703,-0.7226 -1.328,-1.6406 -1.875,-2.6953 -0.566,-1.0742 -0.84,-2.3047 -0.84,-3.67186 0,-3.20312 1.329,-5.58593 4.036,-7.1875 m 60.671,55.03906 c -1.867,0.1172 -3.652,-0.0781 -5.351,-0.6055 -1.719,-0.5078 -3.262,-1.0351 -4.649,-1.6406 -1.589,-0.6836 -3.117,-1.5039 -4.55,-2.4609 l -0.801,3.9844 h -4.402 v -40 h 5.757 v 31.7578 c 1.438,0.8007 2.934,1.5039 4.485,2.0898 1.328,0.5274 2.812,0.9766 4.472,1.3281 1.661,0.3321 3.34,0.4297 5.039,0.2735 z M 832.93,50 c 1.601,0.4883 3.191,0.918 4.797,1.2891 1.375,0.3125 2.878,0.625 4.48,0.9179 1.602,0.293 3.086,0.4297 4.473,0.4297 2.929,0 4.922,-0.5078 5.965,-1.5625 1.046,-1.0547 1.554,-2.9297 1.554,-5.6836 v -4.6679 h -9.433 c -2.032,0 -3.907,-0.293 -5.645,-0.8789 -1.738,-0.586 -3.223,-1.4258 -4.433,-2.5196 -1.231,-1.0937 -2.188,-2.4414 -2.879,-4.0429 -0.704,-1.6016 -1.047,-3.3985 -1.047,-5.4297 0,-1.6016 0.222,-3.125 0.683,-4.5703 0.45,-1.4454 1.133,-2.6954 2.078,-3.75 0.93,-1.0743 2.122,-1.9336 3.567,-2.5586 1.433,-0.6446 3.164,-0.9766 5.195,-0.9766 1.375,0 2.793,0.2539 4.238,0.7227 1.446,0.4882 2.774,1.0156 4.004,1.6015 1.375,0.7031 2.793,1.5039 4.239,2.4024 l 0.8,-4.0039 h 4.395 v 30.0781 c 0,2.0898 -0.234,3.8086 -0.723,5.1758 -0.468,1.3476 -1.211,2.4414 -2.187,3.2226 -0.996,0.8008 -2.246,1.3867 -3.77,1.7383 -1.523,0.332 -3.32,0.5078 -5.39,0.5078 -1.993,0 -3.868,-0.1172 -5.645,-0.3906 -1.797,-0.2735 -3.379,-0.5274 -4.766,-0.8008 -1.66,-0.3711 -3.171,-0.7617 -4.55,-1.1914 z m 6.113,-15.8008 c 1.68,1.3086 3.809,1.9727 6.367,1.9727 h 8.789 V 25.0391 c -1.269,-0.8008 -2.558,-1.4844 -3.828,-2.0703 -1.074,-0.5274 -2.246,-0.9961 -3.523,-1.4063 -1.282,-0.3906 -2.461,-0.6055 -3.528,-0.6055 -2.187,0 -3.867,0.6836 -5.039,2.0118 -1.172,1.3281 -1.758,3.125 -1.758,5.3515 0,2.6172 0.84,4.5703 2.52,5.8789 m 53.398,-12.7539 c -0.429,-0.1172 -0.886,-0.1953 -1.367,-0.2344 -0.801,-0.1562 -1.699,-0.2539 -2.715,-0.2539 -1.543,0 -2.785,0.1953 -3.73,0.5664 -0.918,0.3711 -1.641,0.9375 -2.109,1.6797 -0.489,0.7422 -0.801,1.7188 -0.965,2.8907 -0.16,1.1718 -0.246,2.5781 -0.246,4.1796 v 21.6602 h 9.921 v 4.7852 h -9.921 v 16.0156 h -5.75 V 56.7188 h -6.641 v -4.7852 h 6.641 V 29.3945 c 0,-4.5312 0.879,-7.9101 2.632,-10.0976 1.77,-2.1875 4.836,-3.3008 9.204,-3.3008 0.593,0 1.179,0.0195 1.765,0.0586 0.586,0.0195 1.113,0.0781 1.594,0.1953 0.594,0.0391 1.148,0.1172 1.687,0.2344 z m 13.829,35.2735 h -5.762 v -40 h 5.762 z m -6.075,9.375 c 0.91,-0.918 2.032,-1.3672 3.36,-1.3672 1.34,0 2.461,0.4492 3.359,1.3672 0.906,0.8984 1.367,2.0117 1.367,3.3593 0,1.3282 -0.461,2.4414 -1.367,3.3594 -0.898,0.8984 -2.019,1.3477 -3.359,1.3477 -1.328,0 -2.45,-0.4493 -3.36,-1.3477 -0.898,-0.918 -1.367,-2.0312 -1.367,-3.3594 0,-1.3476 0.469,-2.4609 1.367,-3.3593 M 925.84,48.4766 c 2.051,2.7734 4.668,4.1601 7.871,4.1601 1.387,0 2.754,-0.2344 4.082,-0.7422 1.328,-0.5273 2.512,-1.4062 3.516,-2.6562 1.015,-1.25 1.836,-2.8906 2.441,-4.9219 0.613,-2.0117 0.918,-4.5508 0.918,-7.5976 0,-2.5 -0.273,-4.7461 -0.84,-6.7188 -0.547,-1.9727 -1.328,-3.6328 -2.312,-5 -0.989,-1.3477 -2.153,-2.4023 -3.489,-3.1055 -1.328,-0.7226 -2.761,-1.0937 -4.316,-1.0937 -1.484,0 -2.91,0.2539 -4.238,0.7617 -1.328,0.5078 -2.493,1.3867 -3.477,2.6367 -0.976,1.25 -1.777,2.8906 -2.363,4.9219 -0.586,2.0312 -0.879,4.5703 -0.879,7.5977 0,5.0781 1.035,9.0039 3.086,11.7578 m -4.492,-27.5977 c 3.015,-3.2422 7.136,-4.8828 12.363,-4.8828 2.461,0 4.727,0.4883 6.797,1.4062 2.09,0.9375 3.879,2.3243 5.371,4.1602 1.484,1.8359 2.644,4.1016 3.476,6.7578 0.833,2.6758 1.243,5.7422 1.243,9.1992 0,6.7774 -1.496,11.7969 -4.485,15.0391 -2.988,3.2617 -7.121,4.8828 -12.402,4.8828 -2.559,0 -4.863,-0.4687 -6.914,-1.4453 -2.051,-0.957 -3.828,-2.3438 -5.32,-4.1992 -1.497,-1.836 -2.649,-4.0821 -3.45,-6.7578 -0.793,-2.6563 -1.191,-5.7032 -1.191,-9.1211 0,-6.7578 1.504,-11.7774 4.512,-15.0391 m 69.726,-4.1601 V 46.25 c 0,1.2695 -0.136,2.5586 -0.398,3.8672 -0.266,1.3086 -0.793,2.5195 -1.555,3.6133 -0.781,1.0937 -1.875,1.9922 -3.281,2.6758 -1.414,0.6835 -3.281,1.0351 -5.567,1.0351 -1.652,0 -3.308,-0.2539 -4.96,-0.7617 -1.653,-0.5078 -3.145,-1.0352 -4.473,-1.6406 -1.563,-0.6836 -3.047,-1.4649 -4.492,-2.3047 l -0.789,3.9844 h -4.407 v -40 h 5.762 v 31.8359 c 1.277,0.7422 2.617,1.4258 4.004,1.9922 1.172,0.5469 2.48,1.0351 3.918,1.4648 1.434,0.4297 2.852,0.625 4.234,0.625 1.34,0 2.407,-0.1758 3.203,-0.5469 0.801,-0.3906 1.438,-0.9179 1.887,-1.621 0.449,-0.6836 0.75,-1.543 0.918,-2.5586 0.156,-1.0157 0.235,-2.168 0.235,-3.4375 V 16.7188 h 5.761"
         style="fill:#ed192e;fill-opacity:1;fill-rule:nonzero;stroke:none"
         id="path40"
         inkscape:connector-curvature="0" /><path
         d="m 148.93,151.211 c -1.231,3.457 -2.879,6.191 -4.961,8.203 -2.078,1.992 -4.512,3.379 -7.281,4.16 -2.766,0.762 -5.708,1.153 -8.797,1.153 H 113.73 V 108.73 h 14.161 c 3.089,0 6.031,0.547 8.797,1.68 2.769,1.113 5.203,2.852 7.281,5.195 2.082,2.344 3.73,5.352 4.961,9.043 1.23,3.672 1.84,8.086 1.84,13.204 0,5.429 -0.61,9.882 -1.84,13.359 m -21.68,8.242 c 2.453,0 4.73,-0.332 6.844,-1.015 2.105,-0.665 3.929,-1.836 5.476,-3.516 1.547,-1.68 2.758,-4.004 3.637,-6.953 0.887,-2.969 1.324,-6.719 1.324,-11.25 0,-3.828 -0.437,-7.168 -1.324,-10 -0.879,-2.832 -2.09,-5.176 -3.637,-7.071 -1.547,-1.894 -3.359,-3.32 -5.437,-4.238 -2.082,-0.937 -4.352,-1.406 -6.805,-1.406 h -7.519 v 45.449 z m 40.641,-10.723 h -5.762 v -40 h 5.762 z m -6.078,9.356 c 0.906,-0.918 2.031,-1.367 3.359,-1.367 1.328,0 2.449,0.449 3.359,1.367 0.907,0.918 1.364,2.031 1.364,3.359 0,1.328 -0.457,2.442 -1.364,3.36 -0.91,0.918 -2.031,1.367 -3.359,1.367 -1.328,0 -2.453,-0.449 -3.359,-1.367 -0.915,-0.918 -1.364,-2.032 -1.364,-3.36 0,-1.328 0.449,-2.441 1.364,-3.359 m 45.199,-42.402 c -1.344,-0.528 -2.699,-0.996 -4.082,-1.368 -1.231,-0.312 -2.547,-0.605 -3.961,-0.878 -1.418,-0.254 -2.817,-0.391 -4.199,-0.391 -1.918,0 -3.52,0.312 -4.797,0.957 -1.282,0.625 -2.321,1.504 -3.121,2.617 -0.801,1.113 -1.391,2.461 -1.758,4.024 -0.383,1.562 -0.645,3.261 -0.801,5.117 h 7.836 c 1.859,0 3.73,0.156 5.601,0.488 1.86,0.313 3.532,0.938 5,1.895 1.458,0.918 2.661,2.207 3.598,3.847 0.934,1.621 1.402,3.75 1.402,6.367 0,3.711 -1.121,6.485 -3.359,8.36 -2.242,1.875 -5.277,2.812 -9.121,2.812 -2.461,0 -4.707,-0.449 -6.758,-1.328 -2.062,-0.879 -3.836,-2.226 -5.324,-4.043 -1.496,-1.797 -2.656,-4.062 -3.477,-6.758 -0.828,-2.695 -1.238,-5.82 -1.238,-9.394 0,-6.25 1.238,-11.113 3.715,-14.649 2.48,-3.515 6.332,-5.273 11.562,-5.273 1.813,0 3.52,0.117 5.122,0.352 1.597,0.253 3.007,0.527 4.238,0.839 1.383,0.371 2.691,0.801 3.922,1.289 z m -22.801,14.882 c 0.051,1.934 0.328,3.75 0.84,5.469 0.5,1.719 1.211,3.223 2.117,4.512 0.902,1.269 2.043,2.305 3.402,3.047 1.36,0.742 2.922,1.133 4.68,1.133 2.184,0 3.852,-0.586 5,-1.778 1.141,-1.172 1.723,-2.832 1.723,-4.98 0,-2.246 -0.801,-4.063 -2.403,-5.391 -1.601,-1.348 -4.082,-2.012 -7.441,-2.012 z m 74.559,7.793 c 2.613,0.899 4.73,2.422 6.363,4.551 1.613,2.129 2.433,4.922 2.433,8.399 0,2.714 -0.496,4.941 -1.476,6.66 -0.988,1.738 -2.301,3.105 -3.922,4.121 -1.625,0.996 -3.469,1.699 -5.52,2.07 -2.058,0.371 -4.148,0.567 -6.277,0.567 H 238.289 V 108.73 h 12.883 c 2.558,0 4.98,0.313 7.281,0.918 2.289,0.625 4.285,1.563 5.996,2.832 1.703,1.29 3.063,2.911 4.082,4.903 1.008,1.953 1.52,4.316 1.52,7.051 0,2.382 -0.321,4.394 -0.957,6.035 -0.641,1.621 -1.481,2.969 -2.524,4.004 -1.039,1.035 -2.238,1.855 -3.601,2.441 -1.36,0.586 -2.758,1.035 -4.199,1.367 z m -8.961,21.407 c 1.543,0 3.023,-0.157 4.437,-0.489 1.414,-0.312 2.664,-0.859 3.766,-1.64 1.09,-0.762 1.961,-1.778 2.597,-3.028 0.641,-1.25 0.961,-2.851 0.961,-4.765 0,-1.602 -0.32,-3.008 -0.961,-4.239 -0.636,-1.23 -1.507,-2.246 -2.597,-3.046 -1.102,-0.801 -2.352,-1.387 -3.766,-1.797 -1.414,-0.391 -2.894,-0.606 -4.437,-0.606 h -5.438 v 19.61 z m 0.722,-24.395 c 1.864,0 3.61,-0.176 5.239,-0.488 1.625,-0.313 3.039,-0.879 4.242,-1.68 1.199,-0.801 2.136,-1.914 2.84,-3.301 0.687,-1.386 1.039,-3.164 1.039,-5.293 0,-1.816 -0.352,-3.418 -1.039,-4.785 -0.704,-1.367 -1.641,-2.5 -2.84,-3.418 -1.203,-0.898 -2.617,-1.582 -4.242,-2.051 -1.629,-0.449 -3.375,-0.664 -5.239,-0.664 h -6.16 v 21.68 z m 56.957,-19.687 c -1.336,-0.528 -2.699,-0.996 -4.082,-1.368 -1.222,-0.312 -2.547,-0.605 -3.957,-0.878 -1.418,-0.254 -2.816,-0.391 -4.199,-0.391 -1.922,0 -3.52,0.312 -4.801,0.957 -1.277,0.625 -2.32,1.504 -3.121,2.617 -0.801,1.113 -1.387,2.461 -1.758,4.024 -0.379,1.562 -0.636,3.261 -0.8,5.117 h 7.843 c 1.86,0 3.731,0.156 5.594,0.488 1.859,0.313 3.531,0.938 5,1.895 1.461,0.918 2.66,2.207 3.606,3.847 0.925,1.621 1.394,3.75 1.394,6.367 0,3.711 -1.117,6.485 -3.359,8.36 -2.235,1.875 -5.278,2.812 -9.118,2.812 -2.46,0 -4.71,-0.449 -6.761,-1.328 -2.059,-0.879 -3.828,-2.226 -5.317,-4.043 -1.504,-1.797 -2.66,-4.062 -3.48,-6.758 -0.832,-2.695 -1.242,-5.82 -1.242,-9.394 0,-6.25 1.242,-11.113 3.722,-14.649 2.481,-3.515 6.328,-5.273 11.559,-5.273 1.809,0 3.519,0.117 5.121,0.352 1.602,0.253 3.008,0.527 4.238,0.839 1.379,0.371 2.692,0.801 3.918,1.289 z m -22.797,14.882 c 0.051,1.934 0.329,3.75 0.84,5.469 0.5,1.719 1.207,3.223 2.121,4.512 0.899,1.269 2.039,2.305 3.399,3.047 1.359,0.742 2.918,1.133 4.679,1.133 2.18,0 3.848,-0.586 5,-1.778 1.141,-1.172 1.719,-2.832 1.719,-4.98 0,-2.246 -0.801,-4.063 -2.398,-5.391 -1.598,-1.348 -4.078,-2.012 -7.438,-2.012 z m 35.52,11.446 c 1.602,0.468 3.195,0.898 4.801,1.269 1.379,0.332 2.879,0.625 4.48,0.918 1.598,0.293 3.086,0.449 4.477,0.449 2.929,0 4.922,-0.527 5.965,-1.582 1.039,-1.035 1.554,-2.929 1.554,-5.664 v -4.668 h -9.437 c -2.031,0 -3.91,-0.293 -5.641,-0.898 -1.742,-0.586 -3.222,-1.426 -4.437,-2.52 -1.231,-1.074 -2.192,-2.421 -2.879,-4.023 -0.703,-1.602 -1.043,-3.418 -1.043,-5.449 0,-1.602 0.219,-3.125 0.679,-4.551 0.45,-1.445 1.137,-2.695 2.083,-3.77 0.925,-1.074 2.117,-1.914 3.558,-2.558 1.442,-0.645 3.168,-0.957 5.199,-0.957 1.383,0 2.797,0.234 4.239,0.722 1.441,0.469 2.773,0.997 4.004,1.602 1.375,0.684 2.796,1.484 4.238,2.402 l 0.801,-4.004 h 4.398 v 30.079 c 0,2.07 -0.238,3.789 -0.723,5.156 -0.476,1.367 -1.214,2.441 -2.195,3.242 -0.992,0.801 -2.242,1.367 -3.762,1.719 -1.515,0.351 -3.32,0.527 -5.398,0.527 -1.984,0 -3.863,-0.137 -5.641,-0.41 -1.793,-0.254 -3.379,-0.527 -4.761,-0.781 -1.661,-0.371 -3.176,-0.762 -4.559,-1.192 z m 6.117,-15.801 c 1.684,1.309 3.805,1.953 6.363,1.953 h 8.797 v -11.113 c -1.277,-0.801 -2.558,-1.504 -3.836,-2.09 -1.07,-0.527 -2.242,-0.996 -3.519,-1.387 -1.281,-0.41 -2.461,-0.605 -3.524,-0.605 -2.191,0 -3.871,0.664 -5.039,1.992 -1.179,1.328 -1.761,3.125 -1.761,5.371 0,2.598 0.839,4.57 2.519,5.879 m 33.883,22.519 v -29.531 c 0,-1.269 0.133,-2.558 0.398,-3.867 0.258,-1.309 0.782,-2.519 1.559,-3.613 0.77,-1.074 1.859,-1.992 3.281,-2.676 1.41,-0.684 3.262,-1.035 5.563,-1.035 1.648,0 3.301,0.234 4.961,0.722 1.648,0.469 3.136,0.997 4.476,1.602 1.543,0.684 3.043,1.484 4.485,2.402 l 0.796,-4.004 h 4.403 v 40 h -5.762 v -31.835 c -1.281,-0.801 -2.625,-1.504 -4,-2.09 -1.183,-0.528 -2.48,-0.996 -3.922,-1.407 -1.437,-0.39 -2.859,-0.585 -4.238,-0.585 -1.344,0 -2.402,0.175 -3.203,0.546 -0.801,0.391 -1.43,0.918 -1.879,1.621 -0.457,0.684 -0.758,1.543 -0.918,2.559 -0.16,1.016 -0.238,2.168 -0.238,3.438 v 27.753 z m 62.719,21.036 c -0.535,0.058 -1.098,0.136 -1.68,0.234 -0.48,0.059 -1.02,0.117 -1.602,0.156 -0.585,0.059 -1.175,0.098 -1.757,0.098 -4.379,0 -7.442,-1.094 -9.2,-3.281 -1.761,-2.207 -2.64,-5.567 -2.64,-10.078 v -8.165 h -6.641 v -4.804 h 6.641 V 108.73 h 5.762 v 35.196 h 9.917 v 4.804 h -9.917 v 7.266 c 0,1.602 0.078,3.008 0.238,4.16 0.16,1.172 0.476,2.149 0.961,2.891 0.48,0.742 1.176,1.308 2.121,1.68 0.926,0.371 2.168,0.566 3.719,0.566 0.421,0 0.878,-0.039 1.359,-0.098 0.477,-0.039 0.934,-0.097 1.359,-0.156 0.481,-0.098 0.93,-0.176 1.36,-0.234 z m 25.761,-56.328 c -0.429,-0.098 -0.878,-0.176 -1.363,-0.235 -0.801,-0.156 -1.707,-0.234 -2.719,-0.234 -1.546,0 -2.789,0.195 -3.718,0.547 -0.942,0.39 -1.645,0.957 -2.121,1.679 -0.477,0.762 -0.801,1.739 -0.957,2.891 -0.161,1.191 -0.247,2.578 -0.247,4.18 v 21.66 h 9.922 v 4.804 h -9.922 v 15.997 h -5.753 V 148.73 h -6.641 v -4.804 h 6.641 v -22.539 c 0,-4.532 0.878,-7.91 2.636,-10.098 1.762,-2.187 4.824,-3.281 9.203,-3.281 0.578,0 1.168,0 1.758,0.039 0.582,0.019 1.117,0.098 1.602,0.195 0.578,0.059 1.136,0.137 1.679,0.235 z m 27.829,36.015 c -1.864,0.098 -3.649,-0.098 -5.36,-0.605 -1.703,-0.508 -3.25,-1.055 -4.64,-1.641 -1.598,-0.684 -3.122,-1.523 -4.563,-2.48 l -0.797,4.003 h -4.398 v -40 h 5.758 v 31.758 c 1.441,0.801 2.941,1.485 4.484,2.071 1.336,0.527 2.824,0.976 4.476,1.328 1.661,0.351 3.34,0.429 5.04,0.273 z m 9.519,-7.441 c 1.602,0.468 3.199,0.898 4.801,1.269 1.39,0.332 2.883,0.625 4.48,0.918 1.598,0.293 3.098,0.449 4.481,0.449 2.937,0 4.922,-0.527 5.961,-1.582 1.039,-1.035 1.558,-2.929 1.558,-5.664 v -4.668 h -9.437 c -2.024,0 -3.903,-0.293 -5.641,-0.898 -1.73,-0.586 -3.215,-1.426 -4.437,-2.52 -1.223,-1.074 -2.184,-2.421 -2.883,-4.023 -0.692,-1.602 -1.039,-3.418 -1.039,-5.449 0,-1.602 0.226,-3.125 0.68,-4.551 0.457,-1.445 1.144,-2.695 2.078,-3.77 0.937,-1.074 2.121,-1.914 3.558,-2.558 1.442,-0.645 3.18,-0.957 5.199,-0.957 1.395,0 2.801,0.234 4.243,0.722 1.437,0.469 2.781,0.997 4.004,1.602 1.382,0.684 2.796,1.484 4.238,2.402 l 0.801,-4.004 h 4.402 v 30.079 c 0,2.07 -0.242,3.789 -0.723,5.156 -0.488,1.367 -1.211,2.441 -2.207,3.242 -0.976,0.801 -2.234,1.367 -3.754,1.719 -1.519,0.351 -3.32,0.527 -5.402,0.527 -1.973,0 -3.852,-0.137 -5.641,-0.41 -1.781,-0.254 -3.367,-0.527 -4.757,-0.781 -1.653,-0.371 -3.168,-0.762 -4.563,-1.192 z m 6.117,-15.801 c 1.688,1.309 3.805,1.953 6.364,1.953 h 8.8 v -11.113 c -1.281,-0.801 -2.558,-1.504 -3.84,-2.09 -1.058,-0.527 -2.242,-0.996 -3.519,-1.387 -1.277,-0.41 -2.449,-0.605 -3.52,-0.605 -2.179,0 -3.863,0.664 -5.039,1.992 -1.172,1.328 -1.761,3.125 -1.761,5.371 0,2.598 0.839,4.57 2.515,5.879 m 38.528,12.871 c 0.539,1.309 1.23,2.402 2.07,3.242 0.859,0.86 1.836,1.485 2.93,1.875 1.093,0.41 2.175,0.606 3.242,0.606 1.816,0 3.379,-0.254 4.719,-0.762 1.335,-0.508 2.449,-1.055 3.359,-1.641 1.023,-0.683 1.902,-1.484 2.637,-2.402 v -5.586 c 0,-3.574 -0.957,-6.23 -2.883,-7.969 -1.914,-1.738 -4.258,-2.597 -7.031,-2.597 -2.774,0 -5.11,0.859 -7.012,2.597 -1.887,1.739 -2.832,4.395 -2.832,7.969 0,1.797 0.273,3.359 0.801,4.668 m 1.433,-31.074 c 0.324,-0.059 0.688,-0.098 1.086,-0.117 0.391,-0.039 0.84,-0.039 1.317,-0.039 h 10.082 c 1.121,0 2.195,-0.079 3.203,-0.215 1.011,-0.117 1.902,-0.371 2.633,-0.742 0.753,-0.372 1.359,-0.899 1.808,-1.582 0.449,-0.704 0.676,-1.602 0.676,-2.715 0,-1.114 -0.324,-2.071 -1.008,-2.891 -0.652,-0.8203 -1.57,-1.5039 -2.754,-2.0312 -1.172,-0.5274 -2.539,-0.9375 -4.121,-1.1914 -1.562,-0.2735 -3.262,-0.3906 -5.078,-0.3906 -1.816,0 -3.477,0.0976 -5,0.3125 -1.523,0.2148 -2.82,0.5664 -3.926,1.0351 -1.086,0.4688 -1.933,1.0938 -2.558,1.8555 -0.606,0.7811 -0.918,1.7381 -0.918,2.9101 0,0.898 0.195,1.719 0.566,2.5 0.371,0.762 0.781,1.426 1.191,1.953 0.547,0.567 1.122,1.113 1.758,1.582 0.332,-0.097 0.672,-0.195 1.043,-0.234 M 526.16,94.3945 c 2.707,-1.582 7.11,-2.3828 13.235,-2.3828 6.191,0 10.91,1.0156 14.121,3.0664 3.23,2.0508 4.843,4.7657 4.843,8.1249 0,3.32 -1.035,5.703 -3.125,7.207 -2.07,1.485 -5.136,2.227 -9.199,2.227 h -10 c -2.07,0 -3.535,0.332 -4.394,0.976 -0.848,0.625 -1.282,1.485 -1.282,2.559 0,2.187 1.946,3.281 5.84,3.281 h 3.528 c 2.07,0 4.05,0.293 5.918,0.918 1.867,0.606 3.503,1.543 4.921,2.793 1.414,1.25 2.539,2.852 3.399,4.805 0.859,1.953 1.269,4.238 1.269,6.914 v 13.847 h -4.316 l -0.801,-4.003 c -0.898,0.839 -1.972,1.621 -3.203,2.324 -1.055,0.586 -2.336,1.133 -3.828,1.64 -1.492,0.508 -3.203,0.762 -5.125,0.762 -1.594,0 -3.215,-0.312 -4.836,-0.937 -1.621,-0.606 -3.098,-1.543 -4.402,-2.832 -1.301,-1.27 -2.375,-2.891 -3.243,-4.844 -0.851,-1.953 -1.281,-4.219 -1.281,-6.836 0,-2.344 0.344,-4.277 0.996,-5.801 0.672,-1.523 1.438,-2.734 2.285,-3.633 0.958,-1.074 2.083,-1.894 3.36,-2.48 -1.113,-0.235 -2.102,-0.625 -2.957,-1.211 -0.742,-0.488 -1.418,-1.172 -2.043,-2.09 -0.606,-0.898 -0.918,-2.09 -0.918,-3.516 0,-0.937 0.137,-1.699 0.398,-2.382 0.266,-0.664 0.559,-1.211 0.879,-1.641 0.383,-0.527 0.832,-0.937 1.36,-1.211 -1.004,-0.527 -1.914,-1.23 -2.715,-2.07 -0.696,-0.742 -1.328,-1.66 -1.883,-2.715 -0.559,-1.074 -0.844,-2.285 -0.844,-3.672 0,-3.1836 1.36,-5.5859 4.043,-7.1875 m 60.207,19.0435 c -0.429,-0.098 -0.887,-0.176 -1.367,-0.235 -0.801,-0.156 -1.699,-0.234 -2.715,-0.234 -1.543,0 -2.781,0.195 -3.73,0.547 -0.918,0.39 -1.641,0.957 -2.11,1.679 -0.488,0.762 -0.8,1.739 -0.965,2.891 -0.16,1.191 -0.246,2.578 -0.246,4.18 v 21.66 h 9.922 v 4.804 h -9.922 v 15.997 H 569.48 V 148.73 h -6.636 v -4.804 h 6.636 v -22.539 c 0,-4.532 0.879,-7.91 2.637,-10.098 1.77,-2.187 4.836,-3.281 9.199,-3.281 0.598,0 1.184,0 1.77,0.039 0.586,0.019 1.113,0.098 1.602,0.195 0.585,0.059 1.14,0.137 1.679,0.235 z m 33.828,2.246 c -1.328,-0.528 -2.683,-0.996 -4.082,-1.368 -1.218,-0.312 -2.539,-0.605 -3.957,-0.878 -1.402,-0.254 -2.801,-0.391 -4.195,-0.391 -1.926,0 -3.527,0.312 -4.797,0.957 -1.289,0.625 -2.324,1.504 -3.125,2.617 -0.801,1.113 -1.387,2.461 -1.758,4.024 -0.371,1.562 -0.644,3.261 -0.801,5.117 h 7.84 c 1.868,0 3.735,0.156 5.598,0.488 1.875,0.313 3.535,0.938 5,1.895 1.477,0.918 2.676,2.207 3.602,3.847 0.929,1.621 1.398,3.75 1.398,6.367 0,3.711 -1.113,6.485 -3.359,8.36 -2.239,1.875 -5.274,2.812 -9.121,2.812 -2.442,0 -4.708,-0.449 -6.758,-1.328 -2.051,-0.879 -3.828,-2.226 -5.313,-4.043 -1.504,-1.797 -2.656,-4.062 -3.484,-6.758 -0.832,-2.695 -1.242,-5.82 -1.242,-9.394 0,-6.25 1.242,-11.113 3.718,-14.649 2.485,-3.515 6.329,-5.273 11.555,-5.273 1.816,0 3.524,0.117 5.129,0.352 1.602,0.253 3.008,0.527 4.234,0.839 1.399,0.371 2.688,0.801 3.918,1.289 z m -22.793,14.882 c 0.047,1.934 0.332,3.75 0.84,5.469 0.508,1.719 1.211,3.223 2.117,4.512 0.911,1.269 2.043,2.305 3.403,3.047 1.355,0.742 2.918,1.133 4.676,1.133 2.187,0 3.847,-0.586 5,-1.778 1.152,-1.172 1.718,-2.832 1.718,-4.98 0,-2.246 -0.801,-4.063 -2.402,-5.391 -1.594,-1.348 -4.07,-2.012 -7.434,-2.012 z M 678.84,108.73 v 60.801 h -5.754 v -20 l 0.391,-4.726 c -0.911,0.859 -1.954,1.621 -3.118,2.324 -1.004,0.586 -2.234,1.113 -3.64,1.601 -1.406,0.469 -3.028,0.723 -4.844,0.723 -1.543,0 -3.113,-0.39 -4.719,-1.172 -1.59,-0.761 -3.047,-2.011 -4.351,-3.711 -1.321,-1.718 -2.395,-3.925 -3.242,-6.64 -0.852,-2.735 -1.282,-6.055 -1.282,-10 0,-6.934 1.153,-11.992 3.438,-15.157 2.285,-3.183 5.527,-4.765 9.687,-4.765 1.328,0 2.703,0.234 4.121,0.722 1.407,0.469 2.727,0.997 3.953,1.602 1.387,0.684 2.766,1.484 4.165,2.402 l 0.789,-4.004 z m -5.754,8.243 c -1.289,-0.762 -2.559,-1.426 -3.848,-2.012 -1.074,-0.527 -2.207,-0.996 -3.437,-1.387 -1.231,-0.41 -2.324,-0.605 -3.281,-0.605 -1.543,0 -2.852,0.371 -3.926,1.113 -1.067,0.762 -1.914,1.816 -2.559,3.203 -0.637,1.387 -1.101,3.047 -1.394,4.961 -0.286,1.914 -0.442,4.082 -0.442,6.484 0,4.844 0.813,8.692 2.442,11.524 1.629,2.812 3.718,4.238 6.281,4.238 1.707,0 3.191,-0.234 4.48,-0.683 1.282,-0.45 2.344,-0.977 3.203,-1.563 0.958,-0.644 1.79,-1.387 2.481,-2.246 z m 44.875,-1.289 c -1.328,-0.528 -2.688,-0.996 -4.074,-1.368 -1.231,-0.312 -2.559,-0.605 -3.965,-0.878 -1.406,-0.254 -2.813,-0.391 -4.199,-0.391 -1.922,0 -3.516,0.312 -4.805,0.957 -1.277,0.625 -2.324,1.504 -3.113,2.617 -0.801,1.113 -1.399,2.461 -1.77,4.024 -0.371,1.562 -0.637,3.261 -0.801,5.117 h 7.852 c 1.863,0 3.73,0.156 5.598,0.488 1.863,0.313 3.523,0.938 5,1.895 1.472,0.918 2.664,2.207 3.601,3.847 0.918,1.621 1.399,3.75 1.399,6.367 0,3.711 -1.125,6.485 -3.364,8.36 -2.234,1.875 -5.281,2.812 -9.121,2.812 -2.449,0 -4.715,-0.449 -6.765,-1.328 -2.039,-0.879 -3.829,-2.226 -5.313,-4.043 -1.484,-1.797 -2.656,-4.062 -3.476,-6.758 -0.84,-2.695 -1.25,-5.82 -1.25,-9.394 0,-6.25 1.25,-11.113 3.73,-14.649 2.48,-3.515 6.328,-5.273 11.563,-5.273 1.796,0 3.515,0.117 5.117,0.352 1.601,0.253 3.008,0.527 4.238,0.839 1.387,0.371 2.687,0.801 3.918,1.289 z m -22.805,14.882 c 0.059,1.934 0.332,3.75 0.84,5.469 0.508,1.719 1.211,3.223 2.129,4.512 0.898,1.269 2.031,2.305 3.398,3.047 1.36,0.742 2.911,1.133 4.676,1.133 2.192,0 3.852,-0.586 5,-1.778 1.145,-1.172 1.723,-2.832 1.723,-4.98 0,-2.246 -0.805,-4.063 -2.395,-5.391 -1.601,-1.348 -4.082,-2.012 -7.441,-2.012 z m 55.606,17.832 c -1.016,0.157 -2.051,0.332 -3.125,0.489 -0.907,0.117 -1.973,0.234 -3.203,0.351 -1.231,0.137 -2.481,0.215 -3.75,0.215 -2.356,0 -4.368,-0.293 -6.043,-0.84 -1.68,-0.566 -3.047,-1.347 -4.114,-2.343 -1.074,-0.977 -1.855,-2.129 -2.363,-3.438 -0.508,-1.309 -0.762,-2.715 -0.762,-4.199 0,-2.422 0.481,-4.336 1.438,-5.742 0.965,-1.407 2.156,-2.559 3.601,-3.399 1.446,-0.859 3.008,-1.543 4.715,-2.051 1.711,-0.507 3.282,-1.093 4.719,-1.718 1.445,-0.645 2.645,-1.446 3.605,-2.422 0.965,-0.957 1.434,-2.324 1.434,-4.082 0,-0.645 -0.078,-1.328 -0.273,-2.051 -0.196,-0.723 -0.567,-1.387 -1.114,-2.012 -0.566,-0.605 -1.328,-1.113 -2.285,-1.543 -0.957,-0.429 -2.246,-0.644 -3.847,-0.644 -1.329,0 -2.676,0.078 -4.036,0.273 -1.355,0.196 -2.605,0.41 -3.718,0.684 -1.328,0.273 -2.618,0.586 -3.836,0.957 v -5.371 c 1.121,-0.332 2.312,-0.586 3.601,-0.801 1.067,-0.215 2.285,-0.371 3.672,-0.508 1.387,-0.137 2.832,-0.195 4.317,-0.195 2.558,0 4.699,0.332 6.406,0.996 1.711,0.664 3.066,1.543 4.082,2.637 1.008,1.093 1.726,2.324 2.16,3.711 0.43,1.386 0.633,2.753 0.633,4.14 0,2.617 -0.469,4.688 -1.438,6.231 -0.965,1.543 -2.168,2.754 -3.64,3.632 -1.465,0.879 -3.047,1.583 -4.754,2.129 -1.711,0.528 -3.293,1.075 -4.758,1.68 -1.477,0.566 -2.688,1.328 -3.652,2.266 -0.957,0.918 -1.438,2.246 -1.438,3.945 0,1.328 0.539,2.539 1.606,3.633 1.062,1.094 3.093,1.64 6.082,1.64 1.171,0 2.343,-0.078 3.515,-0.234 l 3.281,-0.332 c 1.114,-0.215 2.208,-0.391 3.282,-0.566 z m 57.597,15.918 c -1.328,0.176 -2.675,0.352 -4.004,0.567 -1.113,0.156 -2.343,0.312 -3.671,0.449 -1.329,0.117 -2.559,0.195 -3.68,0.195 -2.668,0 -5.012,-0.371 -7.043,-1.113 -2.031,-0.762 -3.731,-1.777 -5.117,-3.086 -1.387,-1.308 -2.442,-2.832 -3.164,-4.57 -0.723,-1.719 -1.075,-3.574 -1.075,-5.547 0,-3.106 0.586,-5.625 1.758,-7.559 1.172,-1.953 2.625,-3.593 4.356,-4.922 1.738,-1.328 3.613,-2.48 5.644,-3.398 2.032,-0.937 3.907,-1.934 5.633,-2.969 1.731,-1.035 3.195,-2.246 4.367,-3.633 1.172,-1.386 1.758,-3.203 1.758,-5.449 0,-3.027 -0.957,-5.449 -2.844,-7.226 -1.882,-1.797 -4.675,-2.696 -8.355,-2.696 -1.496,0 -2.988,0.118 -4.484,0.332 -1.485,0.196 -2.852,0.45 -4.083,0.723 -1.386,0.313 -2.746,0.684 -4.082,1.113 v -5.605 c 1.29,-0.43 2.618,-0.762 4.004,-1.035 1.231,-0.274 2.559,-0.489 4.004,-0.684 1.446,-0.195 2.93,-0.273 4.473,-0.273 3.047,0 5.684,0.39 7.891,1.152 2.207,0.781 4.043,1.856 5.468,3.242 1.446,1.387 2.5,3.047 3.164,4.961 0.672,1.914 0.996,4.024 0.996,6.328 0,3.028 -0.585,5.508 -1.757,7.383 -1.172,1.895 -2.637,3.477 -4.395,4.727 -1.758,1.25 -3.672,2.324 -5.723,3.242 -2.05,0.918 -3.964,1.894 -5.722,2.969 -1.758,1.054 -3.223,2.324 -4.395,3.789 -1.172,1.465 -1.758,3.379 -1.758,5.722 0,2.559 0.926,4.668 2.793,6.328 1.875,1.641 4.375,2.481 7.52,2.481 1.125,0 2.352,-0.098 3.691,-0.254 1.328,-0.156 2.578,-0.312 3.75,-0.469 1.387,-0.215 2.754,-0.429 4.082,-0.644 z m 39.121,-48.632 c -1.335,-0.528 -2.695,-0.996 -4.082,-1.368 -1.23,-0.312 -2.546,-0.605 -3.964,-0.878 -1.407,-0.254 -2.813,-0.391 -4.2,-0.391 -1.914,0 -3.515,0.312 -4.796,0.957 -1.278,0.625 -2.313,1.504 -3.114,2.617 -0.801,1.113 -1.386,2.461 -1.758,4.024 -0.39,1.562 -0.644,3.261 -0.8,5.117 h 7.832 c 1.855,0 3.73,0.156 5.605,0.488 1.856,0.313 3.527,0.938 5,1.895 1.453,0.918 2.656,2.207 3.594,3.847 0.937,1.621 1.406,3.75 1.406,6.367 0,3.711 -1.125,6.485 -3.359,8.36 -2.246,1.875 -5.281,2.812 -9.121,2.812 -2.461,0 -4.707,-0.449 -6.758,-1.328 -2.07,-0.879 -3.828,-2.226 -5.32,-4.043 -1.504,-1.797 -2.668,-4.062 -3.489,-6.758 -0.82,-2.695 -1.23,-5.82 -1.23,-9.394 0,-6.25 1.23,-11.113 3.711,-14.649 2.48,-3.515 6.328,-5.273 11.562,-5.273 1.817,0 3.516,0.117 5.117,0.352 1.602,0.253 3.008,0.527 4.239,0.839 1.386,0.371 2.695,0.801 3.925,1.289 z m -22.792,14.882 c 0.039,1.934 0.324,3.75 0.839,5.469 0.489,1.719 1.203,3.223 2.11,4.512 0.898,1.269 2.051,2.305 3.398,3.047 1.367,0.742 2.93,1.133 4.688,1.133 2.175,0 3.847,-0.586 5,-1.778 1.132,-1.172 1.718,-2.832 1.718,-4.98 0,-2.246 -0.8,-4.063 -2.402,-5.391 -1.601,-1.348 -4.082,-2.012 -7.441,-2.012 z M 889.48,108.73 v 29.512 c 0,1.289 -0.144,2.578 -0.398,3.887 -0.273,1.309 -0.789,2.5 -1.562,3.594 -0.782,1.093 -1.875,1.992 -3.282,2.675 -1.418,0.704 -3.261,1.055 -5.554,1.055 -1.664,0 -3.313,-0.254 -4.961,-0.762 -1.66,-0.507 -3.157,-1.054 -4.485,-1.64 -1.543,-0.703 -3.039,-1.485 -4.472,-2.324 l -0.801,4.003 h -4.402 v -40 h 5.757 v 31.817 c 1.282,0.762 2.61,1.426 3.996,2.012 1.172,0.527 2.481,1.015 3.926,1.445 1.446,0.43 2.852,0.644 4.238,0.644 1.329,0 2.403,-0.195 3.204,-0.566 0.8,-0.371 1.418,-0.898 1.875,-1.602 0.449,-0.703 0.761,-1.562 0.918,-2.558 0.168,-1.035 0.246,-2.168 0.246,-3.457 V 108.73 Z m 13.84,33.282 c 1.602,0.468 3.203,0.898 4.805,1.269 1.379,0.332 2.871,0.625 4.473,0.918 1.601,0.293 3.086,0.449 4.48,0.449 2.934,0 4.926,-0.527 5.969,-1.582 1.035,-1.035 1.555,-2.929 1.555,-5.664 v -4.668 h -9.446 c -2.031,0 -3.906,-0.293 -5.636,-0.898 -1.747,-0.586 -3.219,-1.426 -4.442,-2.52 -1.23,-1.074 -2.187,-2.421 -2.871,-4.023 -0.703,-1.602 -1.047,-3.418 -1.047,-5.449 0,-1.602 0.227,-3.125 0.676,-4.551 0.449,-1.445 1.144,-2.695 2.09,-3.77 0.918,-1.074 2.109,-1.914 3.554,-2.558 1.446,-0.645 3.165,-0.957 5.196,-0.957 1.387,0 2.804,0.234 4.238,0.722 1.445,0.469 2.774,0.997 4.004,1.602 1.387,0.684 2.805,1.484 4.238,2.402 l 0.801,-4.004 h 4.402 v 30.079 c 0,2.07 -0.242,3.789 -0.718,5.156 -0.481,1.367 -1.223,2.441 -2.2,3.242 -0.996,0.801 -2.246,1.367 -3.757,1.719 -1.528,0.351 -3.325,0.527 -5.403,0.527 -1.98,0 -3.867,-0.137 -5.644,-0.41 -1.785,-0.254 -3.379,-0.527 -4.754,-0.781 -1.66,-0.371 -3.176,-0.762 -4.563,-1.192 z m 6.114,-15.801 c 1.679,1.309 3.808,1.953 6.367,1.953 h 8.801 v -11.113 c -1.282,-0.801 -2.559,-1.504 -3.84,-2.09 -1.074,-0.527 -2.246,-0.996 -3.516,-1.387 -1.289,-0.41 -2.461,-0.605 -3.523,-0.605 -2.2,0 -3.879,0.664 -5.039,1.992 -1.184,1.328 -1.77,3.125 -1.77,5.371 0,2.598 0.84,4.57 2.52,5.879 m 53.41,-12.773 c -0.434,-0.098 -0.891,-0.176 -1.36,-0.235 -0.8,-0.156 -1.718,-0.234 -2.722,-0.234 -1.555,0 -2.785,0.195 -3.723,0.547 -0.937,0.39 -1.641,0.957 -2.117,1.679 -0.481,0.762 -0.805,1.739 -0.969,2.891 -0.156,1.191 -0.234,2.578 -0.234,4.18 v 21.66 h 9.922 v 4.804 h -9.922 v 15.997 h -5.762 V 148.73 h -6.641 v -4.804 h 6.641 v -22.539 c 0,-4.532 0.879,-7.91 2.637,-10.098 1.765,-2.187 4.824,-3.281 9.211,-3.281 0.574,0 1.16,0 1.758,0.039 0.574,0.019 1.121,0.098 1.597,0.195 0.578,0.059 1.145,0.137 1.684,0.235 z m 28.797,34.96 c -1.016,0.157 -2.063,0.332 -3.125,0.489 -0.899,0.117 -1.973,0.234 -3.196,0.351 -1.226,0.137 -2.476,0.215 -3.757,0.215 -2.352,0 -4.356,-0.293 -6.036,-0.84 -1.687,-0.566 -3.066,-1.347 -4.121,-2.343 -1.074,-0.977 -1.863,-2.129 -2.363,-3.438 -0.508,-1.309 -0.762,-2.715 -0.762,-4.199 0,-2.422 0.481,-4.336 1.446,-5.742 0.957,-1.407 2.148,-2.559 3.593,-3.399 1.446,-0.859 3.008,-1.543 4.727,-2.051 1.699,-0.507 3.269,-1.093 4.707,-1.718 1.445,-0.645 2.644,-1.446 3.613,-2.422 0.957,-0.957 1.438,-2.324 1.438,-4.082 0,-0.645 -0.11,-1.328 -0.285,-2.051 -0.196,-0.723 -0.567,-1.387 -1.114,-2.012 -0.566,-0.605 -1.328,-1.113 -2.285,-1.543 -0.957,-0.429 -2.246,-0.644 -3.848,-0.644 -1.328,0 -2.675,0.078 -4.035,0.273 -1.355,0.196 -2.593,0.41 -3.718,0.684 -1.336,0.273 -2.618,0.586 -3.836,0.957 v -5.371 c 1.121,-0.332 2.312,-0.586 3.601,-0.801 1.055,-0.215 2.285,-0.371 3.672,-0.508 1.387,-0.137 2.82,-0.195 4.316,-0.195 2.571,0 4.7,0.332 6.407,0.996 1.699,0.664 3.066,1.543 4.082,2.637 1.015,1.093 1.726,2.324 2.16,3.711 0.418,1.386 0.633,2.753 0.633,4.14 0,2.617 -0.469,4.688 -1.438,6.231 -0.957,1.543 -2.176,2.754 -3.64,3.632 -1.465,0.879 -3.055,1.583 -4.754,2.129 -1.711,0.528 -3.301,1.075 -4.758,1.68 -1.477,0.566 -2.688,1.328 -3.645,2.266 -0.965,0.918 -1.433,2.246 -1.433,3.945 0,1.328 0.527,2.539 1.593,3.633 1.063,1.094 3.094,1.64 6.083,1.64 1.171,0 2.343,-0.078 3.515,-0.234 l 3.281,-0.332 c 1.121,-0.215 2.207,-0.391 3.282,-0.566 v 4.882"
         style="fill:#ed192e;fill-opacity:1;fill-rule:nonzero;stroke:none"
         id="path42"
         inkscape:connector-curvature="0" /></g></g></svg>