<?xml version="1.0" encoding="UTF-8"?>
<svg width="132px" height="50px" viewBox="0 0 132 50" version="1.1" xmlns="http://www.w3.org/2000/svg" xmlns:xlink="http://www.w3.org/1999/xlink">
    <title>LOGO_A_MOBIBE Copy 2</title>
    <defs>
        <polygon id="path-1" points="0 50 50 50 50 0 0 0"></polygon>
    </defs>
    <g id="LOGO_A_MOBIBE-Copy-2" stroke="none" stroke-width="1" fill="none" fill-rule="evenodd">
        <g id="Group" transform="translate(41, -0)">
            <path d="M25,2.27273893 C12.4480054,2.27273893 2.27277101,12.4481336 2.27277101,24.9999679 C2.27277101,37.5519626 12.4480054,47.7271969 25,47.7271969 C37.5519946,47.7271969 47.727229,37.5519626 47.727229,24.9999679 L47.727229,2.27273893 L25,2.27273893 Z" id="Fill-1" fill="#EEA038"></path>
            <mask id="mask-2" fill="white">
                <use xlink:href="#path-1"></use>
            </mask>
            <g id="Clip-10"></g>
            <path d="M22.6951262,20.6627572 L23.9346591,20.6627572 C24.5938726,20.6627572 24.9806453,20.2759845 24.9806453,19.7309428 C24.9806453,19.1857407 24.5938726,18.798968 23.9346591,18.798968 L22.6951262,18.798968 L22.6951262,20.6627572 Z M24.1017475,17.6649477 C25.4203348,17.6649477 26.3171921,18.4830715 26.3171921,19.6608683 C26.3171921,20.5402471 25.815927,21.2254378 25.0249029,21.5158381 L26.5811341,23.8189961 L25.0249029,23.8189961 L23.6445796,21.7005654 L22.6951262,21.7005654 L22.6951262,23.8189961 L21.350241,23.8189961 L21.350241,17.6649477 L24.1017475,17.6649477 Z" id="Fill-7" fill="#FFFFFE" mask="url(#mask-2)"></path>
            <polygon id="Fill-9" fill="#FFFFFE" mask="url(#mask-2)" points="27.6343683 23.8189159 29.0146916 23.8189159 29.0146916 17.6648675 27.6343683 17.6648675"></polygon>
            <polygon id="Fill-11" fill="#FFFFFE" mask="url(#mask-2)" points="31.361129 17.6649316 33.0052339 22.0873221 34.6490182 17.6649316 36.0910776 17.6649316 33.6383097 23.8189801 32.3017629 23.8189801 29.8489951 17.6649316"></polygon>
            <path d="M41.4349237,20.7423407 C41.4349237,19.6520969 40.6259401,18.8164946 39.5445157,18.8164946 C38.4545927,18.8164946 37.6544285,19.6520969 37.6544285,20.7423407 C37.6544285,21.8406022 38.4545927,22.6762045 39.5445157,22.6762045 C40.6259401,22.6762045 41.4349237,21.8406022 41.4349237,20.7423407 M42.7711498,20.7248622 C42.7711498,22.5002967 41.3557091,23.9064369 39.5182178,23.9064369 C37.6810472,23.9064369 36.3095433,22.5440732 36.3095433,20.7686387 C36.3095433,18.9924024 37.7248237,17.5774427 39.562315,17.5774427 C41.3994856,17.5774427 42.7711498,18.9486259 42.7711498,20.7248622" id="Fill-12" fill="#FFFFFE" mask="url(#mask-2)"></path>
            <path d="M22.186597,28.6885325 L23.9711716,28.6885325 C24.868029,28.6885325 25.4395291,28.1258519 25.4395291,27.3786043 C25.4395291,26.6313568 24.868029,26.0686762 23.9711716,26.0686762 L22.186597,26.0686762 L22.186597,28.6885325 Z M24.0678648,25.4885171 C25.2899192,25.4885171 26.1163814,26.2795411 26.1163814,27.3523064 C26.1163814,28.2579832 25.5094432,28.9702737 24.5867689,29.16366 L26.380163,31.6425655 L25.5711793,31.6425655 L23.8395214,29.2337345 L22.186597,29.2337345 L22.186597,31.6425655 L21.5010856,31.6425655 L21.5010856,25.4885171 L24.0678648,25.4885171 Z" id="Fill-15" fill="#FFFFFE" mask="url(#mask-2)"></path>
            <polygon id="Fill-16" fill="#FFFFFE" mask="url(#mask-2)" points="28.31276 25.4885652 28.9982714 25.4885652 28.9982714 31.0361565 32.4004926 31.0361565 32.4004926 31.6426136 28.31276 31.6426136"></polygon>
            <polygon id="Fill-17" fill="#FFFFFE" mask="url(#mask-2)" points="34.2454243 31.6425655 34.9485746 31.6425655 34.9485746 25.4885171 34.2454243 25.4885171"></polygon>
            <polygon id="Fill-18" fill="#FFFFFE" mask="url(#mask-2)" points="38.1215544 31.6425976 37.4535215 31.6425976 37.4535215 25.4885492 38.1828095 25.4885492 41.9721241 30.5786518 41.9721241 25.4885492 42.640157 25.4885492 42.640157 31.6425976 41.9721241 31.6425976 38.1215544 26.481779"></polygon>
            <path d="M11.9723326,21.4625526 L11.1195724,19.2031712 L10.2581532,21.4625526 L11.9723326,21.4625526 Z M12.842892,23.818948 L12.3502859,22.5264984 L9.88885896,22.5264984 L9.39673392,23.818948 L7.9901126,23.818948 L10.4864966,17.6648996 L11.8230434,17.6648996 L14.3195878,23.818948 L12.842892,23.818948 Z" id="Fill-3" fill="#FFFFFE" mask="url(#mask-2)"></path>
            <path d="M16.4547434,20.6627572 L17.6942763,20.6627572 C18.3534898,20.6627572 18.7402625,20.2759845 18.7402625,19.7309428 C18.7402625,19.1857407 18.3534898,18.798968 17.6942763,18.798968 L16.4547434,18.798968 L16.4547434,20.6627572 Z M17.8613647,17.6649477 C19.179952,17.6649477 20.0764886,18.4830715 20.0764886,19.6608683 C20.0764886,20.5402471 19.5755442,21.2254378 18.784039,21.5158381 L20.3402702,23.8189961 L18.784039,23.8189961 L17.4041968,21.7005654 L16.4547434,21.7005654 L16.4547434,23.8189961 L15.1093772,23.8189961 L15.1093772,17.6649477 L17.8613647,17.6649477 Z" id="Fill-5" fill="#FFFFFE" mask="url(#mask-2)"></path>
            <path d="M10.8836603,31.0974597 C11.7101225,31.0974597 12.2551642,30.5610771 12.2551642,29.8933649 C12.2551642,29.224851 11.7101225,28.6884683 10.8836603,28.6884683 L9.00239247,28.6884683 L9.00239247,31.0974597 L10.8836603,31.0974597 Z M11.9559445,27.1152397 C11.9559445,26.517602 11.4638194,26.0424744 10.7165719,26.0424744 L9.00239247,26.0424744 L9.00239247,28.1791855 L10.7165719,28.1791855 C11.4638194,28.1791855 11.9559445,27.7040579 11.9559445,27.1152397 L11.9559445,27.1152397 Z M12.6332779,27.0094063 C12.6332779,27.6341438 12.2639836,28.1520857 11.6746843,28.3988698 C12.4398915,28.6009153 12.9320165,29.2073724 12.9320165,29.9634394 C12.9320165,30.8952539 12.1406718,31.6426617 10.9628749,31.6426617 L8.31672071,31.6426617 L8.31672071,25.4886133 L10.8219242,25.4886133 C11.9298068,25.4886133 12.6332779,26.1569669 12.6332779,27.0094063 L12.6332779,27.0094063 Z" id="Fill-13" fill="#FFFFFE" mask="url(#mask-2)"></path>
            <polygon id="Fill-14" fill="#FFFFFE" mask="url(#mask-2)" points="15.084362 25.4885652 19.3483232 25.4885652 19.3483232 26.0862029 15.7700338 26.0862029 15.7700338 28.152198 18.9086338 28.152198 18.9086338 28.7148786 15.7700338 28.7148786 15.7700338 31.0536351 19.4361969 31.0536351 19.4361969 31.6426136 15.084362 31.6426136"></polygon>
        </g>
    </g>
</svg>