<svg width="171" height="36" viewBox="0 0 171 36" xmlns="http://www.w3.org/2000/svg" xmlns:xlink="http://www.w3.org/1999/xlink">
	<defs>
		<path id="a" d="M.02.169h13.614v21.115H.021z"/>
		<path id="c" d="M.11.15h20.026v19.353H.111z"/>
		<path id="e" d="M.097.074h21.135V17.27H.097z"/>

		 <filter id="shadow" x="-50%" y="-50%" width="200%" height="200%">
            <feOffset result="offOut" in="SourceAlpha" dx="0" dy="2" />
            <feGaussianBlur result="blurOut" in="offOut" stdDeviation="1" />
            <feBlend in="SourceGraphic" in2="blurOut" mode="normal" />


          	<feComponentTransfer><feFuncA type="linear" slope="0.32"/></feComponentTransfer>
	       
	      	<feMerge><feMergeNode/>
	    	
	    	<feMergeNode in="SourceGraphic"/></feMerge>
	    	
        </filter>

	</defs>

	<path fill="#FFF" d="M50.112 8.416V25h-3.168V8.416h3.168zm8.056 0V25H55V8.416h3.168zm9.312 0l-5.736 7.512L67.936 25h-3.768l-5.856-8.856 5.736-7.728h3.432zM86.432 25h-3.096l-.432-6.936c-.144-2.48-.216-4.448-.216-5.904v-.864L79.664 23.2h-3l-3.216-11.928c.032 1.056.048 1.856.048 2.4 0 1.456-.048 2.952-.144 4.488L72.944 25h-3.072l1.32-16.584h4.08l2.952 11.616 2.784-11.616h4.128L86.432 25zM96.6 8.056c1.488 0 2.776.336 3.864 1.008 1.088.672 1.924 1.656 2.508 2.952.584 1.296.876 2.856.876 4.68 0 1.808-.296 3.36-.888 4.656-.592 1.296-1.432 2.288-2.52 2.976-1.088.688-2.368 1.032-3.84 1.032-1.488 0-2.776-.336-3.864-1.008-1.088-.672-1.928-1.656-2.52-2.952-.592-1.296-.888-2.856-.888-4.68 0-1.792.296-3.34.888-4.644.592-1.304 1.436-2.3 2.532-2.988 1.096-.688 2.38-1.032 3.852-1.032zm0 2.424c-1.28 0-2.256.5-2.928 1.5-.672 1-1.008 2.58-1.008 4.74 0 4.144 1.312 6.216 3.936 6.216 1.28 0 2.252-.496 2.916-1.488.664-.992.996-2.576.996-4.752 0-2.16-.332-3.736-.996-4.728-.664-.992-1.636-1.488-2.916-1.488zM123.608 25l-1.032-3.84h-5.496L116.048 25h-3.288l5.16-16.584h3.912L126.968 25h-3.36zm-5.904-6.24h4.224l-2.112-7.92-2.112 7.92zm19.288 5.64c-.448.32-.948.56-1.5.72-.552.16-1.116.24-1.692.24-1.248-.016-2.196-.372-2.844-1.068-.648-.696-.972-1.724-.972-3.084v-6.696h-1.992v-2.208h1.992V9.496l3.072-.36v3.168h2.952l-.312 2.208h-2.64v6.624c0 .624.108 1.072.324 1.344.216.272.556.408 1.02.408.464 0 .968-.152 1.512-.456l1.08 1.968zm5.488.96c-.976 0-1.74-.284-2.292-.852-.552-.568-.828-1.372-.828-2.412V7.216l3.072-.336V22c0 .592.24.888.72.888.24 0 .48-.04.72-.12l.648 2.16c-.64.288-1.32.432-2.04.432zm14.344-3.72c0 .496.076.86.228 1.092.152.232.396.412.732.54l-.648 2.04c-.72-.064-1.308-.24-1.764-.528-.456-.288-.804-.728-1.044-1.32-.432.64-.972 1.116-1.62 1.428-.648.312-1.372.468-2.172.468-1.264 0-2.264-.36-3-1.08-.736-.72-1.104-1.664-1.104-2.832 0-1.376.5-2.428 1.5-3.156 1-.728 2.428-1.092 4.284-1.092h1.584v-.72c0-.816-.188-1.388-.564-1.716-.376-.328-.98-.492-1.812-.492-.928 0-2.048.224-3.36.672l-.72-2.088c1.584-.608 3.12-.912 4.608-.912 3.248 0 4.872 1.456 4.872 4.368v5.328zm-5.472 1.488c1.04 0 1.856-.52 2.448-1.56V19h-1.272c-1.984 0-2.976.736-2.976 2.208 0 .608.152 1.08.456 1.416.304.336.752.504 1.344.504zm13.96-11.184c1.712 0 3.216.504 4.512 1.512l-1.2 1.8c-1.088-.688-2.152-1.032-3.192-1.032-.608 0-1.08.116-1.416.348-.336.232-.504.54-.504.924 0 .288.072.528.216.72.144.192.404.372.78.54.376.168.932.356 1.668.564 1.376.368 2.396.856 3.06 1.464.664.608.996 1.456.996 2.544 0 1.264-.512 2.252-1.536 2.964-1.024.712-2.296 1.068-3.816 1.068-1.04 0-1.988-.16-2.844-.48a6.902 6.902 0 0 1-2.22-1.32l1.536-1.728c1.104.832 2.256 1.248 3.456 1.248.688 0 1.236-.136 1.644-.408.408-.272.612-.648.612-1.128 0-.368-.076-.66-.228-.876-.152-.216-.424-.408-.816-.576-.392-.168-1.004-.372-1.836-.612-1.296-.352-2.248-.844-2.856-1.476-.608-.632-.912-1.42-.912-2.364 0-.704.204-1.336.612-1.896.408-.56.984-1 1.728-1.32.744-.32 1.596-.48 2.556-.48z"/>

	<g filter="url(#shadow)">
		
		<path d="M4.093 13.412c4.549-9.05 14.069-8.811 19.16-3.11 2.138 2.394 2.123 4.083 2.049 7.62.384-1.82 2.636-4.799.002-9.585-1.34-2.433-3.638-4.572-7.274-5.277C10.867 1.671 4.817 7.666 4.093 13.412" fill="#BC287E"/>

		<g transform="translate(17.131 2.024)">
			<mask id="b" fill="#fff"><use xlink:href="#a"/></mask>

			<path d="M1.812 21.233c6.895.63 12.446-4.664 11.765-11.327C12.983 4.082 6.91-.294.021.208l.853.376c2.496.8 3.254.689 5.632 2.911 5.358 5.008 4.337 14.518-3.678 17.3l-1.016.438z" fill="#1B79B2" mask="url(#b)"/>
		</g>

		<path d="M11.105 27.827c-4.162-3.73-5.521-8.743-2.69-13.672 1.165-2.027 2.587-3.417 5.02-4.485 3.381-1.484 4.904-.997 8.213-.143-2.414-3.204-12.016-5-16.37 2.585-3.717 6.474 1.429 13.967 5.827 15.715" fill="#E9B52A"/>

		<g transform="translate(7.283 10.135)">
			<mask id="d" fill="#fff"><use xlink:href="#c"/></mask>
			<path d="M20.136 15.97c-2.861.952-4.192 2.148-8.213 1.33C1.345 15.149 1.627 2.586 6.08.15 3.655.997 1.312 3.674.485 6.583c-1.803 6.34 3.088 13.14 10.791 12.916 3.43-.1 7.335-1.704 8.86-3.528" fill="#02A86B" mask="url(#d)"/>
		</g>

		<g transform="translate(10.952 9.942)">
			<mask id="f" fill="#fff"><use xlink:href="#e"/></mask>
			<path d="M.107 8.456c-.33 5.098 7.37 11.101 14.81 7.932 5.83-2.484 7.946-9.493 4.981-16.314.286 3.547.809 4.692-.892 7.974-4.809 9.283-17.97 5.637-18.9.408" fill="#E5712A" mask="url(#f)"/>
		</g>
	</g>
</svg>