<?xml version="1.0" encoding="UTF-8"?>
<svg width="132px" height="54px" viewBox="0 0 132 54" version="1.1" xmlns="http://www.w3.org/2000/svg" xmlns:xlink="http://www.w3.org/1999/xlink">
    <title>LOGO_A_MBB</title>
    <g id="LOGO_A_MBB" stroke="none" stroke-width="1" fill="none" fill-rule="evenodd">
        <g id="231013_Programmmarke_MBE_Pfade-1" transform="translate(2, 2.925)">
            <path d="M3.9512148,8.77824618 C3.9512148,8.77824618 27.6291553,16.0180209 31.6406114,35.2937088 L32.9134031,34.0209171 C32.9134031,34.0209171 30.6628479,17.3881255 3.9512148,8.77824618" id="Fill-1" fill="#003B62"></path>
            <path d="M3.9512148,8.77824618 C3.9512148,8.77824618 27.6291553,16.0180209 31.6406114,35.2937088 L32.9134031,34.0209171 C32.9134031,34.0209171 30.6628479,17.3881255 3.9512148,8.77824618" id="Stroke-2" stroke="#003B62" stroke-width="0.5" stroke-linecap="round"></path>
            <path d="M48.4803862,0.359903459 L46.9681738,0.0123572003 C46.7426549,-0.040160901 46.6113596,0.0988576026 46.6777796,0.319742558 C46.6777796,0.319742558 46.8152534,0.480386163 46.9372808,0.77850362 C46.9480933,0.804762671 24.4595334,7.36025744 13.7118584,19.7421722 C1.93699115,33.3072888 0,44.3021078 0,44.3021078 L0.727530169,46.6561545 C0.727530169,46.6561545 3.35652454,34.3035881 13.1820434,22.4252293 C17.341786,17.3973934 22.4669348,12.4529686 29.7545937,8.56817377 C40.8544489,2.65216412 47.0268705,1.03954948 47.0330491,1.06426388 C47.1380853,1.46278359 47.1195495,1.7871601 47.1195495,1.7871601 C47.1875141,2.0095897 47.3713274,2.0528399 47.531971,1.88447305 L48.6008689,0.75996782 C48.7599678,0.591600965 48.7059051,0.412421561 48.4803862,0.359903459" id="Fill-3" fill="#00B8E0"></path>
            <path d="M48.4803862,0.359903459 L46.9681738,0.0123572003 C46.7426549,-0.040160901 46.6113596,0.0988576026 46.6777796,0.319742558 C46.6777796,0.319742558 46.8152534,0.480386163 46.9372808,0.77850362 C46.9480933,0.804762671 24.4595334,7.36025744 13.7118584,19.7421722 C1.93699115,33.3072888 0,44.3021078 0,44.3021078 L0.727530169,46.6561545 C0.727530169,46.6561545 3.35652454,34.3035881 13.1820434,22.4252293 C17.341786,17.3973934 22.4669348,12.4529686 29.7545937,8.56817377 C40.8544489,2.65216412 47.0268705,1.03954948 47.0330491,1.06426388 C47.1380853,1.46278359 47.1195495,1.7871601 47.1195495,1.7871601 C47.1875141,2.0095897 47.3713274,2.0528399 47.531971,1.88447305 L48.6008689,0.75996782 C48.7599678,0.591600965 48.7059051,0.412421561 48.4803862,0.359903459 Z" id="Stroke-4" stroke="#00B8E0" stroke-width="0.5"></path>
            <path d="M19.9491553,9.21692679 C19.9491553,10.434111 18.9636685,11.4195977 17.748029,11.4195977 C16.5308447,11.4195977 15.5469027,10.434111 15.5469027,9.21692679 C15.5469027,8.00128721 16.5308447,7.01580048 17.748029,7.01580048 C18.9636685,7.01580048 19.9491553,8.00128721 19.9491553,9.21692679" id="Fill-6" fill="#003B62"></path>
            <path d="M19.9491553,9.21692679 C19.9491553,10.434111 18.9636685,11.4195977 17.748029,11.4195977 C16.5308447,11.4195977 15.5469027,10.434111 15.5469027,9.21692679 C15.5469027,8.00128721 16.5308447,7.01580048 17.748029,7.01580048 C18.9636685,7.01580048 19.9491553,8.00128721 19.9491553,9.21692679" id="Stroke-7" stroke="#003B62" stroke-width="0.5"></path>
            <polyline id="Fill-8" fill="#1A1919" points="67.1351247 11.7254385 64.9432663 11.7254385 64.9432663 4.70654867 64.909284 4.70654867 62.088753 11.7254385 60.4915849 11.7254385 57.6695093 4.70654867 57.635527 4.70654867 57.635527 11.7254385 55.4436685 11.7254385 55.4436685 0 57.9429123 0 61.3581335 8.54654867 61.3921158 8.54654867 64.8413194 0 67.1351247 0 67.1351247 11.7254385"></polyline>
            <path d="M72.8781335,6.71150442 L72.1305229,6.71150442 L72.1305229,9.88884956 L72.7761866,9.88884956 C74.509284,9.88884956 75.2399035,9.32968624 75.2399035,8.27469027 C75.2399035,7.27221239 74.4073371,6.71150442 72.8781335,6.71150442 Z M72.6232663,1.80106195 L72.1305229,1.80106195 L72.1305229,4.94442478 L72.6062751,4.94442478 C74.2204344,4.94442478 74.9680451,4.31575221 74.9680451,3.26230088 C74.9680451,2.36176991 74.3053902,1.80106195 72.6232663,1.80106195 Z M75.1549477,5.67504425 L75.1549477,5.70902655 C76.2593725,5.9299115 77.5846822,6.79646018 77.5846822,8.42761062 C77.5846822,10.3661464 76.1404344,11.7254385 72.7761866,11.7254385 L69.8521641,11.7254385 L69.8521641,0 L72.6232663,0 C76.0554787,0 77.2618504,1.18783588 77.2618504,3.09238938 C77.2618504,4.77451327 76.1574256,5.36920354 75.1549477,5.67504425 L75.1549477,5.67504425 Z" id="Fill-9" fill="#1A1919"></path>
            <polyline id="Fill-10" fill="#1A1919" points="86.4370716 1.86902655 82.034819 1.86902655 82.034819 4.87646018 86.1142397 4.87646018 86.1142397 6.74548673 82.034819 6.74548673 82.034819 9.85641191 86.9977796 9.85641191 86.8618504 11.7254385 79.7580048 11.7254385 79.7580048 0 86.5730008 0 86.4370716 1.86902655"></polyline>
            <path d="M61.1604183,16.6173451 L61.1604183,24.0826388 L60.2506195,24.0826388 L60.2506195,20.5345776 C60.2506195,19.6355913 60.261432,18.7474175 60.2938697,18.4338536 L60.261432,18.4338536 C60.1857442,18.7582301 59.9370555,19.5923411 59.6559292,20.43572 L58.4232985,24.0826388 L57.6756879,24.0826388 L56.4430571,20.43572 C56.1619308,19.5923411 55.9024296,18.7582301 55.8375543,18.4338536 L55.8051167,18.4338536 C55.8375543,18.7705873 55.8483669,19.6355913 55.8483669,20.5345776 L55.8483669,24.0826388 L54.938568,24.0826388 L54.938568,16.6173451 L55.98893,16.6173451 L57.7529204,21.7672084 C57.9151086,22.2429606 58.0541271,22.73107 58.0772969,23.0554465 L58.098922,23.0554465 C58.1097345,22.73107 58.248753,22.2537731 58.4124859,21.7764763 L60.1764763,16.6173451 L61.1604183,16.6173451" id="Fill-11" fill="#1A1919"></path>
            <path d="M62.5722285,24.0810941 L63.4480451,24.0810941 L63.4480451,18.8895253 L62.5722285,18.8895253 L62.5722285,24.0810941 Z M62.4223974,17.0081416 C62.4223974,16.6497828 62.6587289,16.3902816 63.015543,16.3902816 C63.3630893,16.3902816 63.6009654,16.6497828 63.6009654,17.0081416 C63.6009654,17.3742237 63.3630893,17.6352695 63.015543,17.6352695 C62.6587289,17.6352695 62.4223974,17.3742237 62.4223974,17.0081416 L62.4223974,17.0081416 Z" id="Fill-12" fill="#1A1919"></path>
            <path d="M66.2608528,19.4625905 C65.7634755,19.4625905 65.3402414,19.7545294 65.3402414,20.5005953 C65.3402414,21.248206 65.7634755,21.5401448 66.2392277,21.5401448 C66.736605,21.5401448 67.1474819,21.248206 67.1474819,20.5005953 C67.1474819,19.7545294 66.736605,19.4625905 66.2608528,19.4625905 Z M67.5259212,24.6109091 C67.5259212,24.1150764 67.1799195,23.9189059 66.6501046,23.9189059 L65.990539,23.9189059 C65.8484312,23.9189059 65.7094127,23.9080933 65.58893,23.8880129 C65.3402414,24.0270314 65.059115,24.2772647 65.059115,24.7962671 C65.059115,25.3477072 65.3618665,25.6303781 65.9797265,25.6303781 C67.0393564,25.6303781 67.5259212,25.1422687 67.5259212,24.6109091 Z M65.9133065,26.3748994 C64.8104264,26.3748994 64.2157361,25.8667096 64.2157361,24.9692679 C64.2157361,24.2015768 64.842864,23.8324055 65.0807401,23.7041995 L65.0807401,23.6825744 C64.8644891,23.5188415 64.7455511,23.2809654 64.7455511,22.9565889 C64.7455511,22.3943363 65.2429284,22.1780853 65.372679,22.11321 L65.372679,22.0915849 C64.842864,21.8413516 64.4860499,21.3223492 64.4860499,20.5005953 C64.4860499,19.3328399 65.275366,18.7582301 66.2500402,18.7582301 C66.4987289,18.7582301 66.7257924,18.8030249 66.9420434,18.8895253 L68.5206758,18.8895253 L68.4032824,19.570716 L67.7529847,19.570716 C67.915173,19.8302172 68.003218,20.1561384 68.003218,20.5005953 C68.003218,21.6050201 67.2231698,22.2645857 66.20679,22.2645857 C66.1094771,22.2645857 66.0229767,22.2645857 65.9364763,22.2537731 C65.7634755,22.329461 65.5147868,22.4700241 65.5147868,22.7403379 C65.5147868,22.9565889 65.6661625,23.1095093 66.0446018,23.1095093 L66.7041673,23.1095093 C67.6881094,23.1095093 68.4233628,23.4987611 68.4233628,24.4811585 C68.4233628,25.5963958 67.4502333,26.3748994 65.9133065,26.3748994 L65.9133065,26.3748994 Z" id="Fill-13" fill="#1A1919"></path>
            <path d="M71.569815,19.6572164 C71.5265648,19.6355913 71.3751891,19.570716 71.137313,19.570716 C70.5858729,19.570716 70.2923894,19.9275302 70.1626388,20.2750764 L70.1626388,24.0826388 L69.2868222,24.0826388 L69.2868222,18.8895253 L70.0884956,18.8895253 L70.0884956,19.5923411 L70.108576,19.5923411 C70.2599517,19.1814642 70.541078,18.7922124 71.2021883,18.7922124 C71.4508769,18.7922124 71.5914401,18.8462751 71.6779405,18.8771681 L71.569815,19.6572164" id="Fill-14" fill="#1A1919"></path>
            <path d="M74.1215768,21.8212711 C73.2890105,21.8537088 72.8456959,22.0915849 72.8456959,22.66465 C72.8456959,23.194465 73.1051971,23.4647788 73.5376991,23.4647788 C74.045889,23.4647788 74.2945776,23.1203218 74.4027031,22.9565889 L74.4027031,21.8104586 L74.1215768,21.8212711 Z M74.4027031,20.6643282 C74.4027031,19.786967 74.0783266,19.5058407 73.516074,19.5058407 C72.995527,19.5058407 72.6495253,19.7977796 72.4548994,19.9707804 L72.0872727,19.3869027 C72.3158809,19.1598391 72.8117136,18.7582301 73.6458246,18.7582301 C74.7054545,18.7582301 75.2692518,19.3220274 75.2692518,20.6303459 L75.2692518,22.9998391 C75.2692518,23.4446983 75.3109574,23.9420756 75.3341271,24.0826388 L74.5000161,24.0826388 C74.4892035,23.9312631 74.478391,23.7675302 74.4675784,23.5095736 L74.4459533,23.5095736 C74.3270153,23.7675302 74.0134513,24.2123894 73.3538858,24.2123894 C72.5645696,24.2123894 71.9683347,23.6053419 71.9683347,22.761963 C71.9683347,21.5617699 72.9538214,21.1617056 74.1323894,21.1617056 L74.4027031,21.1617056 L74.4027031,20.6643282 L74.4027031,20.6643282 Z" id="Fill-15" fill="#1A1919"></path>
            <path d="M78.0233628,24.2123894 C77.1367337,24.2123894 76.6826066,23.7474497 76.6826066,22.5997747 L76.6826066,19.6031537 L76.0554787,19.6031537 L76.0554787,19.0192759 L76.6826066,18.8895253 L76.7799195,17.439099 L77.5584232,17.439099 L77.5584232,18.8895253 L78.8034111,18.8895253 L78.6952856,19.6031537 L77.5584232,19.6031537 L77.5584232,22.4808367 C77.5584232,23.2160901 77.731424,23.4338858 78.1747385,23.4338858 C78.4357844,23.4338858 78.6304103,23.3350282 78.715366,23.2809654 L78.8358488,23.9837812 C78.7601609,24.0378439 78.4883025,24.2123894 78.0233628,24.2123894" id="Fill-16" fill="#1A1919"></path>
            <path d="M79.5803701,24.0810941 L80.4561866,24.0810941 L80.4561866,18.8895253 L79.5803701,18.8895253 L79.5803701,24.0810941 Z M79.4289944,17.0081416 C79.4289944,16.6497828 79.6668705,16.3902816 80.0236846,16.3902816 C80.3696862,16.3902816 80.609107,16.6497828 80.609107,17.0081416 C80.609107,17.3742237 80.3696862,17.6352695 80.0236846,17.6352695 C79.6668705,17.6352695 79.4289944,17.3742237 79.4289944,17.0081416 L79.4289944,17.0081416 Z" id="Fill-17" fill="#1A1919"></path>
            <path d="M83.4960579,19.5058407 C82.780885,19.5058407 82.3591955,20.1113435 82.3591955,21.4860821 C82.3591955,22.8608206 82.7916975,23.4338858 83.5068705,23.4338858 C84.2204988,23.4338858 84.6421883,22.8608206 84.6421883,21.4860821 C84.6421883,20.1113435 84.2096862,19.5058407 83.4960579,19.5058407 Z M83.5284956,18.7582301 C84.6746259,18.7582301 85.5504425,19.570716 85.5504425,21.4860821 C85.5504425,23.4230732 84.6097506,24.2123894 83.4744328,24.2123894 C82.3267578,24.2123894 81.4509413,23.4338858 81.4509413,21.4860821 C81.4509413,19.570716 82.4132582,18.7582301 83.5284956,18.7582301 L83.5284956,18.7582301 Z" id="Fill-18" fill="#1A1919"></path>
            <path d="M87.419469,20.0789059 L87.419469,24.0826388 L86.5436525,24.0826388 L86.5436525,18.8895253 L87.3437812,18.8895253 L87.3437812,19.4734031 L87.3654063,19.4734031 C87.4642639,19.2895897 87.9276589,18.7582301 88.7401448,18.7582301 C89.6700241,18.7582301 90.2539019,19.2679646 90.2539019,20.6751408 L90.2539019,24.0826388 L89.3780853,24.0826388 L89.3780853,20.7400161 C89.3780853,19.8626549 89.0861464,19.5058407 88.4806436,19.5058407 C87.949284,19.5058407 87.5940145,19.8626549 87.419469,20.0789059" id="Fill-19" fill="#1A1919"></path>
            <path d="M93.6907482,19.9383427 C93.5733548,19.8085921 93.2690587,19.5058407 92.782494,19.5058407 C92.3175543,19.5058407 92.0688656,19.7545294 92.0688656,20.0572808 C92.0688656,20.4465326 92.2851167,20.6643282 92.7500563,20.9439099 L93.0744328,21.1385358 C93.7772486,21.5617699 94.2112953,21.9834594 94.2112953,22.7511504 C94.2112953,23.5744489 93.6150603,24.2123894 92.5554304,24.2123894 C91.722864,24.2123894 91.3011746,23.8324055 91.0957361,23.6176991 L91.5174256,22.9256959 C91.6796138,23.0971521 92.0039903,23.4338858 92.566243,23.4338858 C93.0852454,23.4338858 93.3663717,23.1743846 93.3663717,22.8376508 C93.3663717,22.3402735 93.1068705,22.1672727 92.6094932,21.8537088 L92.2851167,21.6467257 C91.6363636,21.2373934 91.2471118,20.8141593 91.2471118,20.100531 C91.2471118,19.3328399 91.9066774,18.7582301 92.7500563,18.7582301 C93.550185,18.7582301 93.8977313,19.1366693 94.0707321,19.3112148 L93.6907482,19.9383427" id="Fill-20" fill="#1A1919"></path>
            <path d="M96.9993886,19.5058407 C96.4587611,19.5058407 96.1884473,19.786967 95.9938214,20.0356557 L95.9938214,23.2269027 C96.123572,23.3149477 96.339823,23.4338858 96.6425744,23.4338858 C97.4751408,23.4338858 98.0914562,22.9256959 98.0914562,21.3563315 C98.0914562,20.0680933 97.6697667,19.5058407 96.9993886,19.5058407 Z M96.6101368,24.1799517 C95.7667578,24.1799517 95.289461,23.812325 95.1180048,23.6702172 L95.1180048,16.4319871 L95.9938214,16.3578439 L95.9938214,19.3869027 L96.0154465,19.3869027 C96.1560097,19.1598391 96.556074,18.7582301 97.2588898,18.7582301 C98.3200644,18.7582301 99.001255,19.5382784 99.001255,21.248206 C99.001255,23.4755913 97.8983749,24.1799517 96.6101368,24.1799517 L96.6101368,24.1799517 Z" id="Fill-21" fill="#1A1919"></path>
            <path d="M100.632405,20.9887047 L102.515334,20.9887047 C102.526146,20.9130169 102.536959,20.7709091 102.536959,20.6102655 C102.536959,19.8950925 102.243475,19.4734031 101.692035,19.4734031 C101.07572,19.4734031 100.675656,20.0140306 100.632405,20.9887047 Z M101.897474,24.2123894 C100.589155,24.2123894 99.7674014,23.379823 99.7674014,21.4212068 C99.7674014,19.5815286 100.664843,18.7582301 101.747643,18.7582301 C102.731585,18.7582301 103.337088,19.3977152 103.337088,20.6411585 C103.337088,21.084473 103.30465,21.398037 103.272212,21.6467257 L100.621593,21.6467257 C100.675656,22.8608206 101.151408,23.4338858 102.028769,23.4338858 C102.645084,23.4338858 103.001899,23.0971521 103.120837,22.978214 L103.445213,23.5945294 C103.30465,23.7474497 102.882961,24.2123894 101.897474,24.2123894 L101.897474,24.2123894 Z" id="Fill-22" fill="#1A1919"></path>
            <path d="M106.678166,19.6572164 C106.633371,19.6355913 106.48354,19.570716 106.244119,19.570716 C105.692679,19.570716 105.40074,19.9275302 105.27099,20.2750764 L105.27099,24.0826388 L104.393628,24.0826388 L104.393628,18.8895253 L105.195302,18.8895253 L105.195302,19.5923411 L105.216927,19.5923411 C105.368302,19.1814642 105.649429,18.7922124 106.308994,18.7922124 C106.557683,18.7922124 106.699791,18.8462751 106.784747,18.8771681 L106.678166,19.6572164" id="Fill-23" fill="#1A1919"></path>
            <path d="M109.228383,21.8212711 C108.395817,21.8537088 107.952502,22.0915849 107.952502,22.66465 C107.952502,23.194465 108.212003,23.4647788 108.644505,23.4647788 C109.15424,23.4647788 109.402928,23.1203218 109.511054,22.9565889 L109.511054,21.8104586 L109.228383,21.8212711 Z M109.511054,20.6643282 C109.511054,19.786967 109.186677,19.5058407 108.62288,19.5058407 C108.103878,19.5058407 107.757876,19.7977796 107.56325,19.9707804 L107.195623,19.3869027 C107.422687,19.1598391 107.920064,18.7582301 108.752631,18.7582301 C109.813805,18.7582301 110.376058,19.3220274 110.376058,20.6303459 L110.376058,22.9998391 C110.376058,23.4446983 110.419308,23.9420756 110.440933,24.0826388 L109.606822,24.0826388 C109.597554,23.9312631 109.585197,23.7675302 109.575929,23.5095736 L109.552759,23.5095736 C109.435366,23.7675302 109.121802,24.2123894 108.460692,24.2123894 C107.671376,24.2123894 107.076685,23.6053419 107.076685,22.761963 C107.076685,21.5617699 108.060628,21.1617056 109.239195,21.1617056 L109.511054,21.1617056 L109.511054,20.6643282 L109.511054,20.6643282 Z" id="Fill-24" fill="#1A1919"></path>
            <path d="M113.131714,24.2123894 C112.245084,24.2123894 111.790957,23.7474497 111.790957,22.5997747 L111.790957,19.6031537 L111.162285,19.6031537 L111.162285,19.0192759 L111.790957,18.8895253 L111.88827,17.439099 L112.666774,17.439099 L112.666774,18.8895253 L113.910217,18.8895253 L113.802092,19.6031537 L112.666774,19.6031537 L112.666774,22.4808367 C112.666774,23.2160901 112.839775,23.4338858 113.283089,23.4338858 C113.542591,23.4338858 113.737216,23.3350282 113.823717,23.2809654 L113.942655,23.9837812 C113.866967,24.0378439 113.596653,24.2123894 113.131714,24.2123894" id="Fill-25" fill="#1A1919"></path>
            <path d="M116.148415,24.2123894 C115.229348,24.2123894 114.656283,23.7041995 114.656283,22.2970233 L114.656283,18.8895253 L115.5321,18.8895253 L115.5321,22.232148 C115.5321,23.0863395 115.813226,23.4338858 116.398648,23.4338858 C116.926919,23.4338858 117.27292,23.075527 117.447466,22.8608206 L117.447466,18.8895253 L118.323282,18.8895253 L118.323282,24.0826388 L117.523154,24.0826388 L117.523154,23.4987611 L117.501529,23.4987611 C117.404216,23.6825744 116.939276,24.2123894 116.148415,24.2123894" id="Fill-26" fill="#1A1919"></path>
            <path d="M120.430185,20.0789059 L120.430185,24.0826388 L119.554368,24.0826388 L119.554368,18.8895253 L120.354497,18.8895253 L120.354497,19.4734031 L120.376122,19.4734031 C120.473435,19.2895897 120.938375,18.7582301 121.750861,18.7582301 C122.679195,18.7582301 123.264618,19.2679646 123.264618,20.6751408 L123.264618,24.0826388 L122.388801,24.0826388 L122.388801,20.7400161 C122.388801,19.8626549 122.095318,19.5058407 121.489815,19.5058407 C120.96,19.5058407 120.603186,19.8626549 120.430185,20.0789059" id="Fill-27" fill="#1A1919"></path>
            <path d="M126.041899,19.4625905 C125.544521,19.4625905 125.121287,19.7545294 125.121287,20.5005953 C125.121287,21.248206 125.544521,21.5401448 126.018729,21.5401448 C126.517651,21.5401448 126.928528,21.248206 126.928528,20.5005953 C126.928528,19.7545294 126.517651,19.4625905 126.041899,19.4625905 Z M127.306967,24.6109091 C127.306967,24.1150764 126.960965,23.9189059 126.43115,23.9189059 L125.77004,23.9189059 C125.631022,23.9189059 125.490459,23.9080933 125.371521,23.8880129 C125.121287,24.0270314 124.841706,24.2772647 124.841706,24.7962671 C124.841706,25.3477072 125.142912,25.6303781 125.760772,25.6303781 C126.820402,25.6303781 127.306967,25.1422687 127.306967,24.6109091 Z M125.695897,26.3748994 C124.593017,26.3748994 123.996782,25.8667096 123.996782,24.9692679 C123.996782,24.2015768 124.62391,23.8324055 124.861786,23.7041995 L124.861786,23.6825744 C124.64708,23.5188415 124.528142,23.2809654 124.528142,22.9565889 C124.528142,22.3943363 125.025519,22.1780853 125.15527,22.11321 L125.15527,22.0915849 C124.62391,21.8413516 124.26864,21.3223492 124.26864,20.5005953 C124.26864,19.3328399 125.056412,18.7582301 126.031086,18.7582301 C126.279775,18.7582301 126.506838,18.8030249 126.724634,18.8895253 L128.303266,18.8895253 L128.182784,19.570716 L127.534031,19.570716 C127.696219,19.8302172 127.782719,20.1561384 127.782719,20.5005953 C127.782719,21.6050201 127.004216,22.2645857 125.987836,22.2645857 C125.888978,22.2645857 125.804023,22.2645857 125.717522,22.2537731 C125.544521,22.329461 125.295833,22.4700241 125.295833,22.7403379 C125.295833,22.9565889 125.445664,23.1095093 125.825648,23.1095093 L126.485213,23.1095093 C127.469155,23.1095093 128.204409,23.4987611 128.204409,24.4811585 C128.204409,25.5963958 127.232824,26.3748994 125.695897,26.3748994 L125.695897,26.3748994 Z" id="Fill-28" fill="#1A1919"></path>
            <path d="M55.8808045,30.4157039 L55.8808045,34.8951891 L55.0034433,34.8951891 L55.0034433,30.4157039 L54.3763154,30.4157039 L54.3763154,29.8318262 L55.0034433,29.7128882 L55.0034433,28.6733387 C55.0034433,27.5380209 55.675366,27.0838938 56.4430571,27.0838938 C56.8106838,27.0838938 57.0918101,27.224457 57.1783105,27.2785197 L56.9944972,28.0045052 C56.9079968,27.9504425 56.7458085,27.8623974 56.518745,27.8623974 C56.1078681,27.8623974 55.8808045,28.089461 55.8808045,28.7721963 L55.8808045,29.7020756 L57.0485599,29.7020756 L56.9404344,30.4157039 L55.8808045,30.4157039" id="Fill-29" fill="#1A1919"></path>
            <path d="M60.3139501,28.7613837 C60.0220113,28.7613837 59.7949477,28.5435881 59.7949477,28.208399 C59.7949477,27.87321 60.0220113,27.656959 60.3139501,27.656959 C60.605889,27.656959 60.8329525,27.87321 60.8329525,28.208399 C60.8329525,28.5435881 60.605889,28.7613837 60.3139501,28.7613837 Z M58.6488174,28.7613837 C58.3568785,28.7613837 58.1282703,28.5435881 58.1282703,28.208399 C58.1282703,27.87321 58.3568785,27.656959 58.6488174,27.656959 C58.9407562,27.656959 59.1678198,27.87321 59.1678198,28.208399 C59.1678198,28.5435881 58.9407562,28.7613837 58.6488174,28.7613837 Z M59.1461947,35.0249397 C58.2271279,35.0249397 57.6525181,34.5167498 57.6525181,33.1095736 L57.6525181,29.7020756 L58.5298793,29.7020756 L58.5298793,33.0446983 C58.5298793,33.8988898 58.8110056,34.246436 59.3948833,34.246436 C59.9246983,34.246436 60.2706999,33.8880772 60.4437007,33.6733709 L60.4437007,29.7020756 L61.3210619,29.7020756 L61.3210619,34.8951891 L60.5193886,34.8951891 L60.5193886,34.3113113 L60.4993081,34.3113113 C60.4019952,34.4951247 59.9355109,35.0249397 59.1461947,35.0249397 L59.1461947,35.0249397 Z" id="Fill-30" fill="#1A1919"></path>
            <path d="M64.8227836,30.4697667 C64.7795334,30.4481416 64.6281577,30.3832663 64.3902816,30.3832663 C63.8388415,30.3832663 63.5469027,30.7400805 63.4171521,31.0876267 L63.4171521,34.8951891 L62.5397908,34.8951891 L62.5397908,29.7020756 L63.3414642,29.7020756 L63.3414642,30.4048914 L63.3630893,30.4048914 C63.514465,29.9940145 63.7955913,29.6047627 64.4551569,29.6047627 C64.7038455,29.6047627 64.8444087,29.6588254 64.9309091,29.6897184 L64.8227836,30.4697667" id="Fill-31" fill="#1A1919"></path>
            <path d="M68.1190668,31.801255 L70.0019952,31.801255 C70.0128077,31.7255672 70.0236203,31.5834594 70.0236203,31.4228158 C70.0236203,30.7076428 69.7316814,30.2859533 69.1802414,30.2859533 C68.5623813,30.2859533 68.1638616,30.8265809 68.1190668,31.801255 Z M69.3841352,35.0249397 C68.0758166,35.0249397 67.2540628,34.1923733 67.2540628,32.233757 C67.2540628,30.3940788 68.1515044,29.5707804 69.2343041,29.5707804 C70.2182462,29.5707804 70.823749,30.2102655 70.823749,31.4537088 C70.823749,31.8970233 70.7913113,32.2105873 70.7588737,32.4592759 L68.1082542,32.4592759 C68.1638616,33.6733709 68.6396138,34.246436 69.5154304,34.246436 C70.1317458,34.246436 70.4885599,33.9097023 70.607498,33.7907643 L70.9318745,34.4070796 C70.7913113,34.56 70.3696219,35.0249397 69.3841352,35.0249397 L69.3841352,35.0249397 Z" id="Fill-32" fill="#1A1919"></path>
            <path d="M74.1540145,30.4697667 C74.1107643,30.4481416 73.9593886,30.3832663 73.7215125,30.3832663 C73.1700724,30.3832663 72.8765889,30.7400805 72.7468383,31.0876267 L72.7468383,34.8951891 L71.8710217,34.8951891 L71.8710217,29.7020756 L72.6711504,29.7020756 L72.6711504,30.4048914 L72.6927755,30.4048914 C72.8441512,29.9940145 73.1252776,29.6047627 73.7863878,29.6047627 C74.0350764,29.6047627 74.1756396,29.6588254 74.26214,29.6897184 L74.1540145,30.4697667" id="Fill-33" fill="#1A1919"></path>
            <path d="M80.8809654,29.7020756 L79.3007884,34.8951891 L78.5222848,34.8951891 L77.9924698,33.077136 C77.8410941,32.5581335 77.7113435,32.114819 77.6897184,31.71321 L77.6680933,31.71321 C77.6464682,32.114819 77.4950925,32.5797586 77.3220917,33.0879485 L76.7258568,34.8951891 L75.9797908,34.8951891 L74.3470957,29.7020756 L75.2877876,29.7020756 L76.0662912,32.644634 C76.2068544,33.1852615 76.336605,33.6610137 76.3474175,34.0718906 L76.3705873,34.0718906 C76.4122928,33.6502011 76.5636685,33.2068866 76.738214,32.6770716 L77.3004666,30.9779566 L76.9112148,29.7020756 L77.819469,29.7020756 L78.6087852,32.5689461 C78.7709735,33.1528238 78.9223492,33.6934513 78.9347064,34.0718906 L78.9547868,34.0718906 C78.9764119,33.6934513 79.1169751,33.1420113 79.2683508,32.5689461 L80.0375865,29.7020756 L80.8809654,29.7020756" id="Fill-34" fill="#1A1919"></path>
            <path d="M83.3771199,32.6338214 C82.5430088,32.6662591 82.0996943,32.9041352 82.0996943,33.4772003 C82.0996943,34.0070153 82.3591955,34.277329 82.7932422,34.277329 C83.301432,34.277329 83.5501207,33.9328721 83.6582462,33.7691392 L83.6582462,32.6230088 L83.3771199,32.6338214 Z M83.6582462,31.4768785 C83.6582462,30.5995173 83.3338697,30.318391 82.7700724,30.318391 C82.25107,30.318391 81.9050684,30.6103298 81.7104425,30.7833307 L81.3428158,30.1994529 C81.5698793,29.9723894 82.0672566,29.5707804 82.899823,29.5707804 C83.9609976,29.5707804 84.5232502,30.1345776 84.5232502,31.4428962 L84.5232502,33.8123894 C84.5232502,34.2572486 84.5665004,34.7546259 84.5881255,34.8951891 L83.7555591,34.8951891 C83.7447466,34.7438134 83.733934,34.5800805 83.7231215,34.3221239 L83.7014964,34.3221239 C83.5825583,34.5800805 83.2689944,35.0249397 82.6078842,35.0249397 C81.818568,35.0249397 81.2238777,34.4178922 81.2238777,33.5745133 C81.2238777,32.3743202 82.2078198,31.9742558 83.3863878,31.9742558 L83.6582462,31.9742558 L83.6582462,31.4768785 L83.6582462,31.4768785 Z" id="Fill-35" fill="#1A1919"></path>
            <path d="M88.6103942,30.7076428 C88.5130813,30.6103298 88.2412228,30.318391 87.7237651,30.318391 C86.9761545,30.318391 86.3922767,30.848206 86.3922767,32.2229445 C86.3922767,33.7475141 86.9004666,34.246436 87.6480772,34.246436 C88.1763475,34.246436 88.448206,33.9977474 88.5563315,33.8772647 L88.9131456,34.4827675 C88.7725825,34.6449558 88.3725181,35.0249397 87.5615768,35.0249397 C86.4030893,35.0249397 85.4840225,34.3221239 85.4840225,32.2878198 C85.4840225,30.2967659 86.6301529,29.5707804 87.6588898,29.5707804 C88.448206,29.5707804 88.8158327,29.9075141 88.9780209,30.0913274 L88.6103942,30.7076428" id="Fill-36" fill="#1A1919"></path>
            <path d="M90.6524216,30.8914562 L90.6524216,34.8951891 L89.776605,34.8951891 L89.776605,27.2445374 L90.6524216,27.1487691 L90.6524216,30.2318906 L90.6740467,30.2318906 C90.7821722,30.0697023 91.171424,29.5707804 92.0039903,29.5707804 C92.9137892,29.5707804 93.4868544,30.1129525 93.4868544,31.4876911 L93.4868544,34.8951891 L92.6110378,34.8951891 L92.6110378,31.5525664 C92.6110378,30.6752051 92.319099,30.318391 91.7135961,30.318391 C91.1822365,30.318391 90.8254224,30.6752051 90.6524216,30.8914562" id="Fill-37" fill="#1A1919"></path>
            <path d="M96.9128882,30.750893 C96.7954948,30.6211424 96.4911987,30.318391 96.004634,30.318391 C95.5396943,30.318391 95.2910056,30.5670796 95.2910056,30.8698311 C95.2910056,31.2590829 95.5072566,31.4768785 95.9721963,31.7564602 L96.2965728,31.9510861 C96.9993886,32.3743202 97.4334352,32.7960097 97.4334352,33.5637007 C97.4334352,34.3869992 96.8372003,35.0249397 95.7775704,35.0249397 C94.945004,35.0249397 94.5233146,34.6449558 94.3178761,34.4302494 L94.7395656,33.7382462 C94.9017538,33.9097023 95.2261303,34.246436 95.7883829,34.246436 C96.3073854,34.246436 96.5885117,33.9869348 96.5885117,33.6502011 C96.5885117,33.1528238 96.3290105,32.979823 95.8316331,32.6662591 L95.5072566,32.4592759 C94.8585036,32.0499437 94.4692518,31.6267096 94.4692518,30.9130813 C94.4692518,30.1453902 95.1288174,29.5707804 95.9721963,29.5707804 C96.7738697,29.5707804 97.1198713,29.9492196 97.2928721,30.1237651 L96.9128882,30.750893" id="Fill-38" fill="#1A1919"></path>
            <path d="M98.9672727,31.801255 L100.850201,31.801255 C100.859469,31.7255672 100.871826,31.5834594 100.871826,31.4228158 C100.871826,30.7076428 100.578343,30.2859533 100.026903,30.2859533 C99.4105873,30.2859533 99.0105229,30.8265809 98.9672727,31.801255 Z M100.232341,35.0249397 C98.9240225,35.0249397 98.1022687,34.1923733 98.1022687,32.233757 C98.1022687,30.3940788 98.9997104,29.5707804 100.080965,29.5707804 C101.066452,29.5707804 101.671955,30.2102655 101.671955,31.4537088 C101.671955,31.8970233 101.639517,32.2105873 101.60708,32.4592759 L98.9564602,32.4592759 C99.0105229,33.6733709 99.4862751,34.246436 100.363636,34.246436 C100.979952,34.246436 101.336766,33.9097023 101.455704,33.7907643 L101.78008,34.4070796 C101.639517,34.56 101.217828,35.0249397 100.232341,35.0249397 L100.232341,35.0249397 Z" id="Fill-39" fill="#1A1919"></path>
            <path d="M103.595044,30.8914562 L103.595044,34.8951891 L102.719228,34.8951891 L102.719228,29.7020756 L103.519356,29.7020756 L103.519356,30.2859533 L103.540981,30.2859533 C103.638294,30.10214 104.103234,29.5707804 104.914175,29.5707804 C105.845599,29.5707804 106.429477,30.0805149 106.429477,31.4876911 L106.429477,34.8951891 L105.552116,34.8951891 L105.552116,31.5525664 C105.552116,30.6752051 105.261722,30.318391 104.654674,30.318391 C104.124859,30.318391 103.768045,30.6752051 103.595044,30.8914562" id="Fill-40" fill="#1A1919"></path>
            <path d="M108.244441,31.801255 L110.125825,31.801255 C110.136637,31.7255672 110.148994,31.5834594 110.148994,31.4228158 C110.148994,30.7076428 109.855511,30.2859533 109.304071,30.2859533 C108.687755,30.2859533 108.287691,30.8265809 108.244441,31.801255 Z M109.509509,35.0249397 C108.201191,35.0249397 107.379437,34.1923733 107.379437,32.233757 C107.379437,30.3940788 108.276879,29.5707804 109.358134,29.5707804 C110.34362,29.5707804 110.949123,30.2102655 110.949123,31.4537088 C110.949123,31.8970233 110.916685,32.2105873 110.884248,32.4592759 L108.233628,32.4592759 C108.287691,33.6733709 108.763443,34.246436 109.640805,34.246436 C110.255575,34.246436 110.613934,33.9097023 110.732872,33.7907643 L111.057249,34.4070796 C110.916685,34.56 110.494996,35.0249397 109.509509,35.0249397 L109.509509,35.0249397 Z" id="Fill-41" fill="#1A1919"></path>
            <polyline id="Fill-42" fill="#1A1919" points="58.7693001 38.8278681 55.5996782 44.906066 55.5996782 44.9292357 59.0396138 44.9292357 58.9747385 45.7077393 54.3871279 45.7077393 54.3871279 45.1238616 57.6540628 39.0116814 57.6540628 38.9885117 54.5601287 38.9885117 54.5601287 38.2424457 58.7693001 38.2424457 58.7693001 38.8278681"></polyline>
            <path d="M61.470893,45.8374899 C60.5518262,45.8374899 59.9772164,45.3293001 59.9772164,43.9221239 L59.9772164,40.5146259 L60.853033,40.5146259 L60.853033,43.8572486 C60.853033,44.7114401 61.1357039,45.0589863 61.7195817,45.0589863 C62.2493966,45.0589863 62.5953982,44.7006275 62.768399,44.4859212 L62.768399,40.5146259 L63.6457603,40.5146259 L63.6457603,45.7077393 L62.8440869,45.7077393 L62.8440869,45.1238616 L62.8224618,45.1238616 C62.7266935,45.307675 62.2602092,45.8374899 61.470893,45.8374899" id="Fill-43" fill="#1A1919"></path>
            <path d="M66.6933548,41.0876911 C66.1959775,41.0876911 65.774288,41.3796299 65.774288,42.1256959 C65.774288,42.8733065 66.1959775,43.1652454 66.6717297,43.1652454 C67.169107,43.1652454 67.5799839,42.8733065 67.5799839,42.1256959 C67.5799839,41.3796299 67.169107,41.0876911 66.6933548,41.0876911 Z M67.9599678,46.2360097 C67.9599678,45.740177 67.6124216,45.5440064 67.0826066,45.5440064 L66.423041,45.5440064 C66.2824779,45.5440064 66.1419147,45.5331939 66.0229767,45.5131134 C65.774288,45.6521319 65.4916171,45.9023652 65.4916171,46.4213677 C65.4916171,46.9728077 65.7959131,47.2554787 66.4122285,47.2554787 C67.4718584,47.2554787 67.9599678,46.7673693 67.9599678,46.2360097 Z M66.3473532,48 C65.2429284,48 64.6497828,47.4918101 64.6497828,46.5943685 C64.6497828,45.8266774 65.275366,45.457506 65.5147868,45.3293001 L65.5147868,45.307675 C65.2969912,45.1439421 65.1780531,44.906066 65.1780531,44.5816895 C65.1780531,44.0194368 65.6769751,43.8031858 65.8067257,43.7383105 L65.8067257,43.7166854 C65.275366,43.4664521 64.9185519,42.9474497 64.9185519,42.1256959 C64.9185519,40.9579405 65.7094127,40.3833307 66.6825422,40.3833307 C66.9312309,40.3833307 67.1582944,40.4281255 67.3745455,40.5146259 L68.9547224,40.5146259 L68.8357844,41.1958166 L68.1870314,41.1958166 C68.3492196,41.4553178 68.43572,41.7812389 68.43572,42.1256959 C68.43572,43.2301207 67.6556718,43.8896862 66.639292,43.8896862 C66.5419791,43.8896862 66.4554787,43.8896862 66.3689783,43.8788737 C66.1959775,43.9545615 65.9472888,44.0951247 65.9472888,44.3654385 C65.9472888,44.5816895 66.0986645,44.7346098 66.4771038,44.7346098 L67.1366693,44.7346098 C68.1221561,44.7346098 68.8574095,45.1238616 68.8574095,46.1062591 C68.8574095,47.2214964 67.8827353,48 66.3473532,48 L66.3473532,48 Z" id="Fill-44" fill="#1A1919"></path>
            <path d="M70.5194529,42.6138053 L72.4023813,42.6138053 C72.4131939,42.5381175 72.4240064,42.3960097 72.4240064,42.235366 C72.4240064,41.5201931 72.1320676,41.0985036 71.5806275,41.0985036 C70.9627675,41.0985036 70.5642478,41.6391311 70.5194529,42.6138053 Z M71.786066,45.8374899 C70.4762027,45.8374899 69.6544489,45.0049236 69.6544489,43.0463073 C69.6544489,41.2066291 70.5518906,40.3833307 71.6346903,40.3833307 C72.6186323,40.3833307 73.2241352,41.0228158 73.2241352,42.2662591 C73.2241352,42.7095736 73.1916975,43.0231376 73.1592599,43.2718262 L70.5086404,43.2718262 C70.5642478,44.4859212 71.04,45.0589863 71.9158166,45.0589863 C72.5321319,45.0589863 72.8889461,44.7222526 73.0078842,44.6033146 L73.3338053,45.2196299 C73.1916975,45.3725503 72.770008,45.8374899 71.786066,45.8374899 L71.786066,45.8374899 Z" id="Fill-45" fill="#1A1919"></path>
            <path d="M80.4484634,40.5146259 L78.8698311,45.7077393 L78.0897828,45.7077393 L77.5599678,43.8896862 C77.4085921,43.3706838 77.2788415,42.9273693 77.2572164,42.5257603 L77.2355913,42.5257603 C77.2139662,42.9273693 77.0625905,43.3923089 76.8895897,43.9004988 L76.2948994,45.7077393 L75.5488335,45.7077393 L73.9145937,40.5146259 L74.8552856,40.5146259 L75.6337892,43.4571842 C75.775897,43.9978117 75.9056476,44.473564 75.9149155,44.8844409 L75.9380853,44.8844409 C75.9797908,44.4627514 76.1327112,44.0194368 76.305712,43.4896219 L76.8679646,41.7905068 L76.4787128,40.5146259 L77.386967,40.5146259 L78.1762832,43.3814964 C78.3384714,43.9653741 78.4898471,44.5060016 78.5022043,44.8844409 L78.5222848,44.8844409 C78.5454545,44.5060016 78.684473,43.9545615 78.8373934,43.3814964 L79.6050845,40.5146259 L80.4484634,40.5146259" id="Fill-46" fill="#1A1919"></path>
            <path d="M83.1933065,43.4463717 C82.3607401,43.4788093 81.9174256,43.7166854 81.9174256,44.2897506 C81.9174256,44.8195656 82.1769268,45.0898793 82.6094288,45.0898793 C83.1176187,45.0898793 83.3663073,44.7454224 83.4744328,44.5816895 L83.4744328,43.4355591 L83.1933065,43.4463717 Z M83.4744328,42.2894288 C83.4744328,41.4120676 83.1500563,41.1309413 82.5878037,41.1309413 C82.0672566,41.1309413 81.721255,41.4228801 81.5266291,41.5958809 L81.1590024,41.0120032 C81.386066,40.7849397 81.8834433,40.3833307 82.7175543,40.3833307 C83.7771842,40.3833307 84.3409815,40.9471279 84.3409815,42.2554465 L84.3409815,44.6249397 C84.3409815,45.0697989 84.382687,45.5671762 84.4058568,45.7077393 L83.5717458,45.7077393 C83.5609332,45.5563636 83.5501207,45.3926307 83.5393081,45.1346742 L83.517683,45.1346742 C83.398745,45.3926307 83.085181,45.8374899 82.4256154,45.8374899 C81.6362993,45.8374899 81.0400644,45.2304425 81.0400644,44.3870636 C81.0400644,43.1868705 82.0255511,42.7868061 83.2041191,42.7868061 L83.4744328,42.7868061 L83.4744328,42.2894288 L83.4744328,42.2894288 Z" id="Fill-47" fill="#1A1919"></path>
            <path d="M86.6625905,41.7040064 L86.6625905,45.7077393 L85.7867739,45.7077393 L85.7867739,40.5146259 L86.5884473,40.5146259 L86.5884473,41.0985036 L86.6085278,41.0985036 C86.7073854,40.9146903 87.172325,40.3833307 87.9832663,40.3833307 C88.9146903,40.3833307 89.4970233,40.8930652 89.4970233,42.3002414 L89.4970233,45.7077393 L88.6212068,45.7077393 L88.6212068,42.3651167 C88.6212068,41.4877554 88.3292679,41.1309413 87.7237651,41.1309413 C87.1939501,41.1309413 86.837136,41.4877554 86.6625905,41.7040064" id="Fill-48" fill="#1A1919"></path>
            <path d="M93.7247305,44.5507965 L93.7247305,41.3471923 C93.5733548,41.2498793 93.3679163,41.1633789 93.0543524,41.1633789 C92.2434111,41.1633789 91.6054706,41.6823813 91.6054706,43.1528882 C91.6054706,44.5816895 92.1460981,45.0589863 92.751601,45.0589863 C93.303041,45.0589863 93.6057924,44.7222526 93.7247305,44.5507965 Z M92.5137249,45.8374899 C91.5282381,45.8374899 90.6956718,45.0790668 90.6956718,43.1868705 C90.6956718,41.0876911 91.8865969,40.417313 92.9894771,40.417313 C93.3246661,40.417313 93.5625422,40.4821883 93.7247305,40.5470636 L93.7247305,38.0570877 L94.6020917,37.9613194 L94.6020917,45.7077393 L93.8004183,45.7077393 L93.8004183,45.1547546 L93.7787932,45.1547546 C93.6830249,45.3184875 93.3354787,45.8374899 92.5137249,45.8374899 L92.5137249,45.8374899 Z" id="Fill-49" fill="#1A1919"></path>
            <path d="M96.6966372,42.6138053 L98.5795656,42.6138053 C98.5903781,42.5381175 98.6011907,42.3960097 98.6011907,42.235366 C98.6011907,41.5201931 98.3092518,41.0985036 97.7578117,41.0985036 C97.1399517,41.0985036 96.7398874,41.6391311 96.6966372,42.6138053 Z M97.9617056,45.8374899 C96.653387,45.8374899 95.8316331,45.0049236 95.8316331,43.0463073 C95.8316331,41.2066291 96.7290748,40.3833307 97.8118745,40.3833307 C98.7958166,40.3833307 99.4013194,41.0228158 99.4013194,42.2662591 C99.4013194,42.7095736 99.3688817,43.0231376 99.3364441,43.2718262 L96.6858246,43.2718262 C96.7398874,44.4859212 97.2171842,45.0589863 98.0930008,45.0589863 C98.7093162,45.0589863 99.0661303,44.7222526 99.1850684,44.6033146 L99.5094449,45.2196299 C99.3688817,45.3725503 98.9471923,45.8374899 97.9617056,45.8374899 L97.9617056,45.8374899 Z" id="Fill-50" fill="#1A1919"></path>
            <path d="M102.980274,41.282317 C102.937023,41.2606919 102.785648,41.1958166 102.547772,41.1958166 C101.996331,41.1958166 101.702848,41.5526307 101.573097,41.900177 L101.573097,45.7077393 L100.697281,45.7077393 L100.697281,40.5146259 L101.497409,40.5146259 L101.497409,41.2174417 L101.519035,41.2174417 C101.67041,40.8065648 101.951537,40.417313 102.612647,40.417313 C102.861335,40.417313 103.001899,40.4713757 103.088399,40.5022687 L102.980274,41.282317" id="Fill-51" fill="#1A1919"></path>
            <path d="M105.519678,45.8374899 C104.633049,45.8374899 104.178922,45.3725503 104.178922,44.2248753 L104.178922,41.2282542 L103.551794,41.2282542 L103.551794,40.6443765 L104.178922,40.5146259 L104.276235,39.0641995 L105.054739,39.0641995 L105.054739,40.5146259 L106.298182,40.5146259 L106.191601,41.2282542 L105.054739,41.2282542 L105.054739,44.1059372 C105.054739,44.8411907 105.227739,45.0589863 105.671054,45.0589863 C105.9321,45.0589863 106.126726,44.9601287 106.211681,44.906066 L106.330619,45.6088817 C106.256476,45.6629445 105.984618,45.8374899 105.519678,45.8374899" id="Fill-52" fill="#1A1919"></path>
            <path d="M107.866002,42.6138053 L109.74893,42.6138053 C109.759743,42.5381175 109.770555,42.3960097 109.770555,42.235366 C109.770555,41.5201931 109.477072,41.0985036 108.927176,41.0985036 C108.309316,41.0985036 107.909252,41.6391311 107.866002,42.6138053 Z M109.13107,45.8374899 C107.822751,45.8374899 107.000998,45.0049236 107.000998,43.0463073 C107.000998,41.2066291 107.898439,40.3833307 108.981239,40.3833307 C109.965181,40.3833307 110.570684,41.0228158 110.570684,42.2662591 C110.570684,42.7095736 110.538246,43.0231376 110.505809,43.2718262 L107.855189,43.2718262 C107.909252,44.4859212 108.385004,45.0589863 109.262365,45.0589863 C109.878681,45.0589863 110.235495,44.7222526 110.354433,44.6033146 L110.678809,45.2196299 C110.538246,45.3725503 110.116557,45.8374899 109.13107,45.8374899 L109.13107,45.8374899 Z" id="Fill-53" fill="#1A1919"></path>
        </g>
    </g>
</svg>