<svg id="Layer_1" data-name="Layer 1" xmlns="http://www.w3.org/2000/svg" xmlns:xlink="http://www.w3.org/1999/xlink" viewBox="0 0 169.78 39.8"><defs><style>.cls-1{fill:none;}.cls-2{fill:#0054a6;}.cls-3{clip-path:url(#clip-path);}.cls-4{fill:#c0d735;}.cls-5{fill:#ed1b2f;}.cls-6{fill:#00abe6;}.cls-7{fill:#90b43e;}.cls-8{fill:#f99d1c;}.cls-9{fill:#fd0;}</style><clipPath id="clip-path" transform="translate(-6.71 -2.63)"><path class="cls-1" d="M142.65,28.56c-3.92.35-15.92,1.19-23.24-2.85l-8.74,1.51,4.87-6.13a6.79,6.79,0,0,1-.66-2.5c-.2-3.11,1.87-5.79,4.55-7.61,5-3.37,13.67-5.28,21.58-5.88,10.55-.81,15,3.28,15.59,10.25S151.2,27.78,142.65,28.56Z"/></clipPath></defs><title>Logo_PartInt_2018</title><path class="cls-2" d="M8.37,17.28h2.38a4.08,4.08,0,0,1,.93.1,2.12,2.12,0,0,1,.8.33,1.66,1.66,0,0,1,.55.62,1.94,1.94,0,0,1,.21,1,3.45,3.45,0,0,1-.3,1.49,3.16,3.16,0,0,1-.8,1.06,3.54,3.54,0,0,1-1.14.64,4.32,4.32,0,0,1-1.34.21H9l-.61,3.17H6.71Zm1.38,1.33-.53,2.74h.5a1.87,1.87,0,0,0,1.3-.47,1.67,1.67,0,0,0,.51-1.3.8.8,0,0,0-.35-.76,1.78,1.78,0,0,0-.93-.21Z" transform="translate(-6.71 -2.63)"/><path class="cls-2" d="M18.32,24.1v1.75H16.75v-.68a4.26,4.26,0,0,1-.54.41,3.43,3.43,0,0,1-.54.29,1.67,1.67,0,0,1-.62.12,1.38,1.38,0,0,1-1.15-.55,2.47,2.47,0,0,1-.42-1.52,6.18,6.18,0,0,1,.23-1.7,4.35,4.35,0,0,1,.65-1.37,3.27,3.27,0,0,1,1-.92,2.71,2.71,0,0,1,1.33-.34l.48,0,.46.05.54.05.72,0v1.41Zm-2.72.54a.92.92,0,0,0,.42-.1,2.36,2.36,0,0,0,.38-.22,2.8,2.8,0,0,0,.38-.33l.57-3-.23,0-.26,0-.3,0a.88.88,0,0,0-.61.26,2.28,2.28,0,0,0-.47.67,4.51,4.51,0,0,0-.31.92,5.05,5.05,0,0,0-.11,1,1.41,1.41,0,0,0,.12.63A.43.43,0,0,0,15.6,24.64Z" transform="translate(-6.71 -2.63)"/><path class="cls-2" d="M22,20.22a4.63,4.63,0,0,1,.7-.36,4.42,4.42,0,0,1,.7-.22,2.21,2.21,0,0,1,.77,0v1.51a2.4,2.4,0,0,0-.76-.06,3.83,3.83,0,0,0-.72.14,4.89,4.89,0,0,0-.76.27l-.85,4.38H19.5l1.18-6.12H22Z" transform="translate(-6.71 -2.63)"/><path class="cls-2" d="M28.52,21H27.2l-.51,2.67a1.17,1.17,0,0,0,0,.71c.08.15.26.22.55.22a1.51,1.51,0,0,0,.39,0,1.08,1.08,0,0,0,.19,0v1.32l-.34.05-.33,0h-.39a1.64,1.64,0,0,1-1.47-.58,2,2,0,0,1-.21-1.58L25.63,21h-.72V19.73h1l.48-2.45h1.3v1.41l-.21,1h1.06Z" transform="translate(-6.71 -2.63)"/><path class="cls-2" d="M30.28,25.85H28.71l1.19-6.12h1.29v1.41Zm-.3-8a1,1,0,0,1,.09-.42,1,1,0,0,1,.23-.34,1,1,0,0,1,1.52,0,1.13,1.13,0,0,1,.23.34,1,1,0,0,1,.09.42,1,1,0,0,1-.09.41,1.18,1.18,0,0,1-.23.35,1.36,1.36,0,0,1-.34.23,1.14,1.14,0,0,1-.84,0,1.36,1.36,0,0,1-.34-.23,1,1,0,0,1-.23-.35A1,1,0,0,1,30,17.87Z" transform="translate(-6.71 -2.63)"/><path class="cls-2" d="M32.16,25.85l-.29-1.24L35,21.12h-2.2V19.73h3.92L37,21,34,24.46h2.5v1.39Z" transform="translate(-6.71 -2.63)"/><path class="cls-2" d="M39.1,25.85H37.53l1.19-6.12H40v1.41Zm-.3-8a1,1,0,0,1,.09-.42,1,1,0,0,1,.23-.34,1,1,0,0,1,.76-.32,1.2,1.2,0,0,1,.42.08,1.16,1.16,0,0,1,.34.24,1.13,1.13,0,0,1,.23.34,1,1,0,0,1,.09.42,1,1,0,0,1-.09.41,1.18,1.18,0,0,1-.23.35,1.36,1.36,0,0,1-.34.23,1,1,0,0,1-.42.08,1,1,0,0,1-.42-.08,1.36,1.36,0,0,1-.34-.23,1,1,0,0,1-.23-.35A1,1,0,0,1,38.8,17.87Z" transform="translate(-6.71 -2.63)"/><path class="cls-2" d="M41.81,19.73h1.3v.49a3.6,3.6,0,0,1,.54-.31,4.65,4.65,0,0,1,.54-.22,1.89,1.89,0,0,1,.56-.1,1.35,1.35,0,0,1,1.15.56,2.49,2.49,0,0,1,.41,1.51,6.18,6.18,0,0,1-.23,1.7,4.14,4.14,0,0,1-.65,1.37,3.15,3.15,0,0,1-1,.92,2.61,2.61,0,0,1-1.33.34,3.33,3.33,0,0,1-.46,0l-.45-.05-.46,2.39h-1.3V26.89Zm2.38,1.21a1,1,0,0,0-.37.07,3,3,0,0,0-.36.14,3,3,0,0,0-.4.21l-.62,3.24.23,0a3,3,0,0,0,.56,0,.87.87,0,0,0,.61-.26,2,2,0,0,0,.47-.67,4,4,0,0,0,.31-.92,5,5,0,0,0,.11-1,1.41,1.41,0,0,0-.12-.63A.41.41,0,0,0,44.19,20.94Z" transform="translate(-6.71 -2.63)"/><path class="cls-2" d="M51.83,24.1v1.75H50.27v-.68a4.26,4.26,0,0,1-.54.41,4.07,4.07,0,0,1-.55.29,1.63,1.63,0,0,1-.62.12,1.38,1.38,0,0,1-1.15-.55A2.47,2.47,0,0,1,47,23.92a6.18,6.18,0,0,1,.22-1.7,4.35,4.35,0,0,1,.65-1.37,3.19,3.19,0,0,1,1-.92,2.68,2.68,0,0,1,1.33-.34l.47,0,.46.05.54.05.72,0v1.41Zm-2.72.54a.92.92,0,0,0,.42-.1,2,2,0,0,0,.38-.22,2.3,2.3,0,0,0,.38-.33l.58-3-.24,0-.25,0-.31,0a.9.9,0,0,0-.61.26,2.28,2.28,0,0,0-.47.67,4,4,0,0,0-.3.92,4.43,4.43,0,0,0-.11,1,1.42,1.42,0,0,0,.11.63A.43.43,0,0,0,49.11,24.64Z" transform="translate(-6.71 -2.63)"/><path class="cls-2" d="M57.24,21H55.91l-.51,2.67a1.08,1.08,0,0,0,0,.71c.08.15.26.22.54.22a1.64,1.64,0,0,0,.4,0,1.13,1.13,0,0,0,.18,0v1.32l-.33.05-.34,0h-.38A1.66,1.66,0,0,1,54,25.41a2,2,0,0,1-.2-1.58L54.35,21h-.73V19.73h1l.48-2.45h1.3v1.41l-.21,1h1.07Z" transform="translate(-6.71 -2.63)"/><path class="cls-2" d="M59,25.85H57.42l1.19-6.12h1.3v1.41Zm-.3-8a1,1,0,0,1,.09-.42,1.13,1.13,0,0,1,.23-.34,1.21,1.21,0,0,1,.35-.24,1.15,1.15,0,0,1,.41-.08,1.07,1.07,0,0,1,1.08,1.08,1.15,1.15,0,0,1-.08.41,1.21,1.21,0,0,1-.24.35,1.36,1.36,0,0,1-.34.23,1,1,0,0,1-.42.08,1,1,0,0,1-.41-.08,1.41,1.41,0,0,1-.35-.23,1.18,1.18,0,0,1-.23-.35A1,1,0,0,1,58.69,17.87Z" transform="translate(-6.71 -2.63)"/><path class="cls-2" d="M60.69,23.92a6.52,6.52,0,0,1,.18-1.49,4.72,4.72,0,0,1,.59-1.4,3.31,3.31,0,0,1,1-1A2.63,2.63,0,0,1,64,19.59a2.56,2.56,0,0,1,1.65.5,1.88,1.88,0,0,1,.63,1.57A6,6,0,0,1,66,23.14a4.46,4.46,0,0,1-.58,1.4,3.45,3.45,0,0,1-1,1A2.67,2.67,0,0,1,63,26a2.56,2.56,0,0,1-1.65-.5A1.87,1.87,0,0,1,60.69,23.92Zm3.14-3a.89.89,0,0,0-.67.3,2.72,2.72,0,0,0-.48.73,4.29,4.29,0,0,0-.28.9,4.53,4.53,0,0,0-.09.82,1.26,1.26,0,0,0,.19.79.72.72,0,0,0,.59.24.85.85,0,0,0,.66-.3,2.38,2.38,0,0,0,.48-.72,4.49,4.49,0,0,0,.28-.9,3.8,3.8,0,0,0,.1-.83,1.28,1.28,0,0,0-.19-.79A.73.73,0,0,0,63.83,20.9Z" transform="translate(-6.71 -2.63)"/><path class="cls-2" d="M69.22,20.22a3.29,3.29,0,0,1,.59-.31,4.92,4.92,0,0,1,.59-.22,2.68,2.68,0,0,1,.69-.1,1.72,1.72,0,0,1,.76.15,1.16,1.16,0,0,1,.47.4,1.26,1.26,0,0,1,.2.59,2.15,2.15,0,0,1,0,.71L72,24.1v1.75H70.39V24.1l.44-2.25a1,1,0,0,0,0-.61c-.06-.14-.21-.2-.45-.2a1.25,1.25,0,0,0-.4.07,2.74,2.74,0,0,0-.4.15l-.44.21-.84,4.38H66.73l1.19-6.12h1.3Z" transform="translate(-6.71 -2.63)"/><path class="cls-2" d="M77.89,21.08,77.3,21l-.56-.08a3.86,3.86,0,0,0-.58,0,1,1,0,0,0-.66.18.59.59,0,0,0-.19.43.41.41,0,0,0,.16.36,1.77,1.77,0,0,0,.41.24l.53.21a2.23,2.23,0,0,1,.54.31,1.69,1.69,0,0,1,.41.55,2.08,2.08,0,0,1,.16.89,1.93,1.93,0,0,1-.18.87,1.7,1.7,0,0,1-.51.62,2.31,2.31,0,0,1-.77.38,3.6,3.6,0,0,1-1,.12l-.65,0-.61-.08c-.23,0-.45-.08-.67-.12v-1.4c.22.06.45.11.68.15a5.12,5.12,0,0,0,.62.09,4.84,4.84,0,0,0,.63,0l.29,0a.94.94,0,0,0,.28-.1.8.8,0,0,0,.21-.2A.57.57,0,0,0,76,24a.49.49,0,0,0-.15-.38,1.5,1.5,0,0,0-.41-.25l-.52-.21a2.31,2.31,0,0,1-.52-.31,1.59,1.59,0,0,1-.4-.54,2,2,0,0,1-.16-.88,1.55,1.55,0,0,1,.19-.78,1.83,1.83,0,0,1,.53-.58,2.53,2.53,0,0,1,.76-.35,2.9,2.9,0,0,1,.89-.13c.24,0,.46,0,.68,0l.55.07.5.09Z" transform="translate(-6.71 -2.63)"/><path class="cls-2" d="M82.25,21.19v.46l-.17.87H79.26v-.46l.17-.87Z" transform="translate(-6.71 -2.63)"/><path class="cls-2" d="M88,19.73V24a3.93,3.93,0,0,0,0,.52,1.11,1.11,0,0,0,.14.4.68.68,0,0,0,.29.24,1.13,1.13,0,0,0,.49.09,2.48,2.48,0,0,0,.65-.09,4.18,4.18,0,0,0,.6-.22,3.55,3.55,0,0,0,.61-.32V19.73h.88v6.12h-.67L91,25.24a5.7,5.7,0,0,1-.69.37,4.88,4.88,0,0,1-.68.24,2.54,2.54,0,0,1-.76.11A1.87,1.87,0,0,1,88,25.8a1.24,1.24,0,0,1-.51-.41,1.51,1.51,0,0,1-.24-.55,3,3,0,0,1-.06-.59V19.73Z" transform="translate(-6.71 -2.63)"/><path class="cls-2" d="M97.55,25.85V21.61a2.79,2.79,0,0,0,0-.53.86.86,0,0,0-.14-.39.65.65,0,0,0-.29-.25,1.08,1.08,0,0,0-.48-.09,2.44,2.44,0,0,0-.65.1,5.11,5.11,0,0,0-.6.22,4.48,4.48,0,0,0-.62.31v4.87h-.88V19.73h.67l.13.61a6.24,6.24,0,0,1,.68-.35c.21-.09.44-.18.69-.26a2.79,2.79,0,0,1,.76-.11,1.9,1.9,0,0,1,.85.16,1.21,1.21,0,0,1,.5.41,1.42,1.42,0,0,1,.24.55,3,3,0,0,1,.06.59v4.52Z" transform="translate(-6.71 -2.63)"/><path class="cls-2" d="M104.09,25.85l-.12-.61a7,7,0,0,1-.64.37,5.36,5.36,0,0,1-.6.24,1.82,1.82,0,0,1-.63.11,1.72,1.72,0,0,1-1.49-.73,4,4,0,0,1-.52-2.32,5.24,5.24,0,0,1,.19-1.53,3.28,3.28,0,0,1,.5-1,1.7,1.7,0,0,1,.67-.57,1.6,1.6,0,0,1,.72-.18,2.4,2.4,0,0,1,.74.11,2.94,2.94,0,0,1,.56.24,2.53,2.53,0,0,1,.47.36l-.06-.72V16.54h.89v9.31Zm-.21-4.79a1.57,1.57,0,0,0-.38-.34,2,2,0,0,0-.49-.24,2,2,0,0,0-.68-.1,1.09,1.09,0,0,0-1,.65,3.51,3.51,0,0,0-.38,1.76,7.19,7.19,0,0,0,.07,1,2.87,2.87,0,0,0,.21.76,1.1,1.1,0,0,0,.4.49,1,1,0,0,0,.6.17,1.71,1.71,0,0,0,.5-.09,4.18,4.18,0,0,0,.53-.21,5.45,5.45,0,0,0,.58-.31Z" transform="translate(-6.71 -2.63)"/><path class="cls-2" d="M8.35,39.85H6.71l1.66-8.57H9.75v1.41Z" transform="translate(-6.71 -2.63)"/><path class="cls-2" d="M12.39,34.22a3.66,3.66,0,0,1,.59-.31,5.87,5.87,0,0,1,.6-.22,2.61,2.61,0,0,1,.69-.1,1.67,1.67,0,0,1,.75.15,1.13,1.13,0,0,1,.48.4,1.38,1.38,0,0,1,.2.59,2.48,2.48,0,0,1,0,.71l-.53,2.66v1.75H13.57V38.1L14,35.85a1.09,1.09,0,0,0,0-.61c-.06-.14-.21-.2-.45-.2a1.15,1.15,0,0,0-.39.07,2.08,2.08,0,0,0-.4.15c-.15.07-.3.13-.44.21l-.85,4.38H9.9l1.19-6.12h1.3Z" transform="translate(-6.71 -2.63)"/><path class="cls-2" d="M20.54,35H19.21l-.51,2.67a1.08,1.08,0,0,0,0,.71c.08.15.26.22.54.22a1.64,1.64,0,0,0,.4,0l.18,0v1.32l-.33,0-.34,0h-.38a1.66,1.66,0,0,1-1.48-.58,2,2,0,0,1-.2-1.58L17.65,35h-.73V33.73h1l.48-2.45h1.3v1.41l-.21,1h1.07Z" transform="translate(-6.71 -2.63)"/><path class="cls-2" d="M25.31,39.5a6.42,6.42,0,0,1-.66.24,4.5,4.5,0,0,1-.66.17,4.67,4.67,0,0,1-.76.07,2.44,2.44,0,0,1-1.68-.57,2.2,2.2,0,0,1-.65-1.74A4.92,4.92,0,0,1,21.17,36a4.44,4.44,0,0,1,.71-1.29,3.19,3.19,0,0,1,1-.83,2.57,2.57,0,0,1,1.2-.3,3.79,3.79,0,0,1,.77.08,1.72,1.72,0,0,1,.65.27,1.42,1.42,0,0,1,.44.5,1.65,1.65,0,0,1,.16.77,2.23,2.23,0,0,1-.29,1.19,2,2,0,0,1-.74.69,2.82,2.82,0,0,1-1,.34,6.9,6.9,0,0,1-1,.08h-.7v.15a1.17,1.17,0,0,0,.2.71.81.81,0,0,0,.72.28,3.85,3.85,0,0,0,.69-.06l.62-.13a6.45,6.45,0,0,0,.62-.21Zm-1.92-3.17a2,2,0,0,0,.4,0,1.68,1.68,0,0,0,.39-.16,1.15,1.15,0,0,0,.3-.28.82.82,0,0,0,.11-.42.55.55,0,0,0-.15-.4.58.58,0,0,0-.42-.15,1,1,0,0,0-.47.12,1.34,1.34,0,0,0-.39.32,1.89,1.89,0,0,0-.3.47,2.27,2.27,0,0,0-.2.55Z" transform="translate(-6.71 -2.63)"/><path class="cls-2" d="M31.28,39.85A4.19,4.19,0,0,1,31,40.92a2.42,2.42,0,0,1-.59.81,2.36,2.36,0,0,1-.92.52,4.13,4.13,0,0,1-1.34.19c-.29,0-.55,0-.79,0a4.65,4.65,0,0,1-.61-.06c-.21,0-.39-.05-.55-.08V40.86a4.9,4.9,0,0,0,.6.12c.18,0,.38.06.62.08s.47,0,.73,0a2.8,2.8,0,0,0,.48-.05,1.78,1.78,0,0,0,.48-.19,1.33,1.33,0,0,0,.39-.36,1.2,1.2,0,0,0,.24-.55l.21-.65a3.24,3.24,0,0,1-.49.36,3,3,0,0,1-.51.23,1.6,1.6,0,0,1-.57.11,1.38,1.38,0,0,1-1.15-.55,2.54,2.54,0,0,1-.41-1.52,6.18,6.18,0,0,1,.23-1.7,4.35,4.35,0,0,1,.65-1.37,3.27,3.27,0,0,1,1-.92A2.71,2.71,0,0,1,30,33.59l.43,0,.42,0,.54.05.81,0v1.41Zm-2.39-1.21a.92.92,0,0,0,.42-.1,2.36,2.36,0,0,0,.38-.22,2.8,2.8,0,0,0,.38-.33l.57-3-.23,0-.26,0-.3,0a.88.88,0,0,0-.61.26,2.28,2.28,0,0,0-.47.67,4.51,4.51,0,0,0-.31.92,5.05,5.05,0,0,0-.11,1,1.41,1.41,0,0,0,.12.63A.43.43,0,0,0,28.89,38.64Z" transform="translate(-6.71 -2.63)"/><path class="cls-2" d="M35.27,34.22a4.63,4.63,0,0,1,.7-.36,4.42,4.42,0,0,1,.7-.22,2.21,2.21,0,0,1,.77,0v1.51a2.4,2.4,0,0,0-.76-.06,3.83,3.83,0,0,0-.72.14,4.89,4.89,0,0,0-.76.27l-.85,4.38H32.79L34,33.73h1.29Z" transform="translate(-6.71 -2.63)"/><path class="cls-2" d="M42.49,38.1v1.75H40.92v-.68a4.26,4.26,0,0,1-.54.41,3.43,3.43,0,0,1-.54.29,1.67,1.67,0,0,1-.62.12,1.37,1.37,0,0,1-1.15-.55,2.47,2.47,0,0,1-.42-1.52,6.18,6.18,0,0,1,.23-1.7,4.14,4.14,0,0,1,.65-1.37,3.27,3.27,0,0,1,1-.92,2.71,2.71,0,0,1,1.33-.34l.48,0,.46,0,.54.05.71,0v1.41Zm-2.72.54a.92.92,0,0,0,.42-.1,2.88,2.88,0,0,0,.38-.22A2.8,2.8,0,0,0,41,38l.57-3-.23,0-.26,0-.3,0a.87.87,0,0,0-.61.26,2.28,2.28,0,0,0-.47.67,4,4,0,0,0-.31.92,5.05,5.05,0,0,0-.11,1,1.41,1.41,0,0,0,.12.63A.41.41,0,0,0,39.77,38.64Z" transform="translate(-6.71 -2.63)"/><path class="cls-2" d="M47.89,35H46.57l-.52,2.67a1.15,1.15,0,0,0,0,.71c.08.15.26.22.55.22a1.61,1.61,0,0,0,.39,0l.18,0v1.32l-.33,0-.34,0h-.38a1.67,1.67,0,0,1-1.48-.58,2.05,2.05,0,0,1-.2-1.58L45,35h-.72V33.73h1l.47-2.45H47v1.41l-.21,1h1.07Z" transform="translate(-6.71 -2.63)"/><path class="cls-2" d="M49.64,39.85H48.07l1.19-6.12h1.3v1.41Zm-.29-8a1,1,0,0,1,.32-.76,1,1,0,0,1,.34-.24,1.16,1.16,0,0,1,.42-.08,1.15,1.15,0,0,1,.41.08,1.21,1.21,0,0,1,.35.24,1.36,1.36,0,0,1,.23.34,1,1,0,0,1,.08.42,1,1,0,0,1-.08.41,1,1,0,0,1-.58.58,1,1,0,0,1-.41.08,1,1,0,0,1-.42-.08,1.2,1.2,0,0,1-.34-.23,1.21,1.21,0,0,1-.24-.35A1.15,1.15,0,0,1,49.35,31.87Z" transform="translate(-6.71 -2.63)"/><path class="cls-2" d="M51.34,37.92a6.54,6.54,0,0,1,.19-1.49,4.46,4.46,0,0,1,.58-1.4,3.42,3.42,0,0,1,1-1,2.94,2.94,0,0,1,3.14.09,1.91,1.91,0,0,1,.62,1.57,6.43,6.43,0,0,1-.18,1.48,5,5,0,0,1-.58,1.4,3.61,3.61,0,0,1-1,1,2.65,2.65,0,0,1-1.48.41,2.6,2.6,0,0,1-1.65-.5A1.87,1.87,0,0,1,51.34,37.92Zm3.14-3a.91.91,0,0,0-.67.3,2.48,2.48,0,0,0-.47.73,3.79,3.79,0,0,0-.29.9,4.53,4.53,0,0,0-.09.82,1.25,1.25,0,0,0,.2.79.71.71,0,0,0,.59.24.88.88,0,0,0,.66-.3,2.56,2.56,0,0,0,.47-.72,4.51,4.51,0,0,0,.29-.9,4.45,4.45,0,0,0,.09-.83,1.28,1.28,0,0,0-.19-.79A.72.72,0,0,0,54.48,34.9Z" transform="translate(-6.71 -2.63)"/><path class="cls-2" d="M59.87,34.22a3.66,3.66,0,0,1,.59-.31,5.87,5.87,0,0,1,.6-.22,2.61,2.61,0,0,1,.69-.1,1.67,1.67,0,0,1,.75.15,1.13,1.13,0,0,1,.48.4,1.38,1.38,0,0,1,.2.59,2.48,2.48,0,0,1,0,.71l-.53,2.66v1.75H61.05V38.1l.44-2.25a1,1,0,0,0,0-.61c-.06-.14-.21-.2-.45-.2a1.15,1.15,0,0,0-.39.07,2.08,2.08,0,0,0-.4.15c-.15.07-.3.13-.44.21L59,39.85H57.38l1.19-6.12h1.3Z" transform="translate(-6.71 -2.63)"/><path class="cls-2" d="M68.54,35.08,68,35l-.56-.08a4,4,0,0,0-.58,0,1,1,0,0,0-.67.18.59.59,0,0,0-.19.43.41.41,0,0,0,.16.36,1.77,1.77,0,0,0,.41.24l.54.21a2.17,2.17,0,0,1,.53.31,1.69,1.69,0,0,1,.41.55,2.08,2.08,0,0,1,.17.89,1.93,1.93,0,0,1-.19.87,1.7,1.7,0,0,1-.51.62,2.26,2.26,0,0,1-.76.38,3.74,3.74,0,0,1-1,.12l-.64,0-.62-.08-.66-.12v-1.4c.22.06.44.1.67.15a5.3,5.3,0,0,0,.63.09,4.59,4.59,0,0,0,.62,0l.29,0a1.33,1.33,0,0,0,.28-.1.58.58,0,0,0,.21-.2.57.57,0,0,0,.08-.31.46.46,0,0,0-.16-.38,1.36,1.36,0,0,0-.41-.25l-.52-.21a2.55,2.55,0,0,1-.52-.31,1.73,1.73,0,0,1-.4-.54,2,2,0,0,1-.16-.88,1.56,1.56,0,0,1,.2-.78,1.8,1.8,0,0,1,.52-.58,2.65,2.65,0,0,1,.76-.35,3,3,0,0,1,.9-.13c.23,0,.46,0,.67,0l.55.07.5.09Z" transform="translate(-6.71 -2.63)"/><path class="cls-2" d="M70.25,33.73h1.29v.49a5,5,0,0,1,.54-.31,5.51,5.51,0,0,1,.54-.22,1.9,1.9,0,0,1,.57-.1,1.33,1.33,0,0,1,1.14.56,2.49,2.49,0,0,1,.41,1.51,6.18,6.18,0,0,1-.22,1.7,4.58,4.58,0,0,1-.65,1.37,3.29,3.29,0,0,1-1,.92,2.61,2.61,0,0,1-1.33.34,3.33,3.33,0,0,1-.46,0l-.45-.05-.46,2.39h-1.3V40.89Zm2.37,1.21a1,1,0,0,0-.36.07,2.61,2.61,0,0,0-.37.14l-.39.21-.63,3.24.23,0a3,3,0,0,0,.57,0,.86.86,0,0,0,.6-.26,2,2,0,0,0,.47-.67,3.55,3.55,0,0,0,.31-.92,5,5,0,0,0,.11-1,1.58,1.58,0,0,0-.11-.63A.44.44,0,0,0,72.62,34.94Z" transform="translate(-6.71 -2.63)"/><path class="cls-2" d="M77.73,34.22a4.2,4.2,0,0,1,.7-.36,4.12,4.12,0,0,1,.7-.22,2.21,2.21,0,0,1,.77,0v1.51a2.42,2.42,0,0,0-.76-.06,3.83,3.83,0,0,0-.72.14,4.55,4.55,0,0,0-.76.27l-.85,4.38H75.24l1.19-6.12h1.3Z" transform="translate(-6.71 -2.63)"/><path class="cls-2" d="M80.11,37.92a6.52,6.52,0,0,1,.18-1.49,4.7,4.7,0,0,1,.58-1.4,3.54,3.54,0,0,1,1-1,2.66,2.66,0,0,1,1.49-.41,2.6,2.6,0,0,1,1.65.5,1.88,1.88,0,0,1,.62,1.57,6.43,6.43,0,0,1-.18,1.48,4.7,4.7,0,0,1-.58,1.4,3.61,3.61,0,0,1-1,1,2.93,2.93,0,0,1-3.13-.09A1.87,1.87,0,0,1,80.11,37.92Zm3.13-3a.88.88,0,0,0-.66.3,2.32,2.32,0,0,0-.48.73,3.78,3.78,0,0,0-.28.9,3.86,3.86,0,0,0-.1.82,1.25,1.25,0,0,0,.2.79.72.72,0,0,0,.59.24.88.88,0,0,0,.66-.3,2.36,2.36,0,0,0,.47-.72A4.65,4.65,0,0,0,84,35.93a1.27,1.27,0,0,0-.2-.79A.72.72,0,0,0,83.24,34.9Z" transform="translate(-6.71 -2.63)"/><path class="cls-2" d="M90.87,39.85a4.19,4.19,0,0,1-.33,1.07,2.4,2.4,0,0,1-.58.81,2.47,2.47,0,0,1-.93.52,4.08,4.08,0,0,1-1.34.19q-.43,0-.78,0a4.83,4.83,0,0,1-.62-.06l-.55-.08V40.86a5.31,5.31,0,0,0,.6.12l.62.08c.23,0,.48,0,.73,0a2.7,2.7,0,0,0,.48-.05,1.66,1.66,0,0,0,.48-.19,1.37,1.37,0,0,0,.4-.36,1.31,1.31,0,0,0,.23-.55l.21-.65a2.8,2.8,0,0,1-.49.36,2.9,2.9,0,0,1-.5.23,1.66,1.66,0,0,1-.58.11,1.35,1.35,0,0,1-1.14-.55,2.47,2.47,0,0,1-.41-1.52,6.18,6.18,0,0,1,.22-1.7,4.35,4.35,0,0,1,.65-1.37,3.19,3.19,0,0,1,1-.92,2.68,2.68,0,0,1,1.33-.34l.42,0,.42,0,.55.05.8,0v1.41Zm-2.38-1.21a.91.91,0,0,0,.41-.1,2,2,0,0,0,.38-.22,2.3,2.3,0,0,0,.38-.33l.58-3-.24,0-.25,0-.31,0a.9.9,0,0,0-.61.26,2.28,2.28,0,0,0-.47.67,4,4,0,0,0-.3.92,4.43,4.43,0,0,0-.11,1,1.58,1.58,0,0,0,.11.63A.44.44,0,0,0,88.49,38.64Z" transform="translate(-6.71 -2.63)"/><path class="cls-2" d="M94.87,34.22a4.2,4.2,0,0,1,.7-.36,4.3,4.3,0,0,1,.69-.22,2.27,2.27,0,0,1,.78,0v1.51a2.42,2.42,0,0,0-.76-.06,3.94,3.94,0,0,0-.73.14,5.29,5.29,0,0,0-.76.27L94,39.85H92.38l1.19-6.12h1.3Z" transform="translate(-6.71 -2.63)"/><path class="cls-2" d="M102.08,38.1v1.75h-1.57v-.68a5,5,0,0,1-.53.41,4.07,4.07,0,0,1-.55.29,1.67,1.67,0,0,1-.62.12,1.38,1.38,0,0,1-1.15-.55,2.47,2.47,0,0,1-.42-1.52,6.18,6.18,0,0,1,.23-1.7,4.35,4.35,0,0,1,.65-1.37,3.19,3.19,0,0,1,1-.92,2.68,2.68,0,0,1,1.33-.34l.47,0,.46,0,.54.05.72,0v1.41Zm-2.72.54a.92.92,0,0,0,.42-.1,2.36,2.36,0,0,0,.38-.22,2.3,2.3,0,0,0,.38-.33l.57-3-.23,0-.26,0-.3,0a.9.9,0,0,0-.61.26,2.28,2.28,0,0,0-.47.67,4.51,4.51,0,0,0-.31.92,5.05,5.05,0,0,0-.11,1,1.41,1.41,0,0,0,.12.63A.43.43,0,0,0,99.36,38.64Z" transform="translate(-6.71 -2.63)"/><path class="cls-2" d="M105.75,34.22a3.91,3.91,0,0,1,.57-.31,5.24,5.24,0,0,1,.57-.22,2.3,2.3,0,0,1,.63-.1,1.84,1.84,0,0,1,.69.11,1.38,1.38,0,0,1,.41.25.91.91,0,0,1,.25.35c.21-.13.42-.24.64-.35a5.32,5.32,0,0,1,.62-.25,2.17,2.17,0,0,1,.66-.11,2,2,0,0,1,.79.14,1.26,1.26,0,0,1,.48.4,1.22,1.22,0,0,1,.2.58,2.64,2.64,0,0,1-.05.73l-.51,2.66v1.75h-1.57V38.1l.44-2.26a1.17,1.17,0,0,0,0-.62c0-.12-.21-.18-.46-.18a1.1,1.1,0,0,0-.38.07,1.88,1.88,0,0,0-.38.15l-.42.21-.84,4.38h-1.57l.77-4a1.17,1.17,0,0,0,0-.62c-.06-.13-.21-.19-.46-.19a1.1,1.1,0,0,0-.38.07,1.88,1.88,0,0,0-.38.15l-.42.21-.84,4.38h-1.57l1.19-6.12h1.3Z" transform="translate(-6.71 -2.63)"/><path class="cls-2" d="M115.36,34.22a3.56,3.56,0,0,1,.58-.31,5.24,5.24,0,0,1,.57-.22,2.3,2.3,0,0,1,.63-.1,1.92,1.92,0,0,1,.69.11,1.53,1.53,0,0,1,.41.25.88.88,0,0,1,.24.35l.64-.35c.19-.09.4-.17.62-.25a2.29,2.29,0,0,1,.67-.11,1.91,1.91,0,0,1,.78.14,1.13,1.13,0,0,1,.48.4,1.22,1.22,0,0,1,.2.58,2.62,2.62,0,0,1,0,.73l-.52,2.66v1.75h-1.56V38.1l.44-2.26a1.14,1.14,0,0,0,0-.62c0-.12-.2-.18-.46-.18a1.14,1.14,0,0,0-.38.07,2,2,0,0,0-.37.15l-.42.21-.85,4.38h-1.56l.77-4a1.14,1.14,0,0,0,0-.62c0-.13-.2-.19-.46-.19a1.14,1.14,0,0,0-.38.07,2.15,2.15,0,0,0-.38.15l-.41.21-.85,4.38h-1.57l1.19-6.12h1.3Z" transform="translate(-6.71 -2.63)"/><g class="cls-3"><polygon class="cls-4" points="99.72 34.66 94.49 34.66 95.47 29.43 100.7 29.43 99.72 34.66"/><polygon class="cls-4" points="101.05 27.34 95.83 27.34 96.8 22.11 102.03 22.11 101.05 27.34"/><polygon class="cls-4" points="102.41 19.96 97.18 19.96 98.16 14.73 103.39 14.73 102.41 19.96"/><polygon class="cls-4" points="103.76 12.55 98.53 12.55 99.51 7.33 104.74 7.33 103.76 12.55"/><polygon class="cls-4" points="105.11 5.24 99.89 5.24 100.86 0.01 106.09 0.01 105.11 5.24"/><polygon class="cls-4" points="106.79 34.66 101.56 34.66 102.54 29.43 107.77 29.43 106.79 34.66"/><polygon class="cls-5" points="108.12 27.34 102.89 27.34 103.87 22.11 109.1 22.11 108.12 27.34"/><polygon class="cls-6" points="109.48 19.96 104.25 19.96 105.23 14.73 110.46 14.73 109.48 19.96"/><polygon class="cls-7" points="110.83 12.55 105.6 12.55 106.58 7.33 111.81 7.33 110.83 12.55"/><polygon class="cls-4" points="112.18 5.24 106.95 5.24 107.93 0.01 113.16 0.01 112.18 5.24"/><polygon class="cls-4" points="113.87 34.67 108.65 34.67 109.62 29.45 114.85 29.45 113.87 34.67"/><polygon class="cls-2" points="115.2 27.35 109.98 27.35 110.95 22.13 116.18 22.13 115.2 27.35"/><polygon class="cls-8" points="116.56 19.97 111.34 19.97 112.31 14.75 117.54 14.75 116.56 19.97"/><polygon class="cls-2" points="117.91 12.57 112.69 12.57 113.66 7.34 118.89 7.34 117.91 12.57"/><polygon class="cls-7" points="119.27 5.25 114.04 5.25 115.02 0.02 120.24 0.02 119.27 5.25"/><polygon class="cls-4" points="120.96 34.67 115.73 34.67 116.71 29.45 121.94 29.45 120.96 34.67"/><polygon class="cls-8" points="122.29 27.35 117.06 27.35 118.04 22.13 123.27 22.13 122.29 27.35"/><polygon class="cls-9" points="123.64 19.97 118.42 19.97 119.39 14.75 124.62 14.75 123.64 19.97"/><polygon class="cls-5" points="124.99 12.57 119.77 12.57 120.75 7.34 125.97 7.34 124.99 12.57"/><polygon class="cls-8" points="126.35 5.25 121.12 5.25 122.1 0.02 127.33 0.02 126.35 5.25"/><polygon class="cls-4" points="128.04 34.66 122.81 34.66 123.79 29.43 129.02 29.43 128.04 34.66"/><polygon class="cls-2" points="129.37 27.34 124.14 27.34 125.12 22.11 130.35 22.11 129.37 27.34"/><polygon class="cls-7" points="130.73 19.96 125.5 19.96 126.48 14.73 131.71 14.73 130.73 19.96"/><polygon class="cls-6" points="132.08 12.55 126.85 12.55 127.83 7.33 133.06 7.33 132.08 12.55"/><polygon class="cls-9" points="133.43 5.24 128.2 5.24 129.18 0.01 134.41 0.01 133.43 5.24"/><polygon class="cls-4" points="135.11 34.67 129.88 34.67 130.86 29.45 136.09 29.45 135.11 34.67"/><polygon class="cls-6" points="136.44 27.35 131.21 27.35 132.19 22.13 137.42 22.13 136.44 27.35"/><polygon class="cls-5" points="137.8 19.97 132.57 19.97 133.55 14.75 138.78 14.75 137.8 19.97"/><polygon class="cls-7" points="139.15 12.57 133.92 12.57 134.9 7.34 140.13 7.34 139.15 12.57"/><polygon class="cls-2" points="140.5 5.25 135.27 5.25 136.25 0.02 141.48 0.02 140.5 5.25"/><polygon class="cls-4" points="142.19 34.66 136.97 34.66 137.94 29.43 143.17 29.43 142.19 34.66"/><polygon class="cls-5" points="143.52 27.34 138.3 27.34 139.27 22.11 144.5 22.11 143.52 27.34"/><polygon class="cls-8" points="144.88 19.96 139.66 19.96 140.63 14.73 145.86 14.73 144.88 19.96"/><polygon class="cls-9" points="146.23 12.55 141 12.55 141.98 7.33 147.21 7.33 146.23 12.55"/><polygon class="cls-5" points="147.58 5.24 142.36 5.24 143.33 0.01 148.56 0.01 147.58 5.24"/><polygon class="cls-4" points="149.28 34.67 144.05 34.67 145.03 29.45 150.25 29.45 149.28 34.67"/><polygon class="cls-4" points="150.61 27.35 145.38 27.35 146.36 22.13 151.59 22.13 150.61 27.35"/><polygon class="cls-2" points="151.96 19.97 146.74 19.97 147.72 14.75 152.94 14.75 151.96 19.97"/><polygon class="cls-6" points="153.31 12.57 148.09 12.57 149.06 7.34 154.29 7.34 153.31 12.57"/><polygon class="cls-4" points="154.67 5.25 149.44 5.25 150.42 0.02 155.65 0.02 154.67 5.25"/><polygon class="cls-4" points="156.34 34.67 151.11 34.67 152.09 29.44 157.32 29.44 156.34 34.67"/><polygon class="cls-4" points="157.67 27.35 152.44 27.35 153.42 22.12 158.65 22.12 157.67 27.35"/><polygon class="cls-4" points="159.03 19.97 153.8 19.97 154.78 14.74 160.01 14.74 159.03 19.97"/><polygon class="cls-4" points="160.38 12.56 155.15 12.56 156.13 7.34 161.35 7.34 160.38 12.56"/><polygon class="cls-4" points="161.73 5.24 156.5 5.24 157.48 0.02 162.71 0.02 161.73 5.24"/><polygon class="cls-4" points="163.41 34.65 158.19 34.65 159.16 29.42 164.39 29.42 163.41 34.65"/><polygon class="cls-4" points="164.75 27.33 159.52 27.33 160.5 22.11 165.72 22.11 164.75 27.33"/><polygon class="cls-4" points="166.1 19.95 160.88 19.95 161.85 14.72 167.08 14.72 166.1 19.95"/><polygon class="cls-4" points="167.45 12.54 162.23 12.54 163.2 7.32 168.43 7.32 167.45 12.54"/><polygon class="cls-4" points="168.81 5.23 163.58 5.23 164.56 0 169.78 0 168.81 5.23"/></g></svg>