<svg xmlns="http://www.w3.org/2000/svg" width="800" height="400" viewBox="0 0 800 400" xmlns:xlink="http://www.w3.org/1999/xlink">
  <defs>
    <polygon id="a" points=".183 2.295 184.274 2.295 184.274 166.429 .183 166.429"/>
  </defs>
  <g fill="none" fill-rule="evenodd">
    <rect width="800" height="400" fill="#FFFFFF"/>
    <g transform="translate(143 82)">
      <text fill="#2C2B62" font-family="Calibri-Bold, Calibri" font-size="97.254" font-weight="bold" letter-spacing="-.001">
        <tspan x="203.435" y="125.513">MoBiBe</tspan>
      </text>
      <mask id="b" fill="white">
        <use xlink:href="#a"/>
      </mask>
      <path fill="#008E94" d="M128.101598,114.639226 C159.125178,114.639226 184.273659,89.4876932 184.273659,58.4641128 C184.273659,27.4435844 159.125178,2.29510403 128.101598,2.29510403 C97.0780173,2.29510403 71.929537,27.4435844 71.929537,58.4641128 C71.929537,89.4876932 97.0780173,114.639226 128.101598,114.639226" mask="url(#b)"/>
      <path fill="#2C2B62" d="M35.9647685,166.428614 C55.8271848,166.428614 71.929537,150.32321 71.929537,130.463846 C71.929537,110.598378 55.8271848,94.4960253 35.9647685,94.4960253 C16.1023522,94.4960253 0,110.598378 0,130.463846 C0,150.32321 16.1023522,166.428614 35.9647685,166.428614" mask="url(#b)"/>
      <path fill="#BB5465" d="M109.273809,195.328003 C98.8725933,195.328003 90.4429692,186.898379 90.4429692,176.500214 C90.4429692,166.098998 98.8725933,157.669374 109.273809,157.669374 C119.671974,157.669374 128.101598,166.098998 128.101598,176.500214 C128.101598,186.898379 119.671974,195.328003 109.273809,195.328003"/>
    </g>
  </g>
</svg>
