<svg xmlns="http://www.w3.org/2000/svg" width="172" height="64" viewBox="0 0 172 64" xmlns:xlink="http://www.w3.org/1999/xlink">
  <defs>
    <polygon id="a" points=".06 .752 60.378 .752 60.378 54.531 .06 54.531"/>
  </defs>
  <g fill="none" fill-rule="evenodd">
    <text fill="#2C2B62" font-family="Calibri-Bold, Calibri" font-size="31.866" font-weight="bold" letter-spacing="0">
      <tspan x="66.656" y="40.653">MoBiBe</tspan>
    </text>
    <mask id="b" fill="white">
      <use xlink:href="#a"/>
    </mask>
    <path fill="#008E94" d="M41.973,37.562 C52.138,37.562 60.378,29.321 60.378,19.156 C60.378,8.992 52.138,0.752 41.973,0.752 C31.808,0.752 23.568,8.992 23.568,19.156 C23.568,29.321 31.808,37.562 41.973,37.562" mask="url(#b)"/>
    <path fill="#2C2B62" d="M11.784,54.531 C18.292,54.531 23.568,49.254 23.568,42.747 C23.568,36.238 18.292,30.962 11.784,30.962 C5.276,30.962 0,36.238 0,42.747 C0,49.254 5.276,54.531 11.784,54.531" mask="url(#b)"/>
    <path fill="#BB5465" d="M35.804,64 C32.396,64 29.634,61.238 29.634,57.831 C29.634,54.423 32.396,51.661 35.804,51.661 C39.211,51.661 41.973,54.423 41.973,57.831 C41.973,61.238 39.211,64 35.804,64"/>
  </g>
</svg>
