<svg xmlns="http://www.w3.org/2000/svg" width="103" height="111" viewBox="0 0 103 111" xmlns:xlink="http://www.w3.org/1999/xlink">
  <defs>
    <polygon id="a" points="0 .118 102.047 .118 102.047 25.92 0 25.92"/>
  </defs>
  <g fill="none" fill-rule="evenodd">
    <polygon fill="#FEFEFE" points=".68 84.359 101.367 84.359 101.367 59.528 .68 59.528"/>
    <polygon fill="#1D1D1B" points="101.367 59.238 101.367 84.359 .68 84.359 .68 59.238 0 59.238 0 85.039 102.047 85.039 102.047 59.238"/>
    <polygon fill="#FEFEFE" points="68.712 33.335 101.367 33.335 101.367 .68 68.712 .68"/>
    <polygon fill="#FEFEFE" points=".68 33.335 68.031 33.335 68.031 .68 .68 .68"/>
    <polygon fill="#FEFEFE" points=".68 58.847 101.367 58.847 101.367 34.016 .68 34.016"/>
    <text fill="#1D1D1B" font-family="BerlinType-Regular, Berlin Type" font-size="6" letter-spacing="-.006">
      <tspan x="8.164" y="42.048">S</tspan> <tspan x="11.446" y="42.048">ena</tspan> <tspan x="21.082" y="42.048" letter-spacing="-.03">t</tspan> <tspan x="22.654" y="42.048" letter-spacing="-.054">s</tspan> <tspan x="24.964" y="42.048" letter-spacing="-.036">v</tspan> <tspan x="27.604" y="42.048">erwa</tspan> <tspan x="40.024" y="42.048" letter-spacing="-.012">l</tspan> <tspan x="41.428" y="42.048">tung fü</tspan> <tspan x="58.6" y="42.048" letter-spacing="-.15">r</tspan> <tspan x="60.208" y="42.048"> </tspan>
    </text>
    <text fill="#1D1D1B" font-family="BerlinType-Regular, Berlin Type" font-size="6" letter-spacing="-.054">
      <tspan x="8.164" y="49.848">I</tspan> <tspan x="9.676" y="49.848" letter-spacing="-.024">n</tspan> <tspan x="12.628" y="49.848" letter-spacing="-.036">t</tspan> <tspan x="14.188" y="49.848">eg</tspan> <tspan x="20.788" y="49.848" letter-spacing="-.096">r</tspan> <tspan x="22.504" y="49.848">ation</tspan> <tspan x="35.248" y="49.848" letter-spacing="-.161">,</tspan> <tspan x="36.418" y="49.848" letter-spacing="-.103"> </tspan> <tspan x="37.75" y="49.848" letter-spacing="-.005">A</tspan> <tspan x="41.41" y="49.848">rbeit und </tspan> <tspan x="65.434" y="49.848" letter-spacing="-.006">S</tspan> <tspan x="68.716" y="49.848">o</tspan> <tspan x="71.926" y="49.848">zia</tspan> <tspan x="79.306" y="49.848">l</tspan> <tspan x="80.626" y="49.848">es</tspan>
    </text>
    <path fill="#1D1D1B" d="M0,59.52756 L102.04728,59.52756 L102.04728,0 L0,0 L0,59.52756 Z M68.71188,33.3354 L101.367,33.3354 L101.367,0.68028 L68.71188,0.68028 L68.71188,33.3354 Z M0.68028,33.3354 L68.03148,33.3354 L68.03148,0.68028 L0.68028,0.68028 L0.68028,33.3354 Z M0.68028,58.84728 L101.367,58.84728 L101.367,34.01568 L0.68028,34.01568 L0.68028,58.84728 Z"/>
    <g transform="translate(8.4 6.631)">
      <path fill="#E30621" d="M6.096264,10.1331 C6.906144,9.61554 7.391904,8.80638 7.391904,7.75446 C7.391904,6.0231 6.193584,4.69602 3.990864,4.69602 L0.298104,4.69602 C0.184824,4.69602 0.103944,4.7769 0.103944,4.89042 L0.103944,15.82902 C0.103944,15.94206 0.184824,16.0233 0.298104,16.0233 L4.136664,16.0233 C6.403944,16.0233 7.602384,14.64762 7.602384,12.83562 C7.602384,11.65422 7.035624,10.7643 6.096264,10.26258 C6.031344,10.21398 6.031344,10.1655 6.096264,10.1331 L6.096264,10.1331 Z M3.731784,6.57306 C4.752024,6.57306 5.318784,7.12338 5.318784,7.9647 C5.318784,8.80638 4.752024,9.37254 3.731784,9.37254 L2.176704,9.37254 C2.112144,9.37254 2.079864,9.34038 2.079864,9.27546 L2.079864,6.67026 C2.079864,6.60558 2.112144,6.57306 2.176704,6.57306 L3.731784,6.57306 Z M3.893664,14.1459 L2.176704,14.1459 C2.112144,14.1459 2.079864,14.09766 2.079864,14.04918 L2.079864,11.33046 C2.079864,11.2659 2.112144,11.23338 2.176704,11.23338 L3.893664,11.23338 C4.946424,11.23338 5.529504,11.83218 5.529504,12.68982 C5.529504,13.56342 4.946424,14.1459 3.893664,14.1459 L3.893664,14.1459 Z M16.520184,6.37914 L16.520184,4.89042 C16.520184,4.7769 16.439304,4.69602 16.325784,4.69602 L10.430664,4.69602 C10.317144,4.69602 10.236264,4.7769 10.236264,4.89042 L10.236264,15.82902 C10.236264,15.94206 10.317144,16.0233 10.430664,16.0233 L16.325784,16.0233 C16.439304,16.0233 16.520184,15.94206 16.520184,15.82902 L16.520184,14.3403 C16.520184,14.22714 16.439304,14.1459 16.325784,14.1459 L12.309264,14.1459 C12.244344,14.1459 12.212064,14.09766 12.212064,14.04918 L12.212064,11.33046 C12.212064,11.2659 12.260664,11.23338 12.309264,11.23338 L16.325784,11.23338 C16.439304,11.23338 16.520184,11.1525 16.520184,11.03934 L16.520184,9.56682 C16.520184,9.45342 16.439304,9.37254 16.325784,9.37254 L12.309264,9.37254 C12.244344,9.37254 12.212064,9.34038 12.212064,9.27546 L12.212064,6.67026 C12.212064,6.60558 12.260664,6.57306 12.309264,6.57306 L16.325784,6.57306 C16.439304,6.57306 16.520184,6.49218 16.520184,6.37914 L16.520184,6.37914 Z M25.311264,16.0233 L27.351744,16.0233 C27.513984,16.0233 27.562224,15.9099 27.465384,15.78054 L25.035984,12.49554 C25.003344,12.44694 25.003344,12.38238 25.068264,12.35022 C26.509704,11.76762 27.465384,10.48914 27.465384,8.7093 C27.465384,6.18486 25.554024,4.69602 23.124624,4.69602 L19.658904,4.69602 C19.545384,4.69602 19.464504,4.7769 19.464504,4.89042 L19.464504,15.82902 C19.464504,15.94206 19.545384,16.0233 19.658904,16.0233 L21.262224,16.0233 C21.375504,16.0233 21.456624,15.94206 21.456624,15.82902 L21.456624,12.8193 C21.456624,12.75474 21.504984,12.7221 21.553584,12.7221 L22.784664,12.7221 C22.833264,12.7221 22.881864,12.75474 22.914144,12.7869 L25.084584,15.89358 C25.133184,15.97482 25.214064,16.0233 25.311264,16.0233 L25.311264,16.0233 Z M21.553584,6.57306 L23.027664,6.57306 C24.339264,6.57306 25.392144,7.26906 25.392144,8.7093 C25.392144,10.14942 24.339264,10.84518 23.011344,10.84518 L21.553584,10.84518 C21.489024,10.84518 21.456624,10.79646 21.456624,10.74798 L21.456624,6.67026 C21.456624,6.60558 21.489024,6.57306 21.553584,6.57306 L21.553584,6.57306 Z M32.028864,14.04918 L32.028864,4.89042 C32.028864,4.7769 31.947984,4.69602 31.834824,4.69602 L30.231144,4.69602 C30.117984,4.69602 30.036984,4.7769 30.036984,4.89042 L30.036984,15.82902 C30.036984,15.94206 30.117984,16.0233 30.231144,16.0233 L35.754024,16.0233 C35.867544,16.0233 35.948424,15.94206 35.948424,15.82902 L35.948424,14.3403 C35.948424,14.22714 35.867544,14.1459 35.754024,14.1459 L32.126184,14.1459 C32.061504,14.1459 32.028864,14.09766 32.028864,14.04918 L32.028864,14.04918 Z M38.422944,16.0233 L40.026504,16.0233 C40.139784,16.0233 40.220664,15.94206 40.220664,15.82902 L40.220664,4.89042 C40.220664,4.7769 40.139784,4.69602 40.026504,4.69602 L38.422944,4.69602 C38.309664,4.69602 38.228784,4.7769 38.228784,4.89042 L38.228784,15.82902 C38.228784,15.94206 38.309664,16.0233 38.422944,16.0233 L38.422944,16.0233 Z M49.866024,4.89042 L49.866024,12.38238 C49.866024,12.47958 49.801104,12.51174 49.752384,12.41466 L45.476904,4.8255 C45.428304,4.74462 45.331104,4.69602 45.233904,4.69602 L43.403784,4.69602 C43.290264,4.69602 43.209384,4.7769 43.209384,4.89042 L43.209384,15.82902 C43.209384,15.94206 43.290264,16.0233 43.403784,16.0233 L44.990784,16.0233 C45.104304,16.0233 45.185304,15.94206 45.185304,15.82902 L45.185304,8.35326 C45.185304,8.25606 45.250224,8.2239 45.298824,8.32062 L49.574304,15.89358 C49.622904,15.97482 49.720104,16.0233 49.817304,16.0233 L51.647424,16.0233 C51.760944,16.0233 51.841824,15.94206 51.841824,15.82902 L51.841824,4.89042 C51.841824,4.7769 51.760944,4.69602 51.647424,4.69602 L50.060064,4.69602 C49.946904,4.69602 49.866024,4.7769 49.866024,4.89042 L49.866024,4.89042 Z"/>
      <path fill="#020A0A" d="M81.63738,20.027712 C81.63738,20.027712 81.04278,16.083792 80.76174,14.420832 C80.84106,14.404632 80.88462,14.395152 80.88462,14.395152 C81.14514,14.350032 81.24306,14.051712 81.12678,13.851192 C80.45382,12.692592 80.2131,11.248872 80.2131,9.813912 C80.2131,8.929512 80.36082,8.079432 80.63382,7.287792 C80.6493,7.242432 80.66586,7.197312 80.68242,7.152432 C80.69202,7.124952 80.7117,7.063992 80.71542,7.054392 C80.89698,6.659592 81.22374,5.802792 81.32046,4.843152 C81.39906,4.066272 81.30054,3.418512 81.16398,2.811432 C81.09942,2.517672 80.93394,2.034312 80.82846,1.810152 C80.81058,1.777272 80.79234,1.745352 80.77386,1.713912 C81.01638,1.469832 81.06366,1.080312 80.87706,0.756792 C80.6571,0.377472 80.20566,0.227112 79.86882,0.421752 C79.83342,0.442152 79.7499,0.500592 79.71282,0.527712 C79.65138,0.482592 79.61538,0.459912 79.61538,0.459912 C79.61358,0.458592 79.52058,0.397632 79.43886,0.354912 C79.43862,0.354672 79.40814,0.339192 79.40766,0.338592 C79.06146,0.185232 78.68634,0.103992 78.28302,0.103992 C78.08574,0.103992 77.89362,0.124392 77.7075,0.162912 C77.3049,0.246672 76.93446,0.416592 76.6155,0.652992 C76.4493,0.706272 76.2699,0.718512 76.2699,0.718512 L75.81354,0.740352 C75.59898,0.749472 75.35382,0.738792 75.35382,0.738792 C75.24678,0.738792 75.1599,0.825912 75.1599,0.933192 C75.1599,0.942672 75.23022,1.569912 75.23046,1.571832 C75.24762,1.728912 75.31374,1.876992 75.44514,1.962192 L75.46038,1.972872 C75.5025,2.000952 75.52374,2.023512 75.53274,2.047512 C75.5829,2.184072 75.68478,2.320392 75.75378,2.361912 C75.7851,2.381232 75.8337,2.371752 75.8427,2.336112 C75.92958,1.994712 76.13358,2.363232 76.52142,2.152872 C76.62138,2.098752 76.67442,2.340792 76.63254,2.446512 L76.59666,2.537952 C76.5165,2.741592 76.33182,2.887752 76.11414,2.919312 C75.9423,2.944272 75.84354,2.961792 75.84582,2.985432 C75.86658,3.179112 75.84354,3.345312 76.04022,3.461592 C76.09794,3.492312 76.12626,3.499752 76.12626,3.499752 C76.42734,3.578832 77.30634,3.915672 76.18878,5.234472 C76.18878,5.234472 76.08258,5.353032 76.00098,5.470752 C75.97734,5.504592 75.95706,5.540352 75.93918,5.577552 L75.9159,5.625072 L72.55626,4.367592 C72.45498,4.328472 72.32466,4.217832 72.26262,4.128912 L71.93202,3.560232 C71.72622,3.275952 71.54706,3.167952 71.18994,3.138912 C70.93242,3.117672 70.72254,3.137232 70.72254,3.137232 C70.62258,3.142392 70.56486,3.165912 70.54362,3.224232 C70.52034,3.287352 70.5183,3.446352 70.61634,3.645192 L70.90482,4.174632 C70.93014,4.212192 71.29362,5.025192 71.29362,5.025192 C71.32986,5.125392 71.39238,5.213832 71.4741,5.281872 C71.48166,5.288112 74.92338,7.888632 74.92338,7.888632 L71.28846,9.701952 C71.18382,9.758712 71.0607,9.771552 70.9467,9.737112 C70.81302,9.696552 70.62246,9.638592 70.62102,9.638352 C70.02642,9.373392 69.57858,9.557712 69.31614,9.777552 C69.31386,9.779592 69.21354,9.874992 69.21354,9.874992 C69.11454,9.973752 69.15138,10.107912 69.26346,10.163112 C69.26346,10.163112 69.83718,10.500192 69.96354,10.586592 L70.85682,11.115552 C70.9953,11.195952 71.15874,11.222592 71.31594,11.190312 L74.84478,10.478712 C74.9301,11.829672 75.27054,12.952632 75.27054,12.952632 C74.63406,13.564152 73.75746,14.732832 73.46946,16.335192 C73.29834,17.287992 73.35414,18.151512 73.61394,19.166592 C73.12122,19.193712 72.64554,19.266552 72.2505,19.541112 C71.87454,19.802472 71.7975,20.267952 71.79522,20.500392 L74.5509,20.506632 L74.78406,20.505312 C75.07398,20.501592 75.14898,20.214192 75.14922,20.213352 C75.17742,20.126232 75.1869,20.012232 75.19998,19.927512 C75.28794,19.376112 75.35766,18.803712 75.84762,17.814912 C76.24374,17.015952 76.9449,16.296912 76.94502,16.296912 C76.9467,16.299192 78.10458,18.013632 80.06214,19.189512 C79.68702,19.213272 79.2021,19.337232 78.9141,19.497312 C78.45798,19.750632 78.33234,20.271552 78.3429,20.513352 L81.19758,20.513352 C81.3939,20.513352 81.55794,20.386512 81.61698,20.213592 C81.62286,20.195712 81.62778,20.177232 81.63174,20.158512 C81.63426,20.145072 81.6363,20.131392 81.63762,20.117712 C81.6405,20.088312 81.64074,20.058192 81.63738,20.027712"/>
    </g>
    <text fill="#1D1D1B" font-family="BerlinType-Regular, Berlin Type" font-size="6" letter-spacing="-.042">
      <tspan x="8.164" y="67.56">D</tspan> <tspan x="12.334" y="67.56">ie </tspan> <tspan x="18.412" y="67.56" letter-spacing="-.006">B</tspan> <tspan x="21.916" y="67.56">eauft</tspan> <tspan x="34.786" y="67.56" letter-spacing="-.096">r</tspan> <tspan x="36.502" y="67.56">ag</tspan> <tspan x="43.354" y="67.56" letter-spacing="-.037">t</tspan> <tspan x="44.913" y="67.56">e </tspan> <tspan x="49.641" y="67.56" letter-spacing="-.06">d</tspan> <tspan x="52.959" y="67.56">es </tspan> <tspan x="60.105" y="67.56" letter-spacing="-.006">S</tspan> <tspan x="63.387" y="67.56">ena</tspan> <tspan x="73.023" y="67.56" letter-spacing="-.03">t</tspan> <tspan x="74.595" y="67.56">s </tspan>
    </text>
    <text fill="#1D1D1B" font-family="BerlinType-Regular, Berlin Type" font-size="6">
      <tspan x="8.164" y="75.36">fü</tspan> <tspan x="12.766" y="75.36" letter-spacing="-.15">r</tspan> <tspan x="14.374" y="75.36"> </tspan> <tspan x="15.91" y="75.36" letter-spacing="-.054">I</tspan> <tspan x="17.422" y="75.36" letter-spacing="-.024">n</tspan> <tspan x="20.374" y="75.36" letter-spacing="-.036">t</tspan> <tspan x="21.934" y="75.36">eg</tspan> <tspan x="28.534" y="75.36" letter-spacing="-.096">r</tspan> <tspan x="30.25" y="75.36">ation und </tspan> <tspan x="55.498" y="75.36" letter-spacing="-.054">M</tspan> <tspan x="60.034" y="75.36">ig</tspan> <tspan x="64.792" y="75.36" letter-spacing="-.096">r</tspan> <tspan x="66.508" y="75.36">ation</tspan>
    </text>
    <polygon fill="#FEFEFE" points=".68 109.871 101.367 109.871 101.367 85.039 .68 85.039"/>
    <text fill="#1D1D1B" font-family="BerlinType-Regular, Berlin Type" font-size="6" letter-spacing="-.09">
      <tspan x="8.164" y="93.072">P</tspan> <tspan x="11.332" y="93.072">artizipations- und </tspan>
    </text>
    <text fill="#1D1D1B" font-family="BerlinType-Regular, Berlin Type" font-size="6" letter-spacing="-.054">
      <tspan x="8.164" y="100.872">I</tspan> <tspan x="9.676" y="100.872" letter-spacing="-.024">n</tspan> <tspan x="12.628" y="100.872" letter-spacing="-.036">t</tspan> <tspan x="14.188" y="100.872">eg</tspan> <tspan x="20.788" y="100.872" letter-spacing="-.096">r</tspan> <tspan x="22.504" y="100.872">ationsp</tspan> <tspan x="41.104" y="100.872" letter-spacing="-.102">r</tspan> <tspan x="42.808" y="100.872">og</tspan> <tspan x="49.534" y="100.872" letter-spacing="-.096">r</tspan> <tspan x="51.25" y="100.872">amm</tspan>
    </text>
    <g transform="translate(0 84.631)">
      <mask id="b" fill="white">
        <use xlink:href="#a"/>
      </mask>
      <polygon fill="#1D1D1B" points="101.367 .118 101.367 25.24 .68 25.24 .68 .118 0 .118 0 25.92 102.047 25.92 102.047 .118" mask="url(#b)"/>
    </g>
  </g>
</svg>
