<?xml version="1.0" encoding="UTF-8" standalone="no"?>
<svg
   xmlns:dc="http://purl.org/dc/elements/1.1/"
   xmlns:cc="http://creativecommons.org/ns#"
   xmlns:rdf="http://www.w3.org/1999/02/22-rdf-syntax-ns#"
   xmlns:svg="http://www.w3.org/2000/svg"
   xmlns="http://www.w3.org/2000/svg"
   xmlns:sodipodi="http://sodipodi.sourceforge.net/DTD/sodipodi-0.dtd"
   xmlns:inkscape="http://www.inkscape.org/namespaces/inkscape"
   width="383.92001"
   height="32"
   viewBox="0 0 383.92001 32"
   version="1.1"
   id="svg10"
   sodipodi:docname="logo-text-white.svg"
   inkscape:version="0.92.3 (2405546, 2018-03-11)">
  <metadata
     id="metadata16">
    <rdf:RDF>
      <cc:Work
         rdf:about="">
        <dc:format>image/svg+xml</dc:format>
        <dc:type
           rdf:resource="http://purl.org/dc/dcmitype/StillImage" />
        <dc:title></dc:title>
      </cc:Work>
    </rdf:RDF>
  </metadata>
  <defs
     id="defs14" />
  <sodipodi:namedview
     pagecolor="#ffffff"
     bordercolor="#666666"
     borderopacity="1"
     objecttolerance="10"
     gridtolerance="10"
     guidetolerance="10"
     inkscape:pageopacity="0"
     inkscape:pageshadow="2"
     inkscape:window-width="1920"
     inkscape:window-height="1056"
     id="namedview12"
     showgrid="false"
     inkscape:pagecheckerboard="true"
     fit-margin-top="0"
     fit-margin-left="0"
     fit-margin-right="0"
     fit-margin-bottom="0"
     inkscape:zoom="3.9422469"
     inkscape:cx="130.47163"
     inkscape:cy="11.205737"
     inkscape:window-x="0"
     inkscape:window-y="24"
     inkscape:window-maximized="1"
     inkscape:current-layer="svg10" />
  <g
     id="g8"
     transform="translate(-16,-8)"
     style="fill:none;fill-rule:evenodd">
    <path
       d="m 66.72,26.144 c 0.757337,0.138667 1.367998,0.410665 1.832,0.816 0.464002,0.405335 0.696,1.023996 0.696,1.856 0,1.152006 -0.405329,1.970664 -1.216,2.456 C 67.221329,31.757336 66.085341,32 64.624,32 H 61.296 V 20.944 h 2.896 c 3.050682,0 4.576,0.938657 4.576,2.816 0,0.65067 -0.197331,1.181331 -0.592,1.592 -0.394669,0.410669 -0.879997,0.674666 -1.456,0.792 z m -3.312,-3.648 v 2.992 h 1.296 c 0.58667,0 1.050665,-0.130665 1.392,-0.392 0.341335,-0.261335 0.512,-0.647997 0.512,-1.16 0,-0.533336 -0.178665,-0.906666 -0.536,-1.12 -0.357335,-0.213334 -0.914663,-0.32 -1.672,-0.32 z m 1.232,7.92 c 0.778671,0 1.373331,-0.117332 1.784,-0.352 0.410669,-0.234668 0.616,-0.67733 0.616,-1.328 0,-0.629337 -0.194665,-1.082665 -0.584,-1.36 -0.389335,-0.277335 -0.919997,-0.416 -1.592,-0.416 h -1.456 v 3.456 z m 13.544,-2.848 c 0,0.106667 -0.016,0.383998 -0.048,0.832 h -5.312 c 0.064,0.821337 0.277331,1.407998 0.64,1.76 0.362668,0.352002 0.842664,0.528 1.44,0.528 0.373335,0 0.725332,-0.06133 1.056,-0.184 0.330668,-0.122667 0.682665,-0.311999 1.056,-0.568 l 0.848,1.168 c -0.938671,0.757337 -1.983994,1.136 -3.136,1.136 -1.290673,0 -2.28533,-0.394663 -2.984,-1.184 -0.69867,-0.789337 -1.048,-1.86666 -1.048,-3.232 0,-0.864004 0.149332,-1.639997 0.448,-2.328 0.298668,-0.688003 0.730664,-1.226665 1.296,-1.616 0.565336,-0.389335 1.237329,-0.584 2.016,-0.584 1.184006,0 2.10133,0.375996 2.752,1.128 0.65067,0.752004 0.976,1.799993 0.976,3.144 z m -2.032,-0.592 c 0,-1.482674 -0.549328,-2.224 -1.648,-2.224 -0.501336,0 -0.893332,0.183998 -1.176,0.552 -0.282668,0.368002 -0.450666,0.957329 -0.504,1.768 h 3.328 z M 84.4,23.312 c 0.309335,0 0.591999,0.03733 0.848,0.112 l -0.352,1.984 c -0.256001,-0.064 -0.506665,-0.096 -0.752,-0.096 -0.501336,0 -0.895999,0.178665 -1.184,0.536 -0.288001,0.357335 -0.517333,0.903996 -0.688,1.64 V 32 H 80.224 V 23.536 H 82 l 0.192,1.664 c 0.202668,-0.608003 0.495998,-1.074665 0.88,-1.4 0.384002,-0.325335 0.826664,-0.488 1.328,-0.488 z m 4.328,8.928 c -0.65067,0 -1.159998,-0.189331 -1.528,-0.568 -0.368002,-0.378669 -0.552,-0.914663 -0.552,-1.608 v -9.92 L 88.696,19.92 V 30 c 0,0.394669 0.159998,0.592 0.48,0.592 0.160001,0 0.319999,-0.02667 0.48,-0.08 l 0.432,1.44 c -0.426669,0.192001 -0.879998,0.288 -1.36,0.288 z m 4.968,-8.704 V 32 h -2.048 v -8.464 z m -1.04,-4.288 c 0.384002,0 0.695999,0.119999 0.936,0.36 0.240001,0.240001 0.36,0.535998 0.36,0.888 0,0.352002 -0.119999,0.645332 -0.36,0.88 -0.240001,0.234668 -0.551998,0.352 -0.936,0.352 -0.373335,0 -0.679999,-0.117332 -0.92,-0.352 -0.240001,-0.234668 -0.36,-0.527998 -0.36,-0.88 0,-0.352002 0.119999,-0.647999 0.36,-0.888 0.240001,-0.240001 0.546665,-0.36 0.92,-0.36 z m 8.216,4.048 c 0.75734,0 1.34667,0.226664 1.768,0.68 0.42134,0.453336 0.632,1.085329 0.632,1.896 V 32 h -2.048 v -5.808 c 0,-0.501336 -0.088,-0.853332 -0.264,-1.056 -0.176,-0.202668 -0.43467,-0.304 -0.776,-0.304 -0.352002,0 -0.669332,0.109332 -0.952,0.328 -0.282668,0.218668 -0.557332,0.535998 -0.824,0.952 V 32 H 96.36 v -8.464 h 1.776 l 0.16,1.104 c 0.693337,-0.896005 1.551995,-1.344 2.576,-1.344 z m 11.928,4.272 c 0,0.106667 -0.016,0.383998 -0.048,0.832 h -5.312 c 0.064,0.821337 0.27733,1.407998 0.64,1.76 0.36267,0.352002 0.84266,0.528 1.44,0.528 0.37333,0 0.72533,-0.06133 1.056,-0.184 0.33067,-0.122667 0.68266,-0.311999 1.056,-0.568 l 0.848,1.168 c -0.93867,0.757337 -1.98399,1.136 -3.136,1.136 -1.29067,0 -2.28533,-0.394663 -2.984,-1.184 -0.69867,-0.789337 -1.048,-1.86666 -1.048,-3.232 0,-0.864004 0.14933,-1.639997 0.448,-2.328 0.29867,-0.688003 0.73066,-1.226665 1.296,-1.616 0.56534,-0.389335 1.23733,-0.584 2.016,-0.584 1.18401,0 2.10133,0.375996 2.752,1.128 0.65067,0.752004 0.976,1.799993 0.976,3.144 z m -2.032,-0.592 c 0,-1.482674 -0.54933,-2.224 -1.648,-2.224 -0.50134,0 -0.89333,0.183998 -1.176,0.552 -0.28267,0.368002 -0.45067,0.957329 -0.504,1.768 h 3.328 z m 8.248,-3.664 c 0.30933,0 0.592,0.03733 0.848,0.112 l -0.352,1.984 c -0.256,-0.064 -0.50666,-0.096 -0.752,-0.096 -0.50134,0 -0.896,0.178665 -1.184,0.536 -0.288,0.357335 -0.51733,0.903996 -0.688,1.64 V 32 h -2.048 v -8.464 h 1.776 l 0.192,1.664 c 0.20267,-0.608003 0.496,-1.074665 0.88,-1.4 0.384,-0.325335 0.82666,-0.488 1.328,-0.488 z M 125.608,32 V 20.944 h 6.256 l -0.224,1.568 h -3.92 v 3.312 h 3.408 v 1.568 H 127.72 V 32 Z m 13.256,-2.24 c 0,0.330668 0.0507,0.573333 0.152,0.728 0.10133,0.154667 0.264,0.274666 0.488,0.36 l -0.432,1.36 c -0.48,-0.04267 -0.872,-0.159999 -1.176,-0.352 -0.304,-0.192001 -0.536,-0.485331 -0.696,-0.88 -0.288,0.426669 -0.648,0.743999 -1.08,0.952 -0.432,0.208001 -0.91466,0.312 -1.448,0.312 -0.84267,0 -1.50933,-0.239998 -2,-0.72 -0.49067,-0.480002 -0.736,-1.109329 -0.736,-1.888 0,-0.917338 0.33333,-1.618664 1,-2.104 0.66667,-0.485336 1.61866,-0.728 2.856,-0.728 h 1.056 v -0.48 c 0,-0.544003 -0.12533,-0.925332 -0.376,-1.144 -0.25067,-0.218668 -0.65333,-0.328 -1.208,-0.328 -0.61867,0 -1.36533,0.149332 -2.24,0.448 l -0.48,-1.392 c 1.056,-0.405335 2.07999,-0.608 3.072,-0.608 2.16534,0 3.248,0.970657 3.248,2.912 z m -3.648,0.992 c 0.69334,0 1.23733,-0.346663 1.632,-1.04 V 28 H 136 c -1.32267,0 -1.984,0.490662 -1.984,1.472 0,0.405335 0.10133,0.719999 0.304,0.944 0.20267,0.224001 0.50133,0.336 0.896,0.336 z m 9.736,-7.456 c 0.55467,0 1.05333,0.08 1.496,0.24 0.44267,0.160001 0.86133,0.410665 1.256,0.752 l -0.912,1.232 c -0.288,-0.213334 -0.56533,-0.368 -0.832,-0.464 -0.26667,-0.096 -0.56,-0.144 -0.88,-0.144 -1.26934,0 -1.904,0.965324 -1.904,2.896 0,0.981338 0.16533,1.687998 0.496,2.12 0.33067,0.432002 0.8,0.648 1.408,0.648 0.29867,0 0.57333,-0.048 0.824,-0.144 0.25067,-0.096 0.54666,-0.250666 0.888,-0.464 l 0.912,1.296 c -0.8,0.65067 -1.712,0.976 -2.736,0.976 -0.81067,0 -1.51466,-0.178665 -2.112,-0.536 -0.59734,-0.357335 -1.056,-0.866663 -1.376,-1.528 -0.32,-0.661337 -0.48,-1.439996 -0.48,-2.336 0,-0.896005 0.16,-1.687997 0.48,-2.376 0.32,-0.688003 0.77866,-1.221331 1.376,-1.6 0.59734,-0.378669 1.296,-0.568 2.096,-0.568 z m 8.952,0 c 0.74667,0 1.33333,0.229331 1.76,0.688 0.42667,0.458669 0.64,1.087996 0.64,1.888 V 32 h -2.048 v -5.808 c 0,-0.501336 -0.088,-0.853332 -0.264,-1.056 -0.176,-0.202668 -0.43467,-0.304 -0.776,-0.304 -0.34134,0 -0.656,0.109332 -0.944,0.328 -0.288,0.218668 -0.56533,0.530665 -0.832,0.936 V 32 h -2.048 V 20.16 l 2.048,-0.208 v 4.592 c 0.68267,-0.832004 1.50399,-1.248 2.464,-1.248 z m 9.368,0 c 0.98134,0 1.74933,0.391996 2.304,1.176 0.55467,0.784004 0.832,1.879993 0.832,3.288 0,0.874671 -0.136,1.650663 -0.408,2.328 -0.272,0.677337 -0.65866,1.205331 -1.16,1.584 -0.50134,0.378669 -1.09333,0.568 -1.776,0.568 -0.45867,0 -0.87733,-0.096 -1.256,-0.288 -0.37867,-0.192001 -0.70667,-0.463998 -0.984,-0.816 L 160.696,32 h -1.808 V 20.144 l 2.048,-0.224 v 4.576 c 0.27733,-0.384002 0.616,-0.679999 1.016,-0.888 0.4,-0.208001 0.84,-0.312 1.32,-0.312 z m -0.768,7.408 c 0.55467,0 0.98666,-0.237331 1.296,-0.712 0.30933,-0.474669 0.464,-1.218662 0.464,-2.232 0,-1.066672 -0.144,-1.821331 -0.432,-2.264 -0.288,-0.442669 -0.69333,-0.664 -1.216,-0.664 -0.65067,0 -1.21066,0.383996 -1.68,1.152 v 3.744 c 0.18133,0.309335 0.408,0.549332 0.68,0.72 0.272,0.170667 0.568,0.256 0.888,0.256 z m 13.064,-3.136 c 0,0.106667 -0.016,0.383998 -0.048,0.832 h -5.312 c 0.064,0.821337 0.27733,1.407998 0.64,1.76 0.36267,0.352002 0.84266,0.528 1.44,0.528 0.37333,0 0.72533,-0.06133 1.056,-0.184 0.33067,-0.122667 0.68266,-0.311999 1.056,-0.568 l 0.848,1.168 c -0.93867,0.757337 -1.98399,1.136 -3.136,1.136 -1.29067,0 -2.28533,-0.394663 -2.984,-1.184 -0.69867,-0.789337 -1.048,-1.86666 -1.048,-3.232 0,-0.864004 0.14933,-1.639997 0.448,-2.328 0.29867,-0.688003 0.73066,-1.226665 1.296,-1.616 0.56534,-0.389335 1.23733,-0.584 2.016,-0.584 1.18401,0 2.10133,0.375996 2.752,1.128 0.65067,0.752004 0.976,1.799993 0.976,3.144 z m -2.032,-0.592 c 0,-1.482674 -0.54933,-2.224 -1.648,-2.224 -0.50134,0 -0.89333,0.183998 -1.176,0.552 -0.28267,0.368002 -0.45067,0.957329 -0.504,1.768 h 3.328 z m 8.248,-3.664 c 0.30933,0 0.592,0.03733 0.848,0.112 l -0.352,1.984 c -0.256,-0.064 -0.50667,-0.096 -0.752,-0.096 -0.50134,0 -0.896,0.178665 -1.184,0.536 -0.288,0.357335 -0.51733,0.903996 -0.688,1.64 V 32 h -2.048 v -8.464 h 1.776 l 0.192,1.664 c 0.20267,-0.608003 0.496,-1.074665 0.88,-1.4 0.384,-0.325335 0.82666,-0.488 1.328,-0.488 z m 8.024,6.448 c 0,0.330668 0.0507,0.573333 0.152,0.728 0.10133,0.154667 0.264,0.274666 0.488,0.36 l -0.432,1.36 c -0.48,-0.04267 -0.872,-0.159999 -1.176,-0.352 -0.304,-0.192001 -0.536,-0.485331 -0.696,-0.88 -0.288,0.426669 -0.648,0.743999 -1.08,0.952 -0.432,0.208001 -0.91466,0.312 -1.448,0.312 -0.84267,0 -1.50933,-0.239998 -2,-0.72 -0.49067,-0.480002 -0.736,-1.109329 -0.736,-1.888 0,-0.917338 0.33333,-1.618664 1,-2.104 0.66667,-0.485336 1.61866,-0.728 2.856,-0.728 h 1.056 v -0.48 c 0,-0.544003 -0.12533,-0.925332 -0.376,-1.144 -0.25067,-0.218668 -0.65333,-0.328 -1.208,-0.328 -0.61867,0 -1.36533,0.149332 -2.24,0.448 l -0.48,-1.392 c 1.056,-0.405335 2.07999,-0.608 3.072,-0.608 2.16534,0 3.248,0.970657 3.248,2.912 z m -3.648,0.992 c 0.69334,0 1.23733,-0.346663 1.632,-1.04 V 28 h -0.848 c -1.32267,0 -1.984,0.490662 -1.984,1.472 0,0.405335 0.10133,0.719999 0.304,0.944 0.20267,0.224001 0.50133,0.336 0.896,0.336 z m 11.176,0.848 c -0.29867,0.213334 -0.632,0.373333 -1,0.48 -0.368,0.106667 -0.744,0.16 -1.128,0.16 -0.832,-0.01067 -1.464,-0.247998 -1.896,-0.712 -0.432,-0.464002 -0.648,-1.149329 -0.648,-2.056 v -4.464 h -1.328 v -1.472 h 1.328 v -1.872 l 2.048,-0.24 v 2.112 h 1.968 l -0.208,1.472 h -1.76 v 4.416 c 0,0.416002 0.072,0.714666 0.216,0.896 0.144,0.181334 0.37066,0.272 0.68,0.272 0.30933,0 0.64533,-0.101332 1.008,-0.304 z m 8.12,0.4 h -1.776 l -0.112,-1.184 c -0.30934,0.480002 -0.67467,0.837332 -1.096,1.072 -0.42134,0.234668 -0.92,0.352 -1.496,0.352 -0.75734,0 -1.34133,-0.231998 -1.752,-0.696 -0.41067,-0.464002 -0.616,-1.106663 -0.616,-1.928 v -6.08 h 2.048 v 5.824 c 0,0.480002 0.0827,0.821332 0.248,1.024 0.16533,0.202668 0.42933,0.304 0.792,0.304 0.65067,0 1.22133,-0.399996 1.712,-1.2 v -5.952 h 2.048 z m 7.176,-8.704 c 0.75734,0 1.34666,0.226664 1.768,0.68 0.42133,0.453336 0.632,1.085329 0.632,1.896 V 32 h -2.048 v -5.808 c 0,-0.501336 -0.088,-0.853332 -0.264,-1.056 -0.176,-0.202668 -0.43467,-0.304 -0.776,-0.304 -0.352,0 -0.66933,0.109332 -0.952,0.328 -0.28267,0.218668 -0.55733,0.535998 -0.824,0.952 V 32 h -2.048 v -8.464 h 1.776 l 0.16,1.104 c 0.69334,-0.896005 1.55199,-1.344 2.576,-1.344 z m 12.344,0.688 c -0.544,0.192001 -1.36,0.288 -2.448,0.288 0.52267,0.234668 0.90933,0.525332 1.16,0.872 0.25067,0.346668 0.376,0.781331 0.376,1.304 0,0.554669 -0.136,1.045331 -0.408,1.472 -0.272,0.426669 -0.66666,0.762665 -1.184,1.008 -0.51734,0.245335 -1.12266,0.368 -1.816,0.368 -0.384,0 -0.72,-0.04267 -1.008,-0.128 -0.23467,0.160001 -0.352,0.367999 -0.352,0.624 0,0.394669 0.34133,0.592 1.024,0.592 h 1.296 c 0.61867,0 1.16,0.101332 1.624,0.304 0.464,0.202668 0.824,0.487998 1.08,0.856 0.256,0.368002 0.384,0.781331 0.384,1.24 0,0.853338 -0.36266,1.517331 -1.088,1.992 -0.72534,0.474669 -1.77066,0.712 -3.136,0.712 -0.98134,0 -1.752,-0.101332 -2.312,-0.304 -0.56,-0.202668 -0.95733,-0.495998 -1.192,-0.88 -0.23467,-0.384002 -0.352,-0.874664 -0.352,-1.472 h 1.84 c 0,0.298668 0.056,0.533332 0.168,0.704 0.112,0.170668 0.31466,0.298666 0.608,0.384 0.29333,0.08533 0.71733,0.128 1.272,0.128 0.77867,0 1.328,-0.096 1.648,-0.288 0.32,-0.192001 0.48,-0.469331 0.48,-0.832 0,-0.320002 -0.12267,-0.567999 -0.368,-0.744 -0.24534,-0.176001 -0.60266,-0.264 -1.072,-0.264 h -1.28 c -0.8,0 -1.40267,-0.154665 -1.808,-0.464 -0.40534,-0.309335 -0.608,-0.698664 -0.608,-1.168 0,-0.298668 0.088,-0.586665 0.264,-0.864 0.176,-0.277335 0.41866,-0.511999 0.728,-0.704 -0.512,-0.266668 -0.888,-0.594665 -1.128,-0.984 -0.24,-0.389335 -0.36,-0.855997 -0.36,-1.4 0,-0.608003 0.14933,-1.141331 0.448,-1.6 0.29867,-0.458669 0.712,-0.813332 1.24,-1.064 0.528,-0.250668 1.13333,-0.376 1.816,-0.376 0.896,0.02133 1.61866,-0.04533 2.168,-0.2 0.54934,-0.154667 1.144,-0.402665 1.784,-0.744 z m -4.432,0.704 c -0.45867,0 -0.81867,0.146665 -1.08,0.44 -0.26134,0.293335 -0.392,0.685331 -0.392,1.176 0,0.512003 0.13333,0.917332 0.4,1.216 0.26667,0.298668 0.63466,0.448 1.104,0.448 0.49067,0 0.864,-0.146665 1.12,-0.44 0.256,-0.293335 0.384,-0.706664 0.384,-1.24 0,-1.066672 -0.512,-1.6 -1.536,-1.6 z m 8.408,-1.392 c 1.14134,0 2.144,0.335997 3.008,1.008 l -0.8,1.2 c -0.72534,-0.458669 -1.43466,-0.688 -2.128,-0.688 -0.40534,0 -0.72,0.07733 -0.944,0.232 -0.224,0.154667 -0.336,0.359999 -0.336,0.616 0,0.192001 0.048,0.351999 0.144,0.48 0.096,0.128001 0.26933,0.247999 0.52,0.36 0.25067,0.112001 0.62133,0.237333 1.112,0.376 0.91734,0.245335 1.59733,0.570665 2.04,0.976 0.44267,0.405335 0.664,0.970663 0.664,1.696 0,0.842671 -0.34133,1.501331 -1.024,1.976 -0.68267,0.474669 -1.53066,0.712 -2.544,0.712 -0.69334,0 -1.32533,-0.106666 -1.896,-0.32 -0.57067,-0.213334 -1.064,-0.506665 -1.48,-0.88 l 1.024,-1.152 c 0.736,0.554669 1.504,0.832 2.304,0.832 0.45867,0 0.824,-0.09067 1.096,-0.272 0.272,-0.181334 0.408,-0.431998 0.408,-0.752 0,-0.245335 -0.0507,-0.439999 -0.152,-0.584 -0.10133,-0.144001 -0.28267,-0.271999 -0.544,-0.384 -0.26134,-0.112001 -0.66933,-0.247999 -1.224,-0.408 -0.864,-0.234668 -1.49867,-0.562665 -1.904,-0.984 -0.40533,-0.421335 -0.608,-0.946664 -0.608,-1.576 0,-0.469336 0.136,-0.890665 0.408,-1.264 0.272,-0.373335 0.656,-0.666666 1.152,-0.88 0.496,-0.213334 1.064,-0.32 1.704,-0.32 z m 9.656,0 c 0.75734,0 1.34666,0.226664 1.768,0.68 0.42134,0.453336 0.632,1.085329 0.632,1.896 V 32 h -2.048 v -5.808 c 0,-0.501336 -0.088,-0.853332 -0.264,-1.056 -0.176,-0.202668 -0.43467,-0.304 -0.776,-0.304 -0.352,0 -0.66933,0.109332 -0.952,0.328 -0.28267,0.218668 -0.55733,0.535998 -0.824,0.952 V 32 h -2.048 v -8.464 h 1.776 l 0.16,1.104 c 0.69334,-0.896005 1.55199,-1.344 2.576,-1.344 z m 11.928,4.272 c 0,0.106667 -0.016,0.383998 -0.048,0.832 h -5.312 c 0.064,0.821337 0.27733,1.407998 0.64,1.76 0.36267,0.352002 0.84266,0.528 1.44,0.528 0.37333,0 0.72533,-0.06133 1.056,-0.184 0.33067,-0.122667 0.68266,-0.311999 1.056,-0.568 l 0.848,1.168 c -0.93867,0.757337 -1.98399,1.136 -3.136,1.136 -1.29067,0 -2.28533,-0.394663 -2.984,-1.184 -0.69867,-0.789337 -1.048,-1.86666 -1.048,-3.232 0,-0.864004 0.14933,-1.639997 0.448,-2.328 0.29867,-0.688003 0.73066,-1.226665 1.296,-1.616 0.56534,-0.389335 1.23733,-0.584 2.016,-0.584 1.18401,0 2.10133,0.375996 2.752,1.128 0.65067,0.752004 0.976,1.799993 0.976,3.144 z m -2.032,-0.592 c 0,-1.482674 -0.54933,-2.224 -1.648,-2.224 -0.50134,0 -0.89333,0.183998 -1.176,0.552 -0.28267,0.368002 -0.45067,0.957329 -0.504,1.768 h 3.328 z m 8.92,4.624 c -0.29867,0.213334 -0.632,0.373333 -1,0.48 -0.368,0.106667 -0.744,0.16 -1.128,0.16 -0.832,-0.01067 -1.464,-0.247998 -1.896,-0.712 -0.432,-0.464002 -0.648,-1.149329 -0.648,-2.056 v -4.464 h -1.328 v -1.472 h 1.328 v -1.872 l 2.048,-0.24 v 2.112 h 1.968 l -0.208,1.472 h -1.76 v 4.416 c 0,0.416002 0.072,0.714666 0.216,0.896 0.144,0.181334 0.37066,0.272 0.68,0.272 0.30933,0 0.64533,-0.101332 1.008,-0.304 z m 6.856,-8.064 v 1.472 l -4.096,5.392 h 4.176 l -0.208,1.6 h -6.32 v -1.472 l 4.112,-5.392 h -3.76 v -1.6 z m 9.504,-2.064 c -0.40534,0 -0.696,0.09333 -0.872,0.28 -0.176,0.186668 -0.264,0.482665 -0.264,0.888 v 0.896 h 2.032 l -0.224,1.472 h -1.808 V 32 H 270.6 v -6.992 h -1.376 v -1.472 h 1.376 v -0.928 c 0,-0.800004 0.25866,-1.447998 0.776,-1.944 0.51734,-0.496003 1.25066,-0.744 2.2,-0.744 0.74667,0 1.47733,0.165332 2.192,0.496 l -0.592,1.376 c -0.45867,-0.213334 -0.92266,-0.32 -1.392,-0.32 z M 282.88,32 h -1.776 l -0.112,-1.184 c -0.30934,0.480002 -0.67466,0.837332 -1.096,1.072 -0.42133,0.234668 -0.92,0.352 -1.496,0.352 -0.75734,0 -1.34133,-0.231998 -1.752,-0.696 -0.41067,-0.464002 -0.616,-1.106663 -0.616,-1.928 v -6.08 h 2.048 v 5.824 c 0,0.480002 0.0827,0.821332 0.248,1.024 0.16533,0.202668 0.42933,0.304 0.792,0.304 0.65067,0 1.22133,-0.399996 1.712,-1.2 v -5.952 h 2.048 z m -5.2,-12.56 c 0.30933,0 0.57067,0.106666 0.784,0.32 0.21333,0.213334 0.32,0.474665 0.32,0.784 0,0.309335 -0.10667,0.570666 -0.32,0.784 -0.21333,0.213334 -0.47467,0.32 -0.784,0.32 -0.32,0 -0.58933,-0.106666 -0.808,-0.32 -0.21867,-0.213334 -0.328,-0.474665 -0.328,-0.784 0,-0.309335 0.10933,-0.570666 0.328,-0.784 0.21867,-0.213334 0.488,-0.32 0.808,-0.32 z m 3.536,0 c 0.32,0 0.58667,0.106666 0.8,0.32 0.21333,0.213334 0.32,0.474665 0.32,0.784 0,0.309335 -0.10667,0.570666 -0.32,0.784 -0.21333,0.213334 -0.48,0.32 -0.8,0.32 -0.30934,0 -0.57333,-0.106666 -0.792,-0.32 -0.21867,-0.213334 -0.328,-0.474665 -0.328,-0.784 0,-0.309335 0.10933,-0.570666 0.328,-0.784 0.21867,-0.213334 0.48266,-0.32 0.792,-0.32 z m 8.504,3.872 c 0.30933,0 0.592,0.03733 0.848,0.112 l -0.352,1.984 c -0.256,-0.064 -0.50667,-0.096 -0.752,-0.096 -0.50134,0 -0.896,0.178665 -1.184,0.536 -0.288,0.357335 -0.51733,0.903996 -0.688,1.64 V 32 h -2.048 v -8.464 h 1.776 l 0.192,1.664 c 0.20267,-0.608003 0.496,-1.074665 0.88,-1.4 0.384,-0.325335 0.82666,-0.488 1.328,-0.488 z m 13.232,-2.368 v 1.632 l -5.104,7.696 H 303 L 302.776,32 h -7.392 v -1.616 l 5.2,-7.76 h -4.672 v -1.68 z M 311.472,32 h -1.776 l -0.112,-1.184 c -0.30933,0.480002 -0.67466,0.837332 -1.096,1.072 -0.42134,0.234668 -0.92,0.352 -1.496,0.352 -0.75734,0 -1.34133,-0.231998 -1.752,-0.696 -0.41067,-0.464002 -0.616,-1.106663 -0.616,-1.928 v -6.08 h 2.048 v 5.824 c 0,0.480002 0.0827,0.821332 0.248,1.024 0.16533,0.202668 0.42933,0.304 0.792,0.304 0.65067,0 1.22133,-0.399996 1.712,-1.2 v -5.952 h 2.048 z m 10.024,-8.016 c -0.544,0.192001 -1.35999,0.288 -2.448,0.288 0.52267,0.234668 0.90933,0.525332 1.16,0.872 0.25067,0.346668 0.376,0.781331 0.376,1.304 0,0.554669 -0.136,1.045331 -0.408,1.472 -0.272,0.426669 -0.66666,0.762665 -1.184,1.008 -0.51734,0.245335 -1.12266,0.368 -1.816,0.368 -0.384,0 -0.72,-0.04267 -1.008,-0.128 -0.23467,0.160001 -0.352,0.367999 -0.352,0.624 0,0.394669 0.34133,0.592 1.024,0.592 h 1.296 c 0.61867,0 1.16,0.101332 1.624,0.304 0.464,0.202668 0.824,0.487998 1.08,0.856 0.256,0.368002 0.384,0.781331 0.384,1.24 0,0.853338 -0.36266,1.517331 -1.088,1.992 -0.72534,0.474669 -1.77066,0.712 -3.136,0.712 -0.98134,0 -1.752,-0.101332 -2.312,-0.304 -0.56,-0.202668 -0.95733,-0.495998 -1.192,-0.88 -0.23467,-0.384002 -0.352,-0.874664 -0.352,-1.472 h 1.84 c 0,0.298668 0.056,0.533332 0.168,0.704 0.112,0.170668 0.31466,0.298666 0.608,0.384 0.29333,0.08533 0.71733,0.128 1.272,0.128 0.77867,0 1.328,-0.096 1.648,-0.288 0.32,-0.192001 0.48,-0.469331 0.48,-0.832 0,-0.320002 -0.12267,-0.567999 -0.368,-0.744 -0.24533,-0.176001 -0.60266,-0.264 -1.072,-0.264 h -1.28 c -0.8,0 -1.40267,-0.154665 -1.808,-0.464 -0.40533,-0.309335 -0.608,-0.698664 -0.608,-1.168 0,-0.298668 0.088,-0.586665 0.264,-0.864 0.176,-0.277335 0.41866,-0.511999 0.728,-0.704 -0.512,-0.266668 -0.888,-0.594665 -1.128,-0.984 -0.24,-0.389335 -0.36,-0.855997 -0.36,-1.4 0,-0.608003 0.14933,-1.141331 0.448,-1.6 0.29867,-0.458669 0.712,-0.813332 1.24,-1.064 0.528,-0.250668 1.13333,-0.376 1.816,-0.376 0.896,0.02133 1.61866,-0.04533 2.168,-0.2 0.54934,-0.154667 1.144,-0.402665 1.784,-0.744 z m -4.432,0.704 c -0.45867,0 -0.81867,0.146665 -1.08,0.44 -0.26134,0.293335 -0.392,0.685331 -0.392,1.176 0,0.512003 0.13333,0.917332 0.4,1.216 0.26667,0.298668 0.63466,0.448 1.104,0.448 0.49067,0 0.864,-0.146665 1.12,-0.44 0.256,-0.293335 0.384,-0.706664 0.384,-1.24 0,-1.066672 -0.512,-1.6 -1.536,-1.6 z m 12.504,2.88 c 0,0.106667 -0.016,0.383998 -0.048,0.832 h -5.312 c 0.064,0.821337 0.27733,1.407998 0.64,1.76 0.36267,0.352002 0.84266,0.528 1.44,0.528 0.37333,0 0.72533,-0.06133 1.056,-0.184 0.33067,-0.122667 0.68266,-0.311999 1.056,-0.568 l 0.848,1.168 c -0.93867,0.757337 -1.98399,1.136 -3.136,1.136 -1.29067,0 -2.28533,-0.394663 -2.984,-1.184 -0.69867,-0.789337 -1.048,-1.86666 -1.048,-3.232 0,-0.864004 0.14933,-1.639997 0.448,-2.328 0.29867,-0.688003 0.73066,-1.226665 1.296,-1.616 0.56534,-0.389335 1.23733,-0.584 2.016,-0.584 1.18401,0 2.10133,0.375996 2.752,1.128 0.65067,0.752004 0.976,1.799993 0.976,3.144 z m -2.032,-0.592 c 0,-1.482674 -0.54933,-2.224 -1.648,-2.224 -0.50134,0 -0.89333,0.183998 -1.176,0.552 -0.28267,0.368002 -0.45067,0.957329 -0.504,1.768 h 3.328 z m 14.408,-3.44 -1.84,8.464 h -2.56 l -1.28,-6.64 -1.312,6.64 h -2.512 l -1.872,-8.464 h 2.048 l 1.184,6.96 1.472,-6.96 h 2.096 l 1.344,6.96 1.264,-6.96 z m 7.656,6.224 c 0,0.330668 0.0507,0.573333 0.152,0.728 0.10133,0.154667 0.264,0.274666 0.488,0.36 l -0.432,1.36 c -0.48,-0.04267 -0.872,-0.159999 -1.176,-0.352 -0.304,-0.192001 -0.536,-0.485331 -0.696,-0.88 -0.288,0.426669 -0.648,0.743999 -1.08,0.952 -0.432,0.208001 -0.91466,0.312 -1.448,0.312 -0.84267,0 -1.50933,-0.239998 -2,-0.72 -0.49067,-0.480002 -0.736,-1.109329 -0.736,-1.888 0,-0.917338 0.33333,-1.618664 1,-2.104 0.66667,-0.485336 1.61866,-0.728 2.856,-0.728 h 1.056 v -0.48 c 0,-0.544003 -0.12533,-0.925332 -0.376,-1.144 -0.25067,-0.218668 -0.65333,-0.328 -1.208,-0.328 -0.61867,0 -1.36533,0.149332 -2.24,0.448 l -0.48,-1.392 c 1.056,-0.405335 2.08,-0.608 3.072,-0.608 2.16534,0 3.248,0.970657 3.248,2.912 z m -3.648,0.992 c 0.69334,0 1.23733,-0.346663 1.632,-1.04 V 28 h -0.848 c -1.32267,0 -1.984,0.490662 -1.984,1.472 0,0.405335 0.10133,0.719999 0.304,0.944 0.20267,0.224001 0.50133,0.336 0.896,0.336 z m 10.84,-7.456 c 0.75734,0 1.34666,0.226664 1.768,0.68 0.42134,0.453336 0.632,1.085329 0.632,1.896 V 32 h -2.048 v -5.808 c 0,-0.501336 -0.088,-0.853332 -0.264,-1.056 -0.176,-0.202668 -0.43467,-0.304 -0.776,-0.304 -0.352,0 -0.66933,0.109332 -0.952,0.328 -0.28267,0.218668 -0.55733,0.535998 -0.824,0.952 V 32 h -2.048 v -8.464 h 1.776 l 0.16,1.104 c 0.69334,-0.896005 1.55199,-1.344 2.576,-1.344 z m 12.104,-3.152 V 32 h -1.808 l -0.144,-1.072 c -0.26667,0.405335 -0.60533,0.725332 -1.016,0.96 -0.41067,0.234668 -0.87733,0.352 -1.4,0.352 -1.03467,0 -1.82933,-0.399996 -2.384,-1.2 -0.55467,-0.800004 -0.832,-1.887993 -0.832,-3.264 0,-0.864004 0.13867,-1.634663 0.416,-2.312 0.27733,-0.677337 0.67466,-1.207998 1.192,-1.592 0.51734,-0.384002 1.11733,-0.576 1.8,-0.576 0.81067,0 1.52,0.303997 2.128,0.912 V 19.92 Z m -3.792,10.544 c 0.36267,0 0.68267,-0.088 0.96,-0.264 0.27734,-0.176001 0.53867,-0.450665 0.784,-0.824 v -3.872 c -0.24533,-0.298668 -0.49333,-0.522666 -0.744,-0.672 -0.25067,-0.149334 -0.54133,-0.224 -0.872,-0.224 -0.544,0 -0.97333,0.242664 -1.288,0.728 -0.31467,0.485336 -0.472,1.218662 -0.472,2.2 0,1.045339 0.13866,1.794664 0.416,2.248 0.27734,0.453336 0.68266,0.68 1.216,0.68 z m 13.4,-3.12 c 0,0.106667 -0.016,0.383998 -0.048,0.832 h -5.312 c 0.064,0.821337 0.27733,1.407998 0.64,1.76 0.36267,0.352002 0.84266,0.528 1.44,0.528 0.37333,0 0.72533,-0.06133 1.056,-0.184 0.33067,-0.122667 0.68267,-0.311999 1.056,-0.568 l 0.848,1.168 c -0.93867,0.757337 -1.98399,1.136 -3.136,1.136 -1.29067,0 -2.28533,-0.394663 -2.984,-1.184 -0.69867,-0.789337 -1.048,-1.86666 -1.048,-3.232 0,-0.864004 0.14933,-1.639997 0.448,-2.328 0.29867,-0.688003 0.73066,-1.226665 1.296,-1.616 0.56534,-0.389335 1.23733,-0.584 2.016,-0.584 1.18401,0 2.10133,0.375996 2.752,1.128 0.65067,0.752004 0.976,1.799993 0.976,3.144 z m -2.032,-0.592 c 0,-1.482674 -0.54933,-2.224 -1.648,-2.224 -0.50134,0 -0.89333,0.183998 -1.176,0.552 -0.28267,0.368002 -0.45067,0.957329 -0.504,1.768 h 3.328 z m 8.248,-3.664 c 0.30933,0 0.592,0.03733 0.848,0.112 l -0.352,1.984 c -0.256,-0.064 -0.50667,-0.096 -0.752,-0.096 -0.50134,0 -0.896,0.178665 -1.184,0.536 -0.288,0.357335 -0.51733,0.903996 -0.688,1.64 V 32 h -2.048 v -8.464 h 1.776 l 0.192,1.664 c 0.20267,-0.608003 0.496,-1.074665 0.88,-1.4 0.384,-0.325335 0.82666,-0.488 1.328,-0.488 z m 7.176,8.288 c -0.29867,0.213334 -0.632,0.373333 -1,0.48 -0.368,0.106667 -0.744,0.16 -1.128,0.16 -0.832,-0.01067 -1.464,-0.247998 -1.896,-0.712 -0.432,-0.464002 -0.648,-1.149329 -0.648,-2.056 v -4.464 h -1.328 v -1.472 h 1.328 v -1.872 l 2.048,-0.24 v 2.112 h 1.968 l -0.208,1.472 h -1.76 v 4.416 c 0,0.416002 0.072,0.714666 0.216,0.896 0.144,0.181334 0.37066,0.272 0.68,0.272 0.30933,0 0.64533,-0.101332 1.008,-0.304 z m 8.024,-4.032 c 0,0.106667 -0.016,0.383998 -0.048,0.832 h -5.312 c 0.064,0.821337 0.27733,1.407998 0.64,1.76 0.36267,0.352002 0.84266,0.528 1.44,0.528 0.37333,0 0.72533,-0.06133 1.056,-0.184 0.33067,-0.122667 0.68266,-0.311999 1.056,-0.568 l 0.848,1.168 c -0.93867,0.757337 -1.98399,1.136 -3.136,1.136 -1.29067,0 -2.28533,-0.394663 -2.984,-1.184 -0.69867,-0.789337 -1.048,-1.86666 -1.048,-3.232 0,-0.864004 0.14933,-1.639997 0.448,-2.328 0.29867,-0.688003 0.73066,-1.226665 1.296,-1.616 0.56534,-0.389335 1.23733,-0.584 2.016,-0.584 1.18401,0 2.10133,0.375996 2.752,1.128 0.65067,0.752004 0.976,1.799993 0.976,3.144 z m -2.032,-0.592 c 0,-1.482674 -0.54933,-2.224 -1.648,-2.224 -0.50134,0 -0.89333,0.183998 -1.176,0.552 -0.28267,0.368002 -0.45067,0.957329 -0.504,1.768 h 3.328 z"
       id="path2"
       inkscape:connector-curvature="0"
       style="fill:#ffffff" />
    <g
       transform="translate(16,8)"
       id="g6"
       style="fill:#ffffff">
      <path
         d="m 25.964062,2.2068966 c 4.311448,2.9978756 7.139386,8.0154864 7.139386,13.7020014 0,7.732851 -5.22657,14.231804 -12.306155,16.091102 v -7.969212 h -5.624879 z m 1.644762,9.8041374 c 0,-0.828374 -0.671625,-1.5 -1.5,-1.5 -0.828375,0 -1.5,0.671626 -1.5,1.5 0,0.828376 0.671625,1.5 1.5,1.5 0.828375,0 1.5,-0.671624 1.5,-1.5 z M 7.139386,29.793103 C 2.8279386,26.795477 0,21.777819 0,16.090975 0,8.3580519 5.2265704,1.8590382 12.306155,0 v 7.9690088 h 5.624879 z M 6.3000843,19.772248 c 0,0.828375 0.671625,1.5 1.5,1.5 0.828375,0 1.5,-0.671625 1.5,-1.5 0,-0.828375 -0.671625,-1.5 -1.5,-1.5 -0.828375,0 -1.5,0.671625 -1.5,1.5 z"
         id="path4"
         inkscape:connector-curvature="0" />
    </g>
  </g>
</svg>
