<svg xmlns="http://www.w3.org/2000/svg" width="300" height="198" viewBox="0 0 300 198">
  <g fill="none" fill-rule="evenodd">
    <path fill="#BC287E" d="M82.8828829,56.6192111 C104.766001,11.1618977 150.565571,12.3627446 175.063816,41.0025043 C185.347606,53.0249975 185.277085,61.5067455 184.916089,79.2792793 C186.766407,70.1339976 197.601765,55.1703061 184.926163,31.1288257 C178.481952,18.9060452 167.424958,8.16241008 149.930469,4.62166486 C115.472072,-2.35245058 86.3631432,27.7598805 82.8828829,56.6192111"/>
    <path fill="#0085CC" d="M154.48144,106.049865 C187.332971,109.220925 213.782984,82.5693545 210.541483,49.022191 C207.709068,19.7042779 178.767127,-2.33192706 145.945946,0.197804321 L150.0131,2.09147891 C161.90567,6.11866719 165.515098,5.55816411 176.845591,16.747141 C202.375995,41.9592372 197.509794,89.8352491 159.321449,103.841676 L154.48144,106.049865"/>
    <path fill="#F0BC00" d="M116.074396,128.828829 C96.1037623,110.160277 89.5808594,85.0676952 103.17052,60.3956672 C108.757691,50.2512909 115.580363,43.2957835 127.255438,37.9504321 C143.479798,30.5228394 150.787292,32.9575072 166.666667,37.2320414 C155.083281,21.1977342 109.005964,12.2032199 88.1109036,50.1704992 C70.2784259,82.5723245 94.9691624,120.078 116.074396,128.828829"/>
    <path fill="#07B06A" d="M194.594595,120.071849 C180.81868,124.861502 174.41624,130.870172 155.05646,126.758677 C104.138076,115.94544 105.496767,52.7855407 126.931754,40.5405405 C115.259607,44.7937206 103.981837,58.2480872 99.9994216,72.8767281 C91.3222755,104.750137 114.863549,138.932176 151.945119,137.810979 C168.455637,137.311792 187.25388,129.242769 194.594595,120.071849"/>
    <path fill="#E5712A" d="M116.265681,81.7916182 C114.674168,107.43597 151.763941,137.626962 187.598826,121.688049 C215.685015,109.195648 225.874144,73.9419603 211.593814,39.6396396 C212.967214,57.4747049 215.487915,63.2364451 207.297108,79.7440721 C184.132968,126.428649 120.740997,108.094204 116.265681,81.7916182"/>
    <polygon fill="#69124B" points="124.324 77.477 127.027 77.477 127.027 62.162 124.324 62.162"/>
    <polyline fill="#69124B" points="129.73 77.477 129.73 62.162 132.765 62.162 132.765 68.947 138.882 62.162 142.95 62.162 137.294 68.126 143.243 77.477 139.328 77.477 135.204 70.287 132.765 72.846 132.765 77.477 129.73 77.477"/>
    <polyline fill="#69124B" points="145.045 77.477 145.045 62.162 149.582 62.162 152.263 72.608 154.912 62.162 159.459 62.162 159.459 77.477 156.66 77.477 156.65 65.42 153.701 77.477 150.79 77.477 147.855 65.42 147.844 77.477 145.045 77.477"/>
    <path fill="#69124B" d="M161.261261,69.46407 C161.261261,67.8685743 161.48942,66.5285707 161.941949,65.4427288 C162.277452,64.6452027 162.740505,63.9275179 163.324793,63.2936665 C163.909082,62.6602587 164.548516,62.190082 165.243095,61.8804751 C166.169622,61.4692923 167.23759,61.2612613 168.447842,61.2612613 C170.639344,61.2612613 172.388421,61.978946 173.705596,63.4103235 C175.018983,64.8456931 175.675676,66.8377341 175.675676,69.3913257 C175.675676,71.9227392 175.02235,73.9041347 173.719067,75.3319637 C172.416205,76.7633412 170.670495,77.4774775 168.489095,77.4774775 C166.280333,77.4774775 164.520732,76.7673333 163.217449,75.3430528 C161.914587,73.9223208 161.261261,71.9626599 161.261261,69.46407 Z M164.351508,69.3585021 C164.351508,71.1323101 164.742156,72.4763057 165.519664,73.3940374 C166.297592,74.3086641 167.286421,74.7673081 168.48236,74.7673081 C169.681667,74.7673081 170.663339,74.3122126 171.434532,73.4051265 C172.201937,72.4944918 172.585429,71.1323101 172.585429,69.3145894 C172.585429,67.5190467 172.21204,66.1785996 171.461895,65.2972401 C170.715117,64.4123321 169.723342,63.9714306 168.48236,63.9714306 C167.244746,63.9714306 166.245815,64.4194291 165.488513,65.3118777 C164.731632,66.2078748 164.351508,67.5554189 164.351508,69.3585021 L164.351508,69.3585021 Z"/>
    <polygon fill="#69124B" points="0 168.468 1.802 168.468 1.802 154.054 0 154.054"/>
    <path fill="#69124B" d="M5.40540541 168.468468L5.40540541 157.882199 6.92684405 157.882199 6.92684405 159.384687C7.65846018 158.232284 8.71764659 157.657658 10.1014292 157.657658 10.7047364 157.657658 11.2570598 157.773303 11.7609488 158.000994 12.2648377 158.228684 12.6433917 158.531072 12.8940615 158.901857 13.1443065 159.272642 13.32105 159.714524 13.4204683 160.224353 13.4816487 160.55734 13.5135135 161.138716 13.5135135 161.968483L13.5135135 168.468468 11.8187303 168.468468 11.8187303 162.03643C11.8187303 161.305209 11.7545758 160.758032 11.6228679 160.397596 11.49116 160.037611 11.2570598 159.748273 10.9231166 159.530932 10.5891733 159.31674 10.1944745 159.207845 9.74496819 159.207845 9.02609799 159.207845 8.40664601 159.449035 7.88321333 159.935465 7.36020552 160.418296 7.10018864 161.339408 7.10018864 162.692503L7.10018864 168.468468 5.40540541 168.468468M18.7052417 166.726022L18.9189189 168.309288C18.4797808 168.414509 18.0850278 168.468468 17.7409446 168.468468 17.1741501 168.468468 16.735012 168.366845 16.4203879 168.15955 16.1089063 167.952255 15.8893372 167.683806 15.7616808 167.347457 15.6340243 167.011109 15.5715709 166.304688 15.5715709 165.227743L15.5715709 159.133004 14.4144144 159.133004 14.4144144 157.747141 15.5715709 157.747141 15.5715709 155.130998 17.1384063 154.054054 17.1384063 157.747141 18.7052417 157.747141 18.7052417 159.133004 17.1384063 159.133004 17.1384063 165.329817C17.1384063 165.842433 17.1651159 166.172037 17.2216776 166.318177 17.2750969 166.464318 17.36426 166.579882 17.4887741 166.668016 17.6132882 166.753002 17.7916144 166.797069 18.0229672 166.797069 18.1950088 166.797069 18.423612 166.773687 18.7052417 166.726022M27.9544262 164.891608L29.6730667 165.131418C29.4055837 166.187195 28.905199 167.009776 28.1748289 167.592548 27.4444587 168.175319 26.5128515 168.468468 25.3762573 168.468468 23.9471817 168.468468 22.8139206 168.002075 21.9768906 167.069728 21.139444 166.140468 20.7207207 164.831656 20.7207207 163.149465 20.7207207 161.410848 21.1423605 160.058836 21.9893898 159.099599 22.8360025 158.137276 23.9346825 157.657658 25.2850131 157.657658 26.5915965 157.657658 27.6586118 158.127137 28.4864757 159.069623 29.3143395 160.012108 29.7297297 161.337671 29.7297297 163.046312 29.7297297 163.149465 29.7268132 163.305958 29.7205636 163.512705L22.4206124 163.512705C22.483525 164.648272 22.7855891 165.520667 23.3334708 166.123716 23.8780194 166.726766 24.5613092 167.029613 25.3762573 167.029613 25.9841352 167.029613 26.5032687 166.859895 26.9311581 166.520019 27.3627973 166.180142 27.7027756 165.637485 27.9544262 164.891608zM22.5151897 162.07385L27.973175 162.07385C27.9006797 161.201015 27.6898598 160.548593 27.346965 160.112175 26.8211652 159.435949 26.1349589 159.096513 25.2945958 159.096513 24.5329777 159.096513 23.8938518 159.365857 23.3743016 159.905428 22.8580845 160.444999 22.5718527 161.167953 22.5151897 162.07385L22.5151897 162.07385zM31.5315315 168.468468L31.5315315 157.882199 33.0456708 157.882199 33.0456708 159.503483C33.4321336 158.752463 33.7902671 158.255683 34.1192256 158.018093 34.4481841 157.776453 34.8092774 157.657658 35.2020826 157.657658 35.7707833 157.657658 36.3487862 157.848 36.9369369 158.225535L36.3361014 159.881017C35.9272289 159.636227 35.5183563 159.513832 35.1094837 159.513832 34.7420481 159.513832 34.4130896 159.632627 34.1221854 159.867518 33.831704 160.101958 33.6240966 160.428195 33.4993629 160.846678 33.3107826 161.482052 33.2181838 162.179074 33.2181838 162.937293L33.2181838 168.468468 31.5315315 168.468468"/>
    <polyline fill="#69124B" points="37.838 168.468 37.838 154.054 39.498 154.054 39.498 162.265 43.424 158.02 45.569 158.02 41.832 161.902 45.946 168.468 43.902 168.468 40.649 163.13 39.498 164.325 39.498 168.468 37.838 168.468"/>
    <path fill="#69124B" d="M53.4299203,168.243928 L53.4299203,166.669892 C52.651007,167.869993 51.5957052,168.468468 50.2606078,168.468468 C49.6716318,168.468468 49.1214099,168.349223 48.6099419,168.111633 C48.098474,167.869993 47.7185994,167.570755 47.470744,167.21032 C47.2233145,166.846734 47.0495602,166.404852 46.949907,165.881074 C46.8821939,165.527838 46.8468468,164.970311 46.8468468,164.208492 L46.8468468,157.657658 L48.5456358,157.657658 L48.5456358,163.51507 C48.5456358,164.450132 48.5809829,165.082356 48.6482701,165.405443 C48.7547372,165.877924 48.9800216,166.245109 49.3275302,166.513748 C49.6716318,166.781937 50.0962226,166.918281 50.6047094,166.918281 C51.1131963,166.918281 51.5893171,166.781937 52.033072,166.506548 C52.4772527,166.231159 52.7923953,165.854075 52.9793515,165.381594 C53.1629008,164.908663 53.256166,164.218841 53.256166,163.317978 L53.256166,157.657658 L54.954955,157.657658 L54.954955,168.243928 L53.4299203,168.243928"/>
    <polygon fill="#69124B" points="57.658 168.468 59.459 168.468 59.459 154.054 57.658 154.054"/>
    <path fill="#69124B" d="M65.5521072 166.726022L65.7657658 168.309288C65.3266659 168.414509 64.9319474 168.468468 64.5878942 168.468468 64.0211491 168.468468 63.5816565 168.366845 63.2674526 168.15955 62.9556054 167.952255 62.7360554 167.683806 62.6084101 167.347457 62.4807648 167.011109 62.4187096 166.304688 62.4187096 165.227743L62.4187096 159.133004 61.2612613 159.133004 61.2612613 157.747141 62.4187096 157.747141 62.4187096 155.130998 63.9854084 154.054054 63.9854084 157.747141 65.5521072 157.747141 65.5521072 159.133004 63.9854084 159.133004 63.9854084 165.329817C63.9854084 165.842433 64.0121157 166.172037 64.0682796 166.318177 64.1216943 166.464318 64.2108496 166.579882 64.3353529 166.668016 64.4602489 166.753002 64.6381668 166.797069 64.8694994 166.797069 65.0419187 166.797069 65.2701092 166.773687 65.5521072 166.726022M74.150641 168.243928L74.150641 166.669892C73.3717277 167.869993 72.3164259 168.468468 70.9813285 168.468468 70.3923525 168.468468 69.8421306 168.349223 69.3306627 168.111633 68.8191947 167.869993 68.4393201 167.570755 68.1914647 167.21032 67.9440352 166.846734 67.7702809 166.404852 67.6706277 165.881074 67.6029146 165.527838 67.5675676 164.970311 67.5675676 164.208492L67.5675676 157.657658 69.2663565 157.657658 69.2663565 163.51507C69.2663565 164.450132 69.3017036 165.082356 69.3694167 165.405443 69.4754579 165.877924 69.7007423 166.245109 70.0482509 166.513748 70.3923525 166.781937 70.8169433 166.918281 71.3254302 166.918281 71.833917 166.918281 72.3100379 166.781937 72.7542186 166.506548 73.1983993 166.231159 73.5135419 165.854075 73.7000723 165.381594 73.8836215 164.908663 73.9768867 164.218841 73.9768867 163.317978L73.9768867 157.657658 75.6756757 157.657658 75.6756757 168.243928 74.150641 168.243928M77.4774775 168.468468L77.4774775 157.882199 78.9917352 157.882199 78.9917352 159.503483C79.3782283 158.752463 79.7359669 158.255683 80.065374 158.018093 80.3943582 157.776453 80.7554797 157.657658 81.1483156 157.657658 81.716638 157.657658 82.295109 157.848 82.8828829 158.225535L82.2824232 159.881017C81.8735187 159.636227 81.4646141 159.513832 81.0557095 159.513832 80.6882452 159.513832 80.3592609 159.632627 80.068334 159.867518 79.7778299 160.101958 79.5697833 160.428195 79.4454628 160.846678 79.2568678 161.482052 79.1642617 162.179074 79.1642617 162.937293L79.1642617 168.468468 77.4774775 168.468468M91.0174893 164.891608L92.7361297 165.131418C92.4686468 166.187195 91.9678454 167.009776 91.2374753 167.592548 90.5075218 168.175319 89.5754979 168.468468 88.4393203 168.468468 87.0102448 168.468468 85.8769837 168.002075 85.0395371 167.069728 84.2025071 166.140468 83.7837838 164.831656 83.7837838 163.149465 83.7837838 161.410848 84.2054236 160.058836 85.0524529 159.099599 85.8990656 158.137276 86.9977456 157.657658 88.3480761 157.657658 89.6542429 157.657658 90.7212582 158.127137 91.5495387 159.069623 92.3774026 160.012108 92.7927928 161.337671 92.7927928 163.046312 92.7927928 163.149465 92.7894597 163.305958 92.7832101 163.512705L85.4836754 163.512705C85.5465881 164.648272 85.8486521 165.520667 86.3965339 166.123716 86.9410825 166.726766 87.6239556 167.029613 88.4393203 167.029613 89.0467816 167.029613 89.5663318 166.859895 89.9942212 166.520019 90.4254437 166.180142 90.765422 165.637485 91.0174893 164.891608zM85.5778361 162.07385L91.0362381 162.07385C90.9637427 161.201015 90.7529228 160.548593 90.410028 160.112175 89.8842282 159.435949 89.198022 159.096513 88.3576589 159.096513 87.5956241 159.096513 86.9564982 159.365857 86.4373646 159.905428 85.9211475 160.444999 85.6344991 161.167953 85.5778361 162.07385L85.5778361 162.07385z"/>
    <polygon fill="#69124B" points="94.595 168.468 96.396 168.468 96.396 154.054 94.595 154.054"/>
    <polygon fill="#69124B" points="99.099 168.468 100.901 168.468 100.901 154.054 99.099 154.054"/>
    <path fill="#69124B" d="M109.936408 164.891608L111.655049 165.131418C111.387566 166.187195 110.887181 167.009776 110.156811 167.592548 109.426441 168.175319 108.494833 168.468468 107.358239 168.468468 105.929164 168.468468 104.795903 168.002075 103.958873 167.069728 103.121426 166.140468 102.702703 164.831656 102.702703 163.149465 102.702703 161.410848 103.124759 160.058836 103.971372 159.099599 104.817985 158.137276 105.916664 157.657658 107.266995 157.657658 108.573578 157.657658 109.640594 158.127137 110.468458 159.069623 111.296322 160.012108 111.711712 161.337671 111.711712 163.046312 111.711712 163.149465 111.708795 163.305958 111.702546 163.512705L104.402594 163.512705C104.465507 164.648272 104.767571 165.520667 105.315453 166.123716 105.860001 166.726766 106.543291 167.029613 107.358239 167.029613 107.966117 167.029613 108.485251 166.859895 108.913557 166.520019 109.344779 166.180142 109.684758 165.637485 109.936408 164.891608zM104.497172 162.07385L109.955157 162.07385C109.883078 161.201015 109.672258 160.548593 109.328947 160.112175 108.803147 159.435949 108.116941 159.096513 107.276578 159.096513 106.51496 159.096513 105.875834 159.365857 105.356284 159.905428 104.840066 160.444999 104.553835 161.167953 104.497172 162.07385L104.497172 162.07385zM112.612613 165.151255L114.24934 164.87133C114.340223 165.567394 114.597103 166.100353 115.01749 166.473291 115.437461 166.843144 116.027164 167.029613 116.779544 167.029613 117.541469 167.029613 118.105858 166.866508 118.475616 166.53677 118.842468 166.210118 119.027555 165.823955 119.027555 165.380925 119.027555 164.984623 118.861143 164.671636 118.532054 164.445052 118.300074 164.288559 117.735685 164.09195 116.838888 163.849055 115.628772 163.52593 114.791734 163.246006 114.321133 163.009723 113.854268 162.769914 113.499865 162.443703 113.25834 162.024037 113.01723 161.607456 112.894807 161.144589 112.894807 160.638521 112.894807 160.175214 112.995235 159.749376 113.192771 159.356159 113.393212 158.962943 113.662957 158.636732 114.004495 158.377085 114.26179 158.17695 114.612873 158.007232 115.054839 157.867491 115.500125 157.727308 115.973631 157.657658 116.48158 157.657658 117.246825 157.657658 117.917452 157.774036 118.49429 158.010759 119.074449 158.243515 119.50106 158.563555 119.77703 158.962943 120.049679 159.365857 120.24099 159.902342 120.344323 160.575043L118.726686 160.814852C118.654477 160.275281 118.441171 159.852529 118.090088 159.549241 117.739005 159.246394 117.243505 159.096513 116.600683 159.096513 115.844983 159.096513 115.302589 159.229642 114.979725 159.495901 114.656862 159.762601 114.49377 160.075587 114.49377 160.431774 114.49377 160.658359 114.559754 160.864665 114.694626 161.048049 114.829083 161.234518 115.039484 161.391011 115.327903 161.514442 115.4939 161.581007 115.97695 161.730888 116.785769 161.964084 117.952311 162.293381 118.767355 162.566693 119.231315 162.776526 119.695276 162.986359 120.058809 163.29626 120.322329 163.695648 120.588753 164.098563 120.720721 164.598459 120.720721 165.197982 120.720721 165.780754 120.560534 166.330023 120.23767 166.84623 119.914807 167.362437 119.450846 167.762266 118.845788 168.045276 118.23741 168.328727 117.550599 168.468468 116.785769 168.468468 115.519215 168.468468 114.550209 168.188544 113.885392 167.632222 113.22099 167.072814 112.797699 166.247147 112.612613 165.151255"/>
    <polyline fill="#69124B" points="129.73 168.468 129.73 154.054 131.464 154.054 131.464 161.201 137.959 154.054 140.303 154.054 134.818 159.899 140.541 168.468 138.258 168.468 133.604 161.194 131.464 163.476 131.464 168.468 129.73 168.468"/>
    <path fill="#69124B" d="M141.441441 163.063063C141.441441 161.148116 141.935831 159.729098 142.927472 158.80645 143.752681 158.040735 144.762724 157.657658 145.952284 157.657658 147.271474 157.657658 148.352669 158.124051 149.193009 159.056398 150.030485 159.985658 150.45045 161.274633 150.45045 162.916709 150.45045 164.248884 150.265208 165.294523 149.894314 166.057152 149.523828 166.81978 148.98323 167.412691 148.27252 167.835443 147.565081 168.258635 146.789761 168.468468 145.952284 168.468468 144.605288 168.468468 143.51755 168.005601 142.686616 167.076341 141.855682 166.14708 141.441441 164.808292 141.441441 163.063063zM143.109852 163.066149C143.109852 164.391712 143.378924 165.384451 143.916251 166.0404 144.456848 166.699876 145.133618 167.029613 145.952284 167.029613 146.761545 167.029613 147.435043 166.699876 147.975641 166.036874 148.513377 165.374312 148.782449 164.365262 148.782449 163.009723 148.782449 161.730888 148.510514 160.761512 147.969507 160.105563 147.42891 159.446088 146.755411 159.11635 145.952284 159.11635 145.133618 159.11635 144.456848 159.442561 143.916251 160.098951 143.378924 160.754899 143.109852 161.744112 143.109852 163.066149L143.109852 163.066149zM152.252252 168.468468L152.252252 157.882199 153.768622 157.882199 153.768622 159.377938C154.079009 158.860909 154.494836 158.442876 155.013137 158.130138 155.531438 157.813801 156.120031 157.657658 156.782305 157.657658 157.518258 157.657658 158.122943 157.820551 158.592971 158.143638 159.063422 158.470325 159.396253 158.922106 159.588075 159.507083 160.381617 158.272783 161.40848 157.657658 162.675438 157.657658 163.667155 157.657658 164.431903 157.946546 164.962907 158.527922 165.496876 159.109299 165.765766 160.003412 165.765766 161.210263L165.765766 168.468468 164.07663 168.468468 164.07663 161.805139C164.07663 161.091018 164.019041 160.574439 163.910214 160.258102 163.801388 159.942215 163.603214 159.690675 163.311881 159.496733 163.023936 159.303241 162.684754 159.207845 162.297722 159.207845 161.593951 159.207845 161.011709 159.455785 160.548033 159.948965 160.083933 160.445294 159.853577 161.237262 159.853577 162.325318L159.853577 168.468468 158.164441 168.468468 158.164441 161.597698C158.164441 160.80213 158.02682 160.204104 157.751579 159.80632 157.47676 159.408537 157.025364 159.207845 156.401625 159.207845 155.928209 159.207845 155.48994 159.340589 155.086817 159.605629 154.683694 159.870668 154.392361 160.258102 154.210278 160.771531 154.03116 161.28181 153.941389 162.01933 153.941389 162.981391L153.941389 168.468468 152.252252 168.468468M168.468468 172.072072L168.468468 157.875318 169.909716 157.875318 169.909716 159.223152C170.24916 158.702338 170.633519 158.310202 171.06319 158.049795 171.489284 157.789388 172.008785 157.657658 172.618513 157.657658 173.417439 157.657658 174.120176 157.881861 174.729507 158.332884 175.339235 158.781289 175.798717 159.417258 176.111132 160.234682 176.420369 161.05516 176.576577 161.951536 176.576577 162.930352 176.576577 163.975032 176.405265 164.917644 176.063038 165.758187 175.720811 166.594804 175.221979 167.237752 174.567337 167.685721 173.915874 168.130637 173.228241 168.35484 172.507617 168.35484 171.978974 168.35484 171.504388 168.232706 171.087039 167.988875 170.666509 167.745043 170.324283 167.438836 170.053999 167.066328L170.053999 172.072072 168.468468 172.072072zM169.909716 163.068625C169.909716 164.383745 170.152971 165.356018 170.636699 165.985443 171.123209 166.614869 171.711473 166.931108 172.402286 166.931108 173.105023 166.931108 173.705609 166.604836 174.204044 165.952293 174.705658 165.299749 174.954875 164.291272 174.954875 162.923809 174.954875 161.618721 174.71162 160.643395 174.222328 159.993904 173.732637 159.34485 173.149938 159.022068 172.471447 159.022068 171.798918 159.022068 171.203897 159.367968 170.687576 160.056716 170.168075 160.748953 169.909716 161.750451 169.909716 163.068625L169.909716 163.068625zM185.612084 164.891608L187.330724 165.131418C187.063241 166.187195 186.56244 167.009776 185.83207 167.592548 185.102116 168.175319 184.170092 168.468468 183.033915 168.468468 181.604839 168.468468 180.471578 168.002075 179.634132 167.069728 178.797102 166.140468 178.378378 164.831656 178.378378 163.149465 178.378378 161.410848 178.800018 160.058836 179.647048 159.099599 180.49366 158.137276 181.59234 157.657658 182.942671 157.657658 184.248837 157.657658 185.315853 158.127137 186.144133 159.069623 186.971997 160.012108 187.387387 161.337671 187.387387 163.046312 187.387387 163.149465 187.384054 163.305958 187.377805 163.512705L180.07827 163.512705C180.141183 164.648272 180.443247 165.520667 180.991128 166.123716 181.535677 166.726766 182.21855 167.029613 183.033915 167.029613 183.641376 167.029613 184.160926 166.859895 184.588816 166.520019 185.020038 166.180142 185.360017 165.637485 185.612084 164.891608zM180.172431 162.07385L185.630833 162.07385C185.558337 161.201015 185.347517 160.548593 185.004623 160.112175 184.478823 159.435949 183.792617 159.096513 182.952253 159.096513 182.190219 159.096513 181.551093 159.365857 181.031959 159.905428 180.515742 160.444999 180.229094 161.167953 180.172431 162.07385L180.172431 162.07385zM192.579116 166.726022L192.792793 168.309288C192.353655 168.414509 191.958902 168.468468 191.614819 168.468468 191.048024 168.468468 190.608886 168.366845 190.294262 168.15955 189.98278 167.952255 189.762818 167.683806 189.635162 167.347457 189.507898 167.011109 189.445445 166.304688 189.445445 165.227743L189.445445 159.133004 188.288288 159.133004 188.288288 157.747141 189.445445 157.747141 189.445445 155.130998 191.01228 154.054054 191.01228 157.747141 192.579116 157.747141 192.579116 159.133004 191.01228 159.133004 191.01228 165.329817C191.01228 165.842433 191.03899 166.172037 191.095551 166.318177 191.148971 166.464318 191.237741 166.579882 191.362648 166.668016 191.487162 166.753002 191.665096 166.797069 191.896841 166.797069 192.068883 166.797069 192.297486 166.773687 192.579116 166.726022M201.8283 164.891608L203.546941 165.131418C203.279458 166.187195 202.779073 167.009776 202.048703 167.592548 201.318333 168.175319 200.386309 168.468468 199.250131 168.468468 197.821056 168.468468 196.687794 168.002075 195.850765 167.069728 195.013318 166.140468 194.594595 164.831656 194.594595 163.149465 194.594595 161.410848 195.016234 160.058836 195.863264 159.099599 196.709876 158.137276 197.808556 157.657658 199.158887 157.657658 200.46547 157.657658 201.532486 158.127137 202.36035 159.069623 203.188213 160.012108 203.603604 161.337671 203.603604 163.046312 203.603604 163.149465 203.60027 163.305958 203.594021 163.512705L196.294486 163.512705C196.357399 164.648272 196.659463 165.520667 197.207345 166.123716 197.751893 166.726766 198.434766 167.029613 199.250131 167.029613 199.857592 167.029613 200.377143 166.859895 200.805032 166.520019 201.236671 166.180142 201.576233 165.637485 201.8283 164.891608zM196.388647 162.07385L201.847049 162.07385C201.774554 161.201015 201.563734 160.548593 201.220839 160.112175 200.695039 159.435949 200.008833 159.096513 199.16847 159.096513 198.406435 159.096513 197.767726 159.365857 197.248175 159.905428 196.731958 160.444999 196.445727 161.167953 196.388647 162.07385L196.388647 162.07385zM205.405405 168.468468L205.405405 157.882199 206.926764 157.882199 206.926764 159.384687C207.658767 158.232284 208.717898 157.657658 210.101608 157.657658 210.704884 157.657658 211.256753 157.773303 211.761041 158.000994 212.264903 158.228684 212.643437 158.531072 212.894094 158.901857 213.144326 159.272642 213.320635 159.714524 213.420473 160.224353 213.481226 160.55734 213.513514 161.138716 213.513514 161.968483L213.513514 168.468468 211.818394 168.468468 211.818394 162.03643C211.818394 161.305209 211.754243 160.758032 211.622967 160.397596 211.491266 160.037611 211.256753 159.748273 210.923252 159.530932 210.589327 159.31674 210.194648 159.207845 209.745166 159.207845 209.025908 159.207845 208.406489 159.449035 207.883508 159.935465 207.360103 160.418296 207.1001 161.339408 207.1001 162.692503L207.1001 168.468468 205.405405 168.468468M215.315315 167.567568L215.315315 166.198984 221.76628 158.955895C221.033678 158.994228 220.388972 159.013183 219.833026 159.013183L215.708028 159.013183 215.708028 157.657658 224.010414 157.657658 224.010414 158.761707 218.488624 165.043965 217.43172 166.212042C218.207187 166.148436 218.933294 166.116422 219.610474 166.116422L224.324324 166.116422 224.324324 167.567568 215.315315 167.567568M225.225225 168.468468L225.225225 157.882199 226.746664 157.882199 226.746664 159.384687C227.47828 158.232284 228.537466 157.657658 229.921249 157.657658 230.524556 157.657658 231.07688 157.773303 231.580769 158.000994 232.084657 158.228684 232.463211 158.531072 232.713881 158.901857 232.964126 159.272642 233.14087 159.714524 233.240288 160.224353 233.301044 160.55734 233.333333 161.138716 233.333333 161.968483L233.333333 168.468468 231.63855 168.468468 231.63855 162.03643C231.63855 161.305209 231.574396 160.758032 231.442688 160.397596 231.31098 160.037611 231.07688 159.748273 230.742936 159.530932 230.408993 159.31674 230.014294 159.207845 229.564788 159.207845 228.845918 159.207845 228.226041 159.449035 227.703033 159.935465 227.1796 160.418296 226.919584 161.339408 226.919584 162.692503L226.919584 168.468468 225.225225 168.468468M242.368759 164.891608L244.087478 165.131418C243.819983 166.187195 243.319575 167.009776 242.589171 167.592548 241.858767 168.175319 240.927117 168.468468 239.790887 168.468468 238.361745 168.468468 237.228432 168.002075 236.390946 167.069728 235.553461 166.140468 235.135135 164.831656 235.135135 163.149465 235.135135 161.410848 235.556794 160.058836 236.403446 159.099599 237.250515 158.137276 238.348829 157.657658 239.699639 157.657658 241.005866 157.657658 242.07293 158.127137 242.900833 159.069623 243.728735 160.012108 244.144144 161.337671 244.144144 163.046312 244.144144 163.149465 244.141228 163.305958 244.134978 163.512705L236.834689 163.512705C236.897604 164.648272 237.200099 165.520667 237.747589 166.123716 238.292163 166.726766 238.975485 167.029613 239.790887 167.029613 240.398376 167.029613 240.917534 166.859895 241.34586 166.520019 241.777102 166.180142 242.117096 165.637485 242.368759 164.891608zM236.92927 162.07385L242.387508 162.07385C242.315426 161.201015 242.104597 160.548593 241.761269 160.112175 241.235445 159.435949 240.549207 159.096513 239.708805 159.096513 238.947152 159.096513 238.307996 159.365857 237.788422 159.905428 237.272181 160.444999 236.985936 161.167953 236.92927 162.07385L236.92927 162.07385zM250.236792 166.726022L250.45045 168.309288C250.011351 168.414509 249.616632 168.468468 249.272579 168.468468 248.705441 168.468468 248.266341 168.366845 247.951745 168.15955 247.64029 167.952255 247.42074 167.683806 247.293095 167.347457 247.16545 167.011109 247.103394 166.304688 247.103394 165.227743L247.103394 159.133004 245.945946 159.133004 245.945946 157.747141 247.103394 157.747141 247.103394 155.130998 248.670093 154.054054 248.670093 157.747141 250.236792 157.747141 250.236792 159.133004 248.670093 159.133004 248.670093 165.329817C248.670093 165.842433 248.6968 166.172037 248.752964 166.318177 248.806379 166.464318 248.895534 166.579882 249.020038 166.668016 249.144934 166.753002 249.322851 166.797069 249.554184 166.797069 249.726603 166.797069 249.954794 166.773687 250.236792 166.726022M250.45045 167.567568L250.45045 166.198984 256.901415 158.955895C256.168814 158.994228 255.524107 159.013183 254.968161 159.013183L250.843163 159.013183 250.843163 157.657658 259.145549 157.657658 259.145549 158.761707 253.623759 165.043965 252.567288 166.212042C253.342322 166.148436 254.068862 166.116422 254.745609 166.116422L259.459459 166.116422 259.459459 167.567568 250.45045 167.567568M263.337219 167.567568L260.36036 157.657658 262.1067 157.657658 263.678867 163.376307 264.235719 165.505636C264.257491 165.400328 264.428315 164.719195 264.744842 163.462238L266.304447 157.657658 268.015618 157.657658 269.499023 163.411269 269.983024 165.298389 270.549506 163.385995 272.251046 157.657658 273.873874 157.657658 270.783552 167.567568 269.056471 167.567568 267.493516 161.638724 267.098276 159.942421 265.10533 167.567568 263.337219 167.567568M282.00848 164.891608L283.727121 165.131418C283.459638 166.187195 282.958836 167.009776 282.228466 167.592548 281.498513 168.175319 280.566489 168.468468 279.430311 168.468468 278.001236 168.468468 276.867975 168.002075 276.030528 167.069728 275.193498 166.140468 274.774775 164.831656 274.774775 163.149465 274.774775 161.410848 275.196415 160.058836 276.043027 159.099599 276.890057 158.137276 277.988737 157.657658 279.339067 157.657658 280.645234 157.657658 281.712249 158.127137 282.540113 159.069623 283.367977 160.012108 283.783784 161.337671 283.783784 163.046312 283.783784 163.149465 283.780451 163.305958 283.774201 163.512705L276.474666 163.512705C276.537579 164.648272 276.839643 165.520667 277.387525 166.123716 277.932073 166.726766 278.614947 167.029613 279.430311 167.029613 280.037773 167.029613 280.557323 166.859895 280.985212 166.520019 281.416435 166.180142 281.756413 165.637485 282.00848 164.891608zM276.568827 162.07385L282.027229 162.07385C281.954734 161.201015 281.743914 160.548593 281.401019 160.112175 280.875219 159.435949 280.189013 159.096513 279.348233 159.096513 278.586615 159.096513 277.947489 159.365857 277.428356 159.905428 276.912139 160.444999 276.62549 161.167953 276.568827 162.07385L276.568827 162.07385zM285.585586 168.468468L285.585586 157.882199 287.099843 157.882199 287.099843 159.503483C287.486336 158.752463 287.844075 158.255683 288.173059 158.018093 288.502466 157.776453 288.863165 157.657658 289.256424 157.657658 289.824746 157.657658 290.403217 157.848 290.990991 158.225535L290.390531 159.881017C289.981627 159.636227 289.572722 159.513832 289.163395 159.513832 288.796353 159.513832 288.466946 159.632627 288.176442 159.867518 287.885515 160.101958 287.677891 160.428195 287.553571 160.846678 287.364976 161.482052 287.27237 162.179074 287.27237 162.937293L287.27237 168.468468 285.585586 168.468468"/>
    <polyline fill="#69124B" points="291.892 168.468 291.892 154.054 293.553 154.054 293.553 162.265 297.478 158.02 299.622 158.02 295.886 161.902 300 168.468 297.956 168.468 294.704 163.13 293.553 164.325 293.553 168.468 291.892 168.468"/>
    <path fill="#69124B" d="M15.8051962 192.792793L15.8051962 183.862678 14.4144144 183.862678 14.4144144 182.5165 15.8051962 182.5165 15.8051962 181.42759C15.8051962 180.737903 15.8586878 180.226425 15.9688175 179.89272 16.120246 179.444139 16.3818042 179.077675 16.7621452 178.797257 17.1393397 178.51684 17.6715025 178.378378 18.3547005 178.378378 18.7975795 178.378378 19.2849038 178.437781 19.8198198 178.553093L19.5850074 180.077917C19.258158 180.01502 18.9521545 179.982261 18.6610972 179.982261 18.1855726 179.982261 17.8496768 180.094079 17.6506566 180.318587 17.4543896 180.543096 17.3564527 180.961975 17.3564527 181.576097L17.3564527 182.5165 19.1570746 182.5165 19.1570746 183.862678 17.3741521 183.862678 17.3741521 192.792793 15.8051962 192.792793M27.3037942 192.578872L27.3037942 191.076273C26.5253068 192.221908 25.4700049 192.792793 24.1344817 192.792793 23.5459316 192.792793 22.9957096 192.679389 22.4838158 192.452152 21.9723479 192.221908 21.5928992 191.936251 21.3450438 191.592174 21.0971884 191.24509 20.9234341 190.823262 20.8237809 190.323255 20.7560678 189.985621 20.7207207 189.453397 20.7207207 188.726582L20.7207207 182.472625 22.4195097 182.472625 22.4195097 188.064631C22.4195097 188.956826 22.4548568 189.560787 22.5225698 189.868781 22.6286111 190.320248 22.8538954 190.670339 23.201404 190.926786 23.5459316 191.183233 23.9705223 191.31296 24.4785833 191.31296 24.9870702 191.31296 25.463191 191.183233 25.9073717 190.920343 26.3515525 190.657452 26.6666951 190.297481 26.8532254 189.846014 27.0367747 189.394977 27.1300399 188.736033 27.1300399 187.876054L27.1300399 182.472625 28.8288288 182.472625 28.8288288 192.578872 27.3037942 192.578872zM22.091591 181.226473L23.8674622 181.226473 23.8674622 179.279279 22.091591 179.279279 22.091591 181.226473zM25.6050052 181.226473L27.3808763 181.226473 27.3808763 179.279279 25.6050052 179.279279 25.6050052 181.226473zM31.5315315 192.792793L31.5315315 182.206514 33.0456708 182.206514 33.0456708 183.82818C33.4321336 183.076742 33.7898443 182.580433 34.1192256 182.342402 34.4481841 182.101222 34.8092774 181.981982 35.2020826 181.981982 35.7707833 181.981982 36.3487862 182.172316 36.9369369 182.549835L36.3361014 184.205699C35.9272289 183.960919 35.5183563 183.838079 35.1094837 183.838079 34.7420481 183.838079 34.4130896 183.95732 34.1221854 184.19175 33.831704 184.426631 33.6240966 184.752854 33.4993629 185.17087 33.3107826 185.806667 33.2181838 186.50366 33.2181838 187.261848L33.2181838 192.792793 31.5315315 192.792793M44.1441441 192.792793L44.1441441 178.378378 46.7663911 178.378378 49.8933706 188.58176C50.182604 189.531263 50.3919927 190.242724 50.5243883 190.7157 50.6751155 190.19254 50.9122054 189.420681 51.232399 188.404117L54.414781 178.378378 56.7567568 178.378378 56.7567568 192.792793 55.0763515 192.792793 55.0763515 180.733483 51.2169189 192.792793 49.641208 192.792793 45.8245494 180.512317 45.8245494 192.792793 44.1441441 192.792793M59.4594595 180.39152L61.2612613 180.39152 61.2612613 178.378378 59.4594595 178.378378 59.4594595 180.39152zM59.4594595 192.792793L61.2612613 192.792793 61.2612613 182.344263 59.4594595 182.344263 59.4594595 192.792793zM63.4179265 194.044439L65.0935257 194.278198C65.1626718 194.791265 65.3596732 195.164677 65.6819206 195.401444 66.1124534 195.716417 66.7004135 195.875407 67.4462356 195.875407 68.2477225 195.875407 68.8687336 195.716417 69.3057897 195.401444 69.7428458 195.086471 70.0385653 194.641728 70.1929483 194.073659 70.2816642 193.726029 70.3242826 192.995962 70.3177594 191.88217 69.5588908 192.765211 68.6156324 193.206947 67.4858098 193.206947 66.0794024 193.206947 64.9882843 192.706771 64.2198483 191.703843 63.4474985 190.703922 63.0630631 189.50247 63.0630631 188.103355 63.0630631 187.139099 63.2404948 186.249612 63.5923141 185.434894 63.9436985 184.619746 64.456424 183.993238 65.1265767 183.548494 65.7967293 183.103751 66.5851698 182.882883 67.492333 182.882883 68.6978251 182.882883 69.6932692 183.369737 70.4756214 184.343876L70.4756214 183.097305 72.0720721 183.097305 72.0720721 191.827168C72.0720721 193.401603 71.9111658 194.514965 71.5858743 195.171123 71.2640619 195.826851 70.7482922 196.346363 70.0485676 196.726221 69.3453639 197.106079 68.481254 197.297297 67.4562379 197.297297 66.2372645 197.297297 65.2544319 197.027873 64.5055656 196.486016 63.7532203 195.946738 63.3918336 195.13202 63.4179265 194.044439zM64.8373803 187.98003C64.8373803 189.301369 65.1035279 190.265624 65.6358231 190.872366 66.1711625 191.479967 66.838271 191.785057 67.6397579 191.785057 68.4382007 191.785057 69.1053092 191.482975 69.6476067 190.879241 70.1864251 190.275078 70.4556168 189.327151 70.4556168 188.035032 70.4556168 186.801782 70.1764228 185.869754 69.6210789 185.243246 69.0661699 184.616738 68.3955823 184.304773 67.613665 184.304773 66.84175 184.304773 66.187688 184.6133 65.6458254 185.230355 65.107007 185.84698 64.8373803 186.762679 64.8373803 187.98003L64.8373803 187.98003zM74.7747748 192.792793L74.7747748 182.206514 76.2889141 182.206514 76.2889141 183.82818C76.6757997 183.076742 77.0335104 182.580433 77.3624689 182.342402 77.6914273 182.101222 78.0525206 181.981982 78.4453258 181.981982 79.0140265 181.981982 79.5920295 182.172316 80.1801802 182.549835L79.5793447 184.205699C79.1704721 183.960919 78.7615995 183.838079 78.3527269 183.838079 77.9852913 183.838079 77.6563328 183.95732 77.3658515 184.19175 77.0749473 184.426631 76.8673398 184.752854 76.7426062 185.17087 76.5540259 185.806667 76.461427 186.50366 76.461427 187.261848L76.461427 192.792793 74.7747748 192.792793M87.1348458 191.274148C86.5190832 191.83047 85.9253568 192.22016 85.3569926 192.44983 84.7886284 192.679941 84.1791025 192.792793 83.5255045 192.792793 82.4511423 192.792793 81.6249977 192.516395 81.0470707 191.960514 80.4691437 191.407277 80.1801802 190.697989 80.1801802 189.835293 80.1801802 189.329225 80.2903605 188.866358 80.5069792 188.446692 80.7269241 188.027026 81.0125614 187.693761 81.3643069 187.440727 81.7193786 187.187693 82.1151962 186.994612 82.5579964 186.864568 82.8847954 186.77464 83.3779044 186.688238 84.0344129 186.601395 85.372792 186.435204 86.3623361 186.231983 86.9934823 185.998786 86.9997189 185.758977 87.0030451 185.60557 87.0030451 185.542532 87.0030451 184.829716 86.8458822 184.326734 86.5319723 184.033585 86.1078819 183.637283 85.47632 183.440674 84.6406126 183.440674 83.8585401 183.440674 83.2806131 183.587469 82.9101577 183.877092 82.5359604 184.167155 82.2627963 184.679836 82.0840131 185.4191L80.4629071 185.179291C80.6105071 184.443553 80.8524881 183.847116 81.1917603 183.394388 81.5310326 182.941219 82.0208154 182.595171 82.6619401 182.348308 83.299323 182.105413 84.0439757 181.981982 84.8859197 181.981982 85.7212113 181.981982 86.4030821 182.085576 86.9277899 182.295409 87.4491715 182.504801 87.8354263 182.764889 88.0803177 183.081401 88.3256249 183.397473 88.4981714 183.797302 88.5987889 184.280007 88.6520081 184.579768 88.6802808 185.119339 88.6802808 185.895633L88.6802808 188.22672C88.6802808 189.855571 88.7147901 190.884458 88.7842245 191.320876 88.8499169 191.757293 88.9883699 192.173433 89.1891892 192.573262L87.4554081 192.573262C87.2886824 192.203409 87.1822441 191.770518 87.1348458 191.274148zM87.0030451 187.377689C86.3997559 187.637336 85.4950298 187.857308 84.288867 188.037165 83.6040859 188.140318 83.1205398 188.256696 82.8378129 188.386739 82.555086 188.516783 82.3384673 188.706338 82.1842149 188.95276 82.0303782 189.202708 81.9517967 189.479106 81.9517967 189.785479 81.9517967 190.248347 82.1185224 190.638037 82.4544685 190.947937 82.7904146 191.257397 83.2806131 191.414331 83.9246483 191.414331 84.5624469 191.414331 85.1308111 191.267536 85.6301566 190.971301 86.1265918 190.678152 86.4941367 190.275237 86.7265549 189.765642 86.9057538 189.36934 86.9934823 188.786568 86.9934823 188.016887L87.0030451 187.377689 87.0030451 187.377689zM90.990991 192.792793L90.990991 182.206514 92.5124296 182.206514 92.5124296 183.70894C93.2440458 182.556585 94.3032322 181.981982 95.6870148 181.981982 96.290322 181.981982 96.8426454 182.097622 97.3465343 182.325304 97.8504233 182.553435 98.2294021 182.85581 98.4796471 183.22613 98.7298921 183.596899 98.9066356 184.038763 99.0060538 184.548571 99.0672343 184.881993 99.0990991 185.463346 99.0990991 186.292627L99.0990991 192.792793 97.4043159 192.792793 97.4043159 186.361022C97.4043159 185.629832 97.3401614 185.082677 97.2084535 184.722257 97.0767456 184.361836 96.8426454 184.07296 96.5087022 183.855178 96.1747589 183.640996 95.7800601 183.532104 95.3305538 183.532104 94.6116836 183.532104 93.9922316 183.773735 93.4687989 184.259695 92.9457911 184.742505 92.6857742 185.664029 92.6857742 187.017068L92.6857742 192.792793 90.990991 192.792793M105.191728 191.950798L105.405405 193.534063C104.966267 193.639284 104.571514 193.693694 104.227431 193.693694 103.660637 193.693694 103.221498 193.59207 102.906874 193.384775 102.595393 193.17748 102.375824 192.909031 102.248167 192.572682 102.120511 192.236334 102.058057 191.529463 102.058057 190.452519L102.058057 184.357779 100.900901 184.357779 100.900901 182.971916 102.058057 182.971916 102.058057 180.356223 103.624893 179.279279 103.624893 182.971916 105.191728 182.971916 105.191728 184.357779 103.624893 184.357779 103.624893 190.554593C103.624893 191.067659 103.651602 191.397262 103.708164 191.543403 103.761583 191.689543 103.850746 191.804657 103.975261 191.893241 104.099775 191.978227 104.278101 192.022294 104.509454 192.022294 104.681495 192.022294 104.910098 191.998462 105.191728 191.950798M106.306306 181.344814L106.74395 179.91331C107.755759 180.290407 108.486749 180.615332 108.946859 180.891748 108.826323 179.674878 108.761087 178.834647 108.754606 178.378378L110.144871 178.378378C110.12543 179.04562 110.053713 179.878986 109.922809 180.88168 110.579059 180.532499 111.329923 180.207116 112.175401 179.91331L112.612613 181.344814C111.806449 181.628552 111.016271 181.818473 110.239485 181.911832 110.627878 182.267877 111.173097 182.907661 111.878166 183.82386L110.735885 184.684685C110.366933 184.152447 109.929289 183.426169 109.426841 182.50997 108.953771 183.46095 108.539025 184.187228 108.183466 184.684685L107.060194 183.82386C107.794641 182.859151 108.323443 182.223029 108.640119 181.911832 107.820995 181.742504 107.044209 181.552125 106.306306 181.344814M114.414414 180.39152L116.216216 180.39152 116.216216 178.378378 114.414414 178.378378 114.414414 180.39152zM114.414414 192.792793L116.216216 192.792793 116.216216 182.344263 114.414414 182.344263 114.414414 192.792793zM118.918919 192.792793L118.918919 182.206514 120.440278 182.206514 120.440278 183.70894C121.17228 182.556585 122.231411 181.981982 123.614697 181.981982 124.218397 181.981982 124.770267 182.097622 125.274554 182.325304 125.778417 182.553435 126.156951 182.85581 126.407183 183.22613 126.657839 183.596899 126.834149 184.038763 126.933562 184.548571 126.994739 184.881993 127.027027 185.463346 127.027027 186.292627L127.027027 192.792793 125.331908 192.792793 125.331908 186.361022C125.331908 185.629832 125.267757 185.082677 125.136056 184.722257 125.004779 184.361836 124.770267 184.07296 124.436766 183.855178 124.10284 183.640996 123.708162 183.532104 123.258679 183.532104 122.539422 183.532104 121.920002 183.773735 121.397022 184.259695 120.873617 184.742505 120.613613 185.664029 120.613613 187.017068L120.613613 192.792793 118.918919 192.792793M129.72973 192.792793L129.72973 182.206514 131.251168 182.206514 131.251168 183.70894C131.983209 182.556585 133.042396 181.981982 134.425754 181.981982 135.029486 181.981982 135.581384 182.097622 136.085273 182.325304 136.589162 182.553435 136.968141 182.85581 137.218386 183.22613 137.468631 183.596899 137.645374 184.038763 137.744793 184.548571 137.805973 184.881993 137.837838 185.463346 137.837838 186.292627L137.837838 192.792793 136.143055 192.792793 136.143055 186.361022C136.143055 185.629832 136.0789 185.082677 135.947192 184.722257 135.815909 184.361836 135.581384 184.07296 135.247441 183.855178 134.913498 183.640996 134.518799 183.532104 134.069293 183.532104 133.350422 183.532104 132.73097 183.773735 132.207963 184.259695 131.68453 184.742505 131.424513 185.664029 131.424513 187.017068L131.424513 192.792793 129.72973 192.792793M146.873345 189.215933L148.591986 189.455742C148.324503 190.51152 147.823701 191.3341 147.093331 191.916872 146.363378 192.500084 145.431354 192.792793 144.295176 192.792793 142.866101 192.792793 141.73284 192.32684 140.89581 191.394053 140.058363 190.464792 139.63964 189.15598 139.63964 187.47423 139.63964 185.735613 140.061279 184.383601 140.908309 183.424364 141.754921 182.4616 142.853601 181.981982 144.203932 181.981982 145.510099 181.981982 146.577114 182.451902 147.404978 183.394388 148.233258 184.336873 148.648649 185.662436 148.648649 187.371077 148.648649 187.47423 148.645316 187.630723 148.639066 187.83703L141.339531 187.83703C141.402444 188.973038 141.704508 189.845432 142.25239 190.448041 142.796938 191.05109 143.479811 191.354378 144.295176 191.354378 144.902637 191.354378 145.422188 191.18422 145.850077 190.844784 146.2813 190.504907 146.621278 189.962251 146.873345 189.215933zM141.433692 186.398174L146.892094 186.398174C146.819599 185.52578 146.608779 184.872917 146.265884 184.436941 145.740084 183.760714 145.053878 183.420837 144.213515 183.420837 143.45148 183.420837 142.812354 183.690623 142.29322 184.230193 141.777003 184.769764 141.490355 185.492718 141.433692 186.398174L141.433692 186.398174zM150.45045 192.792793L150.45045 182.206514 151.971889 182.206514 151.971889 183.70894C152.70393 182.556585 153.763117 181.981982 155.146474 181.981982 155.750206 181.981982 156.302105 182.097622 156.805994 182.325304 157.309883 182.553435 157.688862 182.85581 157.939107 183.22613 158.189776 183.596899 158.366095 184.038763 158.465513 184.548571 158.526694 184.881993 158.558559 185.463346 158.558559 186.292627L158.558559 192.792793 156.863775 192.792793 156.863775 186.361022C156.863775 185.629832 156.799621 185.082677 156.667913 184.722257 156.53663 184.361836 156.302105 184.07296 155.968162 183.855178 155.634643 183.640996 155.23952 183.532104 154.790438 183.532104 154.071143 183.532104 153.451691 183.773735 152.928683 184.259695 152.405251 184.742505 152.145234 185.664029 152.145234 187.017068L152.145234 192.792793 150.45045 192.792793M160.36036 187.387387C160.36036 185.47244 160.85475 184.053863 161.846391 183.131215 162.671191 182.36506 163.681234 181.981982 164.870794 181.981982 166.190393 181.981982 167.271588 182.448376 168.111927 183.381163 168.948995 184.309983 169.369369 185.598957 169.369369 187.241033 169.369369 188.573209 169.183718 189.618847 168.813232 190.381476 168.442338 191.144545 167.90174 191.737015 167.19103 192.160208 166.483591 192.58296 165.708271 192.792793 164.870794 192.792793 163.523798 192.792793 162.436469 192.329926 161.605126 191.400665 160.774192 190.471404 160.36036 189.132617 160.36036 187.387387zM162.028771 187.390914C162.028771 188.716477 162.297434 189.708776 162.834761 190.365165 163.375767 191.024641 164.052128 191.354378 164.870794 191.354378 165.680464 191.354378 166.353962 191.024641 166.89456 190.361639 167.432295 189.699078 167.700959 188.690027 167.700959 187.334488 167.700959 186.055212 167.429024 185.086277 166.888426 184.429887 166.347828 183.770412 165.67433 183.440674 164.870794 183.440674 164.052128 183.440674 163.375767 183.767326 162.834761 184.423275 162.297434 185.079665 162.028771 186.068878 162.028771 187.390914L162.028771 187.390914zM171.171171 192.792793L171.171171 182.206514 172.685429 182.206514 172.685429 183.82818C173.071922 183.076742 173.429661 182.580433 173.759068 182.342402 174.088052 182.101222 174.449173 181.981982 174.842009 181.981982 175.410755 181.981982 175.988803 182.172316 176.576577 182.549835L175.976117 184.205699C175.567212 183.960919 175.158308 183.838079 174.749403 183.838079 174.381939 183.838079 174.052955 183.95732 173.762028 184.19175 173.471524 184.426631 173.2639 184.752854 173.139157 185.17087 172.950561 185.806667 172.857955 186.50366 172.857955 187.261848L172.857955 192.792793 171.171171 192.792793M177.832341 194.044439L179.50794 194.278198C179.577086 194.791265 179.774088 195.164677 180.0959 195.401444 180.526433 195.716417 181.114828 195.875407 181.86065 195.875407 182.662137 195.875407 183.283148 195.716417 183.720204 195.401444 184.156825 195.086471 184.452545 194.641728 184.607363 194.073659 184.695644 193.726029 184.738697 192.995962 184.732174 191.88217 183.973305 192.765211 183.030047 193.206947 181.899789 193.206947 180.493382 193.206947 179.402699 192.706771 178.633828 191.703843 177.861913 190.703922 177.477477 189.50247 177.477477 188.103355 177.477477 187.139099 177.654909 186.249612 178.006294 185.434894 178.358113 184.619746 178.870404 183.993238 179.540991 183.548494 180.211144 183.103751 180.999584 182.882883 181.906313 182.882883 183.112239 182.882883 184.107684 183.369737 184.889601 184.343876L184.889601 183.097305 186.486486 183.097305 186.486486 191.827168C186.486486 193.401603 186.32558 194.514965 186.000289 195.171123 185.678476 195.826851 185.162272 196.346363 184.462547 196.726221 183.759343 197.106079 182.895234 197.297297 181.870217 197.297297 180.651244 197.297297 179.668846 197.027873 178.919545 196.486016 178.1672 195.946738 177.805813 195.13202 177.832341 194.044439zM179.25136 187.98003C179.25136 189.301369 179.517942 190.265624 180.050238 190.872366 180.585577 191.479967 181.252685 191.785057 182.054172 191.785057 182.852615 191.785057 183.519724 191.482975 184.061586 190.879241 184.600405 190.275078 184.870031 189.327151 184.870031 188.035032 184.870031 186.801782 184.590837 185.869754 184.035493 185.243246 183.480149 184.616738 182.809997 184.304773 182.028079 184.304773 181.25573 184.304773 180.602102 184.6133 180.059805 185.230355 179.520987 185.84698 179.25136 186.762679 179.25136 187.98003L179.25136 187.98003zM195.243049 191.274148C194.627315 191.83047 194.033616 192.22016 193.464862 192.44983 192.896524 192.679941 192.287026 192.792793 191.633458 192.792793 190.559561 192.792793 189.733455 192.516395 189.155555 191.960514 188.577238 191.407277 188.288288 190.697989 188.288288 189.835293 188.288288 189.329225 188.398464 188.866358 188.615072 188.446692 188.835007 188.027026 189.120631 187.693761 189.472776 187.440727 189.827416 187.187693 190.223215 186.994612 190.665995 186.864568 190.992779 186.77464 191.486281 186.688238 192.142343 186.601395 193.480661 186.435204 194.470159 186.231983 195.101276 185.998786 195.107928 185.758977 195.110838 185.60557 195.110838 185.542532 195.110838 184.829716 194.953683 184.326734 194.639787 184.033585 194.215716 183.637283 193.584184 183.440674 192.748931 183.440674 191.966894 183.440674 191.388578 183.587469 191.01814 183.877092 190.644376 184.167155 190.370808 184.679836 190.192033 185.4191L188.571002 185.179291C188.719011 184.443553 188.960565 183.847116 189.299822 183.394388 189.639078 182.941219 190.129254 182.595171 190.769934 182.348308 191.407287 182.105413 192.151905 181.981982 192.993811 181.981982 193.829479 181.981982 194.510903 182.085576 195.035587 182.295409 195.556944 182.504801 195.943181 182.764889 196.188477 183.081401 196.433357 183.397473 196.605896 183.797302 196.706509 184.280007 196.760141 184.579768 196.788412 185.119339 196.788412 185.895633L196.788412 188.22672C196.788412 189.855571 196.82292 190.884458 196.891936 191.320876 196.958041 191.757293 197.096072 192.173433 197.297297 192.573262L195.563181 192.573262C195.396878 192.203409 195.290029 191.770518 195.243049 191.274148zM195.110838 187.377689C194.507993 187.637336 193.603308 187.857308 192.396786 188.037165 191.712452 188.140318 191.228512 188.256696 190.945798 188.386739 190.663085 188.516783 190.446476 188.706338 190.292646 188.95276 190.138401 189.202708 190.059823 189.479106 190.059823 189.785479 190.059823 190.248347 190.226541 190.638037 190.562472 190.947937 190.898818 191.257397 191.388578 191.414331 192.032584 191.414331 192.670353 191.414331 193.238691 191.267536 193.738429 190.971301 194.234425 190.678152 194.601953 190.275237 194.834361 189.765642 195.013552 189.36934 195.101276 188.786568 195.101276 188.016887L195.110838 187.377689 195.110838 187.377689zM199.099099 192.792793L199.099099 182.206514 200.620538 182.206514 200.620538 183.70894C201.352579 182.556585 202.411765 181.981982 203.795123 181.981982 204.398855 181.981982 204.950754 182.097622 205.454642 182.325304 205.958531 182.553435 206.33751 182.85581 206.587755 183.22613 206.838 183.596899 207.014744 184.038763 207.114162 184.548571 207.175342 184.881993 207.207207 185.463346 207.207207 186.292627L207.207207 192.792793 205.512424 192.792793 205.512424 186.361022C205.512424 185.629832 205.448269 185.082677 205.316562 184.722257 205.185279 184.361836 204.950754 184.07296 204.61681 183.855178 204.282867 183.640996 203.888168 183.532104 203.438662 183.532104 202.719792 183.532104 202.10034 183.773735 201.577332 184.259695 201.053899 184.742505 200.793882 185.664029 200.793882 187.017068L200.793882 192.792793 199.099099 192.792793M209.90991 180.39152L211.711712 180.39152 211.711712 178.378378 209.90991 178.378378 209.90991 180.39152zM209.90991 192.792793L211.711712 192.792793 211.711712 182.344263 209.90991 182.344263 209.90991 192.792793zM213.513514 189.47602L215.150241 189.196095C215.241124 189.892159 215.498004 190.425118 215.91839 190.798056 216.338362 191.167468 216.928065 191.354378 217.680445 191.354378 218.44237 191.354378 219.006759 191.190832 219.376516 190.861094 219.743369 190.534883 219.928455 190.14872 219.928455 189.70569 219.928455 189.309388 219.762044 188.996401 219.432955 188.769817 219.200975 188.613324 218.636586 188.416716 217.739789 188.17338 216.529673 187.850695 215.692635 187.570771 215.222034 187.334488 214.755169 187.094679 214.400766 186.768027 214.159241 186.348361 213.91813 185.932222 213.795708 185.469355 213.795708 184.962846 213.795708 184.499979 213.896136 184.0737 214.093257 183.680484 214.294113 183.287708 214.563858 182.961056 214.905396 182.70141 215.162691 182.501716 215.513774 182.331998 215.95574 182.191815 216.401026 182.052073 216.874531 181.981982 217.382481 181.981982 218.147726 181.981982 218.818353 182.098801 219.395191 182.335083 219.975349 182.56828 220.401961 182.887879 220.67793 183.287708 220.95058 183.690623 221.141891 184.227108 221.245224 184.899808L219.627171 185.139617C219.555378 184.600046 219.342072 184.176853 218.990989 183.874006 218.639906 183.570718 218.144406 183.420837 217.501584 183.420837 216.745884 183.420837 216.20349 183.553967 215.880626 183.820666 215.557763 184.086925 215.394671 184.400352 215.394671 184.756539 215.394671 184.983124 215.460655 185.18943 215.595112 185.372373 215.729984 185.559283 215.940385 185.715776 216.228804 185.838767 216.394801 185.905331 216.877851 186.055212 217.68667 186.288409 218.852797 186.618146 219.668256 186.891458 220.132216 187.101291 220.596177 187.311125 220.95971 187.620584 221.22323 188.020413 221.489654 188.423328 221.621622 188.922783 221.621622 189.522307 221.621622 190.105078 221.461435 190.654788 221.138571 191.170995 220.815708 191.687202 220.351747 192.087031 219.746689 192.370041 219.138311 192.653051 218.4515 192.792793 217.68667 192.792793 216.420115 192.792793 215.45111 192.513309 214.786293 191.956987 214.121891 191.397579 213.6986 190.571472 213.513514 189.47602M229.477188 191.274148C228.861426 191.83047 228.267699 192.22016 227.699335 192.44983 227.130555 192.679941 226.521445 192.792793 225.867847 192.792793 224.793485 192.792793 223.96734 192.516395 223.389413 191.960514 222.811486 191.407277 222.522523 190.697989 222.522523 189.835293 222.522523 189.329225 222.632287 188.866358 222.849322 188.446692 223.069266 188.027026 223.354904 187.693761 223.706649 187.440727 224.061721 187.187693 224.457539 186.994612 224.900339 186.864568 225.227138 186.77464 225.720247 186.688238 226.376755 186.601395 227.715134 186.435204 228.704678 186.231983 229.335825 185.998786 229.342061 185.758977 229.345387 185.60557 229.345387 185.542532 229.345387 184.829716 229.188225 184.326734 228.874315 184.033585 228.450224 183.637283 227.818662 183.440674 226.982955 183.440674 226.200882 183.440674 225.622955 183.587469 225.2525 183.877092 224.878303 184.167155 224.605139 184.679836 224.426355 185.4191L222.805249 185.179291C222.952849 184.443553 223.19483 183.847116 223.534103 183.394388 223.873375 182.941219 224.363158 182.595171 225.004282 182.348308 225.641665 182.105413 226.386318 181.981982 227.228262 181.981982 228.063554 181.981982 228.745424 182.085576 229.270132 182.295409 229.791514 182.504801 230.177769 182.764889 230.42266 183.081401 230.667967 183.397473 230.840514 183.797302 230.941131 184.280007 230.99435 184.579768 231.022623 185.119339 231.022623 185.895633L231.022623 188.22672C231.022623 189.855571 231.057132 190.884458 231.126567 191.320876 231.192259 191.757293 231.330712 192.173433 231.531532 192.573262L229.79775 192.573262C229.631441 192.203409 229.524586 191.770518 229.477188 191.274148zM229.345387 187.377689C228.742098 187.637336 227.837372 187.857308 226.631209 188.037165 225.946428 188.140318 225.462882 188.256696 225.180155 188.386739 224.897428 188.516783 224.68081 188.706338 224.526557 188.95276 224.372721 189.202708 224.294139 189.479106 224.294139 189.785479 224.294139 190.248347 224.460865 190.638037 224.796811 190.947937 225.132757 191.257397 225.622955 191.414331 226.266991 191.414331 226.904789 191.414331 227.473153 191.267536 227.972499 190.971301 228.468934 190.678152 228.836479 190.275237 229.068897 189.765642 229.248096 189.36934 229.335825 188.786568 229.335825 188.016887L229.345387 187.377689 229.345387 187.377689zM237.624179 191.950798L237.837838 193.534063C237.398738 193.639284 237.004019 193.693694 236.659966 193.693694 236.092828 193.693694 235.653729 193.59207 235.339132 193.384775 235.027677 193.17748 234.808128 192.909031 234.680482 192.572682 234.552837 192.236334 234.490389 191.529463 234.490389 190.452519L234.490389 184.357779 233.333333 184.357779 233.333333 182.971916 234.490389 182.971916 234.490389 180.356223 236.05748 179.279279 236.05748 182.971916 237.624179 182.971916 237.624179 184.357779 236.05748 184.357779 236.05748 190.554593C236.05748 191.067659 236.084188 191.397262 236.140352 191.543403 236.193766 191.689543 236.282922 191.804657 236.407425 191.893241 236.532321 191.978227 236.710239 192.022294 236.941571 192.022294 237.113598 192.022294 237.342181 191.998462 237.624179 191.950798M238.738739 180.39152L240.540541 180.39152 240.540541 178.378378 238.738739 178.378378 238.738739 180.39152zM238.738739 192.792793L240.540541 192.792793 240.540541 182.344263 238.738739 182.344263 238.738739 192.792793zM242.342342 187.387387C242.342342 185.47244 242.836732 184.053863 243.828373 183.131215 244.653582 182.36506 245.663625 181.981982 246.853185 181.981982 248.172375 181.981982 249.25357 182.448376 250.093909 183.381163 250.931386 184.309983 251.351351 185.598957 251.351351 187.241033 251.351351 188.573209 251.166109 189.618847 250.795214 190.381476 250.424729 191.144545 249.883722 191.737015 249.173421 192.160208 248.465982 192.58296 247.690253 192.792793 246.853185 192.792793 245.506189 192.792793 244.41845 192.329926 243.587517 191.400665 242.756583 190.471404 242.342342 189.132617 242.342342 187.387387zM244.010753 187.390914C244.010753 188.716477 244.279416 189.708776 244.817152 190.365165 245.357749 191.024641 246.034519 191.354378 246.853185 191.354378 247.662446 191.354378 248.335944 191.024641 248.876542 190.361639 249.414277 189.699078 249.682941 188.690027 249.682941 187.334488 249.682941 186.055212 249.411006 185.086277 248.870408 184.429887 248.32981 183.770412 247.656312 183.440674 246.853185 183.440674 246.034519 183.440674 245.357749 183.767326 244.817152 184.423275 244.279416 185.079665 244.010753 186.068878 244.010753 187.390914L244.010753 187.390914zM254.054054 192.792793L254.054054 182.206514 255.575493 182.206514 255.575493 183.70894C256.307534 182.556585 257.36672 181.981982 258.750078 181.981982 259.353385 181.981982 259.905708 182.097622 260.409597 182.325304 260.913486 182.553435 261.292465 182.85581 261.54271 183.22613 261.792955 183.596899 261.969699 184.038763 262.069117 184.548571 262.130297 184.881993 262.162162 185.463346 262.162162 186.292627L262.162162 192.792793 260.467379 192.792793 260.467379 186.361022C260.467379 185.629832 260.403224 185.082677 260.271517 184.722257 260.140234 184.361836 259.905708 184.07296 259.571765 183.855178 259.237822 183.640996 258.843123 183.532104 258.393617 183.532104 257.674747 183.532104 257.055295 183.773735 256.531862 184.259695 256.008854 184.742505 255.748837 185.664029 255.748837 187.017068L255.748837 192.792793 254.054054 192.792793M271.197669 189.215933L272.91631 189.455742C272.648827 190.51152 272.148026 191.3341 271.417655 191.916872 270.687702 192.500084 269.755678 192.792793 268.619501 192.792793 267.190425 192.792793 266.057164 192.32684 265.219717 191.394053 264.382687 190.464792 263.963964 189.15598 263.963964 187.47423 263.963964 185.735613 264.385604 184.383601 265.232216 183.424364 266.079246 182.4616 267.177926 181.981982 268.528256 181.981982 269.834423 181.981982 270.901438 182.451902 271.729302 183.394388 272.557583 184.336873 272.972973 185.662436 272.972973 187.371077 272.972973 187.47423 272.96964 187.630723 272.96339 187.83703L265.663856 187.83703C265.726768 188.973038 266.028832 189.845432 266.576714 190.448041 267.121263 191.05109 267.804136 191.354378 268.619501 191.354378 269.226962 191.354378 269.746512 191.18422 270.174401 190.844784 270.605624 190.504907 270.945602 189.962251 271.197669 189.215933zM265.758016 186.398174L271.216418 186.398174C271.143923 185.52578 270.933103 184.872917 270.590208 184.436941 270.064408 183.760714 269.378202 183.420837 268.537839 183.420837 267.775804 183.420837 267.136678 183.690623 266.617545 184.230193 266.101328 184.769764 265.814679 185.492718 265.758016 186.398174L265.758016 186.398174zM274.774775 192.792793L274.774775 182.206514 276.296213 182.206514 276.296213 183.70894C277.028254 182.556585 278.087441 181.981982 279.470799 181.981982 280.074531 181.981982 280.626429 182.097622 281.130318 182.325304 281.634207 182.553435 282.013186 182.85581 282.263431 183.22613 282.514101 183.596899 282.690419 184.038763 282.789838 184.548571 282.851018 184.881993 282.882883 185.463346 282.882883 186.292627L282.882883 192.792793 281.1881 192.792793 281.1881 186.361022C281.1881 185.629832 281.123945 185.082677 280.992237 184.722257 280.860954 184.361836 280.626429 184.07296 280.292486 183.855178 279.958968 183.640996 279.563844 183.532104 279.114762 183.532104 278.395467 183.532104 277.776015 183.773735 277.253008 184.259695 276.729575 184.742505 276.469558 185.664029 276.469558 187.017068L276.469558 192.792793 274.774775 192.792793"/>
  </g>
</svg>
