<svg xmlns="http://www.w3.org/2000/svg" width="176" height="100" viewBox="0 0 176 100" xmlns:xlink="http://www.w3.org/1999/xlink">
  <defs>
    <polygon id="a" points=".133 .108 35.381 .108 35.381 54.782 .133 54.782"/>
    <polygon id="c" points="0 .294 175.874 .294 175.874 23.232 0 23.232"/>
  </defs>
  <g fill="none" fill-rule="evenodd">
    <g transform="translate(50.5 .392)">
      <path fill="#D02295" d="M0.3203,29.156 C12.0978,5.7235 36.7473,6.3425 49.9323,21.106 C55.4668,27.303 55.4288,31.6755 55.2348,40.837 C56.2308,36.1225 62.0623,28.409 55.2398,16.016 C51.7718,9.7155 45.8208,4.1775 36.4053,2.3525 C17.8598,-1.243 2.1933,14.2795 0.3203,29.156"/>
      <g transform="translate(34)">
        <mask id="b" fill="white">
          <use xlink:href="#a"/>
        </mask>
        <path fill="#3489C4" d="M4.77075,54.65015 C22.62275,56.28065 36.99625,42.57365 35.23475,25.32015 C33.69575,10.24165 17.96825,-1.09135 0.13275,0.20965 L2.34275,1.18315 C8.80525,3.25465 10.76675,2.96615 16.92375,8.72115 C30.79775,21.68765 28.15325,46.31065 7.40125,53.51415 L4.77075,54.65015 Z" mask="url(#b)"/>
      </g>
      <path fill="#F1BC00" d="M18.4756,66.4817 C7.6991,56.8242 4.1796,43.8432 11.5126,31.0797 C14.5276,25.8322 18.2086,22.2337 24.5086,19.4687 C33.2636,15.6262 37.2066,16.8857 45.7751,19.0972 C39.5246,10.8022 14.6616,6.1492 3.3861,25.7907 C-6.2364,42.5527 7.0871,61.9547 18.4756,66.4817"/>
      <path fill="#3CC276" d="M60.71755,62.02125 C53.30805,64.48775 49.86405,67.58275 39.45005,65.46475 C12.06105,59.89575 12.79155,27.36675 24.32155,21.06075 C18.04305,23.25075 11.97705,30.18025 9.83455,37.71425 C5.16705,54.13025 17.83005,71.73425 37.77655,71.15675 C46.65755,70.90025 56.76955,66.74425 60.71755,62.02125"/>
      <path fill="#EF7400" d="M18.3557,42.0647 C17.5002,55.2667 37.4387,70.8097 56.7022,62.6042 C71.8007,56.1727 77.2782,38.0232 69.6012,20.3637 C70.3397,29.5457 71.6947,32.5122 67.2917,41.0107 C54.8392,65.0447 20.7617,55.6062 18.3557,42.0647"/>
    </g>
    <text fill="#8B086B" font-family="Arial-BoldMT, Arial" font-size="11.13" font-weight="bold">
      <tspan x="72.44" y="37.811">IKMO</tspan>
    </text>
    <g transform="translate(0 75.392)">
      <mask id="d" fill="white">
        <use xlink:href="#c"/>
      </mask>
      <text fill="#8B086B" mask="url(#d)" font-family="ArialMT, Arial" font-size="10.241">
        <tspan x="0" y="9.294">Interkulturelles Kompetenzzentrum für </tspan>
      </text>
      <text fill="#8B086B" mask="url(#d)" font-family="ArialMT, Arial" font-size="10.241">
        <tspan x="6.81" y="20.732">Migrant*innenorganisationen Berlin </tspan>
      </text>
    </g>
  </g>
</svg>
