<?xml version="1.0" encoding="UTF-8"?>
<svg width="158px" height="61px" viewBox="0 0 158 61" version="1.1" xmlns="http://www.w3.org/2000/svg" xmlns:xlink="http://www.w3.org/1999/xlink">
    <title>LOGO_A_MBB</title>
    <g id="LOGO_A_MBB" stroke="none" stroke-width="1" fill="none" fill-rule="evenodd">
        <g id="231013_Programmmarke_MBE_Pfade-1" transform="translate(28.2133, 11.5)">
            <path d="M3.12804505,6.94944489 C3.12804505,6.94944489 21.8730813,12.6809332 25.0488174,27.9408528 L26.0564441,26.9332261 C26.0564441,26.9332261 24.2747546,13.7655994 3.12804505,6.94944489" id="Fill-1" fill="#003B62"></path>
            <path d="M3.12804505,6.94944489 C3.12804505,6.94944489 21.8730813,12.6809332 25.0488174,27.9408528 L26.0564441,26.9332261 C26.0564441,26.9332261 24.2747546,13.7655994 3.12804505,6.94944489" id="Stroke-2" stroke="#003B62" stroke-width="0.5" stroke-linecap="round"></path>
            <path d="M38.3803057,0.284923572 L37.1831376,0.00978278359 C37.0046018,-0.0317940467 36.9006597,0.0782622687 36.9532422,0.253129525 C36.9532422,0.253129525 37.0620756,0.380305712 37.1586806,0.616315366 C37.1672405,0.637103781 19.3637973,5.82687047 10.8552212,15.6292196 C1.53345133,26.3682703 0,35.072502 0,35.072502 L0.575961384,36.9361223 C0.575961384,36.9361223 2.65724859,27.1570072 10.4357844,17.7533065 C13.7289139,13.7729364 17.7863234,9.85860016 23.55572,6.78313757 C32.3431054,2.09962993 37.2296058,0.822976669 37.2344972,0.842542237 C37.3176508,1.15803701 37.3029767,1.41483508 37.3029767,1.41483508 C37.356782,1.59092518 37.5023009,1.62516492 37.6294771,1.4918745 L38.4756879,0.601641191 C38.6016412,0.468350764 38.5588415,0.326500402 38.3803057,0.284923572" id="Fill-3" fill="#00B8E0"></path>
            <path d="M38.3803057,0.284923572 L37.1831376,0.00978278359 C37.0046018,-0.0317940467 36.9006597,0.0782622687 36.9532422,0.253129525 C36.9532422,0.253129525 37.0620756,0.380305712 37.1586806,0.616315366 C37.1672405,0.637103781 19.3637973,5.82687047 10.8552212,15.6292196 C1.53345133,26.3682703 0,35.072502 0,35.072502 L0.575961384,36.9361223 C0.575961384,36.9361223 2.65724859,27.1570072 10.4357844,17.7533065 C13.7289139,13.7729364 17.7863234,9.85860016 23.55572,6.78313757 C32.3431054,2.09962993 37.2296058,0.822976669 37.2344972,0.842542237 C37.3176508,1.15803701 37.3029767,1.41483508 37.3029767,1.41483508 C37.356782,1.59092518 37.5023009,1.62516492 37.6294771,1.4918745 L38.4756879,0.601641191 C38.6016412,0.468350764 38.5588415,0.326500402 38.3803057,0.284923572 Z" id="Stroke-4" stroke="#00B8E0" stroke-width="0.5"></path>
            <path d="M15.7930813,7.29673371 C15.7930813,8.26033789 15.0129043,9.04051488 14.0505229,9.04051488 C13.0869187,9.04051488 12.3079646,8.26033789 12.3079646,7.29673371 C12.3079646,6.33435237 13.0869187,5.55417538 14.0505229,5.55417538 C15.0129043,5.55417538 15.7930813,6.33435237 15.7930813,7.29673371" id="Fill-6" fill="#003B62"></path>
            <path d="M15.7930813,7.29673371 C15.7930813,8.26033789 15.0129043,9.04051488 14.0505229,9.04051488 C13.0869187,9.04051488 12.3079646,8.26033789 12.3079646,7.29673371 C12.3079646,6.33435237 13.0869187,5.55417538 14.0505229,5.55417538 C15.0129043,5.55417538 15.7930813,6.33435237 15.7930813,7.29673371" id="Stroke-7" stroke="#003B62" stroke-width="0.5"></path>
            <polyline id="Fill-8" fill="#1A1919" points="53.1486404 9.28263878 51.4134191 9.28263878 51.4134191 3.7260177 51.3865165 3.7260177 49.1535961 9.28263878 47.8891714 9.28263878 45.6550282 3.7260177 45.6281255 3.7260177 45.6281255 9.28263878 43.8929043 9.28263878 43.8929043 0 45.8714722 0 48.5751891 6.7660177 48.6020917 6.7660177 51.3327112 0 53.1486404 0 53.1486404 9.28263878"></polyline>
            <path d="M57.6951891,5.31327434 L57.1033307,5.31327434 L57.1033307,7.82867257 L57.6144811,7.82867257 C58.9865165,7.82867257 59.5649236,7.38600161 59.5649236,6.55079646 C59.5649236,5.75716814 58.9058085,5.31327434 57.6951891,5.31327434 Z M57.4934191,1.42584071 L57.1033307,1.42584071 L57.1033307,3.91433628 L57.4799678,3.91433628 C58.7578439,3.91433628 59.3497023,3.41663717 59.3497023,2.58265487 C59.3497023,1.86973451 58.8251006,1.42584071 57.4934191,1.42584071 Z M59.4976669,4.49274336 L59.4976669,4.51964602 C60.3720032,4.69451327 61.4212068,5.38053097 61.4212068,6.67185841 C61.4212068,8.20653258 60.2778439,9.28263878 57.6144811,9.28263878 L55.2996299,9.28263878 L55.2996299,0 L57.4934191,0 C60.2105873,0 61.1656315,0.940370072 61.1656315,2.44814159 C61.1656315,3.77982301 60.2912953,4.25061947 59.4976669,4.49274336 L59.4976669,4.49274336 Z" id="Fill-9" fill="#1A1919"></path>
            <polyline id="Fill-10" fill="#1A1919" points="68.4293484 1.47964602 64.9442317 1.47964602 64.9442317 3.86053097 68.1737731 3.86053097 68.1737731 5.34017699 64.9442317 5.34017699 64.9442317 7.80299276 68.8732422 7.80299276 68.7656315 9.28263878 63.1417538 9.28263878 63.1417538 0 68.536959 0 68.4293484 1.47964602"></polyline>
            <path d="M48.4186645,13.1553982 L48.4186645,19.0654224 L47.6984071,19.0654224 L47.6984071,16.2565406 C47.6984071,15.5448431 47.706967,14.8417056 47.7326468,14.5934674 L47.706967,14.5934674 C47.6470475,14.8502655 47.4501689,15.5106034 47.2276106,16.1782784 L46.251778,19.0654224 L45.6599195,19.0654224 L44.6840869,16.1782784 C44.4615286,15.5106034 44.2560901,14.8502655 44.2047305,14.5934674 L44.1790507,14.5934674 C44.2047305,14.8600483 44.2132904,15.5448431 44.2132904,16.2565406 L44.2132904,19.0654224 L43.493033,19.0654224 L43.493033,13.1553982 L44.3245696,13.1553982 L45.7210619,17.2323733 C45.849461,17.6090105 45.9595173,17.9954304 45.97786,18.2522285 L45.9949799,18.2522285 C46.0035398,17.9954304 46.1135961,17.6175704 46.243218,17.2397104 L47.6397104,13.1553982 L48.4186645,13.1553982" id="Fill-11" fill="#1A1919"></path>
            <path d="M49.544861,19.0641995 L50.2879803,19.0641995 L50.2879803,14.9542076 L49.544861,14.9542076 L49.544861,19.0641995 Z M49.4177313,13.4647788 C49.4177313,13.181078 49.6182555,12.9756396 49.9210078,12.9756396 C50.2158964,12.9756396 50.4177313,13.181078 50.4177313,13.4647788 C50.4177313,13.7545937 50.2158964,13.961255 49.9210078,13.961255 C49.6182555,13.961255 49.4177313,13.7545937 49.4177313,13.4647788 L49.4177313,13.4647788 Z" id="Fill-12" fill="#1A1919"></path>
            <path d="M52.4565084,15.4078842 C52.0627514,15.4078842 51.7276911,15.6390024 51.7276911,16.229638 C51.7276911,16.8214964 52.0627514,17.0526146 52.4393886,17.0526146 C52.8331456,17.0526146 53.1584232,16.8214964 53.1584232,16.229638 C53.1584232,15.6390024 52.8331456,15.4078842 52.4565084,15.4078842 Z M53.4580209,19.4836364 C53.4580209,19.0911022 53.184103,18.9358005 52.7646661,18.9358005 L52.2425101,18.9358005 C52.130008,18.9358005 52.0199517,18.9272405 51.9245696,18.9113435 C51.7276911,19.0213998 51.5051327,19.2195012 51.5051327,19.6303781 C51.5051327,20.0669348 51.7448109,20.290716 52.2339501,20.290716 C53.0728238,20.290716 53.4580209,19.9042961 53.4580209,19.4836364 Z M52.1813677,20.8801287 C51.3082542,20.8801287 50.8374578,20.4778117 50.8374578,19.7673371 C50.8374578,19.1595817 51.333934,18.867321 51.5222526,18.7658246 L51.5222526,18.7487047 C51.3510539,18.6190829 51.2568946,18.4307643 51.2568946,18.1739662 C51.2568946,17.7288496 51.6506516,17.5576508 51.7533709,17.5062912 L51.7533709,17.4891714 C51.333934,17.29107 51.0514562,16.8801931 51.0514562,16.229638 C51.0514562,15.3051649 51.6763315,14.8502655 52.4479485,14.8502655 C52.644827,14.8502655 52.8245857,14.8857281 52.9957844,14.9542076 L54.245535,14.9542076 L54.1525986,15.4934835 L53.6377796,15.4934835 C53.7661786,15.698922 53.8358809,15.9569429 53.8358809,16.229638 C53.8358809,17.1039743 53.2183427,17.6261303 52.4137088,17.6261303 C52.3366693,17.6261303 52.2681899,17.6261303 52.1997104,17.6175704 C52.0627514,17.6774899 51.8658729,17.7887691 51.8658729,18.0027675 C51.8658729,18.1739662 51.985712,18.2950282 52.2853097,18.2950282 L52.8074658,18.2950282 C53.58642,18.2950282 54.1684956,18.6031858 54.1684956,19.3809171 C54.1684956,20.2638134 53.3981014,20.8801287 52.1813677,20.8801287 L52.1813677,20.8801287 Z" id="Fill-13" fill="#1A1919"></path>
            <path d="M56.6594368,15.561963 C56.6251971,15.5448431 56.505358,15.4934835 56.3170394,15.4934835 C55.8804827,15.4934835 55.6481416,15.7759614 55.5454224,16.0511022 L55.5454224,19.0654224 L54.8520676,19.0654224 L54.8520676,14.9542076 L55.4867257,14.9542076 L55.4867257,15.5106034 L55.5026227,15.5106034 C55.6224618,15.1853258 55.8450201,14.8771681 56.368399,14.8771681 C56.5652776,14.8771681 56.6765567,14.9199678 56.7450362,14.9444248 L56.6594368,15.561963" id="Fill-14" fill="#1A1919"></path>
            <path d="M58.6795817,17.275173 C58.0204666,17.3008528 57.6695093,17.4891714 57.6695093,17.9428479 C57.6695093,18.3622848 57.8749477,18.5762832 58.2173451,18.5762832 C58.6196621,18.5762832 58.8165406,18.3035881 58.90214,18.1739662 L58.90214,17.266613 L58.6795817,17.275173 Z M58.90214,16.3592599 C58.90214,15.6646822 58.6453419,15.4421239 58.2002253,15.4421239 C57.7881255,15.4421239 57.5142076,15.6732422 57.3601287,15.8102011 L57.0690909,15.3479646 C57.2500724,15.168206 57.6426066,14.8502655 58.3029445,14.8502655 C59.1418182,14.8502655 59.5881577,15.296605 59.5881577,16.3323572 L59.5881577,18.208206 C59.5881577,18.5603862 59.6211746,18.9541432 59.6395173,19.0654224 L58.9791794,19.0654224 C58.9706195,18.9455833 58.9620595,18.8159614 58.9534996,18.6117458 L58.9363797,18.6117458 C58.8422204,18.8159614 58.5939823,19.1681416 58.0718262,19.1681416 C57.4469509,19.1681416 56.9749316,18.6875623 56.9749316,18.0198874 C56.9749316,17.0697345 57.7551086,16.7530169 58.6881416,16.7530169 L58.90214,16.7530169 L58.90214,16.3592599 L58.90214,16.3592599 Z" id="Fill-15" fill="#1A1919"></path>
            <path d="M61.7684956,19.1681416 C61.0665809,19.1681416 60.7070636,18.8000644 60.7070636,17.8914883 L60.7070636,15.5191633 L60.2105873,15.5191633 L60.2105873,15.0569268 L60.7070636,14.9542076 L60.784103,13.8059533 L61.4004183,13.8059533 L61.4004183,14.9542076 L62.3860338,14.9542076 L62.3004344,15.5191633 L61.4004183,15.5191633 L61.4004183,17.797329 C61.4004183,18.3794047 61.5373773,18.5518262 61.8883347,18.5518262 C62.094996,18.5518262 62.2490748,18.473564 62.3163315,18.4307643 L62.4117136,18.9871601 C62.351794,19.0299598 62.1365728,19.1681416 61.7684956,19.1681416" id="Fill-16" fill="#1A1919"></path>
            <path d="M63.0095595,19.0641995 L63.7517061,19.0641995 L63.7517061,14.9542076 L63.0095595,14.9542076 L63.0095595,19.0641995 Z M62.8812872,13.4647788 C62.8812872,13.181078 63.0828579,12.9756396 63.3852139,12.9756396 C63.6784076,12.9756396 63.8812872,13.181078 63.8812872,13.4647788 C63.8812872,13.7545937 63.6784076,13.961255 63.3852139,13.961255 C63.0828579,13.961255 62.8812872,13.7545937 62.8812872,13.4647788 L62.8812872,13.4647788 Z" id="Fill-17" fill="#1A1919"></path>
            <path d="M66.1010459,15.4421239 C65.5348673,15.4421239 65.2010298,15.9214803 65.2010298,17.009815 C65.2010298,18.0981496 65.5434272,18.5518262 66.1096058,18.5518262 C66.6745615,18.5518262 67.008399,18.0981496 67.008399,17.009815 C67.008399,15.9214803 66.6660016,15.4421239 66.1010459,15.4421239 Z M66.1267257,14.8502655 C67.0340788,14.8502655 67.7274336,15.4934835 67.7274336,17.009815 C67.7274336,18.5432663 66.9827192,19.1681416 66.083926,19.1681416 C65.17535,19.1681416 64.4819952,18.5518262 64.4819952,17.009815 C64.4819952,15.4934835 65.2438294,14.8502655 66.1267257,14.8502655 L66.1267257,14.8502655 Z" id="Fill-18" fill="#1A1919"></path>
            <path d="M69.2070796,15.8958005 L69.2070796,19.0654224 L68.5137249,19.0654224 L68.5137249,14.9542076 L69.1471601,14.9542076 L69.1471601,15.4164441 L69.16428,15.4164441 C69.2425422,15.2709252 69.6093966,14.8502655 70.2526146,14.8502655 C70.9887691,14.8502655 71.4510056,15.2538053 71.4510056,16.3678198 L71.4510056,19.0654224 L70.7576508,19.0654224 L70.7576508,16.4191794 C70.7576508,15.7246018 70.5265326,15.4421239 70.0471762,15.4421239 C69.6265165,15.4421239 69.3452615,15.7246018 69.2070796,15.8958005" id="Fill-19" fill="#1A1919"></path>
            <path d="M74.1718423,15.7845213 C74.0789059,15.6818021 73.8380048,15.4421239 73.4528077,15.4421239 C73.0847305,15.4421239 72.887852,15.6390024 72.887852,15.8786806 C72.887852,16.1868383 73.0590507,16.3592599 73.4271279,16.5805953 L73.683926,16.7346742 C74.2403218,17.0697345 74.5839421,17.403572 74.5839421,18.0113274 C74.5839421,18.6631054 74.1119228,19.1681416 73.2730491,19.1681416 C72.613934,19.1681416 72.2800965,18.867321 72.1174578,18.6973451 L72.4512953,18.1495093 C72.5796943,18.2852454 72.8364924,18.5518262 73.281609,18.5518262 C73.6924859,18.5518262 73.9150442,18.3463878 73.9150442,18.0798069 C73.9150442,17.6860499 73.7096058,17.5490909 73.3158488,17.3008528 L73.0590507,17.1369912 C72.5454545,16.8129364 72.2372969,16.4778761 72.2372969,15.9129204 C72.2372969,15.3051649 72.7594529,14.8502655 73.4271279,14.8502655 C74.0605632,14.8502655 74.3357039,15.1498632 74.4726629,15.2880451 L74.1718423,15.7845213" id="Fill-20" fill="#1A1919"></path>
            <path d="M76.7911826,15.4421239 C76.3631858,15.4421239 76.1491874,15.6646822 75.9951086,15.8615607 L75.9951086,18.3879646 C76.0978278,18.4576669 76.2690265,18.5518262 76.5087047,18.5518262 C77.1678198,18.5518262 77.6557361,18.1495093 77.6557361,16.9070957 C77.6557361,15.8872405 77.3218986,15.4421239 76.7911826,15.4421239 Z M76.4830249,19.1424618 C75.81535,19.1424618 75.4374899,18.851424 75.3017538,18.738922 L75.3017538,13.0086565 L75.9951086,12.9499598 L75.9951086,15.3479646 L76.0122285,15.3479646 C76.1235076,15.168206 76.4402253,14.8502655 76.9966211,14.8502655 C77.8367176,14.8502655 78.3759936,15.4678037 78.3759936,16.8214964 C78.3759936,18.5848431 77.5028801,19.1424618 76.4830249,19.1424618 L76.4830249,19.1424618 Z" id="Fill-21" fill="#1A1919"></path>
            <path d="M79.667321,16.6160579 L81.1579726,16.6160579 C81.1665326,16.5561384 81.1750925,16.4436364 81.1750925,16.3164602 C81.1750925,15.7502816 80.9427514,15.4164441 80.5061947,15.4164441 C80.0182784,15.4164441 79.7015607,15.8444409 79.667321,16.6160579 Z M80.6688335,19.1681416 C79.6330813,19.1681416 78.9825261,18.5090265 78.9825261,16.9584553 C78.9825261,15.5020434 79.6930008,14.8502655 80.5502172,14.8502655 C81.3291714,14.8502655 81.8085278,15.3565245 81.8085278,16.3409171 C81.8085278,16.6918745 81.7828479,16.9401126 81.7571681,17.1369912 L79.6587611,17.1369912 C79.7015607,18.0981496 80.0781979,18.5518262 80.7727755,18.5518262 C81.2606919,18.5518262 81.5431698,18.2852454 81.637329,18.1910861 L81.8941271,18.6790024 C81.7828479,18.8000644 81.4490105,19.1681416 80.6688335,19.1681416 L80.6688335,19.1681416 Z" id="Fill-22" fill="#1A1919"></path>
            <path d="M84.4535479,15.561963 C84.4180853,15.5448431 84.299469,15.4934835 84.1099276,15.4934835 C83.6733709,15.4934835 83.4422526,15.7759614 83.3395334,16.0511022 L83.3395334,19.0654224 L82.6449558,19.0654224 L82.6449558,14.9542076 L83.2796138,14.9542076 L83.2796138,15.5106034 L83.2967337,15.5106034 C83.4165728,15.1853258 83.6391311,14.8771681 84.1612872,14.8771681 C84.3581657,14.8771681 84.4706677,14.9199678 84.5379244,14.9444248 L84.4535479,15.561963" id="Fill-23" fill="#1A1919"></path>
            <path d="M86.4724698,17.275173 C85.8133548,17.3008528 85.4623974,17.4891714 85.4623974,17.9428479 C85.4623974,18.3622848 85.6678359,18.5762832 86.0102333,18.5762832 C86.4137731,18.5762832 86.6106516,18.3035881 86.696251,18.1739662 L86.696251,17.266613 L86.4724698,17.275173 Z M86.696251,16.3592599 C86.696251,15.6646822 86.4394529,15.4421239 85.9931134,15.4421239 C85.5822365,15.4421239 85.3083186,15.6732422 85.1542397,15.8102011 L84.8632019,15.3479646 C85.0429606,15.168206 85.4367176,14.8502655 86.0958327,14.8502655 C86.9359292,14.8502655 87.3810459,15.296605 87.3810459,16.3323572 L87.3810459,18.208206 C87.3810459,18.5603862 87.4152856,18.9541432 87.4324055,19.0654224 L86.7720676,19.0654224 C86.7647305,18.9455833 86.7549477,18.8159614 86.7476106,18.6117458 L86.7292679,18.6117458 C86.6363315,18.8159614 86.3880933,19.1681416 85.8647144,19.1681416 C85.2398391,19.1681416 84.7690426,18.6875623 84.7690426,18.0198874 C84.7690426,17.0697345 85.5479968,16.7530169 86.4810298,16.7530169 L86.696251,16.7530169 L86.696251,16.3592599 L86.696251,16.3592599 Z" id="Fill-24" fill="#1A1919"></path>
            <path d="M89.5626066,19.1681416 C88.8606919,19.1681416 88.5011746,18.8000644 88.5011746,17.8914883 L88.5011746,15.5191633 L88.0034755,15.5191633 L88.0034755,15.0569268 L88.5011746,14.9542076 L88.578214,13.8059533 L89.1945294,13.8059533 L89.1945294,14.9542076 L90.178922,14.9542076 L90.0933226,15.5191633 L89.1945294,15.5191633 L89.1945294,17.797329 C89.1945294,18.3794047 89.3314883,18.5518262 89.6824457,18.5518262 C89.8878842,18.5518262 90.041963,18.473564 90.1104425,18.4307643 L90.2046018,18.9871601 C90.1446822,19.0299598 89.9306838,19.1681416 89.5626066,19.1681416" id="Fill-25" fill="#1A1919"></path>
            <path d="M91.9508286,19.1681416 C91.2232341,19.1681416 90.7695575,18.7658246 90.7695575,17.6518101 L90.7695575,14.9542076 L91.4629123,14.9542076 L91.4629123,17.6004505 C91.4629123,18.2766854 91.6854706,18.5518262 92.14893,18.5518262 C92.567144,18.5518262 92.8410619,18.2681255 92.9792438,18.0981496 L92.9792438,14.9542076 L93.6725986,14.9542076 L93.6725986,19.0654224 L93.0391633,19.0654224 L93.0391633,18.6031858 L93.0220434,18.6031858 C92.945004,18.7487047 92.5769268,19.1681416 91.9508286,19.1681416" id="Fill-26" fill="#1A1919"></path>
            <path d="M95.3405632,15.8958005 L95.3405632,19.0654224 L94.6472084,19.0654224 L94.6472084,14.9542076 L95.2806436,14.9542076 L95.2806436,15.4164441 L95.2977635,15.4164441 C95.3748029,15.2709252 95.7428801,14.8502655 96.3860981,14.8502655 C97.1210298,14.8502655 97.5844891,15.2538053 97.5844891,16.3678198 L97.5844891,19.0654224 L96.8911344,19.0654224 L96.8911344,16.4191794 C96.8911344,15.7246018 96.6587932,15.4421239 96.1794368,15.4421239 C95.76,15.4421239 95.4775221,15.7246018 95.3405632,15.8958005" id="Fill-27" fill="#1A1919"></path>
            <path d="M99.7831698,15.4078842 C99.3894127,15.4078842 99.0543524,15.6390024 99.0543524,16.229638 C99.0543524,16.8214964 99.3894127,17.0526146 99.764827,17.0526146 C100.159807,17.0526146 100.485084,16.8214964 100.485084,16.229638 C100.485084,15.6390024 100.159807,15.4078842 99.7831698,15.4078842 Z M100.784682,19.4836364 C100.784682,19.0911022 100.510764,18.9358005 100.091327,18.9358005 L99.5679485,18.9358005 C99.4578922,18.9358005 99.346613,18.9272405 99.2524537,18.9113435 C99.0543524,19.0213998 98.8330169,19.2195012 98.8330169,19.6303781 C98.8330169,20.0669348 99.0714722,20.290716 99.5606114,20.290716 C100.399485,20.290716 100.784682,19.9042961 100.784682,19.4836364 Z M99.5092518,20.8801287 C98.6361384,20.8801287 98.1641191,20.4778117 98.1641191,19.7673371 C98.1641191,19.1595817 98.6605953,18.867321 98.8489139,18.7658246 L98.8489139,18.7487047 C98.6789381,18.6190829 98.5847788,18.4307643 98.5847788,18.1739662 C98.5847788,17.7288496 98.9785358,17.5576508 99.081255,17.5062912 L99.081255,17.4891714 C98.6605953,17.29107 98.3793403,16.8801931 98.3793403,16.229638 C98.3793403,15.3051649 99.0029928,14.8502655 99.7746098,14.8502655 C99.9714883,14.8502655 100.151247,14.8857281 100.323669,14.9542076 L101.573419,14.9542076 L101.478037,15.4934835 L100.964441,15.4934835 C101.09284,15.698922 101.161319,15.9569429 101.161319,16.229638 C101.161319,17.1039743 100.545004,17.6261303 99.7403701,17.6261303 C99.6621078,17.6261303 99.5948512,17.6261303 99.5263717,17.6175704 C99.3894127,17.6774899 99.1925342,17.7887691 99.1925342,18.0027675 C99.1925342,18.1739662 99.3111504,18.2950282 99.611971,18.2950282 L100.134127,18.2950282 C100.913081,18.2950282 101.495157,18.6031858 101.495157,19.3809171 C101.495157,20.2638134 100.725986,20.8801287 99.5092518,20.8801287 L99.5092518,20.8801287 Z" id="Fill-28" fill="#1A1919"></path>
            <path d="M44.2389702,24.079099 L44.2389702,27.625358 L43.5443926,27.625358 L43.5443926,24.079099 L43.0479163,24.079099 L43.0479163,23.6168624 L43.5443926,23.5227031 L43.5443926,22.6997265 C43.5443926,21.8009332 44.0763315,21.4414159 44.6840869,21.4414159 C44.9751247,21.4414159 45.197683,21.5526951 45.2661625,21.5954948 L45.1206436,22.1702333 C45.0521641,22.1274336 44.9237651,22.0577313 44.7440064,22.0577313 C44.4187289,22.0577313 44.2389702,22.2374899 44.2389702,22.7779887 L44.2389702,23.5141432 L45.1634433,23.5141432 L45.0778439,24.079099 L44.2389702,24.079099" id="Fill-29" fill="#1A1919"></path>
            <path d="M47.7485438,22.7694288 C47.5174256,22.7694288 47.3376669,22.5970072 47.3376669,22.3316492 C47.3376669,22.0662912 47.5174256,21.8950925 47.7485438,21.8950925 C47.9796621,21.8950925 48.1594208,22.0662912 48.1594208,22.3316492 C48.1594208,22.5970072 47.9796621,22.7694288 47.7485438,22.7694288 Z M46.4303138,22.7694288 C46.1991955,22.7694288 46.018214,22.5970072 46.018214,22.3316492 C46.018214,22.0662912 46.1991955,21.8950925 46.4303138,21.8950925 C46.661432,21.8950925 46.8411907,22.0662912 46.8411907,22.3316492 C46.8411907,22.5970072 46.661432,22.7694288 46.4303138,22.7694288 Z M46.8240708,27.7280772 C46.0964763,27.7280772 45.6415768,27.3257603 45.6415768,26.2117458 L45.6415768,23.5141432 L46.3361545,23.5141432 L46.3361545,26.1603862 C46.3361545,26.8366211 46.5587128,27.1117619 47.0209493,27.1117619 C47.4403862,27.1117619 47.7143041,26.8280611 47.8512631,26.6580853 L47.8512631,23.5141432 L48.5458407,23.5141432 L48.5458407,27.625358 L47.9111826,27.625358 L47.9111826,27.1631215 L47.8952856,27.1631215 C47.8182462,27.3086404 47.4489461,27.7280772 46.8240708,27.7280772 L46.8240708,27.7280772 Z" id="Fill-30" fill="#1A1919"></path>
            <path d="M51.318037,24.1218986 C51.2837973,24.1047788 51.1639582,24.0534191 50.9756396,24.0534191 C50.5390829,24.0534191 50.3079646,24.335897 50.2052454,24.6110378 L50.2052454,27.625358 L49.5106677,27.625358 L49.5106677,23.5141432 L50.1453258,23.5141432 L50.1453258,24.070539 L50.1624457,24.070539 C50.2822848,23.7452615 50.5048431,23.4371038 51.0269992,23.4371038 C51.2238777,23.4371038 51.3351569,23.4799035 51.4036364,23.5043604 L51.318037,24.1218986" id="Fill-31" fill="#1A1919"></path>
            <path d="M53.9275945,25.1759936 L55.4182462,25.1759936 C55.4268061,25.116074 55.435366,25.003572 55.435366,24.8763958 C55.435366,24.3102172 55.2042478,23.9763797 54.7676911,23.9763797 C54.2785519,23.9763797 53.9630571,24.4043765 53.9275945,25.1759936 Z M54.929107,27.7280772 C53.8933548,27.7280772 53.2427997,27.0689622 53.2427997,25.518391 C53.2427997,24.0619791 53.9532743,23.4102011 54.8104907,23.4102011 C55.5894449,23.4102011 56.0688013,23.9164602 56.0688013,24.9008528 C56.0688013,25.2518101 56.0431215,25.5000483 56.0174417,25.6969268 L53.9190346,25.6969268 C53.9630571,26.6580853 54.3396943,27.1117619 55.0330491,27.1117619 C55.5209654,27.1117619 55.8034433,26.845181 55.8976026,26.7510217 L56.1544006,27.2389381 C56.0431215,27.36 55.709284,27.7280772 54.929107,27.7280772 L54.929107,27.7280772 Z" id="Fill-32" fill="#1A1919"></path>
            <path d="M58.7052615,24.1218986 C58.6710217,24.1047788 58.5511826,24.0534191 58.362864,24.0534191 C57.9263073,24.0534191 57.6939662,24.335897 57.591247,24.6110378 L57.591247,27.625358 L56.8978922,27.625358 L56.8978922,23.5141432 L57.5313274,23.5141432 L57.5313274,24.070539 L57.5484473,24.070539 C57.6682864,23.7452615 57.8908447,23.4371038 58.4142237,23.4371038 C58.6111022,23.4371038 58.7223813,23.4799035 58.7908608,23.5043604 L58.7052615,24.1218986" id="Fill-33" fill="#1A1919"></path>
            <path d="M64.0307643,23.5141432 L62.7797908,27.625358 L62.1634755,27.625358 L61.7440386,26.186066 C61.6241995,25.7751891 61.5214803,25.4242317 61.5043604,25.1062912 L61.4872405,25.1062912 C61.4701207,25.4242317 61.3502816,25.7923089 61.2133226,26.1946259 L60.7413033,27.625358 L60.1506677,27.625358 L58.8581175,23.5141432 L59.6028319,23.5141432 L60.2191472,25.8436685 C60.3304264,26.2716653 60.4331456,26.6483025 60.4417056,26.97358 L60.4600483,26.97358 C60.4930652,26.6397426 60.6129043,26.2887852 60.7510861,25.8693484 L61.1962027,24.5242156 L60.8880451,23.5141432 L61.6070796,23.5141432 L62.2319549,25.783749 C62.360354,26.2459855 62.4801931,26.6739823 62.4899759,26.97358 L62.5058729,26.97358 C62.5229928,26.6739823 62.6342719,26.2374256 62.754111,25.783749 L63.3630893,23.5141432 L64.0307643,23.5141432" id="Fill-34" fill="#1A1919"></path>
            <path d="M66.0068866,25.8351086 C65.3465487,25.8607884 64.9955913,26.049107 64.9955913,26.5027836 C64.9955913,26.9222204 65.2010298,27.1362188 65.54465,27.1362188 C65.946967,27.1362188 66.1438455,26.8635237 66.2294449,26.7339019 L66.2294449,25.8265487 L66.0068866,25.8351086 Z M66.2294449,24.9191955 C66.2294449,24.2246179 65.9726468,24.0020595 65.5263073,24.0020595 C65.1154304,24.0020595 64.8415125,24.2331778 64.6874336,24.3701368 L64.3963958,23.9079002 C64.5761545,23.7281416 64.9699115,23.4102011 65.6290265,23.4102011 C66.4691231,23.4102011 66.9142397,23.8565406 66.9142397,24.8922928 L66.9142397,26.7681416 C66.9142397,27.1203218 66.9484795,27.5140788 66.9655994,27.625358 L66.3064843,27.625358 C66.2979244,27.5055189 66.2893644,27.375897 66.2808045,27.1716814 L66.2636846,27.1716814 C66.1695253,27.375897 65.9212872,27.7280772 65.3979083,27.7280772 C64.773033,27.7280772 64.3022365,27.247498 64.3022365,26.579823 C64.3022365,25.6296702 65.0811907,25.3129525 66.0142237,25.3129525 L66.2294449,25.3129525 L66.2294449,24.9191955 L66.2294449,24.9191955 Z" id="Fill-35" fill="#1A1919"></path>
            <path d="M70.1498954,24.3102172 C70.072856,24.2331778 69.8576348,24.0020595 69.4479807,24.0020595 C68.8561223,24.0020595 68.3938858,24.4214964 68.3938858,25.5098311 C68.3938858,26.716782 68.7962027,27.1117619 69.3880611,27.1117619 C69.8062751,27.1117619 70.0214964,26.9148833 70.1070957,26.8195012 L70.3895736,27.2988576 C70.2782944,27.4272566 69.9615768,27.7280772 69.3195817,27.7280772 C68.4024457,27.7280772 67.6748512,27.1716814 67.6748512,25.5611907 C67.6748512,23.9849397 68.5822043,23.4102011 69.3966211,23.4102011 C70.0214964,23.4102011 70.3125342,23.676782 70.4409332,23.8223009 L70.1498954,24.3102172" id="Fill-36" fill="#1A1919"></path>
            <path d="M71.7665004,24.4557361 L71.7665004,27.625358 L71.0731456,27.625358 L71.0731456,21.5685921 L71.7665004,21.4927755 L71.7665004,23.93358 L71.7836203,23.93358 C71.8692196,23.805181 72.1773773,23.4102011 72.8364924,23.4102011 C73.5567498,23.4102011 74.0104264,23.8394208 74.0104264,24.9277554 L74.0104264,27.625358 L73.3170716,27.625358 L73.3170716,24.979115 C73.3170716,24.2845374 73.0859533,24.0020595 72.6065969,24.0020595 C72.1859372,24.0020595 71.9034594,24.2845374 71.7665004,24.4557361" id="Fill-37" fill="#1A1919"></path>
            <path d="M76.7227031,24.344457 C76.6297667,24.2417377 76.3888656,24.0020595 76.0036685,24.0020595 C75.6355913,24.0020595 75.4387128,24.1989381 75.4387128,24.4386163 C75.4387128,24.7467739 75.6099115,24.9191955 75.9779887,25.140531 L76.2347868,25.2946098 C76.7911826,25.6296702 77.1348029,25.9635076 77.1348029,26.5712631 C77.1348029,27.223041 76.6627836,27.7280772 75.8239099,27.7280772 C75.1647949,27.7280772 74.8309574,27.4272566 74.6683186,27.2572808 L75.0021561,26.7094449 C75.1305551,26.845181 75.3873532,27.1117619 75.8324698,27.1117619 C76.2433467,27.1117619 76.4659051,26.9063234 76.4659051,26.6397426 C76.4659051,26.2459855 76.2604666,26.1090265 75.8667096,25.8607884 L75.6099115,25.6969268 C75.0963154,25.3728721 74.7881577,25.0378117 74.7881577,24.472856 C74.7881577,23.8651006 75.3103138,23.4102011 75.9779887,23.4102011 C76.6126468,23.4102011 76.8865648,23.7097989 77.0235237,23.8479807 L76.7227031,24.344457" id="Fill-38" fill="#1A1919"></path>
            <path d="M78.3490909,25.1759936 L79.8397426,25.1759936 C79.8470796,25.116074 79.8568624,25.003572 79.8568624,24.8763958 C79.8568624,24.3102172 79.6245213,23.9763797 79.1879646,23.9763797 C78.7000483,23.9763797 78.3833307,24.4043765 78.3490909,25.1759936 Z M79.3506034,27.7280772 C78.3148512,27.7280772 77.6642961,27.0689622 77.6642961,25.518391 C77.6642961,24.0619791 78.3747707,23.4102011 79.2307643,23.4102011 C80.0109413,23.4102011 80.4902977,23.9164602 80.4902977,24.9008528 C80.4902977,25.2518101 80.4646179,25.5000483 80.4389381,25.6969268 L78.340531,25.6969268 C78.3833307,26.6580853 78.7599678,27.1117619 79.4545455,27.1117619 C79.9424618,27.1117619 80.2249397,26.845181 80.319099,26.7510217 L80.575897,27.2389381 C80.4646179,27.36 80.1307804,27.7280772 79.3506034,27.7280772 L79.3506034,27.7280772 Z" id="Fill-39" fill="#1A1919"></path>
            <path d="M82.0127434,24.4557361 L82.0127434,27.625358 L81.3193886,27.625358 L81.3193886,23.5141432 L81.9528238,23.5141432 L81.9528238,23.9763797 L81.9699437,23.9763797 C82.0469831,23.8308608 82.4150603,23.4102011 83.0570555,23.4102011 C83.7944328,23.4102011 84.2566693,23.8137409 84.2566693,24.9277554 L84.2566693,27.625358 L83.5620917,27.625358 L83.5620917,24.979115 C83.5620917,24.2845374 83.3321963,24.0020595 82.8516171,24.0020595 C82.4321802,24.0020595 82.1497023,24.2845374 82.0127434,24.4557361" id="Fill-40" fill="#1A1919"></path>
            <path d="M85.6935157,25.1759936 L87.1829445,25.1759936 C87.1915044,25.116074 87.2012872,25.003572 87.2012872,24.8763958 C87.2012872,24.3102172 86.9689461,23.9763797 86.5323894,23.9763797 C86.044473,23.9763797 85.7277554,24.4043765 85.6935157,25.1759936 Z M86.6950282,27.7280772 C85.6592759,27.7280772 85.0087208,27.0689622 85.0087208,25.518391 C85.0087208,24.0619791 85.7191955,23.4102011 86.5751891,23.4102011 C87.355366,23.4102011 87.8347224,23.9164602 87.8347224,24.9008528 C87.8347224,25.2518101 87.8090426,25.5000483 87.7833628,25.6969268 L85.6849558,25.6969268 C85.7277554,26.6580853 86.1043926,27.1117619 86.7989702,27.1117619 C87.2856637,27.1117619 87.5693644,26.845181 87.6635237,26.7510217 L87.9203218,27.2389381 C87.8090426,27.36 87.4752051,27.7280772 86.6950282,27.7280772 L86.6950282,27.7280772 Z" id="Fill-41" fill="#1A1919"></path>
            <polyline id="Fill-42" fill="#1A1919" points="46.5256959 30.7387289 44.0164119 35.5506356 44.0164119 35.5689783 46.7396943 35.5689783 46.6883347 36.1852936 43.0564763 36.1852936 43.0564763 35.7230571 45.6427997 30.8842478 45.6427997 30.8659051 43.1934352 30.8659051 43.1934352 30.2752695 46.5256959 30.2752695 46.5256959 30.7387289"></polyline>
            <path d="M48.664457,36.2880129 C47.9368624,36.2880129 47.481963,35.8856959 47.481963,34.7716814 L47.481963,32.0740788 L48.1753178,32.0740788 L48.1753178,34.7203218 C48.1753178,35.3965567 48.399099,35.6716975 48.8613355,35.6716975 C49.2807723,35.6716975 49.5546903,35.3879968 49.6916492,35.2180209 L49.6916492,32.0740788 L50.3862269,32.0740788 L50.3862269,36.1852936 L49.7515688,36.1852936 L49.7515688,35.7230571 L49.7344489,35.7230571 C49.6586323,35.868576 49.2893323,36.2880129 48.664457,36.2880129" id="Fill-43" fill="#1A1919"></path>
            <path d="M52.7989059,32.5277554 C52.4051488,32.5277554 52.0713113,32.7588737 52.0713113,33.3495093 C52.0713113,33.9413677 52.4051488,34.1724859 52.781786,34.1724859 C53.175543,34.1724859 53.5008206,33.9413677 53.5008206,33.3495093 C53.5008206,32.7588737 53.175543,32.5277554 52.7989059,32.5277554 Z M53.8016412,36.6035076 C53.8016412,36.2109735 53.5265004,36.0556718 53.1070636,36.0556718 L52.5849075,36.0556718 C52.4736283,36.0556718 52.3623492,36.0471118 52.2681899,36.0312148 C52.0713113,36.1412711 51.8475302,36.3393725 51.8475302,36.7502494 C51.8475302,37.1868061 52.0884312,37.4105873 52.5763475,37.4105873 C53.4152212,37.4105873 53.8016412,37.0241673 53.8016412,36.6035076 Z M52.5249879,38 C51.6506516,38 51.181078,37.597683 51.181078,36.8872084 C51.181078,36.2794529 51.6763315,35.9871923 51.8658729,35.8856959 L51.8658729,35.868576 C51.6934513,35.7389541 51.599292,35.5506356 51.599292,35.2938375 C51.599292,34.8487208 51.9942719,34.6775221 52.0969912,34.6261625 L52.0969912,34.6090426 C51.6763315,34.4109413 51.3938536,34.0000644 51.3938536,33.3495093 C51.3938536,32.4250362 52.0199517,31.9701368 52.7903459,31.9701368 C52.9872245,31.9701368 53.1669831,32.0055994 53.3381818,32.0740788 L54.5891553,32.0740788 L54.494996,32.6133548 L53.9813998,32.6133548 C54.1097989,32.8187932 54.1782784,33.0768142 54.1782784,33.3495093 C54.1782784,34.2238455 53.5607401,34.7460016 52.7561062,34.7460016 C52.6790668,34.7460016 52.6105873,34.7460016 52.5421078,34.7374417 C52.4051488,34.7973612 52.2082703,34.9086404 52.2082703,35.1226388 C52.2082703,35.2938375 52.3281094,35.4148994 52.6277072,35.4148994 L53.1498632,35.4148994 C53.9300402,35.4148994 54.5121158,35.7230571 54.5121158,36.5007884 C54.5121158,37.3836846 53.7404988,38 52.5249879,38 L52.5249879,38 Z" id="Fill-44" fill="#1A1919"></path>
            <path d="M55.8279002,33.7359292 L57.3185519,33.7359292 C57.3271118,33.6760097 57.3356718,33.5635076 57.3356718,33.4363315 C57.3356718,32.8701529 57.1045535,32.5363154 56.6679968,32.5363154 C56.1788576,32.5363154 55.8633628,32.9643121 55.8279002,33.7359292 Z M56.8306356,36.2880129 C55.7936605,36.2880129 55.1431054,35.6288978 55.1431054,34.0783266 C55.1431054,32.6219147 55.85358,31.9701368 56.7107965,31.9701368 C57.4897506,31.9701368 57.969107,32.4763958 57.969107,33.4607884 C57.969107,33.8117458 57.9434272,34.0599839 57.9177474,34.2568624 L55.8193403,34.2568624 C55.8633628,35.2180209 56.24,35.6716975 56.9333548,35.6716975 C57.4212711,35.6716975 57.703749,35.4051167 57.7979083,35.3109574 L58.0559292,35.7988737 C57.9434272,35.9199356 57.6095897,36.2880129 56.8306356,36.2880129 L56.8306356,36.2880129 Z" id="Fill-45" fill="#1A1919"></path>
            <path d="M63.6883669,32.0740788 L62.4386163,36.1852936 L61.821078,36.1852936 L61.4016412,34.7460016 C61.2818021,34.3351247 61.1790829,33.9841673 61.161963,33.6662269 L61.1448431,33.6662269 C61.1277233,33.9841673 61.0078842,34.3522446 60.8709252,34.7545615 L60.4001287,36.1852936 L59.8094932,36.1852936 L58.51572,32.0740788 L59.2604344,32.0740788 L59.8767498,34.4036042 C59.9892518,34.831601 60.091971,35.2082381 60.0993081,35.5335157 L60.1176508,35.5335157 C60.1506677,35.1996782 60.2717297,34.8487208 60.4086887,34.429284 L60.8538053,33.0841512 L60.5456476,32.0740788 L61.2646822,32.0740788 L61.8895575,34.3436846 C62.0179566,34.8059212 62.1377957,35.2339179 62.1475784,35.5335157 L62.1634755,35.5335157 C62.1818182,35.2339179 62.2918745,34.7973612 62.4129364,34.3436846 L63.0206919,32.0740788 L63.6883669,32.0740788" id="Fill-46" fill="#1A1919"></path>
            <path d="M65.8613677,34.3950442 C65.2022526,34.4207241 64.8512953,34.6090426 64.8512953,35.0627192 C64.8512953,35.4821561 65.0567337,35.6961545 65.3991311,35.6961545 C65.8014481,35.6961545 65.9983266,35.4234594 66.083926,35.2938375 L66.083926,34.3864843 L65.8613677,34.3950442 Z M66.083926,33.4791311 C66.083926,32.7845535 65.8271279,32.5619952 65.3820113,32.5619952 C64.9699115,32.5619952 64.6959936,32.7931134 64.5419147,32.9300724 L64.2508769,32.4678359 C64.4306356,32.2880772 64.8243926,31.9701368 65.4847305,31.9701368 C66.3236042,31.9701368 66.7699437,32.4164763 66.7699437,33.4522285 L66.7699437,35.3280772 C66.7699437,35.6802574 66.8029606,36.0740145 66.8213033,36.1852936 L66.1609654,36.1852936 C66.1524055,36.0654545 66.1438455,35.9358327 66.1352856,35.7316171 L66.1181657,35.7316171 C66.0240064,35.9358327 65.7757683,36.2880129 65.2536122,36.2880129 C64.6287369,36.2880129 64.1567176,35.8074336 64.1567176,35.1397586 C64.1567176,34.1896058 64.9368946,33.8728882 65.8699276,33.8728882 L66.083926,33.8728882 L66.083926,33.4791311 L66.083926,33.4791311 Z" id="Fill-47" fill="#1A1919"></path>
            <path d="M68.6078842,33.0156718 L68.6078842,36.1852936 L67.9145294,36.1852936 L67.9145294,32.0740788 L68.5491874,32.0740788 L68.5491874,32.5363154 L68.5650845,32.5363154 C68.6433467,32.3907965 69.011424,31.9701368 69.6534191,31.9701368 C70.3907965,31.9701368 70.8518101,32.3736766 70.8518101,33.4876911 L70.8518101,36.1852936 L70.1584553,36.1852936 L70.1584553,33.5390507 C70.1584553,32.844473 69.9273371,32.5619952 69.4479807,32.5619952 C69.0285438,32.5619952 68.746066,32.844473 68.6078842,33.0156718" id="Fill-48" fill="#1A1919"></path>
            <path d="M74.198745,35.2693805 L74.198745,32.7331939 C74.0789059,32.6561545 73.9162671,32.587675 73.668029,32.587675 C73.0260338,32.587675 72.5209976,32.9985519 72.5209976,34.1627031 C72.5209976,35.2938375 72.9489944,35.6716975 73.4283508,35.6716975 C73.8649075,35.6716975 74.1045857,35.4051167 74.198745,35.2693805 Z M73.2400322,36.2880129 C72.4598552,36.2880129 71.8007401,35.6875945 71.8007401,34.1896058 C71.8007401,32.5277554 72.7435559,31.9970394 73.6166693,31.9970394 C73.8820274,31.9970394 74.0703459,32.048399 74.198745,32.0997586 L74.198745,30.1285278 L74.8933226,30.0527112 L74.8933226,36.1852936 L74.2586645,36.1852936 L74.2586645,35.7475141 L74.2415447,35.7475141 C74.1657281,35.877136 73.8905873,36.2880129 73.2400322,36.2880129 L73.2400322,36.2880129 Z" id="Fill-49" fill="#1A1919"></path>
            <path d="M76.5515044,33.7359292 L78.0421561,33.7359292 C78.050716,33.6760097 78.0592759,33.5635076 78.0592759,33.4363315 C78.0592759,32.8701529 77.8281577,32.5363154 77.391601,32.5363154 C76.9024618,32.5363154 76.5857442,32.9643121 76.5515044,33.7359292 Z M77.5530169,36.2880129 C76.5172647,36.2880129 75.8667096,35.6288978 75.8667096,34.0783266 C75.8667096,32.6219147 76.5771842,31.9701368 77.4344006,31.9701368 C78.2133548,31.9701368 78.6927112,32.4763958 78.6927112,33.4607884 C78.6927112,33.8117458 78.6670314,34.0599839 78.6413516,34.2568624 L76.5429445,34.2568624 C76.5857442,35.2180209 76.9636042,35.6716975 77.656959,35.6716975 C78.1448753,35.6716975 78.4273532,35.4051167 78.5215125,35.3109574 L78.7783105,35.7988737 C78.6670314,35.9199356 78.3331939,36.2880129 77.5530169,36.2880129 L77.5530169,36.2880129 Z" id="Fill-50" fill="#1A1919"></path>
            <path d="M81.5260499,32.6818343 C81.4918101,32.6647144 81.371971,32.6133548 81.1836525,32.6133548 C80.7470957,32.6133548 80.5147546,32.8958327 80.4120354,33.1709735 L80.4120354,36.1852936 L79.7186806,36.1852936 L79.7186806,32.0740788 L80.3521158,32.0740788 L80.3521158,32.6304747 L80.3692357,32.6304747 C80.4890748,32.3051971 80.7116331,31.9970394 81.2350121,31.9970394 C81.4318906,31.9970394 81.5431698,32.0398391 81.6116492,32.0642961 L81.5260499,32.6818343" id="Fill-51" fill="#1A1919"></path>
            <path d="M83.5364119,36.2880129 C82.8344972,36.2880129 82.4749799,35.9199356 82.4749799,35.0113596 L82.4749799,32.6390346 L81.9785036,32.6390346 L81.9785036,32.1767981 L82.4749799,32.0740788 L82.5520193,30.9258246 L83.1683347,30.9258246 L83.1683347,32.0740788 L84.1527273,32.0740788 L84.0683508,32.6390346 L83.1683347,32.6390346 L83.1683347,34.9172003 C83.1683347,35.4992759 83.3052936,35.6716975 83.656251,35.6716975 C83.8629123,35.6716975 84.0169912,35.5934352 84.0842478,35.5506356 L84.1784071,36.1070314 C84.1197104,36.1498311 83.9044891,36.2880129 83.5364119,36.2880129" id="Fill-52" fill="#1A1919"></path>
            <path d="M85.3939179,33.7359292 L86.8845696,33.7359292 C86.8931295,33.6760097 86.9016895,33.5635076 86.9016895,33.4363315 C86.9016895,32.8701529 86.6693484,32.5363154 86.2340145,32.5363154 C85.7448753,32.5363154 85.4281577,32.9643121 85.3939179,33.7359292 Z M86.3954304,36.2880129 C85.3596782,36.2880129 84.7091231,35.6288978 84.7091231,34.0783266 C84.7091231,32.6219147 85.4195977,31.9701368 86.2768142,31.9701368 C87.0557683,31.9701368 87.5351247,32.4763958 87.5351247,33.4607884 C87.5351247,33.8117458 87.5094449,34.0599839 87.4837651,34.2568624 L85.385358,34.2568624 C85.4281577,35.2180209 85.8047949,35.6716975 86.4993725,35.6716975 C86.9872888,35.6716975 87.2697667,35.4051167 87.363926,35.3109574 L87.6207241,35.7988737 C87.5094449,35.9199356 87.1756074,36.2880129 86.3954304,36.2880129 L86.3954304,36.2880129 Z" id="Fill-53" fill="#1A1919"></path>
        </g>
    </g>
</svg>