<svg xmlns="http://www.w3.org/2000/svg" width="122" height="72" viewBox="0 0 122 72">
  <g fill="none" fill-rule="evenodd" transform="translate(1 1)">
    <polygon stroke="#E3181C" stroke-width="2" points="0 70 120 70 120 0 0 0"/>
    <path fill="#52B5EB" d="M112.588154,44.2636026 C112.2526,43.5334237 111.343226,40.949617 111.343226,40.3149585 C111.343226,38.9596312 111.149077,31.7772777 111.343226,31.313661 C112.284416,29.0662036 112.29686,26.8979037 109.196702,26.8979037 C108.140974,26.8979037 107.181542,26.8742684 106.191709,26.6430894 C105.516501,26.4854736 104.05381,25.920043 103.787686,25.2844056 C103.647554,24.950154 103.014909,25.2452464 103.014909,23.6709074 C103.014909,22.5719329 102.928935,21.1630415 102.928935,19.934562 C102.928935,18.4421776 103.140759,13.6451777 102.671437,12.7165457 C102.392021,12.1637019 102.646691,11.8428763 102.327965,11.5276449 C101.997077,11.200386 102.39895,10.4939824 102.070467,10.1689612 C101.992835,10.092321 101.847188,8.84440181 101.555329,8.55560284 C101.537088,8.53756164 100.843214,7.1967792 100.524912,7.1967792 C100.175784,6.50645876 99.0528886,6.00801831 98.2925551,6.00801831 C98.0589544,6.00801831 95.9773347,5.98997711 95.8885325,6.00801831 C95.0577795,6.1766825 95.2902489,6.34772422 94.0854802,6.34772422 C93.4300691,6.34772422 92.77084,6.26269285 92.0247884,6.26269285 C92.0247884,6.71358286 91.9173208,5.96606204 91.5954835,6.60239876 C90.5753894,6.60239876 91.1820159,7.36670209 90.651041,7.36670209 C90.651041,7.45802689 89.4795024,8.66259132 89.3631263,9.14998328 C89.3298962,9.2895578 88.7135128,9.91414676 88.5046579,9.91414676 C87.3824696,9.91414676 86.0420937,9.5941603 85.4995236,10.338884 C84.8360524,11.249335 83.1372154,10.5790137 82.0650844,11.018156 C81.7547009,11.1452835 81.574127,10.8244579 81.2064746,11.1880789 C80.8608813,11.5298826 80.7220218,11.1296198 80.5196716,11.6125364 C80.5107631,11.6337943 79.3322957,12.2774034 79.2317569,12.3768398 C78.3984585,13.2012804 74.6073965,11.5321203 76.4842621,10.7633416 C76.5238554,10.7471185 77.1914273,10.2106377 76.913567,9.8293951 C76.2727205,8.94999174 74.0494132,9.14998328 72.9639901,9.14998328 C72.9639901,9.49696161 72.6205179,9.16312958 72.6205179,10.338884 C72.3884727,10.338884 72.834322,10.5935586 71.5902427,10.5935586 C69.7775749,10.5935586 70.8002143,10.8311709 69.8730231,9.91414676 C69.0476435,9.0976778 67.9083452,7.87619102 66.6962234,7.87619102 C66.0460443,7.87619102 63.3583637,7.64613082 63.0042861,7.79129951 C62.3589147,8.05576384 61.6021163,9.65947222 60.2567913,9.65947222 C59.4792064,9.65947222 59.4840142,9.77611064 59.4841556,8.93754472 C59.3393571,9.36717689 58.3792187,9.00159795 57.809923,9.2348748 C56.8673188,9.62101231 57.1351395,9.38074275 56.7795064,10.0840696 C56.619719,10.4000003 56.382159,10.9668295 56.0497164,11.1030475 C55.7160011,11.2396851 56.1231055,11.3153462 55.7922183,11.3153462 C55.7922183,11.406671 54.8173738,11.697428 54.6331233,11.697428 C53.9089895,11.697428 53.7520302,11.9097267 53.0017364,11.9097267 C52.7275526,11.9097267 52.8616043,12.0796495 52.4436118,12.0796495 C52.4436118,12.3796369 52.1001396,12.2460761 52.1001396,12.8012973 C51.953927,12.8012973 51.9799455,15.8243862 52.1001396,15.9434022 C52.1363392,15.979065 52.3983623,16.9597228 52.7440969,17.3020859 C52.7783169,17.3357908 53.3545413,18.058977 53.3881957,18.1087651 C53.8087335,18.1087651 54.2954487,18.4908468 54.8047887,18.4908468 C55.3142701,18.4908468 55.7287275,18.3126726 55.921038,17.8539507 C56.0170519,17.6245898 56.607134,17.688643 56.7795064,17.8115749 C57.2281838,18.1311418 57.4475026,18.1326802 57.9387428,18.618254 C58.0228786,18.7014673 59.3059856,19.6770904 59.3123488,19.6797476 C59.6419633,19.8147069 60.3276351,19.9769378 60.6862376,19.9769378 C61.082171,19.9769378 61.2809861,20.1892365 61.8881782,20.1892365 C62.0082309,20.1892365 63.3115587,20.2534296 63.3478997,20.274128 C63.5081113,20.3661521 64.196894,20.8071125 64.2923422,20.9959157 C64.5714753,20.9959157 65.2796304,22.2155844 65.2796304,22.4820067 C65.2796304,22.8215727 66.038974,24.3816466 66.1382402,24.9872154 C66.1564814,25.0982596 66.708667,26.6551168 66.7392105,26.6854652 C66.92035,26.8646184 67.0396956,29.2410214 67.0396956,29.6151314 C67.0396956,30.0928735 67.216593,31.4961707 67.3403222,31.9079016 C67.4585366,32.3013115 67.2788111,32.5647969 67.4691419,32.8845036 C67.5419654,33.0070159 67.6837944,34.172561 67.6837944,34.3280789 C67.6837944,34.8523924 67.8124727,34.8328128 67.8124727,35.4319483 C67.8124727,36.0295454 68.198932,36.8699294 68.198932,37.5974511 C68.198932,39.2958408 68.198932,40.9940906 68.2417776,42.6924803 C67.0223028,48.7211763 72.8075965,46.9385943 76.6560689,46.9385943 C76.7684857,46.9385943 78.0070501,47.015654 78.0298163,47.0234859 C78.5771942,47.2134079 78.3844594,47.4841657 79.7470359,47.7028977 C80.3854784,47.805271 80.7549691,47.6806609 81.1207833,48.0426036 C81.2149589,48.1356066 82.0769624,48.139103 83.095501,49.146473 C84.6205515,50.6545211 85.7571631,51.2648449 85.7571631,53.7320132 C85.7571631,54.866231 84.297583,55.9534577 84.297583,57.2985756 C83.8917513,57.2985756 84.7036975,59.0162652 85.2420255,59.0818568 C85.5451973,59.1187783 87.8742754,59.7407101 87.9895203,60.0159432 C88.3752725,60.9370231 87.0773181,62.9030938 89.3632677,62.9030938 C89.6384414,62.9030938 90.3077102,62.7542889 90.3077102,62.4786362 C90.7340456,62.4786362 90.9464356,62.2238218 91.8532644,62.2238218 C92.0724418,62.2238218 92.9693723,62.1039667 92.9693723,62.3936048 C93.1321292,62.5010129 93.8457991,63.158048 93.9566605,63.158048 C94.3289792,63.158048 94.4163674,63.83732 95.7167257,63.83732 C96.3209483,63.83732 97.8642401,63.7715885 98.3355422,63.9647272 C98.6002519,64.0731142 99.5985696,63.9031913 99.880955,63.83732 C100.067326,63.7938253 100.22273,63.6250213 100.481925,63.6250213 C100.908685,63.6250213 100.949834,63.327831 101.297689,63.327831 C101.393703,63.327831 101.306315,63.2186049 101.684007,63.158048 C102.026065,63.1030853 101.516018,63.0306408 102.199145,63.0306408 C102.199145,62.9096669 102.836739,62.9147017 102.971922,62.8182022 C103.058462,62.7566664 103.462879,62.521012 103.572892,62.521012 C103.572892,62.3562637 103.794898,62.181446 103.959352,62.181446 C104.329408,62.181446 103.912829,62.0115231 104.388656,62.0115231 C104.68094,62.0115231 105.072207,61.6294413 105.333099,61.6294413 C105.333099,61.6255254 105.87779,60.9995379 105.934069,60.865138 C106.098947,60.4715882 106.48979,60.5276698 106.835666,60.1857262 C107.061631,59.962379 107.232872,60.0760805 107.307958,59.7612686 C107.321392,59.7047675 107.579031,59.4796022 107.651289,59.3366712 C108.108309,59.3366712 107.987408,59.0818568 108.424066,59.0818568 C108.97809,59.0818568 109.322411,58.8695581 109.883646,58.8695581 C111.366841,58.8695581 112.174403,57.9435833 113.317944,57.1287926 C113.427391,57.0507539 113.769449,56.4493808 113.833223,56.4493808 C113.833223,55.9563946 114.142192,55.6234017 113.919056,55.090697 C113.915945,55.0834246 113.955397,54.8783983 113.790236,54.8783983 C113.790236,54.6261013 113.146278,53.9574582 113.146278,53.7320132 C113.113897,53.7320132 112.545308,52.896664 112.545308,52.755551 C112.545308,52.7429642 112.287669,52.3358485 112.287669,52.1186549 C112.287669,51.6645482 111.987184,51.6314028 111.987184,51.4392431 C112.228137,51.4392431 111.963569,49.9741303 111.901351,49.8257449 C111.817074,49.6249143 111.944338,48.8910992 111.944338,48.6794997 C112.058452,48.6794997 112.060997,48.4790886 112.244682,48.2972781 C112.247085,48.2949006 112.758688,47.6634588 112.759961,47.660382 C112.831653,47.4893403 112.876054,45.5898402 112.802806,45.2827203 C112.765334,45.1255242 112.646271,44.3209429 112.588154,44.2636026"/>
    <path fill="#0085CC" d="M102.815538,37.744671 C103.400456,37.5046906 104.89724,34.6417212 103.251855,34.114789 C102.623392,33.9136667 100.983038,34.1905124 100.983038,33.1641192 C100.101207,33.1641192 101.570111,32.1270508 98.7142207,32.1270508 C97.4871883,32.1270508 98.2043225,32.2016354 97.7543531,32.3862467 C97.0988723,32.6551216 97.4006723,30.4030632 97.8415877,29.9663728 C98.0236736,29.7860317 98.3651387,29.2378913 98.3651387,29.015703 C99.565584,28.619294 98.8955881,27.4282168 98.3214496,27.200762 C97.5601951,26.8991496 97.7651317,27.297836 96.9689546,26.5092881 C95.5571056,25.110968 95.3109231,27.3339896 95.3109231,24.9536854 C95.3109231,24.1144656 95.7465211,23.5703107 94.9618411,22.7930075 C93.6434065,21.4866372 93.9528233,22.1880746 93.3039534,22.1880746 C93.3039534,22.5228516 92.4971415,22.5977209 92.2568512,23.3115418 C91.8488464,23.3115418 92.0598189,24.0894143 90.2497377,24.0894143 C89.7989061,24.0894143 88.9093147,24.5508713 88.6790845,24.8672868 C88.2743851,25.4232557 87.7124623,25.2128814 86.8465839,25.2128814 C86.1162279,25.2128814 86.2452834,24.3624169 85.0140832,24.8672868 C85.0037358,24.8714146 84.6650013,24.7732019 84.6650013,25.1264827 C84.2820027,25.1264827 84.5389639,26.4228895 83.8796028,26.4228895 C83.2607692,26.4228895 81.6981639,26.2774209 81.6981639,26.9414237 C81.6981639,28.1353477 82.0472459,27.8027058 82.0472459,29.3614399 C82.0472459,30.3636358 81.9618796,29.8274518 82.3089496,30.6578467 C82.4338373,30.9567547 82.0049939,31.2627796 83.0942043,31.2627796 C83.8389317,31.2627796 83.3152369,32.0175935 82.7452661,32.2998481 C82.7452661,32.9409346 81,33.5329148 81,35.6705341 C81,37.5100994 81.5441022,36.923528 81.9598676,37.9176107 C82.1725647,38.4258966 83.6087014,37.8310697 83.9669811,37.8310697 C85.2930326,37.8310697 85.0891021,37.1260738 85.8867163,37.3125354 C86.5732393,37.4729494 86.2201334,37.2104797 86.9338184,37.9176107 C87.098515,38.0805867 88.766319,38.675129 88.766319,37.9176107 C88.766319,37.4823437 88.942369,37.480778 89.115401,36.9667985 C90.1136403,37.5848264 89.8060918,37.4315293 90.5988197,37.9176107 C93.5589025,39.73184 93.4062779,37.8081534 94.4384338,37.9176107 C97.4827331,38.2401466 97.3864446,38.9639311 98.6269861,38.3496039 C98.6269861,37.8445917 99.4994755,38.4490976 99.4994755,38.7817395 C99.4994755,38.7860096 99.5938957,39.3039745 99.7176337,39.6892812 C100.736424,42.8588448 101.360288,39.3636138 102.226454,38.738469 C102.628279,38.4485282 102.051122,38.0582398 102.815538,37.744671"/>
    <polyline fill="#E3181C" points="30 22 25.253 22 19.154 40.898 13.133 22 8 22 16.298 46 21.702 46 30 22"/>
    <polygon fill="#E3181C" points="33 46 38 46 38 22 33 22"/>
    <path fill="#E3181C" d="M63,46 L54.3461775,22 L48.5768682,22 L40,46 L44.7691863,46 L46.5384279,40.7464118 L56.076942,40.7464118 L57.8460422,46 L63,46 Z M54.8845747,37.0046916 L47.6923181,37.0046916 L51.3076142,26.422033 L54.8845747,37.0046916 Z"/>
    <path fill="#626362" d="M16 54L16 50 18.0153199 50C18.4206969 50 18.7287474 50.0363336 18.9394713 50.1079438 19.1500451 50.1796862 19.3182637 50.3063914 19.4442776 50.4879273 19.5702914 50.6694633 19.6327726 50.8705533 19.6327726 51.0902725 19.6327726 51.3743353 19.5279363 51.6136086 19.3194653 51.8082246 19.1108441 52.0028406 18.7891259 52.1257143 18.3529588 52.1788274 18.5129168 52.2458134 18.6335236 52.3127993 18.716131 52.3780677 18.8917092 52.5195706 19.0579754 52.6974071 19.2135777 52.9106524L20 54 19.2484229 54 18.6473415 53.1676301C18.4726645 52.9263749 18.3275758 52.7429893 18.2143286 52.6154913 18.10003 52.4878613 17.998498 52.3994715 17.9085311 52.3482081 17.8196155 52.2980017 17.7275458 52.2625929 17.6342746 52.242114 17.5665365 52.2299587 17.455392 52.2234847 17.2997897 52.2234847L16.6033343 52.2234847 16.6033343 54 16 54zM16.6033343 51.7652849L17.8947131 51.7652849C18.1698708 51.7652849 18.3837489 51.7401817 18.5382998 51.6899752 18.6928507 51.6405615 18.8103034 51.5604955 18.8896065 51.4496449 18.9701111 51.3398514 19.0103635 51.2206771 19.0103635 51.0911974 19.0103635 50.9022626 18.9330129 50.7458299 18.7774106 50.623749 18.6218084 50.5019323 18.3763893 50.4412882 18.0408531 50.4412882L16.6033343 50.4412882 16.6033343 51.7652849zM22.4088948 53.0073443L22.9811096 53.0739672C22.8920125 53.3669508 22.7254202 53.5951475 22.4822252 53.7569836 22.2390302 53.9186885 21.928752 54 21.5503495 54 21.0745203 54 20.6970103 53.8705574 20.4182657 53.6118033 20.1393723 53.3539672 20 52.9906885 20 52.5240656 20 52.0415738 20.1404135 51.6663607 20.4224305 51.4001311 20.7044474 51.1331148 21.0702068 51 21.5200059 51 21.9549308 51 22.3102781 51.1302295 22.5860479 51.3918689 22.8616689 51.653377 23 52.0212459 23 52.4953443 23 52.5240656 22.9989588 52.5674754 22.9968764 52.6247869L20.5661163 52.6247869C20.5869404 52.9399344 20.6876394 53.1820328 20.8699985 53.349377 21.0513164 53.5165902 21.2788934 53.6007869 21.5503495 53.6007869 21.7526402 53.6007869 21.9256284 53.5535738 22.0681243 53.4592787 22.2118102 53.3651148 22.3250037 53.2144262 22.4088948 53.0073443zM20.5975011 52.2254426L22.415142 52.2254426C22.3910457 51.9833443 22.3208389 51.8022295 22.2066042 51.6810492 22.0315335 51.4935082 21.8029154 51.3992131 21.5231296 51.3992131 21.2693738 51.3992131 21.0566711 51.4740984 20.8836829 51.6238689 20.7117358 51.7735082 20.6163915 51.9740328 20.5975011 52.2254426zM23.1181432 54.0973185L23.6762575 54.1621337C23.6992341 54.3045479 23.7647485 54.4080987 23.8720244 54.4739365 24.0153177 54.5613794 24.2112399 54.6054844 24.4594804 54.6054844 24.7265059 54.6054844 24.9332954 54.5613794 25.0787622 54.4739365 25.2242289 54.3864937 25.322811 54.2631276 25.3741979 54.1055003 25.4036949 54.0091086 25.4179776 53.8063537 25.4158042 53.4973633 25.1630615 53.7424334 24.8489961 53.8649046 24.4726765 53.8649046 24.0044504 53.8649046 23.6411716 53.7261977 23.3851687 53.4477612 23.1280791 53.1703474 23 52.8369395 23 52.448688 23 52.181118 23.0591492 51.934258 23.1762058 51.7081083 23.2932623 51.4819585 23.4640344 51.3080955 23.6871248 51.1846016 23.9103705 51.0612356 24.1728938 51 24.4748499 51 24.8763196 51 25.207928 51.1351274 25.4682778 51.4053821L25.4682778 51.0594458 26 51.0594458 26 53.4820224C26 53.9189811 25.9464397 54.2279715 25.838077 54.4100163 25.7308011 54.5919333 25.5590975 54.7361373 25.3260712 54.8414778 25.0919582 54.9469462 24.8041296 55 24.4628959 55 24.056924 55 23.7298178 54.9253412 23.4803353 54.774873 23.2297661 54.6252996 23.1094494 54.3991499 23.1181432 54.0973185zM23.5908715 52.4144268C23.5908715 52.7810732 23.6795177 53.0486433 23.8566549 53.217137 24.0350342 53.3856307 24.2571931 53.4702611 24.5240633 53.4702611 24.7900021 53.4702611 25.0120058 53.3865256 25.1925585 53.2189268 25.3720244 53.0513279 25.4617574 52.7883601 25.4617574 52.4297676 25.4617574 52.0874109 25.3687642 51.8287897 25.1838646 51.6549267 24.998965 51.4810636 24.7757193 51.3945156 24.5153695 51.3945156 24.2582799 51.3945156 24.0404678 51.4801687 23.8599151 51.6513471 23.6806044 51.8225255 23.5908715 52.0765445 23.5908715 52.4144268zM27 50.5586127L28 50.5586127 28 50 27 50 27 50.5586127zM27 54L28 54 28 51.100578 27 51.100578 27 54zM28 52.4999344C28 51.9685246 28.1645336 51.5748197 28.4947686 51.3188197 28.7695265 51.1062295 29.1058932 51 29.5021169 51 29.9414083 51 30.3014259 51.1293115 30.5812935 51.3880656 30.8601392 51.6460328 31 52.0036721 31 52.4592787 31 52.8289836 30.9382452 53.1192131 30.8148815 53.3308852 30.6913718 53.5425574 30.5113631 53.7070164 30.2747092 53.8243934 30.0390773 53.9417705 29.7808166 54 29.5021169 54 29.0534819 54 28.6912745 53.8714754 28.4146187 53.6136393 28.1378169 53.3558033 28 52.9842623 28 52.4999344zM28.5555015 52.5008525C28.5555015 52.8687213 28.6449949 53.1441311 28.8239817 53.3262951 29.0041365 53.5092459 29.2294029 53.6007869 29.5021169 53.6007869 29.7716191 53.6007869 29.9958635 53.5092459 30.1758723 53.325377 30.3550051 53.141377 30.4444985 52.861377 30.4444985 52.4851148 30.4444985 52.1303607 30.3539832 51.861377 30.1738284 51.6792131 29.9938197 51.4962623 29.7695752 51.4047213 29.5021169 51.4047213 29.2294029 51.4047213 29.0041365 51.4953443 28.8239817 51.677377 28.6449949 51.859541 28.5555015 52.1340328 28.5555015 52.5008525zM31 54L31 51.062249 31.5628897 51.062249 31.5628897 51.4792503C31.8337172 51.1594378 32.2255491 51 32.7375428 51 32.9608449 51 33.1651031 51.0319946 33.3514971 51.0951807 33.5380597 51.1585007 33.678108 51.2424364 33.7707994 51.3452477 33.8634908 51.4480589 33.9287119 51.5706827 33.9656199 51.7121821 33.9882029 51.8046854 34 51.9659973 34 52.1961178L34 54 33.3729004 54 33.3729004 52.2151272C33.3729004 52.0121821 33.3491377 51.8603748 33.3004326 51.7603748 33.2517274 51.6603748 33.1651031 51.5801874 33.0415707 51.5198126 32.9180383 51.4603748 32.7719229 51.4301205 32.605584 51.4301205 32.3396438 51.4301205 32.1104432 51.4970549 31.9168024 51.6319946 31.7231616 51.7659973 31.6270996 52.0216867 31.6270996 52.3971888L31.6270996 54 31 54M37.316016 53.5784918C37.1108802 53.7328525 36.9131661 53.8410492 36.7239127 53.9047869 36.5345109 53.9686557 36.3316016 54 36.1139973 54 35.7562713 54 35.4812231 53.9232787 35.2887042 53.768918 35.0961852 53.6156066 35 53.418623 35 53.1792787 35 53.0388197 35.0366632 52.9102951 35.1088021 52.7938361 35.1819801 52.6775082 35.2771263 52.5850492 35.3943892 52.5147541 35.5125427 52.444459 35.6443521 52.3909508 35.7918955 52.3548852 35.9005492 52.3299672 36.0648657 52.3058361 36.283509 52.2818361 36.7291079 52.2356721 37.0586314 52.1792787 37.268814 52.114623 37.2710405 52.048 37.2719311 52.0055082 37.2719311 51.9879344 37.2719311 51.7901639 37.2196824 51.650623 37.1150364 51.5693115 36.9738756 51.4592787 36.763693 51.4047213 36.4853792 51.4047213 36.2248775 51.4047213 36.0325071 51.4455082 35.9090099 51.5257705 35.7844738 51.6062951 35.6934837 51.7485902 35.6339617 51.9537049L35.0941072 51.8872131C35.1432388 51.6830164 35.2238385 51.5175082 35.3367968 51.3918689 35.4497551 51.2660984 35.6130325 51.1699672 35.8263322 51.1016393 36.0387413 51.0340984 36.2866261 51 36.567018 51 36.8451833 51 37.0722874 51.0285902 37.2468458 51.0868197 37.4205136 51.1450492 37.5492059 51.2171803 37.6308446 51.304918 37.7123349 51.3927869 37.7699273 51.5036066 37.8034734 51.6376393 37.8212854 51.7207869 37.8306368 51.8705574 37.8306368 52.0859016L37.8306368 52.7328525C37.8306368 53.1847869 37.8420662 53.4704262 37.8650735 53.5914754 37.8870417 53.7125246 37.9332047 53.8280656 38 53.9390164L37.4225917 53.9390164C37.3672258 53.836459 37.3316016 53.7161967 37.316016 53.5784918zM37.2719311 52.4971803C37.0710999 52.5693115 36.7699273 52.6302951 36.3682648 52.6802623 36.1402701 52.7088525 35.9790708 52.7412459 35.8849636 52.7773115 35.7908565 52.8132459 35.7187175 52.8659672 35.6673594 52.9344262 35.6161496 53.0036721 35.5900252 53.0803934 35.5900252 53.165377 35.5900252 53.2939016 35.6453911 53.4020984 35.7573104 53.488 35.8692296 53.5739016 36.0325071 53.6173115 36.2468458 53.6173115 36.4592549 53.6173115 36.6485082 53.5766557 36.8149028 53.4944262 36.9801098 53.4131148 37.1025679 53.3012459 37.1800505 53.1598689 37.2395725 53.0499672 37.268814 52.8881311 37.268814 52.674623L37.2719311 52.4971803z"/>
    <polygon fill="#626362" points="38 54 39 54 39 50 38 50"/>
    <path fill="#626362" d="M40.231593 54L39 51 39.5922951 51 40.2903466 52.7967191C40.3657593 52.9902939 40.4361148 53.191661 40.4999256 53.4006835 40.5493083 53.2427888 40.6174327 53.052905 40.7065298 52.8304853L41.43195 51 42 51 40.7640934 54 40.231593 54M44.4087461 53.0073443L44.9811096 53.0739672C44.8920125 53.3669508 44.7252715 53.5951475 44.4820765 53.7569836 44.2390302 53.9186885 43.928752 54 43.5503495 54 43.0743716 54 42.6970103 53.8705574 42.4182657 53.6118033 42.1393723 53.3539672 42 52.9906885 42 52.5240656 42 52.0415738 42.1404135 51.6663607 42.4224305 51.4001311 42.7042987 51.1331148 43.0702068 51 43.5198572 51 43.9549308 51 44.3102781 51.1302295 44.5858992 51.3918689 44.8616689 51.653377 45 52.0212459 45 52.4953443 45 52.5240656 44.9989588 52.5674754 44.9968764 52.6247869L42.5659676 52.6247869C42.5869404 52.9399344 42.6876394 53.1820328 42.8699985 53.349377 43.0513164 53.5165902 43.2787446 53.6007869 43.5503495 53.6007869 43.7526402 53.6007869 43.9254797 53.5535738 44.0681243 53.4592787 44.2116615 53.3651148 44.324855 53.2144262 44.4087461 53.0073443zM42.5975011 52.2254426L44.4149933 52.2254426C44.3908969 51.9833443 44.3206902 51.8022295 44.2064555 51.6810492 44.0313848 51.4935082 43.8029154 51.3992131 43.5229808 51.3992131 43.2693738 51.3992131 43.0565224 51.4740984 42.8835341 51.6238689 42.7117358 51.7735082 42.6163915 51.9740328 42.5975011 52.2254426zM46 54L46 51.062249 46.5603824 51.062249 46.5603824 51.5121821C46.7032875 51.3037483 46.8357934 51.1659973 46.9575646 51.1 47.0793358 51.0329317 47.212848 51 47.358269 51 47.5686011 51 47.7824556 51.0527443 48 51.1574297L47.7777591 51.6170013C47.6264676 51.548996 47.4751761 51.5151272 47.3238846 51.5151272 47.1880242 51.5151272 47.0662529 51.5480589 46.9587387 51.6131191 46.8510567 51.6783133 46.7742368 51.7688086 46.7281114 51.8848728 46.6585039 52.0613119 46.6241194 52.2547523 46.6241194 52.4650602L46.6241194 54 46 54M48.5466155 53.9394925L48 53.9394925 48 50 48.5866618 50 48.5866618 51.4057254C48.834507 51.1508133 49.1499895 51.0234223 49.5343704 51.0234223 49.746584 51.0234223 49.9488648 51.0581653 50.138848 51.1288224 50.3288312 51.1994795 50.4842863 51.2994144 50.607736 51.4268055 50.7299243 51.5552375 50.8265714 51.7093038 50.8954698 51.8899154 50.9654719 52.0697463 51 52.2632401 51 52.4685751 51 52.9564086 50.8532163 53.3342876 50.5610679 53.6001301 50.2676582 53.8670137 49.916544 54 49.5066218 54 49.0989069 54 48.7788522 53.8597267 48.5466155 53.579961L48.5466155 53.9394925zM48.5399937 52.490566C48.5399937 52.8317502 48.5965945 53.0783344 48.7088501 53.2305791 48.8933151 53.4791152 49.1421064 53.6039037 49.4566428 53.6039037 49.7133172 53.6039037 49.9343599 53.5121666 50.1199285 53.3286923 50.3066008 53.1453481 50.3999369 52.8720885 50.3999369 52.5089135 50.3999369 52.1366298 50.3110153 51.8624593 50.1320685 51.6854912 49.9532794 51.5085231 49.7366513 51.4195185 49.4832878 51.4195185 49.2266134 51.4195185 49.0055707 51.5112557 48.8200021 51.6945999 48.6333298 51.8780742 48.5399937 52.1430059 48.5399937 52.490566zM53.3159014 53.5784918C53.1109242 53.7328525 52.9132199 53.8410492 52.7238274 53.9047869 52.5345834 53.9686557 52.3316841 54 52.1140906 54 51.7563823 54 51.4811993 53.9232787 51.2888383 53.768918 51.0963289 53.6156066 51 53.418623 51 53.1792787 51 53.0388197 51.0366614 52.9102951 51.1089452 52.7938361 51.1821195 52.6775082 51.277261 52.5850492 51.3943697 52.5147541 51.5126657 52.444459 51.6443202 52.3909508 51.7918563 52.3548852 51.9006531 52.3299672 52.0649614 52.3058361 52.2835939 52.2818361 52.7291708 52.2356721 53.058678 52.1792787 53.2688502 52.114623 53.2709282 52.048 53.2719671 52.0055082 53.2719671 51.9879344 53.2719671 51.7901639 53.219721 51.650623 53.1150802 51.5693115 52.9739264 51.4592787 52.7636058 51.4047213 52.4854542 51.4047213 52.2249654 51.4047213 52.032456 51.4455082 51.908965 51.5257705 51.7845834 51.6062951 51.6935979 51.7485902 51.6339303 51.9537049L51.0942509 51.8872131C51.1433802 51.6830164 51.2239759 51.5175082 51.3369286 51.3918689 51.4498813 51.2660984 51.6130022 51.1699672 51.8264397 51.1016393 52.0386899 51.0340984 52.2867109 51 52.5669404 51 52.8452405 51 53.0721848 51.0285902 53.246883 51.0868197 53.4205423 51.1450492 53.5492282 51.2171803 53.6307144 51.304918 53.7123491 51.3927869 53.7699387 51.5036066 53.8033347 51.6376393 53.8211459 51.7207869 53.8304967 51.8705574 53.8304967 52.0859016L53.8304967 52.7328525C53.8304967 53.1847869 53.842074 53.4704262 53.8650802 53.5914754 53.8870473 53.7125246 53.9330596 53.8280656 54 53.9390164L53.4226202 53.9390164C53.3671086 53.836459 53.3316347 53.7161967 53.3159014 53.5784918zM53.2719671 52.4971803C53.0711459 52.5693115 52.7698397 52.6302951 52.3681971 52.6802623 52.1402137 52.7088525 51.9791708 52.7412459 51.8850683 52.7773115 51.7908173 52.8132459 51.718682 52.8659672 51.6674748 52.9344262 51.6161191 53.0036721 51.589996 53.0803934 51.589996 53.165377 51.589996 53.2939016 51.6455076 53.4020984 51.7574213 53.488 51.869335 53.5739016 52.032456 53.6173115 52.2469325 53.6173115 52.4591827 53.6173115 52.6485751 53.5766557 52.814813 53.4944262 52.9801603 53.4131148 53.1024639 53.3012459 53.1799426 53.1598689 53.2396101 53.0499672 53.2688502 52.8881311 53.2688502 52.674623L53.2719671 52.4971803zM54 54L54 51.062249 54.5628897 51.062249 54.5628897 51.4792503C54.8337172 51.1594378 55.2257177 51 55.7375428 51 55.9608449 51 56.1651031 51.0319946 56.3514971 51.0951807 56.5380597 51.1585007 56.678108 51.2424364 56.7707994 51.3452477 56.8634908 51.4480589 56.9287119 51.5706827 56.9656199 51.7121821 56.9882029 51.8046854 57 51.9659973 57 52.1961178L57 54 56.3729004 54 56.3729004 52.2151272C56.3729004 52.0121821 56.3491377 51.8603748 56.3004326 51.7603748 56.2517274 51.6603748 56.1651031 51.5801874 56.0415707 51.5198126 55.9180383 51.4603748 55.7719229 51.4301205 55.6057525 51.4301205 55.3396438 51.4301205 55.1104432 51.4970549 54.9168024 51.6319946 54.7231616 51.7659973 54.6270996 52.0216867 54.6270996 52.3971888L54.6270996 54 54 54M59.4533845 53.9394925L59.4533845 53.5772284C59.2343914 53.8588159 58.9122872 54 58.4867564 54 58.2111625 54 57.957799 53.9376708 57.7277696 53.8119714 57.4966365 53.6873129 57.3178474 53.5121666 57.1899832 53.2884841 57.0633803 53.0637606 57 52.8061158 57 52.5145088 57 52.2301887 57.0578621 51.9725439 57.172325 51.7405335 57.2878915 51.509434 57.4600589 51.331555 57.6899306 51.2085882 57.9188564 51.0848406 58.1766344 51.0234223 58.4599538 51.0234223 58.6688564 51.0234223 58.8544251 51.0601171 59.0166597 51.1324658 59.1788943 51.2049447 59.311173 51.3003253 59.4133382 51.4167859L59.4133382 50 60 50 60 53.9394925 59.4533845 53.9394925zM57.6000631 52.5154196C57.6000631 52.8802863 57.6933992 53.152635 57.8811751 53.3333767 58.0678474 53.5139883 58.2888901 53.6039037 58.5433572 53.6039037 58.8000315 53.6039037 59.0177633 53.5176318 59.1978137 53.345218 59.3766029 53.1728042 59.4666281 52.9096942 59.4666281 52.555758 59.4666281 52.1668185 59.3754993 51.8808068 59.1922956 51.6982433 59.0100378 51.51581 58.784423 51.4249837 58.5167122 51.4249837 58.2556233 51.4249837 58.0377339 51.5121666 57.8622556 51.6873129 57.687881 51.8624593 57.6000631 52.1384515 57.6000631 52.5154196zM16 61L16 57 17.4898361 57C17.792918 57 18.0360656 57.040033 18.2199344 57.1210239 18.4028852 57.2020149 18.5462295 57.3268704 18.6497049 57.4953262 18.7540984 57.6629893 18.8059016 57.8388439 18.8059016 58.0232865 18.8059016 58.1935921 18.7597377 58.3547812 18.6681967 58.5055326 18.5766557 58.6564162 18.4380328 58.778365 18.2523279 58.8715111 18.4925902 58.9423287 18.6775082 59.0633526 18.8059016 59.234583 18.9353443 59.4050206 19 59.6070355 19 59.8398348 19 60.0279769 18.9602623 60.2019818 18.8817049 60.3631709 18.8031475 60.5242279 18.7060984 60.6480264 18.5905574 60.7354913 18.4750164 60.8221635 18.3299672 60.8882246 18.1561967 60.933014 17.9815082 60.9776713 17.768 61 17.5147541 61L16 61zM16.5268197 58.6815194L17.3853115 58.6815194C17.6182295 58.6815194 17.7855738 58.6656647 17.8862951 58.6350124 18.0203279 58.5949794 18.1210492 58.5279934 18.188459 58.4348472 18.256 58.3417011 18.2902295 58.2253014 18.2902295 58.0847234 18.2902295 57.9515442 18.2587541 57.8342197 18.1950164 57.7336746 18.1321967 57.6322048 18.0415738 57.5624443 17.9241967 57.5251858 17.8068197 57.4879273 17.605377 57.4692981 17.3206557 57.4692981L16.5268197 57.4692981 16.5268197 58.6815194zM16.5268197 60.5307019L17.5156721 60.5307019C17.6857705 60.5307019 17.8049836 60.5242279 17.8743607 60.5111478 17.9944918 60.489744 18.0961311 60.4534104 18.1774426 60.4022791 18.2587541 60.3510157 18.325377 60.2764988 18.3779672 60.1787283 18.4306885 60.0809579 18.4565246 59.9683898 18.4565246 59.8407597 18.4565246 59.690801 18.418623 59.5614533 18.3419016 59.4506028 18.2662295 59.3398844 18.1607869 59.2625929 18.0258361 59.2179356 17.8918033 59.1731462 17.6977049 59.1508175 17.445377 59.1508175L16.5268197 59.1508175 16.5268197 60.5307019zM22.4087754 60.0073877L22.9811106 60.0740077C22.8920178 60.3669785 22.7252851 60.5951652 22.4821021 60.7568631 22.2389192 60.9186921 21.9286564 61 21.5502727 61 21.074467 61 20.6971244 60.870563 20.4182449 60.6118202 20.1395141 60.3539955 20 59.9907326 20 59.5241301 20 59.0416594 20.1405553 58.6664627 20.4224095 58.4002448 20.7044125 58.1332401 21.0703024 58 21.5199306 58 21.9548339 58 22.3103123 58.130355 22.5859197 58.3919829 22.861527 58.6534796 23 59.0213324 23 59.49541 23 59.5241301 22.9989588 59.567538 22.9967278 59.624847L20.5660882 59.624847C20.58706 59.9399808 20.6876054 60.1820685 20.8701041 60.3494055 21.051413 60.5166113 21.2788299 60.6008043 21.5502727 60.6008043 21.7525533 60.6008043 21.925533 60.5535933 22.0681706 60.4593023 22.2117005 60.3651425 22.3248884 60.2144606 22.4087754 60.0073877zM20.5974715 59.2255202L22.4150223 59.2255202C22.3909271 58.9834324 22.3207238 58.8023256 22.2064948 58.6811506 22.0314328 58.4936178 21.8029747 58.3993268 21.523054 58.3993268 21.2694596 58.3993268 21.0566187 58.4742088 20.8836391 58.6239727 20.7118493 58.7736055 20.6163609 58.9741213 20.5974715 59.2255202zM23 61L23 58.0623801 23.5603824 58.0623801 23.5603824 58.5122931C23.7032875 58.3038686 23.8357934 58.1661238 23.9573968 58.1001294 24.0791681 58.0330641 24.212848 58 24.3581013 58 24.5686011 58 24.7824556 58.0528758 25 58.1575566L24.7777591 58.6171077C24.6264676 58.5491054 24.4751761 58.5152381 24.3238846 58.5152381 24.1880242 58.5152381 24.0662529 58.5481683 23.9585709 58.6132256 23.8510567 58.6784168 23.7742368 58.7689081 23.7281114 58.8849672 23.6585039 59.0613984 23.6241194 59.2548302 23.6241194 59.4651287L23.6241194 61 23 61"/>
    <polygon fill="#626362" points="25 61 26 61 26 57 25 57"/>
    <path fill="#626362" d="M27 57.5586127L28 57.5586127 28 57 27 57 27 57.5586127zM27 61L28 61 28 58.100578 27 58.100578 27 61zM28 61L28 58.0623801 28.5628897 58.0623801 28.5628897 58.4793628C28.8337172 58.1595645 29.2257177 58 29.7375428 58 29.9608449 58 30.1651031 58.0321271 30.3516656 58.0953103 30.5380597 58.1586275 30.6782765 58.2425595 30.7707994 58.3453661 30.8634908 58.4481728 30.9288804 58.5707911 30.9656199 58.7122841 30.9882029 58.8047834 31 58.9660881 31 59.1961983L31 61 30.3730689 61 30.3730689 59.2152068C30.3730689 59.0122708 30.3491377 58.8604703 30.3006011 58.7604748 30.251896 58.6604792 30.1651031 58.5802954 30.0415707 58.5199233 29.9180383 58.4604882 29.7720915 58.4302352 29.6057525 58.4302352 29.3396438 58.4302352 29.1104432 58.4971666 28.916971 58.6321003 28.7233301 58.766097 28.6270996 59.021775 28.6270996 59.3972603L28.6270996 61 28 61"/>
    <polyline fill="#626362" points="31 61 32.492 57 33 57 31.508 61 31 61"/>
    <path fill="#626362" d="M33 61L33 57 34.4898361 57C34.792918 57 35.0360656 57.040033 35.2199344 57.1210239 35.4028852 57.2020149 35.5462295 57.3268704 35.6497049 57.4953262 35.7540984 57.6629893 35.8059016 57.8388439 35.8059016 58.0232865 35.8059016 58.1935921 35.7597377 58.3547812 35.6681967 58.5055326 35.5766557 58.6564162 35.4380328 58.778365 35.2523279 58.8715111 35.4925902 58.9423287 35.6775082 59.0633526 35.8059016 59.234583 35.9353443 59.4050206 36 59.6070355 36 59.8398348 36 60.0279769 35.9602623 60.2019818 35.8817049 60.3631709 35.8031475 60.5242279 35.7060984 60.6480264 35.5905574 60.7354913 35.4750164 60.8221635 35.3299672 60.8882246 35.1561967 60.933014 34.9815082 60.9776713 34.768 61 34.5147541 61L33 61zM33.5268197 58.6815194L34.3853115 58.6815194C34.6182295 58.6815194 34.7855738 58.6656647 34.8862951 58.6350124 35.0203279 58.5949794 35.1210492 58.5279934 35.188459 58.4348472 35.256 58.3417011 35.2902295 58.2253014 35.2902295 58.0847234 35.2902295 57.9515442 35.2587541 57.8342197 35.1950164 57.7336746 35.1321967 57.6322048 35.0415738 57.5624443 34.9241967 57.5251858 34.8068197 57.4879273 34.605377 57.4692981 34.3206557 57.4692981L33.5268197 57.4692981 33.5268197 58.6815194zM33.5268197 60.5307019L34.5156721 60.5307019C34.6857705 60.5307019 34.8049836 60.5242279 34.8743607 60.5111478 34.9944918 60.489744 35.0961311 60.4534104 35.1774426 60.4022791 35.2587541 60.3510157 35.325377 60.2764988 35.3779672 60.1787283 35.4306885 60.0809579 35.4565246 59.9683898 35.4565246 59.8407597 35.4565246 59.690801 35.418623 59.5614533 35.3419016 59.4506028 35.2662295 59.3398844 35.1607869 59.2625929 35.0258361 59.2179356 34.8918033 59.1731462 34.6977049 59.1508175 34.4455082 59.1508175L33.5268197 59.1508175 33.5268197 60.5307019zM37 61L37 58.0623801 37.5603824 58.0623801 37.5603824 58.5122931C37.7032875 58.3038686 37.8357934 58.1661238 37.9575646 58.1001294 38.0793358 58.0330641 38.212848 58 38.358269 58 38.5686011 58 38.7826233 58.0528758 39 58.1575566L38.7779269 58.6171077C38.6264676 58.5491054 38.4753438 58.5152381 38.3238846 58.5152381 38.1880242 58.5152381 38.0662529 58.5481683 37.9587387 58.6132256 37.8510567 58.6784168 37.7742368 58.7689081 37.7281114 58.8849672 37.6585039 59.0613984 37.6242872 59.2548302 37.6242872 59.4651287L37.6242872 61 37 61M41.3158676 60.5785102C41.1108802 60.7328641 40.9131661 60.8410561 40.7239127 60.904791 40.5345109 60.9686571 40.3316016 61 40.1139973 61 39.7562713 61 39.4810747 60.923282 39.2887042 60.7689281 39.0961852 60.6154922 39 60.4186484 39 60.1793146 39 60.0388617 39.0365148 59.9103427 39.1088021 59.7938888 39.1819801 59.677566 39.2771263 59.585111 39.3943892 59.514819 39.5125427 59.444527 39.6443521 59.3910212 39.7918955 59.3549572 39.9005492 59.3300402 40.0648657 59.3059101 40.283509 59.2819112 40.7291079 59.2357493 41.0586314 59.1793583 41.268814 59.1147054 41.2708921 59.0480853 41.2719311 59.0055954 41.2719311 58.9880224 41.2719311 58.7902605 41.2196824 58.6507257 41.1150364 58.5694177 40.9738756 58.4593898 40.7635446 58.4048348 40.4853792 58.4048348 40.2248775 58.4048348 40.0323586 58.4456199 39.9090099 58.5258787 39.7844738 58.6062686 39.6934837 58.7486886 39.6338133 58.9537944L39.0941072 58.8873055C39.1432388 58.6831177 39.2238385 58.5176167 39.3367968 58.3919829 39.4497551 58.2662179 39.6130325 58.1700909 39.8263322 58.101766 40.0387413 58.034228 40.2866261 58 40.567018 58 40.8451833 58 41.0721389 58.0287201 41.2468458 58.086947 41.4205136 58.145174 41.5492059 58.217302 41.6308446 58.3050358 41.7123349 58.3929009 41.7699273 58.5037157 41.8033249 58.6377426 41.821137 58.7208865 41.8306368 58.8706505 41.8306368 59.0859853L41.8306368 59.7329079C41.8306368 60.1848225 41.8420662 60.4704494 41.8650735 60.5914933 41.8870417 60.7125372 41.9330563 60.8280731 42 60.9390191L41.4225917 60.9390191C41.3672258 60.8364662 41.3316016 60.7162091 41.3158676 60.5785102zM41.2719311 59.497246C41.0710999 59.569374 40.7699273 59.630355 40.3681164 59.68032 40.1401217 59.7089089 39.9790708 59.7413009 39.8849636 59.7773649 39.790708 59.8132978 39.7185691 59.8660168 39.6673594 59.9344728 39.6161496 60.0037157 39.5898768 60.0804336 39.5898768 60.1654135 39.5898768 60.2939325 39.6453911 60.4021245 39.7573104 60.4880224 39.8692296 60.5739203 40.0323586 60.6173282 40.2468458 60.6173282 40.4592549 60.6173282 40.6485082 60.5766742 40.8149028 60.4944483 40.9801098 60.4131404 41.1025679 60.3012764 41.179902 60.1599056 41.2395725 60.0500087 41.268814 59.8881798 41.268814 59.6746809L41.2719311 59.497246zM42 61L42 58.0623801 42.5628897 58.0623801 42.5628897 58.4793628C42.8337172 58.1595645 43.2257177 58 43.7375428 58 43.9608449 58 44.1651031 58.0321271 44.3516656 58.0953103 44.5380597 58.1586275 44.6782765 58.2425595 44.7707994 58.3453661 44.8634908 58.4481728 44.9288804 58.5707911 44.9656199 58.7122841 44.9882029 58.8047834 45 58.9660881 45 59.1961983L45 61 44.3730689 61 44.3730689 59.2152068C44.3730689 59.0122708 44.3491377 58.8604703 44.3006011 58.7604748 44.251896 58.6604792 44.1651031 58.5802954 44.0415707 58.5199233 43.9180383 58.4604882 43.7720915 58.4302352 43.6057525 58.4302352 43.3396438 58.4302352 43.1104432 58.4971666 42.916971 58.6321003 42.7233301 58.766097 42.6270996 59.021775 42.6270996 59.3972603L42.6270996 61 42 61M47.4533558 60.9394925L47.4533558 60.5772284C47.2343512 60.8588159 46.91223 61 46.4866768 61 46.2110685 61 45.9576917 60.9376708 45.7278079 60.8119714 45.496505 60.6873129 45.3177064 60.5121666 45.1899932 60.2883539 45.0632259 60.0637606 45 59.8061158 45 59.5145088 45 59.2301887 45.0577075 58.9725439 45.1721764 58.7405335 45.287749 58.509434 45.4599254 58.331555 45.6899669 58.2085882 45.9189047 58.0848406 46.1765386 58.0232921 46.4600305 58.0232921 46.6687865 58.0232921 46.8543648 58.0601171 47.016608 58.1324658 47.1788511 58.2049447 47.3111368 58.3003253 47.4133074 58.4167859L47.4133074 57 48 57 48 60.9394925 47.4533558 60.9394925zM45.5999369 59.5154196C45.5999369 59.8802863 45.693278 60.152635 45.8810638 60.3333767 46.0677458 60.5139883 46.2888001 60.6039037 46.5432806 60.6039037 46.7999685 60.6039037 47.0177117 60.5176318 47.1977716 60.345218 47.3767278 60.1728042 47.4666001 59.9096942 47.4666001 59.555758 47.4666001 59.1668185 47.3756241 58.8808068 47.1922531 58.6982433 47.0099858 58.51581 46.7845167 58.4249837 46.5166343 58.4249837 46.2555316 58.4249837 46.0377884 58.5121666 45.8621433 58.6873129 45.6877595 58.8624593 45.5999369 59.1384515 45.5999369 59.5154196zM51.4087754 60.0073877L51.9811106 60.0740077C51.8920178 60.3669785 51.7252851 60.5951652 51.4821021 60.7568631 51.2389192 60.9186921 50.9286564 61 50.5502727 61 50.074467 61 49.6971244 60.870563 49.4182449 60.6118202 49.1395141 60.3539955 49 59.9907326 49 59.5241301 49 59.0416594 49.1405553 58.6664627 49.4224095 58.4002448 49.7044125 58.1332401 50.0703024 58 50.5199306 58 50.9548339 58 51.3103123 58.130355 51.5859197 58.3919829 51.861527 58.6534796 52 59.0213324 52 59.49541 52 59.5241301 51.9989588 59.567538 51.9967278 59.624847L49.5660882 59.624847C49.58706 59.9399808 49.6876054 60.1820685 49.8701041 60.3494055 50.051413 60.5166113 50.2788299 60.6008043 50.5502727 60.6008043 50.7525533 60.6008043 50.925533 60.5535933 51.0681706 60.4593023 51.2117005 60.3651425 51.3248884 60.2144606 51.4087754 60.0073877zM49.5974715 59.2255202L51.4150223 59.2255202C51.3909271 58.9834324 51.3207238 58.8023256 51.2064948 58.6811506 51.0314328 58.4936178 50.8029747 58.3993268 50.523054 58.3993268 50.2694596 58.3993268 50.0566187 58.4742088 49.8836391 58.6239727 49.7117005 58.7736055 49.6163609 58.9741213 49.5974715 59.2255202zM52 61L52 58.0623801 52.5630266 58.0623801 52.5630266 58.4793628C52.8338389 58.1595645 53.2256488 58 53.7376138 58 53.9607347 58 54.16515 58.0321271 54.3515335 58.0953103 54.5379171 58.1586275 54.6781261 58.2425595 54.7708123 58.3453661 54.86333 58.4481728 54.9287159 58.5707911 54.9654533 58.7122841 54.9880351 58.8047834 55 58.9660881 55 59.1961983L55 61 54.3729356 61 54.3729356 59.2152068C54.3729356 59.0122708 54.3491743 58.8604703 54.3004719 58.7604748 54.2517695 58.6604792 54.16515 58.5802954 54.0416245 58.5199233 53.9180991 58.4604882 53.7719919 58.4302352 53.6056623 58.4302352 53.3397371 58.4302352 53.1105494 58.4971666 52.9169194 58.6321003 52.7232895 58.766097 52.6270644 59.021775 52.6270644 59.3972603L52.6270644 61 52 61M55.5466442 60.9394925L55 60.9394925 55 57 55.5866926 57 55.5866926 58.4057254C55.8345509 58.1508133 56.1500499 58.0232921 56.534451 58.0232921 56.7466758 58.0232921 56.9489673 58.0581653 57.1389604 58.1288224 57.3289536 58.1994795 57.4844169 58.2994144 57.607873 58.4268055 57.7300678 58.5552375 57.8267199 58.7093038 57.895622 58.8899154 57.9656278 59.0697463 58 59.2632401 58 59.4685751 58 59.9564086 57.8533663 60.3342876 57.5612025 60.6001301 57.2677774 60.8670137 56.9166448 61 56.506701 61 56.0989646 61 55.7788932 60.8597267 55.5466442 60.579961L55.5466442 60.9394925zM55.5400221 59.490566C55.5400221 59.8317502 55.5966258 60.0783344 55.7088874 60.2305791 55.8933621 60.4791152 56.1421664 60.6039037 56.4567194 60.6039037 56.7134073 60.6039037 56.9344616 60.5121666 57.1200399 60.3286923 57.306722 60.1453481 57.4000631 59.8720885 57.4000631 59.5089135 57.4000631 59.1366298 57.3111368 58.8624593 57.1321806 58.6854912 56.953382 58.5085231 56.7367425 58.4195185 56.4833657 58.4195185 56.2266779 58.4195185 56.0056236 58.5112557 55.8200452 58.6945999 55.6333631 58.8780742 55.5400221 59.1430059 55.5400221 59.490566zM60.4356101 60.937751L60.4356101 60.5009371C60.1475871 60.8340027 59.7570246 61 59.2629089 61 59.0451602 61 58.8416014 60.9669344 58.6522327 60.9009371 58.4630328 60.8340027 58.3224844 60.7508701 58.2309252 60.6508701 58.139197 60.5499331 58.0748353 60.4273092 58.0380089 60.2820616 58.0130075 60.1839357 58 60.0291834 58 59.8179384L58 58 58.6284138 58 58.6284138 59.6254351C58.6284138 59.8848728 58.6415902 60.0603748 58.6665916 60.1499331 58.705783 60.2811245 58.7892336 60.3829987 58.9177882 60.4575636 59.0451602 60.5321285 59.2022636 60.5697456 59.3904499 60.5697456 59.5784673 60.5697456 59.7546596 60.5321285 59.919027 60.4556894 60.0832254 60.3792503 60.199955 60.2745649 60.2688778 60.1433735 60.336787 60.0123159 60.3714173 59.8207497 60.3714173 59.5706827L60.3714173 58 61 58 61 60.937751 60.4356101 60.937751M62 61L62 58.0623801 62.5602617 58.0623801 62.5602617 58.5122931C62.7031787 58.3038686 62.8356957 58.1661238 62.9574771 58.1001294 63.0792586 58.0330641 63.212782 58 63.3582152 58 63.568565 58 63.782605 58.0528758 64 58.1575566L63.7779082 58.6171077C63.626604 58.5491054 63.4752998 58.5152381 63.3238279 58.5152381 63.1879561 58.5152381 63.0661746 58.5481683 62.9586513 58.6132256 62.8511281 58.6784168 62.774134 58.7689081 62.7280047 58.8849672 62.6583913 59.0613984 62.6241718 59.2548302 62.6241718 59.4651287L62.6241718 61 62 61M64.1182985 61.0973474L64.6762575 61.1621604C64.6992341 61.3045702 64.7649037 61.4081176 64.8720244 61.4739533 65.015473 61.5613934 65.2112399 61.605497 65.4596357 61.605497 65.7265059 61.605497 65.9332954 61.5613934 66.0787622 61.4739533 66.2243842 61.3865133 66.322811 61.2631512 66.3741979 61.1055289 66.4036949 61.0091403 66.4179776 60.8063918 66.4158042 60.4974113 66.1630615 60.7424736 65.8489961 60.8649409 65.4726765 60.8649409 65.0044504 60.8649409 64.6411716 60.7262384 64.3851687 60.4478108 64.1280791 60.170278 64 59.8370086 64 59.4487696 64 59.1810802 64.0591492 58.934356 64.1762058 58.7082135 64.2932623 58.4820709 64.4640344 58.3082135 64.6871248 58.1847236 64.9103705 58.0613615 65.1728938 58 65.4748499 58 65.8764748 58 66.207928 58.1352509 66.4682778 58.405497L66.4682778 58.0595717 67 58.0595717 67 60.4820709C67 60.9190157 66.9464397 61.2279962 66.838077 61.4100352 66.7309563 61.5919463 66.5590975 61.7361457 66.3260712 61.8414829 66.0919582 61.9469479 65.8042848 62 65.4628959 62 65.056924 62 64.7298178 61.9253436 64.4804906 61.7748802 64.2297661 61.6253116 64.1094494 61.3991691 64.1182985 61.0973474zM64.5908715 59.4145094C64.5908715 59.7811441 64.6795177 60.0487057 64.8568102 60.217194 65.0350342 60.3856823 65.2571931 60.47031 65.5240633 60.47031 65.7900021 60.47031 66.0120058 60.3865772 66.1925585 60.2189837 66.3720244 60.0513902 66.4617574 59.788303 66.4617574 59.4298498 66.4617574 59.087504 66.3687642 58.828891 66.1838646 58.6550336 65.998965 58.4811761 65.7757193 58.3946309 65.5153695 58.3946309 65.2582799 58.3946309 65.0404678 58.4802812 64.8600704 58.6514541 64.6806044 58.822627 64.5908715 59.0766379 64.5908715 59.4145094zM71.4087461 60.0073877L71.9811096 60.0740077C71.8920125 60.3669785 71.7254202 60.5951652 71.4822252 60.7568631 71.2390302 60.9186921 70.928752 61 70.5503495 61 70.0743716 61 69.6970103 60.870563 69.4182657 60.6118202 69.1393723 60.3539955 69 59.9907326 69 59.5241301 69 59.0416594 69.1404135 58.6664627 69.4224305 58.4002448 69.7044474 58.1332401 70.0702068 58 70.5198572 58 70.9549308 58 71.3102781 58.130355 71.5858992 58.3919829 71.8616689 58.6534796 72 59.0213324 72 59.49541 72 59.5241301 71.9989588 59.567538 71.9968764 59.624847L69.5659676 59.624847C69.5869404 59.9399808 69.6876394 60.1820685 69.8699985 60.3494055 70.0513164 60.5166113 70.2788934 60.6008043 70.5503495 60.6008043 70.7526402 60.6008043 70.9254797 60.5535933 71.0681243 60.4593023 71.2116615 60.3651425 71.324855 60.2144606 71.4087461 60.0073877zM69.5975011 59.2255202L71.415142 59.2255202C71.3908969 58.9834324 71.3206902 58.8023256 71.2064555 58.6811506 71.0313848 58.4936178 70.8029154 58.3993268 70.5229808 58.3993268 70.2693738 58.3993268 70.0565224 58.4742088 69.8836829 58.6239727 69.7117358 58.7736055 69.6163915 58.9741213 69.5975011 59.2255202z"/>
    <polygon fill="#626362" points="72 61 73 61 73 60 72 60"/>
    <path fill="#626362" d="M74.6913402,61 L73,57 L73.6275842,57 L74.7646378,59.9068208 C74.8552841,60.1396201 74.9327743,60.3574897 74.993928,60.5614864 C75.0611537,60.342692 75.1395113,60.1248225 75.2292902,59.9068208 L76.4089923,57 L77,57 L75.2934798,61 L74.6913402,61"/>
    <polygon fill="#626362" points="77 61 78 61 78 60 77 60"/>
  </g>
</svg>
