<svg xmlns="http://www.w3.org/2000/svg" width="103" height="37" viewBox="0 0 103 37">
  <g fill="none" fill-rule="evenodd">
    <path fill="#D8232E" d="M33.8264933,22.0574815 C34.9918251,23.1825556 34.8865157,24.2541852 34.0001614,25.490716 C31.8025202,28.5603457 26.1707758,30.9790494 22.8729283,31.3353457 C21.1607265,31.5166914 20.7630448,30.5428148 20.6891435,29.4072346 C20.4882242,26.5390494 21.4563318,22.487321 23.2840045,18.5077654 C28.0524888,19.2829383 32.1932735,20.4856667 33.8264933,22.0574815 Z M33.2325112,6.53164198 C34.6324798,5.73728395 36.1026547,5.6377037 37.2476637,6.29959259 L37.2476637,0.163530864 L26.0811704,0.163530864 C26.2021839,0.477802469 26.2834753,0.846432099 26.3033363,1.30459259 C26.4968655,5.59796296 25.2234529,11.4832469 22.3025022,16.9313827 C16.0425964,16.2763457 9.89123318,14.3683333 7.14995516,11.6778395 C5.86638117,10.4212099 6.33519283,8.7552963 7.09960987,7.56307407 C9.0778565,4.48522222 13.3562825,1.72483951 17.811148,0.163530864 L0,0.163530864 L0,20.162716 C1.00598206,19.0152593 2.64613004,18.175679 5.30611659,17.7878642 C9.06307623,17.2406296 15.6079641,17.4215185 21.55887,18.2483086 C17.9825067,24.2605802 12.320278,29.5214321 4.30798655,31.1809506 C2.29833184,31.5975432 0.915452915,31.193284 0,30.3180741 L0,37 L8.16425112,37 C12.4172735,36.4052593 17.1428027,27.6152469 18.4628655,24.7315309 L19.9926233,23.8508395 C18.0000583,28.5991728 15.2647848,34.0929877 12.7336637,37 L37.2476637,37 L37.2476637,15.187358 C34.196,16.880679 29.1651659,17.4283704 23.9800628,17.0761852 C26.205417,12.7531235 29.4178161,8.68814815 33.2325112,6.53164198 L33.2325112,6.53164198 Z"/>
    <path fill="#000000" d="M45.8737982 8.54151852L48.8811211 8.45381481 48.8811211 10.027C48.8811211 10.3440123 48.7079148 10.5025185 48.3615022 10.5025185L43.762991 10.5025185C43.4165785 10.5025185 43.2433722 10.3440123 43.2433722 10.027L43.2433722.620320988C43.2433722.303308642 43.4165785.144345679 43.762991.144345679L45.8737982.144345679 45.8737982 8.54151852M53.2394529 8.54060494C52.2782735 8.54060494 51.7115426 7.71792593 51.7115426 5.32297531 51.7115426 2.92893827 52.2782735 2.10625926 53.2394529 2.10625926 54.2001704 2.10625926 54.7664395 2.92893827 54.7664395 5.32297531 54.7664395 7.71792593 54.2001704 8.54060494 53.2394529 8.54060494zM53.2394529.014617284C50.6713812.014617284 49.0335426 1.65951852 49.0335426 5.32297531 49.0335426 8.98780247 50.6713812 10.6322469 53.2394529 10.6322469 55.8056771 10.6322469 57.4444395 8.98780247 57.4444395 5.32297531 57.4444395 1.65951852 55.8056771.014617284 53.2394529.014617284L53.2394529.014617284zM66.5370762 2.19259259L66.5370762 10.027C66.5370762 10.3440123 66.7102825 10.5025185 67.0566951 10.5025185L68.6474215 10.5025185C68.9938341 10.5025185 69.1670404 10.3440123 69.1670404 10.027L69.1670404 2.19259259 70.9573004 2.19259259C71.303713 2.19259259 71.4769193 2.03454321 71.4769193 1.71707407L71.4769193.143888889 57.8855381.143888889C57.5391256.143888889 57.3659193.303765432 57.3659193.620320988L57.3659193 1.71707407C57.3659193 2.03454321 57.5391256 2.19259259 57.8855381 2.19259259L59.6762601 2.19259259 59.6762601 10.027C59.6762601 10.3440123 59.8494664 10.5025185 60.1958789 10.5025185L61.7861435 10.5025185C62.1325561 10.5025185 62.3057623 10.3440123 62.3057623 10.027L62.3057623 2.19259259 66.5370762 2.19259259M75.6043094 8.54060494C74.64313 8.54060494 74.0763991 7.71792593 74.0763991 5.32297531 74.0763991 2.92893827 74.64313 2.10625926 75.6043094 2.10625926 76.5654888 2.10625926 77.131296 2.92893827 77.131296 5.32297531 77.131296 7.71792593 76.5654888 8.54060494 75.6043094 8.54060494zM75.6043094.014617284C73.0371614.014617284 71.398861 1.65951852 71.398861 5.32297531 71.398861 8.98780247 73.0371614 10.6322469 75.6043094 10.6322469 78.1714574 10.6322469 79.809296 8.98780247 79.809296 5.32297531 79.809296 1.65951852 78.1714574.014617284 75.6043094.014617284L75.6043094.014617284zM49.3799552 15.8771111L47.5065561 16.3964815C47.3010179 15.8053951 47.0700762 15.2567901 46.3139731 15.2567901 45.8576323 15.2567901 45.5112197 15.4870123 45.5112197 15.9634444 45.5112197 17.7385309 49.9208206 17.5215556 49.9208206 21.0128025 49.9208206 22.672321 48.8187668 23.9125062 46.1735605 23.9125062 43.1957982 23.9125062 42.6286054 21.849642 42.6286054 21.4312222 42.6286054 21.2147037 42.7080493 21.1146667 42.9126637 21.042037L44.4082422 20.5080494C44.7394126 20.3933951 44.8336368 20.4651111 44.9287848 20.7104074 45.1333991 21.2288642 45.4322377 21.9505926 46.2516188 21.9505926 46.9292018 21.9505926 47.2913184 21.7057531 47.2913184 21.1425309 47.2913184 19.3103457 42.9279058 19.3971358 42.9279058 16.0648519 42.9279058 14.3623951 44.503852 13.2953333 46.5661614 13.2953333 49.1975112 13.2953333 49.6958834 15.1558395 49.6958834 15.5450247 49.6958834 15.7035309 49.6164395 15.8190988 49.3799552 15.8771111M57.3714619 14.9977901C57.3714619 15.3143457 57.1982556 15.4733086 56.851843 15.4733086L55.061583 15.4733086 55.061583 23.3068025C55.061583 23.6242716 54.8883767 23.782321 54.5419641 23.782321L52.9512377 23.782321C52.6048251 23.782321 52.4316188 23.6242716 52.4316188 23.3068025L52.4316188 15.4733086 50.6413587 15.4733086C50.2949462 15.4733086 50.1217399 15.3143457 50.1217399 14.9977901L50.1217399 13.901037C50.1217399 13.5835679 50.2949462 13.4246049 50.6413587 13.4246049L57.3714619 13.4246049 57.3714619 14.9977901M60.868843 23.3072593C60.868843 23.6242716 60.6956368 23.7827778 60.3483004 23.7827778L58.757574 23.7827778C58.4116233 23.7827778 58.2379552 23.6242716 58.2379552 23.3072593L58.2379552 13.901037C58.2379552 13.5840247 58.4116233 13.4246049 58.757574 13.4246049L60.868843 13.4246049 60.868843 23.3072593M70.2543139 15.4733086L70.2543139 23.3068025C70.2543139 23.6242716 70.4275202 23.782321 70.7739327 23.782321L72.365583 23.782321C72.7119955 23.782321 72.8852018 23.6242716 72.8852018 23.3068025L72.8852018 15.4733086 74.675 15.4733086C75.0223363 15.4733086 75.1955426 15.3143457 75.1955426 14.9977901L75.1955426 13.4246049 63.0738744 13.4246049C62.7274619 13.4246049 62.5537937 13.5835679 62.5537937 13.901037L62.5537937 23.3068025C62.5537937 23.6242716 62.7274619 23.782321 63.0738744 23.782321L64.806861 23.782321C65.1532735 23.782321 65.1842197 23.6242716 65.1842197 23.3068025L65.1842197 20.2581852 67.3467578 20.2581852C67.6931704 20.2581852 67.8663767 20.0992222 67.8663767 19.7817531L67.8663767 18.2094815 65.1842197 18.2094815 65.1842197 15.4733086 70.2543139 15.4733086M83.9048161 20.0891728C83.9048161 22.4562593 82.5829058 23.8978889 79.7316996 23.8978889 77.1479238 23.8978889 75.9673498 22.7152593 75.9673498 20.0891728L75.9673498 13.901037C75.9673498 13.5840247 76.1405561 13.4246049 76.4869686 13.4246049L78.5977758 13.4246049 78.5977758 20.2481358C78.5977758 21.2873333 79.0070045 21.8057901 79.9196861 21.8057901 80.8342152 21.8057901 81.3219641 21.2873333 81.3219641 20.2481358L81.3219641 13.901037C81.3219641 13.5840247 81.4951704 13.4246049 81.841583 13.4246049L83.9048161 13.4246049 83.9048161 20.0891728M93.4828924 23.3072593C93.4828924 23.6242716 93.3087623 23.7827778 92.9618879 23.7827778L91.5605336 23.7827778C91.167009 23.7827778 91.0252108 23.7247654 90.7891883 23.3072593L88.0479103 18.315 88.0169641 18.315 88.0169641 23.3072593C88.0169641 23.6242716 87.8437578 23.7827778 87.4964215 23.7827778L86.000843 23.7827778C85.6544305 23.7827778 85.4807623 23.6242716 85.4807623 23.3072593L85.4807623 13.901037C85.4807623 13.5840247 85.6544305 13.4246049 86.000843 13.4246049L88.0169641 13.4246049 90.9148206 18.7188025 90.9462287 18.7188025 90.9462287 13.901037C90.9462287 13.5840247 91.119435 13.4246049 91.4663094 13.4246049L93.4828924 13.4246049 93.4828924 23.3072593M102.728413 21.9218148C102.728413 22.1524938 102.697004 22.3119136 102.555206 22.4987407 102.177386 22.9893333 101.184798 23.9125062 99.0896951 23.9125062 96.5073049 23.9125062 94.7276682 22.5846173 94.7276682 18.5470494 94.7276682 14.9256173 96.7276233 13.2953333 99.2000852 13.2953333 102.177386 13.2953333 102.775987 15.4152963 102.775987 16.1224074 102.775987 16.3677037 102.697004 16.5120494 102.256368 16.5842222L100.618067 16.8582963C100.429619 16.179963 100.114152 15.3865185 99.1372691 15.3865185 98.1608475 15.3865185 97.4052063 16.0794691 97.4052063 18.5470494 97.4052063 21.2297778 98.1765516 21.8934938 99.3104753 21.8934938 99.8933722 21.8934938 100.192673 21.6911358 100.318305 21.5901852L100.318305 19.9594444 99.5626637 19.9594444C99.2162511 19.9594444 99.0430448 19.8013951 99.0430448 19.4839259L99.0430448 18.6041481C99.0430448 18.286679 99.2162511 18.1281728 99.5626637 18.1281728L102.728413 18.1281728 102.728413 21.9218148M46.7393677 34.9270864L45.8262242 34.9270864 45.8262242 32.7632716 46.7869417 32.7632716C47.6843812 32.7632716 48.204 32.9793333 48.204 33.8161728 48.204 34.5808395 47.7005471 34.9270864 46.7393677 34.9270864zM45.8262242 28.6658642L46.7088834 28.6658642C47.4954709 28.6658642 47.9841435 29.0413457 47.9841435 29.7329259 47.9841435 30.424963 47.4488206 30.8009012 46.7088834 30.8009012L45.8262242 30.8009012 45.8262242 28.6658642zM48.7559507 31.6948395L48.7559507 31.6660617C49.7637803 31.3778272 50.5665336 30.5405309 50.5665336 29.4159136 50.5665336 27.4964815 49.2598655 26.6176173 46.3929552 26.6176173L43.7625291 26.6176173C43.4161166 26.6176173 43.2429103 26.7761235 43.2429103 27.0931358L43.2429103 36.4998148C43.2429103 36.817284 43.4161166 36.9744198 43.7625291 36.9744198L46.4871794 36.9744198C48.8977489 36.9744198 50.818722 36.4696667 50.818722 33.9888395 50.818722 32.5755309 49.8108924 31.9552099 48.7559507 31.6948395L48.7559507 31.6948395zM58.3797534 28.1894321C58.3797534 28.5064444 58.2065471 28.6658642 57.8601345 28.6658642L54.7419596 28.6658642 54.7419596 30.7570494 57.8125605 30.7570494 57.8125605 32.3302346C57.8125605 32.6477037 57.6393543 32.8066667 57.2929417 32.8066667L54.7419596 32.8066667 54.7419596 34.9266296 58.5210897 34.9266296 58.5210897 36.4998148C58.5210897 36.8168272 58.3478834 36.9744198 58.0019327 36.9744198L52.6302287 36.9744198C52.2838161 36.9744198 52.1110717 36.8168272 52.1110717 36.4998148L52.1110717 27.0935926C52.1110717 26.7761235 52.2838161 26.6176173 52.6302287 26.6176173L58.3797534 26.6176173 58.3797534 28.1894321M62.9477803 31.2773333L62.3972152 31.2773333 62.3972152 28.6658642 63.1209865 28.6658642C64.081704 28.6658642 64.6174888 28.9974938 64.6174888 29.9489877 64.6174888 30.9890988 63.8295157 31.2773333 62.9477803 31.2773333zM67.6104933 36.2819259L65.8779686 32.5755309C66.7287578 32.042 67.2950269 31.1763827 67.2950269 29.8631111 67.2950269 27.5978889 65.8936726 26.6171605 63.0743363 26.6171605L60.2859462 26.6171605C59.9395336 26.6171605 59.7663274 26.7761235 59.7663274 27.0931358L59.7663274 36.499358C59.7663274 36.8168272 59.9395336 36.9744198 60.2859462 36.9744198L61.8771345 36.9744198C62.224009 36.9744198 62.3972152 36.8168272 62.3972152 36.499358L62.3972152 33.2812716 63.4831031 33.2812716 64.6174888 36.2682222C64.8230269 36.8168272 64.9010852 36.9744198 65.405 36.9744198L67.0590045 36.9744198C67.6252735 36.9744198 67.8936278 36.889 67.6104933 36.2819259L67.6104933 36.2819259zM71.4690673 34.9266296L74.4777758 34.9266296 74.4777758 36.4998148C74.4777758 36.8168272 74.3036457 36.9744198 73.9572332 36.9744198L69.3591839 36.9744198C69.0127713 36.9744198 68.8391031 36.8168272 68.8391031 36.4998148L68.8391031 27.0935926C68.8391031 26.7761235 69.0127713 26.6176173 69.3591839 26.6176173L71.4690673 26.6176173 71.4690673 34.9266296M78.0689193 36.4998148C78.0689193 36.8168272 77.895713 36.9744198 77.5493004 36.9744198L75.958574 36.9744198C75.6121614 36.9744198 75.4384933 36.8168272 75.4384933 36.4998148L75.4384933 27.0935926C75.4384933 26.7765802 75.6121614 26.6176173 75.958574 26.6176173L78.0689193 26.6176173 78.0689193 36.4998148M87.7555381 36.4998148C87.7555381 36.8168272 87.5823318 36.9744198 87.2359193 36.9744198L85.8336413 36.9744198C85.4401166 36.9744198 85.2987803 36.917321 85.0618341 36.4998148L82.3219417 31.5075556 82.2900717 31.5075556 82.2900717 36.4998148C82.2900717 36.8168272 82.1168655 36.9744198 81.7704529 36.9744198L80.2739507 36.9744198C79.9275381 36.9744198 79.7543318 36.8168272 79.7543318 36.4998148L79.7543318 27.0935926C79.7543318 26.7765802 79.9275381 26.6176173 80.2739507 26.6176173L82.2900717 26.6176173 85.1883901 31.911358 85.2197982 31.911358 85.2197982 27.0935926C85.2197982 26.7765802 85.3930045 26.6176173 85.739417 26.6176173L87.7555381 26.6176173 87.7555381 36.4998148"/>
  </g>
</svg>
