<?xml version="1.0" encoding="UTF-8" standalone="no"?>
<svg
   xmlns:dc="http://purl.org/dc/elements/1.1/"
   xmlns:cc="http://creativecommons.org/ns#"
   xmlns:rdf="http://www.w3.org/1999/02/22-rdf-syntax-ns#"
   xmlns:svg="http://www.w3.org/2000/svg"
   xmlns="http://www.w3.org/2000/svg"
   xmlns:sodipodi="http://sodipodi.sourceforge.net/DTD/sodipodi-0.dtd"
   xmlns:inkscape="http://www.inkscape.org/namespaces/inkscape"
   id="Layer_1"
   data-name="Layer 1"
   viewBox="0 0 156.64005 34.812951"
   version="1.1"
   sodipodi:docname="LOGO_P_PARTINT.svg"
   width="156.64005"
   height="34.81295"
   inkscape:version="0.92.3 (2405546, 2018-03-11)">
  <metadata
     id="metadata192">
    <rdf:RDF>
      <cc:Work
         rdf:about="">
        <dc:format>image/svg+xml</dc:format>
        <dc:type
           rdf:resource="http://purl.org/dc/dcmitype/StillImage" />
        <dc:title>Logo_PartInt_2018</dc:title>
      </cc:Work>
    </rdf:RDF>
  </metadata>
  <sodipodi:namedview
     pagecolor="#ffffff"
     bordercolor="#666666"
     borderopacity="1"
     objecttolerance="10"
     gridtolerance="10"
     guidetolerance="10"
     inkscape:pageopacity="0"
     inkscape:pageshadow="2"
     inkscape:window-width="640"
     inkscape:window-height="480"
     id="namedview190"
     showgrid="false"
     fit-margin-top="0"
     fit-margin-left="0"
     fit-margin-right="0"
     fit-margin-bottom="0"
     inkscape:zoom="2.2028508"
     inkscape:cx="84.889999"
     inkscape:cy="19.911356"
     inkscape:window-x="0"
     inkscape:window-y="27"
     inkscape:window-maximized="0"
     inkscape:current-layer="Layer_1" />
  <defs
     id="defs7">
    <style
       id="style2">.cls-1{fill:none;}.cls-2{fill:#0054a6;}.cls-3{clip-path:url(#clip-path);}.cls-4{fill:#c0d735;}.cls-5{fill:#ed1b2f;}.cls-6{fill:#00abe6;}.cls-7{fill:#90b43e;}.cls-8{fill:#f99d1c;}.cls-9{fill:#fd0;}</style>
    <clipPath
       id="clip-path"
       transform="translate(-6.71 -2.63)">
      <path
         class="cls-1"
         d="m 142.65,28.56 c -3.92,0.35 -15.92,1.19 -23.24,-2.85 l -8.74,1.51 4.87,-6.13 a 6.79,6.79 0 0 1 -0.66,-2.5 c -0.2,-3.11 1.87,-5.79 4.55,-7.61 5,-3.37 13.67,-5.28 21.58,-5.88 10.55,-0.81 15,3.28 15.59,10.25 0.59,6.97 -5.4,12.43 -13.95,13.21 z"
         id="path4"
         inkscape:connector-curvature="0"
         style="fill:none" />
    </clipPath>
  </defs>
  <title
     id="title9">Logo_PartInt_2018</title>
  <path
     class="cls-2"
     d="m 1.66,9.6515942 h 2.38 a 4.08,4.08 0 0 1 0.93,0.1 2.12,2.12 0 0 1 0.8,0.3299998 1.66,1.66 0 0 1 0.55,0.62 1.94,1.94 0 0 1 0.21,1 3.45,3.45 0 0 1 -0.3,1.49 3.16,3.16 0 0 1 -0.8,1.06 3.54,3.54 0 0 1 -1.14,0.64 4.32,4.32 0 0 1 -1.34,0.21 H 2.29 l -0.61,3.17 H 0 Z m 1.38,1.3299998 -0.53,2.74 h 0.5 a 1.87,1.87 0 0 0 1.3,-0.47 1.67,1.67 0 0 0 0.51,-1.3 0.8,0.8 0 0 0 -0.35,-0.76 1.78,1.78 0 0 0 -0.93,-0.21 z"
     id="path11"
     inkscape:connector-curvature="0"
     style="fill:#0054a6" />
  <path
     class="cls-2"
     d="m 11.61,16.471594 v 1.75 h -1.57 v -0.68 a 4.26,4.26 0 0 1 -0.54,0.41 3.43,3.43 0 0 1 -0.54,0.29 1.67,1.67 0 0 1 -0.62,0.12 1.38,1.38 0 0 1 -1.15,-0.55 2.47,2.47 0 0 1 -0.42,-1.52 6.18,6.18 0 0 1 0.23,-1.7 4.35,4.35 0 0 1 0.65,-1.37 3.27,3.27 0 0 1 1,-0.92 2.71,2.71 0 0 1 1.33,-0.34 h 0.48 l 0.46,0.05 0.54,0.05 h 0.72 v 1.41 z m -2.72,0.54 a 0.92,0.92 0 0 0 0.42,-0.1 2.36,2.36 0 0 0 0.38,-0.22 2.8,2.8 0 0 0 0.38,-0.33 l 0.57,-3 h -0.23 -0.26 -0.3 a 0.88,0.88 0 0 0 -0.61,0.26 2.28,2.28 0 0 0 -0.47,0.67 4.51,4.51 0 0 0 -0.31,0.92 5.05,5.05 0 0 0 -0.11,1 1.41,1.41 0 0 0 0.12,0.63 0.43,0.43 0 0 0 0.42,0.17 z"
     id="path13"
     inkscape:connector-curvature="0"
     style="fill:#0054a6" />
  <path
     class="cls-2"
     d="m 15.29,12.591594 a 4.63,4.63 0 0 1 0.7,-0.36 4.42,4.42 0 0 1 0.7,-0.22 2.21,2.21 0 0 1 0.77,0 v 1.51 a 2.4,2.4 0 0 0 -0.76,-0.06 3.83,3.83 0 0 0 -0.72,0.14 4.89,4.89 0 0 0 -0.76,0.27 l -0.85,4.38 h -1.58 l 1.18,-6.12 h 1.32 z"
     id="path15"
     inkscape:connector-curvature="0"
     style="fill:#0054a6" />
  <path
     class="cls-2"
     d="m 21.81,13.371594 h -1.32 l -0.51,2.67 a 1.17,1.17 0 0 0 0,0.71 c 0.08,0.15 0.26,0.22 0.55,0.22 a 1.51,1.51 0 0 0 0.39,0 1.08,1.08 0 0 0 0.19,0 v 1.32 l -0.34,0.05 h -0.33 -0.39 a 1.64,1.64 0 0 1 -1.47,-0.58 2,2 0 0 1 -0.21,-1.58 l 0.55,-2.81 H 18.2 v -1.27 h 1 l 0.48,-2.4499998 h 1.3 v 1.4099998 l -0.21,1 h 1.06 z"
     id="path17"
     inkscape:connector-curvature="0"
     style="fill:#0054a6" />
  <path
     class="cls-2"
     d="M 23.57,18.221594 H 22 l 1.19,-6.12 h 1.29 v 1.41 z m -0.3,-8 a 1,1 0 0 1 0.09,-0.4199998 1,1 0 0 1 0.23,-0.34 1,1 0 0 1 1.52,0 1.13,1.13 0 0 1 0.23,0.34 1,1 0 0 1 0.09,0.4199998 1,1 0 0 1 -0.09,0.41 1.18,1.18 0 0 1 -0.23,0.35 1.36,1.36 0 0 1 -0.34,0.23 1.14,1.14 0 0 1 -0.84,0 1.36,1.36 0 0 1 -0.34,-0.23 1,1 0 0 1 -0.23,-0.35 1,1 0 0 1 -0.07,-0.39 z"
     id="path19"
     inkscape:connector-curvature="0"
     style="fill:#0054a6" />
  <path
     class="cls-2"
     d="m 25.45,18.221594 -0.29,-1.24 3.13,-3.49 h -2.2 v -1.39 h 3.92 l 0.28,1.27 -3,3.46 h 2.5 v 1.39 z"
     id="path21"
     inkscape:connector-curvature="0"
     style="fill:#0054a6" />
  <path
     class="cls-2"
     d="m 32.39,18.221594 h -1.57 l 1.19,-6.12 h 1.28 v 1.41 z m -0.3,-8 a 1,1 0 0 1 0.09,-0.4199998 1,1 0 0 1 0.23,-0.34 1,1 0 0 1 0.76,-0.32 1.2,1.2 0 0 1 0.42,0.08 1.16,1.16 0 0 1 0.34,0.24 1.13,1.13 0 0 1 0.23,0.34 1,1 0 0 1 0.09,0.4199998 1,1 0 0 1 -0.09,0.41 1.18,1.18 0 0 1 -0.23,0.35 1.36,1.36 0 0 1 -0.34,0.23 1,1 0 0 1 -0.42,0.08 1,1 0 0 1 -0.42,-0.08 1.36,1.36 0 0 1 -0.34,-0.23 1,1 0 0 1 -0.23,-0.35 1,1 0 0 1 -0.09,-0.39 z"
     id="path23"
     inkscape:connector-curvature="0"
     style="fill:#0054a6" />
  <path
     class="cls-2"
     d="m 35.1,12.101594 h 1.3 v 0.49 a 3.6,3.6 0 0 1 0.54,-0.31 4.65,4.65 0 0 1 0.54,-0.22 1.89,1.89 0 0 1 0.56,-0.1 1.35,1.35 0 0 1 1.15,0.56 2.49,2.49 0 0 1 0.41,1.51 6.18,6.18 0 0 1 -0.23,1.7 4.14,4.14 0 0 1 -0.65,1.37 3.15,3.15 0 0 1 -1,0.92 2.61,2.61 0 0 1 -1.33,0.34 3.33,3.33 0 0 1 -0.46,0 l -0.45,-0.05 -0.46,2.39 h -1.3 v -1.44 z m 2.38,1.21 a 1,1 0 0 0 -0.37,0.07 3,3 0 0 0 -0.36,0.14 3,3 0 0 0 -0.4,0.21 l -0.62,3.24 h 0.23 a 3,3 0 0 0 0.56,0 0.87,0.87 0 0 0 0.61,-0.26 2,2 0 0 0 0.47,-0.67 4,4 0 0 0 0.31,-0.92 5,5 0 0 0 0.11,-1 1.41,1.41 0 0 0 -0.12,-0.63 0.41,0.41 0 0 0 -0.42,-0.18 z"
     id="path25"
     inkscape:connector-curvature="0"
     style="fill:#0054a6" />
  <path
     class="cls-2"
     d="m 45.12,16.471594 v 1.75 h -1.56 v -0.68 a 4.26,4.26 0 0 1 -0.54,0.41 4.07,4.07 0 0 1 -0.55,0.29 1.63,1.63 0 0 1 -0.62,0.12 1.38,1.38 0 0 1 -1.15,-0.55 2.47,2.47 0 0 1 -0.41,-1.52 6.18,6.18 0 0 1 0.22,-1.7 4.35,4.35 0 0 1 0.65,-1.37 3.19,3.19 0 0 1 1,-0.92 2.68,2.68 0 0 1 1.33,-0.34 h 0.47 l 0.46,0.05 0.54,0.05 h 0.72 v 1.41 z m -2.72,0.54 a 0.92,0.92 0 0 0 0.42,-0.1 2,2 0 0 0 0.38,-0.22 2.3,2.3 0 0 0 0.38,-0.33 l 0.58,-3 h -0.24 -0.25 -0.31 a 0.9,0.9 0 0 0 -0.61,0.26 2.28,2.28 0 0 0 -0.47,0.67 4,4 0 0 0 -0.3,0.92 4.43,4.43 0 0 0 -0.11,1 1.42,1.42 0 0 0 0.11,0.63 0.43,0.43 0 0 0 0.42,0.17 z"
     id="path27"
     inkscape:connector-curvature="0"
     style="fill:#0054a6" />
  <path
     class="cls-2"
     d="M 50.53,13.371594 H 49.2 l -0.51,2.67 a 1.08,1.08 0 0 0 0,0.71 c 0.08,0.15 0.26,0.22 0.54,0.22 a 1.64,1.64 0 0 0 0.4,0 1.13,1.13 0 0 0 0.18,0 v 1.32 l -0.33,0.05 h -0.34 -0.38 a 1.66,1.66 0 0 1 -1.47,-0.56 2,2 0 0 1 -0.2,-1.58 l 0.55,-2.83 h -0.73 v -1.27 h 1 l 0.48,-2.4499998 h 1.3 v 1.4099998 l -0.21,1 h 1.07 z"
     id="path29"
     inkscape:connector-curvature="0"
     style="fill:#0054a6" />
  <path
     class="cls-2"
     d="m 52.29,18.221594 h -1.58 l 1.19,-6.12 h 1.3 v 1.41 z m -0.3,-8 a 1,1 0 0 1 0.09,-0.4199998 1.13,1.13 0 0 1 0.23,-0.34 1.21,1.21 0 0 1 0.35,-0.24 1.15,1.15 0 0 1 0.41,-0.08 1.07,1.07 0 0 1 1.08,1.0799998 1.15,1.15 0 0 1 -0.08,0.41 1.21,1.21 0 0 1 -0.24,0.35 1.36,1.36 0 0 1 -0.34,0.23 1,1 0 0 1 -0.42,0.08 1,1 0 0 1 -0.41,-0.08 1.41,1.41 0 0 1 -0.35,-0.23 1.18,1.18 0 0 1 -0.23,-0.35 1,1 0 0 1 -0.1,-0.39 z"
     id="path31"
     inkscape:connector-curvature="0"
     style="fill:#0054a6" />
  <path
     class="cls-2"
     d="m 53.98,16.291594 a 6.52,6.52 0 0 1 0.18,-1.49 4.72,4.72 0 0 1 0.59,-1.4 3.31,3.31 0 0 1 1,-1 2.63,2.63 0 0 1 1.54,-0.44 2.56,2.56 0 0 1 1.65,0.5 1.88,1.88 0 0 1 0.63,1.57 6,6 0 0 1 -0.28,1.48 4.46,4.46 0 0 1 -0.58,1.4 3.45,3.45 0 0 1 -1,1 2.67,2.67 0 0 1 -1.42,0.46 2.56,2.56 0 0 1 -1.65,-0.5 1.87,1.87 0 0 1 -0.66,-1.58 z m 3.14,-3 a 0.89,0.89 0 0 0 -0.67,0.3 2.72,2.72 0 0 0 -0.48,0.73 4.29,4.29 0 0 0 -0.28,0.9 4.53,4.53 0 0 0 -0.09,0.82 1.26,1.26 0 0 0 0.19,0.79 0.72,0.72 0 0 0 0.59,0.24 0.85,0.85 0 0 0 0.66,-0.3 2.38,2.38 0 0 0 0.48,-0.72 4.49,4.49 0 0 0 0.28,-0.9 3.8,3.8 0 0 0 0.1,-0.83 1.28,1.28 0 0 0 -0.19,-0.79 0.73,0.73 0 0 0 -0.59,-0.26 z"
     id="path33"
     inkscape:connector-curvature="0"
     style="fill:#0054a6" />
  <path
     class="cls-2"
     d="m 62.51,12.591594 a 3.29,3.29 0 0 1 0.59,-0.31 4.92,4.92 0 0 1 0.59,-0.22 2.68,2.68 0 0 1 0.69,-0.1 1.72,1.72 0 0 1 0.76,0.15 1.16,1.16 0 0 1 0.47,0.4 1.26,1.26 0 0 1 0.2,0.59 2.15,2.15 0 0 1 0,0.71 l -0.52,2.66 v 1.75 h -1.61 v -1.75 l 0.44,-2.25 a 1,1 0 0 0 0,-0.61 c -0.06,-0.14 -0.21,-0.2 -0.45,-0.2 a 1.25,1.25 0 0 0 -0.4,0.07 2.74,2.74 0 0 0 -0.4,0.15 l -0.44,0.21 -0.84,4.38 h -1.57 l 1.19,-6.12 h 1.3 z"
     id="path35"
     inkscape:connector-curvature="0"
     style="fill:#0054a6" />
  <path
     class="cls-2"
     d="m 71.18,13.451594 -0.59,-0.08 -0.56,-0.08 a 3.86,3.86 0 0 0 -0.58,0 1,1 0 0 0 -0.66,0.18 0.59,0.59 0 0 0 -0.19,0.43 0.41,0.41 0 0 0 0.16,0.36 1.77,1.77 0 0 0 0.41,0.24 l 0.53,0.21 a 2.23,2.23 0 0 1 0.54,0.31 1.69,1.69 0 0 1 0.41,0.55 2.08,2.08 0 0 1 0.16,0.89 1.93,1.93 0 0 1 -0.18,0.87 1.7,1.7 0 0 1 -0.51,0.62 2.31,2.31 0 0 1 -0.77,0.38 3.6,3.6 0 0 1 -1,0.12 H 67.7 l -0.61,-0.08 c -0.23,0 -0.45,-0.08 -0.67,-0.12 v -1.4 c 0.22,0.06 0.45,0.11 0.68,0.15 a 5.12,5.12 0 0 0 0.62,0.09 4.84,4.84 0 0 0 0.63,0 h 0.29 a 0.94,0.94 0 0 0 0.28,-0.1 0.8,0.8 0 0 0 0.21,-0.2 0.57,0.57 0 0 0 0.16,-0.42 0.49,0.49 0 0 0 -0.15,-0.38 1.5,1.5 0 0 0 -0.41,-0.25 l -0.52,-0.21 a 2.31,2.31 0 0 1 -0.52,-0.31 1.59,1.59 0 0 1 -0.4,-0.54 2,2 0 0 1 -0.16,-0.88 1.55,1.55 0 0 1 0.19,-0.78 1.83,1.83 0 0 1 0.53,-0.58 2.53,2.53 0 0 1 0.76,-0.35 2.9,2.9 0 0 1 0.89,-0.13 c 0.24,0 0.46,0 0.68,0 l 0.55,0.07 0.5,0.09 z"
     id="path37"
     inkscape:connector-curvature="0"
     style="fill:#0054a6" />
  <path
     class="cls-2"
     d="m 75.54,13.561594 v 0.46 l -0.17,0.87 h -2.82 v -0.46 l 0.17,-0.87 z"
     id="path39"
     inkscape:connector-curvature="0"
     style="fill:#0054a6" />
  <path
     class="cls-2"
     d="m 81.29,12.101594 v 4.27 a 3.93,3.93 0 0 0 0,0.52 1.11,1.11 0 0 0 0.14,0.4 0.68,0.68 0 0 0 0.29,0.24 1.13,1.13 0 0 0 0.49,0.09 2.48,2.48 0 0 0 0.65,-0.09 4.18,4.18 0 0 0 0.6,-0.22 3.55,3.55 0 0 0 0.61,-0.32 v -4.89 h 0.88 v 6.12 h -0.67 l 0.01,-0.61 a 5.7,5.7 0 0 1 -0.69,0.37 4.88,4.88 0 0 1 -0.68,0.24 2.54,2.54 0 0 1 -0.76,0.11 1.87,1.87 0 0 1 -0.87,-0.16 1.24,1.24 0 0 1 -0.51,-0.41 1.51,1.51 0 0 1 -0.24,-0.55 3,3 0 0 1 -0.06,-0.59 v -4.52 z"
     id="path41"
     inkscape:connector-curvature="0"
     style="fill:#0054a6" />
  <path
     class="cls-2"
     d="m 90.84,18.221594 v -4.24 a 2.79,2.79 0 0 0 0,-0.53 0.86,0.86 0 0 0 -0.14,-0.39 0.65,0.65 0 0 0 -0.29,-0.25 1.08,1.08 0 0 0 -0.48,-0.09 2.44,2.44 0 0 0 -0.65,0.1 5.11,5.11 0 0 0 -0.6,0.22 4.48,4.48 0 0 0 -0.62,0.31 v 4.87 h -0.88 v -6.12 h 0.67 l 0.13,0.61 a 6.24,6.24 0 0 1 0.68,-0.35 c 0.21,-0.09 0.44,-0.18 0.69,-0.26 a 2.79,2.79 0 0 1 0.76,-0.11 1.9,1.9 0 0 1 0.85,0.16 1.21,1.21 0 0 1 0.5,0.41 1.42,1.42 0 0 1 0.24,0.55 3,3 0 0 1 0.06,0.59 v 4.52 z"
     id="path43"
     inkscape:connector-curvature="0"
     style="fill:#0054a6" />
  <path
     class="cls-2"
     d="m 97.38,18.221594 -0.12,-0.61 a 7,7 0 0 1 -0.64,0.37 5.36,5.36 0 0 1 -0.6,0.24 1.82,1.82 0 0 1 -0.63,0.11 1.72,1.72 0 0 1 -1.49,-0.73 4,4 0 0 1 -0.52,-2.32 5.24,5.24 0 0 1 0.19,-1.53 3.28,3.28 0 0 1 0.5,-1 1.7,1.7 0 0 1 0.67,-0.57 1.6,1.6 0 0 1 0.72,-0.18 2.4,2.4 0 0 1 0.74,0.11 2.94,2.94 0 0 1 0.56,0.24 2.53,2.53 0 0 1 0.47,0.36 l -0.06,-0.72 V 8.9115942 h 0.89 v 9.3099998 z m -0.21,-4.79 a 1.57,1.57 0 0 0 -0.38,-0.34 2,2 0 0 0 -0.49,-0.24 2,2 0 0 0 -0.68,-0.1 1.09,1.09 0 0 0 -1,0.65 3.51,3.51 0 0 0 -0.38,1.76 7.19,7.19 0 0 0 0.07,1 2.87,2.87 0 0 0 0.21,0.76 1.1,1.1 0 0 0 0.4,0.49 1,1 0 0 0 0.6,0.17 1.71,1.71 0 0 0 0.5,-0.09 4.18,4.18 0 0 0 0.53,-0.21 5.45,5.45 0 0 0 0.58,-0.31 z"
     id="path45"
     inkscape:connector-curvature="0"
     style="fill:#0054a6" />
  <path
     class="cls-2"
     d="M 1.64,32.221594 H 0 l 1.66,-8.57 h 1.38 v 1.41 z"
     id="path47"
     inkscape:connector-curvature="0"
     style="fill:#0054a6" />
  <path
     class="cls-2"
     d="m 5.68,26.591594 a 3.66,3.66 0 0 1 0.59,-0.31 5.87,5.87 0 0 1 0.6,-0.22 2.61,2.61 0 0 1 0.69,-0.1 1.67,1.67 0 0 1 0.75,0.15 1.13,1.13 0 0 1 0.48,0.4 1.38,1.38 0 0 1 0.2,0.59 2.48,2.48 0 0 1 0,0.71 l -0.53,2.66 v 1.75 h -1.6 v -1.75 l 0.43,-2.25 a 1.09,1.09 0 0 0 0,-0.61 c -0.06,-0.14 -0.21,-0.2 -0.45,-0.2 a 1.15,1.15 0 0 0 -0.39,0.07 2.08,2.08 0 0 0 -0.4,0.15 c -0.15,0.07 -0.3,0.13 -0.44,0.21 l -0.85,4.38 H 3.19 l 1.19,-6.12 h 1.3 z"
     id="path49"
     inkscape:connector-curvature="0"
     style="fill:#0054a6" />
  <path
     class="cls-2"
     d="M 13.83,27.371594 H 12.5 l -0.51,2.67 a 1.08,1.08 0 0 0 0,0.71 c 0.08,0.15 0.26,0.22 0.54,0.22 a 1.64,1.64 0 0 0 0.4,0 h 0.18 v 1.32 h -0.33 -0.34 -0.38 a 1.66,1.66 0 0 1 -1.48,-0.58 2,2 0 0 1 -0.2,-1.58 l 0.56,-2.76 h -0.73 v -1.27 h 1 l 0.48,-2.45 h 1.3 v 1.41 l -0.21,1 h 1.07 z"
     id="path51"
     inkscape:connector-curvature="0"
     style="fill:#0054a6" />
  <path
     class="cls-2"
     d="m 18.6,31.871594 a 6.42,6.42 0 0 1 -0.66,0.24 4.5,4.5 0 0 1 -0.66,0.17 4.67,4.67 0 0 1 -0.76,0.07 2.44,2.44 0 0 1 -1.68,-0.57 2.2,2.2 0 0 1 -0.65,-1.74 4.92,4.92 0 0 1 0.27,-1.67 4.44,4.44 0 0 1 0.71,-1.29 3.19,3.19 0 0 1 1,-0.83 2.57,2.57 0 0 1 1.2,-0.3 3.79,3.79 0 0 1 0.77,0.08 1.72,1.72 0 0 1 0.65,0.27 1.42,1.42 0 0 1 0.44,0.5 1.65,1.65 0 0 1 0.16,0.77 2.23,2.23 0 0 1 -0.29,1.19 2,2 0 0 1 -0.74,0.69 2.82,2.82 0 0 1 -1,0.34 6.9,6.9 0 0 1 -1,0.08 h -0.7 v 0.15 a 1.17,1.17 0 0 0 0.2,0.71 0.81,0.81 0 0 0 0.72,0.28 3.85,3.85 0 0 0 0.69,-0.06 l 0.62,-0.13 a 6.45,6.45 0 0 0 0.62,-0.21 z m -1.92,-3.17 a 2,2 0 0 0 0.4,0 1.68,1.68 0 0 0 0.39,-0.16 1.15,1.15 0 0 0 0.3,-0.28 0.82,0.82 0 0 0 0.11,-0.42 0.55,0.55 0 0 0 -0.15,-0.4 0.58,0.58 0 0 0 -0.42,-0.15 1,1 0 0 0 -0.47,0.12 1.34,1.34 0 0 0 -0.39,0.32 1.89,1.89 0 0 0 -0.3,0.47 2.27,2.27 0 0 0 -0.2,0.55 z"
     id="path53"
     inkscape:connector-curvature="0"
     style="fill:#0054a6" />
  <path
     class="cls-2"
     d="m 24.57,32.221594 a 4.19,4.19 0 0 1 -0.28,1.07 2.42,2.42 0 0 1 -0.59,0.81 2.36,2.36 0 0 1 -0.92,0.52 4.13,4.13 0 0 1 -1.34,0.19 c -0.29,0 -0.55,0 -0.79,0 a 4.65,4.65 0 0 1 -0.61,-0.06 c -0.21,0 -0.39,-0.05 -0.55,-0.08 v -1.44 a 4.9,4.9 0 0 0 0.6,0.12 c 0.18,0 0.38,0.06 0.62,0.08 0.24,0.02 0.47,0 0.73,0 a 2.8,2.8 0 0 0 0.48,-0.05 1.78,1.78 0 0 0 0.48,-0.19 1.33,1.33 0 0 0 0.39,-0.36 1.2,1.2 0 0 0 0.24,-0.55 l 0.21,-0.65 a 3.24,3.24 0 0 1 -0.49,0.36 3,3 0 0 1 -0.51,0.23 1.6,1.6 0 0 1 -0.57,0.11 1.38,1.38 0 0 1 -1.15,-0.55 2.54,2.54 0 0 1 -0.41,-1.52 6.18,6.18 0 0 1 0.23,-1.7 4.35,4.35 0 0 1 0.65,-1.37 3.27,3.27 0 0 1 1,-0.92 2.71,2.71 0 0 1 1.3,-0.31 h 0.43 0.42 l 0.54,0.05 h 0.81 v 1.41 z m -2.39,-1.21 a 0.92,0.92 0 0 0 0.42,-0.1 2.36,2.36 0 0 0 0.38,-0.22 2.8,2.8 0 0 0 0.38,-0.33 l 0.57,-3 h -0.23 -0.26 -0.3 a 0.88,0.88 0 0 0 -0.61,0.26 2.28,2.28 0 0 0 -0.47,0.67 4.51,4.51 0 0 0 -0.31,0.92 5.05,5.05 0 0 0 -0.11,1 1.41,1.41 0 0 0 0.12,0.63 0.43,0.43 0 0 0 0.42,0.17 z"
     id="path55"
     inkscape:connector-curvature="0"
     style="fill:#0054a6" />
  <path
     class="cls-2"
     d="m 28.56,26.591594 a 4.63,4.63 0 0 1 0.7,-0.36 4.42,4.42 0 0 1 0.7,-0.22 2.21,2.21 0 0 1 0.77,0 v 1.51 a 2.4,2.4 0 0 0 -0.76,-0.06 3.83,3.83 0 0 0 -0.72,0.14 4.89,4.89 0 0 0 -0.76,0.27 l -0.85,4.38 h -1.56 l 1.21,-6.15 h 1.29 z"
     id="path57"
     inkscape:connector-curvature="0"
     style="fill:#0054a6" />
  <path
     class="cls-2"
     d="m 35.78,30.471594 v 1.75 h -1.57 v -0.68 a 4.26,4.26 0 0 1 -0.54,0.41 3.43,3.43 0 0 1 -0.54,0.29 1.67,1.67 0 0 1 -0.62,0.12 1.37,1.37 0 0 1 -1.15,-0.55 2.47,2.47 0 0 1 -0.42,-1.52 6.18,6.18 0 0 1 0.23,-1.7 4.14,4.14 0 0 1 0.65,-1.37 3.27,3.27 0 0 1 1,-0.92 2.71,2.71 0 0 1 1.33,-0.34 h 0.48 0.46 l 0.54,0.05 h 0.71 v 1.41 z m -2.72,0.54 a 0.92,0.92 0 0 0 0.42,-0.1 2.88,2.88 0 0 0 0.38,-0.22 2.8,2.8 0 0 0 0.43,-0.32 l 0.57,-3 h -0.23 -0.26 -0.3 a 0.87,0.87 0 0 0 -0.61,0.26 2.28,2.28 0 0 0 -0.47,0.67 4,4 0 0 0 -0.31,0.92 5.05,5.05 0 0 0 -0.11,1 1.41,1.41 0 0 0 0.12,0.63 0.41,0.41 0 0 0 0.37,0.16 z"
     id="path59"
     inkscape:connector-curvature="0"
     style="fill:#0054a6" />
  <path
     class="cls-2"
     d="m 41.18,27.371594 h -1.32 l -0.52,2.67 a 1.15,1.15 0 0 0 0,0.71 c 0.08,0.15 0.26,0.22 0.55,0.22 a 1.61,1.61 0 0 0 0.39,0 h 0.18 v 1.32 h -0.33 -0.34 -0.38 a 1.67,1.67 0 0 1 -1.48,-0.58 2.05,2.05 0 0 1 -0.2,-1.58 l 0.56,-2.76 h -0.72 v -1.27 h 1 l 0.47,-2.45 h 1.25 v 1.41 l -0.21,1 h 1.07 z"
     id="path61"
     inkscape:connector-curvature="0"
     style="fill:#0054a6" />
  <path
     class="cls-2"
     d="m 42.93,32.221594 h -1.57 l 1.19,-6.12 h 1.3 v 1.41 z m -0.29,-8 a 1,1 0 0 1 0.32,-0.76 1,1 0 0 1 0.34,-0.24 1.16,1.16 0 0 1 0.42,-0.08 1.15,1.15 0 0 1 0.41,0.08 1.21,1.21 0 0 1 0.35,0.24 1.36,1.36 0 0 1 0.23,0.34 1,1 0 0 1 0.08,0.42 1,1 0 0 1 -0.08,0.41 1,1 0 0 1 -0.58,0.58 1,1 0 0 1 -0.41,0.08 1,1 0 0 1 -0.42,-0.08 1.2,1.2 0 0 1 -0.34,-0.23 1.21,1.21 0 0 1 -0.24,-0.35 1.15,1.15 0 0 1 -0.08,-0.39 z"
     id="path63"
     inkscape:connector-curvature="0"
     style="fill:#0054a6" />
  <path
     class="cls-2"
     d="m 44.63,30.291594 a 6.54,6.54 0 0 1 0.19,-1.49 4.46,4.46 0 0 1 0.58,-1.4 3.42,3.42 0 0 1 1,-1 2.94,2.94 0 0 1 3.14,0.09 1.91,1.91 0 0 1 0.62,1.57 6.43,6.43 0 0 1 -0.18,1.48 5,5 0 0 1 -0.58,1.4 3.61,3.61 0 0 1 -1,1 2.65,2.65 0 0 1 -1.48,0.41 2.6,2.6 0 0 1 -1.65,-0.5 1.87,1.87 0 0 1 -0.64,-1.56 z m 3.14,-3 a 0.91,0.91 0 0 0 -0.67,0.3 2.48,2.48 0 0 0 -0.47,0.73 3.79,3.79 0 0 0 -0.29,0.9 4.53,4.53 0 0 0 -0.09,0.82 1.25,1.25 0 0 0 0.2,0.79 0.71,0.71 0 0 0 0.59,0.24 0.88,0.88 0 0 0 0.66,-0.3 2.56,2.56 0 0 0 0.47,-0.72 4.51,4.51 0 0 0 0.29,-0.9 4.45,4.45 0 0 0 0.09,-0.83 1.28,1.28 0 0 0 -0.19,-0.79 0.72,0.72 0 0 0 -0.59,-0.26 z"
     id="path65"
     inkscape:connector-curvature="0"
     style="fill:#0054a6" />
  <path
     class="cls-2"
     d="m 53.16,26.591594 a 3.66,3.66 0 0 1 0.59,-0.31 5.87,5.87 0 0 1 0.6,-0.22 2.61,2.61 0 0 1 0.69,-0.1 1.67,1.67 0 0 1 0.75,0.15 1.13,1.13 0 0 1 0.48,0.4 1.38,1.38 0 0 1 0.2,0.59 2.48,2.48 0 0 1 0,0.71 l -0.53,2.66 v 1.75 h -1.6 v -1.75 l 0.44,-2.25 a 1,1 0 0 0 0,-0.61 c -0.06,-0.14 -0.21,-0.2 -0.45,-0.2 a 1.15,1.15 0 0 0 -0.39,0.07 2.08,2.08 0 0 0 -0.4,0.15 c -0.15,0.07 -0.3,0.13 -0.44,0.21 l -0.81,4.38 h -1.62 l 1.19,-6.12 h 1.3 z"
     id="path67"
     inkscape:connector-curvature="0"
     style="fill:#0054a6" />
  <path
     class="cls-2"
     d="m 61.83,27.451594 -0.54,-0.08 -0.56,-0.08 a 4,4 0 0 0 -0.58,0 1,1 0 0 0 -0.67,0.18 0.59,0.59 0 0 0 -0.19,0.43 0.41,0.41 0 0 0 0.16,0.36 1.77,1.77 0 0 0 0.41,0.24 l 0.54,0.21 a 2.17,2.17 0 0 1 0.53,0.31 1.69,1.69 0 0 1 0.41,0.55 2.08,2.08 0 0 1 0.17,0.89 1.93,1.93 0 0 1 -0.19,0.87 1.7,1.7 0 0 1 -0.51,0.62 2.26,2.26 0 0 1 -0.76,0.38 3.74,3.74 0 0 1 -1,0.12 h -0.64 l -0.62,-0.08 -0.66,-0.12 v -1.4 c 0.22,0.06 0.44,0.1 0.67,0.15 a 5.3,5.3 0 0 0 0.63,0.09 4.59,4.59 0 0 0 0.62,0 h 0.29 a 1.33,1.33 0 0 0 0.28,-0.1 0.58,0.58 0 0 0 0.21,-0.2 0.57,0.57 0 0 0 0.08,-0.31 0.46,0.46 0 0 0 -0.16,-0.38 1.36,1.36 0 0 0 -0.41,-0.25 l -0.52,-0.21 a 2.55,2.55 0 0 1 -0.52,-0.31 1.73,1.73 0 0 1 -0.4,-0.54 2,2 0 0 1 -0.16,-0.88 1.56,1.56 0 0 1 0.2,-0.78 1.8,1.8 0 0 1 0.52,-0.58 2.65,2.65 0 0 1 0.76,-0.35 3,3 0 0 1 0.9,-0.13 c 0.23,0 0.46,0 0.67,0 l 0.55,0.07 0.5,0.09 z"
     id="path69"
     inkscape:connector-curvature="0"
     style="fill:#0054a6" />
  <path
     class="cls-2"
     d="m 63.54,26.101594 h 1.29 v 0.49 a 5,5 0 0 1 0.54,-0.31 5.51,5.51 0 0 1 0.54,-0.22 1.9,1.9 0 0 1 0.57,-0.1 1.33,1.33 0 0 1 1.14,0.56 2.49,2.49 0 0 1 0.41,1.51 6.18,6.18 0 0 1 -0.22,1.7 4.58,4.58 0 0 1 -0.65,1.37 3.29,3.29 0 0 1 -1,0.92 2.61,2.61 0 0 1 -1.33,0.34 3.33,3.33 0 0 1 -0.46,0 l -0.45,-0.05 -0.46,2.39 h -1.3 v -1.44 z m 2.37,1.21 a 1,1 0 0 0 -0.36,0.07 2.61,2.61 0 0 0 -0.37,0.14 l -0.39,0.21 -0.63,3.24 h 0.23 a 3,3 0 0 0 0.57,0 0.86,0.86 0 0 0 0.6,-0.26 2,2 0 0 0 0.47,-0.67 3.55,3.55 0 0 0 0.31,-0.92 5,5 0 0 0 0.11,-1 1.58,1.58 0 0 0 -0.11,-0.63 0.44,0.44 0 0 0 -0.43,-0.18 z"
     id="path71"
     inkscape:connector-curvature="0"
     style="fill:#0054a6" />
  <path
     class="cls-2"
     d="m 71.02,26.591594 a 4.2,4.2 0 0 1 0.7,-0.36 4.12,4.12 0 0 1 0.7,-0.22 2.21,2.21 0 0 1 0.77,0 v 1.51 a 2.42,2.42 0 0 0 -0.76,-0.06 3.83,3.83 0 0 0 -0.72,0.14 4.55,4.55 0 0 0 -0.76,0.27 l -0.85,4.38 h -1.57 l 1.19,-6.12 h 1.3 z"
     id="path73"
     inkscape:connector-curvature="0"
     style="fill:#0054a6" />
  <path
     class="cls-2"
     d="m 73.4,30.291594 a 6.52,6.52 0 0 1 0.18,-1.49 4.7,4.7 0 0 1 0.58,-1.4 3.54,3.54 0 0 1 1,-1 2.66,2.66 0 0 1 1.49,-0.41 2.6,2.6 0 0 1 1.65,0.5 1.88,1.88 0 0 1 0.62,1.57 6.43,6.43 0 0 1 -0.18,1.48 4.7,4.7 0 0 1 -0.58,1.4 3.61,3.61 0 0 1 -1,1 2.93,2.93 0 0 1 -3.13,-0.09 1.87,1.87 0 0 1 -0.63,-1.56 z m 3.13,-3 a 0.88,0.88 0 0 0 -0.66,0.3 2.32,2.32 0 0 0 -0.48,0.73 3.78,3.78 0 0 0 -0.28,0.9 3.86,3.86 0 0 0 -0.1,0.82 1.25,1.25 0 0 0 0.2,0.79 0.72,0.72 0 0 0 0.59,0.24 0.88,0.88 0 0 0 0.66,-0.3 2.36,2.36 0 0 0 0.47,-0.72 4.65,4.65 0 0 0 0.36,-1.75 1.27,1.27 0 0 0 -0.2,-0.79 0.72,0.72 0 0 0 -0.56,-0.24 z"
     id="path75"
     inkscape:connector-curvature="0"
     style="fill:#0054a6" />
  <path
     class="cls-2"
     d="m 84.16,32.221594 a 4.19,4.19 0 0 1 -0.33,1.07 2.4,2.4 0 0 1 -0.58,0.81 2.47,2.47 0 0 1 -0.93,0.52 4.08,4.08 0 0 1 -1.34,0.19 q -0.43,0 -0.78,0 a 4.83,4.83 0 0 1 -0.62,-0.06 l -0.55,-0.08 v -1.44 a 5.31,5.31 0 0 0 0.6,0.12 l 0.62,0.08 c 0.23,0 0.48,0 0.73,0 a 2.7,2.7 0 0 0 0.48,-0.05 1.66,1.66 0 0 0 0.48,-0.19 1.37,1.37 0 0 0 0.4,-0.36 1.31,1.31 0 0 0 0.23,-0.55 l 0.21,-0.65 a 2.8,2.8 0 0 1 -0.49,0.36 2.9,2.9 0 0 1 -0.5,0.23 1.66,1.66 0 0 1 -0.58,0.11 1.35,1.35 0 0 1 -1.14,-0.55 2.47,2.47 0 0 1 -0.41,-1.52 6.18,6.18 0 0 1 0.22,-1.7 4.35,4.35 0 0 1 0.65,-1.37 3.19,3.19 0 0 1 1,-0.92 2.68,2.68 0 0 1 1.33,-0.34 h 0.42 0.42 l 0.55,0.05 h 0.8 v 1.41 z m -2.38,-1.21 a 0.91,0.91 0 0 0 0.41,-0.1 2,2 0 0 0 0.38,-0.22 2.3,2.3 0 0 0 0.38,-0.33 l 0.58,-3 h -0.24 -0.25 -0.31 a 0.9,0.9 0 0 0 -0.61,0.26 2.28,2.28 0 0 0 -0.47,0.67 4,4 0 0 0 -0.3,0.92 4.43,4.43 0 0 0 -0.11,1 1.58,1.58 0 0 0 0.11,0.63 0.44,0.44 0 0 0 0.43,0.17 z"
     id="path77"
     inkscape:connector-curvature="0"
     style="fill:#0054a6" />
  <path
     class="cls-2"
     d="m 88.16,26.591594 a 4.2,4.2 0 0 1 0.7,-0.36 4.3,4.3 0 0 1 0.69,-0.22 2.27,2.27 0 0 1 0.78,0 v 1.51 a 2.42,2.42 0 0 0 -0.76,-0.06 3.94,3.94 0 0 0 -0.73,0.14 5.29,5.29 0 0 0 -0.76,0.27 l -0.79,4.35 h -1.62 l 1.19,-6.12 h 1.3 z"
     id="path79"
     inkscape:connector-curvature="0"
     style="fill:#0054a6" />
  <path
     class="cls-2"
     d="m 95.37,30.471594 v 1.75 H 93.8 v -0.68 a 5,5 0 0 1 -0.53,0.41 4.07,4.07 0 0 1 -0.55,0.29 1.67,1.67 0 0 1 -0.62,0.12 1.38,1.38 0 0 1 -1.15,-0.55 2.47,2.47 0 0 1 -0.42,-1.52 6.18,6.18 0 0 1 0.23,-1.7 4.35,4.35 0 0 1 0.65,-1.37 3.19,3.19 0 0 1 1,-0.92 2.68,2.68 0 0 1 1.33,-0.34 h 0.47 0.46 l 0.54,0.05 h 0.72 v 1.41 z m -2.72,0.54 a 0.92,0.92 0 0 0 0.42,-0.1 2.36,2.36 0 0 0 0.38,-0.22 2.3,2.3 0 0 0 0.38,-0.33 l 0.57,-3 h -0.23 -0.26 -0.3 a 0.9,0.9 0 0 0 -0.61,0.26 2.28,2.28 0 0 0 -0.47,0.67 4.51,4.51 0 0 0 -0.31,0.92 5.05,5.05 0 0 0 -0.11,1 1.41,1.41 0 0 0 0.12,0.63 0.43,0.43 0 0 0 0.42,0.17 z"
     id="path81"
     inkscape:connector-curvature="0"
     style="fill:#0054a6" />
  <path
     class="cls-2"
     d="m 99.04,26.591594 a 3.91,3.91 0 0 1 0.57,-0.31 5.24,5.24 0 0 1 0.57,-0.22 2.3,2.3 0 0 1 0.63,-0.1 1.84,1.84 0 0 1 0.69,0.11 1.38,1.38 0 0 1 0.41,0.25 0.91,0.91 0 0 1 0.25,0.35 c 0.21,-0.13 0.42,-0.24 0.64,-0.35 a 5.32,5.32 0 0 1 0.62,-0.25 2.17,2.17 0 0 1 0.66,-0.11 2,2 0 0 1 0.79,0.14 1.26,1.26 0 0 1 0.48,0.4 1.22,1.22 0 0 1 0.2,0.58 2.64,2.64 0 0 1 -0.05,0.73 l -0.51,2.66 v 1.75 h -1.57 v -1.75 l 0.44,-2.26 a 1.17,1.17 0 0 0 0,-0.62 c 0,-0.12 -0.21,-0.18 -0.46,-0.18 a 1.1,1.1 0 0 0 -0.38,0.07 1.88,1.88 0 0 0 -0.38,0.15 l -0.42,0.21 -0.84,4.38 h -1.57 l 0.77,-4 a 1.17,1.17 0 0 0 0,-0.62 c -0.06,-0.13 -0.21,-0.19 -0.46,-0.19 a 1.1,1.1 0 0 0 -0.38,0.07 1.88,1.88 0 0 0 -0.38,0.15 l -0.42,0.21 -0.84,4.38 h -1.57 l 1.19,-6.12 h 1.3 z"
     id="path83"
     inkscape:connector-curvature="0"
     style="fill:#0054a6" />
  <path
     class="cls-2"
     d="m 108.65,26.591594 a 3.56,3.56 0 0 1 0.58,-0.31 5.24,5.24 0 0 1 0.57,-0.22 2.3,2.3 0 0 1 0.63,-0.1 1.92,1.92 0 0 1 0.69,0.11 1.53,1.53 0 0 1 0.41,0.25 0.88,0.88 0 0 1 0.24,0.35 l 0.64,-0.35 c 0.19,-0.09 0.4,-0.17 0.62,-0.25 a 2.29,2.29 0 0 1 0.67,-0.11 1.91,1.91 0 0 1 0.78,0.14 1.13,1.13 0 0 1 0.48,0.4 1.22,1.22 0 0 1 0.2,0.58 2.62,2.62 0 0 1 0,0.73 l -0.52,2.66 v 1.75 h -1.56 v -1.75 l 0.44,-2.26 a 1.14,1.14 0 0 0 0,-0.62 c 0,-0.12 -0.2,-0.18 -0.46,-0.18 a 1.14,1.14 0 0 0 -0.38,0.07 2,2 0 0 0 -0.37,0.15 l -0.42,0.21 -0.85,4.38 h -1.56 l 0.77,-4 a 1.14,1.14 0 0 0 0,-0.62 c 0,-0.13 -0.2,-0.19 -0.46,-0.19 a 1.14,1.14 0 0 0 -0.38,0.07 2.15,2.15 0 0 0 -0.38,0.15 l -0.41,0.21 -0.85,4.38 h -1.57 l 1.19,-6.12 h 1.3 z"
     id="path85"
     inkscape:connector-curvature="0"
     style="fill:#0054a6" />
  <g
     class="cls-3"
     clip-path="url(#clip-path)"
     id="g187"
     transform="translate(0,-4.9984058)">
    <polygon
       class="cls-4"
       points="95.47,29.43 100.7,29.43 99.72,34.66 94.49,34.66 "
       id="polygon87"
       style="fill:#c0d735" />
    <polygon
       class="cls-4"
       points="96.8,22.11 102.03,22.11 101.05,27.34 95.83,27.34 "
       id="polygon89"
       style="fill:#c0d735" />
    <polygon
       class="cls-4"
       points="98.16,14.73 103.39,14.73 102.41,19.96 97.18,19.96 "
       id="polygon91"
       style="fill:#c0d735" />
    <polygon
       class="cls-4"
       points="99.51,7.33 104.74,7.33 103.76,12.55 98.53,12.55 "
       id="polygon93"
       style="fill:#c0d735" />
    <polygon
       class="cls-4"
       points="100.86,0.01 106.09,0.01 105.11,5.24 99.89,5.24 "
       id="polygon95"
       style="fill:#c0d735" />
    <polygon
       class="cls-4"
       points="102.54,29.43 107.77,29.43 106.79,34.66 101.56,34.66 "
       id="polygon97"
       style="fill:#c0d735" />
    <polygon
       class="cls-5"
       points="103.87,22.11 109.1,22.11 108.12,27.34 102.89,27.34 "
       id="polygon99"
       style="fill:#ed1b2f" />
    <polygon
       class="cls-6"
       points="105.23,14.73 110.46,14.73 109.48,19.96 104.25,19.96 "
       id="polygon101"
       style="fill:#00abe6" />
    <polygon
       class="cls-7"
       points="106.58,7.33 111.81,7.33 110.83,12.55 105.6,12.55 "
       id="polygon103"
       style="fill:#90b43e" />
    <polygon
       class="cls-4"
       points="107.93,0.01 113.16,0.01 112.18,5.24 106.95,5.24 "
       id="polygon105"
       style="fill:#c0d735" />
    <polygon
       class="cls-4"
       points="109.62,29.45 114.85,29.45 113.87,34.67 108.65,34.67 "
       id="polygon107"
       style="fill:#c0d735" />
    <polygon
       class="cls-2"
       points="110.95,22.13 116.18,22.13 115.2,27.35 109.98,27.35 "
       id="polygon109"
       style="fill:#0054a6" />
    <polygon
       class="cls-8"
       points="112.31,14.75 117.54,14.75 116.56,19.97 111.34,19.97 "
       id="polygon111"
       style="fill:#f99d1c" />
    <polygon
       class="cls-2"
       points="113.66,7.34 118.89,7.34 117.91,12.57 112.69,12.57 "
       id="polygon113"
       style="fill:#0054a6" />
    <polygon
       class="cls-7"
       points="115.02,0.02 120.24,0.02 119.27,5.25 114.04,5.25 "
       id="polygon115"
       style="fill:#90b43e" />
    <polygon
       class="cls-4"
       points="116.71,29.45 121.94,29.45 120.96,34.67 115.73,34.67 "
       id="polygon117"
       style="fill:#c0d735" />
    <polygon
       class="cls-8"
       points="118.04,22.13 123.27,22.13 122.29,27.35 117.06,27.35 "
       id="polygon119"
       style="fill:#f99d1c" />
    <polygon
       class="cls-9"
       points="119.39,14.75 124.62,14.75 123.64,19.97 118.42,19.97 "
       id="polygon121"
       style="fill:#ffdd00" />
    <polygon
       class="cls-5"
       points="120.75,7.34 125.97,7.34 124.99,12.57 119.77,12.57 "
       id="polygon123"
       style="fill:#ed1b2f" />
    <polygon
       class="cls-8"
       points="122.1,0.02 127.33,0.02 126.35,5.25 121.12,5.25 "
       id="polygon125"
       style="fill:#f99d1c" />
    <polygon
       class="cls-4"
       points="123.79,29.43 129.02,29.43 128.04,34.66 122.81,34.66 "
       id="polygon127"
       style="fill:#c0d735" />
    <polygon
       class="cls-2"
       points="125.12,22.11 130.35,22.11 129.37,27.34 124.14,27.34 "
       id="polygon129"
       style="fill:#0054a6" />
    <polygon
       class="cls-7"
       points="126.48,14.73 131.71,14.73 130.73,19.96 125.5,19.96 "
       id="polygon131"
       style="fill:#90b43e" />
    <polygon
       class="cls-6"
       points="127.83,7.33 133.06,7.33 132.08,12.55 126.85,12.55 "
       id="polygon133"
       style="fill:#00abe6" />
    <polygon
       class="cls-9"
       points="129.18,0.01 134.41,0.01 133.43,5.24 128.2,5.24 "
       id="polygon135"
       style="fill:#ffdd00" />
    <polygon
       class="cls-4"
       points="130.86,29.45 136.09,29.45 135.11,34.67 129.88,34.67 "
       id="polygon137"
       style="fill:#c0d735" />
    <polygon
       class="cls-6"
       points="132.19,22.13 137.42,22.13 136.44,27.35 131.21,27.35 "
       id="polygon139"
       style="fill:#00abe6" />
    <polygon
       class="cls-5"
       points="133.55,14.75 138.78,14.75 137.8,19.97 132.57,19.97 "
       id="polygon141"
       style="fill:#ed1b2f" />
    <polygon
       class="cls-7"
       points="134.9,7.34 140.13,7.34 139.15,12.57 133.92,12.57 "
       id="polygon143"
       style="fill:#90b43e" />
    <polygon
       class="cls-2"
       points="136.25,0.02 141.48,0.02 140.5,5.25 135.27,5.25 "
       id="polygon145"
       style="fill:#0054a6" />
    <polygon
       class="cls-4"
       points="137.94,29.43 143.17,29.43 142.19,34.66 136.97,34.66 "
       id="polygon147"
       style="fill:#c0d735" />
    <polygon
       class="cls-5"
       points="139.27,22.11 144.5,22.11 143.52,27.34 138.3,27.34 "
       id="polygon149"
       style="fill:#ed1b2f" />
    <polygon
       class="cls-8"
       points="140.63,14.73 145.86,14.73 144.88,19.96 139.66,19.96 "
       id="polygon151"
       style="fill:#f99d1c" />
    <polygon
       class="cls-9"
       points="141.98,7.33 147.21,7.33 146.23,12.55 141,12.55 "
       id="polygon153"
       style="fill:#ffdd00" />
    <polygon
       class="cls-5"
       points="143.33,0.01 148.56,0.01 147.58,5.24 142.36,5.24 "
       id="polygon155"
       style="fill:#ed1b2f" />
    <polygon
       class="cls-4"
       points="145.03,29.45 150.25,29.45 149.28,34.67 144.05,34.67 "
       id="polygon157"
       style="fill:#c0d735" />
    <polygon
       class="cls-4"
       points="146.36,22.13 151.59,22.13 150.61,27.35 145.38,27.35 "
       id="polygon159"
       style="fill:#c0d735" />
    <polygon
       class="cls-2"
       points="147.72,14.75 152.94,14.75 151.96,19.97 146.74,19.97 "
       id="polygon161"
       style="fill:#0054a6" />
    <polygon
       class="cls-6"
       points="149.06,7.34 154.29,7.34 153.31,12.57 148.09,12.57 "
       id="polygon163"
       style="fill:#00abe6" />
    <polygon
       class="cls-4"
       points="150.42,0.02 155.65,0.02 154.67,5.25 149.44,5.25 "
       id="polygon165"
       style="fill:#c0d735" />
    <polygon
       class="cls-4"
       points="152.09,29.44 157.32,29.44 156.34,34.67 151.11,34.67 "
       id="polygon167"
       style="fill:#c0d735" />
    <polygon
       class="cls-4"
       points="153.42,22.12 158.65,22.12 157.67,27.35 152.44,27.35 "
       id="polygon169"
       style="fill:#c0d735" />
    <polygon
       class="cls-4"
       points="154.78,14.74 160.01,14.74 159.03,19.97 153.8,19.97 "
       id="polygon171"
       style="fill:#c0d735" />
    <polygon
       class="cls-4"
       points="156.13,7.34 161.35,7.34 160.38,12.56 155.15,12.56 "
       id="polygon173"
       style="fill:#c0d735" />
    <polygon
       class="cls-4"
       points="157.48,0.02 162.71,0.02 161.73,5.24 156.5,5.24 "
       id="polygon175"
       style="fill:#c0d735" />
    <polygon
       class="cls-4"
       points="159.16,29.42 164.39,29.42 163.41,34.65 158.19,34.65 "
       id="polygon177"
       style="fill:#c0d735" />
    <polygon
       class="cls-4"
       points="160.5,22.11 165.72,22.11 164.75,27.33 159.52,27.33 "
       id="polygon179"
       style="fill:#c0d735" />
    <polygon
       class="cls-4"
       points="161.85,14.72 167.08,14.72 166.1,19.95 160.88,19.95 "
       id="polygon181"
       style="fill:#c0d735" />
    <polygon
       class="cls-4"
       points="163.2,7.32 168.43,7.32 167.45,12.54 162.23,12.54 "
       id="polygon183"
       style="fill:#c0d735" />
    <polygon
       class="cls-4"
       points="164.56,0 169.78,0 168.81,5.23 163.58,5.23 "
       id="polygon185"
       style="fill:#c0d735" />
  </g>
</svg>
