<?xml version="1.0" encoding="UTF-8"?>
<svg width="75px" height="61px" viewBox="0 0 75 61" version="1.1" xmlns="http://www.w3.org/2000/svg" xmlns:xlink="http://www.w3.org/1999/xlink">
    <title>LOGO_BRIDGE</title>
    <g id="LOGO_BRIDGE" stroke="none" stroke-width="1" fill="none" fill-rule="evenodd">
        <g id="bridge_Logo_orange-blau_2024" transform="translate(9.2737, 8)">
            <path d="M31.8891508,3.05869986 C31.8891508,3.05869986 29.1113169,1.22395773 24.6035913,0.562528546 C26.1791589,1.25937637 27.6765806,2.11532701 29.0930454,3.10283262 C30.0735235,3.02749772 31.0191451,3.0117561 31.8891508,3.05869986 M26.3610308,3.47810162 C23.8960617,2.03746221 21.1907517,1.04602119 18.3358963,0.545381423 C17.9072182,0.604412502 17.4762913,0.666535684 17.0332771,0.7533957 C3.97026168,3.3147823 0.0430083572,14.7187434 0.0430083572,14.7187434 L14.6613522,14.7179001 C15.1926319,7.80901508 20.8745137,4.56764667 26.3610308,3.47810162" id="Fill-1" fill="#004B70"></path>
            <path d="M56.624297,28.2883017 C55.3256133,11.1785653 41.1868267,2.41863431 32.7855799,0.779256934 C28.6964127,-0.018505926 25.4581364,-0.0719149969 23.3214925,0.0492392641 C34.0586835,4.13278439 41.8086208,15.2176965 41.9314616,28.2883017 L56.624297,28.2883017" id="Fill-2" fill="#EBA248"></path>
            <path d="M2.12146452,44.8802512 C3.12274405,44.8802512 3.44741498,44.8032297 3.94327604,44.4529787 C4.42170888,44.1195936 4.67835352,43.5641393 4.67835352,42.9564003 C4.67835352,42.2289125 4.32754025,41.7248995 3.63547113,41.485402 C4.11418507,41.2206055 4.37054861,40.7416104 4.37054861,40.2021788 C4.37054861,39.3470715 3.77236701,38.7916171 3.05443666,38.6294222 C2.83208626,38.5779809 2.49813902,38.5524007 2.04416192,38.5524007 L0.0179904239,38.5524007 L0.0179904239,44.8802512 L2.12146452,44.8802512 Z M1.56516688,40.9558089 L1.56516688,39.9711143 L2.21535204,39.9711143 C2.61816888,39.9711143 2.82337215,40.1167243 2.82337215,40.4506716 C2.82337215,40.7843377 2.60945477,40.9558089 2.20720013,40.9558089 L1.56516688,40.9558089 Z M1.56516688,43.4615377 L1.56516688,42.305934 L2.40368929,42.305934 C2.88324653,42.305934 3.13117706,42.4855572 3.13117706,42.8537986 C3.13117706,43.2647674 2.84895229,43.4615377 2.39497518,43.4615377 L1.56516688,43.4615377 Z M9.31341758,44.8802512 L9.31341758,43.4615377 L7.44072689,43.4615377 L7.44072689,38.5524007 L5.82524304,38.5524007 L5.82524304,44.8802512 L9.31341758,44.8802512 Z M13.6238107,44.8802512 L13.6238107,43.4615377 L11.6569514,43.4615377 L11.6569514,42.3742414 L13.5642174,42.3742414 L13.5642174,40.9558089 L11.6569514,40.9558089 L11.6569514,39.9711143 L13.6238107,39.9711143 L13.6238107,38.5524007 L10.1097749,38.5524007 L10.1097749,44.8802512 L13.6238107,44.8802512 Z M14.949199,44.8802512 L16.5646828,44.8802512 L16.5646828,38.5524007 L14.949199,38.5524007 L14.949199,44.8802512 Z M20.07141,44.8802512 C21.0724084,44.8802512 21.3976415,44.8032297 21.8929404,44.4529787 C22.3719354,44.1195936 22.628299,43.5641393 22.628299,42.9564003 C22.628299,42.2289125 22.2777668,41.7248995 21.5854166,41.485402 C22.0641305,41.2206055 22.3204941,40.7416104 22.3204941,40.2021788 C22.3204941,39.3470715 21.7223125,38.7916171 21.0043821,38.6294222 C20.7820317,38.5779809 20.4478034,38.5524007 19.9943885,38.5524007 L17.968217,38.5524007 L17.968217,44.8802512 L20.07141,44.8802512 Z M19.5148312,40.9558089 L19.5148312,39.9711143 L20.1655786,39.9711143 C20.5681143,39.9711143 20.7735987,40.1167243 20.7735987,40.4506716 C20.7735987,40.7843377 20.5594002,40.9558089 20.1571456,40.9558089 L19.5148312,40.9558089 Z M19.5148312,43.4615377 L19.5148312,42.305934 L20.3539158,42.305934 C20.833192,42.305934 21.0814036,42.4855572 21.0814036,42.8537986 C21.0814036,43.2647674 20.7988977,43.4615377 20.3452017,43.4615377 L19.5148312,43.4615377 Z M27.2678606,44.8802512 L27.2678606,43.4615377 L25.3010013,43.4615377 L25.3010013,42.3742414 L27.2079863,42.3742414 L27.2079863,40.9558089 L25.3010013,40.9558089 L25.3010013,39.9711143 L27.2678606,39.9711143 L27.2678606,38.5524007 L23.7538249,38.5524007 L23.7538249,44.8802512 L27.2678606,44.8802512 Z M33.4605019,44.8802512 L31.7429786,42.7250547 C32.7172725,42.5541456 33.3154541,41.7338948 33.3154541,40.7326152 C33.3154541,39.8342184 32.836459,39.0907079 32.153104,38.7831841 C31.819719,38.6378552 31.3145816,38.5524007 30.6556823,38.5524007 L28.5870647,38.5524007 L28.5870647,44.8802512 L30.13396,44.8802512 L30.13396,42.8360893 L30.1511072,42.8360893 L31.6145157,44.8802512 L33.4605019,44.8802512 Z M30.13396,41.7338948 L30.13396,39.9711143 L30.7501321,39.9711143 C31.3578711,39.9711143 31.7685587,40.2792003 31.7685587,40.8267839 C31.7685587,41.4345229 31.3747371,41.7338948 30.7329849,41.7338948 L30.13396,41.7338948 Z M37.9471449,44.8802512 L37.9471449,43.4615377 L35.9805667,43.4615377 L35.9805667,42.3742414 L37.8875516,42.3742414 L37.8875516,40.9558089 L35.9805667,40.9558089 L35.9805667,39.9711143 L37.9471449,39.9711143 L37.9471449,38.5524007 L34.4333903,38.5524007 L34.4333903,44.8802512 L37.9471449,44.8802512 Z M45.4463407,40.9546845 C45.335306,40.3044994 44.9760598,39.7231838 44.377316,39.2104567 C43.744559,38.6718684 43.0432136,38.432652 42.170678,38.432652 C40.3578617,38.432652 38.9132869,39.9455342 38.9132869,41.6222979 C38.9132869,42.5805691 39.2039447,43.3845162 39.8875808,44.0512862 C40.5372038,44.6921951 41.366731,45 42.2476995,45 C43.744559,45 45.0530813,44.0341391 45.4463407,42.5122617 L43.752992,42.5122617 C43.419607,43.2220401 42.8720235,43.5812864 42.2305524,43.5812864 C41.2301162,43.5812864 40.5287708,42.7261791 40.5287708,41.6993194 C40.5287708,40.715187 41.2129691,39.8513656 42.2221194,39.8513656 C42.8807376,39.8513656 43.4794814,40.2617721 43.752992,40.9546845 L45.4463407,40.9546845 Z M51.8084854,44.8802512 L51.8084854,38.5524007 L50.1932827,38.5524007 L50.1932827,40.9299477 L48.1224163,40.9299477 L48.1224163,38.5524007 L46.5069324,38.5524007 L46.5069324,44.8802512 L48.1224163,44.8802512 L48.1224163,42.3486613 L50.1932827,42.3486613 L50.1932827,44.8802512 L51.8084854,44.8802512 Z M55.4861216,44.8802512 L55.4861216,39.9711143 L56.7263365,39.9711143 L56.7263365,38.5524007 L52.6219899,38.5524007 L52.6219899,39.9711143 L53.8709189,39.9711143 L53.8709189,44.8802512 L55.4861216,44.8802512 L55.4861216,44.8802512 Z" id="Fill-3" fill="#004B70"></path>
            <path d="M1.12355819,35.8299436 C1.62419796,35.8299436 1.78667397,35.7914329 2.0346045,35.6163073 C2.27382092,35.4496148 2.40200269,35.1718876 2.40200269,34.8680181 C2.40200269,34.5042743 2.22687716,34.2521272 1.8805615,34.1326596 C2.12005902,34.0002613 2.24824079,33.7607638 2.24824079,33.4909074 C2.24824079,33.0633537 1.94886889,32.7856266 1.58990371,32.7043886 C1.47886907,32.6788084 1.31189544,32.6661589 1.08504744,32.6661589 L0.0719616956,32.6661589 L0.0719616956,35.8299436 L1.12355819,35.8299436 Z M0.845268823,33.8675819 L0.845268823,33.3753752 L1.17078306,33.3753752 C1.37176982,33.3753752 1.47465256,33.4481801 1.47465256,33.6151538 C1.47465256,33.7821274 1.36755332,33.8675819 1.16628545,33.8675819 L0.845268823,33.8675819 Z M0.845268823,35.1207274 L0.845268823,34.542785 L1.26495168,34.542785 C1.5044492,34.542785 1.62841446,34.6327371 1.62841446,34.8165768 C1.62841446,35.0220611 1.48730208,35.1207274 1.26045408,35.1207274 L0.845268823,35.1207274 Z M4.73091929,35.8299436 L4.73091929,35.1207274 L3.74734908,35.1207274 L3.74734908,34.5770792 L4.70084155,34.5770792 L4.70084155,33.8675819 L3.74734908,33.8675819 L3.74734908,33.3753752 L4.73091929,33.3753752 L4.73091929,32.6661589 L2.97376085,32.6661589 L2.97376085,35.8299436 L4.73091929,35.8299436 Z M7.83286191,35.8299436 L6.97381917,34.7524859 C7.46096612,34.6670314 7.76005691,34.2569059 7.76005691,33.7562662 C7.76005691,33.3070678 7.52084049,32.935172 7.17902244,32.7814101 C7.01232992,32.7088862 6.75990178,32.6661589 6.43045215,32.6661589 L5.39572167,32.6661589 L5.39572167,35.8299436 L6.1693099,35.8299436 L6.1693099,34.8078627 L6.17802401,34.8078627 L6.90972828,35.8299436 L7.83286191,35.8299436 Z M6.1693099,34.2569059 L6.1693099,33.3753752 L6.47739591,33.3753752 C6.78126541,33.3753752 6.98674978,33.5294182 6.98674978,33.8032099 C6.98674978,34.1070794 6.78969842,34.2569059 6.4689629,34.2569059 L6.1693099,34.2569059 Z M10.0833515,35.8299436 L10.0833515,35.1207274 L9.14700616,35.1207274 L9.14700616,32.6661589 L8.33912368,32.6661589 L8.33912368,35.8299436 L10.0833515,35.8299436 Z M10.4948824,35.8299436 L11.3024838,35.8299436 L11.3024838,32.6661589 L10.4948824,32.6661589 L10.4948824,35.8299436 Z M14.6807481,35.8299436 L14.6807481,32.6661589 L13.907441,32.6661589 L13.9414541,34.6670314 L12.7093912,32.6661589 L12.0128245,32.6661589 L12.0128245,35.8299436 L12.7864127,35.8299436 L12.7650491,33.8973785 L13.9799649,35.8299436 L14.6807481,35.8299436 Z M17.1566802,35.8299436 L17.1566802,35.1207274 L16.17311,35.1207274 L16.17311,34.5770792 L17.1268836,34.5770792 L17.1268836,33.8675819 L16.17311,33.8675819 L16.17311,33.3753752 L17.1566802,33.3753752 L17.1566802,32.6661589 L15.3998029,32.6661589 L15.3998029,35.8299436 L17.1566802,35.8299436 Z M20.2586228,35.8299436 L19.3998612,34.7524859 C19.8870081,34.6670314 20.1860989,34.2569059 20.1860989,33.7562662 C20.1860989,33.3070678 19.9468825,32.935172 19.6047834,32.7814101 C19.4380908,32.7088862 19.1856627,32.6661589 18.8562131,32.6661589 L17.8217637,32.6661589 L17.8217637,35.8299436 L18.5953519,35.8299436 L18.5953519,34.8078627 L18.6037849,34.8078627 L19.3354892,35.8299436 L20.2586228,35.8299436 Z M18.5953519,34.2569059 L18.5953519,33.3753752 L18.9034379,33.3753752 C19.2073074,33.3753752 19.4125107,33.5294182 19.4125107,33.8032099 C19.4125107,34.1070794 19.2157404,34.2569059 18.8947238,34.2569059 L18.5953519,34.2569059 Z M24.6890458,35.8299436 L24.6890458,32.6661589 L23.9154576,32.6661589 L23.9497518,34.6670314 L22.7176889,32.6661589 L22.0211222,32.6661589 L22.0211222,35.8299436 L22.7944293,35.8299436 L22.7730657,33.8973785 L23.9879815,35.8299436 L24.6890458,35.8299436 Z M27.1649779,35.8299436 L27.1649779,35.1207274 L26.1814077,35.1207274 L26.1814077,34.5770792 L27.1349002,34.5770792 L27.1349002,33.8675819 L26.1814077,33.8675819 L26.1814077,33.3753752 L27.1649779,33.3753752 L27.1649779,32.6661589 L25.4078195,32.6661589 L25.4078195,35.8299436 L27.1649779,35.8299436 Z M28.9758265,35.8299436 L28.9758265,33.3753752 L29.5959339,33.3753752 L29.5959339,32.6661589 L27.5439012,32.6661589 L27.5439012,33.3753752 L28.1682251,33.3753752 L28.1682251,35.8299436 L28.9758265,35.8299436 Z M31.8891508,35.8299436 L31.8891508,35.1207274 L30.8800004,35.1207274 L31.8891508,33.3197173 L31.8891508,32.6661589 L29.8922137,32.6661589 L29.8922137,33.3753752 L30.9826021,33.3753752 L29.8922137,35.3000694 L29.8922137,35.8299436 L31.8891508,35.8299436 Z M35.4175227,35.8299436 L36.2554829,32.6661589 L35.4388863,32.6661589 L35.006835,34.7311223 L34.998402,34.7311223 L34.5407706,32.6661589 L33.9206632,32.6661589 L33.4545988,34.7226892 L33.4461657,34.7226892 L33.0228286,32.6661589 L32.2017344,32.6661589 L33.018331,35.8299436 L33.7497542,35.8299436 L34.2242516,33.7818463 L34.2329657,33.7818463 L34.7074631,35.8299436 L35.4175227,35.8299436 Z M38.4534067,35.8299436 L38.4534067,35.1207274 L37.4698365,35.1207274 L37.4698365,34.5770792 L38.423329,34.5770792 L38.423329,33.8675819 L37.4698365,33.8675819 L37.4698365,33.3753752 L38.4534067,33.3753752 L38.4534067,32.6661589 L36.6962483,32.6661589 L36.6962483,35.8299436 L38.4534067,35.8299436 Z M41.5553493,35.8299436 L40.6963066,34.7524859 C41.1834535,34.6670314 41.4825443,34.2569059 41.4825443,33.7562662 C41.4825443,33.3070678 41.2433279,32.935172 40.9015099,32.7814101 C40.7348173,32.7088862 40.4823892,32.6661589 40.1529396,32.6661589 L39.1182091,32.6661589 L39.1182091,35.8299436 L39.8917973,35.8299436 L39.8917973,34.8078627 L39.9005114,34.8078627 L40.6322157,35.8299436 L41.5553493,35.8299436 Z M39.8917973,34.2569059 L39.8917973,33.3753752 L40.1998833,33.3753752 C40.5037528,33.3753752 40.7092372,33.5294182 40.7092372,33.8032099 C40.7092372,34.1070794 40.5121858,34.2569059 40.1914503,34.2569059 L39.8917973,34.2569059 Z M44.7222261,35.8299436 L43.6062576,34.2436942 L44.6539187,32.6661589 L43.8072444,32.6661589 L42.9133452,34.0896512 L42.9049122,34.0896512 L42.9049122,32.6661589 L42.0973108,32.6661589 L42.0973108,35.8299436 L42.9049122,35.8299436 L42.9049122,34.4618281 L42.9133452,34.4618281 L43.7771667,35.8299436 L44.7222261,35.8299436 Z M46.8906344,35.8299436 L46.8906344,35.1207274 L45.9070642,35.1207274 L45.9070642,34.5770792 L46.8608378,34.5770792 L46.8608378,33.8675819 L45.9070642,33.8675819 L45.9070642,33.3753752 L46.8906344,33.3753752 L46.8906344,32.6661589 L45.1337571,32.6661589 L45.1337571,35.8299436 L46.8906344,35.8299436 Z M49.5720509,35.8299436 L49.5720509,34.624023 L50.4912491,34.624023 L50.4912491,33.9148068 L49.5720509,33.9148068 L49.5720509,33.3753752 L50.5255433,33.3753752 L50.5255433,32.6661589 L48.7984626,32.6661589 L48.7984626,35.8299436 L49.5720509,35.8299436 Z M52.6962004,34.5990051 C52.6962004,35.0437059 52.5680187,35.1806018 52.2939458,35.1806018 C52.0072234,35.1806018 51.8832581,34.988048 51.8832581,34.5945075 L51.8832581,32.6661589 L51.0756568,32.6661589 L51.0756568,34.6074381 C51.0756568,35.2188314 51.2549988,35.5137057 51.6268946,35.7318396 C51.8107343,35.8386577 52.0373012,35.889818 52.3026599,35.889818 C52.7816549,35.889818 53.1364036,35.6891123 53.3458234,35.3515108 C53.4526415,35.1806018 53.5040829,34.9323901 53.5040829,34.6032216 L53.5040829,32.6661589 L52.6962004,32.6661589 L52.6962004,34.5990051 Z M51.4517691,32.3490777 L52.1311887,32.3490777 L52.1311887,31.7039523 L51.4517691,31.7039523 L51.4517691,32.3490777 Z M52.4482699,32.3490777 L53.1276895,32.3490777 L53.1276895,31.7039523 L52.4482699,31.7039523 L52.4482699,32.3490777 Z M56.6456607,35.8299436 L55.7866179,34.7524859 C56.274046,34.6670314 56.5731368,34.2569059 56.5731368,33.7562662 C56.5731368,33.3070678 56.3336393,32.935172 55.9918212,32.7814101 C55.8251287,32.7088862 55.5727006,32.6661589 55.2432509,32.6661589 L54.2088015,32.6661589 L54.2088015,35.8299436 L54.9823898,35.8299436 L54.9823898,34.8078627 L54.9908228,34.8078627 L55.7225271,35.8299436 L56.6456607,35.8299436 Z M54.9823898,34.2569059 L54.9823898,33.3753752 L55.2904758,33.3753752 C55.5940642,33.3753752 55.7995486,33.5294182 55.7995486,33.8032099 C55.7995486,34.1070794 55.6027783,34.2569059 55.2817617,34.2569059 L54.9823898,34.2569059 L54.9823898,34.2569059 Z" id="Fill-4" fill="#004B70"></path>
            <path d="M1.69868956,28.1384752 L1.69868956,27.507686 L1.72005319,27.507686 C1.98737964,28.0102934 2.70390449,28.3417108 3.42071045,28.3417108 C5.24870618,28.3417108 6.41330502,26.9626323 6.41330502,25.1343555 C6.41330502,23.1570955 5.00302445,22.0034595 3.4634377,22.0034595 C2.84304918,22.0034595 2.24402428,22.1743686 1.77346226,22.6764138 L1.77346226,20.2285918 L0,20.2285918 L0,28.1387563 L1.69868956,28.1384752 Z M3.15310289,26.6857485 C2.3297599,26.6857485 1.70937137,26.0335956 1.70937137,25.1565624 C1.70937137,24.3329383 2.35112352,23.6591407 3.17446652,23.6591407 C4.03013606,23.6591407 4.63984277,24.3756656 4.63984277,25.1672442 C4.63984277,26.0226327 3.9874088,26.6857485 3.15310289,26.6857485 L3.15310289,26.6857485 Z M9.21306474,28.1384752 L9.21306474,24.867029 C9.21306474,24.1935125 9.5551639,23.7980043 10.6135068,23.7873225 L10.6135068,22.0034595 C9.9293085,22.0034595 9.43766394,22.206414 9.12761023,22.8372032 L9.1062466,22.8372032 L9.1062466,22.206414 L7.43960249,22.206414 L7.43960249,28.1384752 L9.21306474,28.1384752 Z M11.3868139,21.5742193 L13.1599951,21.5742193 L13.1599951,20.2285918 L11.3868139,20.2285918 L11.3868139,21.5742193 Z M11.3868139,28.1384752 L13.1599951,28.1384752 L13.1599951,22.206414 L11.3868139,22.206414 L11.3868139,28.1384752 Z M20.6487901,28.1387563 L20.6487901,20.2285918 L18.8753279,20.2285918 L18.8753279,22.7084593 C18.3727204,22.206414 17.8167039,22.0034595 17.1319434,22.0034595 C15.400084,22.0034595 14.193039,23.3814136 14.193039,25.1565624 C14.193039,26.9527938 15.3680385,28.3310289 17.1642699,28.3310289 C18.0089765,28.3310289 18.6080014,28.0423389 18.9394188,27.4970041 L18.9607824,27.4970041 L18.9607824,28.1384752 L20.6487901,28.1387563 Z M17.45296,26.6750666 C16.5972905,26.6750666 15.9662201,26.0442774 15.9662201,25.1455995 C15.9662201,24.2795293 16.6293359,23.6591407 17.4636418,23.6591407 C18.340675,23.6591407 18.9714642,24.3222565 18.9714642,25.1455995 C18.9714642,26.0226327 18.3193113,26.6750666 17.45296,26.6750666 L17.45296,26.6750666 Z M26.3256122,27.6153474 C26.3256122,28.6947728 25.7802775,29.2836781 24.8818807,29.2836781 C24.4433641,29.2836781 24.0475748,29.1338516 23.8443392,28.6947728 L21.7928687,28.6947728 C21.9424141,29.8284506 23.0319591,30.7791321 24.7106905,30.7791321 C26.1974304,30.7791321 27.3620293,30.1489051 27.7893018,29.3264054 C28.0029381,28.9196531 28.1097563,28.3096653 28.1097563,27.5082482 L28.1097563,22.206414 L26.3365751,22.206414 L26.3365751,22.7618683 L26.3149304,22.7618683 C26.0262403,22.3025503 25.4378972,22.0141414 24.6679633,22.0141414 C22.9571864,22.0141414 21.6860505,23.3932198 21.6860505,25.2105337 C21.6860505,26.9955211 22.9358228,28.3310289 24.6679633,28.3310289 C25.3951699,28.3310289 26.0582857,28.0105745 26.3256122,27.4444384 L26.3256122,27.6153474 Z M24.8818807,26.6750666 C24.0262111,26.6750666 23.4592317,25.9801865 23.4592317,25.1464428 C23.4592317,24.3329383 24.090302,23.6698226 24.8818807,23.6698226 C25.748232,23.6698226 26.3365751,24.3329383 26.3365751,25.1992897 C26.3365751,26.0549592 25.748232,26.6750666 24.8818807,26.6750666 L24.8818807,26.6750666 Z M35.2955251,25.7117357 C35.3275705,25.5515085 35.3382524,25.4126449 35.3382524,25.2417358 C35.3382524,23.4024961 33.9805376,22.0034595 32.2059509,22.0034595 C30.4634097,22.0034595 29.0950131,23.4772688 29.0950131,25.1883268 C29.0950131,26.9530749 30.5275006,28.3310289 32.2379963,28.3310289 C33.488893,28.3310289 34.5685995,27.5726201 35.1352979,26.2789962 L33.3177029,26.2789962 C33.0292939,26.653703 32.7192402,26.835575 32.2379963,26.835575 C31.5110708,26.835575 30.9443724,26.3860955 30.8482361,25.7117357 L35.2955251,25.7117357 Z M30.8695997,24.5156536 C31.0087444,23.884021 31.5644798,23.4986324 32.2059509,23.4986324 C32.8901492,23.4986324 33.4248021,23.9053847 33.5636657,24.5156536 L30.8695997,24.5156536 L30.8695997,24.5156536 Z" id="Fill-5" fill="#004B70"></path>
        </g>
    </g>
</svg>