<svg xmlns="http://www.w3.org/2000/svg" width="103" height="20" viewBox="0 0 103 20" xmlns:xlink="http://www.w3.org/1999/xlink">
  <defs>
    <polygon id="a" points=".011 .017 35.74 .017 35.74 20 .011 20"/>
  </defs>
  <g fill="none" fill-rule="evenodd">
    <polygon fill="#BD242A" points="4.787 9.291 15.346 9.291 15.346 6.539 4.787 6.539"/>
    <polygon fill="#BD242A" points="4.787 13.479 15.346 13.479 15.346 10.727 4.787 10.727"/>
    <polygon fill="#005C9C" points="66.921 5.954 67.944 5.954 67.944 4.94 66.921 4.94"/>
    <polygon fill="#005C9C" points="68.752 5.956 69.775 5.956 69.775 4.941 68.752 4.941"/>
    <path fill="#005C9C" d="M19.6160979,12.5560714 L19.6160979,7.46339286 L20.757201,7.46339286 C21.6843811,7.46339286 22.0207517,7.51535714 22.4995577,7.755 C23.2943864,8.16107143 23.7631084,8.98375 23.7631084,9.98375 C23.7631084,10.8585714 23.386042,11.6294643 22.7340087,12.0876786 C22.2548427,12.4207143 21.7353409,12.5560714 20.8692045,12.5560714 L19.6160979,12.5560714 Z M18.5969021,6.53625 L18.5969021,13.4832143 L20.8589406,13.4832143 C21.959528,13.4832143 22.683049,13.2958929 23.3350822,12.8476786 C24.2622622,12.2230357 24.8125559,11.1501786 24.8125559,9.99410714 C24.8125559,8.65053571 24.0584231,7.40089286 22.9173199,6.86982143 C22.3162465,6.58839286 21.9696119,6.53625 20.7265892,6.53625 L18.5969021,6.53625 L18.5969021,6.53625 Z"/>
    <polyline fill="#005C9C" points="25.792 6.536 25.792 13.483 29.705 13.483 29.705 12.556 26.812 12.556 26.812 10.452 29.512 10.452 29.512 9.526 26.812 9.526 26.812 7.463 29.613 7.463 29.613 6.536 25.792 6.536"/>
    <path fill="#005C9C" d="M31.6420682 9.52553571L31.6420682 7.46339286 32.3247133 7.46339286C33.0480542 7.46339286 33.4966084 7.84857143 33.4966084 8.46321429 33.4966084 9.16107143 33.0583182 9.52553571 32.2127098 9.52553571L31.6420682 9.52553571zM30.6232325 6.53625L30.6232325 13.4832143 31.6420682 13.4832143 31.6420682 10.4523214C32.6713479 10.4523214 32.8953549 10.64 33.9347185 12.3482143 34.2199493 12.8271429 34.4338724 13.1707143 34.4646643 13.2230357 34.5053601 13.2853571 34.5664038 13.36875 34.6377115 13.4832143L35.8196906 13.4832143C35.5854196 13.1916071 35.4528881 13.0148214 35.3203566 12.7751786L35.1676573 12.5041071 34.8415507 11.9625C34.6479755 11.6398214 34.4034406 11.2441071 34.2402972 11.0044643 33.9143706 10.5460714 33.7717552 10.3898214 33.4557325 10.1503571 34.1383776 9.89 34.5460559 9.27553571 34.5460559 8.49446429 34.5460559 7.26535714 33.7105315 6.53625 32.2942815 6.53625L30.6232325 6.53625 30.6232325 6.53625zM40.5807395 9.46303571L40.5807395 7.76535714 41.2327727 7.76535714C41.89525 7.76535714 42.2415245 8.05696429 42.2415245 8.60892857 42.2415245 9.16107143 41.884986 9.46303571 41.2327727 9.46303571L40.5807395 9.46303571zM39.042222 6.53625L39.042222 13.4832143 40.5807395 13.4832143 40.5807395 10.6919643 41.6406311 10.6919643C42.9549615 10.6919643 43.8720577 9.86928571 43.8720577 8.68178571 43.8720577 7.42160714 42.9549615 6.53625 41.660979 6.53625L39.042222 6.53625 39.042222 6.53625zM47.8260332 10.9835714L45.6965262 10.9835714 46.68475 8.1925 47.8260332 10.9835714zM47.5915822 6.53625L45.8697535 6.53625 43.2612605 13.4832143 44.789514 13.4832143 45.3091958 12.0667857 48.2641434 12.0667857 48.834785 13.4832143 50.485486 13.4832143 47.5915822 6.53625 47.5915822 6.53625zM52.6567692 9.44214286L52.6567692 7.76535714 53.3394143 7.76535714C53.9505717 7.76535714 54.2766783 8.04660714 54.2766783 8.58821429 54.2766783 9.12982143 53.9302238 9.44214286 53.3394143 9.44214286L52.6567692 9.44214286zM51.1178916 6.53625L51.1178916 13.4832143 52.6567692 13.4832143 52.6567692 10.64 52.8092885 10.64C53.3696661 10.64 53.7674406 10.9733929 54.113535 11.7228571L54.9184476 13.4832143 56.732292 13.4832143C56.5693287 13.2853571 56.4168094 12.9833929 56.1618304 12.36875 55.6423287 11.1292857 55.3464738 10.6503571 54.8271521 10.2441071 55.6113566 9.81714286 55.9072115 9.35892857 55.9072115 8.57767857 55.9072115 7.32785714 54.9899353 6.53625 53.5430734 6.53625L51.1178916 6.53625 51.1178916 6.53625z"/>
    <polygon fill="#005C9C" points="57.384 13.483 58.923 13.483 58.923 6.536 57.384 6.536"/>
    <polyline fill="#005C9C" points="59.991 6.536 59.991 7.765 62.071 7.765 62.071 13.483 63.609 13.483 63.609 7.765 65.689 7.765 65.689 6.536 59.991 6.536"/>
    <path fill="#005C9C" d="M69.3996713,10.9835714 L67.2701643,10.9835714 L68.2583881,8.1925 L69.3996713,10.9835714 Z M69.1655804,6.53625 L67.4435717,6.53625 L64.8350787,13.4832143 L66.3631521,13.4832143 L66.883014,12.0667857 L69.8379615,12.0667857 L70.4084231,13.4832143 L72.0593042,13.4832143 L69.1655804,6.53625 L69.1655804,6.53625 Z"/>
    <polyline fill="#005C9C" points="71.134 6.536 71.134 7.765 73.213 7.765 73.213 13.483 74.752 13.483 74.752 7.765 76.831 7.765 76.831 6.536 71.134 6.536"/>
    <polygon fill="#005C9C" points="78.135 13.483 79.154 13.483 79.154 6.536 78.135 6.536"/>
    <path fill="#005C9C" d="M83.973451 6.91125C83.4026294 6.57821429 82.9749633 6.45303571 82.4347535 6.45303571 81.2731224 6.45303571 80.4170699 7.23410714 80.4170699 8.29642857 80.4170699 9.06732143 80.8348322 9.62982143 81.8842797 10.2441071 82.6996364 10.7333929 82.6587605 10.7023214 82.9133794 10.9210714 83.2092343 11.1816071 83.3414056 11.42125 83.3414056 11.7228571 83.3414056 12.2644643 82.9240035 12.6189286 82.2816941 12.6189286 81.6705367 12.6189286 81.2016346 12.3482143 80.5189895 11.6189286L80.5189895 12.9105357C81.1306871 13.36875 81.6705367 13.5664286 82.302222 13.5664286 83.4638531 13.5664286 84.2892937 12.7855357 84.2892937 11.6814286 84.2892937 10.7023214 83.8918794 10.1816071 82.5469371 9.40053571 81.6501888 8.89017857 81.375042 8.59857143 81.375042 8.17160714 81.375042 7.74446429 81.8336801 7.39035714 82.3735297 7.39035714 82.9643392 7.39035714 83.4332413 7.60928571 83.973451 8.11946429L83.973451 6.91125M90.9230699 7.03625C90.0464895 6.61982143 89.3944563 6.45303571 88.6201556 6.45303571 86.5109965 6.45303571 84.9314231 7.98410714 84.9314231 10.0358929 84.9314231 12.0458929 86.4598566 13.5664286 88.4773601 13.5664286 89.3843724 13.5664286 90.2604126 13.3373214 90.9943776 12.9105357L90.9943776 11.8376786C90.0771014 12.3998214 89.3741084 12.6289286 88.5996276 12.6289286 87.081458 12.6289286 85.9808706 11.5355357 85.9808706 10.04625 85.9808706 8.53607143 87.1120699 7.39035714 88.6098916 7.39035714 89.3231486 7.39035714 89.9343059 7.58839286 90.9230699 8.15071429L90.9230699 7.03625"/>
    <polyline fill="#005C9C" points="93.093 9.526 93.093 6.536 92.074 6.536 92.074 13.483 93.093 13.483 93.093 10.452 96.802 10.452 96.802 13.483 97.821 13.483 97.821 6.536 96.802 6.536 96.802 9.526 93.093 9.526"/>
    <polyline fill="#005C9C" points="99.085 6.536 99.085 13.483 102.997 13.483 102.997 12.556 100.103 12.556 100.103 10.452 102.804 10.452 102.804 9.526 100.103 9.526 100.103 7.463 102.905 7.463 102.905 6.536 99.085 6.536"/>
    <path fill="#BD242A" d="M19.1943741,19.4858929 L19.1943741,18.3373214 L19.7506101,18.3373214 C20.3525839,18.3373214 20.633493,18.51375 20.633493,18.8946429 C20.633493,19.2926786 20.3583462,19.4858929 19.7850035,19.4858929 L19.1943741,19.4858929 Z M19.1943741,17.83125 L19.1943741,16.7055357 L19.6301434,16.7055357 C20.1060682,16.7055357 20.3181906,16.8648214 20.3181906,17.2285714 C20.3181906,17.4448214 20.203486,17.6492857 20.025757,17.7403571 C19.9052902,17.8030357 19.7506101,17.83125 19.4983322,17.83125 L19.1943741,17.83125 Z M18.6210315,16.1994643 L18.6210315,19.9919643 L19.7275612,19.9919643 C20.203486,19.9919643 20.5130262,19.9180357 20.7653042,19.7589286 C21.0577378,19.57125 21.2241224,19.2641071 21.2241224,18.9173214 C21.2241224,18.4398214 20.8972955,18.0814286 20.3696906,17.9676786 C20.7138042,17.8198214 20.8972955,17.5469643 20.8972955,17.1832143 C20.8972955,16.5805357 20.432715,16.1994643 19.7046923,16.1994643 L18.6210315,16.1994643 L18.6210315,16.1994643 Z"/>
    <polyline fill="#BD242A" points="21.865 16.199 21.865 19.992 24.067 19.992 24.067 19.486 22.439 19.486 22.439 18.337 23.958 18.337 23.958 17.831 22.439 17.831 22.439 16.706 24.015 16.706 24.015 16.199 21.865 16.199"/>
    <path fill="#BD242A" d="M25.2638112,17.83125 L25.2638112,16.7055357 L25.6479003,16.7055357 C26.0550385,16.7055357 26.3073164,16.9157143 26.3073164,17.25125 C26.3073164,17.6325 26.0608007,17.83125 25.5848759,17.83125 L25.2638112,17.83125 Z M24.6904685,16.1994643 L24.6904685,19.9919643 L25.2638112,19.9919643 L25.2638112,18.3373214 C25.8429161,18.3373214 25.968965,18.4398214 26.5538322,19.3721429 C26.7142745,19.63375 26.8347413,19.8214286 26.852028,19.85 C26.8748969,19.88375 26.9092902,19.9294643 26.9494458,19.9919643 L27.6144441,19.9919643 C27.4828129,19.8328571 27.4080839,19.73625 27.333535,19.6055357 L27.2476416,19.4576786 L27.0641503,19.1617857 C26.955208,18.9857143 26.8176346,18.7694643 26.725799,18.63875 C26.5423077,18.3885714 26.4621766,18.3032143 26.2842675,18.1723214 C26.6685367,18.0303571 26.8979458,17.695 26.8979458,17.2683929 C26.8979458,16.5973214 26.4276031,16.1994643 25.6307937,16.1994643 L24.6904685,16.1994643 L24.6904685,16.1994643 Z"/>
    <polyline fill="#BD242A" points="28.026 16.199 28.026 19.992 30.285 19.992 30.285 19.486 28.599 19.486 28.599 16.199 28.026 16.199"/>
    <polygon fill="#BD242A" points="30.799 19.992 31.373 19.992 31.373 16.199 30.799 16.199"/>
    <mask id="b" fill="white">
      <use xlink:href="#a"/>
    </mask>
    <polyline fill="#BD242A" points="35.167 16.199 35.167 19.088 32.713 16.199 32.191 16.199 32.191 19.992 32.765 19.992 32.765 17.086 35.241 19.992 35.74 19.992 35.74 16.199 35.167 16.199" mask="url(#b)"/>
    <polyline fill="#005C9C" points="0 20 0 .017 20.151 .017 20.151 5.858 19.622 5.858 19.622 .541 .528 .541 .528 19.476 17.461 19.476 17.461 20 0 20" mask="url(#b)"/>
  </g>
</svg>
