<?xml version="1.0" encoding="UTF-8"?>
<svg width="158px" height="61px" viewBox="0 0 158 61" version="1.1" xmlns="http://www.w3.org/2000/svg" xmlns:xlink="http://www.w3.org/1999/xlink">
    <title>LOGO_A_MBB</title>
    <g id="LOGO_A_MBB" stroke="none" stroke-width="1" fill="none" fill-rule="evenodd">
        <g id="231013_Programmmarke_MBE_Pfade-1" transform="translate(18.8578, 8)">
            <path d="M3.70426388,8.22960579 C3.70426388,8.22960579 25.9023331,15.0168946 29.6630732,33.087852 L30.8563154,31.8946098 C30.8563154,31.8946098 28.74642,16.3013677 3.70426388,8.22960579" id="Fill-1" fill="#003B62"></path>
            <path d="M3.70426388,8.22960579 C3.70426388,8.22960579 25.9023331,15.0168946 29.6630732,33.087852 L30.8563154,31.8946098 C30.8563154,31.8946098 28.74642,16.3013677 3.70426388,8.22960579" id="Stroke-2" stroke="#003B62" stroke-width="0.5" stroke-linecap="round"></path>
            <path d="M45.450362,0.337409493 L44.0326629,0.0115848753 C43.8212389,-0.0376508447 43.6981496,0.0926790024 43.7604183,0.299758648 C43.7604183,0.299758648 43.8893001,0.450362027 44.0037007,0.729847144 C44.0138375,0.754465004 22.9308126,6.90024135 12.8548673,18.5082864 C1.8159292,31.2255833 0,41.5332261 0,41.5332261 L0.682059533,43.7401448 C0.682059533,43.7401448 3.14674175,32.1596138 12.3581657,21.0236525 C16.2579244,16.3100563 21.0627514,11.6746581 27.8949316,8.03266291 C38.3010459,2.48640386 44.0876911,0.974577635 44.0934835,0.997747385 C44.1919549,1.37135961 44.1745776,1.67546259 44.1745776,1.67546259 C44.2382944,1.88399035 44.4106195,1.92453741 44.5612228,1.76669348 L45.5633146,0.712469831 C45.7124698,0.554625905 45.661786,0.386645213 45.450362,0.337409493" id="Fill-3" fill="#00B8E0"></path>
            <path d="M45.450362,0.337409493 L44.0326629,0.0115848753 C43.8212389,-0.0376508447 43.6981496,0.0926790024 43.7604183,0.299758648 C43.7604183,0.299758648 43.8893001,0.450362027 44.0037007,0.729847144 C44.0138375,0.754465004 22.9308126,6.90024135 12.8548673,18.5082864 C1.8159292,31.2255833 0,41.5332261 0,41.5332261 L0.682059533,43.7401448 C0.682059533,43.7401448 3.14674175,32.1596138 12.3581657,21.0236525 C16.2579244,16.3100563 21.0627514,11.6746581 27.8949316,8.03266291 C38.3010459,2.48640386 44.0876911,0.974577635 44.0934835,0.997747385 C44.1919549,1.37135961 44.1745776,1.67546259 44.1745776,1.67546259 C44.2382944,1.88399035 44.4106195,1.92453741 44.5612228,1.76669348 L45.5633146,0.712469831 C45.7124698,0.554625905 45.661786,0.386645213 45.450362,0.337409493 Z" id="Stroke-4" stroke="#00B8E0" stroke-width="0.5"></path>
            <path d="M18.7023331,8.64086887 C18.7023331,9.78197908 17.7784393,10.7058729 16.6387772,10.7058729 C15.4976669,10.7058729 14.5752212,9.78197908 14.5752212,8.64086887 C14.5752212,7.50120676 15.4976669,6.57731295 16.6387772,6.57731295 C17.7784393,6.57731295 18.7023331,7.50120676 18.7023331,8.64086887" id="Fill-6" fill="#003B62"></path>
            <path d="M18.7023331,8.64086887 C18.7023331,9.78197908 17.7784393,10.7058729 16.6387772,10.7058729 C15.4976669,10.7058729 14.5752212,9.78197908 14.5752212,8.64086887 C14.5752212,7.50120676 15.4976669,6.57731295 16.6387772,6.57731295 C17.7784393,6.57731295 18.7023331,7.50120676 18.7023331,8.64086887" id="Stroke-7" stroke="#003B62" stroke-width="0.5"></path>
            <polyline id="Fill-8" fill="#1A1919" points="62.9391794 10.9925986 60.8843121 10.9925986 60.8843121 4.41238938 60.8524537 4.41238938 58.208206 10.9925986 56.7108608 10.9925986 54.0651649 4.41238938 54.0333065 4.41238938 54.0333065 10.9925986 51.9784393 10.9925986 51.9784393 0 54.3214803 0 57.5232502 8.01238938 57.5551086 8.01238938 60.7887369 0 62.9391794 0 62.9391794 10.9925986"></polyline>
            <path d="M68.3232502,6.2920354 L67.6223652,6.2920354 L67.6223652,9.27079646 L68.227675,9.27079646 C69.8524537,9.27079646 70.5374095,8.74658085 70.5374095,7.75752212 C70.5374095,6.81769912 69.7568785,6.2920354 68.3232502,6.2920354 Z M68.0843121,1.68849558 L67.6223652,1.68849558 L67.6223652,4.63539823 L68.0683829,4.63539823 C69.5816573,4.63539823 70.2825422,4.0460177 70.2825422,3.05840708 C70.2825422,2.21415929 69.6613033,1.68849558 68.0843121,1.68849558 Z M70.4577635,5.32035398 L70.4577635,5.35221239 C71.4931617,5.55929204 72.7356396,6.37168142 72.7356396,7.90088496 C72.7356396,9.71826227 71.3816573,10.9925986 68.227675,10.9925986 L65.4864039,10.9925986 L65.4864039,0 L68.0843121,0 C71.3020113,0 72.4329847,1.11359614 72.4329847,2.89911504 C72.4329847,4.47610619 71.3975865,5.03362832 70.4577635,5.32035398 L70.4577635,5.32035398 Z" id="Fill-9" fill="#1A1919"></path>
            <polyline id="Fill-10" fill="#1A1919" points="81.0347546 1.75221239 76.9076428 1.75221239 76.9076428 4.57168142 80.7320998 4.57168142 80.7320998 6.32389381 76.9076428 6.32389381 76.9076428 9.24038616 81.5604183 9.24038616 81.4329847 10.9925986 74.7731295 10.9925986 74.7731295 0 81.1621883 0 81.0347546 1.75221239"></polyline>
            <path d="M57.3378922,15.5787611 L57.3378922,22.5774739 L56.4849558,22.5774739 L56.4849558,19.2511665 C56.4849558,18.4083669 56.4950925,17.5757039 56.5255028,17.2817377 L56.4950925,17.2817377 C56.4241352,17.5858407 56.1909895,18.3678198 55.9274336,19.1584875 L54.7718423,22.5774739 L54.0709574,22.5774739 L52.915366,19.1584875 C52.6518101,18.3678198 52.4085278,17.5858407 52.3477072,17.2817377 L52.3172969,17.2817377 C52.3477072,17.5974256 52.3578439,18.4083669 52.3578439,19.2511665 L52.3578439,22.5774739 L51.5049075,22.5774739 L51.5049075,15.5787611 L52.4896219,15.5787611 L54.1433628,20.4067578 C54.2954143,20.8527755 54.4257442,21.3103781 54.4474658,21.6144811 L54.4677393,21.6144811 C54.4778761,21.3103781 54.608206,20.8629123 54.7617056,20.4154465 L56.4154465,15.5787611 L57.3378922,15.5787611" id="Fill-11" fill="#1A1919"></path>
            <path d="M58.6614642,22.5760257 L59.4825422,22.5760257 L59.4825422,17.70893 L58.6614642,17.70893 L58.6614642,22.5760257 Z M58.5209976,15.9451327 C58.5209976,15.6091714 58.7425583,15.365889 59.0770716,15.365889 C59.4028962,15.365889 59.6259051,15.6091714 59.6259051,15.9451327 C59.6259051,16.2883347 59.4028962,16.5330652 59.0770716,16.5330652 C58.7425583,16.5330652 58.5209976,16.2883347 58.5209976,15.9451327 L58.5209976,15.9451327 Z" id="Fill-12" fill="#1A1919"></path>
            <path d="M62.1195495,18.2461786 C61.6532582,18.2461786 61.2564763,18.5198713 61.2564763,19.2193081 C61.2564763,19.9201931 61.6532582,20.1938858 62.0992759,20.1938858 C62.5655672,20.1938858 62.9507643,19.9201931 62.9507643,19.2193081 C62.9507643,18.5198713 62.5655672,18.2461786 62.1195495,18.2461786 Z M63.3055511,23.0727273 C63.3055511,22.6078842 62.9811746,22.4239743 62.484473,22.4239743 L61.8661303,22.4239743 C61.7329043,22.4239743 61.6025744,22.4138375 61.4896219,22.3950121 C61.2564763,22.5253419 60.9929204,22.7599356 60.9929204,23.2465004 C60.9929204,23.7634755 61.2767498,24.0284795 61.8559936,24.0284795 C62.8493966,24.0284795 63.3055511,23.5708769 63.3055511,23.0727273 Z M61.7937249,24.7264682 C60.7597747,24.7264682 60.2022526,24.2500402 60.2022526,23.4086887 C60.2022526,22.6889783 60.790185,22.3428801 61.0131939,22.222687 L61.0131939,22.2024135 C60.8104586,22.0489139 60.6989541,21.8259051 60.6989541,21.5218021 C60.6989541,20.9946903 61.1652454,20.7919549 61.2868866,20.7311344 L61.2868866,20.7108608 C60.790185,20.4762671 60.4556718,19.9897023 60.4556718,19.2193081 C60.4556718,18.1245374 61.1956557,17.5858407 62.1094127,17.5858407 C62.3425583,17.5858407 62.5554304,17.6278359 62.7581657,17.70893 L64.2381335,17.70893 L64.1280772,18.3475463 L63.5184232,18.3475463 C63.6704747,18.5908286 63.7530169,18.8963797 63.7530169,19.2193081 C63.7530169,20.2547064 63.0217216,20.8730491 62.0688656,20.8730491 C61.9776348,20.8730491 61.8965406,20.8730491 61.8154465,20.8629123 C61.6532582,20.9338697 61.4201126,21.0656476 61.4201126,21.3190668 C61.4201126,21.5218021 61.5620274,21.6651649 61.9168142,21.6651649 L62.5351569,21.6651649 C63.4576026,21.6651649 64.1469027,22.0300885 64.1469027,22.9510861 C64.1469027,23.9966211 63.2345937,24.7264682 61.7937249,24.7264682 L61.7937249,24.7264682 Z" id="Fill-13" fill="#1A1919"></path>
            <path d="M67.0967015,18.4286404 C67.0561545,18.4083669 66.9142397,18.3475463 66.6912309,18.3475463 C66.1742558,18.3475463 65.899115,18.6820595 65.7774739,19.0078842 L65.7774739,22.5774739 L64.9563958,22.5774739 L64.9563958,17.70893 L65.7079646,17.70893 L65.7079646,18.3678198 L65.72679,18.3678198 C65.8687047,17.9826227 66.1322607,17.6176991 66.7520515,17.6176991 C66.9851971,17.6176991 67.1169751,17.6683829 67.1980692,17.6973451 L67.0967015,18.4286404" id="Fill-14" fill="#1A1919"></path>
            <path d="M69.4889783,20.4574417 C68.7084473,20.487852 68.2928399,20.7108608 68.2928399,21.2481094 C68.2928399,21.7448109 68.5361223,21.9982301 68.9415929,21.9982301 C69.4180209,21.9982301 69.6511665,21.6753017 69.7525342,21.5218021 L69.7525342,20.4473049 L69.4889783,20.4574417 Z M69.7525342,19.3728077 C69.7525342,18.5502816 69.4484312,18.2867257 68.9213194,18.2867257 C68.4333065,18.2867257 68.10893,18.5604183 67.9264682,18.7226066 L67.5818182,18.1752212 C67.7961384,17.9623492 68.2609815,17.5858407 69.0429606,17.5858407 C70.0363636,17.5858407 70.5649236,18.1144006 70.5649236,19.3409493 L70.5649236,21.5623492 C70.5649236,21.9794047 70.6040225,22.4456959 70.6257442,22.5774739 L69.8437651,22.5774739 C69.8336283,22.4355591 69.8234916,22.2820595 69.8133548,22.0402253 L69.7930813,22.0402253 C69.6815768,22.2820595 69.3876106,22.699115 68.7692679,22.699115 C68.029284,22.699115 67.4703138,22.130008 67.4703138,21.3393403 C67.4703138,20.2141593 68.3942076,19.839099 69.499115,19.839099 L69.7525342,19.839099 L69.7525342,19.3728077 L69.7525342,19.3728077 Z" id="Fill-15" fill="#1A1919"></path>
            <path d="M73.1469027,22.699115 C72.3156879,22.699115 71.8899437,22.2632341 71.8899437,21.1872888 L71.8899437,18.3779566 L71.3020113,18.3779566 L71.3020113,17.8305712 L71.8899437,17.70893 L71.9811746,16.3491553 L72.7110217,16.3491553 L72.7110217,17.70893 L73.8781979,17.70893 L73.7768302,18.3779566 L72.7110217,18.3779566 L72.7110217,21.0757844 C72.7110217,21.7650845 72.87321,21.9692679 73.2888174,21.9692679 C73.5335479,21.9692679 73.7160097,21.8765889 73.7956557,21.8259051 L73.9086082,22.4847949 C73.8376508,22.5354787 73.5827836,22.699115 73.1469027,22.699115" id="Fill-16" fill="#1A1919"></path>
            <path d="M74.6065969,22.5760257 L75.427675,22.5760257 L75.427675,17.70893 L74.6065969,17.70893 L74.6065969,22.5760257 Z M74.4646822,15.9451327 C74.4646822,15.6091714 74.6876911,15.365889 75.0222043,15.365889 C75.3465809,15.365889 75.5710378,15.6091714 75.5710378,15.9451327 C75.5710378,16.2883347 75.3465809,16.5330652 75.0222043,16.5330652 C74.6876911,16.5330652 74.4646822,16.2883347 74.4646822,15.9451327 L74.4646822,15.9451327 Z" id="Fill-17" fill="#1A1919"></path>
            <path d="M78.2775543,18.2867257 C77.6070796,18.2867257 77.2117458,18.8543846 77.2117458,20.1432019 C77.2117458,21.4320193 77.6172164,21.9692679 78.2876911,21.9692679 C78.9567176,21.9692679 79.3520515,21.4320193 79.3520515,20.1432019 C79.3520515,18.8543846 78.9465809,18.2867257 78.2775543,18.2867257 Z M78.3079646,17.5858407 C79.3824618,17.5858407 80.2035398,18.3475463 80.2035398,20.1432019 C80.2035398,21.9591311 79.3216412,22.699115 78.2572808,22.699115 C77.1813355,22.699115 76.3602574,21.9692679 76.3602574,20.1432019 C76.3602574,18.3475463 77.2624296,17.5858407 78.3079646,17.5858407 L78.3079646,17.5858407 Z" id="Fill-18" fill="#1A1919"></path>
            <path d="M81.9557522,18.8239743 L81.9557522,22.5774739 L81.1346742,22.5774739 L81.1346742,17.70893 L81.8847949,17.70893 L81.8847949,18.2563154 L81.9050684,18.2563154 C81.9977474,18.0839903 82.4321802,17.5858407 83.1938858,17.5858407 C84.0656476,17.5858407 84.613033,18.0637168 84.613033,19.3829445 L84.613033,22.5774739 L83.7919549,22.5774739 L83.7919549,19.4437651 C83.7919549,18.6212389 83.5182623,18.2867257 82.9506034,18.2867257 C82.4524537,18.2867257 82.1193886,18.6212389 81.9557522,18.8239743" id="Fill-19" fill="#1A1919"></path>
            <path d="M87.8350764,18.6921963 C87.7250201,18.5705551 87.4397426,18.2867257 86.9835881,18.2867257 C86.5477072,18.2867257 86.3145615,18.5198713 86.3145615,18.8037007 C86.3145615,19.1686243 86.5172969,19.3728077 86.9531778,19.6349155 L87.2572808,19.8173773 C87.9161706,20.2141593 88.3230893,20.6094932 88.3230893,21.3292035 C88.3230893,22.1010459 87.7641191,22.699115 86.770716,22.699115 C85.990185,22.699115 85.5948512,22.3428801 85.4022526,22.1415929 L85.7975865,21.4928399 C85.949638,21.65358 86.2537409,21.9692679 86.7808528,21.9692679 C87.2674175,21.9692679 87.5309735,21.7259855 87.5309735,21.4102977 C87.5309735,20.9440064 87.2876911,20.7818182 86.8213998,20.487852 L86.5172969,20.2938053 C85.9090909,19.9100563 85.5441673,19.5132743 85.5441673,18.8442478 C85.5441673,18.1245374 86.1625101,17.5858407 86.9531778,17.5858407 C87.7032985,17.5858407 88.0291231,17.9406275 88.1913113,18.1042639 L87.8350764,18.6921963" id="Fill-20" fill="#1A1919"></path>
            <path d="M90.9369268,18.2867257 C90.4300885,18.2867257 90.1766693,18.5502816 89.9942076,18.7834272 L89.9942076,21.7752212 C90.1158488,21.8577635 90.3185841,21.9692679 90.6024135,21.9692679 C91.3829445,21.9692679 91.9607401,21.4928399 91.9607401,20.0215607 C91.9607401,18.8138375 91.5654063,18.2867257 90.9369268,18.2867257 Z M90.5720032,22.6687047 C89.7813355,22.6687047 89.3338697,22.3240547 89.1731295,22.1908286 L89.1731295,15.4049879 L89.9942076,15.3354787 L89.9942076,18.1752212 L90.0144811,18.1752212 C90.1462591,17.9623492 90.5213194,17.5858407 91.1802092,17.5858407 C92.1750603,17.5858407 92.8136766,18.317136 92.8136766,19.9201931 C92.8136766,22.0083669 91.7797265,22.6687047 90.5720032,22.6687047 L90.5720032,22.6687047 Z" id="Fill-21" fill="#1A1919"></path>
            <path d="M94.3428801,19.6769107 L96.1081255,19.6769107 C96.1182623,19.6059533 96.128399,19.4727273 96.128399,19.3221239 C96.128399,18.6516492 95.8532582,18.2563154 95.3362832,18.2563154 C94.7584875,18.2563154 94.3834272,18.7631537 94.3428801,19.6769107 Z M95.5288817,22.699115 C94.3023331,22.699115 93.5319389,21.9185841 93.5319389,20.0823813 C93.5319389,18.357683 94.3732904,17.5858407 95.3884151,17.5858407 C96.3108608,17.5858407 96.8785197,18.185358 96.8785197,19.3510861 C96.8785197,19.7666935 96.8481094,20.0606597 96.8176991,20.2938053 L94.3327434,20.2938053 C94.3834272,21.4320193 94.8294449,21.9692679 95.651971,21.9692679 C96.2297667,21.9692679 96.56428,21.65358 96.6757844,21.5420756 L96.9798874,22.1198713 C96.8481094,22.2632341 96.4527755,22.699115 95.5288817,22.699115 L95.5288817,22.699115 Z" id="Fill-22" fill="#1A1919"></path>
            <path d="M100.01078,18.4286404 C99.9687852,18.4083669 99.8283186,18.3475463 99.6038616,18.3475463 C99.0868866,18.3475463 98.8131939,18.6820595 98.6915527,19.0078842 L98.6915527,22.5774739 L97.8690265,22.5774739 L97.8690265,17.70893 L98.6205953,17.70893 L98.6205953,18.3678198 L98.6408689,18.3678198 C98.7827836,17.9826227 99.0463395,17.6176991 99.6646822,17.6176991 C99.8978278,17.6176991 100.031054,17.6683829 100.1107,17.6973451 L100.01078,18.4286404" id="Fill-23" fill="#1A1919"></path>
            <path d="M102.401609,20.4574417 C101.621078,20.487852 101.205471,20.7108608 101.205471,21.2481094 C101.205471,21.7448109 101.448753,21.9982301 101.854224,21.9982301 C102.3321,21.9982301 102.565245,21.6753017 102.666613,21.5218021 L102.666613,20.4473049 L102.401609,20.4574417 Z M102.666613,19.3728077 C102.666613,18.5502816 102.36251,18.2867257 101.83395,18.2867257 C101.347385,18.2867257 101.023009,18.5604183 100.840547,18.7226066 L100.495897,18.1752212 C100.708769,17.9623492 101.17506,17.5858407 101.955591,17.5858407 C102.950442,17.5858407 103.477554,18.1144006 103.477554,19.3409493 L103.477554,21.5623492 C103.477554,21.9794047 103.518101,22.4456959 103.538375,22.5774739 L102.756396,22.5774739 C102.747707,22.4355591 102.736122,22.2820595 102.727434,22.0402253 L102.705712,22.0402253 C102.595656,22.2820595 102.301689,22.699115 101.681899,22.699115 C100.941915,22.699115 100.384393,22.130008 100.384393,21.3393403 C100.384393,20.2141593 101.306838,19.839099 102.411746,19.839099 L102.666613,19.839099 L102.666613,19.3728077 L102.666613,19.3728077 Z" id="Fill-24" fill="#1A1919"></path>
            <path d="M106.060981,22.699115 C105.229767,22.699115 104.804023,22.2632341 104.804023,21.1872888 L104.804023,18.3779566 L104.214642,18.3779566 L104.214642,17.8305712 L104.804023,17.70893 L104.895253,16.3491553 L105.625101,16.3491553 L105.625101,17.70893 L106.790829,17.70893 L106.689461,18.3779566 L105.625101,18.3779566 L105.625101,21.0757844 C105.625101,21.7650845 105.787289,21.9692679 106.202896,21.9692679 C106.446179,21.9692679 106.62864,21.8765889 106.709735,21.8259051 L106.821239,22.4847949 C106.750282,22.5354787 106.496862,22.699115 106.060981,22.699115" id="Fill-25" fill="#1A1919"></path>
            <path d="M108.889139,22.699115 C108.027514,22.699115 107.490265,22.222687 107.490265,20.9034594 L107.490265,17.70893 L108.311344,17.70893 L108.311344,20.8426388 C108.311344,21.6434433 108.574899,21.9692679 109.123733,21.9692679 C109.618986,21.9692679 109.943363,21.6333065 110.106999,21.4320193 L110.106999,17.70893 L110.928077,17.70893 L110.928077,22.5774739 L110.177957,22.5774739 L110.177957,22.0300885 L110.157683,22.0300885 C110.066452,22.2024135 109.630571,22.699115 108.889139,22.699115" id="Fill-26" fill="#1A1919"></path>
            <path d="M112.903298,18.8239743 L112.903298,22.5774739 L112.08222,22.5774739 L112.08222,17.70893 L112.832341,17.70893 L112.832341,18.2563154 L112.852615,18.2563154 C112.943846,18.0839903 113.379726,17.5858407 114.141432,17.5858407 C115.011746,17.5858407 115.560579,18.0637168 115.560579,19.3829445 L115.560579,22.5774739 L114.739501,22.5774739 L114.739501,19.4437651 C114.739501,18.6212389 114.46436,18.2867257 113.896702,18.2867257 C113.4,18.2867257 113.065487,18.6212389 112.903298,18.8239743" id="Fill-27" fill="#1A1919"></path>
            <path d="M118.16428,18.2461786 C117.697989,18.2461786 117.301207,18.5198713 117.301207,19.2193081 C117.301207,19.9201931 117.697989,20.1938858 118.142558,20.1938858 C118.610298,20.1938858 118.995495,19.9201931 118.995495,19.2193081 C118.995495,18.5198713 118.610298,18.2461786 118.16428,18.2461786 Z M119.350282,23.0727273 C119.350282,22.6078842 119.025905,22.4239743 118.529204,22.4239743 L117.909413,22.4239743 C117.779083,22.4239743 117.647305,22.4138375 117.5358,22.3950121 C117.301207,22.5253419 117.039099,22.7599356 117.039099,23.2465004 C117.039099,23.7634755 117.32148,24.0284795 117.900724,24.0284795 C118.894127,24.0284795 119.350282,23.5708769 119.350282,23.0727273 Z M117.839903,24.7264682 C116.805953,24.7264682 116.246983,24.2500402 116.246983,23.4086887 C116.246983,22.6889783 116.834916,22.3428801 117.057924,22.222687 L117.057924,22.2024135 C116.856637,22.0489139 116.745133,21.8259051 116.745133,21.5218021 C116.745133,20.9946903 117.211424,20.7919549 117.333065,20.7311344 L117.333065,20.7108608 C116.834916,20.4762671 116.50185,19.9897023 116.50185,19.2193081 C116.50185,18.1245374 117.240386,17.5858407 118.154143,17.5858407 C118.387289,17.5858407 118.600161,17.6278359 118.804344,17.70893 L120.284312,17.70893 L120.17136,18.3475463 L119.563154,18.3475463 C119.715205,18.5908286 119.796299,18.8963797 119.796299,19.2193081 C119.796299,20.2547064 119.066452,20.8730491 118.113596,20.8730491 C118.020917,20.8730491 117.941271,20.8730491 117.860177,20.8629123 C117.697989,20.9338697 117.464843,21.0656476 117.464843,21.3190668 C117.464843,21.5218021 117.60531,21.6651649 117.961545,21.6651649 L118.579887,21.6651649 C119.502333,21.6651649 120.191633,22.0300885 120.191633,22.9510861 C120.191633,23.9966211 119.280772,24.7264682 117.839903,24.7264682 L117.839903,24.7264682 Z" id="Fill-28" fill="#1A1919"></path>
            <path d="M52.3882542,28.5147224 L52.3882542,32.7142397 L51.5657281,32.7142397 L51.5657281,28.5147224 L50.9777957,28.5147224 L50.9777957,27.9673371 L51.5657281,27.8558327 L51.5657281,26.881255 C51.5657281,25.8168946 52.1956557,25.3911504 52.915366,25.3911504 C53.2600161,25.3911504 53.523572,25.5229284 53.6046661,25.5736122 L53.4323411,26.2542237 C53.351247,26.2035398 53.1991955,26.1209976 52.9863234,26.1209976 C52.6011263,26.1209976 52.3882542,26.3338697 52.3882542,26.973934 L52.3882542,27.8456959 L53.4830249,27.8456959 L53.3816573,28.5147224 L52.3882542,28.5147224" id="Fill-29" fill="#1A1919"></path>
            <path d="M56.5443282,26.9637973 C56.2706356,26.9637973 56.0577635,26.7596138 56.0577635,26.4453741 C56.0577635,26.1311344 56.2706356,25.928399 56.5443282,25.928399 C56.8180209,25.928399 57.030893,26.1311344 57.030893,26.4453741 C57.030893,26.7596138 56.8180209,26.9637973 56.5443282,26.9637973 Z M54.9832663,26.9637973 C54.7095736,26.9637973 54.4952534,26.7596138 54.4952534,26.4453741 C54.4952534,26.1311344 54.7095736,25.928399 54.9832663,25.928399 C55.256959,25.928399 55.4698311,26.1311344 55.4698311,26.4453741 C55.4698311,26.7596138 55.256959,26.9637973 54.9832663,26.9637973 Z M55.4495575,32.8358809 C54.5879324,32.8358809 54.0492357,32.3594529 54.0492357,31.0402253 L54.0492357,27.8456959 L54.8717619,27.8456959 L54.8717619,30.9794047 C54.8717619,31.7802092 55.1353178,32.1060338 55.6827031,32.1060338 C56.1794047,32.1060338 56.5037812,31.7700724 56.6659694,31.5687852 L56.6659694,27.8456959 L57.4884956,27.8456959 L57.4884956,32.7142397 L56.7369268,32.7142397 L56.7369268,32.1668544 L56.7181014,32.1668544 C56.6268705,32.3391794 56.1895414,32.8358809 55.4495575,32.8358809 L55.4495575,32.8358809 Z" id="Fill-30" fill="#1A1919"></path>
            <path d="M60.7713596,28.5654063 C60.7308126,28.5451327 60.5888978,28.4843121 60.365889,28.4843121 C59.8489139,28.4843121 59.5752212,28.8188254 59.45358,29.14465 L59.45358,32.7142397 L58.6310539,32.7142397 L58.6310539,27.8456959 L59.3826227,27.8456959 L59.3826227,28.5045857 L59.4028962,28.5045857 C59.5448109,28.1193886 59.8083669,27.754465 60.4267096,27.754465 C60.6598552,27.754465 60.7916331,27.8051488 60.8727273,27.834111 L60.7713596,28.5654063" id="Fill-31" fill="#1A1919"></path>
            <path d="M63.8616251,29.8136766 L65.6268705,29.8136766 C65.6370072,29.7427192 65.647144,29.6094932 65.647144,29.4588898 C65.647144,28.7884151 65.3734513,28.3930813 64.8564763,28.3930813 C64.2772325,28.3930813 63.9036203,28.8999195 63.8616251,29.8136766 Z M65.0476267,32.8358809 C63.821078,32.8358809 63.0506838,32.05535 63.0506838,30.2191472 C63.0506838,28.4944489 63.8920354,27.7226066 64.9071601,27.7226066 C65.8296058,27.7226066 66.3972647,28.3221239 66.3972647,29.487852 C66.3972647,29.9034594 66.3668544,30.1974256 66.3364441,30.4305712 L63.8514883,30.4305712 C63.9036203,31.5687852 64.349638,32.1060338 65.170716,32.1060338 C65.7485117,32.1060338 66.0830249,31.7903459 66.1945294,31.6788415 L66.4986323,32.2566372 C66.3668544,32.4 65.9715205,32.8358809 65.0476267,32.8358809 L65.0476267,32.8358809 Z" id="Fill-32" fill="#1A1919"></path>
            <path d="M69.5193886,28.5654063 C69.4788415,28.5451327 69.3369268,28.4843121 69.1139179,28.4843121 C68.5969429,28.4843121 68.3218021,28.8188254 68.2001609,29.14465 L68.2001609,32.7142397 L67.3790829,32.7142397 L67.3790829,27.8456959 L68.1292035,27.8456959 L68.1292035,28.5045857 L68.1494771,28.5045857 C68.2913918,28.1193886 68.5549477,27.754465 69.1747385,27.754465 C69.4078842,27.754465 69.5396621,27.8051488 69.6207562,27.834111 L69.5193886,28.5654063" id="Fill-33" fill="#1A1919"></path>
            <path d="M75.8259051,27.8456959 L74.3444891,32.7142397 L73.614642,32.7142397 L73.1179405,31.009815 C72.9760257,30.5232502 72.8543846,30.1076428 72.834111,29.7311344 L72.8138375,29.7311344 C72.793564,30.1076428 72.6516492,30.5435237 72.489461,31.0199517 L71.9304907,32.7142397 L71.2310539,32.7142397 L69.7004023,27.8456959 L70.5823009,27.8456959 L71.312148,30.6043443 C71.443926,31.1111826 71.5655672,31.5572003 71.5757039,31.9423974 L71.5974256,31.9423974 C71.6365245,31.5470636 71.7784393,31.1314562 71.9420756,30.6347546 L72.4691874,29.0418343 L72.1042639,27.8456959 L72.9557522,27.8456959 L73.6957361,30.533387 C73.8477876,31.0807723 73.9897023,31.5876106 74.0012872,31.9423974 L74.0201126,31.9423974 C74.0403862,31.5876106 74.1721641,31.0706356 74.3140788,30.533387 L75.0352373,27.8456959 L75.8259051,27.8456959" id="Fill-34" fill="#1A1919"></path>
            <path d="M78.1660499,30.5942076 C77.3840708,30.6246179 76.9684634,30.8476267 76.9684634,31.3848753 C76.9684634,31.8815768 77.2117458,32.134996 77.6186645,32.134996 C78.0950925,32.134996 78.3282381,31.8120676 78.4296058,31.658568 L78.4296058,30.5840708 L78.1660499,30.5942076 Z M78.4296058,29.5095736 C78.4296058,28.6870475 78.1255028,28.4234916 77.5969429,28.4234916 C77.1103781,28.4234916 76.7860016,28.6971842 76.6035398,28.8593725 L76.2588898,28.3119871 C76.4717619,28.099115 76.9380531,27.7226066 77.7185841,27.7226066 C78.7134352,27.7226066 79.2405471,28.2511665 79.2405471,29.4777152 L79.2405471,31.699115 C79.2405471,32.1161706 79.2810941,32.5824618 79.3013677,32.7142397 L78.5208367,32.7142397 C78.5106999,32.572325 78.5005632,32.4188254 78.4904264,32.1769912 L78.4701529,32.1769912 C78.3586484,32.4188254 78.0646822,32.8358809 77.4448914,32.8358809 C76.7049075,32.8358809 76.1473854,32.2667739 76.1473854,31.4761062 C76.1473854,30.3509252 77.0698311,29.9758648 78.1747385,29.9758648 L78.4296058,29.9758648 L78.4296058,29.5095736 L78.4296058,29.5095736 Z" id="Fill-35" fill="#1A1919"></path>
            <path d="M83.0722446,28.7884151 C82.9810137,28.6971842 82.7261464,28.4234916 82.2410298,28.4234916 C81.5401448,28.4234916 80.9927595,28.9201931 80.9927595,30.2090105 C80.9927595,31.6382944 81.4691874,32.1060338 82.1700724,32.1060338 C82.6653258,32.1060338 82.9201931,31.8728882 83.0215607,31.7599356 L83.356074,32.3275945 C83.2242961,32.479646 82.8492357,32.8358809 82.0889783,32.8358809 C81.0028962,32.8358809 80.1412711,32.1769912 80.1412711,30.2698311 C80.1412711,28.403218 81.2157683,27.7226066 82.1802092,27.7226066 C82.9201931,27.7226066 83.2648431,28.0382944 83.4168946,28.2106195 L83.0722446,28.7884151" id="Fill-36" fill="#1A1919"></path>
            <path d="M84.9866452,28.9607401 L84.9866452,32.7142397 L84.1655672,32.7142397 L84.1655672,25.5417538 L84.9866452,25.451971 L84.9866452,28.3423974 L85.0069187,28.3423974 C85.1082864,28.1903459 85.47321,27.7226066 86.2537409,27.7226066 C87.1066774,27.7226066 87.643926,28.230893 87.643926,29.5197104 L87.643926,32.7142397 L86.8228479,32.7142397 L86.8228479,29.580531 C86.8228479,28.7580048 86.5491553,28.4234916 85.9814964,28.4234916 C85.4833467,28.4234916 85.1488335,28.7580048 84.9866452,28.9607401" id="Fill-37" fill="#1A1919"></path>
            <path d="M90.8558327,28.8289622 C90.7457763,28.707321 90.4604988,28.4234916 90.0043443,28.4234916 C89.5684634,28.4234916 89.3353178,28.6566372 89.3353178,28.9404666 C89.3353178,29.3053902 89.5380531,29.5095736 89.973934,29.7716814 L90.278037,29.9541432 C90.9369268,30.3509252 91.3438455,30.7462591 91.3438455,31.4659694 C91.3438455,32.2378117 90.7848753,32.8358809 89.7914722,32.8358809 C89.0109413,32.8358809 88.6156074,32.479646 88.4230088,32.2783588 L88.8183427,31.6296058 C88.9703942,31.7903459 89.2744972,32.1060338 89.801609,32.1060338 C90.2881738,32.1060338 90.5517297,31.8627514 90.5517297,31.5470636 C90.5517297,31.0807723 90.3084473,30.9185841 89.8421561,30.6246179 L89.5380531,30.4305712 C88.9298471,30.0468222 88.5649236,29.6500402 88.5649236,28.9810137 C88.5649236,28.2613033 89.1832663,27.7226066 89.973934,27.7226066 C90.7255028,27.7226066 91.0498793,28.0773934 91.2120676,28.2410298 L90.8558327,28.8289622" id="Fill-38" fill="#1A1919"></path>
            <path d="M92.7818182,29.8136766 L94.5470636,29.8136766 C94.5557522,29.7427192 94.5673371,29.6094932 94.5673371,29.4588898 C94.5673371,28.7884151 94.2921963,28.3930813 93.7752212,28.3930813 C93.1974256,28.3930813 92.8223652,28.8999195 92.7818182,29.8136766 Z M93.9678198,32.8358809 C92.7412711,32.8358809 91.9708769,32.05535 91.9708769,30.2191472 C91.9708769,28.4944489 92.8122285,27.7226066 93.8259051,27.7226066 C94.7497989,27.7226066 95.3174578,28.3221239 95.3174578,29.487852 C95.3174578,29.9034594 95.2870475,30.1974256 95.2566372,30.4305712 L92.7716814,30.4305712 C92.8223652,31.5687852 93.2683829,32.1060338 94.0909091,32.1060338 C94.6687047,32.1060338 95.003218,31.7903459 95.1147224,31.6788415 L95.4188254,32.2566372 C95.2870475,32.4 94.8917136,32.8358809 93.9678198,32.8358809 L93.9678198,32.8358809 Z" id="Fill-39" fill="#1A1919"></path>
            <path d="M97.120354,28.9607401 L97.120354,32.7142397 L96.2992759,32.7142397 L96.2992759,27.8456959 L97.0493966,27.8456959 L97.0493966,28.3930813 L97.0696702,28.3930813 C97.160901,28.2207562 97.596782,27.7226066 98.3570394,27.7226066 C99.2302494,27.7226066 99.7776348,28.2004827 99.7776348,29.5197104 L99.7776348,32.7142397 L98.9551086,32.7142397 L98.9551086,29.580531 C98.9551086,28.7580048 98.682864,28.4234916 98.113757,28.4234916 C97.6170555,28.4234916 97.2825422,28.7580048 97.120354,28.9607401" id="Fill-40" fill="#1A1919"></path>
            <path d="M101.479163,29.8136766 L103.242961,29.8136766 C103.253097,29.7427192 103.264682,29.6094932 103.264682,29.4588898 C103.264682,28.7884151 102.989541,28.3930813 102.472566,28.3930813 C101.894771,28.3930813 101.51971,28.8999195 101.479163,29.8136766 Z M102.665165,32.8358809 C101.438616,32.8358809 100.668222,32.05535 100.668222,30.2191472 C100.668222,28.4944489 101.509574,27.7226066 102.52325,27.7226066 C103.447144,27.7226066 104.014803,28.3221239 104.014803,29.487852 C104.014803,29.9034594 103.984393,30.1974256 103.953982,30.4305712 L101.469027,30.4305712 C101.51971,31.5687852 101.965728,32.1060338 102.788254,32.1060338 C103.364602,32.1060338 103.700563,31.7903459 103.812068,31.6788415 L104.116171,32.2566372 C103.984393,32.4 103.589059,32.8358809 102.665165,32.8358809 L102.665165,32.8358809 Z" id="Fill-41" fill="#1A1919"></path>
            <polyline id="Fill-42" fill="#1A1919" points="55.0962188 36.4011263 52.1246983 42.0994368 52.1246983 42.1211585 55.349638 42.1211585 55.2888174 42.8510056 50.9879324 42.8510056 50.9879324 42.3036203 54.0506838 36.5734513 54.0506838 36.5517297 51.1501207 36.5517297 51.1501207 35.8522928 55.0962188 35.8522928 55.0962188 36.4011263"></polyline>
            <path d="M57.6289622,42.9726468 C56.7673371,42.9726468 56.2286404,42.4962188 56.2286404,41.1769912 L56.2286404,37.9824618 L57.0497184,37.9824618 L57.0497184,41.1161706 C57.0497184,41.9169751 57.3147224,42.2427997 57.8621078,42.2427997 C58.3588093,42.2427997 58.6831858,41.9068383 58.8453741,41.7055511 L58.8453741,37.9824618 L59.6679002,37.9824618 L59.6679002,42.8510056 L58.9163315,42.8510056 L58.9163315,42.3036203 L58.8960579,42.3036203 C58.8062751,42.4759453 58.3689461,42.9726468 57.6289622,42.9726468" id="Fill-43" fill="#1A1919"></path>
            <path d="M62.5250201,38.5197104 C62.0587289,38.5197104 61.663395,38.7934031 61.663395,39.4928399 C61.663395,40.1937249 62.0587289,40.4674175 62.5047466,40.4674175 C62.9710378,40.4674175 63.3562349,40.1937249 63.3562349,39.4928399 C63.3562349,38.7934031 62.9710378,38.5197104 62.5250201,38.5197104 Z M63.7124698,43.3462591 C63.7124698,42.8814159 63.3866452,42.697506 62.8899437,42.697506 L62.271601,42.697506 C62.139823,42.697506 62.0080451,42.6873693 61.8965406,42.6685438 C61.663395,42.7988737 61.398391,43.0334674 61.398391,43.5200322 C61.398391,44.0370072 61.6836685,44.3020113 62.2614642,44.3020113 C63.2548673,44.3020113 63.7124698,43.8444087 63.7124698,43.3462591 Z M62.2006436,45 C61.1652454,45 60.6091714,44.523572 60.6091714,43.6822204 C60.6091714,42.9625101 61.1956557,42.6164119 61.4201126,42.4962188 L61.4201126,42.4759453 C61.2159292,42.3224457 61.1044248,42.0994368 61.1044248,41.7953339 C61.1044248,41.268222 61.5721641,41.0654867 61.6938053,41.0046661 L61.6938053,40.9843926 C61.1956557,40.7497989 60.8611424,40.2632341 60.8611424,39.4928399 C60.8611424,38.3980692 61.6025744,37.8593725 62.5148833,37.8593725 C62.748029,37.8593725 62.960901,37.9013677 63.1636364,37.9824618 L64.6450523,37.9824618 L64.5335479,38.621078 L63.9253419,38.621078 C64.0773934,38.8643604 64.1584875,39.1699115 64.1584875,39.4928399 C64.1584875,40.5282381 63.4271923,41.1465809 62.4743363,41.1465809 C62.3831054,41.1465809 62.3020113,41.1465809 62.2209171,41.1364441 C62.0587289,41.2074014 61.8255833,41.3391794 61.8255833,41.5925986 C61.8255833,41.7953339 61.967498,41.9386967 62.3222848,41.9386967 L62.9406275,41.9386967 C63.8645213,41.9386967 64.5538214,42.3036203 64.5538214,43.2246179 C64.5538214,44.2701529 63.6400644,45 62.2006436,45 L62.2006436,45 Z" id="Fill-44" fill="#1A1919"></path>
            <path d="M66.1119871,39.9504425 L67.8772325,39.9504425 C67.8873693,39.8794851 67.897506,39.7462591 67.897506,39.5956557 C67.897506,38.925181 67.6238134,38.5298471 67.1068383,38.5298471 C66.5275945,38.5298471 66.1539823,39.0366854 66.1119871,39.9504425 Z M67.2994368,42.9726468 C66.0714401,42.9726468 65.3010459,42.1921158 65.3010459,40.3559131 C65.3010459,38.6312148 66.1423974,37.8593725 67.1575221,37.8593725 C68.0799678,37.8593725 68.6476267,38.4588898 68.6476267,39.6246179 C68.6476267,40.0402253 68.6172164,40.3341915 68.5868061,40.5673371 L66.1018504,40.5673371 C66.1539823,41.7055511 66.6,42.2427997 67.421078,42.2427997 C67.9988737,42.2427997 68.333387,41.9271118 68.4448914,41.8156074 L68.7504425,42.3934031 C68.6172164,42.5367659 68.2218825,42.9726468 67.2994368,42.9726468 L67.2994368,42.9726468 Z" id="Fill-45" fill="#1A1919"></path>
            <path d="M75.4204344,37.9824618 L73.9404666,42.8510056 L73.2091714,42.8510056 L72.7124698,41.1465809 C72.5705551,40.6600161 72.4489139,40.2444087 72.4286404,39.8679002 L72.4083669,39.8679002 C72.3880933,40.2444087 72.2461786,40.6802896 72.0839903,41.1567176 L71.5264682,42.8510056 L70.8270314,42.8510056 L69.2949316,37.9824618 L70.1768302,37.9824618 L70.9066774,40.7411102 C71.0399035,41.2479485 71.1615447,41.6939662 71.1702333,42.0791633 L71.1919549,42.0791633 C71.2310539,41.6838294 71.3744167,41.268222 71.536605,40.7715205 L72.0637168,39.1786002 L71.6987932,37.9824618 L72.5502816,37.9824618 L73.2902655,40.6701529 C73.442317,41.2175382 73.5842317,41.7243765 73.5958166,42.0791633 L73.614642,42.0791633 C73.6363636,41.7243765 73.7666935,41.2074014 73.9100563,40.6701529 L74.6297667,37.9824618 L75.4204344,37.9824618" id="Fill-46" fill="#1A1919"></path>
            <path d="M77.9937249,40.7309735 C77.2131939,40.7613837 76.7975865,40.9843926 76.7975865,41.5216412 C76.7975865,42.0183427 77.0408689,42.2717619 77.4463395,42.2717619 C77.9227675,42.2717619 78.1559131,41.9488335 78.2572808,41.7953339 L78.2572808,40.7208367 L77.9937249,40.7309735 Z M78.2572808,39.6463395 C78.2572808,38.8238134 77.9531778,38.5602574 77.426066,38.5602574 C76.9380531,38.5602574 76.6136766,38.8339501 76.4312148,38.9961384 L76.0865648,38.448753 C76.2994368,38.2358809 76.7657281,37.8593725 77.5477072,37.8593725 C78.5411102,37.8593725 79.0696702,38.3879324 79.0696702,39.6144811 L79.0696702,41.8358809 C79.0696702,42.2529364 79.1087691,42.7192277 79.1304907,42.8510056 L78.3485117,42.8510056 C78.3383749,42.7090909 78.3282381,42.5555913 78.3181014,42.313757 L78.2978278,42.313757 C78.1863234,42.5555913 77.8923572,42.9726468 77.2740145,42.9726468 C76.5340306,42.9726468 75.9750603,42.4035398 75.9750603,41.6128721 C75.9750603,40.4876911 76.8989541,40.1126307 78.0038616,40.1126307 L78.2572808,40.1126307 L78.2572808,39.6463395 L78.2572808,39.6463395 Z" id="Fill-47" fill="#1A1919"></path>
            <path d="M81.2461786,39.097506 L81.2461786,42.8510056 L80.4251006,42.8510056 L80.4251006,37.9824618 L81.1766693,37.9824618 L81.1766693,38.5298471 L81.1954948,38.5298471 C81.2881738,38.3575221 81.7240547,37.8593725 82.4843121,37.8593725 C83.3575221,37.8593725 83.9034594,38.3372486 83.9034594,39.6564763 L83.9034594,42.8510056 L83.0823813,42.8510056 L83.0823813,39.7172969 C83.0823813,38.8947707 82.8086887,38.5602574 82.2410298,38.5602574 C81.7443282,38.5602574 81.409815,38.8947707 81.2461786,39.097506" id="Fill-48" fill="#1A1919"></path>
            <path d="M87.8669348,41.7663717 L87.8669348,38.7629928 C87.7250201,38.6717619 87.5324216,38.5906677 87.2384553,38.5906677 C86.4781979,38.5906677 85.8801287,39.0772325 85.8801287,40.4558327 C85.8801287,41.7953339 86.386967,42.2427997 86.9546259,42.2427997 C87.471601,42.2427997 87.7554304,41.9271118 87.8669348,41.7663717 Z M86.7316171,42.9726468 C85.8077233,42.9726468 85.0271923,42.2616251 85.0271923,40.4876911 C85.0271923,38.5197104 86.1436846,37.8912309 87.1776348,37.8912309 C87.4918745,37.8912309 87.7148833,37.9520515 87.8669348,38.0128721 L87.8669348,35.6785197 L88.689461,35.5887369 L88.689461,42.8510056 L87.9378922,42.8510056 L87.9378922,42.3325825 L87.9176187,42.3325825 C87.8278359,42.4860821 87.5020113,42.9726468 86.7316171,42.9726468 L86.7316171,42.9726468 Z" id="Fill-49" fill="#1A1919"></path>
            <path d="M90.6530973,39.9504425 L92.4183427,39.9504425 C92.4284795,39.8794851 92.4386163,39.7462591 92.4386163,39.5956557 C92.4386163,38.925181 92.1649236,38.5298471 91.6479485,38.5298471 C91.0687047,38.5298471 90.6936444,39.0366854 90.6530973,39.9504425 Z M91.839099,42.9726468 C90.6125503,42.9726468 89.8421561,42.1921158 89.8421561,40.3559131 C89.8421561,38.6312148 90.6835076,37.8593725 91.6986323,37.8593725 C92.621078,37.8593725 93.1887369,38.4588898 93.1887369,39.6246179 C93.1887369,40.0402253 93.1583266,40.3341915 93.1279163,40.5673371 L90.6429606,40.5673371 C90.6936444,41.7055511 91.1411102,42.2427997 91.9621883,42.2427997 C92.5399839,42.2427997 92.8744972,41.9271118 92.9860016,41.8156074 L93.2901046,42.3934031 C93.1583266,42.5367659 92.7629928,42.9726468 91.839099,42.9726468 L91.839099,42.9726468 Z" id="Fill-50" fill="#1A1919"></path>
            <path d="M96.5440064,38.7021722 C96.5034594,38.6818986 96.3615447,38.621078 96.1385358,38.621078 C95.6215607,38.621078 95.34642,38.9555913 95.2247788,39.2814159 L95.2247788,42.8510056 L94.4037007,42.8510056 L94.4037007,37.9824618 L95.1538214,37.9824618 L95.1538214,38.6413516 L95.1740949,38.6413516 C95.3160097,38.2561545 95.5795656,37.8912309 96.1993564,37.8912309 C96.432502,37.8912309 96.56428,37.9419147 96.6453741,37.9708769 L96.5440064,38.7021722" id="Fill-51" fill="#1A1919"></path>
            <path d="M98.9246983,42.9726468 C98.0934835,42.9726468 97.6677393,42.5367659 97.6677393,41.4608206 L97.6677393,38.6514883 L97.0798069,38.6514883 L97.0798069,38.104103 L97.6677393,37.9824618 L97.7589702,36.622687 L98.4888174,36.622687 L98.4888174,37.9824618 L99.6545455,37.9824618 L99.5546259,38.6514883 L98.4888174,38.6514883 L98.4888174,41.3493162 C98.4888174,42.0386163 98.6510056,42.2427997 99.066613,42.2427997 C99.3113435,42.2427997 99.4938053,42.1501207 99.5734513,42.0994368 L99.6849558,42.7583266 C99.6154465,42.8090105 99.3605792,42.9726468 98.9246983,42.9726468" id="Fill-52" fill="#1A1919"></path>
            <path d="M101.124377,39.9504425 L102.889622,39.9504425 C102.899759,39.8794851 102.909895,39.7462591 102.909895,39.5956557 C102.909895,38.925181 102.634755,38.5298471 102.119228,38.5298471 C101.539984,38.5298471 101.164924,39.0366854 101.124377,39.9504425 Z M102.310378,42.9726468 C101.083829,42.9726468 100.313435,42.1921158 100.313435,40.3559131 C100.313435,38.6312148 101.154787,37.8593725 102.169912,37.8593725 C103.092357,37.8593725 103.660016,38.4588898 103.660016,39.6246179 C103.660016,40.0402253 103.629606,40.3341915 103.599195,40.5673371 L101.11424,40.5673371 C101.164924,41.7055511 101.610941,42.2427997 102.433467,42.2427997 C103.011263,42.2427997 103.345776,41.9271118 103.457281,41.8156074 L103.761384,42.3934031 C103.629606,42.5367659 103.234272,42.9726468 102.310378,42.9726468 L102.310378,42.9726468 Z" id="Fill-53" fill="#1A1919"></path>
        </g>
    </g>
</svg>