<svg xmlns="http://www.w3.org/2000/svg" width="800" height="400" viewBox="0 0 800 400" xmlns:xlink="http://www.w3.org/1999/xlink">
  <defs>
    <polygon id="a" points=".253 .449 30.935 .449 30.935 122.961 .253 122.961"/>
  </defs>
  <g fill="none" fill-rule="evenodd">
    <rect width="800" height="400" fill="#FFFFFF"/>
    <g transform="translate(142 131)">
      <g transform="translate(0 1)">
        <mask id="b" fill="white">
          <use xlink:href="#a"/>
        </mask>
        <polygon fill="#868D8F" points=".253 122.961 30.927 122.961 30.927 35.989 .253 35.989" mask="url(#b)"/>
        <polygon fill="#225E9C" points=".253 30.394 30.935 30.394 30.935 .449 .253 .449" mask="url(#b)"/>
      </g>
      <path fill="#868D8F" d="M128.666745,73.0709736 C129.655245,70.0524675 130.162169,66.8401502 130.162169,63.5 C130.162169,46.1600845 115.765548,32.1025882 98.0021122,32.1025882 C80.2386764,32.1025882 65.8378315,46.1600845 65.8378315,63.5 C65.8378315,80.8440392 80.2386764,94.8932882 98.0021122,94.8932882 C99.687632,94.8932882 101.237972,94.7613316 102.965736,94.5221604 C108.495424,102.509655 117.324337,113.82493 122.186576,120.270182 C114.646092,123.350543 106.662051,125 98.0021122,125 C63.2060549,125 35,97.4623173 35,63.5 C35,29.5335591 63.2060549,2 98.0021122,2 C132.798169,2 161,29.5335591 161,63.5 C161,75.3101113 157.565595,86.3532252 151.634593,95.7262639 C151.212157,96.3901703 133.672612,77.7719257 128.666745,73.0709736"/>
      <path fill="#868D8F" d="M112.750861,64 C145.043801,97.3927659 168.669608,121.918223 174,127 L132.397762,127 C132.397762,127 122.970943,108.708079 96,79.7819933 C105.909492,69.0281109 112.188442,64.5531748 112.750861,64"/>
      <polygon fill="#225E9C" points="191 127 196 127 196 0 191 0"/>
      <path fill="#868D8F" d="M240.74695 121.101264C240.74695 119.980956 240.368811 119.117561 239.608467 118.506867 238.844056 117.896173 237.880411 117.58872 236.721598 117.58872L232.086343 117.58872 232.086343 124.710676 236.721598 124.710676C237.246113 124.710676 237.754365 124.6475 238.242287 124.516938 238.730208 124.386376 239.157139 124.175792 239.527147 123.893609 239.893088 123.603003 240.193973 123.236587 240.413537 122.773302 240.637168 122.31844 240.74695 121.762498 240.74695 121.101264zM240.019134 111.288042C240.019134 110.315144 239.685721 109.561253 239.018895 109.039004 238.352069 108.516755 237.35183 108.251419 236.022243 108.251419L232.086343 108.251419 232.086343 114.400476 236.14829 114.400476C237.229849 114.400476 238.144702 114.156198 238.892849 113.680278 239.640995 113.200146 240.019134 112.404138 240.019134 111.288042zM245 121.101264C245 122.39425 244.747907 123.480864 244.251854 124.373741 243.7558 125.258194 243.11337 125.965757 242.332696 126.504853 241.552021 127.039736 240.690026 127.422999 239.746711 127.65043 238.807462 127.882073 237.880411 128 236.973691 128L228 128 228 105 236.908634 105C237.880411 105 238.811528 105.12635 239.701985 105.362205 240.588376 105.606482 241.36905 105.981322 242.031811 106.499359 242.698637 107.013184 243.227218 107.65336 243.617556 108.436733 244.011959 109.211683 244.203061 110.125618 244.203061 111.178539 244.203061 111.902948 244.085147 112.534701 243.841186 113.078008 243.597226 113.629738 243.300407 114.097235 242.950729 114.480498 242.605118 114.863761 242.231045 115.167002 241.840708 115.398645 241.450371 115.630287 241.096628 115.790331 240.779479 115.870353 241.096628 115.920894 241.491031 116.051456 241.97082 116.270463 242.446544 116.485259 242.910069 116.81377 243.365463 117.23915 243.820856 117.66453 244.203061 118.199414 244.524276 118.835378 244.841425 119.467131 245 120.229445 245 121.101264zM259.216963 117.813181C259.216963 117.211776 259.157791 116.647444 259.031558 116.107827 258.90927 115.580567 258.715976 115.098619 258.463511 114.699055 258.203156 114.291253 257.87574 113.978192 257.477318 113.751636 257.078895 113.529198 256.609467 113.409741 256.076923 113.409741 255.544379 113.409741 255.08284 113.529198 254.692308 113.768112 254.301775 114.007027 253.978304 114.320087 253.725838 114.711413 253.465483 115.106857 253.272189 115.580567 253.138067 116.107827 253.003945 116.647444 252.936884 117.211776 252.936884 117.813181L259.216963 117.813181zM252.936884 120.227041C252.980276 121.215653 253.118343 122.039496 253.351085 122.69857 253.591716 123.365883 253.879684 123.897262 254.230769 124.305064 254.581854 124.712866 254.976331 125.005331 255.414201 125.190695 255.856016 125.367822 256.293886 125.466683 256.719921 125.466683 257.773176 125.466683 258.672584 125.297795 259.42998 124.947662 260.187377 124.605767 260.90927 124.123819 261.583826 123.501817L262.601578 126.175188C262.065089 126.624182 261.303748 127.040223 260.309665 127.419191 259.311637 127.810516 258.100592 128 256.66075 128 255.145957 128 253.891519 127.748728 252.90927 127.262661 251.923077 126.772474 251.142012 126.121638 250.566075 125.32251 249.994083 124.515144 249.587771 123.59244 249.35503 122.558517 249.118343 121.516356 249 120.449479 249 119.362006 249 118.373395 249.134122 117.384783 249.402367 116.40441 249.662722 115.415798 250.084813 114.521929 250.66075 113.718682 251.236686 112.915435 251.966469 112.264599 252.861933 111.757936 253.757396 111.255391 254.83432 111 256.108481 111 257.358974 111 258.420118 111.234795 259.291913 111.696147 260.163708 112.149261 260.877712 112.758905 261.42998 113.508602 261.982249 114.25418 262.384615 115.098619 262.633136 116.029561 262.877712 116.960504 263 117.891447 263 118.810031L263 120.227041 252.936884 120.227041zM277.840959 114.716411C277.636166 114.585523 277.32244 114.411006 276.891068 114.173029 276.459695 113.939018 275.928105 113.823996 275.291939 113.823996 274.616558 113.823996 274.019608 113.923153 273.509804 114.141299 273 114.359445 272.577342 114.637085 272.233115 114.974219 271.893246 115.31532 271.636166 115.704016 271.470588 116.136341 271.300654 116.568666 271.213508 117.000992 271.213508 117.437283L271.213508 127 267 127 267 111.682201 270.734205 111.682201 270.943355 113.88349C271.169935 113.570154 271.418301 113.252851 271.69281 112.923649 271.962963 112.590481 272.281046 112.277144 272.660131 111.991572 273.034858 111.702033 273.479303 111.464056 274.002179 111.281606 274.520697 111.091225 275.135076 111 275.836601 111 276.494553 111 277.122004 111.115022 277.723312 111.364898 278.320261 111.594943 278.747277 111.793257 279 111.963808L277.840959 114.716411"/>
      <polygon fill="#868D8F" points="281.082 128 285.918 128 285.918 105 281.082 105"/>
      <path fill="#868D8F" d="M291.31617 127L295.68383 127 295.68383 111.533171 291.31617 111.533171 291.31617 127zM296 106.254745C296 106.567125 295.927733 106.855476 295.769648 107.127808 295.620596 107.400139 295.426378 107.636427 295.191509 107.848685 294.95664 108.056939 294.69467 108.217134 294.396567 108.33728 294.102981 108.445412 293.800361 108.505485 293.502258 108.505485 292.865402 108.505485 292.29178 108.285217 291.772358 107.848685 291.257453 107.408149 291 106.875501 291 106.254745 291 105.942365 291.063234 105.650009 291.194219 105.381682 291.325203 105.109351 291.505872 104.877068 291.736224 104.680829 291.97561 104.480585 292.242096 104.32039 292.549232 104.192234 292.851852 104.072088 293.168022 104 293.502258 104 294.152665 104 294.735321 104.232283 295.241192 104.692843 295.751581 105.149399 296 105.670033 296 106.254745zM311.098559 127L311.098559 116.977194C311.098559 115.985622 310.860519 115.164601 310.380403 114.518096 309.892219 113.867625 309.182133 113.538423 308.234006 113.538423 307.693372 113.538423 307.209222 113.665345 306.801729 113.911254 306.394236 114.153198 306.051297 114.462568 305.764841 114.827467 305.482421 115.184432 305.264553 115.565196 305.123343 115.965791 304.974063 116.374318 304.897406 116.715419 304.897406 117.000992L304.897406 127 301 127 301 111.682201 304.457637 111.682201 304.651297 113.88349C304.861095 113.570154 305.107205 113.252851 305.401729 112.923649 305.696254 112.590481 306.047262 112.277144 306.446686 111.991572 306.842075 111.702033 307.289914 111.464056 307.794236 111.281606 308.298559 111.091225 308.867435 111 309.49683 111 311.195389 111 312.53487 111.471988 313.523343 112.408032 314.511816 113.348042 315 114.62122 315 116.227566L315 127 311.098559 127"/>
      <polyline fill="#868D8F" points="256.184 48 235.895 12.952 235.895 48 227 48 227 1 238.811 1 259.105 36.048 259.105 1 268 1 268 48 256.184 48"/>
      <path fill="#868D8F" d="M300.350188 28.0242915C300.350188 26.7894737 300.208176 25.6194332 299.928456 24.5182186 299.644432 23.417004 299.214094 22.4453441 298.628833 21.6072874 298.039268 20.7692308 297.290479 20.1174089 296.373857 19.6558704 295.457235 19.1902834 294.398601 18.9595142 293.172136 18.9595142 291.954276 18.9595142 290.90425 19.2024291 290.013448 19.6882591 289.122647 20.1740891 288.382464 20.8259109 287.792899 21.6396761 287.211942 22.4574899 286.760086 23.417004 286.463152 24.5182186 286.153308 25.6194332 286.00269 26.7894737 286.00269 28.0242915L300.350188 28.0242915zM286.00269 32.9878543C286.097364 35.0161943 286.415815 36.7125506 286.953739 38.0809717 287.491662 39.4493927 288.154384 40.5546559 288.954814 41.388664 289.750941 42.2307692 290.658956 42.8340081 291.661646 43.2105263 292.668639 43.582996 293.667025 43.7732794 294.652501 43.7732794 297.049489 43.7732794 299.106509 43.4210526 300.836471 42.7125506 302.57504 42.0080972 304.223238 41.0161943 305.763852 39.7368421L308.087682 45.2267206C306.869822 46.1497976 305.118343 47.0121457 302.846154 47.8097166 300.569661 48.6032389 297.793975 49 294.514793 49 291.041958 49 288.184508 48.4939271 285.933835 47.4777328 283.683163 46.4615385 281.90156 45.1295547 280.589026 43.4736842 279.276493 41.8178138 278.351264 39.9230769 277.809037 37.7813765 277.271114 35.6437247 277 33.4493927 277 31.1983806 277 29.1700405 277.305541 27.1417004 277.916622 25.1133603 278.5234 23.0850202 279.483055 21.242915 280.799892 19.5910931 282.112426 17.9352227 283.790748 16.5910931 285.826251 15.5546559 287.866057 14.5182186 290.340506 14 293.249597 14 296.107047 14 298.534158 14.4736842 300.526627 15.4210526 302.519096 16.3684211 304.150081 17.6153846 305.415277 19.1619433 306.680473 20.7044534 307.597095 22.437247 308.152232 24.3522267 308.72028 26.2712551 309 28.1781377 309 30.0769231L309 32.9878543 286.00269 32.9878543zM336 47.263658C335.296227 47.6599525 334.259996 48.0521615 332.895626 48.432114 331.535573 48.8120665 330.261873 49 329.087479 49 326.967524 49 325.218885 48.7752969 323.828609 48.3340618 322.442651 47.8846556 321.358926 47.263658 320.586071 46.4628979 319.808898 45.6580523 319.273512 44.6816152 318.962643 43.5254157 318.651774 42.3692162 318.504975 41.0781948 318.504975 39.6523515L318.504975 20.8222328 313 20.8222328 313 15.1474584 318.504975 15.1474584 318.504975 8.34099762 327.252487 6 327.252487 15.1474584 335.369626 15.1474584 335.369626 20.8222328 327.252487 20.8222328 327.252487 38.8475059C327.252487 40.5389074 327.571992 41.6910214 328.206683 42.2875059 328.841374 42.8921615 329.674676 43.1904038 330.706589 43.1904038 331.557162 43.1904038 332.299794 43.0228979 332.934485 42.687886 333.564858 42.3569596 334.117515 42.0342043 334.592454 41.71962L336 47.263658"/>
      <polyline fill="#868D8F" points="341 48 341 44.267 359.983 20.936 341.89 20.936 341.89 15 371.595 15 371.595 18.737 352.817 42.068 372 42.068 372 48 341 48"/>
      <polyline fill="#868D8F" points="418.962 48 410.242 48 403.569 25.868 396.758 48 388.038 48 377 15 386.466 15 393.144 39.2 399.346 18.202 407.929 18.202 414.398 39.2 420.867 15 430 15 418.962 48"/>
      <path fill="#868D8F" d="M457.350188 28.0242915C457.350188 26.7894737 457.208176 25.6194332 456.924153 24.5182186 456.644432 23.417004 456.20979 22.4453441 455.628833 21.6072874 455.039268 20.7692308 454.286175 20.1174089 453.373857 19.6558704 452.457235 19.1902834 451.394298 18.9595142 450.176439 18.9595142 448.954276 18.9595142 447.899946 19.2024291 447.013448 19.6882591 446.118343 20.1740891 445.382464 20.8259109 444.792899 21.6396761 444.207639 22.4574899 443.760086 23.417004 443.458849 24.5182186 443.153308 25.6194332 442.998386 26.7894737 442.998386 28.0242915L457.350188 28.0242915zM442.998386 32.9878543C443.093061 35.0161943 443.415815 36.7125506 443.949435 38.0809717 444.491662 39.4493927 445.158687 40.5546559 445.954814 41.388664 446.750941 42.2307692 447.654653 42.8340081 448.661646 43.2105263 449.668639 43.582996 450.667025 43.7732794 451.652501 43.7732794 454.040882 43.7732794 456.110812 43.4210526 457.836471 42.7125506 459.57504 42.0080972 461.214632 41.0161943 462.763852 39.7368421L465.083378 45.2267206C463.865519 46.1497976 462.118343 47.0121457 459.846154 47.8097166 457.569661 48.6032389 454.793975 49 451.51049 49 448.041958 49 445.184508 48.4939271 442.933835 47.4777328 440.67886 46.4615385 438.90156 45.1295547 437.584723 43.4736842 436.272189 41.8178138 435.351264 39.9230769 434.809037 37.7813765 434.271114 35.6437247 434 33.4493927 434 31.1983806 434 29.1700405 434.301237 27.1417004 434.912318 25.1133603 435.5234 23.0850202 436.483055 21.242915 437.795589 19.5910931 439.112426 17.9352227 440.786444 16.5910931 442.826251 15.5546559 444.866057 14.5182186 447.340506 14 450.249597 14 453.107047 14 455.529855 14.4736842 457.522324 15.4210526 459.514793 16.3684211 461.145777 17.6153846 462.415277 19.1619433 463.67617 20.7044534 464.592792 22.437247 465.152232 24.3522267 465.711673 26.2712551 466 28.1781377 466 30.0769231L466 32.9878543 442.998386 32.9878543zM495.690707 21.1244081C495.278779 20.8509706 494.646325 20.4573864 493.785021 19.9395123 492.923717 19.4174953 491.85853 19.1564867 490.589459 19.1564867 489.224688 19.1564867 488.038835 19.3967803 487.019417 19.8690814 486 20.3455256 485.151179 20.9545455 484.464632 21.6961411 483.790569 22.4418797 483.274619 23.2911932 482.937587 24.2399384 482.596394 25.1845407 482.425798 26.133286 482.425798 27.0820313L482.425798 48 474 48 474 14.4873343 481.477115 14.4873343 481.880721 19.2932055C482.338419 18.6178977 482.837725 17.917732 483.382802 17.1968513 483.923717 16.4759706 484.568655 15.7965199 485.317614 15.166785 486.066574 14.5329072 486.961165 14.0150331 488.005548 13.6090199 489.04577 13.1988636 490.269071 13 491.675451 13 492.990291 13 494.246879 13.2568655 495.453537 13.7747396 496.651872 14.2967566 497.500693 14.7359138 498 15.0963542L495.690707 21.1244081"/>
      <polyline fill="#868D8F" points="525.724 48 511.671 30.41 511.671 48 503 48 503 1 511.671 1 511.671 30.345 524.18 14.764 534.113 14.764 521.113 30.004 536 48 525.724 48"/>
    </g>
  </g>
</svg>
