<svg xmlns="http://www.w3.org/2000/svg" width="312" height="132" viewBox="0 0 312 132">
  <g fill="none" fill-rule="evenodd">
    <path fill="#FFFFFF" d="M150.56,69.412 C151.412004,69.5680008 152.098997,69.8739977 152.621,70.33 C153.143003,70.7860023 153.404,71.4819953 153.404,72.418 C153.404,73.7140065 152.948005,74.6349973 152.036,75.181 C151.123995,75.7270027 149.846008,76 148.202,76 L144.458,76 L144.458,63.562 L147.716,63.562 C151.148017,63.562 152.864,64.6179894 152.864,66.73 C152.864,67.4620037 152.642002,68.0589977 152.198,68.521 C151.753998,68.9830023 151.208003,69.2799993 150.56,69.412 Z M146.834,65.308 L146.834,68.674 L148.292,68.674 C148.952003,68.674 149.473998,68.5270015 149.858,68.233 C150.242002,67.9389985 150.434,67.5040029 150.434,66.928 C150.434,66.327997 150.233002,65.9080012 149.831,65.668 C149.428998,65.4279988 148.802004,65.308 147.95,65.308 L146.834,65.308 Z M148.22,74.218 C149.096004,74.218 149.764998,74.0860013 150.227,73.822 C150.689002,73.5579987 150.92,73.0600037 150.92,72.328 C150.92,71.6199965 150.701002,71.1100016 150.263,70.798 C149.824998,70.4859984 149.228004,70.33 148.472,70.33 L146.834,70.33 L146.834,74.218 L148.22,74.218 Z M163.732,71.014 C163.732,71.1340006 163.714,71.4459975 163.678,71.95 L157.702,71.95 C157.774,72.8740046 158.013998,73.533998 158.422,73.93 C158.830002,74.326002 159.369997,74.524 160.042,74.524 C160.462002,74.524 160.857998,74.4550007 161.23,74.317 C161.602002,74.1789993 161.997998,73.9660014 162.418,73.678 L163.372,74.992 C162.315995,75.8440043 161.140006,76.27 159.844,76.27 C158.391993,76.27 157.273004,75.8260044 156.487,74.938 C155.700996,74.0499956 155.308,72.8380077 155.308,71.302 C155.308,70.3299951 155.475998,69.4570039 155.812,68.683 C156.148002,67.9089961 156.633997,67.3030022 157.27,66.865 C157.906003,66.4269978 158.661996,66.208 159.538,66.208 C160.870007,66.208 161.901996,66.6309958 162.634,67.477 C163.366004,68.3230042 163.732,69.5019924 163.732,71.014 Z M161.446,70.348 C161.446,68.6799917 160.828006,67.846 159.592,67.846 C159.027997,67.846 158.587002,68.0529979 158.269,68.467 C157.950998,68.8810021 157.762,69.5439954 157.702,70.456 L161.446,70.456 L161.446,70.348 Z M171,66.226 C171.348002,66.226 171.665999,66.2679996 171.954,66.352 L171.558,68.584 C171.269999,68.5119996 170.988001,68.476 170.712,68.476 C170.147997,68.476 169.704002,68.676998 169.38,69.079 C169.055998,69.481002 168.798001,70.0959959 168.606,70.924 L168.606,76 L166.302,76 L166.302,66.478 L168.3,66.478 L168.516,68.35 C168.744001,67.6659966 169.073998,67.1410018 169.506,66.775 C169.938002,66.4089982 170.435997,66.226 171,66.226 Z M176.144,76.27 C175.411996,76.27 174.839002,76.0570021 174.425,75.631 C174.010998,75.2049979 173.804,74.6020039 173.804,73.822 L173.804,62.662 L176.108,62.41 L176.108,73.75 C176.108,74.1940022 176.287998,74.416 176.648,74.416 C176.828001,74.416 177.007999,74.3860003 177.188,74.326 L177.674,75.946 C177.193998,76.1620011 176.684003,76.27 176.144,76.27 Z M182.008,66.478 L182.008,76 L179.704,76 L179.704,66.478 L182.008,66.478 Z M180.838,61.654 C181.270002,61.654 181.620999,61.7889986 181.891,62.059 C182.161001,62.3290013 182.296,62.661998 182.296,63.058 C182.296,63.454002 182.161001,63.7839987 181.891,64.048 C181.620999,64.3120013 181.270002,64.444 180.838,64.444 C180.417998,64.444 180.073001,64.3120013 179.803,64.048 C179.532999,63.7839987 179.398,63.454002 179.398,63.058 C179.398,62.661998 179.532999,62.3290013 179.803,62.059 C180.073001,61.7889986 180.417998,61.654 180.838,61.654 Z M190.356,66.208 C191.208004,66.208 191.870998,66.4629974 192.345,66.973 C192.819002,67.4830026 193.056,68.1939954 193.056,69.106 L193.056,76 L190.752,76 L190.752,69.466 C190.752,68.9019972 190.653001,68.5060011 190.455,68.278 C190.256999,68.0499989 189.966002,67.936 189.582,67.936 C189.185998,67.936 188.829002,68.0589988 188.511,68.305 C188.192998,68.5510012 187.884002,68.9079977 187.584,69.376 L187.584,76 L185.28,76 L185.28,66.478 L187.278,66.478 L187.458,67.72 C188.238004,66.711995 189.203994,66.208 190.356,66.208 Z M204.05,71.014 C204.05,71.1340006 204.032,71.4459975 203.996,71.95 L198.02,71.95 C198.092,72.8740046 198.331998,73.533998 198.74,73.93 C199.148002,74.326002 199.687997,74.524 200.36,74.524 C200.780002,74.524 201.175998,74.4550007 201.548,74.317 C201.920002,74.1789993 202.315998,73.9660014 202.736,73.678 L203.69,74.992 C202.633995,75.8440043 201.458006,76.27 200.162,76.27 C198.709993,76.27 197.591004,75.8260044 196.805,74.938 C196.018996,74.0499956 195.626,72.8380077 195.626,71.302 C195.626,70.3299951 195.793998,69.4570039 196.13,68.683 C196.466002,67.9089961 196.951997,67.3030022 197.588,66.865 C198.224003,66.4269978 198.979996,66.208 199.856,66.208 C201.188007,66.208 202.219996,66.6309958 202.952,67.477 C203.684004,68.3230042 204.05,69.5019924 204.05,71.014 Z M201.764,70.348 C201.764,68.6799917 201.146006,67.846 199.91,67.846 C199.345997,67.846 198.905002,68.0529979 198.587,68.467 C198.268998,68.8810021 198.08,69.5439954 198.02,70.456 L201.764,70.456 L201.764,70.348 Z M211.318,66.226 C211.666002,66.226 211.983999,66.2679996 212.272,66.352 L211.876,68.584 C211.587999,68.5119996 211.306001,68.476 211.03,68.476 C210.465997,68.476 210.022002,68.676998 209.698,69.079 C209.373998,69.481002 209.116001,70.0959959 208.924,70.924 L208.924,76 L206.62,76 L206.62,66.478 L208.618,66.478 L208.834,68.35 C209.062001,67.6659966 209.391998,67.1410018 209.824,66.775 C210.256002,66.4089982 210.753997,66.226 211.318,66.226 Z M144.458,100 L144.458,87.562 L151.496,87.562 L151.244,89.326 L146.834,89.326 L146.834,93.052 L150.668,93.052 L150.668,94.816 L146.834,94.816 L146.834,100 L144.458,100 Z M159.646,97.48 C159.646,97.8520019 159.702999,98.1249991 159.817,98.299 C159.931001,98.4730009 160.113999,98.6079995 160.366,98.704 L159.88,100.234 C159.339997,100.186 158.899002,100.054001 158.557,99.838 C158.214998,99.6219989 157.954001,99.2920022 157.774,98.848 C157.449998,99.3280024 157.045002,99.6849988 156.559,99.919 C156.072998,100.153001 155.530003,100.27 154.93,100.27 C153.981995,100.27 153.232003,100.000003 152.68,99.46 C152.127997,98.9199973 151.852,98.2120044 151.852,97.336 C151.852,96.3039948 152.226996,95.5150027 152.977,94.969 C153.727004,94.4229973 154.797993,94.15 156.19,94.15 L157.378,94.15 L157.378,93.61 C157.378,92.9979969 157.237001,92.5690012 156.955,92.323 C156.672999,92.0769988 156.220003,91.954 155.596,91.954 C154.899997,91.954 154.060005,92.1219983 153.076,92.458 L152.536,90.892 C153.724006,90.4359977 154.875994,90.208 155.992,90.208 C158.428012,90.208 159.646,91.2999891 159.646,93.484 L159.646,97.48 Z M155.542,98.596 C156.322004,98.596 156.933998,98.2060039 157.378,97.426 L157.378,95.5 L156.424,95.5 C154.935993,95.5 154.192,96.0519945 154.192,97.156 C154.192,97.6120023 154.305999,97.9659987 154.534,98.218 C154.762001,98.4700013 155.097998,98.596 155.542,98.596 Z M166.77,90.208 C167.394003,90.208 167.954998,90.2979991 168.453,90.478 C168.951002,90.6580009 169.421998,90.9399981 169.866,91.324 L168.84,92.71 C168.515998,92.4699988 168.204002,92.2960005 167.904,92.188 C167.603998,92.0799995 167.274002,92.026 166.914,92.026 C165.485993,92.026 164.772,93.1119891 164.772,95.284 C164.772,96.3880055 164.957998,97.1829976 165.33,97.669 C165.702002,98.1550024 166.229997,98.398 166.914,98.398 C167.250002,98.398 167.558999,98.3440005 167.841,98.236 C168.123001,98.1279995 168.455998,97.9540012 168.84,97.714 L169.866,99.172 C168.965996,99.9040037 167.940006,100.27 166.788,100.27 C165.875995,100.27 165.084003,100.069002 164.412,99.667 C163.739997,99.264998 163.224002,98.6920037 162.864,97.948 C162.503998,97.2039963 162.324,96.328005 162.324,95.32 C162.324,94.311995 162.503998,93.4210039 162.864,92.647 C163.224002,91.8729961 163.739997,91.2730021 164.412,90.847 C165.084003,90.4209979 165.869996,90.208 166.77,90.208 Z M177.116,90.208 C177.956004,90.208 178.615998,90.4659974 179.096,90.982 C179.576002,91.4980026 179.816,92.2059955 179.816,93.106 L179.816,100 L177.512,100 L177.512,93.466 C177.512,92.9019972 177.413001,92.5060011 177.215,92.278 C177.016999,92.0499989 176.726002,91.936 176.342,91.936 C175.957998,91.936 175.604002,92.0589988 175.28,92.305 C174.955998,92.5510012 174.644002,92.9019977 174.344,93.358 L174.344,100 L172.04,100 L172.04,86.68 L174.344,86.446 L174.344,91.612 C175.112004,90.6759953 176.035995,90.208 177.116,90.208 Z M187.93,90.208 C189.034006,90.208 189.897997,90.6489956 190.522,91.531 C191.146003,92.4130044 191.458,93.6459921 191.458,95.23 C191.458,96.2140049 191.305002,97.0869962 190.999,97.849 C190.692998,98.6110038 190.258003,99.2049979 189.694,99.631 C189.129997,100.057002 188.464004,100.27 187.696,100.27 C187.179997,100.27 186.709002,100.162001 186.283,99.946 C185.856998,99.7299989 185.488002,99.424002 185.176,99.028 L185.032,100 L182.998,100 L182.998,86.662 L185.302,86.41 L185.302,91.558 C185.614002,91.1259978 185.994998,90.7930012 186.445,90.559 C186.895002,90.3249988 187.389997,90.208 187.93,90.208 Z M187.066,98.542 C187.690003,98.542 188.175998,98.2750027 188.524,97.741 C188.872002,97.2069973 189.046,96.3700057 189.046,95.23 C189.046,94.029994 188.884002,93.1810025 188.56,92.683 C188.235998,92.1849975 187.780003,91.936 187.192,91.936 C186.459996,91.936 185.830003,92.3679957 185.302,93.232 L185.302,97.444 C185.506001,97.7920017 185.760998,98.061999 186.067,98.254 C186.373002,98.446001 186.705998,98.542 187.066,98.542 Z M202.038,95.014 C202.038,95.1340006 202.02,95.4459975 201.984,95.95 L196.008,95.95 C196.08,96.8740046 196.319998,97.533998 196.728,97.93 C197.136002,98.326002 197.675997,98.524 198.348,98.524 C198.768002,98.524 199.163998,98.4550007 199.536,98.317 C199.908002,98.1789993 200.303998,97.9660014 200.724,97.678 L201.678,98.992 C200.621995,99.8440043 199.446006,100.27 198.15,100.27 C196.697993,100.27 195.579004,99.8260044 194.793,98.938 C194.006996,98.0499956 193.614,96.8380077 193.614,95.302 C193.614,94.3299951 193.781998,93.4570039 194.118,92.683 C194.454002,91.9089961 194.939997,91.3030022 195.576,90.865 C196.212003,90.4269978 196.967996,90.208 197.844,90.208 C199.176007,90.208 200.207996,90.6309958 200.94,91.477 C201.672004,92.3230042 202.038,93.5019924 202.038,95.014 Z M199.752,94.348 C199.752,92.6799917 199.134006,91.846 197.898,91.846 C197.333997,91.846 196.893002,92.0529979 196.575,92.467 C196.256998,92.8810021 196.068,93.5439954 196.008,94.456 L199.752,94.456 L199.752,94.348 Z M209.306,90.226 C209.654002,90.226 209.971999,90.2679996 210.26,90.352 L209.864,92.584 C209.575999,92.5119996 209.294001,92.476 209.018,92.476 C208.453997,92.476 208.010002,92.676998 207.686,93.079 C207.361998,93.481002 207.104001,94.0959959 206.912,94.924 L206.912,100 L204.608,100 L204.608,90.478 L206.606,90.478 L206.822,92.35 C207.050001,91.6659966 207.379998,91.1410018 207.812,90.775 C208.244002,90.4089982 208.741997,90.226 209.306,90.226 Z M218.608,97.48 C218.608,97.8520019 218.664999,98.1249991 218.779,98.299 C218.893001,98.4730009 219.075999,98.6079995 219.328,98.704 L218.842,100.234 C218.301997,100.186 217.861002,100.054001 217.519,99.838 C217.176998,99.6219989 216.916001,99.2920022 216.736,98.848 C216.411998,99.3280024 216.007002,99.6849988 215.521,99.919 C215.034998,100.153001 214.492003,100.27 213.892,100.27 C212.943995,100.27 212.194003,100.000003 211.642,99.46 C211.089997,98.9199973 210.814,98.2120044 210.814,97.336 C210.814,96.3039948 211.188996,95.5150027 211.939,94.969 C212.689004,94.4229973 213.759993,94.15 215.152,94.15 L216.34,94.15 L216.34,93.61 C216.34,92.9979969 216.199001,92.5690012 215.917,92.323 C215.634999,92.0769988 215.182003,91.954 214.558,91.954 C213.861997,91.954 213.022005,92.1219983 212.038,92.458 L211.498,90.892 C212.686006,90.4359977 213.837994,90.208 214.954,90.208 C217.390012,90.208 218.608,91.2999891 218.608,93.484 L218.608,97.48 Z M214.504,98.596 C215.284004,98.596 215.895998,98.2060039 216.34,97.426 L216.34,95.5 L215.386,95.5 C213.897993,95.5 213.154,96.0519945 213.154,97.156 C213.154,97.6120023 213.267999,97.9659987 213.496,98.218 C213.724001,98.4700013 214.059998,98.596 214.504,98.596 Z M227.352,99.55 C227.015998,99.7900012 226.641002,99.9699994 226.227,100.09 C225.812998,100.210001 225.390002,100.27 224.958,100.27 C224.021995,100.258 223.311002,99.9910026 222.825,99.469 C222.338998,98.9469974 222.096,98.1760051 222.096,97.156 L222.096,92.134 L220.602,92.134 L220.602,90.478 L222.096,90.478 L222.096,88.372 L224.4,88.102 L224.4,90.478 L226.614,90.478 L226.38,92.134 L224.4,92.134 L224.4,97.102 C224.4,97.5700023 224.480999,97.905999 224.643,98.11 C224.805001,98.314001 225.059998,98.416 225.408,98.416 C225.756002,98.416 226.133998,98.3020011 226.542,98.074 L227.352,99.55 Z M236.762,100 L234.764,100 L234.638,98.668 C234.289998,99.2080027 233.879002,99.6099987 233.405,99.874 C232.930998,100.138001 232.370003,100.27 231.722,100.27 C230.869996,100.27 230.213002,100.009003 229.751,99.487 C229.288998,98.9649974 229.058,98.2420046 229.058,97.318 L229.058,90.478 L231.362,90.478 L231.362,97.03 C231.362,97.5700027 231.454999,97.9539989 231.641,98.182 C231.827001,98.4100011 232.123998,98.524 232.532,98.524 C233.264004,98.524 233.905997,98.0740045 234.458,97.174 L234.458,90.478 L236.762,90.478 L236.762,100 Z M245.11,90.208 C245.962004,90.208 246.624998,90.4629975 247.099,90.973 C247.573002,91.4830025 247.81,92.1939954 247.81,93.106 L247.81,100 L245.506,100 L245.506,93.466 C245.506,92.9019972 245.407001,92.5060011 245.209,92.278 C245.010999,92.0499989 244.720002,91.936 244.336,91.936 C243.939998,91.936 243.583002,92.0589988 243.265,92.305 C242.946998,92.5510012 242.638002,92.9079977 242.338,93.376 L242.338,100 L240.034,100 L240.034,90.478 L242.032,90.478 L242.212,91.72 C242.992004,90.711995 243.957994,90.208 245.11,90.208 Z M259.272,90.982 C258.659997,91.1980011 257.742006,91.306 256.518,91.306 C257.106003,91.5700013 257.540999,91.8969981 257.823,92.287 C258.105001,92.677002 258.246,93.1659971 258.246,93.754 C258.246,94.3780031 258.093002,94.9299976 257.787,95.41 C257.480998,95.8900024 257.037003,96.2679986 256.455,96.544 C255.872997,96.8200014 255.192004,96.958 254.412,96.958 C253.979998,96.958 253.602002,96.9100005 253.278,96.814 C253.013999,96.9940009 252.882,97.2279986 252.882,97.516 C252.882,97.9600022 253.265996,98.182 254.034,98.182 L255.492,98.182 C256.188003,98.182 256.796997,98.2959989 257.319,98.524 C257.841003,98.7520011 258.245999,99.0729979 258.534,99.487 C258.822001,99.9010021 258.966,100.365997 258.966,100.882 C258.966,101.842005 258.558004,102.588997 257.742,103.123 C256.925996,103.657003 255.750008,103.924 254.214,103.924 C253.109994,103.924 252.243003,103.810001 251.613,103.582 C250.982997,103.353999 250.536001,103.024002 250.272,102.592 C250.007999,102.159998 249.876,101.608003 249.876,100.936 L251.946,100.936 C251.946,101.272002 252.008999,101.535999 252.135,101.728 C252.261001,101.920001 252.488998,102.064 252.819,102.16 C253.149002,102.256 253.625997,102.304 254.25,102.304 C255.126004,102.304 255.743998,102.196001 256.104,101.98 C256.464002,101.763999 256.644,101.452002 256.644,101.044 C256.644,100.683998 256.506001,100.405001 256.23,100.207 C255.953999,100.008999 255.552003,99.91 255.024,99.91 L253.584,99.91 C252.683996,99.91 252.006002,99.7360017 251.55,99.388 C251.093998,99.0399983 250.866,98.6020026 250.866,98.074 C250.866,97.7379983 250.964999,97.4140016 251.163,97.102 C251.361001,96.7899984 251.633998,96.5260011 251.982,96.31 C251.405997,96.0099985 250.983001,95.6410022 250.713,95.203 C250.442999,94.7649978 250.308,94.2400031 250.308,93.628 C250.308,92.9439966 250.475998,92.3440026 250.812,91.828 C251.148002,91.3119974 251.612997,90.9130014 252.207,90.631 C252.801003,90.3489986 253.481996,90.208 254.25,90.208 C255.258005,90.2320001 256.070997,90.1570009 256.689,89.983 C257.307003,89.8089991 257.975996,89.5300019 258.696,89.146 L259.272,90.982 Z M254.286,91.774 C253.769997,91.774 253.365001,91.9389983 253.071,92.269 C252.776999,92.5990016 252.63,93.0399972 252.63,93.592 C252.63,94.1680029 252.779999,94.6239983 253.08,94.96 C253.380001,95.2960017 253.793997,95.464 254.322,95.464 C254.874003,95.464 255.293999,95.2990017 255.582,94.969 C255.870001,94.6389984 256.014,94.174003 256.014,93.574 C256.014,92.373994 255.438006,91.774 254.286,91.774 Z M264.02,90.208 C265.304006,90.208 266.431995,90.5859962 267.404,91.342 L266.504,92.692 C265.687996,92.1759974 264.890004,91.918 264.11,91.918 C263.653998,91.918 263.300001,92.0049991 263.048,92.179 C262.795999,92.3530009 262.67,92.5839986 262.67,92.872 C262.67,93.0880011 262.723999,93.2679993 262.832,93.412 C262.940001,93.5560007 263.134999,93.6909994 263.417,93.817 C263.699001,93.9430006 264.115997,94.0839992 264.668,94.24 C265.700005,94.5160014 266.464998,94.8819977 266.963,95.338 C267.461002,95.7940023 267.71,96.4299959 267.71,97.246 C267.71,98.1940047 267.326004,98.9349973 266.558,99.469 C265.789996,100.003003 264.836006,100.27 263.696,100.27 C262.915996,100.27 262.205003,100.150001 261.563,99.91 C260.920997,99.6699988 260.366002,99.3400021 259.898,98.92 L261.05,97.624 C261.878004,98.2480031 262.741996,98.56 263.642,98.56 C264.158003,98.56 264.568998,98.458001 264.875,98.254 C265.181002,98.049999 265.334,97.7680018 265.334,97.408 C265.334,97.1319986 265.277001,96.9130008 265.163,96.751 C265.048999,96.5889992 264.845001,96.4450006 264.551,96.319 C264.256999,96.1929994 263.798003,96.0400009 263.174,95.86 C262.201995,95.5959987 261.488002,95.2270024 261.032,94.753 C260.575998,94.2789976 260.348,93.6880035 260.348,92.98 C260.348,92.4519974 260.500998,91.9780021 260.807,91.558 C261.113002,91.1379979 261.544997,90.8080012 262.103,90.568 C262.661003,90.3279988 263.299996,90.208 264.02,90.208 Z M275.158,90.208 C276.010004,90.208 276.672998,90.4629975 277.147,90.973 C277.621002,91.4830025 277.858,92.1939954 277.858,93.106 L277.858,100 L275.554,100 L275.554,93.466 C275.554,92.9019972 275.455001,92.5060011 275.257,92.278 C275.058999,92.0499989 274.768002,91.936 274.384,91.936 C273.987998,91.936 273.631002,92.0589988 273.313,92.305 C272.994998,92.5510012 272.686002,92.9079977 272.386,93.376 L272.386,100 L270.082,100 L270.082,90.478 L272.08,90.478 L272.26,91.72 C273.040004,90.711995 274.005994,90.208 275.158,90.208 Z M288.852,95.014 C288.852,95.1340006 288.834,95.4459975 288.798,95.95 L282.822,95.95 C282.894,96.8740046 283.133998,97.533998 283.542,97.93 C283.950002,98.326002 284.489997,98.524 285.162,98.524 C285.582002,98.524 285.977998,98.4550007 286.35,98.317 C286.722002,98.1789993 287.117998,97.9660014 287.538,97.678 L288.492,98.992 C287.435995,99.8440043 286.260006,100.27 284.964,100.27 C283.511993,100.27 282.393004,99.8260044 281.607,98.938 C280.820996,98.0499956 280.428,96.8380077 280.428,95.302 C280.428,94.3299951 280.595998,93.4570039 280.932,92.683 C281.268002,91.9089961 281.753997,91.3030022 282.39,90.865 C283.026003,90.4269978 283.781996,90.208 284.658,90.208 C285.990007,90.208 287.021996,90.6309958 287.754,91.477 C288.486004,92.3230042 288.852,93.5019924 288.852,95.014 Z M286.566,94.348 C286.566,92.6799917 285.948006,91.846 284.712,91.846 C284.147997,91.846 283.707002,92.0529979 283.389,92.467 C283.070998,92.8810021 282.882,93.5439954 282.822,94.456 L286.566,94.456 L286.566,94.348 Z M296.876,99.55 C296.539998,99.7900012 296.165002,99.9699994 295.751,100.09 C295.336998,100.210001 294.914002,100.27 294.482,100.27 C293.545995,100.258 292.835002,99.9910026 292.349,99.469 C291.862998,98.9469974 291.62,98.1760051 291.62,97.156 L291.62,92.134 L290.126,92.134 L290.126,90.478 L291.62,90.478 L291.62,88.372 L293.924,88.102 L293.924,90.478 L296.138,90.478 L295.904,92.134 L293.924,92.134 L293.924,97.102 C293.924,97.5700023 294.004999,97.905999 294.167,98.11 C294.329001,98.314001 294.583998,98.416 294.932,98.416 C295.280002,98.416 295.657998,98.3020011 296.066,98.074 L296.876,99.55 Z M304.864,90.478 L304.864,92.134 L300.256,98.2 L304.954,98.2 L304.72,100 L297.61,100 L297.61,98.344 L302.236,92.278 L298.006,92.278 L298.006,90.478 L304.864,90.478 Z M148.238,112.156 C147.781998,112.156 147.455001,112.260999 147.257,112.471 C147.058999,112.681001 146.96,113.013998 146.96,113.47 L146.96,114.478 L149.246,114.478 L148.994,116.134 L146.96,116.134 L146.96,124 L144.656,124 L144.656,116.134 L143.108,116.134 L143.108,114.478 L144.656,114.478 L144.656,113.434 C144.656,112.533996 144.946997,111.805003 145.529,111.247 C146.111003,110.688997 146.935995,110.41 148.004,110.41 C148.844004,110.41 149.665996,110.595998 150.47,110.968 L149.804,112.516 C149.287997,112.275999 148.766003,112.156 148.238,112.156 Z M158.746,124 L156.748,124 L156.622,122.668 C156.273998,123.208003 155.863002,123.609999 155.389,123.874 C154.914998,124.138001 154.354003,124.27 153.706,124.27 C152.853996,124.27 152.197002,124.009003 151.735,123.487 C151.272998,122.964997 151.042,122.242005 151.042,121.318 L151.042,114.478 L153.346,114.478 L153.346,121.03 C153.346,121.570003 153.438999,121.953999 153.625,122.182 C153.811001,122.410001 154.107998,122.524 154.516,122.524 C155.248004,122.524 155.889997,122.074005 156.442,121.174 L156.442,114.478 L158.746,114.478 L158.746,124 Z M152.896,109.87 C153.244002,109.87 153.537999,109.989999 153.778,110.23 C154.018001,110.470001 154.138,110.763998 154.138,111.112 C154.138,111.460002 154.018001,111.753999 153.778,111.994 C153.537999,112.234001 153.244002,112.354 152.896,112.354 C152.535998,112.354 152.233001,112.234001 151.987,111.994 C151.740999,111.753999 151.618,111.460002 151.618,111.112 C151.618,110.763998 151.740999,110.470001 151.987,110.23 C152.233001,109.989999 152.535998,109.87 152.896,109.87 Z M156.874,109.87 C157.234002,109.87 157.533999,109.989999 157.774,110.23 C158.014001,110.470001 158.134,110.763998 158.134,111.112 C158.134,111.460002 158.014001,111.753999 157.774,111.994 C157.533999,112.234001 157.234002,112.354 156.874,112.354 C156.525998,112.354 156.229001,112.234001 155.983,111.994 C155.736999,111.753999 155.614,111.460002 155.614,111.112 C155.614,110.763998 155.736999,110.470001 155.983,110.23 C156.229001,109.989999 156.525998,109.87 156.874,109.87 Z M166.716,114.226 C167.064002,114.226 167.381999,114.268 167.67,114.352 L167.274,116.584 C166.985999,116.512 166.704001,116.476 166.428,116.476 C165.863997,116.476 165.420002,116.676998 165.096,117.079 C164.771998,117.481002 164.514001,118.095996 164.322,118.924 L164.322,124 L162.018,124 L162.018,114.478 L164.016,114.478 L164.232,116.35 C164.460001,115.665997 164.789998,115.141002 165.222,114.775 C165.654002,114.408998 166.151997,114.226 166.716,114.226 Z M182.152,111.562 L182.152,113.398 L176.41,122.056 L182.206,122.056 L181.954,124 L173.638,124 L173.638,122.182 L179.488,113.452 L174.232,113.452 L174.232,111.562 L182.152,111.562 Z M192.012,124 L190.014,124 L189.888,122.668 C189.539998,123.208003 189.129002,123.609999 188.655,123.874 C188.180998,124.138001 187.620003,124.27 186.972,124.27 C186.119996,124.27 185.463002,124.009003 185.001,123.487 C184.538998,122.964997 184.308,122.242005 184.308,121.318 L184.308,114.478 L186.612,114.478 L186.612,121.03 C186.612,121.570003 186.704999,121.953999 186.891,122.182 C187.077001,122.410001 187.373998,122.524 187.782,122.524 C188.514004,122.524 189.155997,122.074005 189.708,121.174 L189.708,114.478 L192.012,114.478 L192.012,124 Z M203.564,114.982 C202.951997,115.198001 202.034006,115.306 200.81,115.306 C201.398003,115.570001 201.832999,115.896998 202.115,116.287 C202.397001,116.677002 202.538,117.165997 202.538,117.754 C202.538,118.378003 202.385002,118.929998 202.079,119.41 C201.772998,119.890002 201.329003,120.267999 200.747,120.544 C200.164997,120.820001 199.484004,120.958 198.704,120.958 C198.271998,120.958 197.894002,120.91 197.57,120.814 C197.305999,120.994001 197.174,121.227999 197.174,121.516 C197.174,121.960002 197.557996,122.182 198.326,122.182 L199.784,122.182 C200.480003,122.182 201.088997,122.295999 201.611,122.524 C202.133003,122.752001 202.537999,123.072998 202.826,123.487 C203.114001,123.901002 203.258,124.365997 203.258,124.882 C203.258,125.842005 202.850004,126.588997 202.034,127.123 C201.217996,127.657003 200.042008,127.924 198.506,127.924 C197.401994,127.924 196.535003,127.810001 195.905,127.582 C195.274997,127.353999 194.828001,127.024002 194.564,126.592 C194.299999,126.159998 194.168,125.608003 194.168,124.936 L196.238,124.936 C196.238,125.272002 196.300999,125.535999 196.427,125.728 C196.553001,125.920001 196.780998,126.064 197.111,126.16 C197.441002,126.256 197.917997,126.304 198.542,126.304 C199.418004,126.304 200.035998,126.196001 200.396,125.98 C200.756002,125.763999 200.936,125.452002 200.936,125.044 C200.936,124.683998 200.798001,124.405001 200.522,124.207 C200.245999,124.008999 199.844003,123.91 199.316,123.91 L197.876,123.91 C196.975996,123.91 196.298002,123.736002 195.842,123.388 C195.385998,123.039998 195.158,122.602003 195.158,122.074 C195.158,121.737998 195.256999,121.414002 195.455,121.102 C195.653001,120.789998 195.925998,120.526001 196.274,120.31 C195.697997,120.009998 195.275001,119.641002 195.005,119.203 C194.734999,118.764998 194.6,118.240003 194.6,117.628 C194.6,116.943997 194.767998,116.344003 195.104,115.828 C195.440002,115.311997 195.904997,114.913001 196.499,114.631 C197.093003,114.348999 197.773996,114.208 198.542,114.208 C199.550005,114.232 200.362997,114.157001 200.981,113.983 C201.599003,113.808999 202.267996,113.530002 202.988,113.146 L203.564,114.982 Z M198.578,115.774 C198.061997,115.774 197.657001,115.938998 197.363,116.269 C197.068999,116.599002 196.922,117.039997 196.922,117.592 C196.922,118.168003 197.071999,118.623998 197.372,118.96 C197.672002,119.296002 198.085997,119.464 198.614,119.464 C199.166003,119.464 199.585999,119.299002 199.874,118.969 C200.162001,118.638998 200.306,118.174003 200.306,117.574 C200.306,116.373994 199.730006,115.774 198.578,115.774 Z M212.92,119.014 C212.92,119.134001 212.902,119.445997 212.866,119.95 L206.89,119.95 C206.962,120.874005 207.201998,121.533998 207.61,121.93 C208.018002,122.326002 208.557997,122.524 209.23,122.524 C209.650002,122.524 210.045998,122.455001 210.418,122.317 C210.790002,122.178999 211.185998,121.966001 211.606,121.678 L212.56,122.992 C211.503995,123.844004 210.328006,124.27 209.032,124.27 C207.579993,124.27 206.461004,123.826004 205.675,122.938 C204.888996,122.049996 204.496,120.838008 204.496,119.302 C204.496,118.329995 204.663998,117.457004 205,116.683 C205.336002,115.908996 205.821997,115.303002 206.458,114.865 C207.094003,114.426998 207.849996,114.208 208.726,114.208 C210.058007,114.208 211.089996,114.630996 211.822,115.477 C212.554004,116.323004 212.92,117.501992 212.92,119.014 Z M210.634,118.348 C210.634,116.679992 210.016006,115.846 208.78,115.846 C208.215997,115.846 207.775002,116.052998 207.457,116.467 C207.138998,116.881002 206.95,117.543995 206.89,118.456 L210.634,118.456 L210.634,118.348 Z M227.118,114.478 L225.048,124 L222.168,124 L220.728,116.53 L219.252,124 L216.426,124 L214.32,114.478 L216.624,114.478 L217.956,122.308 L219.612,114.478 L221.97,114.478 L223.482,122.308 L224.904,114.478 L227.118,114.478 Z M236.006,121.48 C236.006,121.852002 236.062999,122.124999 236.177,122.299 C236.291001,122.473001 236.473999,122.608 236.726,122.704 L236.24,124.234 C235.699997,124.186 235.259002,124.054001 234.917,123.838 C234.574998,123.621999 234.314001,123.292002 234.134,122.848 C233.809998,123.328002 233.405002,123.684999 232.919,123.919 C232.432998,124.153001 231.890003,124.27 231.29,124.27 C230.341995,124.27 229.592003,124.000003 229.04,123.46 C228.487997,122.919997 228.212,122.212004 228.212,121.336 C228.212,120.303995 228.586996,119.515003 229.337,118.969 C230.087004,118.422997 231.157993,118.15 232.55,118.15 L233.738,118.15 L233.738,117.61 C233.738,116.997997 233.597001,116.569001 233.315,116.323 C233.032999,116.076999 232.580003,115.954 231.956,115.954 C231.259997,115.954 230.420005,116.121998 229.436,116.458 L228.896,114.892 C230.084006,114.435998 231.235994,114.208 232.352,114.208 C234.788012,114.208 236.006,115.299989 236.006,117.484 L236.006,121.48 Z M231.902,122.596 C232.682004,122.596 233.293998,122.206004 233.738,121.426 L233.738,119.5 L232.784,119.5 C231.295993,119.5 230.552,120.051994 230.552,121.156 C230.552,121.612002 230.665999,121.965999 230.894,122.218 C231.122001,122.470001 231.457998,122.596 231.902,122.596 Z M244.372,114.208 C245.224004,114.208 245.886998,114.462997 246.361,114.973 C246.835002,115.483003 247.072,116.193995 247.072,117.106 L247.072,124 L244.768,124 L244.768,117.466 C244.768,116.901997 244.669001,116.506001 244.471,116.278 C244.272999,116.049999 243.982002,115.936 243.598,115.936 C243.201998,115.936 242.845002,116.058999 242.527,116.305 C242.208998,116.551001 241.900002,116.907998 241.6,117.376 L241.6,124 L239.296,124 L239.296,114.478 L241.294,114.478 L241.474,115.72 C242.254004,114.711995 243.219994,114.208 244.372,114.208 Z M258.264,110.662 L258.264,124 L256.23,124 L256.068,122.794 C255.767999,123.250002 255.387002,123.609999 254.925,123.874 C254.462998,124.138001 253.938003,124.27 253.35,124.27 C252.185994,124.27 251.292003,123.820004 250.668,122.92 C250.043997,122.019995 249.732,120.796008 249.732,119.248 C249.732,118.275995 249.887998,117.409004 250.2,116.647 C250.512002,115.884996 250.958997,115.288002 251.541,114.856 C252.123003,114.423998 252.797996,114.208 253.566,114.208 C254.478005,114.208 255.275997,114.549997 255.96,115.234 L255.96,110.41 L258.264,110.662 Z M253.998,122.524 C254.406002,122.524 254.765998,122.425001 255.078,122.227 C255.390002,122.028999 255.683999,121.720002 255.96,121.3 L255.96,116.944 C255.683999,116.607998 255.405001,116.356001 255.123,116.188 C254.840999,116.019999 254.514002,115.936 254.142,115.936 C253.529997,115.936 253.047002,116.208997 252.693,116.755 C252.338998,117.301003 252.162,118.125994 252.162,119.23 C252.162,120.406006 252.317998,121.248997 252.63,121.759 C252.942002,122.269003 253.397997,122.524 253.998,122.524 Z M269.348,119.014 C269.348,119.134001 269.33,119.445997 269.294,119.95 L263.318,119.95 C263.39,120.874005 263.629998,121.533998 264.038,121.93 C264.446002,122.326002 264.985997,122.524 265.658,122.524 C266.078002,122.524 266.473998,122.455001 266.846,122.317 C267.218002,122.178999 267.613998,121.966001 268.034,121.678 L268.988,122.992 C267.931995,123.844004 266.756006,124.27 265.46,124.27 C264.007993,124.27 262.889004,123.826004 262.103,122.938 C261.316996,122.049996 260.924,120.838008 260.924,119.302 C260.924,118.329995 261.091998,117.457004 261.428,116.683 C261.764002,115.908996 262.249997,115.303002 262.886,114.865 C263.522003,114.426998 264.277996,114.208 265.154,114.208 C266.486007,114.208 267.517996,114.630996 268.25,115.477 C268.982004,116.323004 269.348,117.501992 269.348,119.014 Z M267.062,118.348 C267.062,116.679992 266.444006,115.846 265.208,115.846 C264.643997,115.846 264.203002,116.052998 263.885,116.467 C263.566998,116.881002 263.378,117.543995 263.318,118.456 L267.062,118.456 L267.062,118.348 Z M276.616,114.226 C276.964002,114.226 277.281999,114.268 277.57,114.352 L277.174,116.584 C276.885999,116.512 276.604001,116.476 276.328,116.476 C275.763997,116.476 275.320002,116.676998 274.996,117.079 C274.671998,117.481002 274.414001,118.095996 274.222,118.924 L274.222,124 L271.918,124 L271.918,114.478 L273.916,114.478 L274.132,116.35 C274.360001,115.665997 274.689998,115.141002 275.122,114.775 C275.554002,114.408998 276.051997,114.226 276.616,114.226 Z M284.964,123.55 C284.627998,123.790001 284.253002,123.969999 283.839,124.09 C283.424998,124.210001 283.002002,124.27 282.57,124.27 C281.633995,124.258 280.923002,123.991003 280.437,123.469 C279.950998,122.946997 279.708,122.176005 279.708,121.156 L279.708,116.134 L278.214,116.134 L278.214,114.478 L279.708,114.478 L279.708,112.372 L282.012,112.102 L282.012,114.478 L284.226,114.478 L283.992,116.134 L282.012,116.134 L282.012,121.102 C282.012,121.570002 282.092999,121.905999 282.255,122.11 C282.417001,122.314001 282.671998,122.416 283.02,122.416 C283.368002,122.416 283.745998,122.302001 284.154,122.074 L284.964,123.55 Z M294.572,119.014 C294.572,119.134001 294.554,119.445997 294.518,119.95 L288.542,119.95 C288.614,120.874005 288.853998,121.533998 289.262,121.93 C289.670002,122.326002 290.209997,122.524 290.882,122.524 C291.302002,122.524 291.697998,122.455001 292.07,122.317 C292.442002,122.178999 292.837998,121.966001 293.258,121.678 L294.212,122.992 C293.155995,123.844004 291.980006,124.27 290.684,124.27 C289.231993,124.27 288.113004,123.826004 287.327,122.938 C286.540996,122.049996 286.148,120.838008 286.148,119.302 C286.148,118.329995 286.315998,117.457004 286.652,116.683 C286.988002,115.908996 287.473997,115.303002 288.11,114.865 C288.746003,114.426998 289.501996,114.208 290.378,114.208 C291.710007,114.208 292.741996,114.630996 293.474,115.477 C294.206004,116.323004 294.572,117.501992 294.572,119.014 Z M292.286,118.348 C292.286,116.679992 291.668006,115.846 290.432,115.846 C289.867997,115.846 289.427002,116.052998 289.109,116.467 C288.790998,116.881002 288.602,117.543995 288.542,118.456 L292.286,118.456 L292.286,118.348 Z"/>
    <g fill="#FFFFFF" transform="translate(8 8)">
      <path d="M94.1197259 8C109.748723 18.8672991 120 37.0561384 120 57.6697545 120 85.7013393 101.053682 109.260045 75.3901876 116L75.3901876 87.1116071 55 87.1116071 94.1197259 8zM97.1621944 45.7453571C97.1621944 43.5264955 95.3812227 41.7275 93.1845914 41.7275 90.9879601 41.7275 89.2069883 43.5264955 89.2069883 45.7453571 89.2069883 47.9642188 90.9879601 49.7632143 93.1845914 49.7632143 95.3812227 49.7632143 97.1621944 47.9642188 97.1621944 45.7453571zM25.8802741 108C10.2512774 97.1336043-.42108547e-14 78.9445958-.42108547e-14 58.3297836-.42108547e-14 30.297938 18.9463177 6.73901357 44.6098124.13686838e-13L44.6098124 28.8876571 65 28.8876571 25.8802741 108zM22.8378056 70.254794C22.8378056 72.4736763 24.6187773 74.2726885 26.8154086 74.2726885 29.0120399 74.2726885 30.7930117 72.4736763 30.7930117 70.254794 30.7930117 68.0359118 29.0120399 66.2368995 26.8154086 66.2368995 24.6187773 66.2368995 22.8378056 68.0359118 22.8378056 70.254794z"/>
    </g>
  </g>
</svg>
