<svg xmlns="http://www.w3.org/2000/svg" width="103" height="77" viewBox="0 0 103 77" xmlns:xlink="http://www.w3.org/1999/xlink">
  <defs>
    <polygon id="a" points=".06 .06 25.2 .06 25.2 19.734 .06 19.734"/>
    <polygon id="c" points=".06 .33 99.779 .33 99.779 1.33 .06 1.33"/>
  </defs>
  <g fill="none" fill-rule="evenodd" transform="translate(2 6)">
    <mask id="b" fill="white">
      <use xlink:href="#a"/>
    </mask>
    <path fill="#D82333" d="M19.702,14.37 C23.313,14.37 25.2,12.727 25.2,10.085 C25.2,7.714 23.583,6.365 21.049,6.365 C16.279,6.365 13.826,10.517 13.826,14.397 C13.826,17.605 15.82,19.734 18.704,19.734 C19.756,19.734 21.858,19.357 23.044,18.952 L23.044,16.365 C21.373,16.688 20.645,16.797 19.702,16.797 C18.138,16.797 17.572,15.583 17.572,14.37 L19.702,14.37 Z M17.977,12.268 C18.273,10.57 19.486,9.411 20.375,9.411 C20.888,9.411 21.319,9.654 21.319,10.355 C21.319,11.271 20.403,12.268 19.109,12.268 L17.977,12.268 Z M5.39,11.271 C6.037,10.57 7.223,9.95 7.897,9.95 C8.759,9.95 9.056,10.76 9.056,11.433 C9.056,13.104 7.789,16.797 5.552,16.797 C5.202,16.797 4.258,16.661 4.258,16.661 L5.39,11.271 Z M6.873,3.267 L6.873,0.06 L0.862,0.06 L0.862,3.267 L3.073,3.267 L0,19.465 L1.94,19.465 C2.992,19.465 4.15,19.734 5.471,19.734 C10.107,19.734 12.802,14.775 12.802,10.786 C12.802,7.74 11.535,6.365 9.972,6.365 C8.328,6.365 6.738,7.497 5.875,8.279 L6.873,3.267 Z" mask="url(#b)"/>
    <polyline fill="#D82333" points="46.759 .004 46.759 9.302 53.817 9.302 53.817 11.655 41.938 11.655 41.938 24.159 44.22 24.159 44.22 13.875 46.759 13.875 46.759 24.159 49.035 24.159 49.035 13.875 51.539 13.875 51.539 24.159 53.817 24.159 53.817 19.511 99.779 19.511 99.779 .004 46.759 .004"/>
    <polygon fill="#D82333" points="27.567 24.159 29.843 24.159 29.843 13.829 27.567 13.829"/>
    <polygon fill="#D82333" points="32.366 24.159 34.642 24.159 34.642 13.829 32.366 13.829"/>
    <polygon fill="#D82333" points="37.164 24.159 39.44 24.159 39.44 13.829 37.164 13.829"/>
    <polygon fill="#D82333" points="27.567 11.656 41.944 11.656 41.944 9.302 27.567 9.302"/>
    <path fill="#D82333" d="M39.051,6.286 C39.051,5.364 39.799,4.616 40.72,4.616 C41.643,4.616 42.39,5.364 42.39,6.286 C42.39,7.208 41.643,7.956 40.72,7.956 C39.799,7.956 39.051,7.208 39.051,6.286"/>
    <path fill="#FFFFFE" d="M87.986,15.004 L89.37,15.004 L89.37,11.655 C89.37,11.655 89.313,11.023 89.541,10.355 C89.764,9.709 90.27,8.977 91.295,8.913 C92.496,8.84 92.424,10.165 92.424,10.165 L92.424,15.004 L93.818,15.004 L93.818,10.015 C93.818,10.015 93.932,8.022 92.073,7.945 C89.811,7.854 89.37,9.279 89.37,9.279 L89.37,8.022 C89.37,8.022 88.885,8.003 88.102,8.047 C87.357,8.09 86.819,8.141 86.819,8.141 L86.819,8.88 L87.986,9.019 L87.986,15.004 Z M83.368,9.027 L82.173,8.866 L82.173,8.126 C82.639,8.084 82.87,8.065 83.368,8.045 C83.971,8.022 84.426,8.003 84.725,8.022 L84.725,14.045 L85.977,14.236 L85.977,15.004 L82.173,15.004 L82.173,14.236 L83.368,14.045 L83.368,9.027 Z M83.064,6.044 C83.064,5.527 83.482,5.109 83.998,5.109 C84.514,5.109 84.932,5.527 84.932,6.044 C84.932,6.561 84.514,6.979 83.998,6.979 C83.482,6.979 83.064,6.561 83.064,6.044 Z M78.578,5.697 C78.578,5.697 78.243,5.645 78.028,5.617 C77.788,5.586 77.412,5.556 77.412,5.556 L77.412,4.834 C77.412,4.834 78.264,4.778 78.807,4.768 C79.266,4.76 79.982,4.768 79.982,4.768 L79.982,14.045 L81.158,14.236 L81.158,15.004 L77.412,15.004 L77.412,14.236 L78.578,14.045 L78.578,5.697 Z M67.236,11.494 L71.741,11.494 C71.741,11.494 72.187,7.795 69,7.87 C66.174,7.937 65.88,10.47 65.861,11.532 C65.846,12.399 66.043,13.892 67.172,14.649 C67.637,14.961 68.577,15.18 69.503,15.138 C70.337,15.1 71.437,14.691 71.437,14.691 L71.437,13.619 C71.437,13.619 70.541,14.026 69.342,14.045 C66.99,14.084 67.236,11.494 67.236,11.494 Z M68.973,8.805 C70.523,8.854 70.366,10.455 70.366,10.455 L67.331,10.455 C67.331,10.455 67.482,8.757 68.973,8.805 Z M74.994,9.388 L74.994,8.022 C74.994,8.022 74.184,8.022 73.666,8.041 C73.211,8.058 72.499,8.107 72.499,8.107 L72.499,8.856 L73.666,9.008 L73.666,15.004 L75.032,15.004 L75.032,11.835 C75.032,11.835 74.975,10.331 75.678,9.582 C76.169,9.057 77.203,9.266 77.203,9.266 L77.203,7.945 C77.203,7.945 76.373,7.837 75.752,8.216 C75.165,8.575 74.994,9.388 74.994,9.388 Z M57.876,6.11 C57.544,6.063 57.335,6.001 57.335,6.001 L57.335,5.209 C57.335,5.209 57.971,5.224 58.701,5.232 C59.432,5.242 60.066,5.186 60.958,5.186 C62.609,5.186 64.417,5.412 64.505,7.5 C64.581,9.303 62.779,9.824 62.779,9.824 C62.779,9.824 64.79,10.1 64.723,12.225 C64.63,15.204 60.939,15.004 60.939,15.004 L57.335,15.004 L57.335,14.236 L58.521,14.008 L58.521,6.19 C58.521,6.19 58.303,6.171 57.876,6.11 Z M59.962,10.46 L59.962,13.885 C59.962,13.885 60.686,13.909 61.148,13.89 C62.504,13.832 63.311,13.182 63.253,12.105 C63.196,11.054 62.452,10.573 61.319,10.475 C60.795,10.429 59.962,10.46 59.962,10.46 Z M59.962,6.295 L59.962,9.426 C59.962,9.426 60.498,9.426 60.887,9.416 C62.014,9.389 63.033,9.019 63.073,7.737 C63.102,6.826 62.395,6.371 61.693,6.324 C61.02,6.278 59.962,6.295 59.962,6.295 Z"/>
    <path fill="#D82333" d="M58.629 63.92L58.629 66.872C58.629 67 58.641 67.129 58.668 67.26 58.695 67.391 58.747 67.511 58.824 67.62 58.901 67.729 59.012 67.819 59.152 67.888 59.293 67.957 59.479 67.992 59.708 67.992 59.873 67.992 60.039 67.968 60.204 67.92 60.369 67.872 60.52 67.819 60.652 67.76 60.807 67.691 60.956 67.611 61.1 67.52L61.18 67.92 61.62 67.92 61.62 63.92 61.045 63.92 61.045 67.102C60.916 67.183 60.783 67.253 60.645 67.312 60.527 67.365 60.396 67.412 60.252 67.452 60.108 67.492 59.967 67.512 59.828 67.512 59.695 67.512 59.588 67.493 59.508 67.456 59.428 67.419 59.365 67.365 59.32 67.296 59.275 67.226 59.244 67.141 59.229 67.039 59.213 66.938 59.204 66.823 59.204 66.694L59.204 63.92 58.629 63.92zM65.988 67.92L65.988 64.968C65.988 64.84 65.975 64.711 65.948 64.58 65.922 64.449 65.869 64.329 65.792 64.22 65.715 64.111 65.605 64.021 65.465 63.952 65.323 63.883 65.137 63.848 64.908 63.848 64.743 63.848 64.577 63.873 64.412 63.924 64.247 63.975 64.098 64.029 63.965 64.088 63.809 64.157 63.66 64.235 63.516 64.32L63.436 63.92 62.996 63.92 62.996 67.92 63.572 67.92 63.572 64.737C63.7 64.662 63.833 64.595 63.973 64.537 64.09 64.483 64.221 64.435 64.364 64.392 64.508 64.349 64.649 64.328 64.788 64.328 64.922 64.328 65.028 64.347 65.108 64.384 65.188 64.422 65.252 64.475 65.297 64.545 65.342 64.614 65.372 64.7 65.389 64.801 65.404 64.903 65.412 65.018 65.412 65.146L65.412 67.92 65.988 67.92zM70.124 67.92L70.124 61.84 69.549 61.84 69.549 63.84 69.588 64.312C69.497 64.227 69.393 64.149 69.276 64.08 69.176 64.021 69.053 63.968 68.912 63.92 68.771 63.872 68.609 63.848 68.428 63.848 68.273 63.848 68.116 63.887 67.956 63.964 67.797 64.041 67.651 64.165 67.52 64.336 67.389 64.507 67.281 64.728 67.196 65 67.111 65.272 67.068 65.605 67.068 66 67.068 66.693 67.184 67.199 67.412 67.516 67.641 67.833 67.965 67.992 68.381 67.992 68.514 67.992 68.651 67.968 68.792 67.92 68.934 67.872 69.065 67.819 69.188 67.76 69.327 67.691 69.465 67.611 69.604 67.52L69.684 67.92 70.124 67.92zM69.549 67.096C69.42 67.171 69.292 67.237 69.164 67.296 69.057 67.349 68.943 67.396 68.82 67.436 68.697 67.476 68.588 67.496 68.492 67.496 68.338 67.496 68.207 67.459 68.1 67.384 67.993 67.309 67.908 67.203 67.844 67.064 67.78 66.925 67.733 66.76 67.704 66.568 67.676 66.376 67.66 66.16 67.66 65.92 67.66 65.435 67.741 65.051 67.904 64.768 68.067 64.485 68.276 64.344 68.532 64.344 68.703 64.344 68.852 64.367 68.98 64.412 69.108 64.457 69.215 64.509 69.301 64.568 69.396 64.632 69.479 64.707 69.549 64.792L69.549 67.096zM76.036 62.36C75.902 62.344 75.77 62.325 75.637 62.304 75.524 62.288 75.401 62.273 75.268 62.26 75.135 62.247 75.012 62.24 74.9 62.24 74.633 62.24 74.398 62.277 74.196 62.352 73.993 62.427 73.822 62.529 73.684 62.66 73.545 62.791 73.44 62.943 73.368 63.116 73.297 63.289 73.26 63.475 73.26 63.672 73.26 63.981 73.318 64.233 73.436 64.428 73.553 64.623 73.698 64.787 73.872 64.92 74.045 65.053 74.233 65.167 74.436 65.26 74.639 65.352 74.826 65.452 75 65.556 75.174 65.66 75.318 65.781 75.436 65.92 75.553 66.059 75.612 66.24 75.612 66.464 75.612 66.768 75.518 67.009 75.328 67.188 75.139 67.367 74.86 67.456 74.492 67.456 74.342 67.456 74.193 67.445 74.045 67.424 73.895 67.403 73.758 67.379 73.637 67.352 73.497 67.32 73.361 67.283 73.229 67.24L73.229 67.8C73.356 67.843 73.489 67.877 73.629 67.904 73.75 67.931 73.885 67.953 74.028 67.972 74.172 67.991 74.321 68 74.477 68 74.78 68 75.042 67.961 75.264 67.884 75.485 67.807 75.668 67.699 75.812 67.56 75.956 67.421 76.061 67.256 76.129 67.064 76.194 66.872 76.229 66.661 76.229 66.432 76.229 66.128 76.17 65.881 76.053 65.692 75.934 65.503 75.788 65.345 75.612 65.22 75.436 65.095 75.245 64.987 75.04 64.897 74.834 64.805 74.645 64.707 74.469 64.6 74.292 64.493 74.145 64.367 74.028 64.22 73.91 64.073 73.852 63.883 73.852 63.648 73.852 63.392 73.945 63.181 74.133 63.016 74.318 62.851 74.569 62.768 74.885 62.768 74.996 62.768 75.118 62.776 75.252 62.792 75.385 62.808 75.51 62.824 75.629 62.84 75.766 62.861 75.902 62.883 76.036 62.904L76.036 62.36zM78.032 64.744C78.237 64.467 78.5 64.328 78.82 64.328 78.958 64.328 79.094 64.353 79.229 64.404 79.361 64.455 79.479 64.543 79.58 64.668 79.682 64.793 79.762 64.957 79.824 65.16 79.885 65.363 79.916 65.616 79.916 65.92 79.916 66.171 79.889 66.395 79.832 66.592 79.776 66.789 79.698 66.956 79.6 67.092 79.502 67.228 79.385 67.332 79.252 67.404 79.118 67.476 78.975 67.512 78.82 67.512 78.67 67.512 78.529 67.487 78.396 67.436 78.262 67.385 78.146 67.297 78.049 67.172 77.949 67.047 77.87 66.883 77.812 66.68 77.754 66.477 77.725 66.224 77.725 65.92 77.725 65.413 77.826 65.021 78.032 64.744zM77.584 67.504C77.885 67.829 78.297 67.992 78.82 67.992 79.065 67.992 79.292 67.945 79.5 67.852 79.708 67.759 79.887 67.62 80.036 67.436 80.186 67.252 80.301 67.027 80.385 66.76 80.467 66.493 80.508 66.187 80.508 65.84 80.508 65.163 80.358 64.661 80.061 64.336 79.762 64.011 79.348 63.848 78.82 63.848 78.565 63.848 78.333 63.896 78.129 63.992 77.922 64.088 77.745 64.227 77.596 64.412 77.446 64.596 77.332 64.821 77.252 65.088 77.172 65.356 77.133 65.659 77.133 66 77.133 66.677 77.282 67.179 77.584 67.504zM84.124 67.92L84.124 67.408 81.988 67.408 84.053 64.392 84.053 63.92 81.436 63.92 81.436 64.424 83.404 64.424 81.34 67.448 81.34 67.92 84.124 67.92zM85.236 67.92L85.812 67.92 85.812 63.92 85.236 63.92 85.236 67.92zM85.204 62.984C85.295 63.075 85.406 63.12 85.54 63.12 85.674 63.12 85.785 63.075 85.877 62.984 85.967 62.893 86.012 62.781 86.012 62.648 86.012 62.515 85.967 62.403 85.877 62.313 85.785 62.221 85.674 62.176 85.54 62.176 85.406 62.176 85.295 62.221 85.204 62.313 85.113 62.403 85.068 62.515 85.068 62.648 85.068 62.781 85.113 62.893 85.204 62.984zM87.252 64.592C87.412 64.544 87.572 64.501 87.732 64.464 87.87 64.432 88.02 64.401 88.18 64.372 88.34 64.343 88.489 64.328 88.629 64.328 88.922 64.328 89.12 64.38 89.225 64.485 89.328 64.59 89.381 64.779 89.381 65.053L89.381 65.519 88.436 65.519C88.233 65.519 88.045 65.549 87.872 65.608 87.698 65.667 87.551 65.751 87.428 65.86 87.305 65.969 87.209 66.104 87.141 66.264 87.07 66.424 87.036 66.605 87.036 66.808 87.036 66.968 87.059 67.12 87.104 67.264 87.149 67.408 87.219 67.533 87.312 67.64 87.405 67.747 87.524 67.832 87.668 67.896 87.812 67.96 87.985 67.992 88.188 67.992 88.326 67.992 88.469 67.968 88.612 67.92 88.756 67.872 88.889 67.819 89.012 67.76 89.15 67.691 89.292 67.611 89.436 67.52L89.516 67.92 89.956 67.92 89.956 64.912C89.956 64.704 89.932 64.532 89.885 64.396 89.836 64.26 89.762 64.152 89.664 64.072 89.565 63.992 89.44 63.935 89.288 63.9 89.137 63.865 88.956 63.848 88.748 63.848 88.551 63.848 88.362 63.861 88.184 63.888 88.006 63.914 87.846 63.94 87.708 63.967 87.542 64.004 87.391 64.043 87.252 64.086L87.252 64.592zM87.864 66.172C88.032 66.041 88.244 65.976 88.5 65.976L89.381 65.976 89.381 67.088C89.252 67.168 89.124 67.237 88.996 67.296 88.889 67.349 88.773 67.396 88.645 67.436 88.516 67.476 88.398 67.496 88.292 67.496 88.073 67.496 87.905 67.429 87.788 67.296 87.67 67.163 87.612 66.984 87.612 66.76 87.612 66.499 87.696 66.303 87.864 66.172zM91.315 67.92L91.89 67.92 91.89 61.84 91.315 61.84 91.315 67.92zM95.844 67.224C95.711 67.277 95.574 67.323 95.436 67.36 95.313 67.392 95.182 67.421 95.039 67.448 94.898 67.475 94.758 67.488 94.619 67.488 94.428 67.488 94.268 67.456 94.139 67.393 94.012 67.329 93.907 67.242 93.827 67.13 93.747 67.019 93.689 66.885 93.651 66.729 93.614 66.573 93.588 66.402 93.571 66.216L94.355 66.216C94.542 66.216 94.729 66.2 94.915 66.168 95.102 66.136 95.27 66.073 95.415 65.979 95.563 65.886 95.682 65.757 95.775 65.594 95.869 65.431 95.915 65.218 95.915 64.956 95.915 64.587 95.803 64.308 95.579 64.121 95.355 63.934 95.051 63.84 94.667 63.84 94.422 63.84 94.197 63.884 93.991 63.972 93.786 64.06 93.609 64.195 93.459 64.376 93.311 64.557 93.194 64.783 93.111 65.052 93.029 65.321 92.987 65.635 92.987 65.992 92.987 66.616 93.111 67.104 93.359 67.456 93.607 67.808 93.993 67.984 94.516 67.984 94.697 67.984 94.867 67.972 95.027 67.948 95.188 67.924 95.329 67.896 95.451 67.864 95.59 67.827 95.721 67.784 95.844 67.736L95.844 67.224zM93.563 65.736C93.569 65.543 93.598 65.361 93.648 65.189 93.698 65.017 93.77 64.867 93.859 64.738 93.95 64.61 94.064 64.508 94.199 64.433 94.336 64.358 94.491 64.32 94.667 64.32 94.887 64.32 95.053 64.379 95.167 64.497 95.282 64.615 95.34 64.781 95.34 64.996 95.34 65.221 95.26 65.401 95.1 65.535 94.939 65.669 94.691 65.736 94.355 65.736L93.563 65.736zM99.163 63.953C99.062 63.937 98.958 63.92 98.852 63.904 98.762 63.893 98.654 63.881 98.531 63.868 98.409 63.856 98.283 63.848 98.155 63.848 97.922 63.848 97.719 63.876 97.551 63.932 97.383 63.988 97.246 64.066 97.139 64.165 97.033 64.264 96.954 64.379 96.903 64.51 96.854 64.641 96.827 64.781 96.827 64.93 96.827 65.171 96.875 65.362 96.971 65.504 97.067 65.645 97.187 65.759 97.331 65.844 97.475 65.93 97.633 65.998 97.803 66.049 97.975 66.1 98.131 66.157 98.275 66.221 98.42 66.285 98.539 66.366 98.635 66.462 98.731 66.558 98.779 66.694 98.779 66.871 98.779 66.935 98.77 67.003 98.752 67.075 98.733 67.147 98.695 67.214 98.639 67.276 98.583 67.337 98.508 67.389 98.411 67.432 98.315 67.475 98.187 67.496 98.027 67.496 97.895 67.496 97.76 67.487 97.623 67.468 97.487 67.449 97.363 67.427 97.252 67.4 97.118 67.373 96.99 67.341 96.867 67.304L96.867 67.842C96.979 67.874 97.1 67.9 97.227 67.921 97.334 67.942 97.457 67.959 97.596 67.972 97.734 67.985 97.879 67.992 98.027 67.992 98.283 67.992 98.497 67.959 98.667 67.892 98.838 67.826 98.975 67.738 99.075 67.629 99.178 67.52 99.249 67.396 99.291 67.258 99.334 67.119 99.355 66.981 99.355 66.843 99.355 66.582 99.307 66.374 99.211 66.22 99.115 66.066 98.994 65.945 98.848 65.857 98.701 65.769 98.542 65.698 98.371 65.645 98.201 65.592 98.042 65.536 97.895 65.478 97.749 65.419 97.627 65.343 97.531 65.25 97.436 65.157 97.387 65.025 97.387 64.855 97.387 64.722 97.441 64.601 97.547 64.492 97.654 64.383 97.857 64.328 98.155 64.328 98.273 64.328 98.391 64.336 98.508 64.352L98.836 64.384C98.947 64.405 99.057 64.424 99.163 64.44L99.163 63.953zM29.277 52.616C29.224 52.611 29.168 52.602 29.109 52.592 29.061 52.587 29.008 52.581 28.949 52.576 28.89 52.571 28.832 52.568 28.773 52.568 28.336 52.568 28.029 52.677 27.853 52.896 27.677 53.115 27.589 53.451 27.589 53.904L27.589 54.72 26.925 54.72 26.925 55.2 27.589 55.2 27.589 58.72 28.165 58.72 28.165 55.2 29.157 55.2 29.157 54.72 28.165 54.72 28.165 53.992C28.165 53.832 28.173 53.693 28.189 53.576 28.205 53.459 28.237 53.363 28.285 53.288 28.333 53.213 28.404 53.157 28.497 53.12 28.59 53.083 28.714 53.064 28.869 53.064 28.912 53.064 28.957 53.067 29.005 53.072 29.053 53.077 29.098 53.083 29.141 53.088 29.189 53.099 29.234 53.107 29.277 53.112L29.277 52.616zM30.269 53.66C30.189 53.737 30.149 53.837 30.149 53.96 30.149 54.083 30.189 54.181 30.269 54.256 30.349 54.331 30.445 54.368 30.557 54.368 30.68 54.368 30.781 54.331 30.861 54.256 30.941 54.181 30.981 54.083 30.981 53.96 30.981 53.837 30.94 53.737 30.857 53.66 30.774 53.583 30.674 53.544 30.557 53.544 30.445 53.544 30.349 53.583 30.269 53.66zM32.045 53.66C31.965 53.737 31.925 53.837 31.925 53.96 31.925 54.083 31.965 54.181 32.045 54.256 32.125 54.331 32.221 54.368 32.333 54.368 32.456 54.368 32.557 54.331 32.637 54.256 32.717 54.181 32.757 54.083 32.757 53.96 32.757 53.837 32.716 53.737 32.633 53.66 32.55 53.583 32.45 53.544 32.333 53.544 32.221 53.544 32.125 53.583 32.045 53.66zM29.941 54.72L29.941 57.672C29.941 57.8 29.954 57.929 29.981 58.06 30.008 58.191 30.06 58.31 30.137 58.42 30.214 58.529 30.324 58.619 30.465 58.688 30.606 58.757 30.792 58.792 31.021 58.792 31.186 58.792 31.352 58.768 31.517 58.72 31.682 58.672 31.832 58.619 31.965 58.56 32.12 58.491 32.269 58.411 32.413 58.32L32.493 58.72 32.933 58.72 32.933 54.72 32.357 54.72 32.357 57.903C32.229 57.983 32.096 58.053 31.957 58.112 31.84 58.165 31.709 58.212 31.565 58.252 31.421 58.292 31.28 58.312 31.141 58.312 31.008 58.312 30.901 58.293 30.821 58.256 30.741 58.219 30.678 58.165 30.633 58.096 30.588 58.026 30.557 57.941 30.541 57.839 30.525 57.738 30.517 57.623 30.517 57.494L30.517 54.72 29.941 54.72zM36.285 54.648C36.098 54.637 35.92 54.657 35.749 54.708 35.578 54.759 35.424 54.813 35.285 54.872 35.125 54.941 34.973 55.024 34.829 55.12L34.749 54.72 34.309 54.72 34.309 58.72 34.885 58.72 34.885 55.544C35.029 55.464 35.178 55.394 35.333 55.336 35.466 55.283 35.616 55.239 35.781 55.204 35.946 55.169 36.114 55.16 36.285 55.176L36.285 54.648zM39.173 58.72L39.781 58.72 39.781 53.12 39.173 53.12 39.173 58.72zM44.189 58.72L44.189 55.768C44.189 55.64 44.175 55.511 44.149 55.38 44.122 55.249 44.07 55.129 43.993 55.019 43.915 54.911 43.806 54.821 43.665 54.752 43.523 54.683 43.338 54.648 43.109 54.648 42.943 54.648 42.778 54.673 42.613 54.724 42.447 54.775 42.298 54.829 42.165 54.888 42.01 54.957 41.861 55.035 41.717 55.12L41.637 54.72 41.197 54.72 41.197 58.72 41.773 58.72 41.773 55.537C41.901 55.462 42.034 55.394 42.173 55.337 42.29 55.283 42.421 55.235 42.565 55.192 42.709 55.149 42.85 55.128 42.989 55.128 43.122 55.128 43.229 55.148 43.309 55.184 43.389 55.222 43.451 55.275 43.497 55.345 43.542 55.414 43.573 55.5 43.589 55.601 43.605 55.703 43.613 55.818 43.613 55.946L43.613 58.72 44.189 58.72zM47.477 58.248C47.434 58.259 47.389 58.267 47.341 58.272 47.261 58.288 47.17 58.296 47.069 58.296 46.914 58.296 46.79 58.277 46.697 58.24 46.603 58.203 46.533 58.147 46.485 58.072 46.437 57.997 46.405 57.9 46.389 57.783 46.373 57.665 46.365 57.526 46.365 57.366L46.365 55.2 47.357 55.2 47.357 54.72 46.365 54.72 46.365 53.12 45.789 53.12 45.789 54.72 45.125 54.72 45.125 55.2 45.789 55.2 45.789 57.453C45.789 57.907 45.877 58.244 46.053 58.463 46.229 58.683 46.535 58.792 46.973 58.792 47.031 58.792 47.09 58.791 47.149 58.788 47.207 58.785 47.261 58.779 47.309 58.768 47.367 58.763 47.423 58.755 47.477 58.744L47.477 58.248zM50.901 58.024C50.767 58.077 50.631 58.123 50.493 58.16 50.37 58.192 50.238 58.221 50.097 58.248 49.955 58.275 49.815 58.288 49.677 58.288 49.485 58.288 49.325 58.256 49.197 58.193 49.069 58.129 48.965 58.042 48.885 57.93 48.805 57.819 48.746 57.685 48.709 57.529 48.671 57.373 48.645 57.202 48.629 57.016L49.413 57.016C49.599 57.016 49.786 57 49.973 56.968 50.159 56.935 50.326 56.873 50.473 56.779 50.619 56.685 50.739 56.557 50.833 56.393 50.926 56.231 50.973 56.018 50.973 55.756 50.973 55.387 50.861 55.108 50.637 54.921 50.413 54.734 50.109 54.64 49.725 54.64 49.479 54.64 49.254 54.684 49.049 54.773 48.843 54.86 48.666 54.995 48.517 55.176 48.367 55.357 48.251 55.583 48.169 55.852 48.086 56.121 48.045 56.435 48.045 56.792 48.045 57.416 48.169 57.904 48.417 58.256 48.665 58.608 49.05 58.784 49.573 58.784 49.754 58.784 49.925 58.772 50.085 58.748 50.245 58.724 50.386 58.696 50.509 58.664 50.647 58.627 50.778 58.584 50.901 58.536L50.901 58.024zM48.621 56.536C48.626 56.343 48.654 56.161 48.705 55.989 48.755 55.817 48.826 55.667 48.917 55.538 49.007 55.41 49.121 55.308 49.257 55.233 49.393 55.158 49.549 55.12 49.725 55.12 49.943 55.12 50.11 55.179 50.225 55.297 50.339 55.415 50.397 55.581 50.397 55.796 50.397 56.021 50.317 56.201 50.157 56.335 49.997 56.469 49.749 56.536 49.413 56.536L48.621 56.536zM52.589 55.684C52.643 55.553 52.711 55.445 52.797 55.36 52.882 55.275 52.979 55.212 53.089 55.172 53.198 55.132 53.307 55.112 53.413 55.112 53.594 55.112 53.751 55.137 53.885 55.188 54.018 55.239 54.13 55.293 54.221 55.352 54.322 55.421 54.41 55.501 54.484 55.592L54.484 56.152C54.484 56.509 54.389 56.775 54.197 56.948 54.005 57.121 53.77 57.208 53.493 57.208 53.215 57.208 52.982 57.121 52.793 56.948 52.604 56.775 52.509 56.509 52.509 56.152 52.509 55.971 52.535 55.815 52.589 55.684zM52.732 58.792C52.766 58.797 52.801 58.801 52.841 58.804 52.881 58.807 52.925 58.808 52.973 58.808L53.98 58.808C54.093 58.808 54.199 58.815 54.301 58.828 54.402 58.841 54.49 58.866 54.564 58.903 54.639 58.94 54.699 58.993 54.745 59.062 54.79 59.131 54.813 59.221 54.813 59.332 54.813 59.444 54.779 59.54 54.713 59.623 54.646 59.705 54.555 59.772 54.437 59.825 54.318 59.878 54.182 59.918 54.025 59.944 53.867 59.971 53.698 59.984 53.518 59.984 53.335 59.984 53.169 59.973 53.018 59.952 52.865 59.931 52.734 59.897 52.625 59.849 52.516 59.801 52.43 59.739 52.369 59.662 52.307 59.585 52.277 59.489 52.277 59.372 52.277 59.282 52.295 59.199 52.333 59.122 52.37 59.045 52.41 58.98 52.453 58.927 52.506 58.869 52.564 58.816 52.629 58.768 52.661 58.779 52.695 58.787 52.732 58.792zM52.137 60.153C52.406 60.313 52.848 60.392 53.461 60.392 54.079 60.392 54.55 60.289 54.873 60.084 55.195 59.879 55.357 59.608 55.357 59.273 55.357 58.941 55.253 58.701 55.045 58.552 54.837 58.403 54.529 58.328 54.125 58.328L53.125 58.328C52.917 58.328 52.77 58.296 52.686 58.232 52.6 58.168 52.557 58.083 52.557 57.976 52.557 57.757 52.751 57.648 53.141 57.648L53.493 57.648C53.701 57.648 53.898 57.617 54.085 57.556 54.271 57.495 54.436 57.401 54.577 57.276 54.718 57.151 54.831 56.991 54.917 56.796 55.002 56.601 55.045 56.371 55.045 56.105L55.045 54.72 54.613 54.72 54.533 55.12C54.441 55.035 54.335 54.957 54.213 54.888 54.106 54.829 53.979 54.775 53.829 54.724 53.68 54.673 53.509 54.648 53.316 54.648 53.157 54.648 52.995 54.679 52.833 54.74 52.67 54.801 52.523 54.896 52.393 55.024 52.262 55.152 52.154 55.313 52.068 55.508 51.982 55.703 51.941 55.931 51.941 56.192 51.941 56.427 51.975 56.62 52.041 56.772 52.107 56.924 52.184 57.045 52.27 57.136 52.365 57.243 52.477 57.325 52.606 57.384 52.493 57.406 52.395 57.446 52.309 57.504 52.234 57.553 52.166 57.622 52.105 57.713 52.043 57.804 52.014 57.922 52.014 58.067 52.014 58.158 52.025 58.237 52.053 58.303 52.079 58.37 52.109 58.425 52.141 58.468 52.178 58.523 52.223 58.562 52.277 58.588 52.175 58.642 52.085 58.711 52.005 58.796 51.936 58.87 51.873 58.961 51.816 59.067 51.762 59.174 51.732 59.296 51.732 59.434 51.732 59.754 51.867 59.993 52.137 60.153zM58.245 54.648C58.059 54.637 57.879 54.657 57.709 54.708 57.538 54.759 57.383 54.813 57.245 54.872 57.085 54.941 56.934 55.024 56.789 55.12L56.709 54.72 56.27 54.72 56.27 58.72 56.846 58.72 56.846 55.544C56.988 55.464 57.139 55.394 57.293 55.336 57.426 55.283 57.575 55.239 57.741 55.204 57.906 55.169 58.074 55.16 58.245 55.176L58.245 54.648zM59.236 55.392C59.397 55.344 59.557 55.301 59.716 55.264 59.855 55.232 60.004 55.201 60.164 55.172 60.324 55.143 60.475 55.128 60.611 55.128 60.906 55.128 61.104 55.18 61.208 55.285 61.312 55.39 61.363 55.579 61.363 55.852L61.363 56.32 60.42 56.32C60.218 56.32 60.029 56.349 59.855 56.408 59.684 56.467 59.535 56.551 59.412 56.66 59.29 56.768 59.193 56.904 59.124 57.064 59.055 57.224 59.02 57.405 59.02 57.608 59.02 57.768 59.043 57.92 59.088 58.064 59.134 58.208 59.203 58.333 59.297 58.44 59.391 58.547 59.508 58.632 59.652 58.696 59.797 58.76 59.971 58.792 60.172 58.792 60.311 58.792 60.452 58.768 60.596 58.72 60.74 58.672 60.874 58.619 60.996 58.56 61.135 58.491 61.275 58.411 61.42 58.32L61.5 58.72 61.939 58.72 61.939 55.712C61.939 55.504 61.916 55.332 61.868 55.196 61.82 55.06 61.747 54.952 61.648 54.872 61.55 54.792 61.424 54.735 61.272 54.7 61.12 54.665 60.939 54.648 60.732 54.648 60.535 54.648 60.348 54.661 60.168 54.688 59.99 54.714 59.831 54.74 59.691 54.767 59.527 54.804 59.375 54.843 59.236 54.886L59.236 55.392zM59.848 56.972C60.016 56.841 60.229 56.776 60.484 56.776L61.363 56.776 61.363 57.888C61.236 57.968 61.107 58.037 60.98 58.096 60.874 58.149 60.756 58.196 60.628 58.236 60.5 58.276 60.383 58.296 60.275 58.296 60.059 58.296 59.891 58.229 59.772 58.096 59.654 57.963 59.596 57.784 59.596 57.56 59.596 57.299 59.68 57.102 59.848 56.972zM65.229 58.248C65.186 58.259 65.141 58.267 65.092 58.272 65.012 58.288 64.922 58.296 64.82 58.296 64.666 58.296 64.542 58.277 64.448 58.24 64.355 58.203 64.284 58.147 64.236 58.072 64.188 57.997 64.156 57.9 64.141 57.783 64.124 57.665 64.116 57.526 64.116 57.366L64.116 55.2 65.107 55.2 65.107 54.72 64.116 54.72 64.116 53.12 63.54 53.12 63.54 54.72 62.876 54.72 62.876 55.2 63.54 55.2 63.54 57.453C63.54 57.907 63.628 58.244 63.805 58.463 63.981 58.683 64.287 58.792 64.725 58.792 64.783 58.792 64.842 58.791 64.9 58.788 64.959 58.785 65.012 58.779 65.061 58.768 65.119 58.763 65.175 58.755 65.229 58.744L65.229 58.248zM66.076 58.72L66.652 58.72 66.652 54.72 66.076 54.72 66.076 58.72zM66.044 53.784C66.135 53.875 66.247 53.92 66.38 53.92 66.514 53.92 66.626 53.875 66.716 53.784 66.807 53.693 66.852 53.581 66.852 53.448 66.852 53.315 66.807 53.203 66.716 53.112 66.626 53.021 66.514 52.976 66.38 52.976 66.247 52.976 66.135 53.021 66.044 53.112 65.954 53.203 65.908 53.315 65.908 53.448 65.908 53.581 65.954 53.693 66.044 53.784zM68.648 55.544C68.854 55.267 69.116 55.128 69.436 55.128 69.575 55.128 69.711 55.153 69.844 55.204 69.977 55.255 70.096 55.343 70.195 55.468 70.297 55.593 70.379 55.757 70.439 55.96 70.501 56.163 70.532 56.416 70.532 56.72 70.532 56.971 70.504 57.195 70.448 57.392 70.393 57.589 70.315 57.756 70.216 57.892 70.117 58.028 70.001 58.132 69.868 58.204 69.734 58.276 69.591 58.312 69.436 58.312 69.287 58.312 69.145 58.287 69.012 58.236 68.879 58.185 68.764 58.097 68.664 57.972 68.564 57.847 68.486 57.683 68.428 57.48 68.369 57.277 68.34 57.024 68.34 56.72 68.34 56.213 68.443 55.821 68.648 55.544zM68.2 58.304C68.501 58.629 68.913 58.792 69.436 58.792 69.682 58.792 69.908 58.745 70.116 58.652 70.324 58.559 70.503 58.42 70.652 58.236 70.801 58.052 70.917 57.827 71 57.56 71.083 57.293 71.124 56.987 71.124 56.64 71.124 55.963 70.975 55.461 70.676 55.136 70.377 54.81 69.964 54.648 69.436 54.648 69.18 54.648 68.949 54.696 68.744 54.792 68.539 54.888 68.361 55.028 68.212 55.212 68.063 55.396 67.948 55.621 67.868 55.888 67.788 56.155 67.748 56.459 67.748 56.8 67.748 57.477 67.898 57.98 68.2 58.304zM75.212 58.72L75.212 55.768C75.212 55.64 75.199 55.511 75.172 55.38 75.145 55.249 75.093 55.129 75.016 55.019 74.939 54.911 74.829 54.821 74.687 54.752 74.547 54.683 74.361 54.648 74.132 54.648 73.967 54.648 73.801 54.673 73.637 54.724 73.471 54.775 73.32 54.829 73.187 54.888 73.033 54.957 72.884 55.035 72.74 55.12L72.66 54.72 72.221 54.72 72.221 58.72 72.796 58.72 72.796 55.537C72.924 55.462 73.057 55.394 73.195 55.337 73.312 55.283 73.443 55.235 73.588 55.192 73.732 55.149 73.873 55.128 74.012 55.128 74.145 55.128 74.252 55.148 74.332 55.184 74.412 55.222 74.475 55.275 74.52 55.345 74.564 55.414 74.596 55.5 74.611 55.601 74.628 55.703 74.637 55.818 74.637 55.946L74.637 58.72 75.212 58.72zM76.504 57.996C76.411 58.089 76.363 58.205 76.363 58.344 76.363 58.445 76.389 58.533 76.439 58.608 76.491 58.683 76.559 58.739 76.645 58.776L76.141 59.88 76.557 59.88 77.332 58.752 77.332 58.336C77.332 58.197 77.285 58.083 77.191 57.992 77.1 57.901 76.982 57.856 76.844 57.856 76.711 57.856 76.598 57.903 76.504 57.996zM83.204 58.72L83.859 58.72 83.132 55.36C83.1 55.211 83.039 55.011 82.948 54.76 82.857 54.509 82.764 54.261 82.668 54.016 82.557 53.727 82.434 53.429 82.3 53.12L81.604 53.12C81.471 53.435 81.348 53.733 81.236 54.016 81.141 54.261 81.047 54.508 80.956 54.756 80.865 55.004 80.805 55.205 80.771 55.36L80.044 58.72 80.676 58.72 80.939 57.36 82.939 57.36 83.204 58.72zM82.212 54.328C82.287 54.519 82.355 54.713 82.42 54.908 82.484 55.102 82.527 55.253 82.548 55.36L82.836 56.832 81.044 56.832 81.332 55.36C81.354 55.248 81.396 55.093 81.46 54.896 81.523 54.699 81.593 54.507 81.668 54.32 81.753 54.101 81.844 53.867 81.939 53.616 82.036 53.867 82.127 54.104 82.212 54.328zM86.836 54.648C86.648 54.637 86.471 54.657 86.3 54.708 86.129 54.759 85.975 54.813 85.836 54.872 85.676 54.941 85.523 55.024 85.38 55.12L85.3 54.72 84.859 54.72 84.859 58.72 85.436 58.72 85.436 55.544C85.58 55.464 85.729 55.394 85.884 55.336 86.018 55.283 86.166 55.239 86.332 55.204 86.497 55.169 86.665 55.16 86.836 55.176L86.836 54.648zM87.764 52.64L87.764 58.72 88.204 58.72 88.284 58.32C88.374 58.411 88.479 58.491 88.596 58.56 88.697 58.619 88.82 58.672 88.964 58.72 89.107 58.768 89.273 58.792 89.46 58.792 89.609 58.792 89.766 58.753 89.928 58.676 90.09 58.599 90.236 58.475 90.368 58.304 90.498 58.133 90.605 57.912 90.691 57.64 90.777 57.368 90.82 57.035 90.82 56.64 90.82 55.947 90.705 55.441 90.477 55.124 90.246 54.807 89.924 54.648 89.508 54.648 89.374 54.648 89.236 54.673 89.096 54.724 88.954 54.775 88.825 54.829 88.708 54.888 88.568 54.957 88.434 55.035 88.3 55.12L88.34 54.648 88.34 52.64 87.764 52.64zM88.34 55.544C88.468 55.469 88.596 55.403 88.725 55.344 88.83 55.296 88.945 55.251 89.068 55.208 89.189 55.165 89.3 55.143 89.396 55.143 89.55 55.143 89.682 55.181 89.788 55.256 89.895 55.331 89.98 55.437 90.044 55.576 90.107 55.715 90.154 55.88 90.184 56.072 90.213 56.264 90.229 56.48 90.229 56.72 90.229 57.205 90.146 57.589 89.984 57.872 89.82 58.155 89.611 58.296 89.355 58.296 89.186 58.296 89.036 58.273 88.908 58.227 88.779 58.183 88.673 58.131 88.588 58.072 88.492 58.008 88.409 57.933 88.34 57.848L88.34 55.544zM94.492 58.024C94.357 58.077 94.223 58.123 94.084 58.16 93.961 58.192 93.829 58.221 93.688 58.248 93.546 58.275 93.406 58.288 93.268 58.288 93.076 58.288 92.916 58.256 92.788 58.193 92.66 58.129 92.557 58.042 92.477 57.93 92.396 57.819 92.337 57.685 92.3 57.529 92.262 57.373 92.236 57.202 92.221 57.016L93.004 57.016C93.189 57.016 93.377 57 93.564 56.968 93.75 56.935 93.917 56.873 94.064 56.779 94.21 56.685 94.33 56.557 94.424 56.393 94.518 56.231 94.564 56.018 94.564 55.756 94.564 55.387 94.452 55.108 94.229 54.921 94.004 54.734 93.7 54.64 93.316 54.64 93.07 54.64 92.846 54.684 92.641 54.773 92.434 54.86 92.257 54.995 92.107 55.176 91.958 55.357 91.842 55.583 91.76 55.852 91.678 56.121 91.637 56.435 91.637 56.792 91.637 57.416 91.76 57.904 92.008 58.256 92.256 58.608 92.641 58.784 93.164 58.784 93.346 58.784 93.516 58.772 93.676 58.748 93.836 58.724 93.977 58.696 94.1 58.664 94.238 58.627 94.369 58.584 94.492 58.536L94.492 58.024zM92.212 56.536C92.217 56.343 92.245 56.161 92.296 55.989 92.346 55.817 92.417 55.667 92.508 55.538 92.598 55.41 92.712 55.308 92.848 55.233 92.984 55.158 93.141 55.12 93.316 55.12 93.534 55.12 93.701 55.179 93.816 55.297 93.93 55.415 93.988 55.581 93.988 55.796 93.988 56.021 93.908 56.201 93.748 56.335 93.588 56.469 93.34 56.536 93.004 56.536L92.212 56.536zM95.74 58.72L96.316 58.72 96.316 54.72 95.74 54.72 95.74 58.72zM95.708 53.784C95.798 53.875 95.91 53.92 96.044 53.92 96.178 53.92 96.289 53.875 96.38 53.784 96.471 53.693 96.516 53.581 96.516 53.448 96.516 53.315 96.471 53.203 96.38 53.112 96.289 53.021 96.178 52.976 96.044 52.976 95.91 52.976 95.798 53.021 95.708 53.112 95.617 53.203 95.572 53.315 95.572 53.448 95.572 53.581 95.617 53.693 95.708 53.784zM99.62 58.248C99.577 58.259 99.532 58.267 99.484 58.272 99.404 58.288 99.313 58.296 99.212 58.296 99.057 58.296 98.934 58.277 98.84 58.24 98.746 58.203 98.676 58.147 98.628 58.072 98.58 57.997 98.548 57.9 98.532 57.783 98.516 57.665 98.508 57.526 98.508 57.366L98.508 55.2 99.5 55.2 99.5 54.72 98.508 54.72 98.508 53.12 97.932 53.12 97.932 54.72 97.268 54.72 97.268 55.2 97.932 55.2 97.932 57.453C97.932 57.907 98.02 58.244 98.195 58.463 98.372 58.683 98.678 58.792 99.116 58.792 99.174 58.792 99.232 58.791 99.292 58.788 99.35 58.785 99.404 58.779 99.452 58.768 99.51 58.763 99.566 58.755 99.62 58.744L99.62 58.248zM42.973 43.96C42.839 43.944 42.706 43.925 42.572 43.904 42.46 43.888 42.337 43.873 42.205 43.86 42.071 43.847 41.948 43.84 41.836 43.84 41.569 43.84 41.335 43.877 41.132 43.952 40.929 44.027 40.759 44.129 40.621 44.26 40.481 44.391 40.377 44.543 40.304 44.716 40.232 44.889 40.196 45.075 40.196 45.272 40.196 45.581 40.255 45.833 40.373 46.028 40.489 46.223 40.635 46.387 40.809 46.521 40.981 46.653 41.169 46.767 41.373 46.86 41.575 46.953 41.763 47.052 41.937 47.156 42.109 47.26 42.255 47.381 42.373 47.521 42.489 47.659 42.548 47.84 42.548 48.064 42.548 48.368 42.454 48.609 42.265 48.788 42.075 48.967 41.796 49.056 41.428 49.056 41.279 49.056 41.129 49.045 40.98 49.024 40.832 49.003 40.695 48.979 40.572 48.952 40.434 48.92 40.297 48.883 40.165 48.84L40.165 49.4C40.292 49.443 40.425 49.477 40.564 49.504 40.688 49.531 40.82 49.553 40.964 49.572 41.108 49.591 41.257 49.6 41.413 49.6 41.716 49.6 41.98 49.56 42.2 49.484 42.421 49.407 42.604 49.299 42.749 49.16 42.893 49.021 42.998 48.856 43.065 48.664 43.131 48.472 43.165 48.261 43.165 48.032 43.165 47.727 43.106 47.481 42.988 47.292 42.872 47.102 42.725 46.945 42.548 46.82 42.373 46.695 42.182 46.587 41.977 46.496 41.772 46.405 41.581 46.307 41.404 46.2 41.229 46.093 41.082 45.967 40.964 45.82 40.848 45.673 40.789 45.483 40.789 45.248 40.789 44.992 40.881 44.781 41.068 44.616 41.255 44.451 41.505 44.368 41.82 44.368 41.933 44.368 42.055 44.376 42.188 44.392 42.321 44.408 42.447 44.424 42.564 44.44 42.704 44.461 42.839 44.483 42.973 44.504L42.973 43.96zM46.924 48.824C46.792 48.877 46.655 48.923 46.517 48.96 46.394 48.992 46.261 49.021 46.121 49.048 45.979 49.075 45.839 49.088 45.7 49.088 45.508 49.088 45.349 49.056 45.22 48.993 45.092 48.929 44.988 48.842 44.908 48.73 44.829 48.619 44.77 48.485 44.732 48.329 44.695 48.172 44.669 48.002 44.652 47.816L45.437 47.816C45.624 47.816 45.81 47.8 45.997 47.768 46.184 47.736 46.35 47.673 46.497 47.579 46.644 47.486 46.763 47.357 46.856 47.194 46.949 47.031 46.997 46.818 46.997 46.556 46.997 46.188 46.884 45.908 46.661 45.721 46.437 45.534 46.132 45.44 45.749 45.44 45.503 45.44 45.277 45.484 45.072 45.572 44.867 45.66 44.689 45.795 44.541 45.976 44.392 46.157 44.275 46.383 44.192 46.652 44.109 46.921 44.068 47.235 44.068 47.592 44.068 48.216 44.192 48.704 44.44 49.056 44.688 49.408 45.073 49.584 45.596 49.584 45.777 49.584 45.948 49.572 46.108 49.548 46.269 49.524 46.409 49.496 46.532 49.464 46.671 49.427 46.801 49.384 46.924 49.336L46.924 48.824zM44.645 47.336C44.649 47.143 44.677 46.961 44.729 46.789 44.779 46.617 44.85 46.467 44.94 46.338 45.031 46.21 45.145 46.108 45.28 46.033 45.417 45.958 45.572 45.92 45.749 45.92 45.967 45.92 46.133 45.979 46.249 46.097 46.363 46.215 46.42 46.381 46.42 46.596 46.42 46.821 46.34 47.001 46.18 47.135 46.021 47.268 45.772 47.336 45.437 47.336L44.645 47.336zM51.164 49.521L51.164 46.568C51.164 46.44 51.151 46.31 51.125 46.18 51.098 46.049 51.045 45.929 50.968 45.82 50.892 45.711 50.781 45.621 50.641 45.552 50.5 45.483 50.313 45.448 50.085 45.448 49.919 45.448 49.753 45.473 49.588 45.524 49.423 45.575 49.273 45.629 49.141 45.688 48.985 45.757 48.836 45.835 48.692 45.92L48.612 45.521 48.172 45.521 48.172 49.521 48.749 49.521 48.749 46.337C48.876 46.262 49.009 46.195 49.148 46.136 49.266 46.083 49.396 46.035 49.541 45.992 49.685 45.949 49.825 45.928 49.964 45.928 50.098 45.928 50.205 45.947 50.284 45.984 50.364 46.022 50.427 46.075 50.473 46.143 50.518 46.214 50.548 46.3 50.565 46.401 50.581 46.503 50.588 46.618 50.588 46.746L50.588 49.521 51.164 49.521zM52.588 46.192C52.748 46.143 52.908 46.101 53.068 46.064 53.207 46.032 53.356 46.001 53.517 45.972 53.676 45.943 53.825 45.928 53.965 45.928 54.258 45.928 54.457 45.98 54.561 46.085 54.664 46.19 54.717 46.379 54.717 46.653L54.717 47.12 53.773 47.12C53.569 47.12 53.381 47.149 53.209 47.208 53.034 47.267 52.887 47.351 52.765 47.46 52.642 47.569 52.545 47.704 52.477 47.864 52.406 48.024 52.373 48.205 52.373 48.408 52.373 48.568 52.395 48.72 52.44 48.864 52.485 49.008 52.555 49.133 52.648 49.24 52.741 49.347 52.86 49.432 53.004 49.496 53.148 49.56 53.321 49.592 53.524 49.592 53.662 49.592 53.805 49.568 53.948 49.521 54.092 49.472 54.226 49.419 54.349 49.36 54.486 49.291 54.629 49.211 54.772 49.12L54.853 49.521 55.293 49.521 55.293 46.512C55.293 46.304 55.269 46.132 55.221 45.996 55.172 45.86 55.099 45.752 55 45.672 54.901 45.592 54.776 45.535 54.625 45.5 54.473 45.465 54.293 45.448 54.084 45.448 53.887 45.448 53.698 45.461 53.521 45.488 53.342 45.514 53.183 45.54 53.045 45.567 52.879 45.604 52.727 45.643 52.588 45.685L52.588 46.192zM53.2 47.772C53.369 47.641 53.58 47.576 53.836 47.576L54.717 47.576 54.717 48.688C54.588 48.768 54.461 48.837 54.332 48.896 54.226 48.949 54.108 48.996 53.98 49.036 53.853 49.076 53.734 49.096 53.629 49.096 53.409 49.096 53.241 49.029 53.125 48.896 53.006 48.763 52.948 48.584 52.948 48.36 52.948 48.099 53.032 47.903 53.2 47.772zM58.58 49.048C58.537 49.059 58.492 49.067 58.444 49.072 58.364 49.088 58.273 49.096 58.172 49.096 58.018 49.096 57.894 49.077 57.801 49.04 57.707 49.002 57.637 48.946 57.588 48.871 57.541 48.797 57.508 48.7 57.492 48.583 57.477 48.465 57.469 48.326 57.469 48.166L57.469 46 58.461 46 58.461 45.521 57.469 45.521 57.469 43.92 56.893 43.92 56.893 45.521 56.229 45.521 56.229 46 56.893 46 56.893 48.253C56.893 48.707 56.98 49.044 57.156 49.263 57.332 49.482 57.639 49.592 58.076 49.592 58.135 49.592 58.193 49.591 58.252 49.588 58.311 49.585 58.364 49.579 58.412 49.568 58.471 49.563 58.526 49.555 58.58 49.544L58.58 49.048zM61.5 45.553C61.398 45.537 61.295 45.521 61.188 45.504 61.098 45.493 60.99 45.481 60.869 45.468 60.746 45.455 60.621 45.448 60.492 45.448 60.258 45.448 60.057 45.476 59.889 45.532 59.721 45.588 59.582 45.666 59.477 45.765 59.369 45.864 59.291 45.977 59.24 46.109 59.19 46.241 59.164 46.381 59.164 46.53 59.164 46.771 59.213 46.962 59.309 47.104 59.404 47.245 59.524 47.359 59.668 47.444 59.813 47.53 59.969 47.598 60.141 47.649 60.311 47.7 60.469 47.757 60.612 47.821 60.756 47.885 60.877 47.965 60.973 48.062 61.068 48.158 61.116 48.294 61.116 48.471 61.116 48.535 61.106 48.602 61.088 48.675 61.069 48.747 61.032 48.814 60.977 48.876 60.92 48.937 60.844 48.989 60.748 49.032 60.652 49.075 60.524 49.096 60.364 49.096 60.23 49.096 60.096 49.087 59.961 49.068 59.824 49.049 59.7 49.027 59.588 49 59.455 48.973 59.326 48.941 59.205 48.904L59.205 49.442C59.316 49.474 59.437 49.5 59.565 49.521 59.67 49.542 59.793 49.559 59.933 49.572 60.07 49.585 60.215 49.592 60.364 49.592 60.621 49.592 60.834 49.559 61.004 49.492 61.174 49.426 61.311 49.338 61.412 49.229 61.514 49.12 61.586 48.996 61.629 48.858 61.67 48.719 61.692 48.581 61.692 48.442 61.692 48.182 61.645 47.974 61.549 47.82 61.453 47.666 61.33 47.545 61.185 47.457 61.037 47.369 60.879 47.298 60.709 47.245 60.537 47.192 60.379 47.136 60.232 47.077 60.086 47.018 59.965 46.943 59.869 46.85 59.772 46.757 59.725 46.625 59.725 46.455 59.725 46.322 59.777 46.201 59.885 46.092 59.99 45.983 60.193 45.928 60.492 45.928 60.609 45.928 60.727 45.935 60.844 45.952L61.172 45.984C61.284 46.005 61.394 46.024 61.5 46.04L61.5 45.553zM63.74 48.352C63.682 48.171 63.621 47.987 63.561 47.8 63.498 47.613 63.457 47.467 63.437 47.36L63.068 45.521 62.428 45.521 62.844 47.36C62.877 47.509 62.935 47.705 63.021 47.948 63.106 48.191 63.193 48.429 63.284 48.664 63.391 48.935 63.508 49.221 63.637 49.521L64.269 49.521C64.396 49.227 64.514 48.944 64.621 48.672 64.711 48.437 64.801 48.199 64.889 47.956 64.977 47.713 65.039 47.515 65.076 47.36L65.5 45.521 64.885 45.521 64.517 47.36C64.489 47.477 64.448 47.628 64.393 47.813 64.336 47.996 64.276 48.179 64.213 48.36 64.137 48.573 64.058 48.795 63.973 49.024 63.887 48.789 63.81 48.565 63.74 48.352zM69.076 48.824C68.942 48.877 68.807 48.923 68.668 48.96 68.545 48.992 68.414 49.021 68.273 49.048 68.131 49.075 67.99 49.088 67.853 49.088 67.66 49.088 67.5 49.056 67.373 48.993 67.244 48.929 67.141 48.842 67.061 48.73 66.98 48.619 66.922 48.485 66.885 48.329 66.846 48.172 66.82 48.002 66.805 47.816L67.588 47.816C67.774 47.816 67.961 47.8 68.148 47.768 68.334 47.736 68.502 47.673 68.648 47.579 68.795 47.486 68.914 47.357 69.008 47.194 69.102 47.031 69.148 46.818 69.148 46.556 69.148 46.188 69.037 45.908 68.812 45.721 68.588 45.534 68.284 45.44 67.9 45.44 67.654 45.44 67.43 45.484 67.225 45.572 67.019 45.66 66.842 45.795 66.692 45.976 66.543 46.157 66.426 46.383 66.344 46.652 66.262 46.921 66.221 47.235 66.221 47.592 66.221 48.216 66.344 48.704 66.592 49.056 66.84 49.408 67.226 49.584 67.748 49.584 67.93 49.584 68.101 49.572 68.26 49.548 68.42 49.524 68.562 49.496 68.685 49.464 68.822 49.427 68.953 49.384 69.076 49.336L69.076 48.824zM66.797 47.336C66.801 47.143 66.83 46.961 66.881 46.789 66.93 46.617 67.002 46.467 67.092 46.338 67.183 46.21 67.297 46.108 67.433 46.033 67.568 45.958 67.725 45.92 67.9 45.92 68.118 45.92 68.285 45.979 68.4 46.097 68.515 46.215 68.572 46.381 68.572 46.596 68.572 46.821 68.492 47.001 68.332 47.135 68.172 47.268 67.924 47.336 67.588 47.336L66.797 47.336zM72.301 45.448C72.113 45.438 71.935 45.457 71.765 45.508 71.594 45.559 71.438 45.613 71.301 45.672 71.141 45.741 70.988 45.824 70.844 45.92L70.765 45.521 70.324 45.521 70.324 49.521 70.9 49.521 70.9 46.344C71.045 46.264 71.193 46.195 71.349 46.136 71.481 46.083 71.631 46.039 71.797 46.004 71.961 45.969 72.129 45.96 72.301 45.976L72.301 45.448zM76.907 49.521C77.004 49.221 77.092 48.935 77.172 48.664 77.241 48.429 77.305 48.192 77.363 47.952 77.422 47.712 77.463 47.515 77.483 47.36L77.707 45.521 77.1 45.521 76.916 47.36C76.905 47.472 76.881 47.621 76.844 47.808 76.807 47.995 76.767 48.179 76.724 48.36 76.676 48.573 76.623 48.795 76.563 49.024L75.627 45.521 75.051 45.521 74.115 49.024C74.058 48.789 74.004 48.565 73.955 48.352 73.914 48.171 73.873 47.987 73.836 47.8 73.799 47.613 73.774 47.467 73.764 47.36L73.58 45.521 72.94 45.521 73.172 47.36C73.187 47.509 73.227 47.705 73.287 47.948 73.35 48.191 73.414 48.429 73.483 48.664 73.563 48.935 73.649 49.221 73.739 49.521L74.451 49.521 75.323 46.232 76.211 49.521 76.907 49.521zM78.859 46.192C79.02 46.143 79.18 46.101 79.34 46.064 79.479 46.032 79.627 46.001 79.787 45.972 79.947 45.943 80.098 45.928 80.235 45.928 80.529 45.928 80.728 45.98 80.832 46.085 80.936 46.19 80.987 46.379 80.987 46.653L80.987 47.12 80.043 47.12C79.842 47.12 79.653 47.149 79.48 47.208 79.307 47.267 79.158 47.351 79.035 47.46 78.914 47.569 78.817 47.704 78.748 47.864 78.678 48.024 78.644 48.205 78.644 48.408 78.644 48.568 78.666 48.72 78.711 48.864 78.758 49.008 78.826 49.133 78.92 49.24 79.014 49.347 79.131 49.432 79.275 49.496 79.42 49.56 79.594 49.592 79.795 49.592 79.935 49.592 80.075 49.568 80.219 49.521 80.363 49.472 80.498 49.419 80.619 49.36 80.758 49.291 80.899 49.211 81.043 49.12L81.123 49.521 81.563 49.521 81.563 46.512C81.563 46.304 81.539 46.132 81.491 45.996 81.443 45.86 81.371 45.752 81.271 45.672 81.174 45.592 81.047 45.535 80.896 45.5 80.743 45.465 80.564 45.448 80.355 45.448 80.158 45.448 79.971 45.461 79.791 45.488 79.613 45.514 79.455 45.54 79.315 45.567 79.15 45.604 78.998 45.643 78.859 45.685L78.859 46.192zM79.471 47.772C79.64 47.641 79.852 47.576 80.107 47.576L80.987 47.576 80.987 48.688C80.859 48.768 80.731 48.837 80.604 48.896 80.498 48.949 80.379 48.996 80.252 49.036 80.123 49.076 80.006 49.096 79.899 49.096 79.682 49.096 79.514 49.029 79.396 48.896 79.278 48.763 79.219 48.584 79.219 48.36 79.219 48.099 79.303 47.903 79.471 47.772zM82.924 49.521L83.5 49.521 83.5 43.441 82.924 43.441 82.924 49.521zM86.803 49.048C86.762 49.059 86.715 49.067 86.668 49.072 86.588 49.088 86.498 49.096 86.396 49.096 86.241 49.096 86.117 49.077 86.023 49.04 85.93 49.002 85.859 48.946 85.812 48.871 85.764 48.797 85.731 48.7 85.715 48.583 85.699 48.465 85.691 48.326 85.691 48.166L85.691 46 86.684 46 86.684 45.521 85.691 45.521 85.691 43.92 85.115 43.92 85.115 45.521 84.451 45.521 84.451 46 85.115 46 85.115 48.253C85.115 48.707 85.203 49.044 85.379 49.263 85.555 49.482 85.862 49.592 86.299 49.592 86.358 49.592 86.418 49.591 86.476 49.588 86.534 49.585 86.588 49.579 86.635 49.568 86.694 49.563 86.75 49.555 86.803 49.544L86.803 49.048zM87.627 45.521L87.627 48.472C87.627 48.6 87.641 48.729 87.668 48.86 87.694 48.991 87.746 49.111 87.823 49.22 87.9 49.329 88.01 49.419 88.151 49.488 88.293 49.557 88.479 49.592 88.707 49.592 88.873 49.592 89.039 49.568 89.203 49.521 89.368 49.472 89.519 49.419 89.651 49.36 89.807 49.291 89.955 49.211 90.1 49.12L90.18 49.521 90.619 49.521 90.619 45.521 90.043 45.521 90.043 48.703C89.916 48.783 89.782 48.852 89.644 48.912 89.526 48.965 89.396 49.012 89.252 49.052 89.107 49.092 88.967 49.112 88.828 49.112 88.694 49.112 88.588 49.093 88.508 49.056 88.428 49.018 88.364 48.965 88.319 48.896 88.274 48.826 88.243 48.741 88.228 48.639 88.211 48.537 88.203 48.422 88.203 48.294L88.203 45.521 87.627 45.521zM94.987 49.521L94.987 46.568C94.987 46.44 94.975 46.31 94.947 46.18 94.92 46.049 94.868 45.929 94.791 45.82 94.715 45.711 94.604 45.621 94.463 45.552 94.322 45.483 94.137 45.448 93.907 45.448 93.742 45.448 93.576 45.473 93.412 45.524 93.246 45.575 93.096 45.629 92.963 45.688 92.809 45.757 92.659 45.835 92.516 45.92L92.436 45.521 91.996 45.521 91.996 49.521 92.571 49.521 92.571 46.337C92.699 46.262 92.832 46.195 92.971 46.136 93.088 46.083 93.219 46.035 93.363 45.992 93.508 45.949 93.648 45.928 93.787 45.928 93.92 45.928 94.027 45.947 94.107 45.984 94.187 46.022 94.25 46.075 94.295 46.143 94.34 46.214 94.371 46.3 94.387 46.401 94.403 46.503 94.412 46.618 94.412 46.746L94.412 49.521 94.987 49.521zM96.787 46.484C96.84 46.352 96.91 46.245 96.996 46.16 97.08 46.075 97.178 46.012 97.287 45.972 97.396 45.932 97.504 45.912 97.611 45.912 97.793 45.912 97.95 45.938 98.084 45.988 98.217 46.039 98.328 46.093 98.42 46.152 98.521 46.221 98.608 46.301 98.684 46.392L98.684 46.952C98.684 47.309 98.588 47.575 98.396 47.748 98.203 47.921 97.969 48.008 97.691 48.008 97.414 48.008 97.18 47.921 96.991 47.748 96.803 47.575 96.707 47.309 96.707 46.952 96.707 46.771 96.734 46.615 96.787 46.484zM96.932 49.592C96.963 49.597 97 49.601 97.039 49.604 97.08 49.607 97.123 49.608 97.172 49.608L98.18 49.608C98.291 49.608 98.398 49.615 98.5 49.628 98.601 49.641 98.688 49.666 98.764 49.703 98.838 49.74 98.898 49.793 98.943 49.862 98.988 49.931 99.012 50.021 99.012 50.132 99.012 50.244 98.979 50.34 98.912 50.422 98.844 50.504 98.752 50.572 98.635 50.625 98.519 50.678 98.381 50.718 98.224 50.744 98.066 50.771 97.896 50.784 97.715 50.784 97.534 50.784 97.367 50.773 97.215 50.752 97.064 50.731 96.933 50.696 96.823 50.649 96.715 50.601 96.629 50.539 96.567 50.462 96.506 50.385 96.476 50.289 96.476 50.172 96.476 50.082 96.494 49.999 96.531 49.922 96.568 49.845 96.608 49.78 96.651 49.727 96.705 49.669 96.764 49.616 96.828 49.568 96.859 49.579 96.895 49.587 96.932 49.592zM96.336 50.953C96.605 51.112 97.047 51.192 97.659 51.192 98.278 51.192 98.748 51.089 99.071 50.884 99.395 50.679 99.555 50.408 99.555 50.072 99.555 49.741 99.451 49.501 99.243 49.352 99.035 49.203 98.729 49.128 98.323 49.128L97.323 49.128C97.115 49.128 96.969 49.096 96.883 49.032 96.799 48.968 96.756 48.883 96.756 48.776 96.756 48.557 96.95 48.448 97.34 48.448L97.691 48.448C97.899 48.448 98.096 48.417 98.283 48.356 98.471 48.295 98.635 48.201 98.775 48.076 98.916 47.951 99.03 47.791 99.115 47.596 99.2 47.401 99.243 47.171 99.243 46.904L99.243 45.521 98.812 45.521 98.731 45.92C98.641 45.835 98.534 45.757 98.412 45.688 98.305 45.629 98.176 45.575 98.027 45.524 97.879 45.473 97.707 45.448 97.516 45.448 97.355 45.448 97.194 45.479 97.031 45.54 96.868 45.601 96.723 45.696 96.592 45.824 96.461 45.952 96.353 46.113 96.268 46.308 96.183 46.503 96.14 46.731 96.14 46.992 96.14 47.227 96.172 47.42 96.239 47.572 96.307 47.724 96.383 47.845 96.467 47.935 96.563 48.043 96.676 48.125 96.803 48.184 96.691 48.205 96.592 48.246 96.508 48.304 96.433 48.352 96.364 48.422 96.303 48.513 96.242 48.604 96.211 48.722 96.211 48.866 96.211 48.957 96.225 49.036 96.252 49.102 96.278 49.17 96.308 49.225 96.34 49.268 96.377 49.321 96.422 49.362 96.476 49.388 96.375 49.442 96.283 49.511 96.203 49.596 96.135 49.67 96.071 49.761 96.016 49.867 95.959 49.974 95.932 50.096 95.932 50.234 95.932 50.553 96.066 50.793 96.336 50.953z"/>
    <g transform="translate(0 35)">
      <mask id="d" fill="white">
        <use xlink:href="#c"/>
      </mask>
      <path stroke="#D82333" stroke-width=".6" d="M0,0.83 L99.779,0.83" mask="url(#d)"/>
    </g>
  </g>
</svg>
