<?xml version="1.0" encoding="UTF-8"?>
<svg width="158px" height="61px" viewBox="0 0 158 61" version="1.1" xmlns="http://www.w3.org/2000/svg" xmlns:xlink="http://www.w3.org/1999/xlink">
    <title>Logo_Frame_ILB</title>
    <g id="Logo_Frame_ILB" stroke="none" stroke-width="1" fill="none" fill-rule="evenodd">
        <g id="IL-Logo-kompakt-Print-farbig" transform="translate(25.2378, 19)" fill-rule="nonzero">
            <g id="Group" transform="translate(31.4636, 0)">
                <g transform="translate(0.0042, 0.0652)" fill="#000000">
                    <path d="M1.36560792,0.349240047 L1.36560792,7.92586693 C1.36560792,8.00533472 1.30914327,8.05970742 1.23176579,8.05970742 L0.133842124,8.05970742 C0.0543733627,8.05970742 0,8.00324346 0,7.92586693 L0,0.349240047 C0,0.269772252 0.0564646459,0.21534333 0.133842124,0.21534333 L1.23176579,0.21534333 C1.30914327,0.213308292 1.36560792,0.269772252 1.36560792,0.349240047 Z" id="Path"></path>
                    <path d="M7.84440321,5.50419044 L7.84440321,0.349240047 C7.84440321,0.269772252 7.90086786,0.21539955 7.97824534,0.21539955 L9.07616901,0.21539955 C9.15563777,0.21539955 9.21001113,0.271863509 9.21001113,0.349240047 L9.21001113,7.92586693 C9.21001113,8.00533472 9.15354648,8.05970742 9.07616901,8.05970742 L7.86531604,8.05970742 C7.74193034,8.05970742 7.67500927,8.0262473 7.60808821,7.91331938 L4.68238304,2.74582144 C4.64892251,2.6789012 4.60291428,2.69981377 4.60291428,2.76882528 L4.60291428,7.92586693 C4.60291428,8.00533472 4.54644964,8.05970742 4.46907216,8.05970742 L3.37114849,8.05970742 C3.29167973,8.05970742 3.23730636,8.00324346 3.23730636,7.92586693 L3.23730636,0.349240047 C3.23730636,0.269772252 3.29377101,0.21539955 3.37114849,0.21539955 L4.58200145,0.21539955 C4.70538716,0.21539955 4.77230822,0.248859674 4.83922928,0.361787593 L7.76493445,5.52928553 C7.80048626,5.59411452 7.84440321,5.57111068 7.84440321,5.50419044 Z" id="Path"></path>
                    <path d="M15.7369059,0.349240047 L15.7369059,1.38023012 C15.7369059,1.45969792 15.6804413,1.51407062 15.6030638,1.51407062 L13.78783,1.51407062 C13.7439131,1.51407062 13.720909,1.53707446 13.720909,1.58099087 L13.720909,7.92586693 C13.720909,8.00533472 13.6644443,8.05970742 13.5870668,8.05970742 L12.4891432,8.05970742 C12.4096744,8.05970742 12.355301,8.00324346 12.355301,7.92586693 L12.355301,1.58099087 C12.355301,1.54753075 12.3322969,1.51407062 12.28838,1.51407062 L10.4731462,1.51407062 C10.3936774,1.51407062 10.339304,1.45760666 10.339304,1.38023012 L10.339304,0.349240047 C10.339304,0.269772252 10.3957687,0.21534333 10.4731462,0.21534333 L15.6072464,0.21534333 C15.6804413,0.213308292 15.7369059,0.269772252 15.7369059,0.349240047 Z" id="Path"></path>
                    <path d="M16.9937671,0.213308292 L21.0634042,0.213308292 C21.142873,0.213308292 21.1972463,0.269772252 21.1972463,0.347148789 L21.1972463,1.37813887 C21.1972463,1.45760666 21.1407817,1.51197936 21.0634042,1.51197936 L18.2945453,1.51197936 C18.2610847,1.51197936 18.2276242,1.5349832 18.2276242,1.57889961 L18.2276242,3.38365506 C18.2276242,3.42757148 18.2506283,3.45057531 18.2945453,3.45057531 L21.0634042,3.45057531 C21.142873,3.45057531 21.1972463,3.50703927 21.1972463,3.58441581 L21.1972463,4.6049496 C21.1972463,4.68441739 21.1407817,4.73879009 21.0634042,4.73879009 L18.2945453,4.73879009 C18.2610847,4.73879009 18.2276242,4.76179393 18.2276242,4.80571034 L18.2276242,6.68784233 C18.2276242,6.72130245 18.2506283,6.75476258 18.2945453,6.75476258 L21.0634042,6.75476258 C21.142873,6.75476258 21.1972463,6.81122654 21.1972463,6.88860307 L21.1972463,7.91959315 C21.1972463,7.99906095 21.1407817,8.05343365 21.0634042,8.05343365 L16.9937671,8.05343365 C16.9142984,8.05343365 16.859925,7.99696969 16.859925,7.91959315 L16.859925,0.349240047 C16.8578337,0.269772252 16.9142984,0.213308292 16.9937671,0.213308292 Z" id="Path"></path>
                    <path d="M26.5885744,5.0901214 L26.5885744,4.06958761 C26.5885744,3.99011981 26.645039,3.93574711 26.7224165,3.93574711 L30.1186604,3.93574711 C30.1981291,3.93574711 30.2525025,3.97966353 30.2525025,4.06958761 C30.1730337,6.66902101 28.6150278,8.27301571 26.3522594,8.27301571 C24.0100222,8.27301571 22.2617095,6.60210076 22.2617095,4.13650786 C22.2617095,1.67091495 24.0100222,0 26.3648071,0 C27.7220498,0 28.8764382,0.57091337 29.5812006,1.52452691 C29.6376652,1.60399471 29.6272088,1.65836741 29.5581965,1.71483137 L28.661036,2.38821637 C28.5941149,2.44468033 28.5271939,2.42167649 28.4707292,2.35475624 C27.9897341,1.71483137 27.2368721,1.36768258 26.3627158,1.36768258 C24.7607929,1.36768258 23.7067861,2.51160057 23.7067861,4.13650786 C23.7067861,5.76141514 24.7712493,6.90533314 26.3522594,6.90533314 C27.5526559,6.90533314 28.3703476,6.30095964 28.6380319,5.30342969 C28.6484883,5.25742202 28.6275755,5.22396189 28.5815672,5.22396189 L26.7203252,5.22396189 C26.6429477,5.22396189 26.5885744,5.16749794 26.5885744,5.0901214 Z" id="Path"></path>
                    <path d="M32.7766813,8.05970742 L31.6787576,8.05970742 C31.5992889,8.05970742 31.5449155,8.00324346 31.5449155,7.92586693 L31.5449155,0.349240047 C31.5449155,0.269772252 31.6013801,0.21539955 31.6787576,0.21539955 L34.0774594,0.21539955 C35.7693075,0.21539955 37.0805421,1.24638963 37.0805421,2.99468112 C37.0805421,4.22643194 36.430153,5.0901214 35.4430674,5.48327786 C35.3635986,5.51673798 35.3531422,5.57320194 35.3991504,5.6296659 L37.0805421,7.89449806 C37.1474631,7.98442214 37.1140026,8.06179868 37.0010733,8.06179868 L35.6563782,8.06179868 C35.5225361,8.06179868 35.4660715,8.03879485 35.3866027,7.91541064 L33.941526,5.88689061 C33.874605,5.79696652 33.8285967,5.77396269 33.7282151,5.77396269 L32.9774445,5.77396269 C32.9439839,5.77396269 32.9105234,5.79696652 32.9105234,5.84088294 L32.9105234,7.92586693 C32.9105234,8.00324346 32.8540588,8.05970742 32.7766813,8.05970742 Z M32.9105234,1.58099087 L32.9105234,4.40628011 C32.9105234,4.43974023 32.9335275,4.47320036 32.9774445,4.47320036 L33.9979907,4.47320036 C34.916064,4.47320036 35.6459218,3.99221107 35.6459218,2.99468112 C35.6459218,1.99715116 34.9181553,1.51407062 33.9979907,1.51407062 L32.9774445,1.51407062 C32.9335275,1.51407062 32.9105234,1.53707446 32.9105234,1.58099087 Z" id="Shape"></path>
                    <path d="M42.2815634,0.382700171 L44.4460414,7.92586693 C44.4690456,8.01579101 44.4230373,8.05970742 44.3331122,8.05970742 L43.1682674,8.05970742 C43.1013464,8.05970742 43.0448817,8.0262473 43.0218776,7.95932705 L42.6287164,6.56864064 C42.6057122,6.48917284 42.5722517,6.46826026 42.5157871,6.46826026 L39.6695507,6.46826026 C39.613086,6.46826026 39.5796255,6.4912641 39.5566214,6.56864064 L39.1634601,7.95932705 C39.140456,8.0262473 39.0839914,8.05970742 39.0170703,8.05970742 L37.8522256,8.05970742 C37.7623004,8.05970742 37.7183835,8.01579101 37.7392963,7.92586693 L39.9016831,0.382700171 C39.9351436,0.248859674 40.0020647,0.21539955 40.114994,0.21539955 L42.0661612,0.21539955 C42.1811818,0.213308292 42.2481028,0.246768416 42.2815634,0.382700171 Z M40.0292514,5.18004548 L42.1581776,5.18004548 C42.2020946,5.18004548 42.2250987,5.15704165 42.2146423,5.10057769 L41.2171002,1.59144716 C41.2066438,1.54753075 41.1836397,1.52452691 41.1501792,1.52452691 L41.0372499,1.52452691 C41.0037893,1.52452691 40.9807852,1.54753075 40.9703288,1.59144716 L39.9727867,5.10057769 C39.9623303,5.15704165 39.9853344,5.18004548 40.0292514,5.18004548 Z" id="Shape"></path>
                    <path d="M49.6031458,0.349240047 L49.6031458,1.38023012 C49.6031458,1.45969792 49.5466811,1.51407062 49.4693036,1.51407062 L47.6540698,1.51407062 C47.6101529,1.51407062 47.5871488,1.53707446 47.5871488,1.58099087 L47.5871488,7.92586693 C47.5871488,8.00533472 47.5306841,8.05970742 47.4533067,8.05970742 L46.355383,8.05970742 C46.2759142,8.05970742 46.2215409,8.00324346 46.2215409,7.92586693 L46.2215409,1.58099087 C46.2215409,1.54753075 46.1985368,1.51407062 46.1546198,1.51407062 L44.339386,1.51407062 C44.2599172,1.51407062 44.2055439,1.45760666 44.2055439,1.38023012 L44.2055439,0.349240047 C44.2055439,0.269772252 44.2620085,0.21534333 44.339386,0.21534333 L49.4734862,0.21534333 C49.5466811,0.213308292 49.6031458,0.269772252 49.6031458,0.349240047 Z" id="Path"></path>
                    <path d="M52.0917728,0.349240047 L52.0917728,7.92586693 C52.0917728,8.00533472 52.0353081,8.05970742 51.9579306,8.05970742 L50.860007,8.05970742 C50.7805382,8.05970742 50.7261648,8.00324346 50.7261648,7.92586693 L50.7261648,0.349240047 C50.7261648,0.269772252 50.7826295,0.21534333 50.860007,0.21534333 L51.9579306,0.21534333 C52.0353081,0.213308292 52.0917728,0.269772252 52.0917728,0.349240047 Z" id="Path"></path>
                    <path d="M53.4929325,4.13650786 C53.4929325,1.74829149 55.2977099,0 57.6064865,0 C59.9152631,0 61.7200405,1.74829149 61.7200405,4.13650786 C61.7200405,6.52472422 59.9152631,8.27301571 57.6064865,8.27301571 C55.2977099,8.27301571 53.4929325,6.52472422 53.4929325,4.13650786 Z M60.2749638,4.13650786 C60.2749638,2.58897711 59.1874966,1.36768258 57.6064865,1.36768258 C56.0254764,1.36768258 54.9380092,2.58897711 54.9380092,4.13650786 C54.9380092,5.6840386 56.0254764,6.90533314 57.6064865,6.90533314 C59.1874966,6.90533314 60.2749638,5.6840386 60.2749638,4.13650786 Z" id="Shape"></path>
                    <path d="M67.6948366,5.50419044 L67.6948366,0.349240047 C67.6948366,0.269772252 67.7513012,0.21539955 67.8286787,0.21539955 L68.9266024,0.21539955 C69.0060711,0.21539955 69.0604445,0.271863509 69.0604445,0.349240047 L69.0604445,7.92586693 C69.0604445,8.00533472 69.0039798,8.05970742 68.9266024,8.05970742 L67.7157494,8.05970742 C67.5923637,8.05970742 67.5254426,8.0262473 67.4585216,7.91331938 L64.5328164,2.74582144 C64.4993559,2.6789012 64.4533476,2.69981377 64.4533476,2.76882528 L64.4533476,7.92586693 C64.4533476,8.00533472 64.396883,8.05970742 64.3195055,8.05970742 L63.2215818,8.05970742 C63.1421131,8.05970742 63.0877397,8.00324346 63.0877397,7.92586693 L63.0877397,0.349240047 C63.0877397,0.269772252 63.1442044,0.21539955 63.2215818,0.21539955 L64.4324348,0.21539955 C64.5558205,0.21539955 64.6227416,0.248859674 64.6896626,0.361787593 L67.6153678,5.52928553 C67.6509196,5.59411452 67.6948366,5.57111068 67.6948366,5.50419044 Z" id="Path"></path>
                    <path d="M6.22575003,16.2678941 C6.22575003,13.8796778 8.03052741,12.1313863 10.339304,12.1313863 C12.6480807,12.1313863 14.4528581,13.8796778 14.4528581,16.2678941 C14.4528581,18.6561105 12.6480807,20.404402 10.339304,20.404402 C8.03052741,20.404402 6.22575003,18.6561105 6.22575003,16.2678941 Z M13.0056901,16.2678941 C13.0056901,14.7203634 11.9182228,13.4990689 10.3372128,13.4990689 C8.75620268,13.4990689 7.66873542,14.7203634 7.66873542,16.2678941 C7.66873542,17.8154249 8.75620268,19.0367194 10.3372128,19.0367194 C11.9182228,19.0367194 13.0056901,17.8154249 13.0056901,16.2678941 Z" id="Shape"></path>
                    <path d="M20.1808827,12.4806263 L20.1808827,13.5116164 C20.1808827,13.5910842 20.1244181,13.6454569 20.0470406,13.6454569 L18.2318068,13.6454569 C18.1878898,13.6454569 18.1648857,13.6684607 18.1648857,13.7123772 L18.1648857,20.0572532 C18.1648857,20.136721 18.1084211,20.1910937 18.0310436,20.1910937 L16.9331199,20.1910937 C16.8536512,20.1910937 16.7992778,20.1346298 16.7992778,20.0572532 L16.7992778,13.7123772 C16.7992778,13.678917 16.7762737,13.6454569 16.7323567,13.6454569 L14.9171229,13.6454569 C14.8376542,13.6454569 14.7832808,13.588993 14.7832808,13.5116164 L14.7832808,12.4806263 C14.7832808,12.4011585 14.8397455,12.3467858 14.9171229,12.3467858 L20.0512231,12.3467858 C20.1244181,12.3467858 20.1808827,12.4011585 20.1808827,12.4806263 Z" id="Path"></path>
                    <path d="M20.6974296,18.6331067 C20.6639691,18.5536389 20.6974296,18.4992662 20.7768984,18.4658061 L21.8183574,18.0391895 C21.8978262,18.0057293 21.9647472,18.0391895 21.9856601,18.1186573 C22.1885146,18.7355783 22.6925138,19.049267 23.3303552,19.049267 C24.1375905,19.049267 24.5642122,18.6226504 24.5642122,18.0182769 C24.5642122,17.378352 24.171051,17.0437508 23.476745,16.907819 L22.9162811,16.8074387 C21.6949717,16.5836741 20.8647323,15.7429884 20.8647323,14.4756862 C20.8647323,13.2313879 21.8622744,12.1439338 23.3972762,12.1439338 C24.562121,12.1439338 25.4362773,12.7838587 25.839895,13.735381 C25.8733555,13.8148488 25.839895,13.8692215 25.7604262,13.9026816 L24.7189672,14.3167507 C24.6394984,14.3502108 24.5851251,14.3272069 24.5516645,14.2498304 C24.3383537,13.7562936 23.9117319,13.4426049 23.3868198,13.4426049 C22.7029702,13.4426049 22.2993526,13.8692215 22.2993526,14.4296786 C22.2993526,14.9106679 22.6235015,15.2808205 23.2299736,15.4042047 L23.8008939,15.5045851 C24.9322781,15.7178934 26.0092889,16.4581986 26.0092889,17.913714 C26.0092889,19.2583927 25.0117468,20.4023156 23.3303552,20.4023156 C22.0985894,20.404402 21.1115037,19.7331083 20.6974296,18.6331067 Z" id="Path"></path>
                    <path d="M27.0988475,15.6405168 C27.0988475,15.1030636 27.5359256,14.6659907 28.0859331,14.6659907 C28.6233929,14.6659907 29.0730188,15.1030636 29.0730188,15.6405168 C29.0730188,16.1905176 28.6254842,16.6275905 28.0859331,16.6275905 C27.5359256,16.6275905 27.0988475,16.1905176 27.0988475,15.6405168 Z M27.0988475,19.3734119 C27.0988475,18.8359587 27.5359256,18.3863383 28.0859331,18.3863383 C28.6233929,18.3863383 29.0730188,18.8338674 29.0730188,19.3734119 C29.0730188,19.9108652 28.6254842,20.3604856 28.0859331,20.3604856 C27.5359256,20.3604856 27.0988475,19.9129564 27.0988475,19.3734119 Z" id="Shape"></path>
                    <path d="M31.9631721,12.4806263 L31.9631721,20.0572532 C31.9631721,20.136721 31.9067075,20.1910937 31.82933,20.1910937 L30.7314063,20.1910937 C30.6519376,20.1910937 30.5975642,20.1346298 30.5975642,20.0572532 L30.5975642,12.4806263 C30.5975642,12.4011585 30.6540289,12.3467858 30.7314063,12.3467858 L31.82933,12.3467858 C31.9067075,12.3467858 31.9631721,12.4011585 31.9631721,12.4806263 Z" id="Path"></path>
                    <path d="M38.4419674,17.6355767 L38.4419674,12.4806263 C38.4419674,12.4011585 38.4984321,12.3467858 38.5758096,12.3467858 L39.6737332,12.3467858 C39.753202,12.3467858 39.8075753,12.4032498 39.8075753,12.4806263 L39.8075753,20.0572532 C39.8075753,20.136721 39.7511107,20.1910937 39.6737332,20.1910937 L38.4628803,20.1910937 C38.3394946,20.1910937 38.2725735,20.1576336 38.2056524,20.0447057 L35.2799473,14.8772077 C35.2464867,14.8102875 35.2004785,14.8312001 35.2004785,14.9002116 L35.2004785,20.0572532 C35.2004785,20.136721 35.1440139,20.1910937 35.0666364,20.1910937 L33.9687127,20.1910937 C33.8892439,20.1910937 33.8348706,20.1346298 33.8348706,20.0572532 L33.8348706,12.4806263 C33.8348706,12.4011585 33.8913352,12.3467858 33.9687127,12.3467858 L35.1795657,12.3467858 C35.3029514,12.3467858 35.3698724,12.380246 35.4367935,12.4931739 L38.3624987,17.6606718 C38.3980505,17.7255008 38.4419674,17.7045882 38.4419674,17.6355767 Z" id="Path"></path>
                    <path d="M46.2780055,17.6355767 L46.2780055,12.4806263 C46.2780055,12.4011585 46.3344702,12.3467858 46.4118476,12.3467858 L47.5097713,12.3467858 C47.5892401,12.3467858 47.6436134,12.4032498 47.6436134,12.4806263 L47.6436134,20.0572532 C47.6436134,20.136721 47.5871488,20.1910937 47.5097713,20.1910937 L46.2989183,20.1910937 C46.1755326,20.1910937 46.1086116,20.1576336 46.0416905,20.0447057 L43.1159853,14.8772077 C43.0825248,14.8102875 43.0365166,14.8312001 43.0365166,14.9002116 L43.0365166,20.0572532 C43.0365166,20.136721 42.9800519,20.1910937 42.9026745,20.1910937 L41.8047508,20.1910937 C41.725282,20.1910937 41.6709087,20.1346298 41.6709087,20.0572532 L41.6709087,12.4806263 C41.6709087,12.4011585 41.7273733,12.3467858 41.8047508,12.3467858 L43.0156037,12.3467858 C43.1389895,12.3467858 43.2059105,12.380246 43.2728316,12.4931739 L46.1985368,17.6606718 C46.2340886,17.7255008 46.2780055,17.7045882 46.2780055,17.6355767 Z" id="Path"></path>
                    <path d="M49.6428801,12.3467858 L53.7125172,12.3467858 C53.791986,12.3467858 53.8463593,12.4032498 53.8463593,12.4806263 L53.8463593,13.5116164 C53.8463593,13.5910842 53.7898947,13.6454569 53.7125172,13.6454569 L50.9436583,13.6454569 C50.9101978,13.6454569 50.8767372,13.6684607 50.8767372,13.7123772 L50.8767372,15.5171326 C50.8767372,15.561049 50.8997413,15.5840529 50.9436583,15.5840529 L53.7125172,15.5840529 C53.791986,15.5840529 53.8463593,15.6405168 53.8463593,15.7178934 L53.8463593,16.7384271 C53.8463593,16.8178949 53.7898947,16.8722676 53.7125172,16.8722676 L50.9436583,16.8722676 C50.9101978,16.8722676 50.8767372,16.8952715 50.8767372,16.9391879 L50.8767372,18.8213199 C50.8767372,18.85478 50.8997413,18.8882401 50.9436583,18.8882401 L53.7125172,18.8882401 C53.791986,18.8882401 53.8463593,18.9447041 53.8463593,19.0220806 L53.8463593,20.0530707 C53.8463593,20.1325385 53.7898947,20.1869112 53.7125172,20.1869112 L49.6428801,20.1869112 C49.5634114,20.1869112 49.509038,20.1304472 49.509038,20.0530707 L49.509038,12.4806263 C49.5069467,12.4011585 49.5634114,12.3467858 49.6428801,12.3467858 Z" id="Path"></path>
                    <path d="M60.0679268,17.6355767 L60.0679268,12.4806263 C60.0679268,12.4011585 60.1243915,12.3467858 60.2017689,12.3467858 L61.2996926,12.3467858 C61.3791614,12.3467858 61.4335347,12.4032498 61.4335347,12.4806263 L61.4335347,20.0572532 C61.4335347,20.136721 61.3770701,20.1910937 61.2996926,20.1910937 L60.0888396,20.1910937 C59.9654539,20.1910937 59.8985329,20.1576336 59.8316118,20.0447057 L56.9059066,14.8772077 C56.8724461,14.8102875 56.8264379,14.8312001 56.8264379,14.9002116 L56.8264379,20.0572532 C56.8264379,20.136721 56.7699732,20.1910937 56.6925958,20.1910937 L55.5946721,20.1910937 C55.5152033,20.1910937 55.46083,20.1346298 55.46083,20.0572532 L55.46083,12.4806263 C55.46083,12.4011585 55.5172946,12.3467858 55.5946721,12.3467858 L56.805525,12.3467858 C56.9289108,12.3467858 56.9958318,12.380246 57.0627529,12.4931739 L59.988458,17.6606718 C60.0219186,17.7255008 60.0679268,17.7045882 60.0679268,17.6355767 Z" id="Path"></path>
                </g>
                <path d="M1.37188177,12.4182357 C1.37188177,11.4039757 2.19375606,10.9689941 3.2080284,10.9689941 L72.6992772,10.9689941 L72.7473767,10.9669028 C74.1485365,10.8686137 75.363572,9.95264281 75.8445671,8.63305916 C76.1875376,7.69199317 76.1206165,6.66727686 75.6563516,5.77221854 C75.2297299,4.9524455 74.4768679,4.35016326 73.6068941,4.03229208 L72.7954762,3.73742473 C72.209917,3.52411644 71.8376685,2.91137792 71.9819671,2.30491317 C72.069801,1.9368518 72.3144811,1.6398932 72.6511777,1.48304887 C72.9439574,1.34711711 73.2743801,1.33038705 73.5776162,1.44331497 C73.9561384,1.58133798 74.2426442,1.8971179 74.3409345,2.29027436 L75.6688993,1.95776438 C75.459771,1.12335253 74.8532989,0.44996753 74.0460636,0.157191443 C73.3977658,-0.0791206845 72.6971859,-0.0477518181 72.0718923,0.242933011 C71.4235945,0.544074129 70.9384168,1.08989241 70.7125582,1.77164244 C70.2671149,3.11213866 71.0346158,4.55719778 72.3604893,5.04027832 L73.1719072,5.33514567 C73.6759065,5.51917635 74.1213498,5.85168633 74.3911253,6.31594556 C74.7215481,6.88895019 74.780104,7.55606141 74.5563367,8.16670868 C74.263557,8.97184292 73.5253341,9.5323 72.6741818,9.60131151 L3.00517393,9.60131151 C1.34678637,9.60131151 0,10.5611988 0,12.2195662 L0.00209128318,20.1266118 C0.00209128318,20.2060796 0.0585559291,20.2604523 0.135933407,20.2604523 L5.37459778,20.2604523 C5.45406654,20.2604523 5.5084399,20.2039884 5.5084399,20.1266118 L5.5084399,19.0956218 C5.5084399,19.016154 5.45197525,18.9617813 5.37459778,18.9617813 L1.43671155,18.9617813 C1.3927946,18.9617813 1.36979048,18.9283211 1.36979048,18.894861 L1.37188177,12.4182357 Z" id="Path" fill="#357A5D"></path>
            </g>
            <g id="Group" transform="translate(0, 0.2806)" fill="#357A5D">
                <path d="M17.025391,6.95970584 L17.2658886,6.51008542 L18.7318781,3.76635523 L18.7318781,3.76635523 L18.7318781,3.76635523 L14.7605314,5.26996957 L10.548687,6.86350798 L8.18971961,10.4688364 L5.49405559,14.5886142 L10.4545793,12.5161777 L15.0930454,10.5775818 L17.025391,6.95970584 Z M10.1074263,11.8511577 L7.5560608,12.9030604 L8.91330359,10.7783425 L11.1154248,7.32776721 L12.7445344,8.6598984 L14.455204,10.0589498 L10.1074263,11.8511577 Z" id="Shape"></path>
                <path d="M25.2755032,8.6598984 C24.12948,3.53004311 18.5875796,0 12.7466257,0 C6.90358045,0 1.36377131,3.53004311 0.21565684,8.6598984 C0.0378977693,9.45457635 0.00652852158,11.0313847 0.00652852158,11.0313847 C-0.210964929,17.1294923 5.02560816,22.7194243 12.7466257,22.7194243 C20.4655519,22.7194243 25.702125,17.1294923 25.4846315,11.0313847 C25.4846315,11.0313847 25.4532623,9.45457635 25.2755032,8.6598984 Z M23.8032398,10.4897489 C23.5920202,15.1783489 19.0957614,19.2813966 12.7466257,19.2813966 C6.39748992,19.2813966 1.8991398,15.1804401 1.6879202,10.4897489 C1.66073352,9.88746671 1.7004679,9.27472818 1.81967104,8.6598984 C2.70219254,4.1344166 7.54978696,0.957796056 12.7466257,0.957796056 C17.9434644,0.957796056 22.7889675,4.1344166 23.671489,8.66198966 C23.7906921,9.27472818 23.8304265,9.88746671 23.8032398,10.4897489 Z" id="Shape"></path>
            </g>
        </g>
    </g>
</svg>