<svg width="173" height="74" viewBox="0 0 173 74" xmlns="http://www.w3.org/2000/svg" xmlns:xlink="http://www.w3.org/1999/xlink">
	<defs>
		<path id="a" d="M90.244 5.052V30H84.34V5.052h5.904zm11.548 0V30h-5.904V5.052h5.904zm14.328 0l-7.956 11.196L116.768 30h-6.84l-7.956-13.32 7.92-11.628h6.228zM144.444 30h-5.796l-.432-9.756c-.12-2.328-.18-4.404-.18-6.228 0-1.392.036-2.712.108-3.96l-3.852 17.316h-5.58l-4.104-17.316c.144 2.088.216 4.056.216 5.904a91.69 91.69 0 0 1-.108 4.356L124.284 30h-5.76l1.872-24.948h7.452l3.744 16.92 3.492-16.92h7.488L144.444 30zm14.248-25.56c3.552 0 6.318 1.14 8.298 3.42 1.98 2.28 2.97 5.496 2.97 9.648 0 2.712-.45 5.052-1.35 7.02-.9 1.968-2.196 3.474-3.888 4.518-1.692 1.044-3.702 1.566-6.03 1.566-2.328 0-4.332-.516-6.012-1.548-1.68-1.032-2.97-2.526-3.87-4.482-.9-1.956-1.35-4.314-1.35-7.074 0-2.688.45-5.016 1.35-6.984.9-1.968 2.19-3.474 3.87-4.518 1.68-1.044 3.684-1.566 6.012-1.566zm0 4.32c-1.704 0-2.97.69-3.798 2.07-.828 1.38-1.242 3.606-1.242 6.678s.42 5.304 1.26 6.696c.84 1.392 2.1 2.088 3.78 2.088 1.728 0 3.006-.69 3.834-2.07.828-1.38 1.242-3.618 1.242-6.714 0-3.096-.42-5.328-1.26-6.696-.84-1.368-2.112-2.052-3.816-2.052zM98.812 66l-1.872-6.228h-9.396L85.672 66h-3.456l7.956-24.804h4.32L102.412 66h-3.6zm-10.44-9h7.74L92.26 44.04 88.372 57zm28.252 8.136c-1.248.864-2.664 1.296-4.248 1.296-1.608 0-2.862-.462-3.762-1.386-.9-.924-1.35-2.262-1.35-4.014V49.584h-3.312v-2.556h3.312v-4.284l3.312-.396v4.68h4.5l-.36 2.556h-4.14v11.304c0 .984.174 1.698.522 2.142.348.444.93.666 1.746.666.744 0 1.584-.252 2.52-.756l1.26 2.196zm7.84 1.296c-1.224 0-2.19-.366-2.898-1.098-.708-.732-1.062-1.758-1.062-3.078v-22.86l3.312-.396v23.184c0 .528.09.912.27 1.152.18.24.486.36.918.36.456 0 .864-.072 1.224-.216l.864 2.304c-.792.432-1.668.648-2.628.648zm20.368-4.86c0 .768.132 1.338.396 1.71.264.372.66.654 1.188.846l-.756 2.304c-.984-.12-1.776-.396-2.376-.828-.6-.432-1.044-1.104-1.332-2.016-1.272 1.896-3.156 2.844-5.652 2.844-1.872 0-3.348-.528-4.428-1.584s-1.62-2.436-1.62-4.14c0-2.016.726-3.564 2.178-4.644s3.51-1.62 6.174-1.62h2.916V53.04c0-1.344-.324-2.304-.972-2.88-.648-.576-1.644-.864-2.988-.864-1.392 0-3.096.336-5.112 1.008l-.828-2.412c2.352-.864 4.536-1.296 6.552-1.296 2.232 0 3.9.546 5.004 1.638 1.104 1.092 1.656 2.646 1.656 4.662v8.676zm-7.776 2.376c1.896 0 3.384-.984 4.464-2.952V56.64h-2.484c-3.504 0-5.256 1.296-5.256 3.888 0 1.128.276 1.98.828 2.556.552.576 1.368.864 2.448.864zm20.368-17.352c1.296 0 2.46.18 3.492.54 1.032.36 2.016.9 2.952 1.62l-1.404 2.088c-.864-.552-1.686-.96-2.466-1.224a7.64 7.64 0 0 0-2.466-.396c-1.08 0-1.932.222-2.556.666-.624.444-.936 1.05-.936 1.818s.294 1.368.882 1.8c.588.432 1.65.852 3.186 1.26 2.112.528 3.69 1.248 4.734 2.16 1.044.912 1.566 2.16 1.566 3.744 0 1.872-.726 3.3-2.178 4.284s-3.222 1.476-5.31 1.476c-2.88 0-5.268-.828-7.164-2.484l1.764-2.016c1.608 1.224 3.384 1.836 5.328 1.836 1.248 0 2.238-.258 2.97-.774.732-.516 1.098-1.218 1.098-2.106 0-.648-.132-1.17-.396-1.566-.264-.396-.72-.744-1.368-1.044-.648-.3-1.596-.618-2.844-.954-2.016-.528-3.474-1.236-4.374-2.124-.9-.888-1.35-2.016-1.35-3.384 0-.984.294-1.878.882-2.682.588-.804 1.404-1.428 2.448-1.872 1.044-.444 2.214-.666 3.51-.666z"/>
		<path id="b" d="M.05.413h32.834v51.636H.05z"/>
		<path id="d" d="M.267.368h48.3v47.326H.268z"/>
		<path id="f" d="M.233.182h50.978v42.052H.233z"/>

         <filter id="shadow" x="-50%" y="-50%" width="200%" height="200%">
            <feOffset result="offOut" in="SourceAlpha" dx="0" dy="2" />
            <feGaussianBlur result="blurOut" in="offOut" stdDeviation="1" />
            <feBlend in="SourceGraphic" in2="blurOut" mode="normal" />
          	
          	<feComponentTransfer><feFuncA type="linear" slope="0.32"/></feComponentTransfer>
	       
	      	<feMerge><feMergeNode/>
	    	
	    	<feMergeNode in="SourceGraphic"/></feMerge>
      
        </filter>

	</defs>

	<g fill="#FFF" transform="translate(3 2)">
		<use xlink:href="#a"/>
	</g>
	
	<g filter="url(#shadow)">

		<path d="M3.225 29.906c10.97-22.13 33.932-21.546 46.214-7.602 5.156 5.852 5.12 9.982 4.94 18.635.927-4.453 6.359-11.738.004-23.443-3.23-5.95-8.774-11.18-17.544-12.904C19.563 1.196 4.969 15.856 3.225 29.906" fill="#BC287E"/>
		
		<g transform="translate(34.671 2.06)">
			<mask id="c" fill="#fff">
				<use xlink:href="#b"/>
			</mask>
			<path d="M4.37 51.925c16.63 1.54 30.019-11.406 28.378-27.7C31.314 9.983 16.664-.72.05.509l2.059.92c6.02 1.956 7.847 1.684 13.582 7.118 12.923 12.247 10.46 35.502-8.87 42.305l-2.45 1.073z" fill="#1B79B2" mask="url(#c)"/>
		</g>

		<path d="M20.137 65.158c-10.039-9.12-13.317-21.38-6.486-33.434 2.808-4.957 6.237-8.355 12.105-10.967 8.156-3.629 11.829-2.44 19.81-.35-5.822-7.835-28.982-12.229-39.485 6.321-8.964 15.83 3.447 34.155 14.056 38.43" fill="#E9B52A"/>

		<g transform="translate(10.918 21.893)">
			<mask id="e" fill="#fff">
				<use xlink:href="#d"/>
			</mask>

			<path d="M48.568 39.053c-6.903 2.33-10.111 5.253-19.811 3.253C3.244 37.046 3.924 6.324 14.664.368 8.816 2.436 3.165 8.981 1.17 16.096-3.178 31.6 8.618 48.226 27.198 47.681c8.273-.242 17.692-4.167 21.37-8.628" fill="#02A86B" mask="url(#e)"/>
		</g>

		<g transform="translate(19.767 21.42)">
			<mask id="g" fill="#fff">
				<use xlink:href="#f"/>
			</mask>
			<path d="M.258 20.677c-.797 12.469 17.776 27.149 35.72 19.399C50.042 34.002 55.145 16.86 47.993.182c.688 8.672 1.95 11.474-2.15 19.5-11.6 22.7-43.344 13.784-45.585.995" fill="#E5712A" mask="url(#g)"/>
		</g>
	</g>

</svg>